<?xml version="1.0" encoding="UTF-8"?>
<svg version="1.1" xmlns="http://www.w3.org/2000/svg" width="1080" height="1080">
<path d="M0 0 C315.48 0 630.96 0 956 0 C956 153.12 956 306.24 956 464 C640.52 464 325.04 464 0 464 C0 310.88 0 157.76 0 0 Z " fill="#000000" transform="translate(62,308)"/>
<path d="M0 0 C4.40050964 4.0004633 5.4723638 8.89576104 6.0625 14.625 C6.13734619 15.32616943 6.21219238 16.02733887 6.28930664 16.74975586 C6.9837911 23.49253098 7.53426111 30.24974554 8.11694336 37.00292969 C8.76146661 75.10163634 8.76146661 75.10163634 22.0625 108.875 C22.805 109.74125 23.5475 110.6075 24.3125 111.5 C34.56108523 120.35105088 43.6615658 122.77179009 57.01367188 122.05712891 C65.8606536 121.27068368 71.35778048 117.18666055 77.59375 111.1875 C87.56751981 101.84498145 98.45366254 96.48027698 112.1640625 96.6640625 C125.98464433 97.66987304 136.486302 106.03235876 145.43994141 115.97314453 C150.4407599 121.83477198 154.86773563 128.15894908 159.32763672 134.43457031 C161.52180002 137.52109668 163.74015071 140.58974345 165.95947266 143.65820312 C167.02939447 145.13777821 168.09807725 146.61825006 169.16552734 148.09960938 C173.12180843 153.58878459 177.11231528 159.05193258 181.125 164.5 C181.70572266 165.28882568 182.28644531 166.07765137 182.88476562 166.89038086 C186.22475203 171.41647385 189.60215737 175.91148615 193.00830078 180.38793945 C208.06971904 200.24980032 208.06971904 200.24980032 207.0625 208.875 C204.97542898 216.69853478 200.57118844 223.80313956 196.625 230.8125 C196.17092773 231.62960449 195.71685547 232.44670898 195.24902344 233.28857422 C191.66937252 239.46430126 188.57387319 243.77955517 181.48377991 245.99145508 C176.697965 247.10246647 172.06253357 247.12720811 167.16967773 247.0703125 C165.73035133 247.0659317 165.73035133 247.0659317 164.26194763 247.0614624 C162.18209706 247.05387473 160.10225927 247.04166735 158.02245903 247.02532959 C154.67779349 246.99947197 151.33329009 246.98667879 147.98854065 246.97705078 C139.64594298 246.95047809 131.30349095 246.90316665 122.96099854 246.85424805 C96.83799137 246.70318751 70.76358114 246.6620888 44.66015625 247.8125 C43.66811125 247.85606628 42.67606625 247.89963257 41.65395927 247.94451904 C38.86021715 248.07046646 36.06690707 248.20294539 33.27368164 248.33984375 C32.46822718 248.37844009 31.66277271 248.41703644 30.83291054 248.45680237 C25.54607133 248.73343573 20.31974635 249.24997593 15.0625 249.875 C18.00238062 253.03084342 21.04328519 255.26924081 24.6875 257.5625 C35.91307608 264.95027229 44.85424299 272.47006526 48.0625 285.875 C50.06575619 308.7726841 42.02990546 331.46276736 27.6875 349.25 C22.47824212 354.87599852 17.13799698 358.1109696 9.375 358.4375 C1.08116482 358.44978716 -4.42530216 351.78708571 -10.0625 346.4375 C-10.76503906 345.78201172 -11.46757813 345.12652344 -12.19140625 344.45117188 C-14.95579386 341.84616767 -17.57986831 339.33010385 -19.9296875 336.33984375 C-21.69737366 334.16978545 -23.38420405 332.55663001 -25.5 330.75 C-31.45841259 325.652247 -36.87325841 319.99726272 -42.37402344 314.41796875 C-47.48952244 309.23612539 -52.63332439 304.16770139 -58.17236328 299.43505859 C-60.39656995 297.46926598 -62.41782252 295.35503975 -64.45019531 293.19433594 C-70.45085265 286.84819867 -75.53778635 282.51782305 -84.3828125 281.46484375 C-90.7185467 281.57210456 -96.36800409 284.67317079 -102.0625 287.1875 C-121.03911791 295.54368118 -138.99584526 299.46615496 -158.9375 291.875 C-170.54466969 287.01000031 -182.4612935 277.42307054 -187.9375 265.875 C-189.17805982 262.21986397 -190.07773355 258.64841944 -190.9375 254.875 C-186.6475 254.875 -182.3575 254.875 -177.9375 254.875 C-177.2259375 256.793125 -177.2259375 256.793125 -176.5 258.75 C-172.20151425 268.3273279 -164.48644123 275.63258183 -154.9375 279.875 C-133.39695975 287.46905105 -112.93486675 278.56076583 -93.2421875 269.65625 C-86.04446296 267.21634338 -77.259331 268.14991027 -70.4375 271.3203125 C-64.94676701 274.73486208 -60.47995743 279.32509388 -55.9375 283.875 C-55.2563916 284.55449707 -54.5752832 285.23399414 -53.87353516 285.93408203 C-47.94493095 291.85478318 -47.94493095 291.85478318 -45.07592773 294.7722168 C-41.83764091 298.05271378 -38.57979788 301.23496227 -35.078125 304.234375 C-28.94900486 309.51064354 -23.38849991 315.38166149 -17.71484375 321.13671875 C-13.15759508 325.73376872 -8.55602956 330.16377483 -3.63525391 334.36914062 C-1.36750914 336.38056567 0.6111846 338.61280129 2.625 340.875 C6.03060543 344.38023336 6.03060543 344.38023336 10.8125 345.25 C20.08488427 341.32706819 25.6751834 330.57309727 29.3125 321.625 C33.78357653 310.0658449 38.73958048 294.5981871 33.625 282.5625 C28.73043209 274.47802404 20.22999909 269.4199407 12.37963867 264.55126953 C7.51950143 261.46395249 2.91358732 258.15919577 1.3984375 252.3125 C1.46666384 248.05517633 1.58173225 244.83104204 4.25 241.375 C11.04394529 235.33593752 20.17522529 235.76962366 28.86279297 235.33984375 C29.71325321 235.29677597 30.56371346 235.25370819 31.43994522 235.20933533 C34.26959407 235.07049507 37.09950085 234.93989744 39.9296875 234.8125 C40.92273769 234.76764465 41.91578789 234.72278931 42.93893051 234.67657471 C70.01535498 233.49331931 97.09241301 233.72482754 124.1875 233.875 C132.95230894 233.92253681 141.71705305 233.96290151 150.4819603 233.98687744 C153.94324331 233.99975969 157.40430011 234.02470464 160.86550903 234.05029297 C162.95997935 234.05754737 165.05445167 234.06425213 167.14892578 234.0703125 C168.57584999 234.08581146 168.57584999 234.08581146 170.03160095 234.10162354 C170.90459335 234.10176453 171.77758575 234.10190552 172.67703247 234.10205078 C173.43215181 234.106492 174.18727116 234.11093323 174.9652729 234.11550903 C177.40880375 233.83528605 178.97652181 233.16627625 181.0625 231.875 C183.69485523 228.15462006 185.72765411 224.07852857 187.875 220.0625 C188.48537109 218.96873047 189.09574219 217.87496094 189.72460938 216.74804688 C190.29630859 215.69037109 190.86800781 214.63269531 191.45703125 213.54296875 C191.98143799 212.57641357 192.50584473 211.6098584 193.04614258 210.61401367 C194.21652696 207.4599079 194.11735217 206.03228622 193.0625 202.875 C191.68752241 200.66984725 190.30118805 198.63469551 188.75 196.5625 C188.0844812 195.65226074 188.0844812 195.65226074 187.40551758 194.72363281 C185.96862077 192.76583907 184.51798112 190.81901066 183.0625 188.875 C182.588125 188.24094238 182.11375 187.60688477 181.625 186.95361328 C179.6646276 184.33734183 177.70129914 181.72334351 175.73266602 179.11328125 C171.98827967 174.14053689 168.32192411 169.11605401 164.6875 164.0625 C154.69392851 150.17351199 144.61227643 136.3486845 134.0625 122.875 C133.4025 121.99972656 132.7425 121.12445313 132.0625 120.22265625 C126.73758193 113.97211766 119.43818265 110.23964022 111.3125 109.5625 C99.16557003 110.00043486 90.66277635 116.59692899 82 124.5625 C70.89451167 134.53013092 57.68326187 135.71318623 43.43261719 135.06591797 C32.01735735 134.14639457 21.43362687 127.77281425 13.6875 119.5625 C3.93953571 107.70579241 1.48019814 93.17828024 -0.38671875 78.3515625 C-0.513918 77.35764999 -0.64111725 76.36373749 -0.77217102 75.33970642 C-2.0687172 65.07267413 -3.21100979 54.78966074 -4.30004883 44.4987793 C-4.63046817 41.38598586 -4.96841117 38.27406283 -5.30664062 35.16210938 C-5.52128248 33.15108955 -5.73549188 31.14002352 -5.94921875 29.12890625 C-6.04917648 28.21428116 -6.14913422 27.29965607 -6.25212097 26.35731506 C-6.79440058 21.16285201 -7.03353653 16.09779279 -6.9375 10.875 C-8.78081909 11.50776855 -8.78081909 11.50776855 -10.66137695 12.15332031 C-48.46657194 25.09546863 -86.43498508 36.36107964 -125.31811523 45.57958984 C-146.85943607 50.39921005 -146.85943607 50.39921005 -166.2890625 60.546875 C-169.75968588 62.2873056 -172.39072181 62.17070406 -176.25 62.0625 C-177.50425781 62.03542969 -178.75851562 62.00835937 -180.05078125 61.98046875 C-181.00339844 61.94566406 -181.95601562 61.91085937 -182.9375 61.875 C-179.85561914 52.61330595 -170.23946304 47.15568853 -161.9375 42.875 C-152.96905361 38.90823293 -143.83348504 36.42155319 -134.32095337 34.22497559 C-130.23449475 33.27865251 -126.15692907 32.29509904 -122.078125 31.31640625 C-121.23602982 31.11498016 -120.39393463 30.91355408 -119.52632141 30.70602417 C-96.64373345 25.21980777 -73.98874387 19.05198108 -51.5 12.125 C-50.18523178 11.72238953 -50.18523178 11.72238953 -48.84390259 11.31164551 C-39.01849132 8.29186595 -29.40794038 5.03173067 -19.92163086 1.06542969 C-13.51580656 -1.48998218 -6.57841547 -2.51939316 0 0 Z " fill="#AFB0B2" transform="translate(762.9375,371.125)"/>
<path d="M0 0 C7.50042014 5.90080447 13.76817931 14.35547759 15.47265625 23.9453125 C16.31905746 36.39157295 15.35881449 47.05851546 7.16796875 57.1015625 C-0.61057017 65.56117165 -9.74414344 71.62646681 -21.54296875 72.28125 C-35.1911055 72.57197576 -46.27838017 69.67156947 -56.5 60.09765625 C-64.3608283 51.70275893 -68.07071183 40.95194319 -67.7734375 29.515625 C-66.66226982 17.91009587 -60.82921439 8.08352841 -51.953125 0.69921875 C-35.99493455 -10.8389898 -16.32963743 -11.23103121 0 0 Z " fill="#FCFCFC" transform="translate(491.52734375,451.0546875)"/>
<path d="M0 0 C206.91 0 413.82 0 627 0 C625 6 625 6 624 8 C416.76 8 209.52 8 -4 8 C-2.68 5.36 -1.36 2.72 0 0 Z " fill="#ABACAF" transform="translate(128,550)"/>
<path d="M0 0 C1.20286903 -0.0238678 1.20286903 -0.0238678 2.43003845 -0.04821777 C3.72839378 -0.0485199 3.72839378 -0.0485199 5.05297852 -0.04882812 C5.95250748 -0.05644165 6.85203644 -0.06405518 7.77882385 -0.07189941 C9.6878075 -0.08271314 11.59685038 -0.08554836 13.50585938 -0.08105469 C16.39045037 -0.08009195 19.27229403 -0.12149491 22.15649414 -0.16601562 C33.13024628 -0.23828303 43.53654866 -0.27982655 52.23217773 7.39501953 C58.09442144 13.49884352 60.145223 18.94589801 60.43188477 27.29492188 C60.22230932 34.90412252 59.11971083 40.21928675 53.72485352 45.74414062 C51.53588852 47.7193799 49.31395694 49.60094113 46.99438477 51.41992188 C51.1880481 58.14866144 55.52783121 64.7366944 60.1484375 71.1784668 C62.99438477 75.20460693 62.99438477 75.20460693 62.99438477 77.41992188 C59.14152914 77.6829538 55.29098884 77.8416439 51.43188477 77.98242188 C50.34584961 78.05783203 49.25981445 78.13324219 48.14086914 78.2109375 C40.22030295 78.42760952 40.22030295 78.42760952 36.7890625 75.60717773 C34.95662853 73.29656901 33.44653349 70.98461021 31.99438477 68.41992188 C31.62547119 67.80431396 31.25655762 67.18870605 30.87646484 66.55444336 C29.35755972 63.9731893 27.90919295 61.35759088 26.47485352 58.72851562 C23.33912304 55.28443728 23.33912304 55.28443728 13.99438477 56.41992188 C13.99438477 63.34992188 13.99438477 70.27992188 13.99438477 77.41992188 C7.06438477 77.41992188 0.13438477 77.41992188 -7.00561523 77.41992188 C-7.073346 67.82334097 -7.12840518 58.22691837 -7.16105175 48.6301527 C-7.17671911 44.17416199 -7.19797675 39.71834303 -7.23193359 35.26245117 C-7.26448911 30.96362427 -7.28246019 26.66496276 -7.29024696 22.36602211 C-7.29579735 20.72452503 -7.30663573 19.08303716 -7.3228054 17.44161034 C-7.34452955 15.14536228 -7.34758434 12.8498008 -7.34619141 10.5534668 C-7.35285324 9.24552658 -7.35951508 7.93758636 -7.36637878 6.5900116 C-7.00561523 3.41992188 -7.00561523 3.41992188 -5.73468018 1.50032043 C-3.6600751 0.20401265 -2.43869791 0.02919488 0 0 Z " fill="#FCFCFC" transform="translate(356.005615234375,444.580078125)"/>
<path d="M0 0 C0.75539063 -0.02835937 1.51078125 -0.05671875 2.2890625 -0.0859375 C6.26785139 -0.09984935 8.08968176 0.0880377 11.3203125 2.57421875 C13.97951863 5.95005839 16.5952636 9.33857819 19.125 12.8125 C25.36109261 21.26191056 31.94579496 29.39877066 38.625 37.5 C38.6343457 36.5212793 38.64369141 35.54255859 38.65332031 34.53417969 C38.69325458 30.89586209 38.75902134 27.25838709 38.83251953 23.62060547 C38.86070954 22.04747356 38.88193398 20.47420053 38.89599609 18.90087891 C38.91745442 16.63631044 38.96411348 14.37343496 39.015625 12.109375 C39.01746796 11.05759064 39.01746796 11.05759064 39.01934814 9.98455811 C39.11038137 6.93582831 39.38477954 4.86331645 41.08099365 2.2979126 C44.89194798 -0.39538367 48.33261632 0.06546566 52.875 0.25 C53.71546875 0.26804687 54.5559375 0.28609375 55.421875 0.3046875 C57.49007395 0.35169202 59.55768441 0.42343276 61.625 0.5 C61.64812428 10.39189376 61.66591552 20.28378114 61.67681217 30.17569637 C61.68204082 34.7684264 61.68913812 39.361138 61.70043945 43.95385742 C61.711269 48.38233688 61.71727698 52.81079856 61.71987724 57.23929024 C61.72173137 58.93265628 61.72535175 60.62602129 61.73073006 62.31937981 C61.7379414 64.68291232 61.7389909 67.04637045 61.73852539 69.40991211 C61.74212067 70.11697296 61.74571594 70.82403381 61.74942017 71.55252075 C61.73905216 76.38594784 61.73905216 76.38594784 60.625 77.5 C46.23450157 79.6878488 46.23450157 79.6878488 40.85839844 76.42919922 C37.6140077 73.50841513 35.21518479 69.96897917 32.83984375 66.33007812 C30.925348 63.44602263 28.76784094 60.78122944 26.625 58.0625 C24.975 55.896875 23.325 53.73125 21.625 51.5 C17.995 46.88 14.365 42.26 10.625 37.5 C10.295 50.7 9.965 63.9 9.625 77.5 C2.695 77.5 -4.235 77.5 -11.375 77.5 C-11.44273076 67.90341909 -11.49778995 58.30699649 -11.53043652 48.71023083 C-11.54610387 44.25424011 -11.56736152 39.79842115 -11.60131836 35.3425293 C-11.63387388 31.0437024 -11.65184495 26.74504088 -11.65963173 22.44610023 C-11.66518211 20.80460315 -11.67602049 19.16311529 -11.69219017 17.52168846 C-11.71391431 15.2254404 -11.7169691 12.92987892 -11.71557617 10.63354492 C-11.72223801 9.32560471 -11.72889984 8.01766449 -11.73576355 6.67008972 C-11.375 3.5 -11.375 3.5 -10.09346008 1.58345032 C-7.02452343 -0.35144502 -3.51414938 -0.01187213 0 0 Z " fill="#FBFBFB" transform="translate(529.375,444.5)"/>
<path d="M0 0 C0.81074478 -0.00287018 1.62148956 -0.00574036 2.45680237 -0.00869751 C4.17750748 -0.01074009 5.89823571 -0.00519668 7.61889648 0.00732422 C10.21327966 0.02318907 12.80606003 0.00758099 15.40039062 -0.01171875 C27.61835963 -0.02775457 39.91060834 0.31109524 49.81640625 8.3984375 C55.31494733 14.18637548 56.17872157 19.53036074 56.19140625 27.2109375 C56.21589844 27.97986328 56.24039063 28.74878906 56.265625 29.54101562 C56.30007514 36.34491748 54.37468777 41.36559203 49.984375 46.5703125 C39.0287595 55.30023096 25.27697989 56.04467735 11.81640625 56.3984375 C11.7913501 56.99906006 11.76629395 57.59968262 11.74047852 58.21850586 C11.62485345 60.92455187 11.50197689 63.63022033 11.37890625 66.3359375 C11.33958984 67.28146484 11.30027344 68.22699219 11.25976562 69.20117188 C11.21787109 70.10029297 11.17597656 70.99941406 11.1328125 71.92578125 C11.09615479 72.75843506 11.05949707 73.59108887 11.02172852 74.44897461 C10.81640625 76.3984375 10.81640625 76.3984375 9.81640625 77.3984375 C8.2546788 77.48529353 6.68911281 77.50545969 5.125 77.49609375 C4.18076172 77.49287109 3.23652344 77.48964844 2.26367188 77.48632812 C1.27044922 77.47794922 0.27722656 77.46957031 -0.74609375 77.4609375 C-1.74318359 77.45642578 -2.74027344 77.45191406 -3.76757812 77.44726562 C-6.23964224 77.43543757 -8.71158893 77.41895599 -11.18359375 77.3984375 C-11.25305219 67.80188446 -11.30638375 58.20541773 -11.33903027 48.60866833 C-11.35469762 44.15267761 -11.37595527 39.69685865 -11.40991211 35.2409668 C-11.44246763 30.9421399 -11.4604387 26.64347838 -11.46822548 22.34453773 C-11.47377586 20.70304065 -11.48461424 19.06155279 -11.50078392 17.42012596 C-11.52250806 15.1238779 -11.52556285 12.82831642 -11.52416992 10.53198242 C-11.53083176 9.22404221 -11.53749359 7.91610199 -11.5443573 6.56852722 C-11.18359375 3.3984375 -11.18359375 3.3984375 -9.88970947 1.47685242 C-6.88923109 -0.41971333 -3.44048045 -0.02685214 0 0 Z " fill="#FCFCFC" transform="translate(135.18359375,444.6015625)"/>
<path d="M0 0 C1.77149666 0.00045319 1.77149666 0.00045319 3.57878113 0.00091553 C4.85385025 0.02156067 6.12891937 0.04220581 7.44262695 0.06347656 C9.40060966 0.07196625 9.40060966 0.07196625 11.39814758 0.08062744 C14.86559766 0.09588764 18.33237569 0.13517124 21.79956055 0.17944336 C25.33869332 0.22038865 28.87793488 0.23863677 32.41723633 0.25878906 C39.35959726 0.30166642 46.30140126 0.37201862 53.2434082 0.45410156 C53.2434082 6.39410156 53.2434082 12.33410156 53.2434082 18.45410156 C40.0434082 18.78410156 26.8434082 19.11410156 13.2434082 19.45410156 C13.2434082 23.08410156 13.2434082 26.71410156 13.2434082 30.45410156 C24.7934082 30.45410156 36.3434082 30.45410156 48.2434082 30.45410156 C48.2434082 35.73410156 48.2434082 41.01410156 48.2434082 46.45410156 C30.9184082 46.94910156 30.9184082 46.94910156 13.2434082 47.45410156 C13.2434082 51.08410156 13.2434082 54.71410156 13.2434082 58.45410156 C26.4434082 58.45410156 39.6434082 58.45410156 53.2434082 58.45410156 C53.2434082 64.72410156 53.2434082 70.99410156 53.2434082 77.45410156 C32.7834082 77.45410156 12.3234082 77.45410156 -8.7565918 77.45410156 C-8.87691822 59.39622429 -8.87691822 59.39622429 -8.90307617 51.70019531 C-8.92101129 46.44831249 -8.94223102 41.19658654 -8.98291016 35.94482422 C-9.0155007 31.710831 -9.03344417 27.477006 -9.04122353 23.24289703 C-9.0467676 21.6273458 -9.05759382 20.0118038 -9.07378197 18.39632416 C-9.09555265 16.13380521 -9.09855895 13.8719818 -9.09716797 11.609375 C-9.10716072 9.67744293 -9.10716072 9.67744293 -9.11735535 7.70648193 C-8.41741486 1.39633034 -6.15329588 -0.05248014 0 0 Z " fill="#FCFCFC" transform="translate(208.756591796875,444.5458984375)"/>
<path d="M0 0 C0.84433594 0.01289063 1.68867187 0.02578125 2.55859375 0.0390625 C3.86763672 0.08933594 3.86763672 0.08933594 5.203125 0.140625 C6.09128906 0.15867187 6.97945312 0.17671875 7.89453125 0.1953125 C10.08183348 0.24235126 12.26692316 0.30805491 14.453125 0.390625 C19.65482787 11.33587479 24.38747496 22.47460222 29.12109375 33.62792969 C30.44781308 36.7531124 31.77836533 39.8766425 33.109375 43 C46.453125 74.35768798 46.453125 74.35768798 46.453125 77.390625 C38.863125 77.390625 31.273125 77.390625 23.453125 77.390625 C21.803125 73.430625 20.153125 69.470625 18.453125 65.390625 C8.883125 65.390625 -0.686875 65.390625 -10.546875 65.390625 C-12.526875 69.350625 -14.506875 73.310625 -16.546875 77.390625 C-23.806875 77.390625 -31.066875 77.390625 -38.546875 77.390625 C-35.17428802 66.14866839 -35.17428802 66.14866839 -32.90234375 61.01171875 C-32.14425415 59.28187744 -32.14425415 59.28187744 -31.37084961 57.51708984 C-30.82551307 56.28736615 -30.28001747 55.05771298 -29.734375 53.828125 C-28.56992396 51.18490393 -27.40950397 48.5399257 -26.25 45.89453125 C-25.95004623 45.21136841 -25.65009247 44.52820557 -25.34104919 43.82434082 C-23.07672621 38.64955992 -20.88533252 33.44683261 -18.71875 28.23046875 C-18.08835538 26.71880725 -17.45790348 25.20716964 -16.82739258 23.69555664 C-15.90949133 21.49390187 -14.99484714 19.29118205 -14.09042358 17.08395386 C-13.24998582 15.0340003 -12.39764557 12.98936197 -11.54296875 10.9453125 C-11.06013428 9.77468262 -10.5772998 8.60405273 -10.07983398 7.39794922 C-7.64105145 2.61360088 -5.58028905 -0.15081862 0 0 Z " fill="#FBFBFB" transform="translate(638.546875,444.609375)"/>
<path d="M0 0 C1.03724716 -0.00426498 2.07449432 -0.00852997 3.14317322 -0.01292419 C4.29113876 -0.01247101 5.43910431 -0.01201782 6.62185669 -0.0115509 C7.82352982 -0.01490952 9.02520294 -0.01826813 10.26329041 -0.02172852 C13.57173472 -0.02962805 16.88011627 -0.03290792 20.18856573 -0.0335443 C22.25824217 -0.03425436 24.32791202 -0.03638802 26.39758682 -0.03904152 C33.62680732 -0.04830919 40.85600935 -0.05237537 48.0852356 -0.05158997 C54.80665591 -0.0509915 61.52799536 -0.06149394 68.24939525 -0.07733363 C74.0278873 -0.09046202 79.80635314 -0.09577152 85.58485997 -0.09513456 C89.03204439 -0.09488076 92.47915727 -0.09766517 95.92632675 -0.10831261 C99.78450331 -0.11990167 103.64257188 -0.11521454 107.50076294 -0.10920715 C109.19234779 -0.11763641 109.19234779 -0.11763641 110.91810608 -0.12623596 C129.88750682 -0.05155646 129.88750682 -0.05155646 136.77078247 5.59074402 C140.4061776 9.49286651 142.39743849 13.85681708 142.64578247 19.19621277 C141.94367131 25.51521324 139.72294631 30.61904893 135.20828247 35.13371277 C130.27552443 37.56630578 125.59602293 38.86004706 120.14578247 39.63371277 C119.31345093 39.75552917 118.48111938 39.87734558 117.62356567 40.00285339 C106.76632815 41.4765583 95.82693797 42.18997999 84.90530396 43.00871277 C74.66029636 43.77675551 64.43295191 44.62765255 54.20828247 45.63371277 C52.34671509 45.81607483 52.34671509 45.81607483 50.44754028 46.00212097 C44.67994439 46.57322606 38.9144366 47.16170099 33.15100098 47.77320862 C31.12278 47.98789505 29.09428815 48.19982837 27.06570435 48.41105652 C24.55199359 48.67407558 22.03889683 48.94307174 19.52664185 49.21965027 C11.39419964 50.06896765 3.38246587 50.28033141 -4.79171753 50.13371277 C-4.79171753 46.17371277 -4.79171753 42.21371277 -4.79171753 38.13371277 C-2.91016968 37.9700824 -1.02862183 37.80645203 0.90994263 37.63786316 C23.59654206 35.65553113 46.27560315 33.5936854 68.94948959 31.47087669 C74.36118499 30.96429715 79.77314785 30.46103939 85.18582153 29.9650116 C90.52301999 29.47583092 95.85944066 28.97887909 101.19539261 28.47628975 C103.20699204 28.28814781 105.21885134 28.10276242 107.23096848 27.9202404 C110.01241501 27.66741293 112.79274613 27.40460884 115.57302856 27.139328 C116.39355209 27.06707504 117.21407562 26.99482208 118.0594635 26.92037964 C123.45266501 26.46820576 123.45266501 26.46820576 128.20828247 24.13371277 C129.37938696 21.27411217 129.37938696 21.27411217 129.20828247 18.13371277 C127.33877594 15.47326116 126.06448452 14.35519321 122.90588093 13.53813267 C120.12225827 13.12081615 117.4859538 12.99452794 114.67170715 12.97549438 C113.02063713 12.96081116 113.02063713 12.96081116 111.33621216 12.9458313 C110.13859253 12.94007584 108.9409729 12.93432037 107.70706177 12.9283905 C106.43836746 12.91849091 105.16967316 12.90859131 103.86253357 12.89839172 C100.39188592 12.87141898 96.92122478 12.85036826 93.45053077 12.83038974 C89.82034345 12.80848296 86.19019736 12.78111728 82.56004333 12.7543335 C75.68953478 12.70446994 68.81900326 12.65950767 61.94844991 12.61631113 C54.12499734 12.56688452 46.30158614 12.51198654 38.47817361 12.45663154 C22.38824807 12.3429088 6.29828455 12.23604872 -9.79171753 12.13371277 C-8.57903614 5.27739876 -7.42017007 0.01371638 0 0 Z " fill="#AFB0B2" transform="translate(771.7917175292969,550.8662872314453)"/>
<path d="M0 0 C0.8755957 0.00684814 1.75119141 0.01369629 2.65332031 0.02075195 C13.51137172 0.28731132 22.43951333 3.17421529 31.3125 9.4375 C29.74286927 14.46031835 26.94353265 18.66681225 23.3125 22.4375 C20.5625 23.6875 20.5625 23.6875 17.3125 23.4375 C15.75656662 22.82683797 14.21602093 22.17635831 12.6875 21.5 C6.92578563 18.9606426 1.53016354 18.83737741 -4.6875 19.4375 C-5.3475 19.7675 -6.0075 20.0975 -6.6875 20.4375 C-6.6875 22.0875 -6.6875 23.7375 -6.6875 25.4375 C-1.74039681 27.313626 3.20266367 29.14120242 8.2890625 30.60546875 C17.57197557 33.28610192 25.4981551 35.87889268 31.875 43.5 C34.64390668 49.20293166 34.20991307 56.57862378 32.8046875 62.62109375 C30.2312202 69.26182259 25.85457353 73.58061137 19.5703125 76.578125 C6.13366732 81.69241901 -7.40163344 80.02077249 -20.6875 75.4375 C-30.43858769 70.9295806 -30.43858769 70.9295806 -32.6875 65.4375 C-31.77816991 64.16140677 -30.85967147 62.89184447 -29.9375 61.625 C-29.42703125 60.91730469 -28.9165625 60.20960938 -28.390625 59.48046875 C-26.63359007 57.37283281 -25.01377585 55.88913277 -22.6875 54.4375 C-17.81337017 54.4375 -14.29510097 56.00840123 -9.875 58 C-2.72022924 61.11115972 3.75951444 61.45162948 11.3125 59.4375 C11.3125 57.7875 11.3125 56.1375 11.3125 54.4375 C4.44004625 50.69618756 -2.33409183 48.73929481 -9.91015625 46.90234375 C-17.35253448 44.9415425 -23.46932228 42.01520601 -27.625 35.3125 C-30.1504632 28.4788937 -31.22456534 21.11350008 -28.1875 14.25 C-24.45164556 7.75171798 -18.92071642 3.48925905 -11.92236328 1.02416992 C-7.96101224 -0.01571718 -4.07585741 -0.04912092 0 0 Z " fill="#FCFCFC" transform="translate(721.6875,443.5625)"/>
<path d="M0 0 C1.30112228 0.00030212 2.60224457 0.00060425 3.9427948 0.00091553 C5.36331797 0.02134224 6.78383491 0.04220623 8.2043457 0.06347656 C9.65736615 0.07093787 11.11039667 0.07663133 12.56343079 0.08062744 C16.3859541 0.09589278 20.20786848 0.13518136 24.03015137 0.17944336 C27.9312313 0.22037724 31.83240974 0.23863437 35.73364258 0.25878906 C43.38694699 0.30167578 51.03962404 0.37203183 58.69262695 0.45410156 C58.69262695 6.72410156 58.69262695 12.99410156 58.69262695 19.45410156 C51.43262695 19.78410156 44.17262695 20.11410156 36.69262695 20.45410156 C35.41543889 23.00847768 35.53301231 24.86998938 35.48730469 27.72998047 C35.46735947 28.83097076 35.44741425 29.93196106 35.42686462 31.0663147 C35.40179588 32.85541763 35.40179588 32.85541763 35.3762207 34.68066406 C35.35543961 35.89861664 35.33465851 37.11656921 35.31324768 38.37142944 C35.24770112 42.27392776 35.1888434 46.17649507 35.13012695 50.07910156 C35.0869466 52.71973378 35.04333247 55.36035895 34.99926758 58.00097656 C34.89201448 64.48528031 34.79076142 70.96965365 34.69262695 77.45410156 C27.76262695 77.45410156 20.83262695 77.45410156 13.69262695 77.45410156 C13.69262695 58.31410156 13.69262695 39.17410156 13.69262695 19.45410156 C6.10262695 19.45410156 -1.48737305 19.45410156 -9.30737305 19.45410156 C-9.36924805 17.06160156 -9.43112305 14.66910156 -9.49487305 12.20410156 C-9.52218506 11.45741211 -9.54949707 10.71072266 -9.57763672 9.94140625 C-9.61377213 7.05212781 -9.50663863 4.84428548 -8.18327332 2.25299072 C-5.49669291 -0.32329782 -3.68072333 -0.02847755 0 0 Z " fill="#FCFCFC" transform="translate(280.307373046875,444.5458984375)"/>
<path d="M0 0 C6.51488465 2.25059651 10.91684087 6.91206714 14 13 C14.9470604 19.66355109 14.84467323 26.3941343 11.33984375 32.28125 C7.31215578 37.44796343 3.43265948 40.41675533 -3.078125 41.2734375 C-9.34160811 41.56633419 -13.19689365 39.9955972 -18 36 C-22.87397253 31.38580774 -24.72360546 26.8100112 -25.375 20.1875 C-25.1889646 14.46417567 -23.17762065 9.31826875 -19.24609375 5.1328125 C-12.99794551 -0.31964254 -8.24928552 -0.5946405 0 0 Z " fill="#020202" transform="translate(471,463)"/>
<path d="M0 0 C3.97900835 2.25226888 5.41847501 3.70814502 7.3125 7.875 C8.10494168 12.89924363 7.87109751 16.69335142 5.6875 21.3125 C1.85336635 25.44932842 -1.60553293 27.02167482 -7.1875 27.3125 C-11.67278507 27.14637833 -14.27445604 25.8817292 -17.6875 22.875 C-21.30023342 18.90099324 -21.19411628 14.61076137 -21.03515625 9.46875 C-20.54971539 5.84703396 -19.47159065 4.21949739 -16.6875 1.875 C-10.97486297 -1.80647719 -6.4312913 -1.96208887 0 0 Z " fill="#F7F7F7" transform="translate(505.6875,586.125)"/>
<path d="M0 0 C2.64 0 5.28 0 8 0 C10.3125 2.625 10.3125 2.625 12 6 C12.5775 7.11375 13.155 8.2275 13.75 9.375 C14.1625 10.24125 14.575 11.1075 15 12 C15.33 8.04 15.66 4.08 16 0 C18.31 0 20.62 0 23 0 C23 9.24 23 18.48 23 28 C20.69 28 18.38 28 16 28 C13.78515625 25.59375 13.78515625 25.59375 12.0625 22.5 C11.47597656 21.4790625 10.88945313 20.458125 10.28515625 19.40625 C9.86105469 18.6121875 9.43695312 17.818125 9 17 C8.67 20.63 8.34 24.26 8 28 C5.36 28 2.72 28 0 28 C0 18.76 0 9.52 0 0 Z " fill="#F4F4F4" transform="translate(517,585)"/>
<path d="M0 0 C2.31 0 4.62 0 7 0 C9.21484375 2.40625 9.21484375 2.40625 10.9375 5.5 C11.52402344 6.5209375 12.11054688 7.541875 12.71484375 8.59375 C13.13894531 9.3878125 13.56304687 10.181875 14 11 C14.06058594 10.28972656 14.12117188 9.57945312 14.18359375 8.84765625 C14.26738281 7.92855469 14.35117187 7.00945313 14.4375 6.0625 C14.51871094 5.14597656 14.59992188 4.22945312 14.68359375 3.28515625 C15 1 15 1 16 0 C18.31 0 20.62 0 23 0 C23 9.24 23 18.48 23 28 C20.36 28 17.72 28 15 28 C12.69 23.71 10.38 19.42 8 15 C7.67 19.29 7.34 23.58 7 28 C4.69 28 2.38 28 0 28 C0 18.76 0 9.52 0 0 Z " fill="#F6F6F6" transform="translate(398,585)"/>
<path d="M0 0 C2.31 0 4.62 0 7 0 C8.92409498 2.24838066 10.105419 3.94219177 11.4375 6.5 C11.78748047 7.12003906 12.13746094 7.74007812 12.49804688 8.37890625 C13.35569369 9.9062225 14.18111194 11.45155713 15 13 C15.33 8.71 15.66 4.42 16 0 C18.31 0 20.62 0 23 0 C23 9.24 23 18.48 23 28 C20.36 28 17.72 28 15 28 C12.69 23.71 10.38 19.42 8 15 C7.67 19.29 7.34 23.58 7 28 C4.69 28 2.38 28 0 28 C0 18.76 0 9.52 0 0 Z " fill="#F9F9F9" transform="translate(298,585)"/>
<path d="M0 0 C2.64 0 5.28 0 8 0 C10.31 4.29 12.62 8.58 15 13 C15.33 9.04 15.66 5.08 16 1 C18.31 1 20.62 1 23 1 C23 9.91 23 18.82 23 28 C17 28 17 28 14.9375 26.5625 C12.18074455 22.9164686 10.13889576 19.04013644 8 15 C7.67 19.29 7.34 23.58 7 28 C4.69 28 2.38 28 0 28 C0 18.76 0 9.52 0 0 Z " fill="#F9F9F9" transform="translate(218,585)"/>
<path d="M0 0 C13.77777778 0 13.77777778 0 18.8125 3.125 C20.73039056 6.15324825 20.54083992 9.51614805 20 13 C19.01 14.485 19.01 14.485 18 16 C18.28384689 18.74385329 19.3186089 20.6372178 20.5625 23.125 C22 26 22 26 22 28 C19.36 28 16.72 28 14 28 C13.74605469 27.43410156 13.49210938 26.86820313 13.23046875 26.28515625 C12.88628906 25.55167969 12.54210937 24.81820312 12.1875 24.0625 C11.85105469 23.33160156 11.51460937 22.60070312 11.16796875 21.84765625 C10.06399866 19.66970511 10.06399866 19.66970511 7 19 C7 21.97 7 24.94 7 28 C4.69 28 2.38 28 0 28 C0 18.76 0 9.52 0 0 Z " fill="#F7F7F7" transform="translate(641,585)"/>
<path d="M0 0 C13.94736842 0 13.94736842 0 18.8125 3.1875 C20.71972888 6.09853355 20.2968857 8.61550304 20 12 C19.34870203 13.34090759 18.68486725 14.67592331 18 16 C18.27603926 18.76039262 19.30925162 20.61850325 20.5625 23.125 C22 26 22 26 22 28 C19.36 28 16.72 28 14 28 C13.74605469 27.43410156 13.49210937 26.86820313 13.23046875 26.28515625 C12.88628906 25.55167969 12.54210937 24.81820312 12.1875 24.0625 C11.85105469 23.33160156 11.51460938 22.60070312 11.16796875 21.84765625 C10.06399866 19.66970511 10.06399866 19.66970511 7 19 C7 21.97 7 24.94 7 28 C4.69 28 2.38 28 0 28 C0 18.76 0 9.52 0 0 Z " fill="#F7F7F7" transform="translate(372,585)"/>
<path d="M0 0 C3.5625 1.5 3.5625 1.5 6 3 C5.34 4.98 4.68 6.96 4 9 C3.319375 8.835 2.63875 8.67 1.9375 8.5 C-1.45315882 7.92286658 -4.56650292 7.80565111 -8 8 C-10.36410488 9.93731528 -10.36410488 9.93731528 -10.3125 13.4375 C-10.26246323 16.83925295 -10.26246323 16.83925295 -8.9375 18.875 C-6.07886867 20.53485045 -3.25260697 20.69315029 0 21 C0 20.34 0 19.68 0 19 C-0.99 18.67 -1.98 18.34 -3 18 C-3 16.02 -3 14.04 -3 12 C0.3 12 3.6 12 7 12 C7 16.95 7 21.9 7 27 C4.29199966 27.27743433 1.58727242 27.52249031 -1.125 27.75 C-2.26582031 27.87181641 -2.26582031 27.87181641 -3.4296875 27.99609375 C-7.61164271 28.32055579 -9.60569075 28.20500492 -13.43359375 26.21484375 C-16.75923324 23.34477132 -17.82025913 21.23318782 -19 17 C-19.27471841 12.22156461 -18.69150994 8.37563956 -15.6875 4.5625 C-10.78361917 -0.11329335 -6.60916746 -0.78762099 0 0 Z " fill="#F8F8F8" transform="translate(264,585)"/>
<path d="M0 0 C1.05574219 -0.03673828 1.05574219 -0.03673828 2.1328125 -0.07421875 C7.27127342 -0.10287188 10.1716387 1.00972641 14.25 4.375 C15.85964787 7.59429573 15.85686242 10.89387712 15.25 14.375 C12.71546343 17.59454645 11.13702695 19.07932435 7.25 20.375 C5.91474283 20.45473476 4.57587917 20.48271338 3.23828125 20.47265625 C2.10229492 20.46782227 2.10229492 20.46782227 0.94335938 20.46289062 C0.15767578 20.45451172 -0.62800781 20.44613281 -1.4375 20.4375 C-2.23478516 20.43298828 -3.03207031 20.42847656 -3.85351562 20.42382812 C-5.81904257 20.4120585 -7.78453085 20.39412348 -9.75 20.375 C-9.80379226 17.41642591 -9.84357093 14.45882279 -9.875 11.5 C-9.89175781 10.65824219 -9.90851563 9.81648438 -9.92578125 8.94921875 C-9.93222656 8.14355469 -9.93867188 7.33789062 -9.9453125 6.5078125 C-9.96102295 5.39237061 -9.96102295 5.39237061 -9.97705078 4.25439453 C-9.33780086 -1.03694515 -4.10582235 0.0073581 0 0 Z " fill="#060606" transform="translate(154.75,462.625)"/>
<path d="M0 0 C2.70942393 -0.10861833 5.414439 -0.18758577 8.125 -0.25 C8.88554687 -0.28351563 9.64609375 -0.31703125 10.4296875 -0.3515625 C15.77773626 -0.44377024 18.76128939 0.43472939 23 4 C24.57455739 7.14911479 24.34799118 9.52008816 24 13 C21.99707521 16.47998516 19.87946651 18.7068445 16 20 C14.66474283 20.07973476 13.32587917 20.10771338 11.98828125 20.09765625 C10.85229492 20.09282227 10.85229492 20.09282227 9.69335938 20.08789062 C8.90767578 20.07951172 8.12199219 20.07113281 7.3125 20.0625 C6.51521484 20.05798828 5.71792969 20.05347656 4.89648438 20.04882812 C2.93095743 20.0370585 0.96546915 20.01912348 -1 20 C-1.02689449 17.04160645 -1.04678741 14.08345573 -1.0625 11.125 C-1.07087891 10.28324219 -1.07925781 9.44148438 -1.08789062 8.57421875 C-1.09111328 7.76855469 -1.09433594 6.96289062 -1.09765625 6.1328125 C-1.10289307 5.38918457 -1.10812988 4.64555664 -1.11352539 3.87939453 C-1 2 -1 2 0 0 Z " fill="#030303" transform="translate(371,463)"/>
<path d="M0 0 C2.64 0 5.28 0 8 0 C8.33 6.93 8.66 13.86 9 21 C10.98 21 12.96 21 15 21 C15.33 14.07 15.66 7.14 16 0 C18.31 0 20.62 0 23 0 C23.11689626 3.37470504 23.18747934 6.7488843 23.25 10.125 C23.30027344 11.55199219 23.30027344 11.55199219 23.3515625 13.0078125 C23.43462502 18.98831411 23.09630315 22.50585446 19 27 C14.93998425 28.35333858 11.24496019 28.53714786 7 28 C2.88953542 25.63866928 1.32624888 23.479774 0 19 C-0.23535459 15.72443515 -0.18862858 12.46926654 -0.125 9.1875 C-0.11597656 8.30384766 -0.10695313 7.42019531 -0.09765625 6.50976562 C-0.07419637 4.33972641 -0.03832865 2.16982753 0 0 Z " fill="#F3F3F3" transform="translate(693,585)"/>
<path d="M0 0 C13 0 13 0 18 3 C20.47519745 6.71279618 20.64586475 9.69703095 20 14 C18.5625 16.9375 18.5625 16.9375 16 19 C12.99980996 19.69195433 10.07347615 19.92776018 7 20 C7 22.64 7 25.28 7 28 C4.69 28 2.38 28 0 28 C0 18.76 0 9.52 0 0 Z " fill="#F7F7F7" transform="translate(170,585)"/>
<path d="M0 0 C1.134375 0.020625 2.26875 0.04125 3.4375 0.0625 C6.04416135 5.56545175 8.2370428 11.11320808 10.1875 16.875 C10.41010498 17.52090088 10.63270996 18.16680176 10.86206055 18.83227539 C11.95785509 22.13341556 12.4375 24.53418029 12.4375 28.0625 C10.1275 28.0625 7.8175 28.0625 5.4375 28.0625 C5.1075 26.0825 4.7775 24.1025 4.4375 22.0625 C1.7975 22.0625 -0.8425 22.0625 -3.5625 22.0625 C-4.2225 24.0425 -4.8825 26.0225 -5.5625 28.0625 C-7.8725 28.0625 -10.1825 28.0625 -12.5625 28.0625 C-11.2518114 21.730671 -9.58173958 15.68109223 -7.5 9.5625 C-7.0968457 8.34820313 -7.0968457 8.34820313 -6.68554688 7.109375 C-4.31937895 0.07577858 -4.31937895 0.07577858 0 0 Z " fill="#EAEAEA" transform="translate(555.5625,584.9375)"/>
<path d="M0 0 C1.546875 0.185625 1.546875 0.185625 3.125 0.375 C6.53043444 4.77028071 8.02569554 10.29998868 9.8125 15.5 C10.13283203 16.40621094 10.45316406 17.31242188 10.78320312 18.24609375 C13.125 24.98687367 13.125 24.98687367 13.125 28.375 C10.815 28.375 8.505 28.375 6.125 28.375 C5.465 26.395 4.805 24.415 4.125 22.375 C1.815 22.705 -0.495 23.035 -2.875 23.375 C-3.865 25.85 -3.865 25.85 -4.875 28.375 C-7.185 28.375 -9.495 28.375 -11.875 28.375 C-11.26846681 22.22542742 -9.46392671 16.79698134 -7.375 11 C-6.89353516 9.62908203 -6.89353516 9.62908203 -6.40234375 8.23046875 C-3.64848884 0.47588985 -3.64848884 0.47588985 0 0 Z " fill="#ECECEC" transform="translate(435.875,584.625)"/>
<path d="M0 0 C2.64 0 5.28 0 8 0 C9.34315504 3.91336793 10.67280672 7.83119282 12 11.75 C12.3815625 12.86117187 12.763125 13.97234375 13.15625 15.1171875 C13.5171875 16.18710937 13.878125 17.25703125 14.25 18.359375 C14.75273437 19.83615723 14.75273437 19.83615723 15.265625 21.34277344 C16 24 16 24 16 28 C13.1875 28.3125 13.1875 28.3125 10 28 C9.525625 27.195625 9.05125 26.39125 8.5625 25.5625 C8.046875 24.716875 7.53125 23.87125 7 23 C3.40080577 22.10407917 3.40080577 22.10407917 0 22 C-0.66 23.98 -1.32 25.96 -2 28 C-4.31 28 -6.62 28 -9 28 C-6.64500307 18.43540722 -3.35051831 9.24916544 0 0 Z " fill="#ECECEC" transform="translate(199,585)"/>
<path d="M0 0 C5.61 0 11.22 0 17 0 C17 2.31 17 4.62 17 7 C13.7 7 10.4 7 7 7 C7 8.32 7 9.64 7 11 C9.64 11 12.28 11 15 11 C15 12.98 15 14.96 15 17 C12.69 17 10.38 17 8 17 C8 18.32 8 19.64 8 21 C11.3 21 14.6 21 18 21 C18 23.31 18 25.62 18 28 C12.06 28 6.12 28 0 28 C0 18.76 0 9.52 0 0 Z " fill="#F1F1F1" transform="translate(350,585)"/>
<path d="M0 0 C5.61 0 11.22 0 17 0 C17 2.31 17 4.62 17 7 C13.7 7 10.4 7 7 7 C7 8.32 7 9.64 7 11 C9.64 11 12.28 11 15 11 C15 12.98 15 14.96 15 17 C12.36 17 9.72 17 7 17 C7 18.32 7 19.64 7 21 C7.71027344 20.98839844 8.42054688 20.97679687 9.15234375 20.96484375 C10.07144531 20.95582031 10.99054688 20.94679688 11.9375 20.9375 C12.85402344 20.92589844 13.77054688 20.91429687 14.71484375 20.90234375 C17 21 17 21 18 22 C18 23.98 18 25.96 18 28 C12.06 28 6.12 28 0 28 C0 18.76 0 9.52 0 0 Z " fill="#F6F6F6" transform="translate(148,585)"/>
<path d="M0 0 C3.5 1.5 3.5 1.5 6 3 C5.67 4.65 5.34 6.3 5 8 C4.01 8.33 3.02 8.66 2 9 C1.34 8.67 0.68 8.34 0 8 C-3.5 7.75 -3.5 7.75 -7 8 C-9.15705515 9.7564331 -9.15705515 9.7564331 -9.265625 11.875 C-9.26046875 12.57625 -9.2553125 13.2775 -9.25 14 C-9.25515625 14.70125 -9.2603125 15.4025 -9.265625 16.125 C-9.15705515 18.2435669 -9.15705515 18.2435669 -7 20 C-2.83062202 20.23600253 0.94392005 19.98329211 5 19 C5.66 20.65 6.32 22.3 7 24 C4.54532786 26.68845043 2.68967049 27.80025213 -1.015625 28.23828125 C-6.91911537 28.43437621 -10.25924682 27.60297242 -15 24 C-18.30898069 19.30338225 -18.52885803 15.55300933 -18 10 C-14.5993835 2.12488812 -8.23395986 -0.91488443 0 0 Z " fill="#F7F7F7" transform="translate(683,585)"/>
<path d="M0 0 C3.0625 1.5 3.0625 1.5 5 3 C4.67 4.65 4.34 6.3 4 8 C0.30647345 9.23117552 -2.16386763 8.66027067 -5.94140625 8.05859375 C-6.62074219 8.03925781 -7.30007813 8.01992188 -8 8 C-10.37198957 9.93602047 -10.37198957 9.93602047 -10.25 13.4375 C-10.28809647 17.10420618 -10.28809647 17.10420618 -8 20 C-3.82846941 20.3148325 -0.05846056 19.98386923 4 19 C4.66 20.65 5.32 22.3 6 24 C2.88219153 27.32566237 0.51185232 28.33893747 -3.9375 28.5 C-9.63214193 28.26272325 -12.69932118 26.14201132 -16.8125 22.3125 C-18.68427139 18.66747151 -19.11343626 15.0766155 -19 11 C-15.86157511 1.75908227 -9.03142213 -0.93428505 0 0 Z " fill="#F8F8F8" transform="translate(618,585)"/>
<path d="M0 0 C2.74021804 0.53036478 4.72318011 1.71426009 6.9375 3.375 C6.2775 5.355 5.6175 7.335 4.9375 9.375 C0.4825 8.385 0.4825 8.385 -4.0625 7.375 C-1.99239732 10.48015402 -1.29938458 10.94696269 1.9375 12.375 C5.17438458 13.80303731 5.86739732 14.26984598 7.9375 17.375 C7.61175569 23.45556042 7.61175569 23.45556042 5.5625 26.25 C1.76373534 28.87991399 -2.61112609 28.9123892 -7.0625 28.375 C-9.5625 26.875 -9.5625 26.875 -11.0625 25.375 C-10.7325 23.725 -10.4025 22.075 -10.0625 20.375 C-6.12579512 19.06276504 -3.93761856 20.13203744 -0.0625 21.375 C-3.06986926 18.02062659 -6.04226565 16.3404479 -10.0625 14.375 C-11.63185594 11.23628812 -11.41451103 8.83644178 -11.0625 5.375 C-7.94760963 0.80000476 -5.30859788 -0.3217332 0 0 Z " fill="#F8F8F8" transform="translate(136.0625,584.625)"/>
<path d="M0 0 C7.92 0 15.84 0 24 0 C24 2.31 24 4.62 24 7 C21.36 7 18.72 7 16 7 C16 13.93 16 20.86 16 28 C13.36 28 10.72 28 8 28 C8 21.07 8 14.14 8 7 C5.36 7 2.72 7 0 7 C0 4.69 0 2.38 0 0 Z " fill="#EAEAEA" transform="translate(447,585)"/>
<path d="M0 0 C7.59 0 15.18 0 23 0 C23 2.31 23 4.62 23 7 C20.36 7 17.72 7 15 7 C15 13.93 15 20.86 15 28 C12.69 28 10.38 28 8 28 C8 21.07 8 14.14 8 7 C5.36 7 2.72 7 0 7 C0 4.69 0 2.38 0 0 Z " fill="#F5F5F5" transform="translate(732,585)"/>
<path d="M0 0 C7.59 0 15.18 0 23 0 C23 2.31 23 4.62 23 7 C20.36 7 17.72 7 15 7 C15 13.93 15 20.86 15 28 C12.69 28 10.38 28 8 28 C8 21.07 8 14.14 8 7 C5.36 7 2.72 7 0 7 C0 4.69 0 2.38 0 0 Z " fill="#F2F2F2" transform="translate(324,585)"/>
<path d="M0 0 C2.31 0 4.62 0 7 0 C7 6.93 7 13.86 7 21 C10.63 21 14.26 21 18 21 C18 23.31 18 25.62 18 28 C12.06 28 6.12 28 0 28 C0 18.76 0 9.52 0 0 Z " fill="#F5F5F5" transform="translate(571,585)"/>
<path d="M0 0 C2.31 0 4.62 0 7 0 C8 1 8 1 8.11352539 3.59204102 C8.10828857 4.71795654 8.10305176 5.84387207 8.09765625 7.00390625 C8.09443359 8.21884766 8.09121094 9.43378906 8.08789062 10.68554688 C8.07951172 11.96494141 8.07113281 13.24433594 8.0625 14.5625 C8.05798828 15.84576172 8.05347656 17.12902344 8.04882812 18.45117188 C8.03699545 21.63416022 8.02051068 24.81705762 8 28 C5.36 28 2.72 28 0 28 C0 18.76 0 9.52 0 0 Z " fill="#E7E7E7" transform="translate(628,585)"/>
<path d="M0 0 C2.31 0 4.62 0 7 0 C7 9.24 7 18.48 7 28 C4.36 28 1.72 28 -1 28 C-1.02886338 23.52084672 -1.04675187 19.04171709 -1.0625 14.5625 C-1.07087891 13.28310547 -1.07925781 12.00371094 -1.08789062 10.68554688 C-1.09111328 9.47060547 -1.09433594 8.25566406 -1.09765625 7.00390625 C-1.10289307 5.87799072 -1.10812988 4.7520752 -1.11352539 3.59204102 C-1 1 -1 1 0 0 Z " fill="#E8E8E8" transform="translate(474,585)"/>
<path d="M0 0 C2.31 0 4.62 0 7 0 C7 9.24 7 18.48 7 28 C4.69 28 2.38 28 0 28 C0 18.76 0 9.52 0 0 Z " fill="#FAFAFA" transform="translate(722,585)"/>
<path d="M0 0 C2.31 0 4.62 0 7 0 C7 9.24 7 18.48 7 28 C4.69 28 2.38 28 0 28 C0 18.76 0 9.52 0 0 Z " fill="#FAFAFA" transform="translate(285,585)"/>
<path d="M0 0 C2.74057325 3.27100678 4.18058075 6.58477621 5.6875 10.5625 C6.34298828 12.26599609 6.34298828 12.26599609 7.01171875 14.00390625 C8 17 8 17 8 20 C2.72 20 -2.56 20 -8 20 C-2.28571429 2.28571429 -2.28571429 2.28571429 0 0 Z " fill="#080808" transform="translate(642,472)"/>
<path d="M0 0 C2.89006581 1.69417651 3.04476264 3.16412969 3.9375 6.4375 C4 10 4 10 2.5 12.4375 C-0.90639136 14.5664946 -3.0572344 14.57349318 -7 14 C-9.62541413 11.79803976 -9.9445448 10.38026421 -10.4375 7 C-10 4 -10 4 -8.375 1.625 C-5.32214079 -0.46379841 -3.63031776 -0.54068562 0 0 Z " fill="#070707" transform="translate(502,592)"/>
<path d="M0 0 C1.65 0 3.3 0 5 0 C5.38218767 1.65614657 5.71395102 3.32457024 6 5 C5 6 5 6 2.4375 6.0625 C1.2309375 6.0315625 1.2309375 6.0315625 0 6 C0 4.02 0 2.04 0 0 Z " fill="#020202" transform="translate(177,592)"/>
<path d="M0 0 C1.65 0 3.3 0 5 0 C5.625 1.875 5.625 1.875 6 4 C5.34 4.66 4.68 5.32 4 6 C2.68 6 1.36 6 0 6 C0 4.02 0 2.04 0 0 Z " fill="#141414" transform="translate(648,592)"/>
<path d="M0 0 C1.65 0 3.3 0 5 0 C5.625 1.875 5.625 1.875 6 4 C5.34 4.66 4.68 5.32 4 6 C2.68 6 1.36 6 0 6 C0 4.02 0 2.04 0 0 Z " fill="#141414" transform="translate(379,592)"/>
</svg>
