<?xml version="1.0" encoding="UTF-8"?>
<svg version="1.1" xmlns="http://www.w3.org/2000/svg" width="1080" height="1080">
<path d="M0 0 C6.33151492 5.75270106 10.26948004 12.7020973 10.97265625 21.28515625 C11.43461596 31.70761568 10.04562851 40.09513155 3.34375 48.40234375 C-7.091969 59.39197565 -21.06625406 63.52611972 -35.8828125 64.33984375 C-52.5166271 64.63490033 -68.83439293 61.92331738 -81.44140625 50.33984375 C-88.92494048 42.45909433 -91.14555185 34.19606934 -91.08007812 23.55541992 C-90.68646425 14.86214869 -87.13961257 7.87648687 -81.46875 1.33984375 C-60.28485723 -17.61904496 -22.09738024 -16.53807097 0 0 Z M-50.2421875 4.92578125 C-56.35374173 12.70683322 -57.97504011 21.25179702 -57.2578125 31.02734375 C-56.12688799 38.70909512 -53.34142865 43.86928244 -48.28125 49.65234375 C-44.03100472 51.91914123 -40.17957101 51.88581026 -35.46875 51.15234375 C-29.14744616 48.22581419 -26.85727606 43.61866421 -24.3828125 37.44140625 C-21.95218669 28.69530824 -22.15449428 17.42165949 -26.13671875 9.17578125 C-29.07176892 4.71725929 -32.38923948 1.90450713 -37.40625 0.08984375 C-42.51556904 0.19411557 -46.55332861 1.23692236 -50.2421875 4.92578125 Z " fill="#2D2B2A" transform="translate(1009.46875,513.84765625)"/>
<path d="M0 0 C6.33151492 5.75270106 10.26948004 12.7020973 10.97265625 21.28515625 C11.4403883 31.83784771 10.03848376 40.23308749 3.09375 48.52734375 C-7.35510444 59.55177068 -20.63581792 63.68254992 -35.6171875 64.27734375 C-52.38565773 64.57347567 -68.7074011 62.03999897 -81.44140625 50.33984375 C-88.92494048 42.45909433 -91.14555185 34.19606934 -91.08007812 23.55541992 C-90.68646425 14.86214869 -87.13961257 7.87648687 -81.46875 1.33984375 C-60.51212437 -17.70314792 -21.93010229 -16.41287719 0 0 Z M-50.2421875 4.92578125 C-56.35374173 12.70683322 -57.97504011 21.25179702 -57.2578125 31.02734375 C-56.12688799 38.70909512 -53.34142865 43.86928244 -48.28125 49.65234375 C-44.03464064 51.91720208 -40.17599418 51.89280913 -35.46875 51.15234375 C-30.58001336 48.79850759 -28.06283275 45.87728019 -25.46875 41.15234375 C-22.10618468 31.30655898 -21.52824401 18.71841799 -26.13671875 9.17578125 C-29.07176892 4.71725929 -32.38923948 1.90450713 -37.40625 0.08984375 C-42.51556904 0.19411557 -46.55332861 1.23692236 -50.2421875 4.92578125 Z " fill="#2D2B2A" transform="translate(378.46875,513.84765625)"/>
<path d="M0 0 C23.76 0 47.52 0 72 0 C72 3.96 72 7.92 72 12 C64.08 12.495 64.08 12.495 56 13 C58.16699257 16.94794133 60.33519272 20.89517292 62.50634766 24.84082031 C63.24206211 26.17865811 63.97710743 27.51686414 64.71142578 28.85546875 C68.99494826 36.66281667 73.33425238 44.41172653 78 52 C85.04254219 39.0225682 92.08093988 26.04378706 99 13 C95.04 12.67 91.08 12.34 87 12 C87 8.04 87 4.08 87 0 C103.5 0 120 0 137 0 C137 3.96 137 7.92 137 12 C135.92363281 11.78214844 134.84726562 11.56429687 133.73828125 11.33984375 C128.82756709 10.74048016 124.46038031 10.63023996 120 13 C114.62790243 19.10857241 111.74357943 27.18973389 108.53955078 34.57324219 C106.1855562 39.81280261 103.42234946 44.79968152 100.625 49.8125 C100.1611792 50.66287842 99.6973584 51.51325684 99.21948242 52.3894043 C98.30874522 54.05727409 97.37387518 55.71219423 96.4152832 57.35302734 C94.89853198 60.04363684 94.89853198 60.04363684 93.79370117 63.27587891 C92.22706649 66.98648774 90.99601052 69.28391975 88 72 C81.62947122 73.98395843 74.62322253 73.12086655 68.0625 72.75 C66.2156675 72.68976136 64.36864713 72.63501631 62.52148438 72.5859375 C58.00966685 72.45411353 53.50689731 72.24740516 49 72 C43.93793709 63.19999221 38.96002049 54.3593634 34.07470703 45.46008301 C33.03381167 43.57298942 31.98294533 41.691742 30.9296875 39.81152344 C27.95284992 34.48247432 25.00756709 29.18664207 22.52734375 23.6015625 C19.71394208 16.67095086 19.71394208 16.67095086 14.07373047 12.27148438 C9.32398301 11.30166861 4.79548543 11.48220525 0 12 C0 8.04 0 4.08 0 0 Z " fill="#2D2B2A" transform="translate(691,504)"/>
<path d="M0 0 C23.76 0 47.52 0 72 0 C72 3.96 72 7.92 72 12 C64.08 12.495 64.08 12.495 56 13 C56.83402344 14.4746875 57.66804688 15.949375 58.52734375 17.46875 C65.03166995 28.97163685 71.52859464 40.47855739 78 52 C78.31114746 51.42781738 78.62229492 50.85563477 78.94287109 50.26611328 C85.90079264 37.47630447 92.90508227 24.71434372 100 12 C95.71 12 91.42 12 87 12 C87 8.04 87 4.08 87 0 C103.5 0 120 0 137 0 C137 3.96 137 7.92 137 12 C131.39 12 125.78 12 120 12 C119.34 13.65 118.68 15.3 118 17 C116.78618706 19.41148382 115.55343415 21.80294978 114.2890625 24.1875 C113.74200653 25.22506943 113.74200653 25.22506943 113.18389893 26.28359985 C112.00076437 28.52409085 110.81326051 30.76222385 109.625 33 C109.22315491 33.75867371 108.82130981 34.51734741 108.4072876 35.29901123 C101.84493752 47.68073587 95.05064481 59.88735379 88 72 C75.13 72 62.26 72 49 72 C41.78955212 59.51361465 34.75458397 46.96827057 27.98583984 34.23681641 C26.88911585 32.18033806 25.78196014 30.1293848 24.66381836 28.08447266 C23.50930294 25.94417217 22.39826712 23.78007 21.32250977 21.59912109 C18.61438398 15.88807338 18.61438398 15.88807338 13.94848633 11.96459961 C11.72468477 11.59409334 9.8080582 11.58153177 7.5625 11.75 C6.46518555 11.75966797 6.46518555 11.75966797 5.34570312 11.76953125 C3.56229919 11.79284372 1.78009128 11.88887786 0 12 C0 8.04 0 4.08 0 0 Z " fill="#2D2B2A" transform="translate(60,504)"/>
<path d="M0 0 C21.78 0 43.56 0 66 0 C66 3.96 66 7.92 66 12 C60.72 12 55.44 12 50 12 C50 27.84 50 43.68 50 60 C67.41170842 59.97272232 67.41170842 59.97272232 82 52 C84.96605761 47.62754425 86.47250674 43.27493259 87 38 C90.96 38 94.92 38 99 38 C99 49.22 99 60.44 99 72 C66.33 72 33.66 72 0 72 C0 68.04 0 64.08 0 60 C5.28 60 10.56 60 16 60 C16 44.16 16 28.32 16 12 C10.72 12 5.44 12 0 12 C0 8.04 0 4.08 0 0 Z " fill="#2D2B2A" transform="translate(497,504)"/>
</svg>
