<?xml version="1.0" standalone="no"?>
<!DOCTYPE svg PUBLIC "-//W3C//DTD SVG 20010904//EN"
 "http://www.w3.org/TR/2001/REC-SVG-20010904/DTD/svg10.dtd">
<svg version="1.0" xmlns="http://www.w3.org/2000/svg"
 width="1080.000000pt" height="1080.000000pt" viewBox="0 0 1080.000000 1080.000000"
 preserveAspectRatio="xMidYMid meet">

<g transform="translate(0.000000,1080.000000) scale(0.100000,-0.100000)"
fill="#000000" stroke="none">
<path d="M5585 6404 c-93 -16 -220 -56 -285 -89 -128 -66 -308 -224 -382 -336
-58 -87 -115 -208 -145 -305 -25 -83 -27 -101 -27 -274 0 -173 2 -191 27 -275
92 -300 278 -517 562 -655 137 -67 225 -85 410 -85 191 0 273 18 430 94 216
104 374 270 458 481 42 106 57 204 57 365 l0 145 -445 0 -444 0 -6 -32 c-3
-18 -5 -89 -3 -158 l3 -125 272 -3 272 -2 -6 -38 c-17 -127 -142 -272 -296
-346 -121 -58 -179 -70 -313 -64 -188 9 -308 64 -450 203 -68 68 -89 96 -127
175 -59 123 -77 201 -77 329 0 127 17 198 78 316 84 164 256 307 430 359 262
77 578 -41 748 -277 l20 -28 119 103 c65 57 120 108 122 113 5 17 -95 128
-174 194 -232 192 -525 269 -828 215z"/>
<path d="M8935 6405 c-281 -52 -534 -237 -697 -510 -96 -160 -121 -267 -122
-510 0 -168 2 -186 27 -268 105 -340 365 -598 712 -703 84 -26 102 -28 270
-28 162 1 190 3 279 27 283 76 531 280 652 536 102 215 129 472 74 701 -27
112 -105 270 -178 361 -176 221 -385 351 -629 394 -103 18 -291 18 -388 0z
m402 -330 c113 -36 196 -88 293 -185 139 -139 200 -285 200 -479 0 -130 -21
-218 -76 -331 -39 -79 -61 -109 -133 -181 -139 -138 -284 -199 -477 -200 -202
-1 -353 60 -495 201 -73 72 -93 100 -132 180 -55 115 -77 209 -77 328 0 110
26 220 77 322 48 96 178 231 273 283 177 97 369 119 547 62z"/>
<path d="M640 5400 l0 -992 328 5 c241 4 349 9 412 21 319 60 531 192 681 423
114 176 149 309 149 563 0 123 -4 163 -24 242 -44 173 -109 290 -230 417 -120
124 -219 186 -386 239 -159 51 -270 63 -617 69 l-313 6 0 -993z m660 655 c188
-27 311 -85 415 -197 115 -124 168 -268 169 -458 0 -182 -43 -306 -153 -436
-136 -162 -323 -234 -608 -234 l-133 0 0 674 0 675 108 -5 c59 -3 150 -12 202
-19z"/>
<path d="M2480 5400 l0 -990 160 0 160 0 0 990 0 990 -160 0 -160 0 0 -990z"/>
<path d="M3575 5893 c-211 -480 -475 -1088 -576 -1320 -27 -62 -51 -124 -55
-138 l-6 -25 178 2 178 3 73 170 c41 94 83 196 95 228 24 67 13 65 153 21 84
-26 101 -28 255 -28 148 0 175 3 260 27 52 15 101 28 108 30 7 1 32 -46 61
-118 27 -66 69 -167 94 -225 l45 -105 181 -3 181 -2 -9 22 c-5 13 -191 454
-415 981 -223 526 -406 962 -406 967 0 6 -37 10 -89 10 l-88 0 -218 -497z
m428 -425 c85 -214 121 -315 114 -320 -7 -3 -39 -11 -71 -17 -140 -26 -445 1
-431 38 58 151 251 611 256 611 4 0 63 -141 132 -312z"/>
<path d="M6907 6383 c-4 -3 -7 -449 -7 -990 l0 -983 540 0 540 0 0 160 0 160
-375 0 -375 0 0 300 0 300 345 0 345 0 0 155 0 155 -345 0 -345 0 0 220 0 220
375 0 375 0 0 155 0 155 -533 0 c-294 0 -537 -3 -540 -7z"/>
</g>
</svg>
