<?xml version="1.0" encoding="UTF-8"?>
<svg version="1.1" xmlns="http://www.w3.org/2000/svg" width="1080" height="1080">
<path d="M0 0 C316.14 0 632.28 0 958 0 C958 209.22 958 418.44 958 634 C641.86 634 325.72 634 0 634 C0 424.78 0 215.56 0 0 Z " fill="#252422" transform="translate(61,223)"/>
<path d="M0 0 C-0.00222061 0.8024263 -0.00444122 1.6048526 -0.00672913 2.43159485 C-0.02686219 10.03641447 -0.04204002 17.64122095 -0.05181217 25.24606037 C-0.05700519 29.1546932 -0.06403687 33.06330379 -0.07543945 36.97192383 C-0.08639676 40.75206403 -0.09230373 44.532183 -0.09487724 48.31233788 C-0.09670855 49.74624147 -0.100284 51.18014405 -0.10573006 52.61403847 C-0.9198905 66.16390878 -0.9198905 66.16390878 2 79 C2.33033562 81.45424093 2.61475345 83.896949 2.8671875 86.359375 C3.03236532 87.88413483 3.19773668 89.4088737 3.36328125 90.93359375 C3.61820916 93.32214684 3.8709287 95.71088788 4.11962891 98.10009766 C5.05920159 107.06840365 6.24342317 115.78734813 8.25927734 124.59130859 C9.30664659 129.4111403 10.03553732 134.26654599 10.78808594 139.13964844 C13.5335456 157.58965609 13.5335456 157.58965609 20 175 C21.65 175 23.3 175 25 175 C29.40546135 159.90393013 32.6875 145.64607652 32.6875 129.875 C32.69394531 128.63145752 32.70039062 127.38791504 32.70703125 126.10668945 C32.66316676 121.51639109 32.66316676 121.51639109 32 117 C30.03618991 115.26491997 30.03618991 115.26491997 28 114 C28 113.34 28 112.68 28 112 C28.64549805 111.73783691 29.29099609 111.47567383 29.95605469 111.20556641 C32.8880415 110.01368899 35.81902815 108.81937103 38.75 107.625 C39.76578125 107.2125 40.7815625 106.8 41.828125 106.375 C43.29765625 105.77558594 43.29765625 105.77558594 44.796875 105.1640625 C45.69760742 104.79748535 46.59833984 104.4309082 47.52636719 104.05322266 C49.97542104 103.05213088 49.97542104 103.05213088 52.13769531 101.86474609 C54 101 54 101 57 101 C57.07516846 101.72364746 57.15033691 102.44729492 57.2277832 103.19287109 C59.94588869 130.78385569 59.94588869 130.78385569 66.29443359 157.70214844 C67.19293336 160.62833523 68.04120001 163.56814278 68.89453125 166.5078125 C69.59549667 168.88046184 70.29732828 171.25285543 71 173.625 C71.33217529 174.77677734 71.66435059 175.92855469 72.0065918 177.11523438 C72.3344165 178.20384766 72.66224121 179.29246094 73 180.4140625 C73.433125 181.88286865 73.433125 181.88286865 73.875 183.38134766 C75.14388524 186.33492037 76.56037191 187.93218688 79 190 C81.09989111 190.88246003 81.09989111 190.88246003 83.25 191.25 C84.4875 191.4975 85.725 191.745 87 192 C86.6337091 194.61475349 86.26560684 195.75798921 84.28515625 197.5625 C77.07598461 202.22502225 68.89422844 207.48237141 60 206 C57.06315172 204.64939463 54.57133199 202.94813747 52 201 C51.43925781 200.62359375 50.87851562 200.2471875 50.30078125 199.859375 C44.29766503 195.08107595 43.61374662 187.08614071 42 180 C41.42840774 177.85100936 40.8465929 175.70468472 40.25 173.5625 C40.00765625 172.67691406 39.7653125 171.79132813 39.515625 170.87890625 C39.34546875 170.25886719 39.1753125 169.63882813 39 169 C36.81912478 170.98053788 36.81912478 170.98053788 35.4375 174 C30.87425575 182.07863242 24.00837021 190.01229933 15 193 C10.27485937 193.72042503 6.44937183 193.64759167 2.0625 191.6875 C-5.57604253 185.43778339 -7.18554392 176.67541397 -9.43383789 167.38696289 C-12.45450682 154.92506901 -15.69060085 143.25284591 -22 132 C-23.18497739 134.793161 -24.13766886 137.50212004 -24.94140625 140.43359375 C-30.32433882 158.56871344 -46.68787856 177.79462153 -63 187 C-69.53713031 189.89208121 -76.79948688 192.56882688 -84 191 C-88.81490447 188.82857249 -92.34773863 185.77319718 -96 182 C-97.73027536 183.24846488 -99.45916957 184.49884402 -101.1875 185.75 C-102.15042969 186.44609375 -103.11335937 187.1421875 -104.10546875 187.859375 C-105.99767799 189.25874162 -107.85941323 190.70054063 -109.68359375 192.1875 C-114.43477845 195.90512175 -119.11086713 196.38617265 -125 196 C-125.86109375 195.95488281 -126.7221875 195.90976562 -127.609375 195.86328125 C-133.21771838 195.26681379 -136.50499786 194.13670838 -140.375 189.9375 C-143.36221941 186.16545105 -145.65098559 182.20119971 -147.84765625 177.93359375 C-149.42079441 175.29392124 -151.54826713 173.80654001 -154 172 C-156.47205639 168.52080953 -157.69280816 165.0383884 -159 161 C-160.48557291 163.41293054 -161.96356592 165.8299747 -163.4375 168.25 C-163.85837891 168.93191406 -164.27925781 169.61382813 -164.71289062 170.31640625 C-165.11572266 170.98027344 -165.51855469 171.64414062 -165.93359375 172.328125 C-166.30540771 172.9355957 -166.67722168 173.54306641 -167.06030273 174.16894531 C-168.05040411 176.09821534 -168.50375327 177.89719519 -169 180 C-174.58813247 188.93377812 -184.18542185 193.14977428 -194 196 C-196.78125 196.37109375 -196.78125 196.37109375 -199.5 196.4375 C-200.3971875 196.47746094 -201.294375 196.51742187 -202.21875 196.55859375 C-206.07639187 195.78381455 -208.46302318 193.89251407 -211 191 C-212.52203955 188.58294622 -213.61730903 186.08105049 -214.6875 183.4375 C-215.10999023 182.4774707 -215.10999023 182.4774707 -215.54101562 181.49804688 C-220.11892744 170.66118866 -221.5138549 159.7966731 -222.125 148.125 C-222.27090216 145.58579055 -222.41925014 143.04672019 -222.5703125 140.5078125 C-222.62977051 139.40066895 -222.68922852 138.29352539 -222.75048828 137.15283203 C-222.99586009 134.05231195 -223.4506106 131.05974196 -224 128 C-224.69735028 123.15229079 -225.03882279 118.81486117 -224 114 C-220.85000883 110.36496594 -217.21355871 108.24951509 -213 106 C-212.33742188 105.59523438 -211.67484375 105.19046875 -210.9921875 104.7734375 C-199.8754771 98 -199.8754771 98 -196 98 C-195.95101562 99.1653125 -195.90203125 100.330625 -195.8515625 101.53125 C-194.65999812 130.09145606 -194.65999812 130.09145606 -189 158 C-188.24848768 160.91120459 -187.53047435 163.83037024 -186.8125 166.75 C-186.48627043 168.05743986 -186.15948762 169.36474186 -185.83203125 170.671875 C-185.22135417 173.11458333 -184.61067708 175.55729167 -184 178 C-182.35 178.33 -180.7 178.66 -179 179 C-171.55537009 168.23010206 -168.87769814 157.31829816 -168.2734375 144.35546875 C-168.01022547 141.12548113 -167.42173451 138.30541532 -166.5625 135.1875 C-163.25379071 123.00690844 -162.71104422 110.5600195 -163 98 C-159.46281042 96.03349851 -155.91950646 94.07827783 -152.375 92.125 C-150.87646484 91.29162109 -150.87646484 91.29162109 -149.34765625 90.44140625 C-147.88779297 89.63896484 -147.88779297 89.63896484 -146.3984375 88.8203125 C-145.06304932 88.08192139 -145.06304932 88.08192139 -143.70068359 87.32861328 C-140.85944425 85.93085298 -138.02195641 84.93490564 -135 84 C-134.98541748 84.55647217 -134.97083496 85.11294434 -134.95581055 85.6862793 C-134.5518472 99.64799477 -133.25877762 113.22024535 -131 127 C-130.81179688 128.17433594 -130.62359375 129.34867188 -130.4296875 130.55859375 C-130.11322696 132.49000769 -129.78718629 134.4198894 -129.44921875 136.34765625 C-129.14884677 138.1211569 -128.88073146 139.90041195 -128.64453125 141.68359375 C-127.70260326 148.40765398 -126.05830603 154.85902743 -124.1875 161.375 C-123.9512793 162.23158203 -123.71505859 163.08816406 -123.47167969 163.97070312 C-121.47247025 170.68741469 -118.97223407 175.01851062 -113 179 C-109.47704517 179.37478243 -107.65118137 179.41127245 -104.625 177.5 C-104.08875 177.005 -103.5525 176.51 -103 176 C-103.78375 175.54625 -104.5675 175.0925 -105.375 174.625 C-109.13637932 170.86362068 -109.247244 167.10564941 -110 162 C-110.1757959 161.37714111 -110.3515918 160.75428223 -110.53271484 160.11254883 C-111.37395742 156.30937639 -110.75151606 152.53357378 -110.375 148.6875 C-110.28871338 147.79683838 -110.20242676 146.90617676 -110.11352539 145.98852539 C-109.32865509 138.97999175 -107.54642782 132.90211918 -105.0859375 126.32421875 C-104.04647049 123.14225319 -103.68443084 120.57496025 -103.5625 117.25 C-103.15140254 109.79469203 -99.50309682 102.97819547 -94.0625 97.875 C-92.7391757 96.87450866 -91.37816516 95.92348845 -90 95 C-88.92621094 94.2678125 -87.85242188 93.535625 -86.74609375 92.78125 C-78.08536015 87.12210362 -70.07193604 84.24117252 -60 82 C-59.34 81.67 -58.68 81.34 -58 81 C-55.6670134 80.95977609 -53.33293334 80.95679753 -51 81 C-51 81.66 -51 82.32 -51 83 C-50.27167969 83.11472656 -49.54335938 83.22945313 -48.79296875 83.34765625 C-45.92631123 84.01721122 -43.8586721 84.98069186 -41.3125 86.4375 C-40.16201172 87.08525391 -40.16201172 87.08525391 -38.98828125 87.74609375 C-37 89 -37 89 -35 91 C-33.97324317 105.03234334 -39.90978723 120.78029067 -44 134 C-37.96998867 116.85938349 -34.73827955 99.60143377 -31.93115234 81.7183075 C-31.34365948 78.00340583 -30.68050293 74.3222992 -29.89453125 70.64453125 C-27.82071314 60.48822142 -27.78631664 50.19076494 -27.75976562 39.86352539 C-27.74991357 37.54213512 -27.7187191 35.22157982 -27.6875 32.90039062 C-27.68098108 31.41406767 -27.67572627 29.92773851 -27.671875 28.44140625 C-27.6533548 27.40857262 -27.6533548 27.40857262 -27.63446045 26.35487366 C-27.65343863 22.27669921 -28.1391456 19.96801842 -31 17 C-29.56720703 16.14728516 -29.56720703 16.14728516 -28.10546875 15.27734375 C-21.02864118 11.0545643 -13.99830628 6.78365966 -7.07421875 2.3125 C-4.32669971 0.57395688 -3.32908646 0 0 0 Z " fill="#FBFBFB" transform="translate(802,369)"/>
<path d="M0 0 C-0.51615957 6.8561573 -3.0750542 12.69171455 -5.6875 19 C-6.60040296 21.236921 -7.51316385 23.47389998 -8.42578125 25.7109375 C-8.86873535 26.78956055 -9.31168945 27.86818359 -9.76806641 28.97949219 C-10.8182525 31.55438367 -11.84671646 34.13524074 -12.85546875 36.7265625 C-13.24955933 37.73589844 -13.24955933 37.73589844 -13.65161133 38.765625 C-14.31900676 40.48107679 -14.9838398 42.19752488 -15.6484375 43.9140625 C-17.19955941 47.45564143 -19.03121872 50.67401631 -21 54 C-22.33463542 52.69791667 -23.66927083 51.39583333 -25.00390625 50.09375 C-28.06363283 48.41718749 -30.54412463 48.78844269 -34 49 C-36.58765842 49.79683394 -38.9614343 50.63319081 -41.4453125 51.66796875 C-42.48291214 52.08300407 -42.48291214 52.08300407 -43.54147339 52.50642395 C-45.74070658 53.3888984 -47.93282896 54.28764524 -50.125 55.1875 C-51.57246104 55.77261278 -53.02037502 56.35660638 -54.46875 56.93945312 C-56.60243439 57.79863968 -58.7356016 58.65894921 -60.86676025 59.52438354 C-67.21270892 62.10077798 -73.59668339 64.56940716 -80 67 C-78.998479 67.18062988 -77.99695801 67.36125977 -76.96508789 67.54736328 C-73.1583739 68.23783918 -69.35531918 68.94700091 -65.55297852 69.66113281 C-63.92400157 69.96453995 -62.29413864 70.2632378 -60.66333008 70.55664062 C-44.52141319 73.4670696 -29.69244096 78.02405018 -15.1875 85.8125 C-14.2082959 86.33239502 -13.2290918 86.85229004 -12.22021484 87.38793945 C-1.70197877 93.08101566 12.4592566 100.9185132 18 112 C18.15291474 114.84656675 18.23156817 117.65228217 18.25 120.5 C18.2809375 121.64855469 18.2809375 121.64855469 18.3125 122.8203125 C18.49841513 150.61462398 -2.51457263 180.13205095 -20.9375 199.3125 C-35.45382169 213.28944302 -62.70623643 236.30568678 -83.3125 237.25 C-90.0243708 237.84336829 -95.81248115 240.48606705 -102 243 C-106.72792988 244.71138961 -110.94685625 245.20625077 -116 245 C-116 245.66 -116 246.32 -116 247 C-131.68140047 258.16835626 -164.88548148 257.32374566 -183.01953125 254.27734375 C-190.53874872 252.73617835 -197.57771032 250.22000112 -204.484375 246.85546875 C-207.45631985 245.84482291 -208.98201266 246.38857631 -212 247 C-223.60222621 241.67362869 -230.54094625 228.71519403 -235 217.48046875 C-242.8756039 195.25460582 -236.33180505 171.87958895 -227.07763672 151.23535156 C-223.55746957 143.93343711 -218.99315371 137.48309808 -213 132 C-212.34 132 -211.68 132 -211 132 C-212.29910431 135.50139542 -213.85241413 138.49156386 -215.875 141.625 C-225.4972007 157.56835445 -228.90040712 179.49796438 -225.23828125 197.80859375 C-224.31498558 200.96531608 -223.25914593 203.96323629 -222 207 C-221.69964844 207.74378906 -221.39929688 208.48757813 -221.08984375 209.25390625 C-215.10193223 222.49989233 -204.10735892 230.45536294 -191 236 C-165.41728607 245.20517443 -133.21440814 240.62298608 -108 232 C-106.28683594 231.42958984 -106.28683594 231.42958984 -104.5390625 230.84765625 C-103.70117188 230.56792969 -102.86328125 230.28820312 -102 230 C-102.33 229.34 -102.66 228.68 -103 228 C-108.80254123 227.6776366 -113.15094701 228.52241777 -118.65625 230.33203125 C-121.49811371 231.14196241 -124.06205966 231.23194266 -127 231 C-127.66 229.68 -128.32 228.36 -129 227 C-127.58521865 226.35004703 -126.16808513 225.70521278 -124.75 225.0625 C-123.96109375 224.70285156 -123.1721875 224.34320312 -122.359375 223.97265625 C-118.53843278 222.39746649 -115.38010818 221.87676311 -111.25 221.9375 C-110.45078125 221.94652344 -109.6515625 221.95554687 -108.828125 221.96484375 C-107.92320312 221.98224609 -107.92320312 221.98224609 -107 222 C-106.67 221.01 -106.34 220.02 -106 219 C-104.26367188 218.09960938 -104.26367188 218.09960938 -101.96875 217.34375 C-101.10765625 217.04919922 -100.2465625 216.75464844 -99.359375 216.45117188 C-98.41578125 216.13728516 -97.4721875 215.82339844 -96.5 215.5 C-74.58172628 207.86049586 -52.70005965 199.22309402 -35.15234375 183.72265625 C-32.20552772 181.13319495 -29.11165741 178.80735239 -25.9375 176.5 C-19.52204307 171.76923866 -13.75197996 166.50987921 -8 161 C-6.59621094 159.71029297 -6.59621094 159.71029297 -5.1640625 158.39453125 C-2.6296114 156.09606026 -2.6296114 156.09606026 -2.8125 152.4375 C-5.67606902 138.48745273 -15.48974837 127.75970622 -26.93334961 119.98071289 C-32.66132342 116.33294563 -38.45841246 114.59905473 -45 113 C-47.52953415 112.33933548 -50.05646195 111.66918136 -52.58349609 110.99902344 C-54.29714044 110.54723571 -56.01229 110.1011129 -57.72900391 109.66113281 C-58.905354 109.35900879 -58.905354 109.35900879 -60.10546875 109.05078125 C-60.80824951 108.87200439 -61.51103027 108.69322754 -62.23510742 108.5090332 C-64 108 -64 108 -66 107 C-68.79193401 106.63005429 -71.57534864 106.29763735 -74.375 106 C-75.90391504 105.8358212 -77.43257339 105.66923063 -78.9609375 105.5 C-79.63946777 105.4278125 -80.31799805 105.355625 -81.01708984 105.28125 C-83.06256014 104.99112666 -84.99781634 104.5042228 -87 104 C-116.43757481 100.00698243 -147.53267914 100.67774733 -177 104 C-175.87651416 98.12129503 -174.32643571 92.8631549 -171.8125 87.4375 C-171.18871109 86.04952006 -170.565016 84.66149795 -169.94140625 83.2734375 C-169.62187988 82.57057617 -169.30235352 81.86771484 -168.97314453 81.14355469 C-167.37639354 77.62637613 -165.80987588 74.0961561 -164.25 70.5625 C-163.8020105 69.56041504 -163.8020105 69.56041504 -163.3449707 68.53808594 C-161.76925844 64.96378941 -160.5010146 61.459616 -159.5 57.6875 C-158 54 -158 54 -155.0234375 52.41015625 C-150.51453557 50.67511877 -145.83898384 49.75119627 -141.125 48.75 C-133.36705055 47.01357101 -126.25292081 44.7197738 -118.9831543 41.52319336 C-113.41353329 39.08969536 -107.87764159 37.46412872 -102 35.89453125 C-98.75509505 34.92697496 -96.04095719 33.59935148 -93.08203125 31.9921875 C-89.44936851 30.26104991 -85.5874394 29.26085489 -81.734375 28.12890625 C-78.33611242 27.10160721 -74.98677949 25.98747173 -71.62988281 24.83544922 C-64.60244352 22.42651973 -57.58058037 20.30962732 -50.375 18.5 C-35.59132166 14.74811009 -19.25868414 9.46904036 -6.29296875 1.29296875 C-4 0 -4 0 0 0 Z " fill="#FBFBFB" transform="translate(428,362)"/>
<path d="M0 0 C4.2520481 2.65923909 7.54182408 4.97088202 9.5546875 9.70703125 C10.1425 11.03734375 10.1425 11.03734375 10.7421875 12.39453125 C12.70039144 20.3779781 12.07905354 29.91025512 9.5546875 37.70703125 C5.76811625 43.23218385 0.79690206 46.7513308 -4.6328125 50.58203125 C-5.45201172 51.175 -6.27121094 51.76796875 -7.11523438 52.37890625 C-13.17361211 56.70703125 -13.17361211 56.70703125 -15.4453125 56.70703125 C-16.79731401 54.00302822 -16.48265536 51.79198192 -16.5078125 48.76953125 C-17.10941583 40.14655023 -21.1645796 34.79690345 -27.28515625 28.94921875 C-31.15289273 25.87958662 -34.54780612 24.68605692 -39.4453125 24.70703125 C-41.86662819 26.82448302 -43.41361021 28.52526779 -45.2578125 31.08203125 C-45.76699219 31.75451904 -46.27617187 32.42700684 -46.80078125 33.11987305 C-54.33255751 43.29924665 -61.6050105 54.55998906 -65.4453125 66.70703125 C-65.97511719 68.30224609 -65.97511719 68.30224609 -66.515625 69.9296875 C-67.5728224 74.22510719 -67.8277845 78.11571971 -67.8203125 82.51953125 C-67.82160156 83.30763184 -67.82289063 84.09573242 -67.82421875 84.90771484 C-67.7117433 91.12070526 -66.52179438 96.24078219 -63.4453125 101.70703125 C-57.24015247 102.07204066 -53.23467463 101.27410446 -47.7578125 98.39453125 C-46.720802 97.85928833 -46.720802 97.85928833 -45.6628418 97.31323242 C-34.99939138 91.56288803 -26.84098935 83.17361409 -18.47558594 74.56616211 C-11.01301173 67.04623538 -2.16708588 60.03725346 7.5546875 55.70703125 C8.2146875 55.70703125 8.8746875 55.70703125 9.5546875 55.70703125 C9.5819491 57.7486222 9.60120095 59.79032088 9.6171875 61.83203125 C9.62878906 62.96898437 9.64039063 64.1059375 9.65234375 65.27734375 C9.5546875 68.70703125 9.5546875 68.70703125 9.0625 71.625 C7.40597996 81.67880241 7.97144882 92.87457901 10.5546875 102.70703125 C10.8640625 103.90005859 10.8640625 103.90005859 11.1796875 105.1171875 C11.88076961 107.58694526 11.88076961 107.58694526 13.5546875 110.70703125 C16.12548885 111.84143903 16.12548885 111.84143903 18.5546875 111.70703125 C19.1115625 110.00546875 19.1115625 110.00546875 19.6796875 108.26953125 C20.704627 105.16570503 21.78118255 102.09393258 22.9140625 99.02734375 C26.94412549 88.09124229 29.90326301 77.05184314 32.5546875 65.70703125 C34.23430509 68.68286617 34.88424818 71.08604779 35.1875 74.48046875 C35.27128906 75.38796875 35.35507812 76.29546875 35.44140625 77.23046875 C35.52003906 78.17148437 35.59867188 79.1125 35.6796875 80.08203125 C35.76605469 81.0153125 35.85242188 81.94859375 35.94140625 82.91015625 C36.17321268 85.50786008 36.37124609 88.10552271 36.5546875 90.70703125 C36.68230469 92.38345703 36.68230469 92.38345703 36.8125 94.09375 C36.48825064 97.38045944 35.46035615 98.67638122 33.3046875 101.14453125 C31.09804968 103.77840235 29.16515669 106.20161041 27.6171875 109.26953125 C23.73927169 116.30541226 17.92483741 121.43489345 10.34765625 124.08984375 C4.58570765 125.36311351 -1.95965342 125.85231923 -7.6328125 123.98828125 C-10.04982675 122.27970221 -11.11546737 120.39895695 -12.5703125 117.83203125 C-13.06789063 116.96835937 -13.56546875 116.1046875 -14.078125 115.21484375 C-14.75488281 113.97347656 -14.75488281 113.97347656 -15.4453125 112.70703125 C-15.81140625 112.05347656 -16.1775 111.39992188 -16.5546875 110.7265625 C-17.64153031 108.26209875 -18.10690394 105.92125801 -18.5703125 103.26953125 C-18.73789062 102.34269531 -18.90546875 101.41585937 -19.078125 100.4609375 C-19.42805093 97.836493 -19.51248141 95.35060772 -19.4453125 92.70703125 C-27.85055027 95.57245322 -34.74785708 101.42152059 -41.3203125 107.26171875 C-44.85023577 110.02388371 -48.28005508 111.72587722 -52.3828125 113.45703125 C-53.06021484 113.75996094 -53.73761719 114.06289063 -54.43554688 114.375 C-60.85460264 117.14448715 -66.89830971 117.84800881 -73.8828125 117.76953125 C-74.93339844 117.76050781 -75.98398437 117.75148438 -77.06640625 117.7421875 C-78.24396484 117.72478516 -78.24396484 117.72478516 -79.4453125 117.70703125 C-79.5896875 118.34640625 -79.7340625 118.98578125 -79.8828125 119.64453125 C-80.4453125 121.70703125 -80.4453125 121.70703125 -81.4453125 122.70703125 C-84.0703125 123.20703125 -84.0703125 123.20703125 -87.4453125 122.70703125 C-93.28168085 118.69452801 -96.04566425 113.17880986 -98.4453125 106.70703125 C-99.54929767 103.45319452 -99.54929767 103.45319452 -101.4453125 100.70703125 C-102.25169681 84.55866843 -95.40933979 69.83644783 -88.4453125 55.70703125 C-87.87163155 54.48733836 -87.29863653 53.26732242 -86.7265625 52.046875 C-75.77262281 29.95106037 -50.41175251 6.8645262 -27.43359375 -2.5234375 C-18.75011904 -4.75957413 -8.0100235 -4.23533191 0 0 Z " fill="#FAFAFA" transform="translate(544.4453125,443.29296875)"/>
<path d="M0 0 C0.07516846 0.72364746 0.15033691 1.44729492 0.2277832 2.19287109 C2.94588869 29.78385569 2.94588869 29.78385569 9.29443359 56.70214844 C10.19293336 59.62833523 11.04120001 62.56814278 11.89453125 65.5078125 C12.59549667 67.88046184 13.29732828 70.25285543 14 72.625 C14.49826294 74.35266602 14.49826294 74.35266602 15.0065918 76.11523438 C15.3344165 77.20384766 15.66224121 78.29246094 16 79.4140625 C16.433125 80.88286865 16.433125 80.88286865 16.875 82.38134766 C18.14388524 85.33492037 19.56037191 86.93218688 22 89 C24.09989111 89.88246003 24.09989111 89.88246003 26.25 90.25 C27.4875 90.4975 28.725 90.745 30 91 C29.6337091 93.61475349 29.26560684 94.75798921 27.28515625 96.5625 C20.07598461 101.22502225 11.89422844 106.48237141 3 105 C0.06315172 103.64939463 -2.42866801 101.94813747 -5 100 C-5.84111328 99.43539062 -5.84111328 99.43539062 -6.69921875 98.859375 C-12.70233497 94.08107595 -13.38625338 86.08614071 -15 79 C-15.57159226 76.85100936 -16.1534071 74.70468472 -16.75 72.5625 C-16.99234375 71.67691406 -17.2346875 70.79132813 -17.484375 69.87890625 C-17.65453125 69.25886719 -17.8246875 68.63882813 -18 68 C-19.299375 69.1446875 -19.299375 69.1446875 -20.625 70.3125 C-25.06158394 73.98703541 -29.06774367 76.52343438 -35 76 C-33.515 75.01 -33.515 75.01 -32 74 C-26.29664481 59.90944108 -24.33823864 43.96451767 -24.3125 28.875 C-24.30581299 27.63129639 -24.29912598 26.38759277 -24.29223633 25.10620117 C-24.33683464 20.51615921 -24.33683464 20.51615921 -25 16 C-26.96381009 14.26491997 -26.96381009 14.26491997 -29 13 C-29 12.34 -29 11.68 -29 11 C-28.03175293 10.60675537 -28.03175293 10.60675537 -27.04394531 10.20556641 C-24.1119585 9.01368899 -21.18097185 7.81937103 -18.25 6.625 C-16.72632813 6.00625 -16.72632813 6.00625 -15.171875 5.375 C-14.1921875 4.97539062 -13.2125 4.57578125 -12.203125 4.1640625 C-11.30239258 3.79748535 -10.40166016 3.4309082 -9.47363281 3.05322266 C-7.02457896 2.05213088 -7.02457896 2.05213088 -4.86230469 0.86474609 C-3 0 -3 0 0 0 Z " fill="#FBFBFB" transform="translate(859,470)"/>
<path d="M0 0 C0.04898438 1.1653125 0.09796875 2.330625 0.1484375 3.53125 C1.34000188 32.09145606 1.34000188 32.09145606 7 60 C7.75151232 62.91120459 8.46952565 65.83037024 9.1875 68.75 C9.51372957 70.05743986 9.84051238 71.36474186 10.16796875 72.671875 C11.08398438 76.3359375 11.08398438 76.3359375 12 80 C17.85789639 82.19671115 21.0410001 81.88178944 27 80 C25.63308421 85.63852762 21.60598701 88.84284458 17 92 C10.53082978 95.18960352 3.9524685 98.11374249 -3.3125 98.375 C-4.23675781 98.42398438 -5.16101563 98.47296875 -6.11328125 98.5234375 C-10.05349939 97.80897305 -12.42958677 95.94888743 -15 93 C-16.52114229 90.58239052 -17.61729876 88.08107584 -18.6875 85.4375 C-18.96916016 84.79748047 -19.25082031 84.15746094 -19.54101562 83.49804688 C-24.11892744 72.66118866 -25.5138549 61.7966731 -26.125 50.125 C-26.27090216 47.58579055 -26.41925014 45.04672019 -26.5703125 42.5078125 C-26.62977051 41.40066895 -26.68922852 40.29352539 -26.75048828 39.15283203 C-26.99586009 36.05231195 -27.4506106 33.05974196 -28 30 C-28.69735028 25.15229079 -29.03882279 20.81486117 -28 16 C-24.85000883 12.36496594 -21.21355871 10.24951509 -17 8 C-16.00613281 7.39285156 -16.00613281 7.39285156 -14.9921875 6.7734375 C-3.8754771 0 -3.8754771 0 0 0 Z " fill="#FBFBFB" transform="translate(606,467)"/>
<path d="M0 0 C5.24498117 0.91115486 8.3188979 4.37732809 12 8 C12.5259375 8.515625 13.051875 9.03125 13.59375 9.5625 C17.59123322 14.2107363 17.5850533 18.94761371 17.82421875 24.90625 C18.03405239 28.59932207 18.8357421 31.50722631 20 35 C20.35371498 36.66246041 20.69595322 38.32774271 21 40 C21.66 39.67 22.32 39.34 23 39 C22.35996816 43.5591309 20.5975871 47.41952032 18.5625 51.5 C18.21485596 52.19762451 17.86721191 52.89524902 17.5090332 53.61401367 C13.36222519 61.6332421 7.88269926 70.07268959 1 76 C-1.75 76.6875 -1.75 76.6875 -5 76 C-10.71676958 71.30278168 -14.27826092 65.18827293 -15.29907227 57.85009766 C-15.43863963 55.57801191 -15.46784846 53.33863485 -15.4375 51.0625 C-15.42847656 50.23621094 -15.41945313 49.40992188 -15.41015625 48.55859375 C-14.94603479 31.69551415 -9.11153234 14.19241798 0 0 Z " fill="#272624" transform="translate(731,475)"/>
<path d="M0 0 C1.22680664 2.86401367 1.22680664 2.86401367 2.41015625 6.66796875 C2.62312851 7.34040115 2.83610077 8.01283356 3.05552673 8.7056427 C3.7359725 10.86286165 4.39946151 13.02487464 5.0625 15.1875 C5.51254806 16.62600312 5.96370721 18.06415913 6.41601562 19.50195312 C7.25188642 22.16227176 8.07981181 24.8245675 8.90258789 27.48901367 C9.89779529 30.67301314 10.93347377 33.83928136 12 37 C13.14619813 33.72929439 14.29189558 30.45841361 15.4375 27.1875 C15.76298828 26.25873047 16.08847656 25.32996094 16.42382812 24.37304688 C16.89272461 23.0340332 16.89272461 23.0340332 17.37109375 21.66796875 C17.65911865 20.84578857 17.94714355 20.0236084 18.24389648 19.17651367 C20.54106913 12.56389043 20.82376288 5.83911082 19 -1 C22.3 -1 25.6 -1 29 -1 C27.10473493 6.27894499 24.93366673 13.39056722 22.42578125 20.48046875 C21.9327375 21.88876701 21.9327375 21.88876701 21.42973328 23.32551575 C20.39419987 26.28076843 19.35345189 29.23415215 18.3125 32.1875 C17.60316762 34.20886229 16.8941802 36.23034566 16.18554688 38.25195312 C14.46101001 43.1693733 12.7322052 48.08527617 11 53 C8.69 53 6.38 53 4 53 C0.7 42.77 -2.6 32.54 -6 22 C-8.66635398 28.66588496 -11.10194066 35.163699 -13.1875 42 C-13.7003612 43.66711704 -14.21461522 45.33380644 -14.73046875 47 C-14.95114014 47.721875 -15.17181152 48.44375 -15.39916992 49.1875 C-16 51 -16 51 -17 53 C-18.98 53 -20.96 53 -23 53 C-25.61534942 46.79610179 -27.91583526 40.49637072 -30.12890625 34.140625 C-30.54564102 32.94391174 -30.54564102 32.94391174 -30.97079468 31.72302246 C-32.13018258 28.38694366 -33.28630244 25.04975001 -34.43920898 21.71142578 C-35.2906009 19.24909252 -36.1469712 16.78853365 -37.00390625 14.328125 C-37.26023331 13.58113342 -37.51656036 12.83414185 -37.78065491 12.06451416 C-38.02778732 11.35647644 -38.27491974 10.64843872 -38.52954102 9.91894531 C-38.84786644 8.99822235 -38.84786644 8.99822235 -39.17262268 8.05889893 C-40.28149661 5.29950574 -41.67004871 2.65990257 -43 0 C-37.39 0 -31.78 0 -26 0 C-26 2.64 -26 5.28 -26 8 C-25.22970548 11.25905597 -25.22970548 11.25905597 -24.03125 14.36328125 C-23.62519531 15.49701172 -23.21914063 16.63074219 -22.80078125 17.79882812 C-22.37152344 18.95833984 -21.94226563 20.11785156 -21.5 21.3125 C-20.65230013 23.6404926 -19.80836166 25.96985936 -18.96875 28.30078125 C-18.59169922 29.32341064 -18.21464844 30.34604004 -17.82617188 31.3996582 C-17 34 -17 34 -17 37 C-16.34 37 -15.68 37 -15 37 C-14.87882812 36.41992188 -14.75765625 35.83984375 -14.6328125 35.2421875 C-14.46523438 34.46101562 -14.29765625 33.67984375 -14.125 32.875 C-13.96257812 32.10929688 -13.80015625 31.34359375 -13.6328125 30.5546875 C-13 28 -13 28 -11.94140625 25.1015625 C-10.91988906 21.73606604 -10.7665568 19.00838964 -10.8125 15.5 C-10.82216797 13.87578125 -10.82216797 13.87578125 -10.83203125 12.21875 C-10.99604465 9.07579556 -11.41821445 6.09044483 -12 3 C-10.5682384 2.30062798 -9.12932968 1.61587282 -7.6875 0.9375 C-6.48673828 0.36322266 -6.48673828 0.36322266 -5.26171875 -0.22265625 C-3 -1 -3 -1 0 0 Z " fill="#F7F7F7" transform="translate(486,613)"/>
<path d="M0 0 C0 7.26 0 14.52 0 22 C2.64 20.68 5.28 19.36 8 18 C11.8189695 17.18308133 15.18640408 17.11054851 19 18 C22.24607226 20.44089418 24.20127047 23.40254094 26 27 C26.70123164 35.55272683 26.6169625 43.5363827 22 51 C18.69571477 54.73719961 14.53009747 57.76748325 9.4921875 58.23046875 C8.62851562 58.21628906 7.76484375 58.20210937 6.875 58.1875 C6.00617187 58.18105469 5.13734375 58.17460938 4.2421875 58.16796875 C2 58 2 58 0 57 C-3.85326289 56.82874387 -7.24230698 57.19614716 -11 58 C-11.0154612 57.07038704 -11.0154612 57.07038704 -11.03123474 56.12199402 C-11.13926606 49.68205136 -11.25386691 43.24224957 -11.37231445 36.80249023 C-11.41567409 34.39789777 -11.4573484 31.99327431 -11.49731445 29.58862305 C-11.55499189 26.13580984 -11.61869385 22.68315281 -11.68359375 19.23046875 C-11.70030624 18.15226364 -11.71701874 17.07405853 -11.73423767 15.96318054 C-11.75418289 14.96236954 -11.77412811 13.96155853 -11.79467773 12.93041992 C-11.81022202 12.04883713 -11.8257663 11.16725433 -11.84178162 10.25895691 C-11.9174752 7.8322892 -11.9174752 7.8322892 -13 5 C-11.730447 4.35165346 -10.45930294 3.70642185 -9.1875 3.0625 C-8.47980469 2.70285156 -7.77210938 2.34320312 -7.04296875 1.97265625 C-4.66983249 0.84280744 -2.65322674 0 0 0 Z " fill="#F7F7F7" transform="translate(802,674)"/>
<path d="M0 0 C0.33 0.99 0.66 1.98 1 3 C2.7015625 2.2575 2.7015625 2.2575 4.4375 1.5 C8.98579569 -0.19351435 13.18340574 -0.73034731 18 0 C19.68991979 0.9601817 21.36209288 1.95355934 23 3 C25.78048477 2.79146364 27.73545733 2.12492293 30.25 0.9375 C35.23040126 -0.76036407 40.08422969 -0.81522141 44.9375 1.25 C48.06402473 3.90280886 48.89901346 5.97719594 49.30297852 10.06860352 C49.32803467 11.24350342 49.35309082 12.41840332 49.37890625 13.62890625 C49.41306641 14.91087891 49.44722656 16.19285156 49.48242188 17.51367188 C49.50975092 18.86326851 49.53643678 20.21287832 49.5625 21.5625 C49.62045715 24.20984347 49.68596282 26.85677677 49.75390625 29.50390625 C49.77783447 30.67767822 49.8017627 31.8514502 49.82641602 33.06079102 C49.87589236 36.06059005 49.87589236 36.06059005 51 39 C47.88450128 40.55774936 44.3955612 40.56480622 41 40 C39.40649414 38.88989258 39.40649414 38.88989258 38 37 C37.58349609 34.02905273 37.58349609 34.02905273 37.5234375 30.43359375 C37.4925 29.14388672 37.4615625 27.85417969 37.4296875 26.52539062 C37.41069628 25.16277082 37.39247597 23.80014008 37.375 22.4375 C37.32696473 19.76933035 37.26966237 17.10157133 37.2109375 14.43359375 C37.19337402 13.24822021 37.17581055 12.06284668 37.15771484 10.84155273 C37.19146984 8.05214034 37.19146984 8.05214034 36 6 C30.91696314 5.88679144 30.91696314 5.88679144 26 7 C25.97522627 11.05679377 25.95710507 15.11355806 25.94506836 19.17041016 C25.94004882 20.54964973 25.93323181 21.92888402 25.92456055 23.30810547 C25.9123908 25.29392183 25.90728367 27.27977749 25.90234375 29.265625 C25.89710693 30.45961914 25.89187012 31.65361328 25.88647461 32.88378906 C25.89896901 36.18253302 25.89896901 36.18253302 27 40 C22.05 40 17.1 40 12 40 C12.33 38.35 12.66 36.7 13 35 C13.09042657 32.89340218 13.13063506 30.78431785 13.1328125 28.67578125 C13.13410156 27.48275391 13.13539063 26.28972656 13.13671875 25.06054688 C13.13285156 23.82369141 13.12898437 22.58683594 13.125 21.3125 C13.12886719 20.06404297 13.13273438 18.81558594 13.13671875 17.52929688 C13.13542969 16.34013672 13.13414062 15.15097656 13.1328125 13.92578125 C13.13168457 12.83692627 13.13055664 11.74807129 13.12939453 10.6262207 C13.17764469 8.0197423 13.17764469 8.0197423 12 6 C8.37 6 4.74 6 1 6 C1.33 17.22 1.66 28.44 2 40 C-2.95 40 -7.9 40 -13 40 C-12.67 38.68 -12.34 37.36 -12 36 C-11.90718975 33.86483884 -11.8693151 31.72702002 -11.8671875 29.58984375 C-11.86589844 28.35298828 -11.86460937 27.11613281 -11.86328125 25.84179688 C-11.86714844 24.55337891 -11.87101563 23.26496094 -11.875 21.9375 C-11.87113281 20.64521484 -11.86726562 19.35292969 -11.86328125 18.02148438 C-11.86521484 16.16813477 -11.86521484 16.16813477 -11.8671875 14.27734375 C-11.86831543 13.14546631 -11.86944336 12.01358887 -11.87060547 10.84741211 C-11.87369913 7.92417708 -11.87369913 7.92417708 -13 5 C-11.21046815 4.16209211 -9.41830305 3.32980604 -7.625 2.5 C-6.62726562 2.0359375 -5.62953125 1.571875 -4.6015625 1.09375 C-2 0 -2 0 0 0 Z " fill="#F9F9F9" transform="translate(674,626)"/>
<path d="M0 0 C5.51250468 3.30127399 9.82701518 7.73704911 11.51171875 14.0546875 C12.53845501 21.72098492 10.96308357 27.71381105 6.51171875 34.0546875 C0.8205817 39.44703985 -5.65072152 39.40098435 -13.09765625 39.33203125 C-18.83046651 38.86310322 -21.5715929 36.18311412 -25.23828125 32.1171875 C-29.53629277 26.26711627 -30.36222704 21.22104294 -29.48828125 14.0546875 C-27.45249757 7.39212272 -23.5498851 3.55345683 -17.69140625 -0.05078125 C-12.36173386 -2.21477944 -5.3387815 -2.0282341 0 0 Z " fill="#F6F6F6" transform="translate(644.48828125,626.9453125)"/>
<path d="M0 0 C4.57401341 2.71733144 7.80000335 6.27501006 9.5 11.375 C10.14215083 19.07028289 10.33001922 26.02383836 5.5 32.375 C0.7514522 37.00179016 -3.86010862 38.66210467 -10.4375 38.6875 C-16.15758594 38.56147607 -19.94304573 37.93195427 -24.1171875 33.7578125 C-29.72296947 27.50830437 -31.01570856 23.10241645 -30.8828125 14.64453125 C-30.16679958 8.52919643 -27.27290163 5.0212658 -22.875 0.9375 C-16.58223616 -3.20247621 -6.77254558 -3.12080972 0 0 Z " fill="#F6F6F6" transform="translate(632.5,693.625)"/>
<path d="M0 0 C2.96275848 1.51466866 5.7292998 3.23804331 8.4609375 5.12890625 C9.04020996 5.52795166 9.61948242 5.92699707 10.21630859 6.33813477 C14.25432622 9.22495815 17.25764197 12.21288303 19.9375 16.4375 C21.15581731 18.37328116 21.15581731 18.37328116 24.0859375 20.06640625 C23.5909375 22.54140625 23.5909375 22.54140625 23.0859375 25.06640625 C22.0959375 25.39640625 21.1059375 25.72640625 20.0859375 26.06640625 C20.1065625 27.34515625 20.1271875 28.62390625 20.1484375 29.94140625 C20.2109375 33.81640625 20.2109375 33.81640625 19.0859375 36.06640625 C16.4459375 35.73640625 13.8059375 35.40640625 11.0859375 35.06640625 C11.5809375 40.01640625 11.5809375 40.01640625 12.0859375 45.06640625 C10.7659375 45.72640625 9.4459375 46.38640625 8.0859375 47.06640625 C7.43238281 46.54175781 6.77882813 46.01710938 6.10546875 45.4765625 C5.10902344 44.68121094 4.11257813 43.88585937 3.0859375 43.06640625 C2.46638184 42.57124512 1.84682617 42.07608398 1.20849609 41.56591797 C-0.92796471 39.86744436 -3.07644284 38.18504642 -5.2265625 36.50390625 C-5.94779297 35.92705078 -6.66902344 35.35019531 -7.41210938 34.75585938 C-12.08312183 31.12378063 -16.26830921 28.85901266 -21.9140625 27.06640625 C-20.29133682 21.78993051 -16.94052005 17.85776345 -13.6015625 13.56640625 C-13.03244141 12.82003906 -12.46332031 12.07367188 -11.87695312 11.3046875 C-3.25025815 0.11276406 -3.25025815 0.11276406 0 0 Z " fill="#FAFAFA" transform="translate(837.9140625,412.93359375)"/>
<path d="M0 0 C4.79373582 11.79890851 9.42612404 23.65323132 13.9375 35.5625 C14.30447495 36.53055069 14.30447495 36.53055069 14.67886353 37.51815796 C18.79047203 48.37141608 18.79047203 48.37141608 20 52 C14.72 52 9.44 52 4 52 C3.54427083 49.29817708 3.08854167 46.59635417 2.6328125 43.89453125 C1.99170581 40.58167916 1.99170581 40.58167916 0 36 C-6.27 35.67 -12.54 35.34 -19 35 C-19 40.61 -19 46.22 -19 52 C-22.3 52 -25.6 52 -29 52 C-28.36152459 47.83735281 -26.96642061 44.46441926 -25.1640625 40.66796875 C-24.88404388 40.07252762 -24.60402527 39.47708649 -24.31552124 38.86360168 C-23.42386176 36.96906935 -22.52501999 35.0780731 -21.625 33.1875 C-15.00972478 20.70843575 -15.00972478 20.70843575 -11.8125 7.25 C-11 4 -11 4 -9.26953125 2.67578125 C-6.00889722 0.98310238 -3.71107443 0 0 0 Z " fill="#F8F8F8" transform="translate(694,679)"/>
<path d="M0 0 C5.04122596 3.03557692 5.04122596 3.03557692 6.4921875 5.9375 C6.99075926 9.17821641 7.33298364 11.69471738 5.421875 14.51953125 C-0.07958496 19.7583587 -7.54337442 22.21354502 -14.5078125 24.9375 C-14.1575396 26.90183498 -14.1575396 26.90183498 -13.5078125 28.9375 C-9.29208238 31.57233133 -4.32295257 31.52194635 0.4921875 30.9375 C4.25617318 29.2255813 4.25617318 29.2255813 6.4921875 25.9375 C7.1521875 25.9375 7.8121875 25.9375 8.4921875 25.9375 C6.86694524 30.96097608 4.31943916 35.28312567 -0.296875 37.984375 C-6.42165083 40.57093372 -12.49359994 41.0388469 -18.7578125 38.75 C-24.11431385 35.21957866 -27.9324742 31.27465633 -29.5078125 24.9375 C-30.62871208 17.64044372 -29.57405385 12.22765051 -25.39453125 6.109375 C-19.02044211 -1.2280858 -9.13814811 -3.87161415 0 0 Z " fill="#F4F4F4" transform="translate(759.5078125,627.0625)"/>
<path d="M0 0 C5.04630236 3.10822971 5.04630236 3.10822971 6.46875 5.953125 C7.01165511 9.93442914 6.74451601 11.54565787 4.46484375 14.9140625 C1.29364463 18.54279781 -2.43035487 20.09274175 -6.84375 21.828125 C-7.95459961 22.28832031 -7.95459961 22.28832031 -9.08789062 22.7578125 C-10.89625895 23.50449362 -12.71296128 24.23093747 -14.53125 24.953125 C-14.25507467 26.89387361 -14.25507467 26.89387361 -13.53125 28.953125 C-9.07727816 31.92243956 -4.75662985 31.46571717 0.46875 30.953125 C3.54948848 29.5699363 5.1072067 28.3146683 7.46875 25.953125 C7.05115017 30.68592305 5.00957887 33.8955358 1.46875 36.953125 C-3.77170804 40.01291313 -9.56441057 40.89032491 -15.53125 39.953125 C-20.81107186 38.21498896 -24.56213269 35.74939142 -27.53125 30.953125 C-30.34724573 25.03953396 -30.6217606 17.97697107 -28.9140625 11.67578125 C-26.54624171 6.21722092 -22.58370936 2.9514017 -17.53125 -0.046875 C-11.98651538 -1.89511987 -5.46216989 -2.25904557 0 0 Z " fill="#F4F4F4" transform="translate(542.53125,627.046875)"/>
<path d="M0 0 C3.11622605 2.33716953 4.0068635 4.28998616 5.5 7.875 C5.91650391 11.09472656 5.91650391 11.09472656 5.9765625 14.515625 C6.0075 15.75054688 6.0384375 16.98546875 6.0703125 18.2578125 C6.08835937 19.53398438 6.10640625 20.81015625 6.125 22.125 C6.17583742 24.67195476 6.23033161 27.21884003 6.2890625 29.765625 C6.30662598 30.89000977 6.32418945 32.01439453 6.34228516 33.17285156 C6.31996592 35.84354678 6.31996592 35.84354678 7.5 37.875 C4.38450128 39.43274936 0.8955612 39.43980622 -2.5 38.875 C-4.25390625 37.359375 -4.25390625 37.359375 -5.5 35.875 C-6.1290625 36.0915625 -6.758125 36.308125 -7.40625 36.53125 C-12.98729971 38.34677219 -17.63251127 39.57114273 -23.5 38.875 C-26.94312714 36.7505173 -28.21617547 35.72647359 -29.5 31.875 C-29.875 28.5 -29.875 28.5 -29.5 24.875 C-26.05333872 20.74159793 -22.17984765 18.38074953 -17.375 16.125 C-16.75496094 15.82207031 -16.13492188 15.51914062 -15.49609375 15.20703125 C-12.85920722 13.93111841 -10.28179508 12.80226503 -7.5 11.875 C-7.83 9.565 -8.16 7.255 -8.5 4.875 C-10.24991334 4.84784617 -11.99994945 4.82853449 -13.75 4.8125 C-14.72453125 4.80089844 -15.6990625 4.78929687 -16.703125 4.77734375 C-19.15758678 4.86304423 -21.16168914 5.16793934 -23.5 5.875 C-23.5 4.885 -23.5 3.895 -23.5 2.875 C-15.75547468 -1.40839178 -8.55841103 -2.75091783 0 0 Z " fill="#F3F3F3" transform="translate(882.5,693.125)"/>
<path d="M0 0 C3.6293382 4.33179075 4.19368237 8.3005359 4.31640625 13.85546875 C4.35056641 15.09361328 4.38472656 16.33175781 4.41992188 17.60742188 C4.44634766 18.89197266 4.47277344 20.17652344 4.5 21.5 C4.5597395 24.05608776 4.62333844 26.61208921 4.69140625 29.16796875 C4.71533447 30.29871826 4.7392627 31.42946777 4.76391602 32.59448242 C4.7582506 35.27841672 4.7582506 35.27841672 5.9375 37.3125 C2.72298731 38.91975635 -0.49862536 38.36998185 -4.0625 38.3125 C-4.7225 36.9925 -5.3825 35.6725 -6.0625 34.3125 C-6.76375 34.60125 -7.465 34.89 -8.1875 35.1875 C-14.03274306 37.47476902 -18.78290771 39.28691949 -25.0625 38.3125 C-28.64887603 35.41287683 -30.75563857 33.19750591 -31.5 28.625 C-31.01570529 24.9581972 -29.9589246 22.85450785 -27.4609375 20.125 C-22.02890055 16.02000791 -15.36242429 13.77410937 -9.0625 11.3125 C-9.3925 9.0025 -9.7225 6.6925 -10.0625 4.3125 C-11.81241334 4.28534617 -13.56244945 4.26603449 -15.3125 4.25 C-16.28703125 4.23839844 -17.2615625 4.22679687 -18.265625 4.21484375 C-20.72008678 4.30054423 -22.72418914 4.60543934 -25.0625 5.3125 C-25.0625 4.3225 -25.0625 3.3325 -25.0625 2.3125 C-17.05155582 -1.15839264 -8.19625662 -4.51630467 0 0 Z " fill="#F5F5F5" transform="translate(778.0625,693.6875)"/>
<path d="M0 0 C4.69427825 2.72923154 6.40503014 5.87930728 8 11 C8.6875 18.625 8.6875 18.625 7 22 C9.475 22.99 9.475 22.99 12 24 C10.79618552 26.49361571 9.54571278 28.68143083 8 31 C7.23300781 30.9896875 6.46601562 30.979375 5.67578125 30.96875 C2.11002281 31.01039389 0.92230943 32.26047102 -1.8125 34.5 C-6.48602128 38.07686963 -11.22056623 40.84221074 -16.5 43.4375 C-17.19456299 43.77910156 -17.88912598 44.12070312 -18.60473633 44.47265625 C-23.47376436 46.82499384 -27.15829285 48.15151993 -32.5625 48.1875 C-33.53316406 48.20167969 -34.50382813 48.21585937 -35.50390625 48.23046875 C-38 48 -38 48 -40 46 C-32.53863294 42.15329043 -24.86737579 38.8869943 -17.13671875 35.62304688 C-16.14800781 35.19958984 -15.15929687 34.77613281 -14.140625 34.33984375 C-12.80306152 33.77317993 -12.80306152 33.77317993 -11.43847656 33.19506836 C-9.03788898 32.01856894 -7.07643369 30.67449459 -5 29 C-5.68707031 28.69707031 -6.37414062 28.39414062 -7.08203125 28.08203125 C-14.38628159 24.68592058 -14.38628159 24.68592058 -17.125 21.625 C-18.28526363 18.1442091 -18.44855368 15.65250854 -18 12 C-14.26023735 4.80814874 -8.43644648 -0.8271026 0 0 Z " fill="#F3F2F2" transform="translate(631,407)"/>
<path d="M0 0 C0 7.26 0 14.52 0 22 C0.99 22.33 1.98 22.66 3 23 C2.01 23.33 1.02 23.66 0 24 C0.06899498 28.05736219 0.1570166 32.1138269 0.26245117 36.17041016 C0.29564193 37.54952667 0.32369217 38.92877711 0.34643555 40.30810547 C0.38008642 42.29422306 0.43394729 44.27996559 0.48828125 46.265625 C0.51446533 47.45961914 0.54064941 48.65361328 0.56762695 49.88378906 C1.02590002 53.18666731 1.7594998 54.58996253 4 57 C3.33613281 56.98839844 2.67226563 56.97679687 1.98828125 56.96484375 C1.10527344 56.95582031 0.22226562 56.94679688 -0.6875 56.9375 C-1.55761719 56.92589844 -2.42773438 56.91429687 -3.32421875 56.90234375 C-5.99119418 56.99967862 -8.39471655 57.44840519 -11 58 C-11.0154612 57.07038704 -11.0154612 57.07038704 -11.03123474 56.12199402 C-11.13926606 49.68205136 -11.25386691 43.24224957 -11.37231445 36.80249023 C-11.41567409 34.39789777 -11.4573484 31.99327431 -11.49731445 29.58862305 C-11.55499189 26.13580984 -11.61869385 22.68315281 -11.68359375 19.23046875 C-11.70030624 18.15226364 -11.71701874 17.07405853 -11.73423767 15.96318054 C-11.75418289 14.96236954 -11.77412811 13.96155853 -11.79467773 12.93041992 C-11.81022202 12.04883713 -11.8257663 11.16725433 -11.84178162 10.25895691 C-11.9174752 7.8322892 -11.9174752 7.8322892 -13 5 C-11.730447 4.35165346 -10.45930294 3.70642185 -9.1875 3.0625 C-8.47980469 2.70285156 -7.77210938 2.34320312 -7.04296875 1.97265625 C-4.66983249 0.84280744 -2.65322674 0 0 0 Z " fill="#FAFAFA" transform="translate(802,674)"/>
<path d="M0 0 C0.01030746 0.66985428 0.02061493 1.33970856 0.03123474 2.02986145 C0.13924336 8.98883946 0.25384605 15.9476865 0.37231445 22.90649414 C0.41568138 25.50509913 0.45735515 28.10373295 0.49731445 30.70239258 C0.55497423 34.43319392 0.61868129 38.16384994 0.68359375 41.89453125 C0.70030624 43.06023148 0.71701874 44.2259317 0.73423767 45.42695618 C0.75418289 46.50785019 0.77412811 47.5887442 0.79467773 48.70239258 C0.81022202 49.65503494 0.8257663 50.60767731 0.84178162 51.58918762 C0.90718078 54.14391198 0.90718078 54.14391198 2 57 C-1.10920609 58.55460305 -4.63083028 58.72720693 -8 58 C-10.58803052 55.17417665 -11.37697692 53.28354222 -11.41650391 49.47851562 C-11.44135361 48.1469342 -11.44135361 48.1469342 -11.46670532 46.78845215 C-11.46995819 45.83732544 -11.47321106 44.88619873 -11.4765625 43.90625 C-11.49214203 42.92257446 -11.50772156 41.93889893 -11.52377319 40.92541504 C-11.57128083 37.78361815 -11.59904462 34.64204259 -11.625 31.5 C-11.66152796 28.35811472 -11.70219898 25.21635373 -11.74765015 22.07458496 C-11.77480059 20.12031309 -11.79618476 18.16595073 -11.81118774 16.21154785 C-11.82144989 15.3238269 -11.83171204 14.43610596 -11.84228516 13.52148438 C-11.84878082 12.74301147 -11.85527649 11.96453857 -11.86196899 11.16247559 C-12.00024357 8.99618411 -12.40542098 7.08334032 -13 5 C-11.21046815 4.16209211 -9.41830305 3.32980604 -7.625 2.5 C-6.62726562 2.0359375 -5.62953125 1.571875 -4.6015625 1.09375 C-2 0 -2 0 0 0 Z " fill="#FBFBFB" transform="translate(568,608)"/>
<path d="M0 0 C0 2.97 0 5.94 0 9 C-0.763125 8.21625 -1.52625 7.4325 -2.3125 6.625 C-5.16120118 3.84254769 -6.90074034 2.16727864 -10.875 1.5625 C-15.02610555 2.14365478 -16.36573506 3.83888207 -19 7 C-20.45500399 9.91000797 -20.20897384 12.5089333 -20.25 15.75 C-20.27578125 16.96171875 -20.3015625 18.1734375 -20.328125 19.421875 C-19.97183627 23.30711873 -19.00484449 25.67993812 -17 29 C-14.02645943 31.42288491 -10.72889403 31.35291627 -6.96875 31.26171875 C-4.11071927 30.88178212 -2.24182784 29.7662886 0 28 C0.33 27.34 0.66 26.68 1 26 C1.66 26.33 2.32 26.66 3 27 C0.62302601 32.67832676 -2.43974443 36.21987222 -8 39 C-15.65385198 39.65298597 -21.87892649 39.94895305 -28 35 C-33.59926938 27.92723867 -33.89571063 20.80957745 -33 12 C-31.39785313 7.09195983 -28.39501843 3.90173685 -24.1875 1 C-17.37059476 -2.43728894 -7.14911901 -2.38303967 0 0 Z " fill="#F6F6F6" transform="translate(609,627)"/>
<path d="M0 0 C0 2.64 0 5.28 0 8 C3.63 8 7.26 8 11 8 C11 8.99 11 9.98 11 11 C7.37 11 3.74 11 0 11 C0.08080588 15.58405928 0.19365921 20.16678144 0.3125 24.75 C0.33505859 26.05195312 0.35761719 27.35390625 0.38085938 28.6953125 C0.41630859 29.94570313 0.45175781 31.19609375 0.48828125 32.484375 C0.51446533 33.63647461 0.54064941 34.78857422 0.56762695 35.97558594 C1.03468614 39.24262672 1.70125098 40.67030087 4 43 C6.0488648 43.48057715 6.0488648 43.48057715 8.1875 43.25 C9.445625 43.1675 10.70375 43.085 12 43 C12 43.66 12 44.32 12 45 C6.39044764 47.44780467 1.16145927 49.29097242 -5 48 C-7.75569447 45.81840855 -9.43588747 44.12822506 -11 41 C-11.14350996 38.6509491 -11.22662165 36.29810892 -11.28125 33.9453125 C-11.29965942 33.24735565 -11.31806885 32.5493988 -11.33703613 31.83029175 C-11.39582675 29.59528078 -11.4485997 27.36019241 -11.5 25.125 C-11.56781484 22.18994849 -11.6415524 19.25513045 -11.71875 16.3203125 C-11.74904297 15.01336426 -11.77933594 13.70641602 -11.81054688 12.35986328 C-11.96006829 9.70817036 -12.21310429 7.5159955 -13 5 C-11.02173314 4.16453285 -9.04236176 3.33168055 -7.0625 2.5 C-5.96035156 2.0359375 -4.85820313 1.571875 -3.72265625 1.09375 C-1 0 -1 0 0 0 Z " fill="#F9F9F9" transform="translate(588,684)"/>
<path d="M0 0 C0.33 2.97 0.66 5.94 1 9 C1.86625 7.6078125 1.86625 7.6078125 2.75 6.1875 C5.99447514 1.59116022 5.99447514 1.59116022 9 0 C12.25 -0.1875 12.25 -0.1875 15 0 C15 2.97 15 5.94 15 9 C13.618125 9.2475 12.23625 9.495 10.8125 9.75 C6.55231944 10.51301741 3.85987868 11.67771563 1 15 C0.35441545 18.53668057 0.48473901 21.98100828 0.625 25.5625 C0.63917969 26.52091797 0.65335938 27.47933594 0.66796875 28.46679688 C0.77248338 33.82037932 0.77248338 33.82037932 2 39 C-2.62 39 -7.24 39 -12 39 C-11.98839844 36.79699219 -11.97679687 34.59398437 -11.96484375 32.32421875 C-11.95704401 30.18953597 -11.95097247 28.05485478 -11.94506836 25.92016602 C-11.94004097 24.43708587 -11.93321815 22.95401067 -11.92456055 21.47094727 C-11.91242518 19.33869199 -11.90675575 17.20650227 -11.90234375 15.07421875 C-11.89710693 13.79119873 -11.89187012 12.50817871 -11.88647461 11.1862793 C-11.85072824 7.9774026 -11.85072824 7.9774026 -13 5 C-11.21046815 4.16209211 -9.41830305 3.32980604 -7.625 2.5 C-6.62726562 2.0359375 -5.62953125 1.571875 -4.6015625 1.09375 C-2 0 -2 0 0 0 Z " fill="#F9F9F9" transform="translate(733,692)"/>
<path d="M0 0 C-0.40625 2.75390625 -0.40625 2.75390625 -2 6 C-4.95162068 7.86300328 -8.20083129 8.84117612 -11.5 9.9375 C-12.51795654 10.29666504 -13.53591309 10.65583008 -14.5847168 11.02587891 C-16.96529972 11.8648765 -19.34932847 12.69413062 -21.73583984 13.51611328 C-26.69231381 15.23006177 -31.6204169 17.02121663 -36.55078125 18.80859375 C-40.3041976 20.16542116 -44.05823915 21.5205112 -47.8125 22.875 C-48.72773438 23.20555389 -49.64296875 23.53610779 -50.5859375 23.87667847 C-69.79681246 30.79886348 -69.79681246 30.79886348 -79 33 C-78.67 30.69 -78.34 28.38 -78 26 C-70.3656978 22.85205766 -62.63336697 20.0548541 -54.8359375 17.33984375 C-52.95320355 16.6809969 -51.0704699 16.02214919 -49.18775368 15.36325169 C-46.57785013 14.45047097 -43.96724111 13.53971741 -41.35662842 12.62896729 C-36.77907748 11.03168159 -32.20244985 9.43175441 -27.62612915 7.83094788 C-25.1979269 6.98178578 -22.76937548 6.13362127 -20.34042358 5.28660583 C-18.67797104 4.70568932 -18.67797104 4.70568932 -16.98193359 4.11303711 C-15.43031525 3.5724617 -15.43031525 3.5724617 -13.84735107 3.02096558 C-11.33271975 2.11930226 -8.85953562 1.15055796 -6.38134766 0.15454102 C-3 -1 -3 -1 0 0 Z " fill="#F3F3F3" transform="translate(372,349)"/>
<path d="M0 0 C2.81482277 0.9148174 3.80984111 1.3979873 5.5 3.8125 C8.19501834 11.79847347 9.44807788 22.03118186 6.1875 30.0625 C3.43576642 34.54680657 3.43576642 34.54680657 1.5 35.8125 C-0.875 36.375 -0.875 36.375 -3.5 35.8125 C-9.27768759 30.16612349 -9.65727159 25.49834783 -9.8125 17.5 C-9.84671234 11.24522359 -9.07030693 7.01494724 -5.5 1.8125 C-2.5 -0.1875 -2.5 -0.1875 0 0 Z " fill="#2D2C2A" transform="translate(636.5,628.1875)"/>
<path d="M0 0 C5.23332751 5.52406792 5.20867155 9.42919081 5.25 16.6875 C5.270625 17.57373047 5.29125 18.45996094 5.3125 19.37304688 C5.34596582 25.0245872 4.74524506 29.02257752 2 34 C-0.87470493 35.43735246 -2.81894588 35.38172649 -6 35 C-10.46785342 30.77365217 -10.88083464 26.98087997 -11.23828125 21.0390625 C-11.2686027 19.56781278 -11.2932067 18.09643566 -11.3125 16.625 C-11.34150391 15.89539063 -11.37050781 15.16578125 -11.40039062 14.4140625 C-11.46534257 8.81820277 -10.20424754 5.60127569 -7 1 C-4.37869511 -0.31065245 -2.90828303 -0.415469 0 0 Z " fill="#282725" transform="translate(625,694)"/>
<path d="M0 0 C0.33 0.99 0.66 1.98 1 3 C1.99 3.33 2.98 3.66 4 4 C3.67 4.66 3.34 5.32 3 6 C2.34 6 1.68 6 1 6 C1.33 17.22 1.66 28.44 2 40 C-2.95 40 -7.9 40 -13 40 C-12.67 38.68 -12.34 37.36 -12 36 C-11.90718975 33.86483884 -11.8693151 31.72702002 -11.8671875 29.58984375 C-11.86589844 28.35298828 -11.86460937 27.11613281 -11.86328125 25.84179688 C-11.86714844 24.55337891 -11.87101563 23.26496094 -11.875 21.9375 C-11.87113281 20.64521484 -11.86726562 19.35292969 -11.86328125 18.02148438 C-11.86521484 16.16813477 -11.86521484 16.16813477 -11.8671875 14.27734375 C-11.86831543 13.14546631 -11.86944336 12.01358887 -11.87060547 10.84741211 C-11.87369913 7.92417708 -11.87369913 7.92417708 -13 5 C-11.21046815 4.16209211 -9.41830305 3.32980604 -7.625 2.5 C-6.62726562 2.0359375 -5.62953125 1.571875 -4.6015625 1.09375 C-2 0 -2 0 0 0 Z " fill="#F2F2F2" transform="translate(674,626)"/>
<path d="M0 0 C2.25582781 3.64666955 2.51925564 7.33627796 2.8515625 11.51171875 C2.94719986 12.60320976 2.94719986 12.60320976 3.04476929 13.7167511 C3.17792202 15.25541747 3.30711689 16.7944308 3.43261719 18.33374023 C3.62298357 20.66282949 3.82602084 22.99053772 4.03125 25.31835938 C4.39711644 29.54313752 4.70875506 33.76941153 5 38 C5.07299316 38.93432861 5.14598633 39.86865723 5.22119141 40.83129883 C5.48102831 46.40474104 4.06472924 49.78084126 1.125 54.3125 C0.39784632 55.49573064 -0.32873257 56.67931475 -1.0546875 57.86328125 C-1.69664062 58.89839844 -2.33859375 59.93351563 -3 61 C-3.68909088 62.3218835 -4.36436781 63.65159578 -5 65 C-5.495 65.99 -5.495 65.99 -6 67 C-8.06640625 67.6328125 -8.06640625 67.6328125 -10.5625 68.125 C-11.38878906 68.29257812 -12.21507812 68.46015625 -13.06640625 68.6328125 C-13.70449219 68.75398437 -14.34257813 68.87515625 -15 69 C-15 65.66109482 -14.48512569 64.92084559 -12.75 62.1875 C-7.42264084 52.83435238 -5.76852344 42.97624088 -5.2734375 32.35546875 C-4.93128565 28.15677682 -3.88585125 24.35568564 -2.765625 20.30859375 C-1.22340293 13.64399124 -0.68459484 6.79762403 0 0 Z " fill="#F0F0F0" transform="translate(639,481)"/>
<path d="M0 0 C1 1 1 1 1.11352539 2.94946289 C1.10828857 3.7821167 1.10305176 4.61477051 1.09765625 5.47265625 C1.09443359 6.37177734 1.09121094 7.27089844 1.08789062 8.19726562 C1.07951172 9.14279297 1.07113281 10.08832031 1.0625 11.0625 C1.05798828 12.01189453 1.05347656 12.96128906 1.04882812 13.93945312 C1.0370011 16.29303065 1.02052025 18.64648477 1 21 C-0.40818643 21.66195345 -1.82046496 22.31520554 -3.234375 22.96484375 C-4.02038086 23.32956787 -4.80638672 23.69429199 -5.61621094 24.07006836 C-9.44939647 25.56541901 -11.90624188 25.61406372 -16 25 C-19.58637603 22.10037683 -21.69313857 19.88500591 -22.4375 15.3125 C-21.79131931 10.41998906 -19.87469124 8.00322089 -16 5 C-3.33038674 -1.66519337 -3.33038674 -1.66519337 0 0 Z " fill="#F4F4F4" transform="translate(769,707)"/>
<path d="M0 0 C0.16722049 5.53571863 0.32781942 11.07157377 0.48217773 16.60766602 C0.5356766 18.49248476 0.5910118 20.37725228 0.64819336 22.26196289 C0.7298851 24.96489411 0.8050554 27.66793839 0.87890625 30.37109375 C0.90594131 31.21900986 0.93297638 32.06692596 0.96083069 32.9405365 C1.01280526 34.95973106 1.01188213 36.98017158 1 39 C-0.87264676 40.87264676 -3.49759947 40.23607378 -5.9921875 40.328125 C-8.67904435 39.88902777 -9.36849078 39.1746838 -11 37 C-11.41650391 34.15258789 -11.41650391 34.15258789 -11.4765625 30.72265625 C-11.52296875 28.86930664 -11.52296875 28.86930664 -11.5703125 26.97851562 C-11.58835937 25.68623047 -11.60640625 24.39394531 -11.625 23.0625 C-11.67604266 20.51164321 -11.73057857 17.96085328 -11.7890625 15.41015625 C-11.81540771 13.71064819 -11.81540771 13.71064819 -11.84228516 11.97680664 C-11.97488669 9.47400407 -12.27405319 7.38499377 -13 5 C-11.730447 4.35165346 -10.45930294 3.70642185 -9.1875 3.0625 C-8.47980469 2.70285156 -7.77210938 2.34320312 -7.04296875 1.97265625 C-4.66983249 0.84280744 -2.65322674 0 0 0 Z " fill="#F6F6F6" transform="translate(847,692)"/>
<path d="M0 0 C0.3125 2.3125 0.3125 2.3125 0 5 C-3.97869179 7.91201451 -8.50247345 9.44613848 -13.09765625 11.109375 C-13.88093292 11.39736969 -14.66420959 11.68536438 -15.47122192 11.98208618 C-17.99973899 12.91003941 -20.53094686 13.83036517 -23.0625 14.75 C-24.79280876 15.38209392 -26.5230333 16.01441843 -28.25317383 16.64697266 C-33.16555356 18.44027198 -38.08204517 20.2220559 -43 22 C-44.21848633 22.44118164 -45.43697266 22.88236328 -46.69238281 23.33691406 C-49.52138319 24.35745299 -52.35300504 25.36984046 -55.1875 26.375 C-56.35841187 26.79410645 -56.35841187 26.79410645 -57.55297852 27.22167969 C-60.50474768 28.25341893 -62.84802085 29 -66 29 C-66.25 26.6875 -66.25 26.6875 -66 24 C-62.66800774 20.73490447 -58.40356215 19.56892 -54.0703125 18.14453125 C-52.90140976 17.75000259 -52.90140976 17.75000259 -51.70889282 17.34750366 C-49.18304036 16.49606843 -46.65405359 15.65437327 -44.125 14.8125 C-40.67324383 13.65208831 -37.22325927 12.48646066 -33.7734375 11.3203125 C-32.92640259 11.03465927 -32.07936768 10.74900604 -31.20666504 10.45469666 C-23.44507038 7.8300263 -15.74459791 5.05671939 -8.07080078 2.18481445 C-2.19399081 0 -2.19399081 0 0 0 Z " fill="#F2F2F2" transform="translate(770,568)"/>
<path d="M0 0 C4.50509887 5.08267565 4.59745758 10.12516467 4.3984375 16.76171875 C3.72168588 22.26198438 1.94722805 27.05277195 -2 31 C-5 31.25 -5 31.25 -8 31 C-10 29 -10 29 -10.22705078 26.11083984 C-10.21657715 24.90637207 -10.20610352 23.7019043 -10.1953125 22.4609375 C-10.18564453 20.50800781 -10.18564453 20.50800781 -10.17578125 18.515625 C-10.15906929 17.13541405 -10.14213939 15.75520571 -10.125 14.375 C-10.11497006 12.98698548 -10.10584423 11.59896411 -10.09765625 10.2109375 C-10.07401863 6.80711974 -10.04106867 3.40364494 -10 0 C-6.10429741 -1.29856753 -3.95508409 -1.11019904 0 0 Z " fill="#2A2927" transform="translate(812,698)"/>
<path d="M0 0 C3.34092784 2.67664979 4.25715705 5.90573793 5.625 9.875 C6.05039062 11.08929687 6.47578125 12.30359375 6.9140625 13.5546875 C8 17 8 17 9 22 C2.73 22 -3.54 22 -10 22 C-10 27.61 -10 33.22 -10 39 C-13.3 39 -16.6 39 -20 39 C-19.03956839 32.8196118 -16.19448817 27.39360569 -13.59008789 21.76977539 C-12.68811871 19.81384169 -11.80581241 17.84977655 -10.92382812 15.88476562 C-10.35014418 14.63747473 -9.77531315 13.39071065 -9.19921875 12.14453125 C-8.68190186 11.01378174 -8.16458496 9.88303223 -7.6315918 8.71801758 C-5.90737229 5.8456944 -5.01731474 5.2029253 -2 4 C-0.73195434 1.9664052 -0.73195434 1.9664052 0 0 Z " fill="#EFEFEF" transform="translate(685,692)"/>
<path d="M0 0 C0.66 0.33 1.32 0.66 2 1 C1.2575 1.721875 0.515 2.44375 -0.25 3.1875 C-5.22117813 7.90600544 -5.22117813 7.90600544 -7.4375 14.125 C-7.17480454 16.92247444 -7.17480454 16.92247444 -6 18.875 C-2.74686316 20.70488947 0.31390109 20.18128355 4 20 C3.67 20.99 3.34 21.98 3 23 C-2.54480187 25.6264851 -6.88691121 26.70150199 -13 26 C-16.44312714 23.8755173 -17.71617547 22.85147359 -19 19 C-19.375 15.625 -19.375 15.625 -19 12 C-15.47723317 7.78064086 -11.6675019 5.45864773 -6.8125 3.125 C-6.18408203 2.8053125 -5.55566406 2.485625 -4.90820312 2.15625 C-3.30476261 1.36739157 -1.65450676 0.67522329 0 0 Z " fill="#F6F6F5" transform="translate(872,706)"/>
<path d="M0 0 C2.875 0.5625 2.875 0.5625 4.75 1.5625 C6.56384883 4.78712014 6.36307386 8.00653334 5.875 11.5625 C4.15318612 16.29748817 1.14571658 17.78694831 -3.1875 19.86328125 C-5.125 20.5625 -5.125 20.5625 -8.125 20.5625 C-8.98470074 6.61624347 -8.98470074 6.61624347 -6 2.6875 C-3.125 0.5625 -3.125 0.5625 0 0 Z " fill="#292826" transform="translate(750.125,628.4375)"/>
<path d="M0 0 C1.875 1 1.875 1 3 3 C3.40049607 7.1384594 3.41335734 9.86326731 2 13.75 C-0.79448276 16.89379311 -4.06091526 18.57843514 -8 20 C-8.99 20 -9.98 20 -11 20 C-11.0814222 17.77144426 -11.13938079 15.54202345 -11.1875 13.3125 C-11.22230469 12.07113281 -11.25710938 10.82976563 -11.29296875 9.55078125 C-10.98212299 5.78333068 -10.2772857 3.97205083 -8 1 C-5.20129973 -0.39935013 -3.09501208 -0.25265405 0 0 Z " fill="#2A2927" transform="translate(536,629)"/>
<path d="M0 0 C3.89233071 1.45962401 6.13395568 3.46815508 8 7.125 C8.66523699 10.12834937 8.92491597 13.05338054 9 16.125 C2.96299404 15.08460895 -2.04822278 13.83883292 -7 10.125 C-7.9375 6.875 -7.9375 6.875 -8 4.125 C-5.28553522 1.49037242 -3.84842754 0.16035115 0 0 Z " fill="#2E2D2B" transform="translate(625,412.875)"/>
<path d="M0 0 C0 5.94 0 11.88 0 18 C-2.84083641 19.42041821 -4.85477278 19.31452272 -8 19 C-10.98265738 16.95923443 -11.84064869 15.71708089 -12.625 12.1875 C-11.73518842 7.64946096 -9.41301682 5.03646332 -6 2 C-2.08695652 0 -2.08695652 0 0 0 Z " fill="#2C2B29" transform="translate(876,708)"/>
<path d="M0 0 C0 5.94 0 11.88 0 18 C-8 19 -8 19 -10.5 17.4375 C-12.49790604 14.19090268 -12.73760666 12.76179399 -12 9 C-9.32304847 4.74000073 -5.51930637 0 0 0 Z " fill="#2A2927" transform="translate(770,708)"/>
<path d="M0 0 C3.39542799 2.69841931 4.30532 6.04878211 5.6875 10.0625 C5.91244141 10.69994141 6.13738281 11.33738281 6.36914062 11.99414062 C8 16.69835201 8 16.69835201 8 19 C2.72 19 -2.56 19 -8 19 C-6.49073103 14.47219308 -4.89033388 10.41853739 -2.875 6.125 C-2.33617187 4.97257813 -1.79734375 3.82015625 -1.2421875 2.6328125 C-0.62730469 1.32957031 -0.62730469 1.32957031 0 0 Z " fill="#2C2B29" transform="translate(685,692)"/>
<path d="M0 0 C3.3 0 6.6 0 10 0 C9.04160932 3.68223788 8.04461274 7.3417745 7 11 C6.81775879 11.64179199 6.63551758 12.28358398 6.44775391 12.94482422 C5.86168679 14.97035444 5.24694666 16.98522597 4.625 19 C4.24601562 20.258125 3.86703125 21.51625 3.4765625 22.8125 C1.81679559 26.39548889 0.53842623 27.3905486 -3 29 C-2.52188823 27.22888156 -2.0424722 25.45811517 -1.5625 23.6875 C-1.29566406 22.70136719 -1.02882813 21.71523438 -0.75390625 20.69921875 C-0.21920575 18.78482474 0.37144538 16.88566385 1 15 C1.29098034 9.95063533 1.31036161 4.91385603 0 0 Z " fill="#EEEEEE" transform="translate(505,612)"/>
<path d="M0 0 C1.17825358 0.90172468 2.34231577 1.82201502 3.5 2.75 C4.1496875 3.26046875 4.799375 3.7709375 5.46875 4.296875 C7 6 7 6 7 10 C4.89768404 12.3382902 2.48516737 14.04736849 0 16 C-2.31 13.69 -4.62 11.38 -7 9 C-5.04783565 5.09567131 -3.12613393 2.96160056 0 0 Z " fill="#F6F6F6" transform="translate(840,672)"/>
<path d="M0 0 C0.99 0 1.98 0 3 0 C3.05534912 0.84183838 3.11069824 1.68367676 3.16772461 2.55102539 C3.37621639 5.70270086 3.58710168 8.85420489 3.79956055 12.00561523 C3.89067549 13.3642761 3.9808625 14.72299956 4.07006836 16.08178711 C4.19916062 18.04557606 4.33197283 20.00911934 4.46484375 21.97265625 C4.543396 23.15093994 4.62194824 24.32922363 4.70288086 25.54321289 C5.00475212 29.05528786 5.46891572 32.51585367 6 36 C5.34 36 4.68 36 4 36 C2.71457549 28.37481189 1.74436902 20.81689876 1.21875 13.1015625 C0.91000961 8.72406481 0.46294334 4.36348725 0 0 Z " fill="#747472" transform="translate(577,503)"/>
<path d="M0 0 C0.66 0.33 1.32 0.66 2 1 C0.02 5.29 -1.96 9.58 -4 14 C1.28 14 6.56 14 12 14 C12 14.33 12 14.66 12 15 C9.20826945 15.02690104 6.41679652 15.04679053 3.625 15.0625 C2.43390625 15.07506836 2.43390625 15.07506836 1.21875 15.08789062 C-4.7734375 15.11328125 -4.7734375 15.11328125 -7 14 C-5.58078953 9.5240285 -3.99799416 5.24573759 -2 1 C-1.34 0.67 -0.68 0.34 0 0 Z " fill="#E4E4E4" transform="translate(681,697)"/>
<path d="M0 0 C1 3 1 3 -0.4375 6.1875 C-1.2109375 7.5796875 -1.2109375 7.5796875 -2 9 C-2.99 9 -3.98 9 -5 9 C-4.42647107 5.12867972 -2.51295648 2.91827204 0 0 Z M-7 9 C-6.34 9.33 -5.68 9.66 -5 10 C-8.63 13.63 -12.26 17.26 -16 21 C-16 18 -16 18 -14.03125 15.73828125 C-12.77828125 14.53751953 -12.77828125 14.53751953 -11.5 13.3125 C-10.6646875 12.50425781 -9.829375 11.69601562 -8.96875 10.86328125 C-8.3190625 10.24839844 -7.669375 9.63351562 -7 9 Z " fill="#F3F2F2" transform="translate(443,497)"/>
<path d="M0 0 C3.95790668 7.91581336 3.15147321 17.29870533 3 26 C2.67 26 2.34 26 2 26 C1.67 23.03 1.34 20.06 1 17 C0.34 17 -0.32 17 -1 17 C-0.67 11.39 -0.34 5.78 0 0 Z " fill="#C0C0BF" transform="translate(639,481)"/>
<path d="M0 0 C0.99 0 1.98 0 3 0 C3.1953125 6.0546875 3.1953125 6.0546875 3 8 C2.34 8.66 1.68 9.32 1 10 C0.67 6.7 0.34 3.4 0 0 Z " fill="#959493" transform="translate(577,503)"/>
<path d="M0 0 C-1.0197307 3.77300358 -1.65872662 4.80206144 -5.125 6.8125 C-6.07375 7.204375 -7.0225 7.59625 -8 8 C-6.48291727 4.46014029 -4.24676932 0 0 0 Z " fill="#E0E0E0" transform="translate(217,494)"/>
<path d="M0 0 C-2.17424117 2.50037734 -3.73045798 3.43628586 -7 4 C-7 3.01 -7 2.02 -7 1 C-3.375 -1.125 -3.375 -1.125 0 0 Z " fill="#EDEDED" transform="translate(866,695)"/>
<path d="M0 0 C-2.17424117 2.50037734 -3.73045798 3.43628586 -7 4 C-7 3.01 -7 2.02 -7 1 C-3.375 -1.125 -3.375 -1.125 0 0 Z " fill="#ECECEC" transform="translate(760,695)"/>
<path d="M0 0 C0.33 0.99 0.66 1.98 1 3 C-0.78346291 6.03188696 -1.59575156 6.86525052 -5 8 C-3.62845496 5.04590299 -2.01136276 2.55991624 0 0 Z " fill="#E9E9E9" transform="translate(443,497)"/>
</svg>
