<?xml version="1.0" encoding="UTF-8"?>
<svg version="1.1" xmlns="http://www.w3.org/2000/svg" width="1080" height="1080">
<path d="M0 0 C0.03023613 51.50243313 0.05058541 103.00486769 0.06185675 154.50730848 C0.06249809 157.42879836 0.0631569 160.35028823 0.06381607 163.27177811 C0.10615512 353.92960974 0.10615512 353.92960974 -0.5 441.5 C-0.50597372 442.36701585 -0.51194743 443.23403171 -0.51810217 444.12732077 C-0.55913617 450.06722851 -0.60121384 456.00712818 -0.64428711 461.94702148 C-0.64960862 462.68139753 -0.65493014 463.41577358 -0.66041291 464.17240345 C-0.75986412 477.78173465 -0.88165915 491.39080202 -1 505 C-20.8 505 -40.6 505 -61 505 C-61 342.97 -61 180.94 -61 14 C-52.42 13.67 -43.84 13.34 -35 13 C-24.78227372 11.47496623 -8.40533012 0 0 0 Z " fill="#F1C126" transform="translate(772,209)"/>
<path d="M0 0 C6.82091365 6.40245269 11.67157614 13.68133126 16.359375 21.703125 C16.72143067 22.2458842 17.08348635 22.7886434 17.4565134 23.34784985 C18.8504115 26.98408109 18.63587351 30.64810955 18.61766052 34.48908997 C18.62133623 35.38595022 18.62501193 36.28281048 18.62879902 37.20684832 C18.63879594 40.21844142 18.63462482 43.22985048 18.63061523 46.24145508 C18.63500134 48.39814959 18.64030307 50.5548424 18.64645386 52.71153259 C18.65796447 57.35942941 18.66341406 62.00728058 18.66433525 66.65519142 C18.66627363 74.00435673 18.68431437 81.35342746 18.70509338 88.70256042 C18.75431539 106.95900886 18.78516771 125.21548304 18.80639648 143.47198486 C18.82291443 157.65468049 18.84571844 171.83729528 18.88941723 186.01993674 C18.91120903 193.3255263 18.91924995 200.63096237 18.91702449 207.93658221 C18.91869101 212.48317593 18.93273846 217.02966944 18.95023727 221.57622719 C18.95583764 223.6841204 18.95632123 225.79203438 18.95129967 227.89992905 C18.94516046 230.77891836 18.95738642 233.65727484 18.97410583 236.53620911 C18.96789402 237.36909936 18.9616822 238.20198962 18.95528215 239.06011897 C19.0109611 244.32672571 19.84682121 248.04164096 22.359375 252.703125 C30.08389081 257.27220135 40.71744607 254.71248979 49.01513672 252.82299805 C55.61146975 251.03982804 59.56683157 247.90058297 64.58203125 243.25 C69.55805973 238.6868909 75.55675983 233.9783734 82.296875 232.515625 C85.359375 232.703125 85.359375 232.703125 87.796875 234.203125 C90.09955589 237.88741442 90.26266103 239.39514547 89.359375 243.703125 C77.07619831 261.22637249 57.52511642 268.59660506 37.359375 272.703125 C16.18744289 276.18739475 -9.17971173 275.93442968 -27.640625 263.703125 C-35.27830408 257.95532744 -41.50300665 251.42486728 -45.640625 242.703125 C-46.16143867 241.66259712 -46.16143867 241.66259712 -46.69277382 240.60104847 C-47.95515401 236.74149618 -47.91526672 233.06253195 -47.8921814 229.04728699 C-47.89515154 228.17634016 -47.89812167 227.30539333 -47.90118182 226.40805417 C-47.90881998 223.48966125 -47.9023283 220.5714697 -47.89599609 217.65307617 C-47.89874624 215.5600979 -47.90242629 213.46712066 -47.90696716 211.37414551 C-47.91508192 206.86488117 -47.91724682 202.35566642 -47.91501999 197.84639549 C-47.91218542 190.70471022 -47.92654661 183.56312377 -47.94400024 176.42146301 C-47.99100619 156.11212666 -48.01494985 135.80279653 -48.02148438 115.4934082 C-48.02524526 104.27797728 -48.04336109 93.06265778 -48.07657874 81.8472746 C-48.09671153 74.7607363 -48.09920208 67.67448704 -48.08829856 60.58793199 C-48.08567509 56.15778238 -48.09977583 51.72779786 -48.11837959 47.29769135 C-48.1236631 45.25807869 -48.12227139 43.21843488 -48.11334419 41.17883492 C-48.03839637 22.53676532 -49.8314567 4.00140574 -63.30078125 -10.1953125 C-76.52994749 -22.07726815 -93.09200822 -24.24786389 -110.14355469 -23.43847656 C-134.22750356 -22.07274618 -155.43980198 -16.57499034 -172.9453125 1.01953125 C-175.419945 3.80734338 -177.57152702 6.59947802 -179.640625 9.703125 C-181.97558594 10.3190918 -181.97558594 10.3190918 -184.875 10.65234375 C-185.92429687 10.77802734 -186.97359375 10.90371094 -188.0546875 11.03320312 C-189.15554688 11.15115234 -190.25640625 11.26910156 -191.390625 11.390625 C-192.47601563 11.52017578 -193.56140625 11.64972656 -194.6796875 11.78320312 C-199.70221124 12.36343356 -204.57941807 12.76912853 -209.640625 12.703125 C-199.47146708 -7.63519083 -177.93382355 -21.24836861 -156.98413086 -28.26782227 C-148.32948994 -31.05491002 -139.61708625 -32.90010247 -130.640625 -34.296875 C-129.79628906 -34.42964844 -128.95195312 -34.56242187 -128.08203125 -34.69921875 C-84.56682954 -40.20460822 -33.5302399 -29.1653566 0 0 Z " fill="#F1C123" transform="translate(596.640625,449.296875)"/>
<path d="M0 0 C2.09008968 14.03069464 -2.56418295 21.24241812 -10.33642578 32.49072266 C-38.91371511 75.5957094 -47.60141649 132.37030499 -38.31640625 182.73046875 C-31.96746625 213.92944252 -21.06157405 247.12541318 -1.40698242 272.63305664 C1.30880302 277.20177776 1.1201539 282.18614886 1.0625 287.375 C1.05347656 288.43460938 1.04445313 289.49421875 1.03515625 290.5859375 C1.02355469 291.38257813 1.01195312 292.17921875 1 293 C-4.54376828 293.34335597 -8.60134878 292.31331816 -13.5625 290 C-14.25504883 289.68530762 -14.94759766 289.37061523 -15.66113281 289.04638672 C-31.52269548 281.69475875 -45.29136945 272.01282791 -58 260 C-58.81082031 259.25363281 -59.62164062 258.50726562 -60.45703125 257.73828125 C-88.74657824 230.78524829 -101.89468186 190.65924391 -103.18359375 152.328125 C-104.0890878 108.81913607 -92.15367967 67.95232021 -62 36 C-61.32710937 35.26265625 -60.65421875 34.5253125 -59.9609375 33.765625 C-46.45906426 19.50521956 -20.49222621 0 0 0 Z " fill="#F1C126" transform="translate(161,422)"/>
<path d="M0 0 C29.23344988 4.69823302 57.43243105 27.0541682 74.75 50.1875 C100.21343686 85.68873783 108.00522294 133.31271112 101 176 C95.17813219 207.01118799 82.78999738 233.94789033 61 257 C60.25363281 257.81082031 59.50726562 258.62164063 58.73828125 259.45703125 C45.87628365 272.95681385 21.61515139 292.3903995 2.09765625 293.15234375 C1.07542969 293.10207031 0.05320312 293.05179688 -1 293 C-1.05479286 291.1461748 -1.09314594 289.2918612 -1.125 287.4375 C-1.14820313 286.40496094 -1.17140625 285.37242187 -1.1953125 284.30859375 C-0.83302693 278.17147622 0.99860859 273.57171031 4.375 268.5 C34.98670082 220.53278324 49.55607162 159.90775468 38.265625 103.52734375 C36.27736523 94.55019309 33.87378868 85.73330799 31 77 C30.77086914 76.30148926 30.54173828 75.60297852 30.30566406 74.88330078 C23.74089118 55.32713774 14.35085921 35.38594166 1.6953125 19.01953125 C-0.52972238 15.05650829 -0.45920223 12.07457055 -0.25 7.625 C-0.23195313 6.88894531 -0.21390625 6.15289062 -0.1953125 5.39453125 C-0.14859176 3.59578264 -0.07686183 1.79771289 0 0 Z " fill="#F1C126" transform="translate(919,422)"/>
<path d="M0 0 C8.02781263 5.12923036 13.67295857 11.90611373 15.8125 21.3125 C16.98580983 32.52547124 15.78850706 41.64846986 8.6875 50.5625 C0.21742567 59.50213069 -10.46699131 63.36777699 -22.5625 63.75 C-33.90279784 63.47563796 -43.01391067 60.29148006 -51.1875 52.3125 C-58.11198176 44.59838435 -61.15816195 36.68350088 -61.1875 26.3125 C-60.50050283 17.30686323 -55.88515626 9.49262427 -49.3125 3.4375 C-34.9333881 -8.20273344 -15.95016837 -8.78935704 0 0 Z " fill="#F1C126" transform="translate(312.1875,452.6875)"/>
<path d="M0 0 C2.97 0 5.94 0 9 0 C9.33 8.25 9.66 16.5 10 25 C11.98 23.68 13.96 22.36 16 21 C21.6442951 18.81511157 27.68435021 19.69416885 33.14453125 21.96484375 C37.99911432 24.67319009 40.77027047 29.4358114 42.4921875 34.6015625 C44.3389379 43.32390671 43.63660567 51.3575948 39 59 C36.23652761 63.23732434 33.8258106 65.39139647 29 67 C22.24646011 67.6209174 16.68056893 68.09320433 11 64 C10.34 63.34 9.68 62.68 9 62 C8.67 63.32 8.34 64.64 8 66 C5.36 66 2.72 66 0 66 C0 44.22 0 22.44 0 0 Z M11 33 C8.66762084 36.55448194 8.70091432 39.7477616 8.6875 43.9375 C8.67074219 45.14277344 8.65398438 46.34804688 8.63671875 47.58984375 C9.1079055 52.01291938 10.68360626 54.36359894 13.4140625 57.7578125 C16.47202067 60.15296201 20.23138381 60.10634543 24 60 C28.17624694 58.32950123 30.48421932 55.68382172 33 52 C35.10510418 46.9126649 34.50412161 40.87265074 32.8125 35.75 C31.22399816 32.03129522 29.67699872 29.91843411 26 28 C19.29237531 26.69815048 15.59049962 28.07361017 11 33 Z " fill="#EFC025" transform="translate(639,784)"/>
<path d="M0 0 C3.63 0 7.26 0 11 0 C14.96 10.56 18.92 21.12 23 32 C26.63 21.44 30.26 10.88 34 0 C37.3 0 40.6 0 44 0 C40.1536038 11.51293333 35.97039119 22.86363475 31.4375 34.125 C30.99108154 35.24946533 30.54466309 36.37393066 30.0847168 37.5324707 C20.82292819 60.28069379 20.82292819 60.28069379 9.93359375 64.87109375 C8 65.4375 8 65.4375 5 66 C4.34 63.36 3.68 60.72 3 58 C3.60328125 57.63648438 4.2065625 57.27296875 4.828125 56.8984375 C9.64690175 53.86727148 13.59427341 51.35820923 16 46 C15.62475629 40.20833235 13.78529122 35.34618018 11.62109375 30.0390625 C11.12380516 28.7923024 11.12380516 28.7923024 10.61647034 27.52035522 C9.56403175 24.88560969 8.50119494 22.25521874 7.4375 19.625 C6.37234785 16.97255759 5.3093475 14.31926893 4.24781799 11.66537476 C3.58822569 10.01836828 2.92612861 8.37236235 2.26133728 6.72744751 C0 1.10904065 0 1.10904065 0 0 Z " fill="#EFBF25" transform="translate(443,805)"/>
<path d="M0 0 C3.3 0 6.6 0 10 0 C13.09835073 6.74798458 15.75179892 13.57216327 18.25 20.5625 C18.61351562 21.57119141 18.97703125 22.57988281 19.3515625 23.61914062 C20.23735287 26.07837443 21.1201014 28.53865338 22 31 C24.05147209 27.92279186 24.99021466 25.34191567 26.12890625 21.8359375 C26.52400391 20.63195312 26.91910156 19.42796875 27.32617188 18.1875 C27.73866137 16.91679 28.15076621 15.64595507 28.5625 14.375 C29.37269726 11.88159977 30.1872791 9.38975174 31.00390625 6.8984375 C31.36299072 5.79161621 31.7220752 4.68479492 32.09204102 3.54443359 C33 1 33 1 34 0 C35.51928038 -0.07179964 37.04167482 -0.08392007 38.5625 -0.0625 C39.38878906 -0.05347656 40.21507812 -0.04445313 41.06640625 -0.03515625 C41.70449219 -0.02355469 42.34257813 -0.01195312 43 0 C42.36251068 5.18126351 40.77518096 9.62711747 38.8671875 14.44140625 C38.55226349 15.24553452 38.23733948 16.04966278 37.91287231 16.87815857 C37.2450324 18.57790813 36.57413964 20.27646098 35.90039062 21.97387695 C34.88938643 24.52618112 33.89333254 27.08395903 32.8984375 29.64257812 C21.29390563 59.2034939 21.29390563 59.2034939 10.78125 64.015625 C8.88134023 64.75150554 6.9428711 65.38646176 5 66 C4.34 63.36 3.68 60.72 3 58 C3.60328125 57.63648438 4.2065625 57.27296875 4.828125 56.8984375 C9.65282113 53.863548 13.55020623 51.3450046 16 46 C15.59117635 40.68873637 13.60656336 36.0531552 11.62109375 31.171875 C11.28956802 30.34165833 10.9580423 29.51144165 10.61647034 28.65606689 C9.56245858 26.01840717 8.50058814 23.38401326 7.4375 20.75 C6.37175335 18.10135909 5.30776453 15.45205402 4.24781799 12.80108643 C3.58925545 11.15474527 2.92719444 9.50979846 2.26133728 7.86639404 C0 2.2239936 0 2.2239936 0 0 Z " fill="#EEBF25" transform="translate(894,805)"/>
<path d="M0 0 C4.78299239 3.80465304 6.41216197 7.23364083 8 13 C8 16.3 8 19.6 8 23 C-2.23 23 -12.46 23 -23 23 C-20.96896279 31.32917961 -20.96896279 31.32917961 -18 34 C-11.34571652 37.32714174 -3.11096058 36.53750499 4 35 C4.495 38.465 4.495 38.465 5 42 C-2.03150198 45.46721005 -12.14483174 45.22951024 -19.71484375 43.3125 C-25.15059862 40.80850543 -28.90002785 36.7809155 -31.109375 31.1953125 C-33.346694 23.16843996 -32.81659399 14.73261592 -29.33203125 7.16015625 C-26.50110482 2.56924037 -22.89502029 -0.11296923 -18.0625 -2.375 C-11.12223219 -3.79138118 -6.25970787 -3.42512318 0 0 Z M-21.3125 10 C-23.24513062 12.86211403 -23.24513062 12.86211403 -23 16 C-15.74 16 -8.48 16 -1 16 C-1.29833155 9.21261419 -1.29833155 9.21261419 -4.6875 6.0625 C-11.52401894 1.80579953 -16.61322659 3.9036453 -21.3125 10 Z " fill="#EFC026" transform="translate(224,807)"/>
<path d="M0 0 C4.78299239 3.80465304 6.41216197 7.23364083 8 13 C8 16.3 8 19.6 8 23 C-2.23 23 -12.46 23 -23 23 C-20.96896279 31.32917961 -20.96896279 31.32917961 -18 34 C-11.34571652 37.32714174 -3.11096058 36.53750499 4 35 C4.495 38.465 4.495 38.465 5 42 C-2.03150198 45.46721005 -12.14483174 45.22951024 -19.71484375 43.3125 C-25.15059862 40.80850543 -28.90002785 36.7809155 -31.109375 31.1953125 C-33.346694 23.16843996 -32.81659399 14.73261592 -29.33203125 7.16015625 C-26.50110482 2.56924037 -22.89502029 -0.11296923 -18.0625 -2.375 C-11.12223219 -3.79138118 -6.25970787 -3.42512318 0 0 Z M-21.3125 10 C-23.24513062 12.86211403 -23.24513062 12.86211403 -23 16 C-15.74 16 -8.48 16 -1 16 C-1.29833155 9.21261419 -1.29833155 9.21261419 -4.6875 6.0625 C-11.52401894 1.80579953 -16.61322659 3.9036453 -21.3125 10 Z " fill="#F0C026" transform="translate(846,807)"/>
<path d="M0 0 C4.4334379 2.43404433 6.60910926 4.05681409 8.26708984 8.91040039 C9.21361076 12.85892413 9.50385827 16.37886838 9.6015625 20.43359375 C9.62092865 21.13396255 9.6402948 21.83433136 9.6602478 22.55592346 C9.71944891 24.76632981 9.76618725 26.97678995 9.8125 29.1875 C9.85073476 30.69728681 9.88978958 32.2070531 9.9296875 33.71679688 C10.0250997 37.39434199 10.10934699 41.07204294 10.1875 44.75 C7.2175 44.75 4.2475 44.75 1.1875 44.75 C0.8575 43.76 0.5275 42.77 0.1875 41.75 C-0.534375 42.41 -1.25625 43.07 -2 43.75 C-6.99766317 47.07779958 -13.08768917 46.59380947 -18.8125 45.75 C-22.35416954 44.14672103 -24.16327541 41.76617763 -26.25 38.5 C-27.24462485 33.63738963 -27.13670803 29.13265805 -24.68359375 24.71875 C-21.16498027 20.19344874 -17.40009282 17.90255627 -11.8125 16.75 C-7.81680675 16.25421988 -3.83350998 15.94434882 0.1875 15.75 C-0.225 14.63625 -0.6375 13.5225 -1.0625 12.375 C-1.29453125 11.74851562 -1.5265625 11.12203125 -1.765625 10.4765625 C-3.15493705 8.18523441 -4.28970144 7.61483148 -6.8125 6.75 C-9.24364539 6.68541088 -9.24364539 6.68541088 -11.75 7.0625 C-13.05904297 7.22492187 -13.05904297 7.22492187 -14.39453125 7.390625 C-16.88879356 7.76133927 -19.35610418 8.17684098 -21.8125 8.75 C-22.4725 6.77 -23.1325 4.79 -23.8125 2.75 C-15.77456796 -0.61541453 -8.48011126 -3.25881133 0 0 Z M-15.8125 26.75 C-17.72046497 30.1990136 -18.07708481 31.75780696 -17.0625 35.5625 C-16.00317819 37.88578599 -16.00317819 37.88578599 -13.8125 38.75 C-7.99904053 39.28365513 -7.99904053 39.28365513 -2.875 36.875 C0.22046298 33.68573511 0.30557778 31.96006709 0.25 27.625 C0.24097656 26.71492187 0.23195313 25.80484375 0.22265625 24.8671875 C0.21105469 24.16851563 0.19945312 23.46984375 0.1875 22.75 C-6.00133794 22.30794015 -10.77701742 22.85349562 -15.8125 26.75 Z " fill="#EFBF25" transform="translate(748.8125,805.25)"/>
<path d="M0 0 C4.82724275 4.9510182 5.16846992 9.30946722 5.31640625 15.94921875 C5.33718735 16.72183548 5.35796844 17.49445221 5.37937927 18.29048157 C5.44471038 20.7560648 5.50368315 23.22175361 5.5625 25.6875 C5.60570087 27.36003691 5.64931566 29.03256319 5.69335938 30.70507812 C5.8003749 34.8032775 5.90168857 38.90158296 6 43 C3.36 43 0.72 43 -2 43 C-2 42.01 -2 41.02 -2 40 C-3.0725 40.66 -4.145 41.32 -5.25 42 C-10.60155855 44.68054893 -16.13233624 44.89835956 -22 44 C-26.07761371 41.92644075 -28.260749 40.30235773 -30 36 C-30.66524097 31.14860851 -30.51104938 27.23116442 -28.625 22.6875 C-21.67274085 15.56971087 -13.64912286 14.18237174 -4 14 C-4.80871207 9.236331 -4.80871207 9.236331 -7.7734375 5.75390625 C-10.40372807 4.86329909 -12.12976002 4.9575858 -14.875 5.3125 C-16.18210938 5.47492187 -16.18210938 5.47492187 -17.515625 5.640625 C-20.35241075 6.05097766 -23.18093183 6.48069797 -26 7 C-26.33 5.02 -26.66 3.04 -27 1 C-18.26896633 -3.67008778 -8.91826129 -5.00292707 0 0 Z M-19.9375 25.3125 C-21.60326711 27.95813012 -21.37351437 29.94963267 -21 33 C-20.16666667 35.5 -20.16666667 35.5 -18 37 C-14.14522382 37.56873747 -11.60510968 37.90244364 -8.1796875 35.9765625 C-5.49097012 33.83338198 -4.09441957 32.28325872 -3 29 C-2.93334624 27.60560336 -2.91461801 26.20830125 -2.9375 24.8125 C-2.958125 23.554375 -2.97875 22.29625 -3 21 C-9.79784197 20.64221884 -14.18739006 21.41726423 -19.9375 25.3125 Z " fill="#EFC025" transform="translate(270,807)"/>
<path d="M0 0 C3.3 0 6.6 0 10 0 C10.32798584 0.93384521 10.65597168 1.86769043 10.99389648 2.82983398 C12.20796849 6.2841428 13.42579356 9.73711833 14.64477539 13.18969727 C15.17249899 14.6860789 15.69919492 16.18282335 16.22485352 17.67993164 C16.97925228 19.82794169 17.73729994 21.97463297 18.49609375 24.12109375 C18.73154404 24.79401962 18.96699432 25.4669455 19.20957947 26.16026306 C20.1720191 29.32824652 20.1720191 29.32824652 22 32 C22.32798584 31.06615479 22.65597168 30.13230957 22.99389648 29.17016602 C24.20796849 25.7158572 25.42579356 22.26288167 26.64477539 18.81030273 C27.17249899 17.3139211 27.69919492 15.81717665 28.22485352 14.32006836 C28.97925228 12.17205831 29.73729994 10.02536703 30.49609375 7.87890625 C30.73154404 7.20598038 30.96699432 6.5330545 31.20957947 5.83973694 C32.88612829 1.11387171 32.88612829 1.11387171 34 0 C37.00003445 -0.14177857 39.99757235 -0.04228771 43 0 C40.5293421 9.27850301 36.92390077 18.09692158 33.375 27 C32.77047569 28.52720223 32.16630633 30.05454501 31.5625 31.58203125 C30.98729131 33.03397786 30.41178165 34.48580529 29.8359375 35.9375 C29.56615082 36.6176416 29.29636414 37.2977832 29.0184021 37.99853516 C27.11908806 42.76182387 27.11908806 42.76182387 26 45 C23.03 45 20.06 45 17 45 C13.34739699 37.1071227 10.24150788 29.02661112 7.14404297 20.90454102 C6.24222191 18.54212446 5.33419962 16.18215203 4.42578125 13.82226562 C3.85118943 12.32045519 3.27695731 10.81850706 2.703125 9.31640625 C2.43131409 8.61125381 2.15950317 7.90610138 1.87945557 7.17958069 C0 2.22938611 0 2.22938611 0 0 Z " fill="#EDBF25" transform="translate(766,805)"/>
<path d="M0 0 C3.3 0 6.6 0 10 0 C13.63 10.56 17.26 21.12 21 32 C23.12445382 28.81331928 24.14928006 25.98480596 25.3828125 22.36328125 C25.60194305 21.72384079 25.82107361 21.08440033 26.04684448 20.42558289 C26.74363632 18.38925299 27.43438854 16.3509332 28.125 14.3125 C28.59725903 12.92890081 29.06991079 11.54543561 29.54296875 10.16210938 C30.69986846 6.77628063 31.85136158 3.38864156 33 0 C36.3 0 39.6 0 43 0 C41.04422908 5.99165317 38.94636654 11.88743738 36.64453125 17.75390625 C36.18478157 18.93339088 36.18478157 18.93339088 35.71574402 20.13670349 C34.7500586 22.61278003 33.78133736 25.08765529 32.8125 27.5625 C32.15149028 29.25578036 31.4906812 30.94913907 30.83007812 32.64257812 C29.22236669 36.76262667 27.61193423 40.88160186 26 45 C22.7 45 19.4 45 16 45 C13.71499008 39.07591428 11.43650095 33.14937843 9.1640625 27.22045898 C8.3898173 25.20316701 7.61378337 23.18656063 6.8359375 21.1706543 C5.71926296 18.27570404 4.60900934 15.37836261 3.5 12.48046875 C3.15001953 11.57725388 2.80003906 10.674039 2.43945312 9.74345398 C2.11912109 8.90280899 1.79878906 8.062164 1.46875 7.19604492 C1.18451172 6.45658127 0.90027344 5.71711761 0.60742188 4.95524597 C0 3 0 3 0 0 Z " fill="#EEBF25" transform="translate(341,805)"/>
<path d="M0 0 C-0.25561323 2.3431213 -0.59270772 4.67843403 -1 7 C-1.66 7.33 -2.32 7.66 -3 8 C-3.99 7.67 -4.98 7.34 -6 7 C-11.2142052 6.50068051 -15.64410807 6.41890346 -20.5 8.5 C-24.3990024 12.3990024 -25.84863529 16.02774757 -26.12890625 21.53125 C-25.82557189 27.63470493 -24.47038275 30.84150442 -20 35 C-15.94784227 38.07405069 -10.74022783 37.30446976 -5.92578125 36.76953125 C-4.27997959 36.53918578 -2.63923183 36.27320531 -1 36 C-0.505 39.465 -0.505 39.465 0 43 C-6.90479578 46.35184261 -16.20489418 46.06796826 -23.61328125 44.41796875 C-29.20089088 42.04187844 -32.31138665 37.2841951 -35 32 C-37.46449218 24.45624956 -36.55668728 16.35563982 -33.3203125 9.2265625 C-29.83031373 3.34106162 -24.8077026 0.32717133 -18.328125 -1.53515625 C-11.8264271 -2.83331405 -6.22059719 -2.11765011 0 0 Z " fill="#EEBF25" transform="translate(153,806)"/>
<path d="M0 0 C0 3.3 0 6.6 0 10 C3.63 10 7.26 10 11 10 C11 12.31 11 14.62 11 17 C7.37 17 3.74 17 0 17 C0.09347301 21.09381399 0.19955156 25.18708609 0.31738281 29.28027344 C0.35569327 30.67308572 0.39054259 32.06599765 0.421875 33.45898438 C0.46747907 35.45986308 0.52651623 37.46042146 0.5859375 39.4609375 C0.63306885 41.26763916 0.63306885 41.26763916 0.68115234 43.11083984 C0.70915226 46.1260018 0.70915226 46.1260018 3 48 C6.58343976 48.16677282 6.58343976 48.16677282 10 48 C10.38063221 50.3260857 10.71269945 52.66055264 11 55 C9.13748319 56.86251681 6.2496451 56.30214039 3.75 56.375 C-2.35553062 56.34822136 -2.35553062 56.34822136 -4.9375 54.953125 C-8.40476047 51.44458762 -9.1138614 48.68488402 -9.11329651 43.89450073 C-9.10813522 43.20486237 -9.10297394 42.515224 -9.09765625 41.8046875 C-9.0962413 41.09724396 -9.09482635 40.38980042 -9.09336853 39.66091919 C-9.087766 37.39890331 -9.07521318 35.13698602 -9.0625 32.875 C-9.05748532 31.34244935 -9.05292236 29.80989714 -9.04882812 28.27734375 C-9.03779577 24.51819112 -9.02052952 20.75911228 -9 17 C-11.31 17 -13.62 17 -16 17 C-16 14.69 -16 12.38 -16 10 C-13.69 10 -11.38 10 -9 10 C-9 7.36 -9 4.72 -9 2 C-5.53785351 -0.05164237 -4.40610765 0 0 0 Z " fill="#EFBF24" transform="translate(301,795)"/>
<path d="M0 0 C0 3.3 0 6.6 0 10 C3.96 10 7.92 10 12 10 C12 12.31 12 14.62 12 17 C8.04 17 4.08 17 0 17 C0.14087959 21.22938501 0.28750147 25.45843695 0.4375 29.6875 C0.47681641 30.88568359 0.51613281 32.08386719 0.55664062 33.31835938 C0.61948242 35.05375977 0.61948242 35.05375977 0.68359375 36.82421875 C0.72025146 37.88729248 0.75690918 38.95036621 0.79467773 40.0456543 C0.9848525 42.78204532 1.3931507 45.32856732 2 48 C4.97 48 7.94 48 11 48 C11 50.64 11 53.28 11 56 C8.93867858 56.10864945 6.87568679 56.18588321 4.8125 56.25 C3.66394531 56.29640625 2.51539063 56.3428125 1.33203125 56.390625 C-2.82740955 55.90300005 -4.26083591 55.17217582 -7 52 C-9.9302034 44.96540309 -9.23228934 36.89410893 -9.125 29.4375 C-9.11597656 28.23802734 -9.10695313 27.03855469 -9.09765625 25.80273438 C-9.07427412 22.86827691 -9.0415028 19.93424766 -9 17 C-10.98 17 -12.96 17 -15 17 C-15 14.69 -15 12.38 -15 10 C-13.02 10 -11.04 10 -9 10 C-9 7.36 -9 4.72 -9 2 C-5.62902617 0.50178941 -3.79557881 0 0 0 Z " fill="#F0C026" transform="translate(427,795)"/>
<path d="M0 0 C2.31 0 4.62 0 7 0 C7 6.93 7 13.86 7 21 C13.93 21 20.86 21 28 21 C28 23.31 28 25.62 28 28 C21.07 28 14.14 28 7 28 C7 34.93 7 41.86 7 49 C4.69 49 2.38 49 0 49 C0 42.07 0 35.14 0 28 C-6.93 28 -13.86 28 -21 28 C-21 25.69 -21 23.38 -21 21 C-14.07 21 -7.14 21 0 21 C0 14.07 0 7.14 0 0 Z " fill="#F1C126" transform="translate(556,801)"/>
<path d="M0 0 C0 2.97 0 5.94 0 9 C-1.953125 9.35807292 -3.90625 9.71614583 -5.859375 10.07421875 C-8.97001428 11.41951347 -10.13963575 13.18369474 -12 16 C-12.63716409 19.37400097 -12.63716409 19.37400097 -12.609375 23.05078125 C-12.62591125 23.70958786 -12.64244751 24.36839447 -12.65948486 25.04716492 C-12.70777556 27.13570651 -12.72929082 29.22352122 -12.75 31.3125 C-12.77817596 32.73506224 -12.80810568 34.1575909 -12.83984375 35.58007812 C-12.91352563 39.05322825 -12.96321715 42.52624072 -13 46 C-16.3 46 -19.6 46 -23 46 C-23 31.15 -23 16.3 -23 1 C-20.36 1 -17.72 1 -15 1 C-14.67 2.98 -14.34 4.96 -14 7 C-13.443125 6.21625 -12.88625 5.4325 -12.3125 4.625 C-8.67091042 0.49130372 -5.40441137 -0.30882351 0 0 Z " fill="#EDC124" transform="translate(716,804)"/>
<path d="M0 0 C0 2.97 0 5.94 0 9 C-1.2375 9.226875 -2.475 9.45375 -3.75 9.6875 C-6.93279446 10.48742356 -7.9657991 10.967553 -10.4375 13.3125 C-12.97745491 17.68122244 -13.13757114 21.97519613 -13.31640625 26.95703125 C-13.35830078 28.06884766 -13.40019531 29.18066406 -13.44335938 30.32617188 C-13.48267578 31.47666016 -13.52199219 32.62714844 -13.5625 33.8125 C-13.60568359 34.98232422 -13.64886719 36.15214844 -13.69335938 37.35742188 C-13.79918279 40.23817031 -13.90126825 43.11900123 -14 46 C-16.97 46 -19.94 46 -23 46 C-23 31.15 -23 16.3 -23 1 C-20.36 1 -17.72 1 -15 1 C-14.67 2.65 -14.34 4.3 -14 6 C-13.071875 5.195625 -12.14375 4.39125 -11.1875 3.5625 C-7.58871053 0.44354913 -4.72485424 -0.12769876 0 0 Z " fill="#F0C026" transform="translate(888,804)"/>
<path d="M0 0 C0 2.97 0 5.94 0 9 C-1.4025 9.20625 -2.805 9.4125 -4.25 9.625 C-7.83986227 10.15292092 -8.79048763 10.73869151 -11.109375 13.63085938 C-13.22603835 17.40280594 -13.53344371 19.63956938 -13.609375 23.9296875 C-13.64160156 25.21875 -13.67382812 26.5078125 -13.70703125 27.8359375 C-13.7217723 29.18228715 -13.73609 30.5286415 -13.75 31.875 C-13.77818712 33.24482903 -13.80811837 34.61462335 -13.83984375 35.984375 C-13.91037757 39.32297602 -13.96315985 42.66088515 -14 46 C-16.97 46 -19.94 46 -23 46 C-23.33 31.15 -23.66 16.3 -24 1 C-21.36 1 -18.72 1 -16 1 C-15.67 2.65 -15.34 4.3 -15 6 C-14.071875 5.195625 -13.14375 4.39125 -12.1875 3.5625 C-8.27301393 0.16994541 -5.11305849 -0.11362352 0 0 Z " fill="#F0C026" transform="translate(187,804)"/>
<path d="M0 0 C2.97 0 5.94 0 9 0 C9 14.85 9 29.7 9 45 C6.03 45 3.06 45 0 45 C0 30.15 0 15.3 0 0 Z " fill="#F1C126" transform="translate(393,805)"/>
<path d="M0 0 C2.97 0 5.94 0 9 0 C9 14.85 9 29.7 9 45 C6.03 45 3.06 45 0 45 C0 30.15 0 15.3 0 0 Z " fill="#F0C126" transform="translate(323,805)"/>
<path d="M0 0 C1.7325 0.1546875 1.7325 0.1546875 3.5 0.3125 C5.5 3.3125 5.5 3.3125 5.3125 6.375 C4.5 9.3125 4.5 9.3125 1.5 11.3125 C-1.82240324 10.9883631 -3.10776303 10.70473697 -5.5 8.3125 C-5.75 5.3125 -5.75 5.3125 -5.5 2.3125 C-3.5 0.3125 -3.5 0.3125 0 0 Z " fill="#EDBE25" transform="translate(397.5,787.6875)"/>
<path d="M0 0 C3 0.25 3 0.25 5 2.25 C5.3125 5.75 5.3125 5.75 5 9.25 C2 11.25 2 11.25 -1.125 10.9375 C-4 10.25 -4 10.25 -5 9.25 C-5.1875 5.8125 -5.1875 5.8125 -5 2.25 C-3 0.25 -3 0.25 0 0 Z " fill="#EDBE24" transform="translate(327,787.75)"/>
</svg>
