<?xml version="1.0" encoding="UTF-8"?>
<svg version="1.1" xmlns="http://www.w3.org/2000/svg" width="1080" height="1080">
<path d="M0 0 C0.88602402 0.00222061 1.77204803 0.00444122 2.68492126 0.00672913 C3.68588333 0.00680466 4.6868454 0.00688019 5.71813965 0.00695801 C6.80666733 0.01211929 7.89519501 0.01728058 9.01670837 0.02259827 C10.67928932 0.02472069 10.67928932 0.02472069 12.37545776 0.02688599 C15.93168281 0.03250418 19.48784596 0.04505977 23.04405212 0.05775452 C25.44834809 0.06276717 27.85264504 0.06733048 30.25694275 0.07142639 C36.16516716 0.08247952 42.07335522 0.09923535 47.98155212 0.12025452 C48.17961456 0.63198212 48.377677 1.14370972 48.58174133 1.67094421 C51.17206836 8.36287566 53.7640283 15.05417386 56.35655212 21.74525452 C56.77972717 22.83759399 57.20290222 23.92993347 57.63890076 25.05537415 C62.40713685 37.36108596 67.18607658 49.66241273 72.00498962 61.94837952 C72.40555573 62.96995148 72.80612183 63.99152344 73.21882629 65.04405212 C75.11913534 69.88910487 77.02192291 74.73316427 78.92832947 79.57582092 C82.34872762 88.27744034 85.72640244 96.99397054 88.99717712 105.75306702 C89.29936157 106.55292023 89.60154602 107.35277344 89.91288757 108.17686462 C91.06131821 111.28140547 91.98155212 113.78218032 91.98155212 117.12025452 C76.80155212 117.12025452 61.62155212 117.12025452 45.98155212 117.12025452 C41.48209523 105.87161229 41.48209523 105.87161229 40.10630798 101.79750061 C39.79596115 100.88310211 39.48561432 99.96870361 39.16586304 99.02659607 C38.68597679 97.59955856 38.68597679 97.59955856 38.19639587 96.14369202 C37.85403397 95.13360077 37.51167206 94.12350952 37.15893555 93.08280945 C36.0763972 89.88782305 34.99747877 86.69163086 33.91905212 83.49525452 C32.83654837 80.29191231 31.75323625 77.08884863 30.66845703 73.88627625 C29.99696495 71.90334383 29.32683026 69.91995103 28.65829468 67.9360199 C26.86140568 62.62425969 24.98186095 57.35892087 22.98155212 52.12025452 C21.00129333 57.7448706 19.02230326 63.369932 17.04405212 68.99525452 C16.75042786 69.83005341 16.45680359 70.66485229 16.15428162 71.52494812 C11.93342886 83.52805226 7.73961453 95.53975383 3.61070251 107.57484436 C3.27417664 108.5527594 2.93765076 109.53067444 2.59092712 110.53822327 C2.30185486 111.38151184 2.01278259 112.22480042 1.71495056 113.09364319 C0.98155212 115.12025452 0.98155212 115.12025452 -0.01844788 117.12025452 C-15.19844788 117.12025452 -30.37844788 117.12025452 -46.01844788 117.12025452 C-44.28473806 111.34122179 -42.63044989 105.83588315 -40.51332092 100.23817444 C-40.28153169 99.62250484 -40.04974245 99.00683525 -39.8109293 98.372509 C-39.0538655 96.36402581 -38.29205939 94.35737904 -37.53016663 92.35072327 C-36.98875434 90.91720527 -36.44764389 89.48357324 -35.90681458 88.04983521 C-34.47209622 84.24892814 -33.03326808 80.4495901 -31.59347153 76.65060425 C-30.11128671 72.73799155 -28.63254017 68.82407984 -27.15345764 64.91029358 C-25.11175149 59.50871374 -23.06875314 54.10762601 -21.02408504 48.70716667 C-18.08076622 40.93292465 -15.1465802 33.15531482 -12.22157288 25.37416077 C-11.25757122 22.81284884 -10.29331363 20.25163349 -9.3289032 17.69047546 C-8.74946555 16.1503928 -8.17082471 14.6100101 -7.59300232 13.06932068 C-6.81932296 11.00723114 -6.04240817 8.9463924 -5.26454163 6.88587952 C-4.64083679 5.22733948 -4.64083679 5.22733948 -4.00453186 3.53529358 C-2.62489055 0.15638499 -2.62489055 0.15638499 0 0 Z " fill="#3B77BA" transform="translate(213.01844787597656,480.87974548339844)"/>
<path d="M0 0 C0.88602402 0.00222061 1.77204803 0.00444122 2.68492126 0.00672913 C3.68588333 0.00680466 4.6868454 0.00688019 5.71813965 0.00695801 C6.80666733 0.01211929 7.89519501 0.01728058 9.01670837 0.02259827 C10.67928932 0.02472069 10.67928932 0.02472069 12.37545776 0.02688599 C15.93168281 0.03250418 19.48784596 0.04505977 23.04405212 0.05775452 C25.44834809 0.06276717 27.85264504 0.06733048 30.25694275 0.07142639 C36.16516716 0.08247952 42.07335522 0.09923535 47.98155212 0.12025452 C48.21577377 0.73601852 48.44999542 1.35178253 48.6913147 1.98620605 C62.2682029 37.77212281 62.2682029 37.77212281 76.16905212 73.43275452 C76.54897308 74.39267807 76.54897308 74.39267807 76.93656921 75.37199402 C78.14742387 78.43131706 79.35888747 81.49039881 80.57041931 84.54945374 C82.9973675 90.69072436 85.40372683 96.83962296 87.79405212 102.99525452 C88.22161804 104.08491516 88.64918396 105.17457581 89.08970642 106.29725647 C89.47296082 107.2881427 89.85621521 108.27902893 90.25108337 109.29994202 C90.58728699 110.16345276 90.9234906 111.0269635 91.2698822 111.91664124 C91.98155212 114.12025452 91.98155212 114.12025452 91.98155212 117.12025452 C76.80155212 117.12025452 61.62155212 117.12025452 45.98155212 117.12025452 C41.48155212 105.87025452 41.48155212 105.87025452 39.78330994 100.93617249 C39.40321777 99.83578644 39.02312561 98.73540039 38.6315155 97.60166931 C38.23655884 96.4502243 37.84160217 95.2987793 37.43467712 94.11244202 C36.81057953 92.30249252 36.81057953 92.30249252 36.1738739 90.45597839 C35.0805546 87.28382015 33.98935297 84.11095036 32.8992157 80.93769836 C31.78133383 77.68542754 30.66061207 74.43413569 29.54014587 71.18275452 C27.35136128 64.82947602 25.16536839 58.47524238 22.98155212 52.12025452 C19.91418349 59.52542912 17.24013495 67.02363302 14.68858337 74.62025452 C14.29708603 75.77775208 13.90558868 76.93524963 13.50222778 78.12782288 C12.2635604 81.79109175 11.02854813 85.45557803 9.79405212 89.12025452 C8.54837624 92.81333408 7.30190102 96.5061386 6.05374146 100.19837952 C5.27981569 102.48821866 4.50740031 104.77856895 3.7366333 107.06947327 C3.21555244 108.61248108 3.21555244 108.61248108 2.6839447 110.18666077 C2.37846207 111.0935968 2.07297943 112.00053284 1.75823975 112.93495178 C0.98155212 115.12025452 0.98155212 115.12025452 -0.01844788 117.12025452 C-15.19844788 117.12025452 -30.37844788 117.12025452 -46.01844788 117.12025452 C-45.13888685 112.72244939 -43.89066058 108.80169833 -42.30751038 104.63978577 C-41.88767128 103.52241028 -41.88767128 103.52241028 -41.45935059 102.38246155 C-40.52452526 99.89777206 -39.58405406 97.41526079 -38.64344788 94.93275452 C-37.97969155 93.17268133 -37.31620483 91.41250646 -36.65296936 89.65223694 C-34.44802642 83.80575154 -32.23390817 77.96276119 -30.01844788 72.12025452 C-29.61922119 71.06709045 -29.21999451 70.01392639 -28.80867004 68.92884827 C-23.98670639 56.20977556 -19.15998049 43.4924937 -14.31556702 30.7819519 C-12.43889795 25.85780171 -10.56848091 20.9314332 -8.70936584 16.00062561 C-8.34016525 15.02405502 -7.97096466 14.04748444 -7.59057617 13.0413208 C-6.88800366 11.18253583 -6.18752015 9.32295955 -5.4894104 7.4624939 C-5.17858017 6.64145676 -4.86774994 5.82041962 -4.54750061 4.97450256 C-4.27526169 4.25151474 -4.00302277 3.52852692 -3.72253418 2.78363037 C-2.73813749 0.45803239 -2.57670269 0.15351406 0 0 Z " fill="#3B77BA" transform="translate(440.01844787597656,480.87974548339844)"/>
<path d="M0 0 C37.29 0 74.58 0 113 0 C113 11.55 113 23.1 113 35 C102.44 35 91.88 35 81 35 C81 62.06 81 89.12 81 117 C65.16 117 49.32 117 33 117 C33 90.27 33 63.54 33 36 C26.07 36 19.14 36 12 36 C8.04 35.67 4.08 35.34 0 35 C0 23.45 0 11.9 0 0 Z " fill="#3B77BA" transform="translate(67,481)"/>
<path d="M0 0 C37.29 0 74.58 0 113 0 C113 11.55 113 23.1 113 35 C102.44 35 91.88 35 81 35 C81 62.06 81 89.12 81 117 C65.16 117 49.32 117 33 117 C33 89.94 33 62.88 33 35 C22.11 35 11.22 35 0 35 C0 23.45 0 11.9 0 0 Z " fill="#3B77BA" transform="translate(294,481)"/>
<path d="M0 0 C22.44 0 44.88 0 68 0 C68 5.94 68 11.88 68 18 C52.82 18 37.64 18 22 18 C22 27.57 22 37.14 22 47 C36.52 47 51.04 47 66 47 C66 52.94 66 58.88 66 65 C51.48 65 36.96 65 22 65 C22 75.56 22 86.12 22 97 C46.255 97.495 46.255 97.495 71 98 C71 103.94 71 109.88 71 116 C47.57 116 24.14 116 0 116 C0 77.72 0 39.44 0 0 Z " fill="#3B77BA" transform="translate(852,482)"/>
<path d="M0 0 C22.44 0 44.88 0 68 0 C68 5.94 68 11.88 68 18 C52.82 18 37.64 18 22 18 C22 27.57 22 37.14 22 47 C36.19 47 50.38 47 65 47 C65 52.94 65 58.88 65 65 C50.81 65 36.62 65 22 65 C22 75.56 22 86.12 22 97 C46.255 97.495 46.255 97.495 71 98 C71 103.94 71 109.88 71 116 C47.57 116 24.14 116 0 116 C0 77.72 0 39.44 0 0 Z " fill="#3B77BA" transform="translate(761,482)"/>
<path d="M0 0 C-1.65 5.94 -3.3 11.88 -5 18 C-7.44140625 17.25130208 -9.8828125 16.50260417 -12.32421875 15.75390625 C-17.70003178 14.23926112 -22.79623104 13.76064819 -28.375 13.6875 C-29.10460937 13.65849609 -29.83421875 13.62949219 -30.5859375 13.59960938 C-36.19258219 13.53453225 -39.37090883 14.82898364 -44 18 C-46.81527525 21.42729161 -46.40449285 25.76125205 -46 30 C-45.39735818 32.84575944 -45.39735818 32.84575944 -44 35 C-42.15967069 36.06527819 -42.15967069 36.06527819 -40 37 C-39.30189209 37.31614258 -38.60378418 37.63228516 -37.88452148 37.95800781 C-37.13759033 38.28639648 -36.39065918 38.61478516 -35.62109375 38.953125 C-2.57986807 53.57426641 -2.57986807 53.57426641 3.12109375 67.796875 C5.47920866 76.39089377 5.25600021 87.0199996 1 95 C-4.61989327 104.31965633 -12.56140262 109.23402945 -22.796875 112.45703125 C-38.74608371 116.38777595 -57.39763585 114.56193858 -72 107 C-71.54729698 104.76968311 -71.08760374 102.54078437 -70.625 100.3125 C-70.36976563 99.07113281 -70.11453125 97.82976562 -69.8515625 96.55078125 C-69.12613946 93.52596682 -68.24868779 90.83940745 -67 88 C-66.47792969 88.18175781 -65.95585938 88.36351562 -65.41796875 88.55078125 C-62.9531881 89.39251895 -60.47732222 90.19595682 -58 91 C-57.18015625 91.28617188 -56.3603125 91.57234375 -55.515625 91.8671875 C-46.66305889 94.68391308 -34.94742521 96.28840701 -26.1875 92.3125 C-22.14795536 89.38184997 -20.44061518 87.67094564 -19.62109375 82.703125 C-19.29650541 78.14507601 -19.4646317 75.30932396 -22.20703125 71.55078125 C-26.79112817 66.54698961 -33.07718551 64.53496245 -39.25 62.0625 C-52.89702698 56.56931006 -62.86618631 50.75656201 -69.3125 37.25 C-71.26476637 28.02110444 -70.42438411 19.37113584 -66 11 C-60.16402048 2.10574275 -51.49227798 -2.87478063 -41.25 -5.375 C-27.17118815 -7.56353325 -12.80802454 -6.40401227 0 0 Z " fill="#3B76B9" transform="translate(655,486)"/>
<path d="M0 0 C29.04 0 58.08 0 88 0 C88 6.27 88 12.54 88 19 C77.11 19 66.22 19 55 19 C55 51.01 55 83.02 55 116 C47.74 116 40.48 116 33 116 C33 83.99 33 51.98 33 19 C22.11 19 11.22 19 0 19 C0 12.73 0 6.46 0 0 Z " fill="#3B77BA" transform="translate(660,482)"/>
<path d="M0 0 C7.59 0 15.18 0 23 0 C23 32.01 23 64.02 23 97 C38.51 97 54.02 97 70 97 C70 103.27 70 109.54 70 116 C46.9 116 23.8 116 0 116 C0 77.72 0 39.44 0 0 Z " fill="#3B77BA" transform="translate(943,482)"/>
</svg>
