<?xml version="1.0" encoding="UTF-8"?>
<svg version="1.1" xmlns="http://www.w3.org/2000/svg" width="1080" height="1080">
<path d="M0 0 C46.0167609 0 46.0167609 0 55.31640625 8.98046875 C60.58016474 14.67223894 64.86030678 21.21696158 69.28369141 27.56201172 C72.10388005 31.56804355 75.02125261 35.50113592 77.9375 39.4375 C79.1134174 41.02984738 80.28919817 42.62229567 81.46484375 44.21484375 C82.04862793 45.00487793 82.63241211 45.79491211 83.23388672 46.60888672 C86.15956103 50.56991162 89.07950306 54.53515717 92 58.5 C93.1666389 60.08335379 94.33330558 61.66668712 95.5 63.25 C116.5 91.75 116.5 91.75 118.25170898 94.12744141 C119.41252343 95.70275139 120.57349223 97.27794765 121.73461914 98.85302734 C124.74213315 102.93317488 127.74653234 107.01556415 130.74609375 111.1015625 C131.36419922 111.94267578 131.98230469 112.78378906 132.61914062 113.65039062 C133.78682124 115.23948981 134.9535689 116.82927521 136.11914062 118.41992188 C139.9936546 123.68981903 143.98055825 128.83214632 148 134 C148.495 67.67 148.495 67.67 149 0 C164.84 0 180.68 0 197 0 C197 72.93 197 145.86 197 221 C153.98176661 221 153.98176661 221 144.75390625 212.08984375 C139.16743282 206.05546624 134.51701212 199.18178349 129.76708984 192.48876953 C127.56203824 189.38317461 125.33136628 186.29659215 123.09887695 183.21069336 C122.0295053 181.73212253 120.96164278 180.25245909 119.89526367 178.77172852 C115.96774217 173.31977499 111.99338367 167.90385031 108 162.5 C103.46248989 156.35983731 98.96033424 150.19645339 94.5 144 C90.05579579 137.82805657 85.57729905 131.68300696 81.0625 125.5625 C80.48258301 124.77633301 79.90266602 123.99016602 79.30517578 123.18017578 C76.34923097 119.17584933 73.38885327 115.17483584 70.42578125 111.17578125 C69.53330688 109.9690979 69.53330688 109.9690979 68.62280273 108.73803711 C67.52365686 107.25198697 66.42311159 105.76696984 65.32055664 104.28344727 C59.4059352 96.28292684 53.74279824 88.13563084 48 80 C47.67 126.53 47.34 173.06 47 221 C31.49 221 15.98 221 0 221 C0 148.07 0 75.14 0 0 Z " fill="#036068" transform="translate(231,465)"/>
<path d="M0 0 C12.30959865 6.2977209 23.86834048 13.90172858 34.875 22.25 C39.4776816 19.71909902 43.57922809 17.02453603 47.75 13.8125 C66.94822334 -0.31495279 90.4805971 -12.63691159 114.875 -9.75 C120.64392941 -7.42360189 124.2224764 -4.12462713 126.98828125 1.5234375 C131.59529619 15.68950107 125.37800587 31.80648826 119.0625 44.4375 C117.69989007 47.06034015 116.29271946 49.65664336 114.875 52.25 C114.55660156 52.8490918 114.23820313 53.44818359 113.91015625 54.06542969 C110.88688372 59.75131464 107.76333095 65.16674537 103.85546875 70.28125 C103.34153564 70.95406006 102.82760254 71.62687012 102.2980957 72.32006836 C101.28478838 73.62421614 100.25384224 74.91489334 99.20385742 76.18969727 C97.60501991 78.14581461 97.60501991 78.14581461 95.875 81.25 C96.57789313 85.84416746 100.25650056 89.82335559 102.9375 93.5625 C116.5133138 112.95651971 130.0981106 135.76532979 127.875 160.25 C126.73081938 165.39437798 124.00515253 169.01770672 119.875 172.25 C108.56222634 177.73031253 97.30428339 174.95322517 85.875 171.25 C67.44420426 164.61154556 51.43755274 153.94093304 35.875 142.25 C29.59599039 146.41236068 29.59599039 146.41236068 23.3828125 150.671875 C5.52554166 163.03923278 -17.48901627 177.30103642 -40.125 175.25 C-46.08532057 174.01916957 -50.31347977 172.18255559 -54.125 167.25 C-59.19538944 158.85763128 -57.8094691 149.10939541 -55.5625 139.9375 C-50.28896954 121.95198558 -41.14281293 105.96139897 -30.07348633 90.93383789 C-29.5761499 90.25184326 -29.07881348 89.56984863 -28.56640625 88.8671875 C-28.11982666 88.26503418 -27.67324707 87.66288086 -27.21313477 87.04248047 C-25.98813693 85.02454596 -25.35287014 83.6072185 -25.125 81.25 C-26.03249693 79.21644504 -26.03249693 79.21644504 -27.5546875 77.265625 C-28.09867188 76.50314453 -28.64265625 75.74066406 -29.203125 74.95507812 C-29.79609375 74.14490234 -30.3890625 73.33472656 -31 72.5 C-44.88228904 52.89352035 -58.8607258 30.13965299 -57.125 5.25 C-56.05592541 -0.63481423 -53.44968765 -3.914122 -48.84375 -7.62109375 C-35.11238381 -16.64010472 -12.81725723 -6.28503757 0 0 Z " fill="#046169" transform="translate(890.125,400.75)"/>
<path d="M0 0 C52.14 0 104.28 0 158 0 C156.99636391 7.02545262 155.26513038 13.30925859 153.1875 20.0625 C152.84396484 21.22072266 152.50042969 22.37894531 152.14648438 23.57226562 C148.19401369 36.48268112 148.19401369 36.48268112 142.93513489 40.62739563 C138.88225722 42.52270805 135.40742586 42.39718044 130.98706055 42.34057617 C129.63997261 42.34123329 129.63997261 42.34123329 128.26567078 42.34190369 C125.30579674 42.33981847 122.34649349 42.31649984 119.38671875 42.29296875 C117.33120534 42.28737185 115.27568792 42.2831022 113.22016907 42.28010559 C107.81632391 42.26866424 102.41272155 42.239203 97.00897217 42.20599365 C90.52201098 42.16987485 84.0349685 42.15612825 77.54793549 42.13863373 C67.69845491 42.10956541 57.84950685 42.05207298 48 42 C48 57.18 48 72.36 48 88 C79.02 88 110.04 88 142 88 C140.03136849 95.87452606 138.02797233 103.63569721 135.625 111.375 C135.3465625 112.31988281 135.068125 113.26476562 134.78125 114.23828125 C133.02337254 119.88407687 131.31605798 123.89257322 127 128 C122.84287663 130.15187455 119.27941302 130.24286001 114.6394043 130.22705078 C113.91690994 130.22734283 113.19441559 130.22763489 112.45002747 130.22793579 C110.07463345 130.22654839 107.69955761 130.21101525 105.32421875 130.1953125 C103.67226839 130.19158027 102.0203158 130.18873429 100.36836243 130.18673706 C96.02987509 130.17911714 91.6915226 130.15948281 87.35308838 130.1373291 C82.14262427 130.11322923 76.93211497 130.10408187 71.72161102 130.09242249 C63.81431369 130.0730574 55.90731199 130.0347235 48 130 C48 145.84 48 161.68 48 178 C84.3 178 120.6 178 158 178 C157.06793474 185.45652211 155.47659104 191.92543253 153.3125 199.0625 C152.98572266 200.20783203 152.65894531 201.35316406 152.32226562 202.53320312 C150.41426733 208.84090684 148.53269523 214.97207415 143 219 C137.36168143 221.48277271 131.93141021 221.28228305 125.88916016 221.25878906 C124.77947372 221.2622937 123.66978729 221.26579834 122.526474 221.26940918 C118.86393956 221.27820008 115.20159886 221.27238572 111.5390625 221.265625 C108.98847415 221.2669726 106.43788605 221.26891392 103.88729858 221.27142334 C98.54267697 221.27437119 93.19812446 221.27028007 87.85351562 221.26074219 C81.69030041 221.24986985 75.52721766 221.25337659 69.36400568 221.264395 C63.41809854 221.27459627 57.47223223 221.27347572 51.5263176 221.26763153 C49.00420488 221.26629968 46.48208877 221.26792644 43.95998001 221.27259064 C40.42977277 221.27768563 36.89981746 221.26990309 33.36962891 221.25878906 C32.33248245 221.26283752 31.295336 221.26688599 30.22676086 221.27105713 C20.98160905 221.21730262 13.26540023 220.17722368 6.3671875 213.39453125 C0.84496551 207.35209994 -0.30210243 201.73485982 -0.24050903 193.60977173 C-0.24221788 192.7797676 -0.24392673 191.94976348 -0.24568737 191.09460771 C-0.24897389 188.32160946 -0.23799238 185.54885476 -0.22705078 182.77587891 C-0.22648649 180.78487148 -0.22680358 178.79386363 -0.22793579 176.80285645 C-0.22850959 171.40252103 -0.2167508 166.00227447 -0.20278788 160.60195971 C-0.19028511 154.95651735 -0.18911037 149.31107296 -0.18673706 143.6656189 C-0.18052097 132.97726014 -0.16410837 122.2889423 -0.14403808 111.60060155 C-0.11750309 97.15595423 -0.10670749 82.71129572 -0.09503365 68.26663017 C-0.0762279 45.51105614 -0.03638304 22.75556844 0 0 Z " fill="#036068" transform="translate(62,465)"/>
<path d="M0 0 C52.14 0 104.28 0 158 0 C156.99636391 7.02545262 155.26513038 13.30925859 153.1875 20.0625 C152.84396484 21.22072266 152.50042969 22.37894531 152.14648438 23.57226562 C148.19401369 36.48268112 148.19401369 36.48268112 142.93513489 40.62739563 C138.88225722 42.52270805 135.40742586 42.39718044 130.98706055 42.34057617 C129.63997261 42.34123329 129.63997261 42.34123329 128.26567078 42.34190369 C125.30579674 42.33981847 122.34649349 42.31649984 119.38671875 42.29296875 C117.33120534 42.28737185 115.27568792 42.2831022 113.22016907 42.28010559 C107.81632391 42.26866424 102.41272155 42.239203 97.00897217 42.20599365 C90.52201098 42.16987485 84.0349685 42.15612825 77.54793549 42.13863373 C67.69845491 42.10956541 57.84950685 42.05207298 48 42 C48 57.18 48 72.36 48 88 C79.02 88 110.04 88 142 88 C140.03136849 95.87452606 138.02797233 103.63569721 135.625 111.375 C135.3465625 112.31988281 135.068125 113.26476562 134.78125 114.23828125 C133.02337254 119.88407687 131.31605798 123.89257322 127 128 C122.84287663 130.15187455 119.27941302 130.24286001 114.6394043 130.22705078 C113.91690994 130.22734283 113.19441559 130.22763489 112.45002747 130.22793579 C110.07463345 130.22654839 107.69955761 130.21101525 105.32421875 130.1953125 C103.67226839 130.19158027 102.0203158 130.18873429 100.36836243 130.18673706 C96.02987509 130.17911714 91.6915226 130.15948281 87.35308838 130.1373291 C82.14262427 130.11322923 76.93211497 130.10408187 71.72161102 130.09242249 C63.81431369 130.0730574 55.90731199 130.0347235 48 130 C48 145.84 48 161.68 48 178 C84.3 178 120.6 178 158 178 C157.34095595 183.27235244 156.81270555 187.20359083 155.2578125 192.07421875 C154.74154297 193.69360352 154.74154297 193.69360352 154.21484375 195.34570312 C153.85519531 196.44849609 153.49554687 197.55128906 153.125 198.6875 C152.77308594 199.80189453 152.42117188 200.91628906 152.05859375 202.06445312 C149.65104892 209.53321209 147.71629269 215.41326353 141 220 C138.02897093 220.95971708 135.31803388 221.12746117 132.20697021 221.13371277 C131.24540512 221.13797775 130.28384003 221.14224274 129.2931366 221.14663696 C128.24475113 221.14618378 127.19636566 221.14573059 126.11621094 221.14526367 C125.00681656 221.14862228 123.89742218 221.1519809 122.75440979 221.15544128 C119.08105351 221.16495229 115.40774283 221.1668946 111.734375 221.16796875 C109.18092836 221.17118164 106.6274819 221.17454574 104.07403564 221.17805481 C98.71748351 221.18404675 93.36094837 221.18593749 88.00439453 221.18530273 C81.82646076 221.18470276 75.64861453 221.1952397 69.47070289 221.2110464 C63.51519772 221.22573746 57.55971907 221.22928969 51.60419464 221.22869301 C49.07649631 221.22987193 46.5487973 221.23428879 44.02111053 221.24202538 C40.48112271 221.25184424 36.94135877 221.24893937 33.40136719 221.24291992 C31.84093437 221.25134918 31.84093437 221.25134918 30.24897766 221.25994873 C20.992405 221.22003835 13.27468745 220.18635537 6.3671875 213.39453125 C0.84496551 207.35209994 -0.30210243 201.73485982 -0.24050903 193.60977173 C-0.24221788 192.7797676 -0.24392673 191.94976348 -0.24568737 191.09460771 C-0.24897389 188.32160946 -0.23799238 185.54885476 -0.22705078 182.77587891 C-0.22648649 180.78487148 -0.22680358 178.79386363 -0.22793579 176.80285645 C-0.22850959 171.40252103 -0.2167508 166.00227447 -0.20278788 160.60195971 C-0.19028511 154.95651735 -0.18911037 149.31107296 -0.18673706 143.6656189 C-0.18052097 132.97726014 -0.16410837 122.2889423 -0.14403808 111.60060155 C-0.11750309 97.15595423 -0.10670749 82.71129572 -0.09503365 68.26663017 C-0.0762279 45.51105614 -0.03638304 22.75556844 0 0 Z " fill="#036068" transform="translate(444,465)"/>
<path d="M0 0 C1.26457031 0.36351562 2.52914062 0.72703125 3.83203125 1.1015625 C28.01443117 8.39175641 46.63031742 25.01235184 60 46 C60.66 46.99 61.32 47.98 62 49 C62 49.99 62 50.98 62 52 C58.023833 53.99076389 54.0402391 55.96556427 50.04931641 57.92651367 C48.69532858 58.59447455 47.34338868 59.26660465 45.99365234 59.94311523 C44.04279782 60.91998437 42.08484375 61.88116142 40.125 62.83984375 C38.95195313 63.42113037 37.77890625 64.00241699 36.5703125 64.60131836 C30.84824244 66.84295809 25.15224391 67.94991215 19.2578125 65.4765625 C15.53466829 63.04170349 12.62283087 59.75917589 9.57006836 56.5559082 C5.19091779 52.01816771 0.66717404 48.81016895 -5 46 C-5.74894531 45.61328125 -6.49789062 45.2265625 -7.26953125 44.828125 C-21.19359401 38.09775491 -37.44604968 38.33028332 -52 43 C-70.6762329 50.50468718 -84.06403458 62.21098554 -92.2578125 80.86328125 C-100.06143585 101.29721351 -99.26384292 124.27694219 -90.41748047 144.18945312 C-82.95212366 159.88641661 -70.40556802 171.50117696 -53.96777344 177.34594727 C-37.3592515 182.86632323 -20.80224682 182.74926792 -4.875 175.3125 C2.16980413 171.59158773 8.80625448 167.01235538 13.75 160.6875 C16.83702141 157.00022442 19.42005164 155.41707115 24.2019043 154.64404297 C33.36903071 154.10022298 40.30041729 157.9169985 48.1875 162 C49.53349869 162.67648555 50.88049931 163.35098141 52.22851562 164.0234375 C55.49753987 165.65952851 58.75220948 167.32207584 62 169 C59.56921252 179.93128323 49.65634056 189.23582366 42 197 C41.20851563 197.804375 40.41703125 198.60875 39.6015625 199.4375 C20.652442 217.56821995 -4.46596092 224.67058611 -30.1875 224.4375 C-30.90445038 224.43445862 -31.62140076 224.43141724 -32.3600769 224.42828369 C-65.20953954 224.22306861 -93.52095363 212.74165519 -117.3125 190.125 C-139.26830867 167.30677004 -147.55086154 137.86113328 -147.42163086 106.88354492 C-146.85239149 77.96130032 -136.57922316 52.2333818 -117 31 C-116.41863281 30.33742188 -115.83726562 29.67484375 -115.23828125 28.9921875 C-88.38583485 -0.09232623 -37.22345103 -11.22540743 0 0 Z " fill="#036068" transform="translate(746,465)"/>
<path d="M0 0 C3.82915657 3.60511017 6.8679705 7.40499748 9.75 11.8125 C10.39352417 12.79101929 10.39352417 12.79101929 11.05004883 13.78930664 C23.49832189 32.96143104 36.14636919 54.36053664 34 78 C32.85581938 83.14437798 30.13015253 86.76770672 26 90 C14.68722634 95.48031253 3.42928339 92.70322517 -8 89 C-26.43079574 82.36154556 -42.43744726 71.69093304 -58 60 C-56.16859719 55.95070744 -53.53133908 53.68257667 -50.125 50.9375 C-48.93722946 49.95502314 -47.75106638 48.97060014 -46.56640625 47.984375 C-45.96715332 47.48615234 -45.36790039 46.98792969 -44.75048828 46.47460938 C-29.32051767 33.47641935 -15.51412494 18.86401497 -2.8203125 3.22265625 C-1 1 -1 1 0 0 Z " fill="#08BFDD" transform="translate(984,483)"/>
<path d="M0 0 C5.96591655 6.23709458 7.456973 11.20626204 7.43164062 19.71899414 C7.01115737 33.95947355 0.69440314 46.7306273 -6 59 C-6.62399432 60.18343751 -7.24770046 61.36702703 -7.87109375 62.55078125 C-11.58576976 69.37003055 -15.75005512 75.64582051 -20.375 81.875 C-20.89932617 82.58398438 -21.42365234 83.29296875 -21.96386719 84.0234375 C-23.25668084 85.723576 -24.62226812 87.36791762 -26 89 C-26.66 89 -27.32 89 -28 89 C-29.24814331 87.59321977 -30.4230839 86.12120296 -31.5625 84.625 C-35.80793367 79.18410126 -40.34970381 74.0946931 -45 69 C-46.52115119 67.29194969 -48.04198663 65.58361812 -49.5625 63.875 C-55.97274418 56.76363536 -62.71044864 50.20155862 -70 44 C-70.78576416 43.32686768 -70.78576416 43.32686768 -71.58740234 42.64013672 C-73.34759095 41.13232264 -75.11077649 39.62809033 -76.875 38.125 C-77.44694092 37.63604248 -78.01888184 37.14708496 -78.6081543 36.64331055 C-81.62036022 34.05422787 -81.62036022 34.05422787 -85 32 C-85 31.01 -85 30.02 -85 29 C-82.48690402 26.52143511 -79.46222073 24.62694146 -76.5625 22.625 C-75.2326709 21.70376343 -75.2326709 21.70376343 -73.87597656 20.76391602 C-55.99952976 8.6882001 -22.17547352 -13.80243337 0 0 Z " fill="#6ABD49" transform="translate(1011,394)"/>
<path d="M0 0 C12.75780813 6.53398534 24.60727568 14.41507979 35.875 23.25 C32.10778334 27.13094395 28.13804459 30.6461672 24 34.125 C19.63390966 37.82742202 15.40853824 41.55762023 11.4375 45.6875 C9.70434402 47.42065598 7.87311352 48.98206047 6 50.5625 C1.17416405 54.72815416 -2.92343791 59.46965129 -7.125 64.25 C-8.68669289 65.95907119 -10.24918156 67.6674156 -11.8125 69.375 C-15.52010713 73.48589071 -18.91419821 77.74228612 -22.125 82.25 C-25.54496459 81.1100118 -25.97466936 80.43713313 -27.9453125 77.55859375 C-28.47640625 76.78644531 -29.0075 76.01429688 -29.5546875 75.21875 C-30.11414063 74.3834375 -30.67359375 73.548125 -31.25 72.6875 C-32.11625 71.40552734 -32.11625 71.40552734 -33 70.09765625 C-45.73972356 51.0163814 -61.04926535 26.85146062 -56.69921875 2.90625 C-55.02914801 -2.42158305 -51.74710845 -5.71411513 -47.125 -8.75 C-31.24499621 -14.0433346 -14.15318616 -6.94100618 0 0 Z " fill="#08BFDD" transform="translate(890.125,400.75)"/>
<path d="M0 0 C3.49796219 2.63860124 6.19899737 5.28946648 8.875 8.75 C19.92817473 22.53874306 32.52013663 35.57830369 46 47 C46.53302734 47.45262207 47.06605469 47.90524414 47.61523438 48.37158203 C51.40404768 51.58832204 55.19992073 54.79657951 59 58 C57.91746094 61.24761718 57.46876894 61.67083084 54.81640625 63.56640625 C54.14520752 64.04706543 53.47400879 64.52772461 52.7824707 65.02294922 C52.04988037 65.53100098 51.31729004 66.03905273 50.5625 66.5625 C49.80477295 67.09117676 49.0470459 67.61985352 48.26635742 68.16455078 C31.27544794 79.81077072 5.68695889 96.43971108 -16 93 C-21.96880209 91.71744748 -26.16657871 89.96089814 -30 85 C-35.07038944 76.60763128 -33.6844691 66.85939541 -31.4375 57.6875 C-25.67625322 38.03861624 -15.15202338 21.12542977 -3.20166016 4.67895508 C-2.10175846 3.14217653 -1.04829122 1.57243682 0 0 Z " fill="#6ABD49" transform="translate(866,483)"/>
</svg>
