<?xml version="1.0" encoding="UTF-8"?>
<svg version="1.1" xmlns="http://www.w3.org/2000/svg" width="1080" height="1080">
<path d="M0 0 C0.66 0 1.32 0 2 0 C3.19824219 1.35083008 3.19824219 1.35083008 4.546875 3.26953125 C5.30859009 4.34062134 5.30859009 4.34062134 6.08569336 5.43334961 C6.63491455 6.21846924 7.18413574 7.00358887 7.75 7.8125 C8.93269023 9.47720478 10.11631402 11.14124663 11.30078125 12.8046875 C11.91260254 13.66674805 12.52442383 14.52880859 13.15478516 15.41699219 C16.03969722 19.45541103 18.98638263 23.44733299 21.9375 27.4375 C22.51790039 28.22358643 23.09830078 29.00967285 23.69628906 29.81958008 C24.87518853 31.41623699 26.05438772 33.01267265 27.23388672 34.60888672 C30.74312623 39.35999147 34.24461276 44.11681291 37.74755859 48.87255859 C40.67420749 52.84531489 43.60270774 56.81667846 46.53515625 60.78515625 C52.77471072 69.23340257 58.9706422 77.71006584 65.10791016 86.23291016 C70.75718083 94.06877486 76.49312892 101.83992854 82.23388672 109.60888672 C85.15956103 113.56991162 88.07950306 117.53515717 91 121.5 C92.1666389 123.08335379 93.33330558 124.66668712 94.5 126.25 C96.83333333 129.41666667 99.16666667 132.58333333 101.5 135.75 C102.07758057 136.53383057 102.65516113 137.31766113 103.25024414 138.12524414 C104.41620806 139.70768185 105.58206104 141.29020131 106.74780273 142.87280273 C109.67431443 146.84551887 112.60277534 150.81676994 115.53515625 154.78515625 C121.77471072 163.23340257 127.9706422 171.71006584 134.10791016 180.23291016 C139.75718083 188.06877486 145.49312892 195.83992854 151.23388672 203.60888672 C154.74312623 208.35999147 158.24461276 213.11681291 161.74755859 217.87255859 C164.67420749 221.84531489 167.60270774 225.81667846 170.53515625 229.78515625 C176.99119366 238.52692687 183.40942942 247.292894 189.73852539 256.12719727 C191.88478244 259.11498849 194.03124165 262.03804676 196.3671875 264.8828125 C198 267 198 267 198 269 C197.01308104 268.98340773 196.02616207 268.96681545 195.00933647 268.94972038 C170.95428782 268.54947007 146.89967267 268.25403306 122.84199333 268.06738091 C111.20742055 267.97470723 99.57505198 267.84845891 87.94189453 267.64208984 C77.79779173 267.46222256 67.65528539 267.34644874 57.50963223 267.30640709 C52.14048648 267.28301013 46.77590597 267.22837491 41.40822983 267.09685898 C18.64732915 265.24702006 18.64732915 265.24702006 -1.66038513 272.92033386 C-4.89733188 276.56238739 -7.12856511 280.39777879 -9.03759193 284.86510658 C-10.41828267 287.92786932 -12.29115623 290.26897435 -14.39453125 292.87890625 C-15.53648288 294.4381824 -16.67596983 295.99926783 -17.8125 297.5625 C-18.98497866 299.16847888 -20.15811686 300.77397654 -21.33203125 302.37890625 C-22.07030151 303.39319702 -22.07030151 303.39319702 -22.82348633 304.42797852 C-24 306 -24 306 -25 307 C-23.70901083 306.9927934 -22.41802166 306.9855868 -21.08791161 306.97816181 C9.60084818 306.81110285 40.28808825 306.74250201 70.97719977 306.79412328 C74.75953852 306.80039995 78.54187803 306.80585082 82.32421875 306.81079102 C83.07717194 306.81178835 83.83012513 306.81278568 84.60589509 306.81381323 C96.77662196 306.82796756 108.9461809 306.7753184 121.11662908 306.69770769 C133.61734441 306.61948817 146.11660304 306.61369136 158.61742342 306.67425269 C166.32399377 306.70933114 174.02621011 306.68882465 181.732316 306.59577801 C187.65492495 306.53033856 193.57431497 306.56597236 199.49692726 306.63815117 C201.91636939 306.6521025 204.33625542 306.63393907 206.75514412 306.58034515 C224.48986202 306.21378924 224.48986202 306.21378924 230.29632902 310.8227365 C234.46745578 315.25509569 237.55871753 320.20136995 240.52333903 325.49103773 C243.01973082 329.73260229 246.0256959 333.58661045 249 337.5 C250.1663586 339.07773224 251.3306925 340.6569651 252.4921875 342.23828125 C253.06936523 343.02154785 253.64654297 343.80481445 254.24121094 344.61181641 C256.01877272 347.02549067 257.79472586 349.44034121 259.5703125 351.85546875 C265.01636895 359.26019463 270.47457766 366.65424366 276 374 C282.12906449 382.14826662 288.17419626 390.35726164 294.21337891 398.57226562 C295.98714006 400.98252539 297.76443644 403.39013424 299.54296875 405.796875 C305.51761633 413.88396366 311.46983979 421.98699432 317.375 430.125 C318.22396851 431.29011108 318.22396851 431.29011108 319.09008789 432.47875977 C319.60434326 433.18959717 320.11859863 433.90043457 320.6484375 434.6328125 C321.10395996 435.26074707 321.55948242 435.88868164 322.02880859 436.53564453 C323 438 323 438 323 439 C176.15 439 29.3 439 -122 439 C-122.66 440.65 -123.32 442.3 -124 444 C-125.60335865 446.32161808 -127.23126904 448.56987286 -128.9375 450.8125 C-133.10017591 456.37947733 -137.13840062 462.01214729 -141.0625 467.75 C-141.52712646 468.42909424 -141.99175293 469.10818848 -142.47045898 469.80786133 C-144.32770476 472.52940755 -146.17232703 475.25849055 -148 478 C-146.9471689 477.9962028 -145.89433781 477.99240559 -144.80960274 477.98849332 C-98.41294178 477.821814 -52.01626063 477.66753483 -5.61938477 477.5765686 C-4.5658529 477.57449775 -4.5658529 477.57449775 -3.49103756 477.57238506 C11.77278122 477.54245643 27.03660328 477.51475455 42.30043024 477.48934671 C49.78573677 477.47687327 57.27104241 477.46390774 64.75634766 477.45068359 C65.50122809 477.449376 66.24610852 477.44806841 67.01356108 477.4467212 C91.16017096 477.40410268 115.30654694 477.3289861 139.45301509 477.23702779 C164.26532585 477.14270528 189.07750715 477.08114646 213.88999417 477.0608501 C217.39404999 477.05796852 220.89810537 477.05471216 224.40216064 477.05122757 C225.4366397 477.05021622 225.4366397 477.05021622 226.49201733 477.04918445 C237.59655208 477.03736416 248.7006867 476.99097596 259.80505823 476.93167966 C270.96701086 476.8728129 282.12857422 476.85112836 293.2907148 476.86498623 C299.33961269 476.87140499 305.38733556 476.86142121 311.43602562 476.80794525 C316.97230181 476.75935599 322.50661073 476.75677037 328.04297662 476.79101105 C330.04718291 476.79524396 332.05151089 476.78248927 334.0554769 476.75116818 C349.03289166 476.53066199 349.03289166 476.53066199 353.88827324 480.15740514 C355.9472228 482.68563318 357.47723727 485.12555234 359 488 C360.02334264 489.43056923 361.06425104 490.84897712 362.1328125 492.24609375 C363.1325422 493.6415601 364.12988119 495.03874185 365.125 496.4375 C366.25312516 498.01097697 367.38205874 499.58387459 368.51171875 501.15625 C369.37289307 502.35507812 369.37289307 502.35507812 370.25146484 503.578125 C373.11987135 507.55112033 376.02697746 511.49530189 378.9375 515.4375 C379.51838379 516.22439209 380.09926758 517.01128418 380.69775391 517.82202148 C381.87623802 519.41781076 383.05494914 521.01343242 384.23388672 522.60888672 C387.74312623 527.35999147 391.24461276 532.11681291 394.74755859 536.87255859 C397.67420749 540.84531489 400.60270774 544.81667846 403.53515625 548.78515625 C409.77471072 557.23340257 415.9706422 565.71006584 422.10791016 574.23291016 C427.75718083 582.06877486 433.49312892 589.83992854 439.23388672 597.60888672 C442.74312623 602.35999147 446.24461276 607.11681291 449.74755859 611.87255859 C452.67420749 615.84531489 455.60270774 619.81667846 458.53515625 623.78515625 C464.76476561 632.21993707 470.95547063 640.67986814 477.07714844 649.19335938 C481.88281648 655.86642329 486.76848241 662.47944926 491.68359375 669.07226562 C492.24820313 669.83345703 492.8128125 670.59464844 493.39453125 671.37890625 C493.89831299 672.0551001 494.40209473 672.73129395 494.92114258 673.42797852 C496 675 496 675 496 676 C169.96 676 -156.08 676 -492 676 C-484.1876947 663.72352025 -484.1876947 663.72352025 -480.1875 658.6875 C-476.74762939 654.30010438 -473.41206543 649.8606151 -470.1875 645.3125 C-469.57636353 644.45084229 -469.57636353 644.45084229 -468.95288086 643.57177734 C-468.09326847 642.35916006 -467.23381687 641.14642877 -466.37451172 639.93359375 C-458.77411498 629.24173901 -451.02728841 618.65647546 -443.23144531 608.10668945 C-439.2864035 602.76230525 -435.38061369 597.39131488 -431.5 592 C-426.45992181 584.99784758 -421.35786615 578.04386744 -416.23046875 571.10546875 C-412.28584596 565.76142324 -408.38030944 560.39089219 -404.5 555 C-399.45992181 547.99784758 -394.35786615 541.04386744 -389.23046875 534.10546875 C-385.28584596 528.76142324 -381.38030944 523.39089219 -377.5 518 C-372.45992181 510.99784758 -367.35786615 504.04386744 -362.23046875 497.10546875 C-358.28584596 491.76142324 -354.38030944 486.39089219 -350.5 481 C-345.45992181 473.99784758 -340.35786615 467.04386744 -335.23046875 460.10546875 C-331.28584596 454.76142324 -327.38030944 449.39089219 -323.5 444 C-319.03979047 437.80345586 -314.53740365 431.64023977 -310 425.5 C-303.26446941 416.38251634 -296.62136363 407.20059231 -290 398 C-282.79877656 387.9936743 -275.55744101 378.02060494 -268.23071289 368.10571289 C-264.28592959 362.76164384 -260.38037592 357.39098455 -256.5 352 C-251.45992181 344.99784758 -246.35786615 338.04386744 -241.23046875 331.10546875 C-237.28584596 325.76142324 -233.38030944 320.39089219 -229.5 315 C-224.45992181 307.99784758 -219.35786615 301.04386744 -214.23046875 294.10546875 C-210.28584596 288.76142324 -206.38030944 283.39089219 -202.5 278 C-197.45992181 270.99784758 -192.35786615 264.04386744 -187.23046875 257.10546875 C-183.28584596 251.76142324 -179.38030944 246.39089219 -175.5 241 C-170.45992181 233.99784758 -165.35786615 227.04386744 -160.23046875 220.10546875 C-156.28584596 214.76142324 -152.38030944 209.39089219 -148.5 204 C-144.03979047 197.80345586 -139.53740365 191.64023977 -135 185.5 C-128.26446941 176.38251634 -121.62136363 167.20059231 -115 158 C-107.79877656 147.9936743 -100.55744101 138.02060494 -93.23071289 128.10571289 C-89.28592959 122.76164384 -85.38037592 117.39098455 -81.5 112 C-76.45992181 104.99784758 -71.35786615 98.04386744 -66.23046875 91.10546875 C-62.28584596 85.76142324 -58.38030944 80.39089219 -54.5 75 C-49.45992181 67.99784758 -44.35786615 61.04386744 -39.23046875 54.10546875 C-34.7461175 48.03021683 -30.31796233 41.91628496 -25.90771484 35.78710938 C-21.26798234 29.34829692 -16.56045595 22.96078364 -11.83496094 16.5847168 C-8.17821649 11.6395884 -4.62628356 6.65110425 -1.234375 1.51953125 C-0.82703125 1.01808594 -0.4196875 0.51664062 0 0 Z " fill="#2A2928" transform="translate(538,94)"/>
<path d="M0 0 C14.85 0 29.7 0 45 0 C47.27514605 6.14806512 49.54989502 12.2962746 51.82373047 18.44482422 C52.59337107 20.52563336 53.36321952 22.60636563 54.13330078 24.68701172 C56.76177592 31.78904847 59.38315004 38.89367218 62 46 C62.36955811 47.00166199 62.73911621 48.00332397 63.11987305 49.03533936 C70.77477768 69.80466044 70.77477768 69.80466044 73.5 79.375 C73.75007813 80.22964844 74.00015625 81.08429688 74.2578125 81.96484375 C74.84496102 83.9746983 75.4236185 85.98703128 76 88 C76.24419678 87.19111328 76.48839355 86.38222656 76.73999023 85.54882812 C82.70835823 65.9024388 89.18040242 46.47101047 96.0625 27.125 C96.44107147 26.06031494 96.81964294 24.99562988 97.20968628 23.89868164 C98.29491559 20.85085113 99.38277804 17.80398347 100.47265625 14.7578125 C100.79932281 13.84464264 101.12598938 12.93147278 101.46255493 11.9906311 C101.76760956 11.14181366 102.07266418 10.29299622 102.38696289 9.41845703 C102.65134659 8.68241241 102.91573029 7.9463678 103.18812561 7.1880188 C104.08315128 4.77590554 105.04448163 2.38879592 106 0 C120.85 0 135.7 0 151 0 C151 51.15 151 102.3 151 155 C138.46 155 125.92 155 113 155 C112.9363106 147.53654637 112.87631132 140.07413107 112.84474945 132.61064148 C112.82919412 129.13174284 112.80858772 125.65307926 112.77368164 122.17431641 C112.59669873 104.06174713 113.36223907 86.50277126 115.72758484 68.51263428 C116.07185768 65.75844371 116.07185768 65.75844371 116 62 C115.65445068 63.00224609 115.30890137 64.00449219 114.95288086 65.03710938 C108.08751026 84.92118961 101.07492344 104.74070928 93.6875 124.4375 C93.35781219 125.31905762 93.02812439 126.20061523 92.68844604 127.10888672 C91.75809178 129.59347817 90.82343831 132.07639604 89.88671875 134.55859375 C89.46891144 135.67294044 89.46891144 135.67294044 89.04266357 136.80979919 C87.11626465 141.88373535 87.11626465 141.88373535 86 143 C84.36527118 143.08700342 82.72685945 143.10701063 81.08984375 143.09765625 C80.10048828 143.09443359 79.11113281 143.09121094 78.09179688 143.08789062 C77.05087891 143.07951172 76.00996094 143.07113281 74.9375 143.0625 C73.89271484 143.05798828 72.84792969 143.05347656 71.77148438 143.04882812 C69.1809334 143.03699913 66.59049441 143.02051689 64 143 C59.62315706 132.80430636 55.70132224 122.4516396 51.8125 112.0625 C51.48595428 111.19214111 51.15940857 110.32178223 50.82296753 109.42504883 C44.93278057 93.71020636 39.3363768 77.91140859 34 62 C34.12117188 62.93416748 34.24234375 63.86833496 34.3671875 64.83081055 C38.18240333 94.93286346 38.41839685 124.68947287 38 155 C25.46 155 12.92 155 0 155 C0 103.85 0 52.7 0 0 Z M117 56 C118 58 118 58 118 58 Z " fill="#F09226" transform="translate(182,828)"/>
<path d="M0 0 C89.76043956 0 89.76043956 0 104.9609375 13.77734375 C112.49541023 21.55024916 114.61108629 30.47237589 114.47290039 41.08032227 C114.04324408 50.85063692 110.33456628 59.56247395 104 67 C101.7478361 68.93495772 99.53496084 70.42832428 97 72 C98.79725024 73.19816682 100.62047899 74.36040381 102.48828125 75.4453125 C111.55602384 80.83829911 116.94033998 86.57101995 120.30859375 96.67578125 C122.85625798 108.92472056 121.93959802 121.84811825 115.375 132.625 C106.30507984 145.26927293 93.80085134 150.62262453 79 154 C52.86792258 157.26650968 26.33544295 155 0 155 C0 103.85 0 52.7 0 0 Z M41 33 C41 41.91 41 50.82 41 60 C45.95 60.12375 45.95 60.12375 51 60.25 C52.53527344 60.30462402 52.53527344 60.30462402 54.1015625 60.36035156 C60.2380555 60.43397048 64.92013676 59.59321039 70 56 C72.7994637 52.56839934 73.73581998 49.40300028 74 45 C73.2797226 40.82239109 72.64017168 38.64017168 69.625 35.625 C65.64838001 33.16328287 62.42715619 32.87542351 57.796875 32.90234375 C56.91354492 32.90484131 56.03021484 32.90733887 55.12011719 32.90991211 C54.00797852 32.91901611 52.89583984 32.92812012 51.75 32.9375 C46.42875 32.9684375 46.42875 32.9684375 41 33 Z M41 91 C41 101.56 41 112.12 41 123 C44.444375 123.04125 47.88875 123.0825 51.4375 123.125 C52.50411865 123.14320801 53.5707373 123.16141602 54.66967773 123.18017578 C63.32010983 123.22979432 71.14027468 122.90937716 77.62109375 116.69921875 C80.76647319 112.82318459 81.21880318 108.68824458 80.875 103.875 C79.93203029 99.69899128 79.08499107 97.9182348 76 95 C68.42533637 90.28687596 60.17946228 90.86518535 51.5625 90.9375 C48.076875 90.958125 44.59125 90.97875 41 91 Z " fill="#F09226" transform="translate(366,828)"/>
<path d="M0 0 C0.88602402 0.00222061 1.77204803 0.00444122 2.68492126 0.00672913 C3.68588333 0.00680466 4.6868454 0.00688019 5.71813965 0.00695801 C6.80666733 0.01211929 7.89519501 0.01728058 9.01670837 0.02259827 C10.67928932 0.02472069 10.67928932 0.02472069 12.37545776 0.02688599 C15.93168281 0.03250418 19.48784596 0.04505977 23.04405212 0.05775452 C25.44834809 0.06276717 27.85264504 0.06733048 30.25694275 0.07142639 C36.16516716 0.08247952 42.07335522 0.09923535 47.98155212 0.12025452 C58.26169715 33.44676927 68.51222298 66.78224243 78.67787552 100.14387894 C79.34923208 102.34624136 80.02128832 104.54838909 80.69355774 106.75047302 C81.76547477 110.26199815 82.83542823 113.7741162 83.90398598 117.28666496 C84.47180619 119.15187648 85.04128684 121.01658229 85.61087036 122.8812561 C88.86544344 133.59477228 91.90392491 144.34855926 94.98155212 155.12025452 C80.13155212 155.12025452 65.28155212 155.12025452 49.98155212 155.12025452 C48.82655212 150.04650452 47.67155212 144.97275452 46.48155212 139.74525452 C46.11610291 138.14504456 45.75065369 136.54483459 45.37413025 134.89613342 C45.08989197 133.64235901 44.80565369 132.38858459 44.51280212 131.09681702 C44.36165955 130.43770325 44.21051697 129.77858948 44.05479431 129.09950256 C42.98155212 124.34839812 42.98155212 124.34839812 42.98155212 122.12025452 C29.12155212 122.12025452 15.26155212 122.12025452 0.98155212 122.12025452 C0.32155212 126.08025452 -0.33844788 130.04025452 -1.01844788 134.12025452 C-1.860179 137.88508829 -2.72240322 141.6261805 -3.64344788 145.37025452 C-4.42719788 148.58775452 -5.21094788 151.80525452 -6.01844788 155.12025452 C-20.20844788 155.12025452 -34.39844788 155.12025452 -49.01844788 155.12025452 C-45.64357591 141.62076664 -45.64357591 141.62076664 -44.15931702 136.74671936 C-43.654785 135.08200089 -43.654785 135.08200089 -43.14006042 133.38365173 C-42.78152985 132.21134003 -42.42299927 131.03902832 -42.05360413 129.83119202 C-41.66368156 128.54840479 -41.27403113 127.26553481 -40.8846283 125.98258972 C-40.05316041 123.24516029 -39.21988467 120.50829068 -38.38511658 117.77186584 C-37.06216358 113.43509799 -35.74323548 109.09711257 -34.42494202 104.75892639 C-32.80949888 99.44377228 -31.19312563 94.12890281 -29.57557964 88.81438828 C-25.12874435 74.20337256 -20.70100651 59.58657615 -16.27354431 44.96968079 C-14.97622338 40.68686918 -13.67817539 36.40427814 -12.38002014 32.12171936 C-11.7729812 30.11890486 -11.16595975 28.11608507 -10.55894852 26.11326218 C-10.00498686 24.28558333 -9.45091337 22.45793837 -8.89683533 20.6302948 C-8.56048065 19.52032135 -8.22412598 18.4103479 -7.87757874 17.26673889 C-7.56215118 16.22799622 -7.24672363 15.18925354 -6.92173767 14.11903381 C-6.32045739 12.12287834 -5.7271011 10.12431852 -5.14176941 8.12342834 C-4.8749234 7.21294739 -4.60807739 6.30246643 -4.33314514 5.36439514 C-4.10208572 4.56602234 -3.87102631 3.76764954 -3.63296509 2.94508362 C-2.79822733 0.46630236 -2.65102008 0.15794172 0 0 Z M20.98155212 33.12025452 C20.86071259 33.66625305 20.73987305 34.21225159 20.6153717 34.77479553 C19.35120184 40.48577803 18.0855095 46.19642162 16.81895447 51.90687561 C16.34721393 54.03471968 15.87585448 56.16264827 15.40489197 58.29066467 C14.7257324 61.35908752 14.045178 64.42719825 13.36436462 67.49525452 C13.05174179 68.90979919 13.05174179 68.90979919 12.73280334 70.35292053 C11.82636675 74.43222742 10.89471171 78.49254074 9.83262634 82.53431702 C8.82760417 86.15464445 8.82760417 86.15464445 8.98155212 90.12025452 C17.56155212 90.12025452 26.14155212 90.12025452 34.98155212 90.12025452 C34.1600901 83.44391446 34.1600901 83.44391446 32.88999939 76.92933655 C32.67630203 75.99542084 32.46260468 75.06150513 32.24243164 74.09928894 C32.01325546 73.11878571 31.78407928 72.13828247 31.54795837 71.12806702 C31.19096107 69.58734024 31.19096107 69.58734024 30.82675171 68.01548767 C30.3253932 65.85850616 29.82186215 63.70202859 29.31626892 61.54603577 C28.54205449 58.23671579 27.78007545 54.92472748 27.0186615 51.61244202 C26.52916832 49.51331071 26.03895926 47.41434618 25.54795837 45.31556702 C25.32080643 44.3229184 25.09365448 43.33026978 24.85961914 42.30754089 C24.64276962 41.39253815 24.4259201 40.4775354 24.20249939 39.5348053 C24.014543 38.72842621 23.82658661 37.92204712 23.63293457 37.0912323 C23.07826645 34.91729859 23.07826645 34.91729859 20.98155212 33.12025452 Z " fill="#F09226" transform="translate(540.0184478759766,827.8797454833984)"/>
<path d="M0 0 C33 0 66 0 100 0 C100 11.55 100 23.1 100 35 C80.86 35 61.72 35 42 35 C42 42.92 42 50.84 42 59 C58.5 59 75 59 92 59 C92 70.55 92 82.1 92 94 C75.5 94 59 94 42 94 C42 102.58 42 111.16 42 120 C62.13 120 82.26 120 103 120 C103 131.55 103 143.1 103 155 C69.01 155 35.02 155 0 155 C0 103.85 0 52.7 0 0 Z " fill="#F09226" transform="translate(51,828)"/>
<path d="M0 0 C3.22715461 2.46590662 6.30532519 5.08660908 9.32324219 7.80273438 C6.40714974 12.30008821 3.27668808 16.5407772 -0.05175781 20.74023438 C-0.77649292 21.65893311 -0.77649292 21.65893311 -1.51586914 22.59619141 C-4.80750138 26.75177346 -8.1719004 30.82424759 -11.67675781 34.80273438 C-12.67835938 34.2484375 -13.67996094 33.69414063 -14.71191406 33.12304688 C-16.05416298 32.3909111 -17.39662219 31.65916076 -18.73925781 30.92773438 C-19.39603516 30.56292969 -20.0528125 30.198125 -20.72949219 29.82226562 C-27.59593372 26.10153376 -33.8847328 24.45286746 -41.73925781 24.49023438 C-42.76116211 24.46606445 -42.76116211 24.46606445 -43.80371094 24.44140625 C-48.49621368 24.43689856 -51.72263902 25.27946037 -55.67675781 27.80273438 C-57.41477516 30.59972141 -57.41477516 30.59972141 -57.67675781 33.80273438 C-55.69260263 38.18155961 -53.5075157 39.85069678 -49.23925781 41.92773438 C-48.66014648 42.2099585 -48.08103516 42.49218262 -47.484375 42.78295898 C-39.46238228 46.55900573 -31.10467972 49.6168851 -22.80395508 52.71923828 C-9.71341649 57.69598687 2.38688569 63.93717418 9.26074219 76.74023438 C14.80828752 89.15525824 14.91695747 103.05776491 10.32324219 115.80273438 C3.21135026 130.67305387 -8.06841844 139.31213782 -23.43847656 144.80273438 C-44.35827606 151.26288959 -68.11711248 148.32891575 -87.67675781 138.80273438 C-93.99929263 135.30137952 -99.93905972 131.18956666 -105.67675781 126.80273438 C-105.07498542 123.46525477 -103.9428356 121.58489681 -101.76269531 119.00976562 C-101.16924316 118.30070068 -100.57579102 117.59163574 -99.96435547 116.86108398 C-99.33319824 116.11995361 -98.70204102 115.37882324 -98.05175781 114.61523438 C-96.77482775 113.09254144 -95.49877733 111.56911039 -94.22363281 110.04492188 C-93.30420898 108.95002441 -93.30420898 108.95002441 -92.36621094 107.83300781 C-89.3706221 104.23310655 -86.50504012 100.5347911 -83.67675781 96.80273438 C-79.47053557 98.3286759 -75.75201879 100.45510167 -71.92675781 102.74023438 C-66.6656065 105.81538042 -61.62356868 108.30959572 -55.67675781 109.80273438 C-54.87238281 110.02960938 -54.06800781 110.25648438 -53.23925781 110.49023438 C-45.69729071 111.40998646 -39.58152026 111.13181627 -32.67675781 107.80273438 C-30.18838816 104.07017989 -30.13449229 102.21832503 -30.67675781 97.80273438 C-34.97011213 93.35604598 -40.76745663 91.39679562 -46.36425781 89.05273438 C-48.43595669 88.16491021 -50.50757028 87.27688702 -52.57910156 86.38867188 C-55.49443951 85.14909375 -58.41134349 83.91385619 -61.33349609 82.69042969 C-77.14261526 76.0645259 -90.34312666 69.10194514 -97.55175781 52.67773438 C-99.21665265 48.36538382 -100.40866769 44.44962976 -100.67675781 39.80273438 C-100.80050781 38.00835938 -100.80050781 38.00835938 -100.92675781 36.17773438 C-100.72885042 25.96571301 -97.60541292 17.03293127 -91.67675781 8.80273438 C-91.22429688 8.16722656 -90.77183594 7.53171875 -90.30566406 6.87695312 C-69.81989689 -19.29608085 -25.0744444 -17.90405872 0 0 Z " fill="#F09226" transform="translate(873.6767578125,838.197265625)"/>
<path d="M0 0 C3.23358297 2.46928154 6.18720861 5.06219566 9 8 C7.66718669 10.87686345 6.16034904 13.2080609 4.13671875 15.64453125 C3.57919922 16.32193359 3.02167969 16.99933594 2.44726562 17.69726562 C1.86654297 18.39529297 1.28582031 19.09332031 0.6875 19.8125 C-3.41010388 24.75468362 -7.32886997 29.73092969 -11 35 C-14.30331929 33.82785445 -17.23136792 32.3176416 -20.25 30.5625 C-27.63588964 26.47668871 -33.66670273 24.73848131 -42.1875 24.625 C-42.86498291 24.61106201 -43.54246582 24.59712402 -44.24047852 24.58276367 C-48.87005094 24.62649782 -52.07624737 25.55881854 -56 28 C-57.44430855 30.88861709 -57.37688506 32.79647701 -57 36 C-52.6407716 41.98034735 -45.88188648 43.79739441 -39.1875 46.375 C-36.74432744 47.34518595 -34.3016168 48.31653595 -31.859375 49.2890625 C-30.67923828 49.75473633 -29.49910156 50.22041016 -28.28320312 50.70019531 C-11.1970568 57.46452034 3.22222335 63.73822621 11.01953125 81.3515625 C14.93625747 91.93140465 14.42927884 105.94237053 10.31640625 116.33203125 C3.3140526 130.52374504 -8.15008828 139.91699821 -23 145 C-45.64349656 151.70980493 -70.08143337 147.92243054 -90.8125 137.125 C-101.1295737 131.18579437 -101.1295737 131.18579437 -105 127 C-105 122.50206646 -105 122.50206646 -102.47265625 119.71484375 C-101.9314917 119.10648682 -101.39032715 118.49812988 -100.83276367 117.87133789 C-100.24857666 117.23317139 -99.66438965 116.59500488 -99.0625 115.9375 C-97.87114436 114.60267841 -96.68104894 113.26673104 -95.4921875 111.9296875 C-94.60611816 110.9392041 -94.60611816 110.9392041 -93.70214844 109.92871094 C-89.99889244 105.73253733 -86.50778553 101.35980578 -83 97 C-80.57997177 98.14508653 -78.32885198 99.40906384 -76.0390625 100.8046875 C-64.75894575 107.6450329 -52.18746878 113.48610417 -38.71484375 110.4921875 C-35.43879586 109.45764606 -33.23559848 108.24945722 -30.875 105.75 C-29.94069495 102.81361269 -29.66019488 100.69290147 -30.70947266 97.74462891 C-36.43744371 90.00114022 -51.6592134 86.77370362 -60.43920898 83.32543945 C-76.43046754 77.02281817 -90.51329036 69.01966277 -97.96875 52.90625 C-101.8459767 42.42337781 -101.72692331 28.61752077 -97.26171875 18.38671875 C-88.8732387 2.51872708 -76.89245846 -5.44297893 -60 -11 C-39.39985424 -15.76813799 -17.69182292 -11.08569427 0 0 Z " fill="#F09226" transform="translate(745,838)"/>
<path d="M0 0 C14.85 0 29.7 0 45 0 C46.93875 5.5275 48.8775 11.055 50.875 16.75 C56.52816512 32.85332396 62.24176817 48.93395587 68 65 C68.19965363 64.42165405 68.39930725 63.84330811 68.60501099 63.24743652 C70.71200667 57.14536297 72.82198955 51.04432794 74.93359375 44.94384766 C75.7178656 42.67685203 76.50141353 40.40960581 77.28417969 38.14208984 C78.41924789 34.85445623 79.55704885 31.56777845 80.6953125 28.28125 C81.03619904 27.29201538 81.37708557 26.30278076 81.728302 25.28356934 C84.67397036 16.79226638 87.84075457 8.42465449 91 0 C105.52 0 120.04 0 135 0 C132.75019766 6.74940702 132.75019766 6.74940702 131.29858398 9.85766602 C130.97258209 10.56001373 130.6465802 11.26236145 130.31069946 11.98599243 C129.95937958 12.73440399 129.60805969 13.48281555 129.24609375 14.25390625 C128.87318207 15.05533051 128.50027039 15.85675476 128.11605835 16.6824646 C127.31197016 18.40971685 126.50644107 20.13629891 125.69961548 21.86227417 C123.98584352 25.52879391 122.27940599 29.1987104 120.57261658 32.8684845 C119.69182406 34.76218789 118.81068672 36.65573094 117.92921448 38.54911804 C113.89023609 47.22666184 109.87780221 55.9162584 105.88088989 64.61325073 C104.52247711 67.56843584 103.16193218 70.52263588 101.79975891 73.47608948 C101.15560907 74.88307052 100.5181126 76.29311706 99.88737488 77.7061615 C98.3021196 81.2483809 96.64534251 84.69269056 94.77099609 88.09179688 C87.63046076 101.55272981 87.8728735 114.6523235 88 129.625 C87.99188971 132.09636864 87.98019568 134.56772823 87.96484375 137.0390625 C87.92871858 143.02781212 87.96584243 149.00961645 88 155 C74.47 155 60.94 155 47 155 C47.1134375 151.58011719 47.226875 148.16023437 47.34375 144.63671875 C47.92862805 117.96917117 46.7481721 96.75166047 33.52206421 73.37918091 C29.14496459 65.64014857 25.54612084 57.56812508 21.89492798 49.46829224 C20.03545157 45.35803503 18.13803514 41.26544987 16.2421875 37.171875 C15.88177872 36.39187637 15.52136993 35.61187775 15.15003967 34.8082428 C13.14114689 30.46066545 11.12542921 26.11633473 9.10253906 21.7752533 C8.22647756 19.89501277 7.35179421 18.01413763 6.47753906 16.13305664 C5.43845599 13.89896472 4.39632345 11.66628759 3.35058594 9.43530273 C2.90231445 8.47052002 2.45404297 7.5057373 1.9921875 6.51171875 C1.60401855 5.68115967 1.21584961 4.85060059 0.81591797 3.99487305 C0 2 0 2 0 0 Z " fill="#F09226" transform="translate(886,828)"/>
</svg>
