<?xml version="1.0" encoding="UTF-8"?>
<svg version="1.1" xmlns="http://www.w3.org/2000/svg" width="1080" height="1080">
<path d="M0 0 C0 9.57 0 19.14 0 29 C-3.87762244 27.44895102 -5.77574903 26.59275974 -8.8125 24.125 C-20.24707592 15.38966412 -33.72650436 12.69760952 -48 14 C-51.05956489 14.67339706 -53.14540434 15.57270217 -56 17 C-57.051875 17.515625 -58.10375 18.03125 -59.1875 18.5625 C-64.43341659 23.10896104 -67.50141343 30.10780458 -68.20532227 37.01464844 C-68.24197998 37.7059082 -68.2786377 38.39716797 -68.31640625 39.109375 C-68.35830078 39.86347656 -68.40019531 40.61757813 -68.44335938 41.39453125 C-68.48267578 42.17183594 -68.52199219 42.94914062 -68.5625 43.75 C-68.62727539 44.93916016 -68.62727539 44.93916016 -68.69335938 46.15234375 C-68.79902991 48.10137815 -68.89997966 50.05066748 -69 52 C-68.07899002 51.98812133 -68.07899002 51.98812133 -67.13937378 51.97600269 C-52.12926252 51.78351424 -37.11905543 51.60882317 -22.10852051 51.45341206 C-14.8492358 51.37783375 -7.59010656 51.29645492 -0.33105469 51.20092773 C6.00338753 51.11758342 12.33784484 51.04562443 18.67256355 50.98676747 C22.02006053 50.95528273 25.3671008 50.91678792 28.7144165 50.86800575 C63.02625292 50.37681723 63.02625292 50.37681723 77.3125 57.25 C77.97290283 57.55591064 78.63330566 57.86182129 79.3137207 58.17700195 C99.43703483 67.72327301 113.15049578 82.76872193 124 102 C124.21914063 100.88882813 124.43828125 99.77765625 124.6640625 98.6328125 C127.65711861 84.26711285 132.5830248 73.45014755 145.0625 64.90234375 C169.89481024 49.36907927 199.13290325 50.20651887 227 55 C227.77698242 55.1232666 228.55396484 55.2465332 229.35449219 55.37353516 C231.43787423 55.71891607 233.49664518 56.12549726 235.5625 56.5625 C236.69816406 56.79066406 237.83382813 57.01882813 239.00390625 57.25390625 C243.76169003 60.02669549 244.95073502 64.02174803 247 69 C247.40594894 69.97228043 247.40594894 69.97228043 247.82009888 70.96420288 C249.81314948 75.74550873 251.74948428 80.54847479 253.67028809 85.35919189 C255.5414555 90.0440916 257.42715685 94.72313456 259.3125 99.40234375 C259.70008484 100.36491089 260.08766968 101.32747803 260.48699951 102.31921387 C264.50551199 112.28329112 268.62136853 122.20616285 272.75 132.125 C277.70761737 144.04752549 282.65695215 155.97307782 287.53088379 167.93011475 C288.08350729 169.2852211 288.63709964 170.63993285 289.19177246 171.99420166 C292.03234198 178.93319401 294.73507822 185.85085914 297 193 C300.36794965 186.55769952 303.08274726 179.97309935 305.7109375 173.19921875 C306.3785183 171.49255791 306.3785183 171.49255791 307.05958557 169.75141907 C308.25463419 166.69517363 309.44654938 163.63772805 310.63737106 160.57983398 C311.87422623 157.406771 313.11588013 154.23558906 314.35766602 151.06445312 C314.60436822 150.43443956 314.85107042 149.804426 315.10524845 149.15532112 C315.60233238 147.88597864 316.09944236 146.61664636 316.5965786 145.34732437 C317.33880427 143.45187331 318.08061528 141.5562604 318.82234192 139.66061401 C322.54991086 130.13738841 326.29696709 120.62225062 330.0894165 111.12466431 C330.64219524 109.73981334 331.19396228 108.35455798 331.74456787 106.96884155 C334.6141469 99.74921652 337.55944341 92.5610843 340.60546875 85.4140625 C341.01622902 84.42660034 341.01622902 84.42660034 341.43528748 83.41918945 C345.61214609 73.74762692 352.91729344 67.04931767 362 62 C362.76183594 61.56042969 363.52367187 61.12085938 364.30859375 60.66796875 C389.24916096 47.78914231 421.18509938 51.25552981 447 59 C447 68.9 447 78.8 447 89 C442.77586675 87.3103467 439.49438276 85.54134475 435.6875 83.125 C421.18611032 74.0646848 406.45522652 68.44354902 388.99609375 71.53125 C379.93778617 73.84937044 372.13920375 76.81984729 367 85 C362.82393024 93.2224479 361.62135126 101.4280955 363.51953125 110.4765625 C367.35196639 121.46413517 380.69521774 126.72086429 390.4375 131.4375 C391.56551025 131.9938916 392.69352051 132.5502832 393.85571289 133.12353516 C400.81626676 136.5322844 407.84288442 139.75689289 414.9375 142.875 C422.06455369 146.01649788 428.67790054 149.39834072 435 154 C435.86882813 154.61359375 436.73765625 155.2271875 437.6328125 155.859375 C447.31452299 163.08453208 454.38764384 173.07924835 457 185 C458.37813879 202.17244458 455.84162443 217.27181322 445 231.125 C430.96205107 246.18332848 408.90607888 252.10989078 389 253 C387.32550781 253.07927734 387.32550781 253.07927734 385.6171875 253.16015625 C370.52992752 253.52852884 354.85946133 251.18534099 341 245 C340.20360107 244.70480469 339.40720215 244.40960937 338.58666992 244.10546875 C335.6380407 242.69647646 334.00841609 241.60077759 332 239 C330.86509002 233.17598736 331.15073204 227.52508537 331.4375 221.625 C331.48267875 220.01443431 331.52373749 218.40374745 331.56054688 216.79296875 C331.65940196 212.85897577 331.81446429 208.93081986 332 205 C335.65332787 206.72487366 338.27647303 208.87920646 341.3125 211.5625 C359.12787599 226.76025374 378.57287148 233.63710951 402 232 C412.48097095 230.607005 421.77278627 226.17833682 428.5 217.9375 C432.18276588 210.72541682 433.19344487 203.75661642 431.53515625 195.7578125 C427.72937706 184.18283911 417.03925205 178.18026906 406.78857422 172.85009766 C398.96639197 168.94983596 390.97925165 165.41748064 382.96582031 161.93212891 C367.32582172 155.10429411 349.77942329 147.2311159 342 131 C337.66202706 139.11918044 334.21010996 147.55449388 330.7583313 156.07415771 C328.99679174 160.42125414 327.22171614 164.76283172 325.44921875 169.10546875 C325.08211288 170.00597961 324.71500702 170.90649048 324.33677673 171.83428955 C320.44996931 181.3636206 316.51027933 190.8707992 312.5625 200.375 C312.21152252 201.22003082 311.86054504 202.06506165 311.49893188 202.93569946 C310.97026016 204.20853287 310.97026016 204.20853287 310.4309082 205.50708008 C309.71695595 207.22607269 309.00300739 208.94506683 308.2890625 210.6640625 C307.75864601 211.94089149 307.75864601 211.94089149 307.21751404 213.24351501 C304.70620939 219.29141435 302.20649874 225.34402755 299.7109375 231.3984375 C290.37326098 254.03577261 280.79225885 276.55556282 271 299 C261.76 299 252.52 299 243 299 C244.39517589 294.81447234 245.52759139 291.76283229 247.6171875 288.04296875 C248.13571289 287.10815674 248.65423828 286.17334473 249.18847656 285.21020508 C249.7450293 284.2127124 250.30158203 283.21521973 250.875 282.1875 C257.20715697 270.65721139 263.06670799 258.95881929 268.59228516 247.02197266 C269.98766299 244.02648412 271.42084915 241.05106682 272.85546875 238.07421875 C273.71864612 236.21730604 274.57944523 234.35928535 275.4375 232.5 C275.84581055 231.67024658 276.25412109 230.84049316 276.67480469 229.9855957 C277.20509277 228.80163208 277.20509277 228.80163208 277.74609375 227.59375 C278.06247803 226.92021484 278.3788623 226.24667969 278.70483398 225.55273438 C279.50630152 218.62126656 274.76472144 210.830897 272.078125 204.578125 C271.29971569 202.74837564 270.52131433 200.91862289 269.74291992 199.08886719 C269.33657318 198.13733765 268.93022644 197.18580811 268.51156616 196.20544434 C261.92596755 180.77750191 255.44683429 165.313154 249.1875 149.75 C244.68285965 138.56834039 240.13679039 127.40644117 235.45230103 116.29870605 C234.87526859 114.9295973 234.29994709 113.55976569 233.72665405 112.18908691 C230.64869582 104.83835806 227.40558769 97.58462448 223.90234375 90.42578125 C223.58809952 89.77151657 223.27385529 89.11725189 222.9500885 88.44316101 C218.80511459 80.1263043 213.76990578 75.31057697 205 72 C191.80166769 68.37139867 177.57856504 68.964385 165.5 75.8125 C158.88577678 80.15408899 154.54583754 85.65983396 152.3125 93.375 C151.34278643 101.52059399 151.52000463 109.20637034 156.625 115.9375 C160.05279411 119.47023124 163.87032683 121.865831 168.1484375 124.2265625 C168.84686768 124.6154213 169.54529785 125.00428009 170.26489258 125.40492249 C179.05141057 130.22297606 188.17020132 134.33919938 197.29101562 138.47680664 C216.9067989 147.40316062 237.37133088 157.09352852 245.875 178.25 C249.80464484 191.34881612 248.58290601 206.87290829 242.875 219.375 C234.29377919 234.66190534 219.63141559 244.12977737 203.08251953 248.78833008 C179.73790829 255.03937527 153.09936412 254.22368326 131 244 C130.12794922 243.63801514 129.25589844 243.27603027 128.35742188 242.90307617 C126 241 126 241 125.43237305 237.53833008 C125.43316289 236.11515157 125.46131656 234.69181719 125.51171875 233.26953125 C125.52233086 232.14390022 125.52233086 232.14390022 125.53315735 230.99552917 C125.56113343 228.60016905 125.62386991 226.20715253 125.6875 223.8125 C125.71257908 222.18818482 125.73539294 220.56383297 125.75585938 218.93945312 C125.81096957 214.95873329 125.89725767 210.97976385 126 207 C126.50499023 207.38091797 127.00998047 207.76183594 127.53027344 208.15429688 C147.50953611 223.18801167 166.49691985 234.69451887 192.4375 231.25 C201.44819451 229.74470874 208.2188229 227.10305939 215 221 C215.66 221 216.32 221 217 221 C217.268125 220.319375 217.53625 219.63875 217.8125 218.9375 C219 216 219 216 220.625 213 C223.15240055 207.07681 223.1408456 199.65655641 221.23828125 193.55859375 C212.99849256 176.39508133 190.34264181 168.74902588 173.90429688 161.5703125 C139.83846555 146.67693111 139.83846555 146.67693111 135 137 C135.02356567 138.10118164 135.02356567 138.10118164 135.04760742 139.22460938 C135.6924032 173.98372705 128.43455682 203.46530674 104.3125 229.1875 C88.60118681 244.28509002 68.47884324 252.82056846 46.625 253.375 C22.51857021 252.77171083 2.45834057 244.69801083 -15 228 C-16.01513672 227.09701172 -16.01513672 227.09701172 -17.05078125 226.17578125 C-35.70854331 208.93885077 -45.11347436 181.54216607 -46.22265625 156.75 C-47.10721888 125.4680254 -35.98570533 98.96914088 -15.5078125 75.5234375 C-14 74 -14 74 -11 72 C-29.81 71.67 -48.62 71.34 -68 71 C-68 128.42 -68 185.84 -68 245 C-77.24 245 -86.48 245 -96 245 C-96 187.58 -96 130.16 -96 71 C-103.92 71 -111.84 71 -120 71 C-120 64.73 -120 58.46 -120 52 C-112.08 52 -104.16 52 -96 52 C-96 49.69 -96 47.38 -96 45 C-95.37957535 42.35633214 -94.71630673 39.87983842 -93.875 37.3125 C-93.53831299 36.27029297 -93.53831299 36.27029297 -93.19482422 35.20703125 C-87.80840018 19.09588527 -79.66966774 8.50706759 -65 0 C-46.77108532 -7.86175941 -18.07756075 -9.03878038 0 0 Z M2.87890625 92.23828125 C-14.61432069 112.52769652 -18.53858825 139.12907875 -17 165 C-15.01398593 182.37035718 -8.03688298 197.8679225 2 212 C2.73669922 213.04607422 2.73669922 213.04607422 3.48828125 214.11328125 C11.17467514 223.97635305 23.67159318 231.74205003 36 234 C52.351868 234.93851781 65.28850347 231.76705202 78.125 220.9375 C94.23701496 205.69502236 103.54495532 183.05479561 104.23828125 161.04296875 C104.68112444 133.83889297 99.47738133 108.80058298 80.35546875 88.19921875 C69.29558047 77.87298807 56.31557884 71.58385129 41.02734375 71.7890625 C25.1471451 72.89555376 13.54173111 80.98635004 2.87890625 92.23828125 Z " fill="#287AC7" transform="translate(444,396)"/>
<path d="M0 0 C8.00863188 7.80624768 15.79273066 18.4131791 16.28711033 29.99102402 C16.28618854 31.11561146 16.28526674 32.2401989 16.28431702 33.39886475 C16.28637901 35.33816109 16.28637901 35.33816109 16.28848267 37.31663513 C16.28494373 38.74722313 16.28130892 40.1778109 16.27758789 41.60839844 C16.27730579 43.11635842 16.27746421 44.62431854 16.2780304 46.13227844 C16.27831746 50.22489828 16.2724353 54.31748885 16.26545644 58.41010189 C16.2592079 62.68756398 16.25861791 66.96502673 16.25743103 71.24249268 C16.25432215 79.34199766 16.24611471 87.44148916 16.23608154 95.54098821 C16.22490667 104.76218541 16.21940648 113.98338326 16.21438611 123.20458555 C16.20393175 142.1728579 16.18559175 161.14111176 16.1640625 180.109375 C6.9240625 180.109375 -2.3159375 180.109375 -11.8359375 180.109375 C-11.8452832 175.86537842 -11.85462891 171.62138184 -11.86425781 167.2487793 C-11.89805729 153.21103353 -11.95342314 139.17343362 -12.01984024 125.13580608 C-12.05957596 116.62658579 -12.09199613 108.11745724 -12.10693359 99.6081543 C-12.11997856 92.18767345 -12.14701539 84.76739494 -12.19055057 77.34702808 C-12.21310178 73.42136812 -12.22885202 69.49595714 -12.22782135 65.57022667 C-12.22707095 61.86744219 -12.24517204 58.16520674 -12.27710533 54.46256447 C-12.28954983 52.47158237 -12.28256998 50.48050776 -12.27479553 48.48950195 C-12.41051322 36.68677854 -15.2125353 26.55175158 -23.8359375 18.109375 C-33.60474579 10.71807469 -45.00711841 7.15325865 -57.2265625 8.4765625 C-69.59617459 10.68347567 -80.39108925 16.74923645 -88.8359375 26.109375 C-93.08760283 32.28805411 -94.94750496 37.45249218 -94.99415588 44.94329834 C-95.00883911 46.73113991 -95.00883911 46.73113991 -95.02381897 48.55509949 C-95.02957443 49.85917252 -95.0353299 51.16324554 -95.04125977 52.50683594 C-95.05084193 53.89657378 -95.06085222 55.28630873 -95.07125854 56.67604065 C-95.09827698 60.44632617 -95.1193031 64.21662416 -95.13926053 67.98695278 C-95.16113898 71.92811287 -95.18851857 75.86923462 -95.21531677 79.81036377 C-95.26521852 87.27235389 -95.31016669 94.73436531 -95.35333914 102.19639707 C-95.40273303 110.6921213 -95.45764318 119.18780707 -95.51301873 127.68349409 C-95.62680013 145.1587536 -95.73291933 162.6340485 -95.8359375 180.109375 C-105.0759375 180.109375 -114.3159375 180.109375 -123.8359375 180.109375 C-123.8359375 117.079375 -123.8359375 54.049375 -123.8359375 -10.890625 C-114.5959375 -10.890625 -105.3559375 -10.890625 -95.8359375 -10.890625 C-95.5059375 -4.290625 -95.1759375 2.309375 -94.8359375 9.109375 C-93.6396875 7.789375 -92.4434375 6.469375 -91.2109375 5.109375 C-67.73566928 -18.29218751 -25.6702911 -21.09631196 0 0 Z " fill="#287AC7" transform="translate(304.8359375,460.890625)"/>
<path d="M0 0 C10.23 0 20.46 0 31 0 C31 82.17 31 164.34 31 249 C20.77 249 10.54 249 0 249 C0 166.83 0 84.66 0 0 Z " fill="#287AC7" transform="translate(122,392)"/>
<path d="M0 0 C5.80466807 4.32690125 10.1081472 9.3678348 11.91796875 16.4296875 C12.75822453 24.30464284 12.44901354 30.81467787 7.91796875 37.4296875 C7.36109375 38.3165625 6.80421875 39.2034375 6.23046875 40.1171875 C0.98382199 45.36383426 -5.7982902 48.54166602 -13.20703125 48.7421875 C-20.48045803 48.6653217 -25.34609144 46.21857122 -31.33203125 42.3046875 C-36.99345073 36.38593077 -39.38537124 30.64095271 -39.70703125 22.4296875 C-39.39604365 14.90051399 -37.61448807 9.04661611 -32.28515625 3.58984375 C-22.93372856 -4.0596241 -10.80976188 -6.10695826 0 0 Z M-32.08203125 11.4296875 C-34.87374455 16.87759404 -34.6019892 22.45017111 -34.08203125 28.4296875 C-31.96422474 34.56018004 -27.92080465 38.57558627 -22.33203125 41.7421875 C-17.17493289 44.11716701 -12.3817383 44.44915823 -6.9453125 42.76953125 C-0.86356974 40.09356443 2.94318089 35.75092163 6.29296875 30.1171875 C7.85999085 23.37899247 7.67232094 17.24361648 4.17578125 11.1796875 C0.29217203 5.77640511 -4.82488365 3.11480658 -11.08203125 1.4296875 C-19.34819469 0.18976298 -26.89683092 5.46548994 -32.08203125 11.4296875 Z " fill="#2777C4" transform="translate(946.08203125,388.5703125)"/>
<path d="M0 0 C1.12148438 0.05542969 2.24296875 0.11085938 3.3984375 0.16796875 C7.21257665 0.92987306 8.97313147 1.98351224 11.625 4.8125 C12.11328125 7.171875 12.11328125 7.171875 11.9375 9.5625 C11.86982422 10.76132812 11.86982422 10.76132812 11.80078125 11.984375 C11.74277344 12.58765625 11.68476562 13.1909375 11.625 13.8125 C9.645 14.8025 9.645 14.8025 7.625 15.8125 C9.275 19.7725 10.925 23.7325 12.625 27.8125 C10.315 27.8125 8.005 27.8125 5.625 27.8125 C5.39425781 27.17441406 5.16351562 26.53632813 4.92578125 25.87890625 C3.95049888 23.40793393 2.97661692 21.10118041 1.625 18.8125 C-0.9837705 17.6011547 -0.9837705 17.6011547 -3.375 17.8125 C-3.375 21.1125 -3.375 24.4125 -3.375 27.8125 C-5.355 27.8125 -7.335 27.8125 -9.375 27.8125 C-9.375 18.9025 -9.375 9.9925 -9.375 0.8125 C-5.95548785 -0.32733738 -3.58909639 -0.21764543 0 0 Z M-3.375 5.8125 C-3.375 7.7925 -3.375 9.7725 -3.375 11.8125 C-0.735 11.8125 1.905 11.8125 4.625 11.8125 C4.955 10.4925 5.285 9.1725 5.625 7.8125 C2.1897952 5.52236347 0.639669 5.63407027 -3.375 5.8125 Z " fill="#2779C6" transform="translate(931.375,396.1875)"/>
</svg>
