<?xml version="1.0" encoding="UTF-8"?>
<svg version="1.1" xmlns="http://www.w3.org/2000/svg" width="1080" height="1080">
<path d="M0 0 C1.09957031 0.71542969 2.19914063 1.43085938 3.33203125 2.16796875 C16.02511394 10.50248307 28.16374992 19.49615607 40 29 C41.47146484 30.17755859 41.47146484 30.17755859 42.97265625 31.37890625 C48.26391387 35.65805271 53.39538492 40.07248849 58.41796875 44.6640625 C59.79992852 45.9143075 61.18748103 47.15916107 62.6081543 48.36523438 C68.92578339 53.75299237 74.77778687 59.59168099 80.64477539 65.45947266 C82.42510252 67.23761772 84.21328377 69.00759561 86.00195312 70.77734375 C92.08032461 76.82660941 97.82689865 82.93356397 103.1418457 89.67431641 C104.93045024 91.91295086 106.80269426 94.02413065 108.75 96.125 C114.9565063 103.04433277 120.44695027 110.55523458 126 118 C126.54881836 118.73460449 127.09763672 119.46920898 127.66308594 120.22607422 C185.25087658 197.66640779 219.40998676 294.55077854 216.35717773 478.17626953 C209.53681664 523.94223336 196.36675107 567.95341884 177 610 C176.52691406 611.03656738 176.05382812 612.07313477 175.56640625 613.14111328 C168.29525973 629.00117847 160.11104975 644.12375219 151 659 C150.40896484 659.96631348 149.81792969 660.93262695 149.20898438 661.92822266 C142.12354359 673.44109598 134.69392149 684.55055436 126.38623047 695.21679688 C125.02809292 696.96386215 123.68556601 698.72178743 122.34765625 700.484375 C115.03018028 710.10800688 107.49532881 719.49265757 99.3359375 728.41796875 C98.0856925 729.79992852 96.84083893 731.18748103 95.63476562 732.6081543 C90.24700763 738.92578339 84.40831901 744.77778687 78.54052734 750.64477539 C76.76238228 752.42510252 74.99240439 754.21328377 73.22265625 756.00195312 C67.17339059 762.08032461 61.06643603 767.82689865 54.32568359 773.1418457 C52.08704914 774.93045024 49.97586935 776.80269426 47.875 778.75 C40.95566723 784.9565063 33.44476542 790.44695027 26 796 C25.26539551 796.54881836 24.53079102 797.09763672 23.77392578 797.66308594 C-46.72287971 850.08738589 -131.15358094 881.1174372 -334.17626953 886.35717773 C-417.46883202 873.94434284 -496.76009832 840.19991721 -566 785 C-566.98097656 784.21496094 -567.96195313 783.42992187 -568.97265625 782.62109375 C-574.26391387 778.34194729 -579.39538492 773.92751151 -584.41796875 769.3359375 C-585.79992852 768.0856925 -587.18748103 766.84083893 -588.6081543 765.63476562 C-594.92578339 760.24700763 -600.77778687 754.40831901 -606.64477539 748.54052734 C-608.42510252 746.76238228 -610.21328377 744.99240439 -612.00195312 743.22265625 C-618.08032461 737.17339059 -623.82689865 731.06643603 -629.1418457 724.32568359 C-630.93045024 722.08704914 -632.80269426 719.97586935 -634.75 717.875 C-640.9565063 710.95566723 -646.44695027 703.44476542 -652 696 C-652.54881836 695.26539551 -653.09763672 694.53079102 -653.66308594 693.77392578 C-711.25087658 616.33359221 -745.40998676 519.44922146 -742.35717773 335.82373047 C-735.53681664 290.05776664 -722.36675107 246.04658116 -703 204 C-702.29037109 202.44514893 -702.29037109 202.44514893 -701.56640625 200.85888672 C-694.29525973 184.99882153 -686.11104975 169.87624781 -677 155 C-676.40896484 154.03368652 -675.81792969 153.06737305 -675.20898438 152.07177734 C-668.12354359 140.55890402 -660.69392149 129.44944564 -652.38623047 118.78320312 C-651.02809292 117.03613785 -649.68556601 115.27821257 -648.34765625 113.515625 C-641.03018028 103.89199312 -633.49532881 94.50734243 -625.3359375 85.58203125 C-624.0856925 84.20007148 -622.84083893 82.81251897 -621.63476562 81.3918457 C-616.24700763 75.07421661 -610.40831901 69.22221313 -604.54052734 63.35522461 C-602.76238228 61.57489748 -600.99240439 59.78671623 -599.22265625 57.99804688 C-593.17339059 51.91967539 -587.06643603 46.17310135 -580.32568359 40.8581543 C-578.08704914 39.06954976 -575.97586935 37.19730574 -573.875 35.25 C-566.95566723 29.0434937 -559.44476542 23.55304973 -552 18 C-551.26539551 17.45118164 -550.53079102 16.90236328 -549.77392578 16.33691406 C-479.27712029 -36.08738589 -394.84641906 -67.1174372 0 0 Z " fill="#444342" transform="translate(803,133)"/>
<path d="M0 0 C1.09957031 0.71542969 2.19914063 1.43085938 3.33203125 2.16796875 C16.02511394 10.50248307 28.16374992 19.49615607 40 29 C41.47146484 30.17755859 41.47146484 30.17755859 42.97265625 31.37890625 C48.26391387 35.65805271 53.39538492 40.07248849 58.41796875 44.6640625 C59.79992852 45.9143075 61.18748103 47.15916107 62.6081543 48.36523438 C68.92578339 53.75299237 74.77778687 59.59168099 80.64477539 65.45947266 C82.42510252 67.23761772 84.21328377 69.00759561 86.00195312 70.77734375 C92.08032461 76.82660941 97.82689865 82.93356397 103.1418457 89.67431641 C104.93045024 91.91295086 106.80269426 94.02413065 108.75 96.125 C114.9565063 103.04433277 120.44695027 110.55523458 126 118 C126.54881836 118.73460449 127.09763672 119.46920898 127.66308594 120.22607422 C185.25087658 197.66640779 219.40998676 294.55077854 216.35717773 478.17626953 C209.53681664 523.94223336 196.36675107 567.95341884 177 610 C176.52691406 611.03656738 176.05382812 612.07313477 175.56640625 613.14111328 C168.29525973 629.00117847 160.11104975 644.12375219 151 659 C150.40896484 659.96631348 149.81792969 660.93262695 149.20898438 661.92822266 C142.12354359 673.44109598 134.69392149 684.55055436 126.38623047 695.21679688 C125.02809292 696.96386215 123.68556601 698.72178743 122.34765625 700.484375 C115.03018028 710.10800688 107.49532881 719.49265757 99.3359375 728.41796875 C98.0856925 729.79992852 96.84083893 731.18748103 95.63476562 732.6081543 C90.24700763 738.92578339 84.40831901 744.77778687 78.54052734 750.64477539 C76.76238228 752.42510252 74.99240439 754.21328377 73.22265625 756.00195312 C67.17339059 762.08032461 61.06643603 767.82689865 54.32568359 773.1418457 C52.08704914 774.93045024 49.97586935 776.80269426 47.875 778.75 C40.95566723 784.9565063 33.44476542 790.44695027 26 796 C25.26539551 796.54881836 24.53079102 797.09763672 23.77392578 797.66308594 C-46.72287971 850.08738589 -131.15358094 881.1174372 -334.17626953 886.35717773 C-417.46883202 873.94434284 -496.76009832 840.19991721 -566 785 C-566.98097656 784.21496094 -567.96195313 783.42992187 -568.97265625 782.62109375 C-574.26391387 778.34194729 -579.39538492 773.92751151 -584.41796875 769.3359375 C-585.79992852 768.0856925 -587.18748103 766.84083893 -588.6081543 765.63476562 C-594.92578339 760.24700763 -600.77778687 754.40831901 -606.64477539 748.54052734 C-608.42510252 746.76238228 -610.21328377 744.99240439 -612.00195312 743.22265625 C-618.08032461 737.17339059 -623.82689865 731.06643603 -629.1418457 724.32568359 C-630.93045024 722.08704914 -632.80269426 719.97586935 -634.75 717.875 C-640.9565063 710.95566723 -646.44695027 703.44476542 -652 696 C-652.54881836 695.26539551 -653.09763672 694.53079102 -653.66308594 693.77392578 C-711.25087658 616.33359221 -745.40998676 519.44922146 -742.35717773 335.82373047 C-735.53681664 290.05776664 -722.36675107 246.04658116 -703 204 C-702.29037109 202.44514893 -702.29037109 202.44514893 -701.56640625 200.85888672 C-694.29525973 184.99882153 -686.11104975 169.87624781 -677 155 C-676.40896484 154.03368652 -675.81792969 153.06737305 -675.20898438 152.07177734 C-668.12354359 140.55890402 -660.69392149 129.44944564 -652.38623047 118.78320312 C-651.02809292 117.03613785 -649.68556601 115.27821257 -648.34765625 113.515625 C-641.03018028 103.89199312 -633.49532881 94.50734243 -625.3359375 85.58203125 C-624.0856925 84.20007148 -622.84083893 82.81251897 -621.63476562 81.3918457 C-616.24700763 75.07421661 -610.40831901 69.22221313 -604.54052734 63.35522461 C-602.76238228 61.57489748 -600.99240439 59.78671623 -599.22265625 57.99804688 C-593.17339059 51.91967539 -587.06643603 46.17310135 -580.32568359 40.8581543 C-578.08704914 39.06954976 -575.97586935 37.19730574 -573.875 35.25 C-566.95566723 29.0434937 -559.44476542 23.55304973 -552 18 C-551.26539551 17.45118164 -550.53079102 16.90236328 -549.77392578 16.33691406 C-479.27712029 -36.08738589 -394.84641906 -67.1174372 0 0 Z M-342 -41 C-343.04526855 -40.78972168 -344.09053711 -40.57944336 -345.16748047 -40.36279297 C-352.3850986 -38.89135758 -359.58195343 -37.33834258 -366.76904297 -35.72460938 C-368.71974586 -35.28712364 -370.67158779 -34.85461629 -372.62548828 -34.43164062 C-398.01207008 -28.91809966 -423.51423102 -20.05004323 -447 -9 C-447.99531738 -8.5359375 -448.99063477 -8.071875 -450.01611328 -7.59375 C-492.41318903 12.23932701 -530.94061003 36.91559755 -566 68 C-566.94875 68.8353125 -567.8975 69.670625 -568.875 70.53125 C-575.68397876 76.64385593 -582.19077361 83.05868521 -588.6875 89.5 C-589.56680176 90.36625 -590.44610352 91.2325 -591.35205078 92.125 C-596.57301769 97.33909592 -601.38378679 102.72577914 -605.97265625 108.50512695 C-607.99644673 110.9956273 -610.11949429 113.3456335 -612.3125 115.6875 C-617.79776039 121.72413839 -622.58829186 128.24186306 -627.39990234 134.81738281 C-629.01346375 137.01836526 -630.64093077 139.20856793 -632.26953125 141.3984375 C-639.79962866 151.59160452 -646.59660634 162.06820215 -653 173 C-653.47791992 173.80775879 -653.95583984 174.61551758 -654.44824219 175.44775391 C-670.58592858 202.78182457 -683.30034628 231.15497373 -694 261 C-694.41330566 262.14927979 -694.41330566 262.14927979 -694.83496094 263.32177734 C-711.58553313 310.77447113 -717.0949833 360.87879865 -717.25 410.875 C-717.25553894 412.05037323 -717.26107788 413.22574646 -717.26678467 414.43673706 C-717.56724294 501.81137507 -689.11851323 591.42787859 -639 663 C-638.54044922 663.65645508 -638.08089844 664.31291016 -637.60742188 664.98925781 C-630.27283221 675.4197375 -622.57086741 685.45967593 -614.42675781 695.26904297 C-613.17142258 696.79202839 -611.93926912 698.33405915 -610.7109375 699.87890625 C-596.64569667 717.55264519 -580.22824216 735.16974895 -562.4140625 749.08203125 C-559.9541551 751.0364237 -557.67352443 753.10906671 -555.375 755.25 C-504.25555171 801.6855178 -436.49688641 833.02030036 -370 849 C-368.35409914 849.4033704 -366.7082595 849.80699074 -365.0625 850.2109375 C-361.05091249 851.18530655 -357.02984784 852.10401087 -353 853 C-351.82695312 853.26425781 -350.65390625 853.52851562 -349.4453125 853.80078125 C-302.96936033 863.71632903 -253.03290986 863.80050254 -206 858 C-204.93168945 857.87189941 -203.86337891 857.74379883 -202.76269531 857.61181641 C-196.49076292 856.8480424 -190.24205841 855.97745458 -184 855 C-183.23316895 854.88156738 -182.46633789 854.76313477 -181.67626953 854.64111328 C-172.28670191 853.16621675 -163.21505806 851.06641358 -154.04891968 848.55960083 C-152.02699303 848.00737233 -150.00354606 847.46105349 -147.97973633 846.91577148 C-97.90409088 833.3714479 -49.6572729 812.87083593 -7 783 C-6.34354492 782.54044922 -5.68708984 782.08089844 -5.01074219 781.60742188 C5.4197375 774.27283221 15.45967593 766.57086741 25.26904297 758.42675781 C26.79202839 757.17142258 28.33405915 755.93926912 29.87890625 754.7109375 C47.55264519 740.64569667 65.16974895 724.22824216 79.08203125 706.4140625 C81.0364237 703.9541551 83.10906671 701.67352443 85.25 699.375 C118.32819762 662.96021897 142.78230743 617.33139105 161 572 C161.53488037 570.68056396 161.53488037 570.68056396 162.08056641 569.33447266 C178.13150482 529.2266914 186.11057623 486.83376253 190 444 C190.15795044 442.44297363 190.15795044 442.44297363 190.3190918 440.85449219 C191.34906974 429.72523723 191.19978007 418.54146407 191.1875 407.375 C191.18656342 406.28052551 191.18562683 405.18605103 191.18466187 404.05841064 C191.09561336 356.08890147 183.80487844 308.46043498 168.5625 262.875 C168.17624954 261.71596161 168.17624954 261.71596161 167.78219604 260.5335083 C148.31365827 202.45688838 116.55071253 149.73622564 76 104 C74.74703125 102.576875 74.74703125 102.576875 73.46875 101.125 C67.35614407 94.31602124 60.94131479 87.80922639 54.5 81.3125 C53.63375 80.43319824 52.7675 79.55389648 51.875 78.64794922 C46.66090408 73.42698231 41.27422086 68.61621321 35.49487305 64.02734375 C33.0043727 62.00355327 30.6543665 59.88050571 28.3125 57.6875 C22.27586161 52.20223961 15.75813694 47.41170814 9.18261719 42.60009766 C6.98163474 40.98653625 4.79143207 39.35906923 2.6015625 37.73046875 C-7.59160452 30.20037134 -18.06820215 23.40339366 -29 17 C-29.80775879 16.52208008 -30.61551758 16.04416016 -31.44775391 15.55175781 C-51.22897608 3.87317675 -71.61317421 -6.5866368 -93 -15 C-93.92925293 -15.37302246 -94.85850586 -15.74604492 -95.81591797 -16.13037109 C-133.86792766 -31.31019875 -173.37004746 -40.29803411 -214 -45 C-214.98709961 -45.12004395 -215.97419922 -45.24008789 -216.99121094 -45.36376953 C-257.54606565 -50.13953428 -301.90128419 -49.07872327 -342 -41 Z " fill="#2A2928" transform="translate(803,133)"/>
<path d="M0 0 C2.27088731 -0.00965924 4.54084893 -0.04075583 6.81152344 -0.07226562 C34.18488032 -0.27036766 63.9660832 8.59874188 84.03417969 28.00976562 C84.73929688 28.74582031 85.44441406 29.481875 86.17089844 30.24023438 C78.70047636 39.34958396 71.20624483 48.43442652 63.57324219 57.40820312 C61.08803597 60.33791777 58.62646828 63.28567173 56.17089844 66.24023438 C52.51624026 64.59257074 49.46952296 62.34232488 46.23339844 59.99023438 C28.48527624 47.4571046 8.19858618 42.99449956 -13.24707031 45.66601562 C-29.92636086 49.33500936 -44.06865346 59.28960135 -53.30566406 73.59570312 C-63.97858872 92.12280567 -67.35213592 114.36258617 -61.82910156 135.24023438 C-56.35808257 153.3588317 -45.30610864 167.05017116 -28.82910156 176.24023438 C-12.64958585 184.51885818 9.01828918 184.51484678 26.24902344 179.66210938 C33.24785041 177.28636077 39.67285353 173.72132986 46.17089844 170.24023438 C46.50089844 159.68023438 46.83089844 149.12023437 47.17089844 138.24023438 C31.00089844 138.24023438 14.83089844 138.24023438 -1.82910156 138.24023438 C-1.82910156 124.71023438 -1.82910156 111.18023438 -1.82910156 97.24023438 C29.85089844 97.24023438 61.53089844 97.24023438 94.17089844 97.24023438 C94.48027344 112.85335937 94.78964844 128.46648437 95.10839844 144.55273438 C95.31323853 151.92033081 95.31323853 151.92033081 95.5222168 159.43676758 C95.58996582 165.48083496 95.58996582 165.48083496 95.60255432 168.31925964 C95.62544356 170.28262978 95.67791053 172.24580145 95.75453186 174.20780945 C96.35218721 190.33167691 96.35218721 190.33167691 92.6991024 195.20274544 C88.68884145 199.07766824 84.0869589 201.68941107 79.17089844 204.24023438 C77.67278948 205.17273883 76.17904306 206.11251369 74.69824219 207.07226562 C73.50858319 207.74487562 72.31212971 208.40564569 71.10839844 209.05273438 C70.11936523 209.59462402 70.11936523 209.59462402 69.11035156 210.14746094 C36.13800823 227.898152 -2.37989845 233.11074168 -38.53442383 222.34130859 C-62.53658291 214.74662606 -84.33510286 199.75857697 -97.82910156 178.24023438 C-98.40144531 177.36238281 -98.97378906 176.48453125 -99.56347656 175.58007812 C-115.5017599 149.94483037 -120.37474052 117.72998049 -113.64160156 88.36523438 C-105.99506172 57.79540794 -87.90685176 31.47372609 -60.76660156 15.05273438 C-41.49681709 3.77713759 -22.03583246 0.05638166 0 0 Z " fill="#FDFDFD" transform="translate(716.8291015625,426.759765625)"/>
<path d="M0 0 C0.75624664 -0.00979385 1.51249329 -0.01958771 2.29165649 -0.02967834 C33.56017098 -0.35160666 60.60575701 4.31964334 86.265625 23.48828125 C87.10891357 24.10654785 87.10891357 24.10654785 87.96923828 24.73730469 C89.51171875 25.94140625 89.51171875 25.94140625 91.828125 28.23828125 C91.828125 33.35778403 89.65138424 35.21135391 86.390625 38.80078125 C85.28287164 40.05512256 84.1761102 41.31034053 83.0703125 42.56640625 C82.51956055 43.18708984 81.96880859 43.80777344 81.40136719 44.44726562 C75.24421032 51.45671671 69.50857005 58.84091712 63.828125 66.23828125 C59.90429799 64.86248502 57.03840391 63.0354214 53.765625 60.48828125 C36.65528034 47.86139589 16.78791482 43.65256596 -4.171875 45.23828125 C-19.99044954 48.0317742 -34.44988991 57.14571859 -43.921875 70.05078125 C-55.14284594 87.12041865 -60.02933186 106.38267769 -56.7734375 126.72802734 C-53.12930341 143.92904103 -45.0101852 161.00656033 -30.171875 171.23828125 C-13.12866566 181.67818 6.96529087 185.39682523 26.6796875 181.359375 C28.21317444 180.9841007 29.74227472 180.59028929 31.265625 180.17578125 C31.9253833 179.99660156 32.5851416 179.81742188 33.26489258 179.6328125 C40.6247379 177.3580003 46.78422783 173.76022984 53.828125 170.23828125 C54.158125 159.67828125 54.488125 149.11828125 54.828125 138.23828125 C38.658125 138.23828125 22.488125 138.23828125 5.828125 138.23828125 C5.828125 124.70828125 5.828125 111.17828125 5.828125 97.23828125 C37.178125 97.23828125 68.528125 97.23828125 100.828125 97.23828125 C101.2303125 120.68890625 101.2303125 120.68890625 101.640625 144.61328125 C101.75897705 149.53411621 101.8773291 154.45495117 101.99926758 159.52490234 C102.0579834 165.57348633 102.0579834 165.57348633 102.06889343 168.41275024 C102.08874814 170.37936736 102.13425341 172.34583421 102.2006073 174.31143188 C102.71861411 190.47635507 102.71861411 190.47635507 99.5538063 195.10000801 C96.11985516 198.66081889 92.17543497 200.94738554 87.828125 203.23828125 C86.50174628 204.12518939 85.18195816 205.02221483 83.875 205.9375 C53.22003972 224.42491088 14.01307201 233.27654477 -21.38671875 225.2734375 C-52.26006555 216.83026216 -77.51903643 200.67596451 -94.2890625 172.66015625 C-103.99936045 155.01239484 -108.54717436 136.71373483 -108.48754883 116.70605469 C-108.48439943 114.50534953 -108.50789545 112.30600791 -108.53320312 110.10546875 C-108.66847072 80.3140829 -96.12332209 53.18191835 -75.421875 32.05078125 C-55.3323119 12.15555492 -28.33684523 0.30477347 0 0 Z " fill="#FDFDFD" transform="translate(368.171875,426.76171875)"/>
<path d="M0 0 C15.84 0 31.68 0 48 0 C48 55.44 48 110.88 48 168 C32.16 168 16.32 168 0 168 C0 112.56 0 57.12 0 0 Z " fill="#FDFDFD" transform="translate(513,482)"/>
<path d="M0 0 C6.99706376 4.3141819 11.58074394 9.23118827 14.02734375 17.25 C15.28845885 26.19058837 14.46923559 33.88898689 9.02734375 41.25 C3.88668329 46.92838645 -1.48627078 50.76246849 -9.171875 51.59765625 C-18.36214258 51.9851378 -25.0791068 50.59673237 -32.03515625 44.41796875 C-37.78285731 38.34695951 -40.06999374 32.68772136 -40.41015625 24.375 C-40.17496965 16.60404271 -38.08557638 10.20729404 -32.84765625 4.375 C-23.80433696 -3.74670714 -10.84467985 -5.6478622 0 0 Z " fill="#FCFCFC" transform="translate(549.97265625,421.75)"/>
<path d="M0 0 C3.77748473 2.16543711 6.41060639 4.92482491 8 9 C8.046875 11.21875 8.046875 11.21875 7.75 13.5 C7.66234375 14.2528125 7.5746875 15.005625 7.484375 15.78125 C6.77377776 19.03624379 6.00997357 21.26299226 3.265625 23.265625 C-0.94081032 25.31993062 -4.2278496 26.8299392 -9 26 C-12.7923749 23.91791182 -16.00178435 21.89126205 -18 18 C-19.23300361 13.32709501 -19.52817493 10.11973085 -17.4375 5.6875 C-12.04900034 -0.2536663 -7.76796356 -2.41793499 0 0 Z " fill="#807F7F" transform="translate(816,417)"/>
<path d="M0 0 C3.57623788 1.9137306 5.69762236 4.09286708 7 8 C6.34 8 5.68 8 5 8 C5 10.64 5 13.28 5 16 C4.67 16 4.34 16 4 16 C4 13.03 4 10.06 4 7 C1.2160817 8.39195915 1.02101003 10.15575779 0 13 C-2 9.25 -2 9.25 -2 7 C-2.66 7 -3.32 7 -4 7 C-4 9.97 -4 12.94 -4 16 C-4.33 16 -4.66 16 -5 16 C-5.33 13.03 -5.66 10.06 -6 7 C-8.64 6.67 -11.28 6.34 -14 6 C-14 6.66 -14 7.32 -14 8 C-14.66 7.67 -15.32 7.34 -16 7 C-11.04789402 0.87502682 -8.1641546 -1.24654038 0 0 Z " fill="#4B4A49" transform="translate(815,418)"/>
<path d="M0 0 C0.66 0 1.32 0 2 0 C2 2.97 2 5.94 2 9 C1.34 7.68 0.68 6.36 0 5 C-0.33 6.32 -0.66 7.64 -1 9 C-1.66 9 -2.32 9 -3 9 C-2.44271087 5.65626525 -1.64826111 2.96687001 0 0 Z " fill="#F2F2F2" transform="translate(817,425)"/>
</svg>
