<?xml version="1.0" encoding="UTF-8"?>
<svg version="1.1" xmlns="http://www.w3.org/2000/svg" width="1080" height="1080">
<path d="M0 0 C1.37469109 -0.00644213 2.74938086 -0.01317149 4.12406921 -0.02017212 C6.99607517 -0.03209414 9.86796131 -0.03585822 12.73999023 -0.03466797 C16.39122563 -0.03446508 20.04168012 -0.06175814 23.6927309 -0.09621239 C26.53005897 -0.11862552 29.36720336 -0.12250115 32.20461082 -0.12144852 C34.19573634 -0.12490578 36.18680453 -0.14647382 38.17781067 -0.16854858 C49.36089085 -0.11281448 58.59535092 2.04403369 66.8125 9.921875 C73.3305652 17.74355324 75.9171343 26.23722054 75.98535156 36.27441406 C75.99495911 37.42290833 76.00456665 38.57140259 76.01446533 39.75469971 C76.02084015 41.59702179 76.02084015 41.59702179 76.02734375 43.4765625 C76.03304382 44.75392273 76.0387439 46.03128296 76.0446167 47.34735107 C76.05508742 50.04716384 76.06095546 52.74694717 76.06445312 55.44677734 C76.06992462 58.88054697 76.09394002 62.31391748 76.12242508 65.74756241 C76.14570227 69.05305351 76.14751082 72.35849383 76.15234375 75.6640625 C76.16469055 76.8841803 76.17703735 78.1042981 76.1897583 79.36138916 C76.15820974 91.56729484 73.73230834 100.17935548 65.1953125 109.0234375 C57.09178906 116.54410891 49.05250022 117.92150222 38.26171875 117.5859375 C34.48734375 117.5034375 30.71296875 117.4209375 26.82421875 117.3359375 C26.82421875 126.9059375 26.82421875 136.4759375 26.82421875 146.3359375 C30.59400146 146.31499023 34.36378418 146.29404297 38.24780273 146.27246094 C50.71282273 146.20613752 63.1778401 146.16177667 75.64298916 146.12868881 C83.19950313 146.10809586 90.75584949 146.08003819 98.31225586 146.03417969 C104.90126174 145.99421136 111.4901462 145.96848095 118.07926995 145.95958352 C121.56565362 145.95438556 125.05169 145.94223777 128.53796196 145.91301727 C132.43740034 145.8806013 136.33650427 145.87998449 140.23608398 145.88183594 C141.38191956 145.86745483 142.52775513 145.85307373 143.70831299 145.83825684 C153.54928984 145.88870846 160.78112515 148.56931607 168.03125 155.26953125 C174.30922427 162.50493079 175.97484265 170.34873045 175.96948242 179.63354492 C175.97452034 180.88557709 175.97452034 180.88557709 175.97966003 182.16290283 C175.98915819 184.92241913 175.99111284 187.68187462 175.9921875 190.44140625 C175.99540181 192.3646904 175.99876602 194.2879743 176.00227356 196.21125793 C176.00826266 200.24541795 176.01011378 204.27955655 176.00952148 208.3137207 C176.00942009 213.46714737 176.0230497 218.62043555 176.04029369 223.77382946 C176.05144994 227.74854657 176.05343955 231.72323065 176.05291176 235.69796181 C176.05408728 237.59684029 176.0584849 239.49571975 176.06624413 241.39458275 C176.0761135 244.06027077 176.07313833 246.72566398 176.06713867 249.39135742 C176.07275818 250.16623001 176.07837769 250.9411026 176.08416748 251.73945618 C176.0299285 261.2905963 174.08289803 268.96707121 167.82421875 276.3359375 C158.33659003 285.50398294 147.42994686 285.78311515 134.93823242 285.75585938 C133.34062612 285.76320938 131.74302512 285.7717983 130.14543152 285.78152466 C125.82706719 285.80365271 121.50889418 285.80667569 117.19048095 285.80477715 C113.57499082 285.80465703 109.95954062 285.81323805 106.34406167 285.82155466 C97.80804174 285.84075783 89.27211959 285.843684 80.73608398 285.83691406 C71.95467883 285.83027717 63.17369413 285.85313052 54.39237422 285.89022779 C46.83110912 285.92100196 39.26997873 285.93227643 31.70865232 285.92839098 C27.20231367 285.92633125 22.69630228 285.93168179 18.19002342 285.95628357 C13.94869282 285.97867596 9.70804196 285.97657026 5.46670723 285.95635605 C3.91884194 285.95296782 2.37092976 285.95793975 0.82312775 285.97233963 C-9.38334663 286.06067003 -19.31658025 285.37200403 -27.40273762 278.42183685 C-35.78967002 269.73758143 -37.34433835 259.59384607 -37.2734375 248 C-37.27202255 247.12064789 -37.2706076 246.24129578 -37.26914978 245.33529663 C-37.26358002 242.54380808 -37.25103315 239.75240156 -37.23828125 236.9609375 C-37.23326234 235.06119908 -37.22870012 233.1614594 -37.22460938 231.26171875 C-37.2136205 226.61976036 -37.19637682 221.97786281 -37.17578125 217.3359375 C-38.08651901 217.34037872 -38.99725677 217.34481995 -39.93559265 217.34939575 C-48.56990825 217.38967374 -57.20419173 217.4200234 -65.83858013 217.43956184 C-70.27629838 217.4499448 -74.7139382 217.46400219 -79.15161133 217.48681641 C-83.44399078 217.50874249 -87.73629539 217.52054725 -92.02872658 217.52569199 C-93.65636178 217.52935262 -95.28399346 217.53649948 -96.9115963 217.54739761 C-125.42778787 217.73053033 -125.42778787 217.73053033 -135.86328125 208.0859375 C-144.03684487 199.50828759 -144.32581314 190.20575912 -144.32104492 178.8737793 C-144.32440353 177.72668488 -144.32776215 176.57959045 -144.33122253 175.3977356 C-144.34071198 171.61019809 -144.34267466 167.8227049 -144.34375 164.03515625 C-144.34696401 161.39728273 -144.35032819 158.7594094 -144.35383606 156.12153625 C-144.36022326 150.59282137 -144.36171936 145.06411846 -144.36108398 139.53540039 C-144.36048372 133.16204113 -144.37102872 126.78876664 -144.38682765 120.41542882 C-144.40152465 114.26556474 -144.4050708 108.11574108 -144.40447426 101.96586037 C-144.40565237 99.35804714 -144.41006465 96.75023326 -144.41780663 94.14243126 C-144.42763367 90.4903096 -144.42471756 86.83840464 -144.41870117 83.1862793 C-144.42432068 82.11532516 -144.42994019 81.04437103 -144.43572998 79.94096375 C-144.38786322 68.4722498 -142.46792785 60.09962671 -134.5078125 51.54296875 C-128.21269032 45.70881662 -121.30594278 43.86967186 -112.92382812 43.99536133 C-112.14237427 43.99492325 -111.36092041 43.99448517 -110.55578613 43.99403381 C-108.00177022 43.99610504 -105.44843087 44.01935603 -102.89453125 44.04296875 C-101.11234902 44.04857065 -99.33016215 44.05283794 -97.54797363 44.05583191 C-92.87901847 44.06723391 -88.21034752 44.09666065 -83.54150391 44.12994385 C-78.76859379 44.16074534 -73.99563732 44.17435871 -69.22265625 44.18945312 C-59.8735737 44.22153517 -50.5247012 44.27267478 -41.17578125 44.3359375 C-41.19608398 43.03253418 -41.21638672 41.72913086 -41.23730469 40.38623047 C-41.25372544 38.65853305 -41.26964978 36.93083087 -41.28515625 35.203125 C-41.29981934 34.34614014 -41.31448242 33.48915527 -41.32958984 32.60620117 C-41.39076659 23.51271466 -39.18639082 17.21593881 -33.17578125 10.3359375 C-30.66015625 8.16796875 -30.66015625 8.16796875 -27.92578125 6.1484375 C-26.58773437 5.13716797 -26.58773437 5.13716797 -25.22265625 4.10546875 C-17.35029703 -0.46655526 -8.85252788 0.01512966 0 0 Z M-22.61328125 22.8984375 C-25.47621215 27.36460971 -25.29645825 31.39938629 -25.23828125 36.5234375 C-25.23376953 37.27302734 -25.22925781 38.02261719 -25.22460938 38.79492188 C-25.21284479 40.64196133 -25.1949099 42.48895963 -25.17578125 44.3359375 C-24.31581543 44.32022705 -24.31581543 44.32022705 -23.43847656 44.30419922 C7.51464914 43.81376662 7.51464914 43.81376662 17.76171875 53.08984375 C26.67384839 62.28047744 26.32516632 73.87395041 26.51171875 85.9609375 C26.54496231 87.45705982 26.57945822 88.95315485 26.61523438 90.44921875 C26.69932272 94.07792466 26.7665056 97.70670495 26.82421875 101.3359375 C29.99056511 101.45354465 33.15633949 101.52364774 36.32421875 101.5859375 C37.21109375 101.61945313 38.09796875 101.65296875 39.01171875 101.6875 C45.10831589 101.77715584 49.78537384 100.92490817 54.82421875 97.3359375 C59.1809896 92.08547007 59.93712147 87.49916454 59.98535156 80.84643555 C59.99495911 79.77149338 60.00456665 78.69655121 60.01446533 77.58903503 C60.01871521 76.43688004 60.02296509 75.28472504 60.02734375 74.09765625 C60.03304382 72.90292191 60.0387439 71.70818756 60.0446167 70.47724915 C60.05405395 67.95139447 60.06059561 65.42552756 60.06445312 62.8996582 C60.07415657 59.04812003 60.10519219 55.1971161 60.13671875 51.34570312 C60.14324951 48.88802399 60.14849969 46.43034105 60.15234375 43.97265625 C60.17086395 42.25353279 60.17086395 42.25353279 60.1897583 40.49967957 C60.17003174 33.37180525 59.84182999 27.02568489 55.140625 21.27734375 C54.56183594 20.82230469 53.98304688 20.36726563 53.38671875 19.8984375 C52.81050781 19.42535156 52.23429687 18.95226562 51.640625 18.46484375 C48.0143792 16.21111249 44.36263381 16.20029015 40.17285156 16.15893555 C39.03777161 16.14610031 37.90269165 16.13326508 36.73321533 16.12004089 C35.51027771 16.11265396 34.28734009 16.10526703 33.02734375 16.09765625 C31.76460632 16.0895845 30.5018689 16.08151276 29.2008667 16.07319641 C26.52775413 16.0593657 23.85476443 16.04834656 21.18164062 16.04077148 C17.77439907 16.02972678 14.36781411 15.99533876 10.96080399 15.95559978 C7.69138313 15.92300788 4.42190227 15.91864432 1.15234375 15.91015625 C-0.6699173 15.88389412 -0.6699173 15.88389412 -2.5289917 15.85710144 C-10.7726849 15.8781154 -16.68846178 16.66978113 -22.61328125 22.8984375 Z M-129.13671875 60.37109375 C-129.60335937 61.04011719 -130.07 61.70914063 -130.55078125 62.3984375 C-131.03289062 63.07003906 -131.515 63.74164063 -132.01171875 64.43359375 C-134.03522298 67.7404614 -134.30582414 70.47660057 -134.3296814 74.26100159 C-134.33828186 75.27720078 -134.34688232 76.29339996 -134.35574341 77.34039307 C-134.36000336 78.45468689 -134.36426331 79.56898071 -134.36865234 80.71704102 C-134.37682983 81.89135178 -134.38500732 83.06566254 -134.39343262 84.27555847 C-134.41829666 88.17197309 -134.43496286 92.06838006 -134.44921875 95.96484375 C-134.45458063 97.30902551 -134.45995815 98.65320721 -134.4653511 99.99738884 C-134.48698054 105.59314449 -134.50571311 111.18889731 -134.5169735 116.78468418 C-134.53318457 124.78670461 -134.56629149 132.78823732 -134.62337434 140.79007393 C-134.66219152 146.42506351 -134.68162033 152.05992333 -134.68689406 157.69504303 C-134.69053322 161.05583925 -134.70492987 164.41570367 -134.7349968 167.77643013 C-134.766693 171.53435132 -134.76667706 175.29105192 -134.75927734 179.04907227 C-134.77568268 180.14919647 -134.79208801 181.24932068 -134.80899048 182.38278198 C-134.75091047 189.61574755 -133.42940087 195.36574237 -129.17578125 201.3359375 C-122.75179118 206.78970323 -116.60224384 207.49059718 -108.35620117 207.44946289 C-107.58493896 207.44960892 -106.81367676 207.44975494 -106.01904297 207.4499054 C-103.48141625 207.44921128 -100.94386383 207.44144242 -98.40625 207.43359375 C-96.64219706 207.43172779 -94.87814361 207.43030473 -93.11408997 207.42930603 C-88.47973185 207.42549488 -83.84540526 207.41567659 -79.21105957 207.40460205 C-74.47860134 207.39435776 -69.746138 207.38980195 -65.01367188 207.38476562 C-55.73436118 207.37405305 -46.45507384 207.35699349 -37.17578125 207.3359375 C-37.16119873 206.39911133 -37.14661621 205.46228516 -37.1315918 204.49707031 C-37.06990032 200.96299868 -36.99563861 197.42962553 -36.91333008 193.89599609 C-36.88043179 192.37753972 -36.85229535 190.85897134 -36.8293457 189.34033203 C-36.43094141 163.65597028 -36.43094141 163.65597028 -27.17578125 154.3359375 C-21.02401043 148.91849969 -15.02270315 147.1255306 -6.80859375 146.921875 C-6.12900604 146.90250885 -5.44941833 146.8831427 -4.74923706 146.8631897 C-2.59987546 146.80388651 -0.45045884 146.75720859 1.69921875 146.7109375 C3.16538665 146.67271218 4.63153318 146.63365786 6.09765625 146.59375 C9.67305957 146.49668023 13.24826299 146.41672604 16.82421875 146.3359375 C16.82421875 136.7659375 16.82421875 127.1959375 16.82421875 117.3359375 C13.11171875 117.3771875 9.39921875 117.4184375 5.57421875 117.4609375 C-20.83232711 117.52636151 -20.83232711 117.52636151 -31.2109375 108.58203125 C-41.11393428 98.17442317 -40.8180972 86.22653797 -40.92578125 72.7109375 C-40.95398373 70.92575282 -40.98391703 69.14059461 -41.015625 67.35546875 C-41.0889812 63.01567297 -41.1388646 58.67618996 -41.17578125 54.3359375 C-51.35512837 54.24312294 -61.53437426 54.17211438 -71.71405888 54.12868881 C-76.44127955 54.10784319 -81.16821 54.079581 -85.89526367 54.03417969 C-90.45995867 53.99061376 -95.02437509 53.96677765 -99.58926201 53.95642853 C-101.32795024 53.94905641 -103.06662379 53.93466028 -104.80519295 53.91301727 C-107.24684326 53.88383966 -109.68735288 53.87998737 -112.12915039 53.88183594 C-113.19946251 53.86026428 -113.19946251 53.86026428 -114.29139709 53.83825684 C-120.48396437 53.88875178 -124.82924042 55.90058337 -129.13671875 60.37109375 Z M-25.17578125 54.3359375 C-25.2750075 59.35296929 -25.34741712 64.36942402 -25.39550781 69.38720703 C-25.41556494 71.09238644 -25.44281782 72.79749756 -25.47753906 74.50244141 C-25.52631986 76.96013274 -25.54880844 79.41691116 -25.56640625 81.875 C-25.58705139 82.63148834 -25.60769653 83.38797668 -25.62896729 84.16738892 C-25.63114191 89.35192021 -24.5535136 92.19910344 -21.17578125 96.3359375 C-16.22140158 100.80696306 -12.90154819 101.46136268 -6.3203125 101.43359375 C-5.65867599 101.4321788 -4.99703949 101.43076385 -4.31535339 101.42930603 C-2.20628297 101.42371746 -0.09731948 101.41116715 2.01171875 101.3984375 C3.44335784 101.39342102 4.8749986 101.38885837 6.30664062 101.38476562 C9.81253463 101.3737518 13.31836625 101.35649505 16.82421875 101.3359375 C16.92365673 96.7644677 16.99595224 92.19363775 17.04394531 87.62133789 C17.06396745 86.06849185 17.09119392 84.51572031 17.12597656 82.96313477 C17.17491485 80.72132918 17.19728043 78.48052657 17.21484375 76.23828125 C17.23548889 75.55257553 17.25613403 74.86686981 17.27740479 74.16038513 C17.28023056 67.98593303 15.17867976 63.87774272 11.0078125 59.375 C10.43160156 58.90835938 9.85539062 58.44171875 9.26171875 57.9609375 C8.68292969 57.47882813 8.10414063 56.99671875 7.5078125 56.5 C3.92976274 54.0260816 0.61165537 54.21925227 -3.59375 54.23828125 C-4.84736328 54.24150391 -6.10097656 54.24472656 -7.39257812 54.24804688 C-9.35807617 54.26061523 -9.35807617 54.26061523 -11.36328125 54.2734375 C-12.69856606 54.27845433 -14.03385266 54.28301691 -15.36914062 54.28710938 C-18.63806598 54.29891055 -21.90690116 54.31537453 -25.17578125 54.3359375 Z M-23.17578125 163.3359375 C-26.74196282 169.36155464 -27.32268388 174.26495751 -27.2734375 181.1640625 C-27.27202255 181.91306824 -27.2706076 182.66207397 -27.26914978 183.43377686 C-27.26356784 185.81787162 -27.2510187 188.20187128 -27.23828125 190.5859375 C-27.23326391 192.20572781 -27.22870141 193.82551959 -27.22460938 195.4453125 C-27.21360433 199.40889062 -27.19635216 203.37239795 -27.17578125 207.3359375 C-22.71780081 207.48261128 -18.26045071 207.57047125 -13.80078125 207.6484375 C-12.54910156 207.69033203 -11.29742187 207.73222656 -10.0078125 207.77539062 C-1.91180044 207.88135937 4.07184469 206.98711444 10.82421875 202.3359375 C16.66864177 196.63762506 17.51790849 189.39817816 17.80566406 181.55371094 C17.87877227 172.8153566 17.29084327 164.05895913 16.82421875 155.3359375 C12.84519445 155.24791598 8.86642487 155.19520517 4.88671875 155.1484375 C3.76974609 155.12330078 2.65277344 155.09816406 1.50195312 155.07226562 C-8.2797471 154.98620961 -16.16188222 156.15504087 -23.17578125 163.3359375 Z M26.82421875 155.3359375 C26.80963623 156.409646 26.79505371 157.48335449 26.7800293 158.58959961 C26.72163403 162.60994166 26.64440725 166.62974752 26.56176758 170.6496582 C26.52871076 172.38264196 26.50062022 174.1157284 26.4777832 175.84887695 C26.44387983 178.3541196 26.39155147 180.8584373 26.3359375 183.36328125 C26.32635262 184.50759865 26.32635262 184.50759865 26.3165741 185.67503357 C26.06871366 194.94234046 23.11565095 202.51763659 16.82421875 209.3359375 C8.22445464 216.73573453 -3.56808792 216.81975461 -14.36328125 217.0234375 C-15.60142578 217.05759766 -16.83957031 217.09175781 -18.11523438 217.12695312 C-21.13532592 217.20857722 -24.15515833 217.27800248 -27.17578125 217.3359375 C-27.30023212 223.13419948 -27.39051954 228.93166847 -27.45043945 234.73095703 C-27.47544172 236.69984497 -27.50945525 238.66864143 -27.55297852 240.63720703 C-28.3746873 255.88868077 -28.3746873 255.88868077 -22.17578125 269.3359375 C-17.05754446 274.10557248 -12.55685504 275.45839165 -5.68074036 275.48310852 C-5.01820257 275.48678521 -4.35566479 275.4904619 -3.67305011 275.49425 C-1.44844811 275.50528091 0.77610717 275.50912968 3.00073242 275.51293945 C4.5940872 275.51920461 6.18744052 275.52585146 7.78079224 275.53285217 C13.01791365 275.55389078 18.25503534 275.56425516 23.4921875 275.57421875 C25.29579496 275.57826654 27.09940227 275.58238347 28.90300941 275.58656883 C37.3776446 275.60562098 45.85227107 275.61985131 54.32692355 275.6281808 C64.10489331 275.63795021 73.88263651 275.66426187 83.66052645 275.70468169 C91.22073628 275.73485991 98.78088123 275.74965134 106.3411501 275.75296181 C110.85524853 275.75531059 115.36910492 275.76424836 119.88313866 275.78942299 C124.1324776 275.81273827 128.38141577 275.81692316 132.63080215 275.80666161 C134.18680086 275.80616695 135.74281953 275.81246661 137.29875755 275.82621765 C150.17868084 275.96811535 150.17868084 275.96811535 160.8828125 269.3359375 C161.33785156 268.6759375 161.79289063 268.0159375 162.26171875 267.3359375 C162.97134766 266.3459375 162.97134766 266.3459375 163.6953125 265.3359375 C166.25571508 260.79986096 165.98404712 256.01404467 166.0012207 250.93066406 C166.0110775 249.6615921 166.0110775 249.6615921 166.02113342 248.36688232 C166.04082545 245.57010809 166.05251998 242.77338745 166.0625 239.9765625 C166.06657553 239.01935051 166.07065105 238.06213852 166.07485008 237.0759201 C166.09569349 232.00927447 166.11000262 226.94265577 166.11938477 221.87597656 C166.13044477 216.65281384 166.16484503 211.43007764 166.20455647 206.20706558 C166.2307463 202.18177518 166.23907872 198.15658606 166.24266624 194.13121796 C166.24752616 192.20636871 166.25912312 190.28152381 166.27770424 188.35675812 C166.30214589 185.65709454 166.30112159 182.95853024 166.29418945 180.25878906 C166.30699951 179.47097046 166.31980957 178.68315186 166.33300781 177.87145996 C166.26730649 170.81611975 164.00785724 165.67555017 159.19921875 160.5234375 C151.817967 155.03992259 142.57907326 154.90707482 133.76513672 154.99536133 C132.60300156 154.99492325 131.44086639 154.99448517 130.24351501 154.99403381 C126.43430284 154.99610984 122.62554074 155.01938542 118.81640625 155.04296875 C116.16268164 155.04856893 113.50898137 155.05298476 110.85525513 155.05583191 C104.60459353 155.06511764 98.35409129 155.08968376 92.10349953 155.11988038 C84.98129755 155.15353324 77.85908754 155.16993762 70.7368257 155.18496668 C56.09920824 155.21623691 41.46171573 155.26892902 26.82421875 155.3359375 Z " fill="#D84F3E" transform="translate(202.17578125,423.6640625)"/>
<path d="M0 0 C1.24394531 -0.01417969 2.48789062 -0.02835937 3.76953125 -0.04296875 C6.92584647 0.16985708 8.61866986 0.41482061 11.1875 2.1875 C12.70346058 5.21942116 12.40657105 8.39269189 12.46875 11.72265625 C12.48715942 12.47534286 12.50556885 13.22802948 12.52453613 14.00352478 C12.5833386 16.41893614 12.63603821 18.83442182 12.6875 21.25 C11.90461587 39.94264634 11.90461587 39.94264634 19.1875 56.1875 C24.2763302 60.36929334 29.86683707 60.81747544 36.28125 60.56640625 C41.29151409 59.91318633 45.34885897 58.54610657 48.52734375 54.46875 C51.78870054 48.9905991 52.30945323 44.47077374 52.21484375 38.265625 C52.20219057 36.66666888 52.18983013 35.06771043 52.17773438 33.46875 C52.15299209 30.95630553 52.12508654 28.4439837 52.09155273 25.93164062 C52.06114947 23.50129462 52.04350958 21.07110181 52.02734375 18.640625 C52.00715431 17.52775116 52.00715431 17.52775116 51.98655701 16.39239502 C51.96101541 11.02112319 52.12488789 5.35656951 56.00390625 1.27734375 C59.95077196 -0.69255881 63.89446807 -0.44464548 68.1875 0.1875 C71.03645602 1.81547487 72.68899811 2.79318804 73.80688477 5.91992188 C74.30480784 8.88638081 74.26145214 11.71073236 74.21484375 14.71875 C74.20259766 16.00523437 74.19035156 17.29171875 74.17773438 18.6171875 C74.14515516 21.29965058 74.10402287 23.98172558 74.06054688 26.6640625 C73.60264064 42.44552604 73.60264064 42.44552604 80.1875 56.1875 C85.82799786 61.39411341 90.88133048 62.66803412 98.40625 62.49609375 C105.32973599 61.72789797 109.65013023 58.24364815 114.05859375 53.06640625 C117.01529484 48.14539164 116.38569217 41.92165529 116.46875 36.36328125 C116.49636414 34.94936348 116.49636414 34.94936348 116.52453613 33.50688171 C116.60305599 29.48313485 116.67114733 25.45922915 116.73974609 21.43530273 C116.79138409 18.49454257 116.84864306 15.55392955 116.90625 12.61328125 C116.91982544 11.69871658 116.93340088 10.78415192 116.9473877 9.84187317 C116.96410522 8.99727036 116.98082275 8.15266754 116.99804688 7.2824707 C117.01057495 6.53810257 117.02310303 5.79373444 117.03601074 5.02680969 C117.1875 3.1875 117.1875 3.1875 118.1875 1.1875 C121.01828091 0.24390636 123.1065314 -0.07069881 126.0625 -0.1875 C126.90554688 -0.23648437 127.74859375 -0.28546875 128.6171875 -0.3359375 C132.51720679 0.45829135 133.77753201 2.03899343 136.1875 5.1875 C136.90747961 8.58976507 136.84113836 11.92016466 136.78125 15.38671875 C136.78129028 16.37694534 136.78133057 17.36717194 136.78137207 18.3874054 C136.77601772 20.48123522 136.7584387 22.57506459 136.72949219 24.66870117 C136.68786895 27.84682907 136.68840786 31.02281896 136.6953125 34.20117188 C136.68481058 36.24220202 136.67186711 38.28322134 136.65625 40.32421875 C136.65604858 41.26311447 136.65584717 42.20201019 136.65563965 43.1693573 C136.43145045 55.90706365 132.1454371 65.64904924 123 74.5 C114.6991003 81.55084881 104.15253701 83.58263879 93.51171875 83.46484375 C84.74848514 82.73371615 77.13076605 79.85763814 70.28515625 74.359375 C67.33777098 72.71279105 65.53576896 72.78831465 62.1875 73.1875 C59.60426166 74.22971267 57.21560294 75.29834549 54.75 76.5625 C43.12478047 82.41675589 31.25158709 84.30465903 18.44140625 81.3125 C11.39752019 78.79030758 5.64589125 75.28341995 0.1875 70.1875 C-0.4725 69.59195313 -1.1325 68.99640625 -1.8125 68.3828125 C-7.09936429 63.0739196 -8.54111566 57.45255337 -9.8125 50.1875 C-10.225 51.1053125 -10.6375 52.023125 -11.0625 52.96875 C-16.96591827 65.69501402 -23.53812203 72.70707824 -36.8125 78.1875 C-45.52099791 81.14442269 -57.12992554 79.99545853 -65.421875 76.4453125 C-76.32965923 70.70624955 -83.60063687 62.08176293 -87.39453125 50.39453125 C-89.45898983 39.49341819 -88.21198453 28.5286517 -82.4921875 18.984375 C-75.87161211 9.50573701 -67.23080132 3.42059952 -55.8125 1.1875 C-42.13861536 0.29198111 -32.41596311 2.32682062 -21.8125 11.1875 C-16.47140509 16.26497864 -13.13190932 22.22927205 -10.8125 29.1875 C-10.79268066 28.5169458 -10.77286133 27.8463916 -10.75244141 27.15551758 C-10.65690285 24.10329839 -10.54734055 21.05173659 -10.4375 18 C-10.4065625 16.94490234 -10.375625 15.88980469 -10.34375 14.80273438 C-10.30507813 13.78115234 -10.26640625 12.75957031 -10.2265625 11.70703125 C-10.17943115 10.30094604 -10.17943115 10.30094604 -10.13134766 8.86645508 C-9.21119169 1.13531309 -7.39852726 0.03809746 0 0 Z M-67.8125 26.1875 C-72.4126248 32.23531113 -72.76762048 38.81516377 -71.8125 46.1875 C-69.9881899 52.90324157 -65.37638216 57.25685135 -59.8125 61.1875 C-54.08154305 64.11665577 -46.74826854 64.27086486 -40.5703125 62.5703125 C-34.1285176 59.73792797 -29.48962599 54.54175199 -26.375 48.3125 C-24.76771752 39.38315286 -25.6506366 32.82162429 -30.8125 25.1875 C-34.80741425 20.59993363 -40.1736538 17.61594479 -46.234375 16.90234375 C-55.12824492 16.59240586 -61.81562949 19.67109863 -67.8125 26.1875 Z " fill="#000000" transform="translate(585.8125,475.8125)"/>
<path d="M0 0 C1.37469109 -0.00644213 2.74938086 -0.01317149 4.12406921 -0.02017212 C6.99607517 -0.03209414 9.86796131 -0.03585822 12.73999023 -0.03466797 C16.39122563 -0.03446508 20.04168012 -0.06175814 23.6927309 -0.09621239 C26.53005897 -0.11862552 29.36720336 -0.12250115 32.20461082 -0.12144852 C34.19573634 -0.12490578 36.18680453 -0.14647382 38.17781067 -0.16854858 C49.36089085 -0.11281448 58.59535092 2.04403369 66.8125 9.921875 C73.3305652 17.74355324 75.9171343 26.23722054 75.98535156 36.27441406 C75.99495911 37.42290833 76.00456665 38.57140259 76.01446533 39.75469971 C76.01871521 40.98291443 76.02296509 42.21112915 76.02734375 43.4765625 C76.03304382 44.75392273 76.0387439 46.03128296 76.0446167 47.34735107 C76.05508742 50.04716384 76.06095546 52.74694717 76.06445312 55.44677734 C76.06992462 58.88054697 76.09394002 62.31391748 76.12242508 65.74756241 C76.14570227 69.05305351 76.14751082 72.35849383 76.15234375 75.6640625 C76.16469055 76.8841803 76.17703735 78.1042981 76.1897583 79.36138916 C76.15820974 91.56729484 73.73230834 100.17935548 65.1953125 109.0234375 C56.98684999 116.64150015 48.59543785 117.94648834 37.6796875 118.015625 C36.43351151 118.0369046 35.18733551 118.0581842 33.90339661 118.08010864 C30.6085823 118.13121541 27.31418879 118.16455553 24.019104 118.19073486 C20.697951 118.22415946 17.37739127 118.29094319 14.05664062 118.3515625 C11.49351546 118.38732242 8.93036375 118.42123681 6.3671875 118.453125 C5.18867722 118.47277313 4.01016693 118.49242126 2.79594421 118.51266479 C-9.48173675 118.59147052 -21.81887093 117.77641608 -31.43359375 109.359375 C-40.61601735 99.77034961 -41.79172133 89.95141904 -41.70703125 77.0546875 C-41.70973312 75.59077701 -41.71362129 74.12686829 -41.71862793 72.66296387 C-41.72449047 69.61025736 -41.71606634 66.55802232 -41.69726562 63.50537109 C-41.67447721 59.61862394 -41.68761798 55.73298207 -41.71155548 51.84627533 C-41.72610232 48.82794061 -41.72136723 45.80986217 -41.71104431 42.79151917 C-41.70840145 41.35958216 -41.71155949 39.92762085 -41.72096252 38.49571228 C-41.77530747 27.89766605 -40.89104796 18.26873993 -33.17578125 10.3359375 C-30.66015625 8.16796875 -30.66015625 8.16796875 -27.92578125 6.1484375 C-26.58773437 5.13716797 -26.58773437 5.13716797 -25.22265625 4.10546875 C-17.35029703 -0.46655526 -8.85252788 0.01512966 0 0 Z M-22.61328125 22.8984375 C-25.47621215 27.36460971 -25.29645825 31.39938629 -25.23828125 36.5234375 C-25.23376953 37.27302734 -25.22925781 38.02261719 -25.22460938 38.79492188 C-25.21284479 40.64196133 -25.1949099 42.48895963 -25.17578125 44.3359375 C-24.31581543 44.32022705 -24.31581543 44.32022705 -23.43847656 44.30419922 C7.51464914 43.81376662 7.51464914 43.81376662 17.76171875 53.08984375 C26.67384839 62.28047744 26.32516632 73.87395041 26.51171875 85.9609375 C26.54496231 87.45705982 26.57945822 88.95315485 26.61523438 90.44921875 C26.69932272 94.07792466 26.7665056 97.70670495 26.82421875 101.3359375 C29.99056511 101.45354465 33.15633949 101.52364774 36.32421875 101.5859375 C37.21109375 101.61945313 38.09796875 101.65296875 39.01171875 101.6875 C45.10831589 101.77715584 49.78537384 100.92490817 54.82421875 97.3359375 C59.1809896 92.08547007 59.93712147 87.49916454 59.98535156 80.84643555 C59.99495911 79.77149338 60.00456665 78.69655121 60.01446533 77.58903503 C60.01871521 76.43688004 60.02296509 75.28472504 60.02734375 74.09765625 C60.03304382 72.90292191 60.0387439 71.70818756 60.0446167 70.47724915 C60.05405395 67.95139447 60.06059561 65.42552756 60.06445312 62.8996582 C60.07415657 59.04812003 60.10519219 55.1971161 60.13671875 51.34570312 C60.14324951 48.88802399 60.14849969 46.43034105 60.15234375 43.97265625 C60.17086395 42.25353279 60.17086395 42.25353279 60.1897583 40.49967957 C60.17003174 33.37180525 59.84182999 27.02568489 55.140625 21.27734375 C54.56183594 20.82230469 53.98304688 20.36726563 53.38671875 19.8984375 C52.81050781 19.42535156 52.23429687 18.95226562 51.640625 18.46484375 C48.0143792 16.21111249 44.36263381 16.20029015 40.17285156 16.15893555 C39.03777161 16.14610031 37.90269165 16.13326508 36.73321533 16.12004089 C35.51027771 16.11265396 34.28734009 16.10526703 33.02734375 16.09765625 C31.76460632 16.0895845 30.5018689 16.08151276 29.2008667 16.07319641 C26.52775413 16.0593657 23.85476443 16.04834656 21.18164062 16.04077148 C17.77439907 16.02972678 14.36781411 15.99533876 10.96080399 15.95559978 C7.69138313 15.92300788 4.42190227 15.91864432 1.15234375 15.91015625 C-0.6699173 15.88389412 -0.6699173 15.88389412 -2.5289917 15.85710144 C-10.7726849 15.8781154 -16.68846178 16.66978113 -22.61328125 22.8984375 Z M-25.17578125 54.3359375 C-25.2750075 59.35296929 -25.34741712 64.36942402 -25.39550781 69.38720703 C-25.41556494 71.09238644 -25.44281782 72.79749756 -25.47753906 74.50244141 C-25.52631986 76.96013274 -25.54880844 79.41691116 -25.56640625 81.875 C-25.58705139 82.63148834 -25.60769653 83.38797668 -25.62896729 84.16738892 C-25.63114191 89.35192021 -24.5535136 92.19910344 -21.17578125 96.3359375 C-16.22140158 100.80696306 -12.90154819 101.46136268 -6.3203125 101.43359375 C-5.65867599 101.4321788 -4.99703949 101.43076385 -4.31535339 101.42930603 C-2.20628297 101.42371746 -0.09731948 101.41116715 2.01171875 101.3984375 C3.44335784 101.39342102 4.8749986 101.38885837 6.30664062 101.38476562 C9.81253463 101.3737518 13.31836625 101.35649505 16.82421875 101.3359375 C16.92365673 96.7644677 16.99595224 92.19363775 17.04394531 87.62133789 C17.06396745 86.06849185 17.09119392 84.51572031 17.12597656 82.96313477 C17.17491485 80.72132918 17.19728043 78.48052657 17.21484375 76.23828125 C17.23548889 75.55257553 17.25613403 74.86686981 17.27740479 74.16038513 C17.28023056 67.98593303 15.17867976 63.87774272 11.0078125 59.375 C10.43160156 58.90835938 9.85539062 58.44171875 9.26171875 57.9609375 C8.68292969 57.47882813 8.10414063 56.99671875 7.5078125 56.5 C3.92976274 54.0260816 0.61165537 54.21925227 -3.59375 54.23828125 C-4.84736328 54.24150391 -6.10097656 54.24472656 -7.39257812 54.24804688 C-9.35807617 54.26061523 -9.35807617 54.26061523 -11.36328125 54.2734375 C-12.69856606 54.27845433 -14.03385266 54.28301691 -15.36914062 54.28710938 C-18.63806598 54.29891055 -21.90690116 54.31537453 -25.17578125 54.3359375 Z " fill="#FBDB49" transform="translate(202.17578125,423.6640625)"/>
<path d="M0 0 C16.40326872 -0.09359187 32.80645034 -0.16405171 49.20992184 -0.20724869 C56.82696923 -0.22784216 64.44385036 -0.25590086 72.06079102 -0.30175781 C78.7025346 -0.34172452 85.34415773 -0.36745617 91.98601824 -0.37635398 C95.50034636 -0.38155221 99.01432998 -0.39370177 102.52854729 -0.42292023 C106.4591182 -0.45533295 110.38935726 -0.45595311 114.32006836 -0.45410156 C115.47525467 -0.46848267 116.63044098 -0.48286377 117.82063293 -0.49768066 C127.69303836 -0.44746188 134.93215576 2.21050522 142.20703125 8.93359375 C148.48500552 16.16899329 150.1506239 24.01279295 150.14526367 33.29760742 C150.14862228 34.13229553 150.1519809 34.96698364 150.15544128 35.82696533 C150.16493944 38.58648163 150.16689409 41.34593712 150.16796875 44.10546875 C150.17118306 46.0287529 150.17454727 47.9520368 150.17805481 49.87532043 C150.18404391 53.90948045 150.18589503 57.94361905 150.18530273 61.9777832 C150.18520134 67.13120987 150.19883095 72.28449805 150.21607494 77.43789196 C150.22723119 81.41260907 150.2292208 85.38729315 150.22869301 89.36202431 C150.22986853 91.26090279 150.23426615 93.15978225 150.24202538 95.05864525 C150.25189475 97.72433327 150.24891958 100.38972648 150.24291992 103.05541992 C150.24853943 103.83029251 150.25415894 104.6051651 150.25994873 105.40351868 C150.20570975 114.9546588 148.25867928 122.63113371 142 130 C132.51237128 139.16804544 121.60572811 139.44717765 109.11401367 139.41992188 C107.51640737 139.42727188 105.91880637 139.4358608 104.32121277 139.44558716 C100.00284844 139.46771521 95.68467543 139.47073819 91.3662622 139.46883965 C87.75077207 139.46871953 84.13532187 139.47730055 80.51984292 139.48561716 C71.98382299 139.50482033 63.44790084 139.5077465 54.91186523 139.50097656 C46.13046008 139.49433967 37.34947538 139.51719302 28.56815547 139.55429029 C21.00689037 139.58506446 13.44575998 139.59633893 5.88443357 139.59245348 C1.37809492 139.59039375 -3.12791647 139.59574429 -7.63419533 139.62034607 C-11.87552593 139.64273846 -16.11617679 139.64063276 -20.35751152 139.62041855 C-21.90537681 139.61703032 -23.45328899 139.62200225 -25.001091 139.63640213 C-35.20756538 139.72473253 -45.140799 139.03606653 -53.22695637 132.08589935 C-61.68172284 123.3314051 -63.16725809 113.12171713 -63.09765625 101.4453125 C-63.0962413 100.54376434 -63.09482635 99.64221619 -63.09336853 98.71334839 C-63.0877974 95.850531 -63.07525026 92.98779352 -63.0625 90.125 C-63.05748127 88.17708447 -63.05291901 86.2291677 -63.04882812 84.28125 C-63.03783742 79.52080282 -63.02059277 74.76041493 -63 70 C-59.7 70 -56.4 70 -53 70 C-52.99589111 71.25022949 -52.99178223 72.50045898 -52.98754883 73.78857422 C-52.96562967 78.46687971 -52.9112086 83.14435936 -52.84741211 87.82226562 C-52.82434305 89.83943717 -52.80986267 91.85672727 -52.80444336 93.87402344 C-53.28353176 109.34802844 -53.28353176 109.34802844 -47 123 C-42.328365 127.30768804 -37.69333629 128.12492629 -31.50495911 128.14717102 C-30.84242132 128.15084771 -30.17988354 128.1545244 -29.49726886 128.1583125 C-27.27266686 128.16934341 -25.04811158 128.17319218 -22.82348633 128.17700195 C-21.23013155 128.18326711 -19.63677823 128.18991396 -18.04342651 128.19691467 C-12.8063051 128.21795328 -7.56918341 128.22831766 -2.33203125 128.23828125 C-0.52842379 128.24232904 1.27518352 128.24644597 3.07879066 128.25063133 C11.55342585 128.26968348 20.02805232 128.28391381 28.5027048 128.2922433 C38.28067456 128.30201271 48.05841776 128.32832437 57.8363077 128.36874419 C65.39651753 128.39892241 72.95666248 128.41371384 80.51693135 128.41702431 C85.03102978 128.41937309 89.54488617 128.42831086 94.05891991 128.45348549 C98.30825885 128.47680077 102.55719702 128.48098566 106.8065834 128.47072411 C108.36258211 128.47022945 109.91860078 128.47652911 111.4745388 128.49028015 C124.20593373 128.66965315 124.20593373 128.66965315 134.83984375 122.21875 C135.20207031 121.6515625 135.56429687 121.084375 135.9375 120.5 C136.31777344 119.9328125 136.69804687 119.365625 137.08984375 118.78125 C139.39189237 114.27595312 139.16028075 109.54420399 139.17700195 104.59472656 C139.18685875 103.3256546 139.18685875 103.3256546 139.19691467 102.03094482 C139.2166067 99.23417059 139.22830123 96.43744995 139.23828125 93.640625 C139.24235678 92.68341301 139.2464323 91.72620102 139.25063133 90.7399826 C139.27147474 85.67333697 139.28578387 80.60671827 139.29516602 75.54003906 C139.30622602 70.31687634 139.34062628 65.09414014 139.38033772 59.87112808 C139.40652755 55.84583768 139.41485997 51.82064856 139.41844749 47.79528046 C139.42330741 45.87043121 139.43490437 43.94558631 139.45348549 42.02082062 C139.47792714 39.32115704 139.47690284 36.62259274 139.4699707 33.92285156 C139.48278076 33.13503296 139.49559082 32.34721436 139.50878906 31.53552246 C139.44657154 24.85428971 137.41655739 19.62978304 132.875 14.6875 C125.00618945 10.06885033 116.78602661 9.5558188 107.84912109 9.56762695 C106.09128799 9.55233948 106.09128799 9.55233948 104.29794312 9.53674316 C100.45639175 9.50674874 96.61509031 9.49736769 92.7734375 9.48828125 C90.09728248 9.47142452 87.42115988 9.45341669 84.74502563 9.43388367 C78.44134262 9.39038111 72.13768515 9.36173484 65.83389819 9.33856028 C58.65113957 9.31142095 51.46851316 9.26751524 44.28584933 9.22227156 C29.52397611 9.12965833 14.76204865 9.05846604 0 9 C0 6.03 0 3.06 0 0 Z " fill="#B32268" transform="translate(228,570)"/>
<path d="M0 0 C5.98051741 4.42514475 8.69202757 9.36264319 10.6875 16.4375 C11.12218021 20.00187773 11.11973671 23.40789855 11 27 C8.95774789 29.04225211 4.92084523 28.23055064 2.125 28.25 C1.39152344 28.270625 0.65804687 28.29125 -0.09765625 28.3125 C-5.45689752 28.3515473 -5.45689752 28.3515473 -7.94921875 26.73828125 C-9.1388591 24.77028885 -9.5609565 23.20099182 -9.9375 20.9375 C-10.59197263 17.81543549 -10.59197263 17.81543549 -12.6875 15.5 C-17.25049129 14.51340729 -20.63464678 14.31732339 -24.875 16.4375 C-27.89230495 20.07601479 -28.29079732 23.33916524 -28 28 C-26.50831386 32.10213689 -25.64397687 33.57068209 -22 36 C-19.18933361 36.63420165 -16.39027076 37.20658807 -13.5625 37.75 C-2.74193094 40.01145027 8.35622961 43.5354109 15 53 C21.21080115 65.15488078 21.96451198 80.41155292 19.24609375 93.6796875 C18.33294732 96.26514524 17.31758139 98.59897189 16 101 C15.443125 102.051875 14.88625 103.10375 14.3125 104.1875 C7.78821425 112.12244213 1.24608615 117.07431714 -9 119 C-20.27866211 120.04165988 -32.92175281 119.52830255 -42 112 C-49.65546347 105.11008288 -56.01442317 96.27828006 -58 86 C-58.06624507 84.25113019 -58.08552595 82.49997252 -58.0625 80.75 C-58.05347656 79.85796875 -58.04445313 78.9659375 -58.03515625 78.046875 C-58.02355469 77.37140625 -58.01195312 76.6959375 -58 76 C-51.26257354 75.88955039 -44.70019789 76.29867087 -38 77 C-37.91363281 77.72445312 -37.82726562 78.44890625 -37.73828125 79.1953125 C-36.79813381 85.66421693 -35.8348174 89.5105267 -31 94 C-25.87542701 97.25494856 -19.83000134 96.54677621 -14 96 C-7.58070165 94.35066203 -3.67111774 91.45105361 0 86 C1.90422813 82.07755825 2.29726838 78.84608775 2.3125 74.5 C2.32925781 73.3965625 2.34601563 72.293125 2.36328125 71.15625 C1.87052965 66.87513929 0.50463211 64.26585353 -2.796875 61.48828125 C-3.44140625 61.10027344 -4.0859375 60.71226562 -4.75 60.3125 C-5.38421875 59.91675781 -6.0184375 59.52101563 -6.671875 59.11328125 C-11.58175579 56.76543557 -16.5055348 55.84070861 -21.89941406 55.36791992 C-30.5274991 54.60412562 -36.07552903 52.81840419 -42.3125 46.75 C-48.17678082 37.19339422 -48.23939808 26.05050467 -46.56640625 15.18359375 C-44.74989555 8.69605555 -40.55929821 3.33684475 -34.94140625 -0.3515625 C-24.1661394 -6.01417911 -10.67629828 -5.79862846 0 0 Z " fill="#000000" transform="translate(389,439)"/>
<path d="M0 0 C1.2375 -0.01675781 2.475 -0.03351563 3.75 -0.05078125 C7 0.3125 7 0.3125 8.875 1.58203125 C11.34001882 5.3737095 11.10767307 9.31106714 11.0625 13.72265625 C11.05476563 14.95951172 11.04703125 16.19636719 11.0390625 17.47070312 C11.01972656 19.40333008 11.01972656 19.40333008 11 21.375 C10.97453024 23.92834338 10.95348385 26.48173587 10.9375 29.03515625 C10.92589844 30.16703369 10.91429687 31.29891113 10.90234375 32.46508789 C10.86790519 35.38875649 10.86790519 35.38875649 12 38.3125 C12.78012451 38.3218457 13.56024902 38.33119141 14.36401367 38.34082031 C17.97243225 38.39521456 21.57964855 38.47872354 25.1875 38.5625 C26.41404297 38.57667969 27.64058594 38.59085937 28.90429688 38.60546875 C40.80886265 38.91957339 52.11988048 40.88225438 61 49.3125 C61.62648438 49.89902344 62.25296875 50.48554688 62.8984375 51.08984375 C72.7985028 61.30320226 72.64076086 73.46324844 72.52148438 86.86694336 C72.49986402 89.76824791 72.52145346 92.66712586 72.546875 95.56835938 C72.54423473 97.41927628 72.53911601 99.27019168 72.53125 101.12109375 C72.53934692 101.98463974 72.54744385 102.84818573 72.55578613 103.73789978 C72.46260613 109.68746532 72.46260613 109.68746532 70.11914062 112.85375977 C66.3457674 115.45121426 62.38895245 115.05738045 58 114.3125 C55.42362529 112.42734777 54.40332572 111.11915143 53 108.3125 C52.8805948 106.10627645 52.82074744 103.89672521 52.7890625 101.6875 C52.76095304 100.32681173 52.73228841 98.96613484 52.703125 97.60546875 C52.66219692 95.47087428 52.62529958 93.3364828 52.59863281 91.20166016 C52.45910628 75.18110738 52.45910628 75.18110738 44.58203125 61.71875 C39.44345103 57.15112314 34.56847226 56.76218406 27.90625 56.9765625 C23.40855487 57.49645737 21.51548819 58.37096906 18 61.3125 C13.29857046 68.00252376 11.87700973 73.66170462 11.75390625 81.74609375 C11.7209738 83.2141988 11.68776205 84.68229762 11.65429688 86.15039062 C11.60690044 88.45218725 11.56243254 90.75395749 11.52319336 93.0559082 C11.48334491 95.28622848 11.43184379 97.51605101 11.37890625 99.74609375 C11.3704921 100.42957382 11.36207794 101.11305389 11.35340881 101.81724548 C11.25297835 105.72412726 10.79404352 108.82104951 9 112.3125 C5.72628284 114.79394771 2.37212739 114.58054572 -1.625 114.5625 C-2.77226562 114.56765625 -3.91953125 114.5728125 -5.1015625 114.578125 C-8 114.3125 -8 114.3125 -10 112.3125 C-10.25447559 110.3540802 -10.25447559 110.3540802 -10.26069641 107.90942383 C-10.26778122 106.98400787 -10.27486603 106.05859192 -10.28216553 105.10513306 C-10.27968811 104.08688446 -10.27721069 103.06863586 -10.2746582 102.01953125 C-10.27976913 100.94955902 -10.28488007 99.87958679 -10.29014587 98.77719116 C-10.30409121 95.22640451 -10.30308152 91.67581085 -10.30078125 88.125 C-10.30466517 85.66642178 -10.3089992 83.20784424 -10.31376648 80.74926758 C-10.32123913 75.59096096 -10.32092963 70.43272278 -10.31567383 65.27441406 C-10.30987476 58.64943277 -10.32681598 52.02473064 -10.3500185 45.39979553 C-10.36471694 40.32131297 -10.36563291 35.24289826 -10.36250877 30.16439819 C-10.36302384 27.72105353 -10.36829613 25.27770525 -10.37832069 22.8343811 C-10.3905938 19.42455651 -10.38394849 16.01528385 -10.37231445 12.60546875 C-10.37995819 11.58722015 -10.38760193 10.56897156 -10.39547729 9.51986694 C-10.38846298 8.59445099 -10.38144867 7.66903503 -10.3742218 6.71557617 C-10.37438954 5.90883957 -10.37455729 5.10210297 -10.37473011 4.2709198 C-10.25106917 3.62464127 -10.12740824 2.97836273 -10 2.3125 C-6.33236683 -0.13258878 -4.36568225 0.01364276 0 0 Z " fill="#000000" transform="translate(421,438.6875)"/>
<path d="M0 0 C4.62 0 9.24 0 14 0 C14.33 2.64 14.66 5.28 15 8 C15.94875 7.236875 16.8975 6.47375 17.875 5.6875 C26.92182226 -0.64347701 37.32720803 -0.96532366 48 0 C55.07197498 1.64702575 60.49650351 5.40199332 66 10 C66.60328125 10.49371094 67.2065625 10.98742187 67.828125 11.49609375 C69.22912777 12.6515937 70.61629032 13.82384677 72 15 C72.38929688 14.55269531 72.77859375 14.10539062 73.1796875 13.64453125 C80.44913958 5.78883303 89.49810032 1.60424223 100.15234375 0.74609375 C112.53157313 0.32205385 123.46354653 2.93043606 132.625 11.4375 C140.85027525 20.31213909 143.62349049 26.82031578 143.390625 38.9375 C143.38496521 40.05817871 143.37930542 41.17885742 143.37347412 42.33349609 C143.35120292 45.88944417 143.30102177 49.44435989 143.25 53 C143.22992313 55.4205583 143.21167445 57.84113249 143.1953125 60.26171875 C143.15136813 66.17487289 143.08240308 72.08726181 143 78 C139.04 78 135.08 78 131 78 C130.97083496 76.49695313 130.94166992 74.99390625 130.91162109 73.4453125 C130.79529709 67.84589524 130.64083996 62.24805677 130.47509766 56.64990234 C130.40876586 54.23121854 130.35264995 51.81223136 130.30712891 49.39306641 C130.23972231 45.90656797 130.13509454 42.42282833 130.0234375 38.9375 C130.01065765 37.86322754 129.99787781 36.78895508 129.98471069 35.68212891 C129.70579714 28.49267256 128.13273053 24.12512142 123 19 C120.48061217 16.91867294 120.48061217 16.91867294 117.875 15.5625 C116.63363281 14.85287109 116.63363281 14.85287109 115.3671875 14.12890625 C109.08406715 11.13250067 101.57262462 10.9256925 94.9375 13 C89.03203366 15.53262886 83.90596626 20.08835849 80.40600586 25.43505859 C78.44327595 30.4115792 78.54006599 34.9648109 78.5234375 40.26953125 C78.50785797 41.34627609 78.49227844 42.42302094 78.47622681 43.53239441 C78.42882141 46.95908942 78.40096697 50.38558118 78.375 53.8125 C78.33854635 57.25712998 78.29800787 60.70164373 78.25234985 64.14616394 C78.22505323 66.28729953 78.20373262 68.42852085 78.18881226 70.56977844 C78.17341904 72.01214119 78.17341904 72.01214119 78.15771484 73.48364258 C78.14797134 74.75888542 78.14797134 74.75888542 78.13803101 76.05989075 C78 78 78 78 77 79 C75.31391034 79.07205511 73.62499341 79.08386068 71.9375 79.0625 C70.55884766 79.04896484 70.55884766 79.04896484 69.15234375 79.03515625 C68.08693359 79.01775391 68.08693359 79.01775391 67 79 C67.00079559 78.39136108 67.00159119 77.78272217 67.00241089 77.15563965 C67.00485693 70.79563112 66.96550203 64.4368366 66.90234375 58.07714844 C66.88422451 55.70676316 66.8766078 53.33627258 66.87988281 50.96582031 C66.88275142 47.54930804 66.84731341 44.13496139 66.8046875 40.71875 C66.81378143 39.66635132 66.82287537 38.61395264 66.83224487 37.52966309 C66.69129885 30.3234985 65.06548705 26.16432132 60 21 C53.17216988 14.92299656 45.41992859 12.40279063 36.35546875 12.69921875 C27.94769973 13.77284763 22.85391294 17.48617631 17.49609375 23.87890625 C15.14376215 27.21393512 14.86465487 29.96171684 14.79467773 33.93041992 C14.77473251 34.93123093 14.75478729 35.93204193 14.73423767 36.96318054 C14.71752518 38.04138565 14.70081268 39.11959076 14.68359375 40.23046875 C14.66281265 41.33602615 14.64203156 42.44158356 14.62062073 43.5806427 C14.55517668 47.1161979 14.49626397 50.65182806 14.4375 54.1875 C14.3943099 56.58269008 14.35069546 58.97787255 14.30664062 61.37304688 C14.19950048 67.24862088 14.09821832 73.12427036 14 79 C9.38 79 4.76 79 0 79 C0 52.93 0 26.86 0 0 Z " fill="#000000" transform="translate(796,476)"/>
<path d="M0 0 C4.16963839 3.13734928 8.2900184 6.48047797 11 11 C11.0703125 12.9375 11.0703125 12.9375 10 15 C7.99540462 16.80829969 6.03623719 18.40173281 3.875 20 C2.59176533 20.97696867 1.30923667 21.95486523 0.02734375 22.93359375 C-0.63797363 23.43745605 -1.30329102 23.94131836 -1.98876953 24.46044922 C-5.22543294 26.9380408 -8.39080846 29.50264253 -11.5625 32.0625 C-18.29950896 37.47467258 -25.1273902 42.76151833 -32 48 C-31.35764383 51.03325133 -31.35764383 51.03325133 -29.375 51.9375 C-28.199375 52.4634375 -28.199375 52.4634375 -27 53 C-25.4221875 54.0209375 -25.4221875 54.0209375 -23.8125 55.0625 C-18.94629896 57.82243492 -14.1455183 58.58751003 -8.63671875 57.55859375 C-2.1089967 55.6386755 2.83632343 52.42148967 6.3125 46.4375 C9.10412063 40.36775224 9 33.57383894 9 27 C13.29 26.67 17.58 26.34 22 26 C22.61907396 38.74260578 21.56704902 48.77101847 13.046875 58.9296875 C4.79331491 67.27775401 -4.04088557 71.21840222 -15.6875 71.625 C-26.17707048 71.64348057 -34.8199194 67.32939313 -42.5 60.1875 C-50.92059815 50.86533888 -56.25329806 39.66490294 -56 27 C-54.52700075 15.81664651 -49.73425142 7.64456391 -41.0859375 0.50390625 C-28.37905991 -8.65741936 -12.96931625 -8.69058288 0 0 Z M-38 14 C-41.8293568 19.96149174 -43.94526072 24.91054461 -43 32 C-41.6351132 35.40241824 -41.6351132 35.40241824 -40 38 C-36.28835842 36.35728782 -33.31833704 34.05107313 -30.125 31.5625 C-29.56707764 31.12800537 -29.00915527 30.69351074 -28.43432617 30.24584961 C-27.24366548 29.31768637 -26.0541634 28.38803527 -24.86572266 27.45703125 C-22.95220736 25.96267646 -21.02968821 24.48053858 -19.10546875 23 C-17.84092041 22.02112448 -16.57659174 21.04196509 -15.3125 20.0625 C-14.71260254 19.60238525 -14.11270508 19.14227051 -13.49462891 18.66821289 C-10.80935621 16.57472197 -8.90664638 14.85996957 -7 12 C-17.46330468 4.27369055 -28.58706332 4.0641224 -38 14 Z " fill="#000000" transform="translate(996,482)"/>
<path d="M0 0 C1.54397461 -0.04253906 1.54397461 -0.04253906 3.11914062 -0.0859375 C11.9419504 -0.1082596 18.57614702 2.19599621 25.125 8.1875 C29.72859281 15.58114905 30.44933431 22.50165926 30.5 31.0625 C30.50555908 31.85358154 30.51111816 32.64466309 30.5168457 33.4597168 C30.41809026 41.60746264 29.47888751 49.0327486 24.1875 55.5 C16.13432984 63.29339047 7.89232274 63.53349743 -2.8125 63.5 C-10.69684983 63.05371605 -17.79108438 61.9281727 -23.8125 56.5 C-29.41774731 49.3137855 -29.06064951 42.69877422 -29.10766602 33.98632812 C-29.11916725 32.50250702 -29.13959 31.01872668 -29.16918945 29.53515625 C-29.2121173 27.38252879 -29.22806951 25.23112875 -29.23828125 23.078125 C-29.25286377 21.79325195 -29.26744629 20.50837891 -29.2824707 19.18457031 C-28.54778968 13.4246711 -26.17917524 9.83630468 -22 5.75 C-14.67143675 0.57689653 -8.81238973 -0.02182635 0 0 Z M-15.8125 16.5 C-18.75866921 21.34153371 -18.14203733 26.43444223 -18.125 31.9375 C-18.14111328 32.97455078 -18.15722656 34.01160156 -18.17382812 35.08007812 C-18.28841566 42.33430111 -18.28841566 42.33430111 -14.8125 48.5 C-10.27725986 51.52349342 -5.83765442 50.90786466 -0.5 50.9375 C0.53318359 50.97037109 1.56636719 51.00324219 2.63085938 51.03710938 C9.19975424 51.12849912 9.19975424 51.12849912 14.85546875 48.16015625 C19.10647464 43.31101888 18.40420847 38.3173036 18.4375 32.1875 C18.458125 31.24970703 18.47875 30.31191406 18.5 29.34570312 C18.53018292 23.99200729 18.32458198 20.05724747 15.1875 15.5 C10.63666613 11.36467974 6.11458706 12.02063728 0.25 12.0625 C-0.73935547 12.04251953 -1.72871094 12.02253906 -2.74804688 12.00195312 C-8.30676918 12.00569134 -11.94572732 12.05516434 -15.8125 16.5 Z " fill="#D74F3F" transform="translate(310.8125,370.5)"/>
<path d="M0 0 C3.96 0 7.92 0 12 0 C12 4.29 12 8.58 12 13 C20.91 13 29.82 13 39 13 C39 17.29 39 21.58 39 26 C30.75 26 22.5 26 14 26 C14.33 29.63 14.66 33.26 15 37 C15.09785773 39.24375964 15.17260887 41.48880951 15.2109375 43.734375 C15.25347656 45.46107422 15.25347656 45.46107422 15.296875 47.22265625 C15.34930071 49.58967719 15.39346614 51.9568944 15.4296875 54.32421875 C15.70954247 64.75269581 15.70954247 64.75269581 21.19921875 73.328125 C24.6228975 75.37182724 27.93299645 76.11888459 31.8125 76.75 C32.50537109 76.87503906 33.19824219 77.00007812 33.91210938 77.12890625 C35.60573839 77.43259145 37.30259781 77.71816718 39 78 C39 82.29 39 86.58 39 91 C27.53135027 91.58315168 16.05706175 89.45179894 7 82 C-1.07734441 73.14159163 -0.36684074 60.31521666 -0.625 49.0625 C-0.66223346 47.67650384 -0.69983433 46.2905175 -0.73779297 44.90454102 C-1.13288169 29.86304363 -1.29049271 15.0019777 0 0 Z " fill="#000000" transform="translate(728,463)"/>
<path d="M0 0 C14.52 0 29.04 0 44 0 C44 2.97 44 5.94 44 9 C33.11 9 22.22 9 11 9 C11 14.28 11 19.56 11 25 C19.25 25 27.5 25 36 25 C36 27.97 36 30.94 36 34 C27.75 34 19.5 34 11 34 C11 38.95 11 43.9 11 49 C21.89 49 32.78 49 44 49 C44 51.97 44 54.94 44 58 C29.48 58 14.96 58 0 58 C0 38.86 0 19.72 0 0 Z " fill="#000000" transform="translate(804,560)"/>
<path d="M0 0 C3.63 0 7.26 0 11 0 C15.97073215 9.44985343 20.00835602 19.10072294 24 29 C24.33 19.43 24.66 9.86 25 0 C27.97 0 30.94 0 34 0 C34 15.18 34 30.36 34 46 C30.37 46 26.74 46 23 46 C18.46137508 36.41249056 14.13002639 26.77103804 10 17 C9.67 26.57 9.34 36.14 9 46 C6.03 46 3.06 46 0 46 C0 30.82 0 15.64 0 0 Z " fill="#000000" transform="translate(942,572)"/>
<path d="M0 0 C4.29 0 8.58 0 13 0 C13 25.74 13 51.48 13 78 C8.71 78 4.42 78 0 78 C0 52.26 0 26.52 0 0 Z " fill="#000000" transform="translate(770,476)"/>
<path d="M0 0 C11.55 0 23.1 0 35 0 C35 2.64 35 5.28 35 8 C26.42 8 17.84 8 9 8 C9 11.96 9 15.92 9 20 C15.6 20 22.2 20 29 20 C29 22.31 29 24.62 29 27 C22.4 27 15.8 27 9 27 C9 30.96 9 34.92 9 39 C17.58 39 26.16 39 35 39 C35 41.31 35 43.62 35 46 C23.45 46 11.9 46 0 46 C0 30.82 0 15.64 0 0 Z " fill="#000000" transform="translate(900,572)"/>
<path d="M0 0 C1.50062713 0.0201013 3.00128034 0.03834564 4.50195312 0.0546875 C8.14768483 0.09838313 11.79242199 0.16720798 15.4375 0.25 C15.4375 3.22 15.4375 6.19 15.4375 9.25 C14.69701416 9.26458252 13.95652832 9.27916504 13.19360352 9.29418945 C9.79524587 9.36927222 6.3978066 9.46573281 3 9.5625 C1.83533203 9.58505859 0.67066406 9.60761719 -0.52929688 9.63085938 C-9.37578257 9.90497583 -18.08362056 10.58056528 -24.5625 17.25 C-28.10218523 23.31803182 -28.72348905 28.36936035 -28.87890625 35.296875 C-28.89968735 36.06807678 -28.92046844 36.83927856 -28.94187927 37.6338501 C-29.00708572 40.08914572 -29.06612484 42.54454521 -29.125 45 C-29.16821274 46.66797935 -29.2118279 48.33594832 -29.25585938 50.00390625 C-29.36273736 54.08583196 -29.46408566 58.16786182 -29.5625 62.25 C-31.04156892 62.27689216 -32.52077483 62.29634621 -34 62.3125 C-34.82371094 62.32410156 -35.64742187 62.33570313 -36.49609375 62.34765625 C-38.5625 62.25 -38.5625 62.25 -39.5625 61.25 C-39.80815683 56.74889691 -39.79116663 52.24170034 -39.80273438 47.73461914 C-39.81229895 45.48479186 -39.843235 43.23593505 -39.875 40.98632812 C-39.96576257 28.84957079 -39.33038194 17.4887912 -30.5625 8.25 C-21.71280449 -0.36051455 -11.58839732 -0.27119331 0 0 Z " fill="#B32267" transform="translate(204.5625,569.75)"/>
<path d="M0 0 C7.38771952 4.26970862 13.03145615 9.86780594 15.7421875 18 C16.8150333 22.23892471 16.872066 26.36167942 16.83984375 30.70703125 C16.8384288 31.43242599 16.83701385 32.15782074 16.83555603 32.90519714 C16.82998681 35.2076745 16.81744011 37.51005235 16.8046875 39.8125 C16.79966852 41.37955588 16.79510631 42.9466133 16.79101562 44.51367188 C16.78002748 48.34248589 16.76278423 52.17122611 16.7421875 56 C13.4421875 56 10.1421875 56 6.7421875 56 C6.7328418 55.00669678 6.72349609 54.01339355 6.71386719 52.98999023 C6.67377437 49.27893428 6.60796438 45.56869064 6.53466797 41.8581543 C6.50656947 40.25702406 6.48529991 38.65575798 6.47119141 37.05444336 C6.4496058 34.74262504 6.40288192 32.43242086 6.3515625 30.12109375 C6.35033386 29.41351425 6.34910522 28.70593475 6.34783936 27.97691345 C6.17213898 21.91628259 4.23902384 17.72271151 0.14453125 13.2578125 C-4.68020805 9.52668078 -7.88120995 8.86740706 -13.89453125 8.68359375 C-15.84262695 8.62075195 -15.84262695 8.62075195 -17.83007812 8.55664062 C-19.20182011 8.51683013 -20.57356494 8.47711784 -21.9453125 8.4375 C-23.32878895 8.39429165 -24.71225277 8.35067661 -26.09570312 8.30664062 C-29.48296969 8.20041972 -32.87031049 8.09837642 -36.2578125 8 C-36.2578125 4.7 -36.2578125 1.4 -36.2578125 -2 C-26.24158164 -5.33874362 -9.52745113 -4.21977074 0 0 Z " fill="#D74F3E" transform="translate(212.2578125,470)"/>
<path d="M0 0 C2.97 0 5.94 0 9 0 C10.27238754 3.95783541 11.54262133 7.91635897 12.8125 11.875 C13.34713867 13.53789063 13.34713867 13.53789063 13.89257812 15.234375 C15.80335663 21.19460152 17.66661434 27.15985989 19.39331055 33.17626953 C19.84789157 34.99714238 19.84789157 34.99714238 21 36 C24.63 24.12 28.26 12.24 32 0 C34.97 0 37.94 0 41 0 C40.38177652 5.50355266 39.05210049 10.45835194 37.3125 15.70703125 C36.91865112 16.91693977 36.91865112 16.91693977 36.5168457 18.15129089 C35.96476407 19.84384561 35.40995139 21.53551172 34.85253906 23.22631836 C33.99744869 25.82023942 33.15035038 28.4166637 32.3046875 31.01367188 C31.76608285 32.66160804 31.22703601 34.30939977 30.6875 35.95703125 C30.43331299 36.73407913 30.17912598 37.51112701 29.91723633 38.3117218 C28.11799384 43.76401232 28.11799384 43.76401232 27 46 C22.71 46 18.42 46 14 46 C12.00055246 39.93290739 10.00687349 33.86396176 8.01855469 27.79321289 C7.34110847 25.72758651 6.66207909 23.66247865 5.98144531 21.59790039 C5.00430899 18.6330181 4.03285108 15.66632757 3.0625 12.69921875 C2.75626709 11.7741301 2.45003418 10.84904144 2.13452148 9.8959198 C1.85423096 9.03525406 1.57394043 8.17458832 1.28515625 7.2878418 C1.03644775 6.53061325 0.78773926 5.7733847 0.53149414 4.99320984 C0 3 0 3 0 0 Z " fill="#000000" transform="translate(853,572)"/>
<path d="M0 0 C12.87 0 25.74 0 39 0 C39 2.64 39 5.28 39 8 C34.05 8 29.1 8 24 8 C24 20.54 24 33.08 24 46 C21.03 46 18.06 46 15 46 C15 33.46 15 20.92 15 8 C10.05 8 5.1 8 0 8 C0 5.36 0 2.72 0 0 Z " fill="#000000" transform="translate(983,572)"/>
<path d="M0 0 C2.63093935 2.02958179 4.03622291 3.64966878 4.5234375 6.9921875 C4.58593895 11.10478316 4.55050804 13.96148393 2.6875 17.6875 C-0.64496674 20.35347339 -3.53714472 21.50404259 -7.8125 21.6875 C-11.77977959 20.5818647 -14.0170036 19.5856411 -16.75 16.5 C-18.14255748 12.81381843 -18.63123317 9.53329252 -17.8125 5.6875 C-13.92493644 -1.22372411 -7.28421008 -3.39929804 0 0 Z " fill="#000000" transform="translate(782.8125,446.3125)"/>
</svg>
