<?xml version="1.0" encoding="UTF-8"?>
<svg version="1.1" xmlns="http://www.w3.org/2000/svg" width="1080" height="1080">
<path d="M0 0 C7.10244999 -0.02526787 14.20488848 -0.04283201 21.30737305 -0.05493164 C23.72567172 -0.05997349 26.14396733 -0.06680678 28.56225586 -0.07543945 C32.02979283 -0.08751157 35.49728966 -0.09322963 38.96484375 -0.09765625 C40.05337143 -0.10281754 41.14189911 -0.10797882 42.26341248 -0.11329651 C43.76485558 -0.11340981 43.76485558 -0.11340981 45.29663086 -0.11352539 C46.62566689 -0.11685631 46.62566689 -0.11685631 47.98155212 -0.12025452 C50 0 50 0 51 1 C51.08669432 2.4887186 51.10703494 3.981445 51.09765625 5.47265625 C51.09515869 6.28226807 51.09266113 7.09187988 51.09008789 7.92602539 C51.08098389 8.96106201 51.07187988 9.99609863 51.0625 11.0625 C51.041875 14.341875 51.02125 17.62125 51 21 C41.1 21.495 41.1 21.495 31 22 C36.54387978 23.8125377 36.54387978 23.8125377 42.09936523 25.58886719 C42.78716064 25.82250977 43.47495605 26.05615234 44.18359375 26.296875 C45.24404907 26.64250488 45.24404907 26.64250488 46.32592773 26.99511719 C48 28 48 28 48.79418945 29.89282227 C49.12098716 33.23871904 47.89401778 36.0999161 46.75 39.1875 C46.53214844 39.82880859 46.31429687 40.47011719 46.08984375 41.13085938 C45.421875 42.98046875 45.421875 42.98046875 44 46 C40.53793094 47.15402302 39.90094502 46.84192309 36.62109375 45.56640625 C35.78255859 45.24736328 34.94402344 44.92832031 34.08007812 44.59960938 C33.20802734 44.25736328 32.33597656 43.91511719 31.4375 43.5625 C29.70808419 42.89440339 27.97766082 42.22890728 26.24609375 41.56640625 C25.47966553 41.26677979 24.7132373 40.96715332 23.92358398 40.65844727 C22.02349057 39.89204847 22.02349057 39.89204847 20 40 C20.71285156 40.58007812 21.42570313 41.16015625 22.16015625 41.7578125 C27.49632259 46.11005584 32.79630884 50.49013433 38 55 C36.58319756 59.32046898 34.46236215 62.00461199 31.375 65.3125 C30.14910156 66.63701172 30.14910156 66.63701172 28.8984375 67.98828125 C28.27195313 68.65214844 27.64546875 69.31601562 27 70 C19.28472987 64.44500551 12.17344285 58.2263872 5 52 C6.22545307 54.33535474 7.45427761 56.66874805 8.6875 59 C9.05037109 59.68610352 9.41324219 60.37220703 9.78710938 61.07910156 C11.7338173 64.7287467 13.73837034 68.28260236 16 71.75 C18 75 18 75 18 78 C15.515625 79.82421875 15.515625 79.82421875 12.25 81.6875 C11.18265625 82.31011719 10.1153125 82.93273437 9.015625 83.57421875 C6 85 6 85 2 85 C1.71801758 84.49138428 1.43603516 83.98276855 1.14550781 83.45874023 C-0.15253179 81.11806972 -1.45126159 78.77778284 -2.75 76.4375 C-3.1934375 75.63763672 -3.636875 74.83777344 -4.09375 74.01367188 C-6.69722489 69.32358843 -9.32784091 64.65130495 -12 60 C-11.2909395 66.71198047 -10.40886277 73.38380003 -9.4375 80.0625 C-9.29892578 81.02349609 -9.16035156 81.98449219 -9.01757812 82.97460938 C-8.67967948 85.31659655 -8.34046465 87.65838473 -8 90 C-13.57067277 91.59162079 -18.21101581 92.20674944 -24 92 C-24.71770287 88.10493492 -25.42959185 84.20885554 -26.13623047 80.31176758 C-26.49533313 78.33814901 -26.8589652 76.36535632 -27.22265625 74.39257812 C-27.44824219 73.14541016 -27.67382812 71.89824219 -27.90625 70.61328125 C-28.11572266 69.46641846 -28.32519531 68.31955566 -28.54101562 67.13793945 C-28.94698846 64.36242409 -29.09164953 61.79760186 -29 59 C-29.66 59 -30.32 59 -31 59 C-31.04825928 59.65846924 -31.09651855 60.31693848 -31.14624023 60.99536133 C-31.71316066 67.98984215 -32.74944324 74.79743185 -34.0625 81.6875 C-34.24876953 82.68716797 -34.43503906 83.68683594 -34.62695312 84.71679688 C-35.08013987 87.14541301 -35.53786592 89.57307351 -36 92 C-41.55604105 92.09260068 -45.73312281 91.75562573 -51 90 C-50.38716379 81.85920244 -49.27232142 73.8638787 -47.9375 65.8125 C-47.75123047 64.66974609 -47.56496094 63.52699219 -47.37304688 62.34960938 C-46.91878934 59.56582605 -46.46105399 56.78266429 -46 54 C-46.43868408 54.79696289 -46.87736816 55.59392578 -47.3293457 56.41503906 C-48.96511433 59.38334378 -50.60358893 62.35012082 -52.24389648 65.31591797 C-52.95201152 66.59754632 -53.65905649 67.87976653 -54.36499023 69.16259766 C-55.38241375 71.01102459 -56.40372175 72.85725833 -57.42578125 74.703125 C-58.03848877 75.81333008 -58.65119629 76.92353516 -59.2824707 78.06738281 C-60.72610651 80.53233709 -62.22579595 82.76740052 -64 85 C-68.30764815 83.43358249 -72.06171464 81.31663844 -76 79 C-75.41137203 74.89680738 -74.0641512 72.01954001 -71.9453125 68.47265625 C-71.33042969 67.43302734 -70.71554688 66.39339844 -70.08203125 65.32226562 C-69.43621094 64.24654297 -68.79039063 63.17082031 -68.125 62.0625 C-66.85512403 59.92936491 -65.58684355 57.79527905 -64.3203125 55.66015625 C-63.75586426 54.71793213 -63.19141602 53.77570801 -62.60986328 52.80493164 C-60.95468956 49.92105374 -59.45902305 46.98722154 -58 44 C-58.85980469 44.73863281 -59.71960938 45.47726562 -60.60546875 46.23828125 C-63.07920086 48.3627018 -65.55644989 50.48294898 -68.03515625 52.6015625 C-70.59620568 54.79172729 -73.14486866 56.99494912 -75.68359375 59.2109375 C-76.83064663 60.20322042 -77.97777868 61.19541183 -79.125 62.1875 C-79.65633545 62.65647705 -80.1876709 63.1254541 -80.73510742 63.60864258 C-83.61725964 66.08691456 -85.20722165 67.05180541 -89 68 C-91.31 65.03 -93.62 62.06 -96 59 C-93.34254236 55.48115954 -90.64926771 52.72261915 -87.1875 50 C-82.29875602 46.08503023 -77.53690134 42.04928173 -72.8125 37.9375 C-72.14049561 37.35291016 -71.46849121 36.76832031 -70.77612305 36.16601562 C-69.18300744 34.77857668 -67.59134274 33.389472 -66 32 C-70.19676984 32.69260822 -73.9429807 34.01838701 -77.91015625 35.5390625 C-79.24268231 36.04208073 -80.57536952 36.54467223 -81.90820312 37.046875 C-83.99249996 37.83676564 -86.07535373 38.62994778 -88.15551758 39.43066406 C-90.17433478 40.20576053 -92.19791979 40.9670878 -94.22265625 41.7265625 C-95.42672119 42.18627441 -96.63078613 42.64598633 -97.87133789 43.11962891 C-101 44 -101 44 -103.31420898 43.95849609 C-105 43 -105 43 -106.046875 40.71484375 C-106.27890625 39.79832031 -106.5109375 38.88179687 -106.75 37.9375 C-106.99234375 37.01839844 -107.2346875 36.09929688 -107.484375 35.15234375 C-107.65453125 34.44207031 -107.8246875 33.73179687 -108 33 C-92.43744633 27.0109589 -76.90055619 21.04475478 -61 16 C-60.67128906 17.051875 -60.67128906 17.051875 -60.3359375 18.125 C-57.03482327 28.00150436 -53.07826206 34.69122535 -43.7734375 39.8046875 C-34.64149802 43.7404248 -26.06418543 43.5769533 -16.84765625 40.21484375 C-9.27252594 36.85619672 -4.20962475 31.33011197 -0.7265625 23.89453125 C0.87997833 19.70543286 1.13539646 16.05896722 1.125 11.5625 C1.12757813 10.45003906 1.13015625 9.33757813 1.1328125 8.19140625 C1.01364508 5.32788329 0.59674301 2.79201062 0 0 Z " fill="#2A2928" transform="translate(174,528)"/>
<path d="M0 0 C0.79075928 0.00523682 1.58151855 0.01047363 2.39624023 0.01586914 C3.67724609 0.02070313 3.67724609 0.02070313 4.98413086 0.02563477 C5.88196289 0.03401367 6.77979492 0.04239258 7.70483398 0.05102539 C8.6065332 0.05553711 9.50823242 0.06004883 10.43725586 0.06469727 C12.67234712 0.07652315 14.90730835 0.09300319 17.14233398 0.11352539 C21.88295684 9.96467596 25.69933615 20.15392497 29.57983398 30.36352539 C30.86852819 33.74437289 32.15944074 37.12436892 33.45092773 40.50415039 C33.91709 41.72708801 33.91709 41.72708801 34.39266968 42.97473145 C36.87309918 49.46327488 39.4586421 55.90495719 42.09570312 62.33129883 C43.14233398 65.11352539 43.14233398 65.11352539 43.14233398 67.11352539 C36.87233398 67.11352539 30.60233398 67.11352539 24.14233398 67.11352539 C19.26733398 55.48852539 19.26733398 55.48852539 18.14233398 52.11352539 C10.55233398 51.78352539 2.96233398 51.45352539 -4.85766602 51.11352539 C-5.51766602 54.08352539 -6.17766602 57.05352539 -6.85766602 60.11352539 C-7.84766602 62.42352539 -8.83766602 64.73352539 -9.85766602 67.11352539 C-15.79766602 67.11352539 -21.73766602 67.11352539 -27.85766602 67.11352539 C-25.61097547 59.18427479 -22.81607986 51.58347479 -19.78735352 43.92211914 C-19.06480881 42.08243309 -19.06480881 42.08243309 -18.32766724 40.20558167 C-17.31659339 37.63214485 -16.30279918 35.05980317 -15.28686523 32.48828125 C-13.98317526 29.18800169 -12.68550582 25.88539395 -11.38969231 22.58201504 C-10.1500007 19.42346322 -8.90607288 16.26658724 -7.66235352 13.10961914 C-7.19570282 11.92121933 -6.72905212 10.73281952 -6.2482605 9.50840759 C-5.81756256 8.41959793 -5.38686462 7.33078827 -4.94311523 6.20898438 C-4.56355682 5.24653305 -4.18399841 4.28408173 -3.79293823 3.29246521 C-2.44380854 0.14934564 -2.44380854 0.14934564 0 0 Z M6.14233398 18.11352539 C4.16233398 24.38352539 2.18233398 30.65352539 0.14233398 37.11352539 C4.43233398 37.11352539 8.72233398 37.11352539 13.14233398 37.11352539 C11.84258075 30.39813366 9.84304511 24.39333426 7.14233398 18.11352539 C6.81233398 18.11352539 6.48233398 18.11352539 6.14233398 18.11352539 Z " fill="#2A2928" transform="translate(592.857666015625,495.886474609375)"/>
<path d="M0 0 C5.60837183 5.50660701 7.05850251 11.38069435 7.5625 19.03515625 C7.5625 25.95208886 5.99295152 31.3975037 1.5625 36.8125 C-3.8934044 42.22331428 -8.53351151 44.00077934 -16.05859375 44.17578125 C-18.4375 43.8125 -18.4375 43.8125 -24.4375 40.8125 C-24.7675 47.7425 -25.0975 54.6725 -25.4375 61.8125 C-31.0475 61.8125 -36.6575 61.8125 -42.4375 61.8125 C-42.4375 40.3625 -42.4375 18.9125 -42.4375 -3.1875 C-37.1575 -3.1875 -31.8775 -3.1875 -26.4375 -3.1875 C-26.1075 -2.5275 -25.7775 -1.8675 -25.4375 -1.1875 C-24.73625 -1.661875 -24.035 -2.13625 -23.3125 -2.625 C-15.54230079 -6.84793435 -6.75859307 -5.53881016 0 0 Z M-24.4375 12.8125 C-26.76152951 16.02187409 -26.91320691 18.92756021 -26.4375 22.8125 C-24.35920296 26.55343467 -23.11208281 27.60399259 -19 28.875 C-14.70418421 28.79963481 -13.38530329 27.84700339 -10.4375 24.8125 C-8.88725536 21.71201072 -9.14757985 19.23355782 -9.4375 15.8125 C-11.39821243 12.34354724 -12.59293949 11.10000996 -16.375 9.8125 C-20.0631376 9.8125 -21.58258294 10.5127057 -24.4375 12.8125 Z " fill="#2A2928" transform="translate(863.4375,520.1875)"/>
<path d="M0 0 C1 3 1 3 -0.43359375 6.13671875 C-1.09135973 7.3260128 -1.75977815 8.50946371 -2.4375 9.6875 C-2.77587891 10.29400391 -3.11425781 10.90050781 -3.46289062 11.52539062 C-4.29957915 13.0220025 -5.14862831 14.51169189 -6 16 C-6.6290625 15.7834375 -7.258125 15.566875 -7.90625 15.34375 C-15.82360174 12.76822594 -22.33676971 11.69466762 -30.2421875 15.02734375 C-34.19344418 17.21370578 -35.66935602 20.18126252 -37.3125 24.25 C-38.41669609 30.27288776 -38.10425435 34.94380224 -35.1875 40.375 C-31.885747 44.3371036 -29.06636556 46.66776501 -23.80078125 47.23828125 C-18.17747604 47.40600935 -14.49904459 46.75828025 -9.69140625 43.77734375 C-8 43 -8 43 -5 44 C-3.359375 46.36328125 -3.359375 46.36328125 -1.75 49.3125 C-1.20859375 50.27800781 -0.6671875 51.24351562 -0.109375 52.23828125 C1 55 1 55 0.94140625 57.21875 C-0.36644576 59.69335796 -1.74034394 60.15611173 -4.3125 61.1875 C-5.09238281 61.51105469 -5.87226563 61.83460938 -6.67578125 62.16796875 C-16.08271311 65.53549226 -29.55121785 65.89657124 -38.875 62.25 C-40.27194936 61.54172217 -41.65135676 60.79642101 -43 60 C-44.0725 59.443125 -45.145 58.88625 -46.25 58.3125 C-53.51345848 52.20459173 -56.44511288 44.52001809 -57.75 35.3125 C-58.62934319 24.80834592 -55.91469833 16.08953074 -50.3125 7.375 C-37.45481942 -5.83018546 -16.37357772 -8.03891582 0 0 Z " fill="#2A2928" transform="translate(319,499)"/>
<path d="M0 0 C0.33 -0.66 0.66 -1.32 1 -2 C6.28 -2 11.56 -2 17 -2 C17 13.18 17 28.36 17 44 C11.72 44 6.44 44 1 44 C0.67 43.01 0.34 42.02 0 41 C-0.598125 41.474375 -1.19625 41.94875 -1.8125 42.4375 C-6.23143556 45.59388255 -10.77568252 45.47889577 -16 45 C-22.55898117 42.9229893 -26.67361507 39.46391174 -30.3125 33.6875 C-33.5838885 26.62183713 -33.15721583 17.33955937 -31.1875 9.953125 C-28.41471959 3.59883655 -24.18574682 -0.01187631 -18 -3 C-11.88603674 -5.03798775 -5.27370771 -3.51580514 0 0 Z M-15 15 C-16.07947549 18.06708115 -16.33391529 20.77023313 -16 24 C-14.69788858 27.12804555 -14.69788858 27.12804555 -12 29 C-8.52817876 29.92995212 -6.15265918 30.34268246 -2.6875 29.3125 C-0.5396745 27.64196906 0.15595043 26.60248618 1 24 C1.44482583 19.92242991 1.40784998 17.72158073 -0.625 14.125 C-5.7564324 9.53371838 -10.20084172 10.31245005 -15 15 Z " fill="#2A2928" transform="translate(907,519)"/>
<path d="M0 0 C2.84625 -0.0825 5.6925 -0.165 8.625 -0.25 C9.51010254 -0.28641602 10.39520508 -0.32283203 11.30712891 -0.36035156 C16.85010229 -0.43770118 19.70480214 0.46931956 24 4 C24.33 2.68 24.66 1.36 25 0 C38.53 0 52.06 0 66 0 C67.32 2.31 68.64 4.62 70 7 C72.77000825 3.67913229 72.77000825 3.67913229 75 0 C78.63 0 82.26 0 86 0 C84.13924015 4.65189962 82.10303646 7.7833145 79.14453125 11.71875 C77.80847125 13.93167061 77.80847125 13.93167061 78.0703125 16.39453125 C79.26253806 19.73576843 81.02147296 22.28974555 83.0625 25.1875 C87 30.79964851 87 30.79964851 87 33 C83.22742094 33.47570174 79.74974523 33.71826106 76 33 C74.04939707 31.04080411 73.05354473 29.25223308 71.90234375 26.75 C71.45568359 25.88375 71.45568359 25.88375 71 25 C70.34 25 69.68 25 69 25 C67.68 27.64 66.36 30.28 65 33 C61.37 33 57.74 33 54 33 C56.02422018 27.93944954 58.55773937 24.06987959 61.63671875 19.62109375 C63.18175943 17.18934698 63.18175943 17.18934698 62.8984375 14.95703125 C61.78883541 12.54002843 60.44976669 10.43796032 58.9375 8.25 C58.38964844 7.45078125 57.84179688 6.6515625 57.27734375 5.828125 C56.64505859 4.92320312 56.64505859 4.92320312 56 4 C55.67 5.32 55.34 6.64 55 8 C51.7 8 48.4 8 45 8 C45 16.25 45 24.5 45 33 C41.7 33 38.4 33 35 33 C35 24.75 35 16.5 35 8 C31.7 8 28.4 8 25 8 C25.33 9.32 25.66 10.64 26 12 C25.505 13.134375 25.01 14.26875 24.5 15.4375 C22.88726256 19.26775142 22.52753121 20.22679874 24 24 C25.25246107 26.15587561 26.5628818 28.25057541 27.94140625 30.328125 C29 32 29 32 29 33 C25.37 33 21.74 33 18 33 C16.828125 30.68880208 15.65625 28.37760417 14.484375 26.06640625 C13.01047374 23.54473322 13.01047374 23.54473322 9 23 C9 26.3 9 29.6 9 33 C6.03 33 3.06 33 0 33 C0 22.11 0 11.22 0 0 Z M9 7 C9 9.64 9 12.28 9 15 C12.465 14.505 12.465 14.505 16 14 C16.16687448 11.58354218 16.16687448 11.58354218 16 9 C14.16116119 6.71271266 14.16116119 6.71271266 11.375 6.875 C10.199375 6.936875 10.199375 6.936875 9 7 Z " fill="#292828" transform="translate(327,588)"/>
<path d="M0 0 C5.89288125 7.52407781 6.92462571 14.56021657 6 24 C3.82268157 31.46799873 -0.30412814 36.18522041 -7 40 C-13.09915097 42.98180714 -20.15582669 42.88281887 -26.6875 41.3828125 C-33.90636314 38.89582611 -38.32668791 34.66874862 -42.09375 28.08984375 C-44.88713148 21.79180309 -45.14904415 14.85790186 -43.19140625 8.28515625 C-40.35849094 1.76651029 -36.48302724 -2.10075801 -30 -5 C-19.7777265 -8.38726223 -8.21998572 -7.45576936 0 0 Z M-28 14 C-28.55263322 17.93751167 -28.36220775 20.18503256 -26.75 23.8125 C-24.83877028 26.20153715 -23.94084445 27.18309876 -21 28 C-16.91335878 27.92702426 -14.74744854 27.61329111 -11.5625 25 C-9.42754225 20.90088112 -9.07465836 17.52844183 -10 13 C-11.99698199 9.94212133 -13.35408673 8.43138856 -16.9375 7.4921875 C-22.65651747 6.99393977 -25.084774 8.98945532 -28 14 Z " fill="#2A2928" transform="translate(367,522)"/>
<path d="M0 0 C5.85651259 5.15930871 10.15638749 9.7743522 10.83984375 17.8515625 C11.0969745 25.31863939 9.92320309 30.82557117 5.8125 37.0625 C0.08308859 42.95560888 -6.1198306 45.33553576 -14.25 45.625 C-22.33546027 45.42839306 -28.71101836 43.10820214 -34.375 37.3125 C-39.28476744 30.30978683 -40.16030338 23.70045056 -39.375 15.3125 C-37.57506031 8.05541833 -33.38965205 3.55174271 -27.375 -0.6875 C-18.9420954 -5.2124732 -8.37213356 -4.18606678 0 0 Z M-20.8125 13.1875 C-23.67517989 17.08074465 -24.01078256 20.57137864 -23.375 25.3125 C-21.985911 28.36163936 -21.985911 28.36163936 -19.375 30.3125 C-15.42570721 31.46138518 -13.34541141 31.74379396 -9.5625 30.0625 C-7.1647427 28.32558468 -7.1647427 28.32558468 -5.375 25.3125 C-4.94311577 19.95713556 -4.93017121 16.6847827 -8.375 12.3125 C-12.64821649 10.17589175 -17.12852672 10.3536744 -20.8125 13.1875 Z " fill="#2A2928" transform="translate(762.375,518.6875)"/>
<path d="M0 0 C3.9598653 5.03982857 4.34093423 8.75855026 4.2578125 15.109375 C4.2549826 15.92496887 4.25215271 16.74056274 4.24923706 17.58087158 C4.23806558 20.17906528 4.21296675 22.77691095 4.1875 25.375 C4.17746627 27.13931793 4.16834111 28.90364128 4.16015625 30.66796875 C4.13983992 34.98722027 4.10068615 39.30572176 4.0625 43.625 C-1.2175 43.625 -6.4975 43.625 -11.9375 43.625 C-11.99808594 41.63855469 -12.05867188 39.65210938 -12.12109375 37.60546875 C-12.18367782 35.67927008 -12.24629365 33.7530723 -12.30981445 31.8269043 C-12.37437006 29.83196681 -12.4342783 27.83688071 -12.49414062 25.84179688 C-12.53603516 24.58818359 -12.57792969 23.33457031 -12.62109375 22.04296875 C-12.65775146 20.88563232 -12.69440918 19.7282959 -12.73217773 18.53588867 C-12.82078509 15.5606554 -12.82078509 15.5606554 -13.9375 12.625 C-16.29117713 11.9371764 -16.29117713 11.9371764 -18.9375 11.625 C-22.18599977 13.34726496 -22.18599977 13.34726496 -22.9375 16.625 C-23.08779988 18.68862991 -23.18594448 20.75623915 -23.25390625 22.82421875 C-23.29580078 24.03271484 -23.33769531 25.24121094 -23.38085938 26.48632812 C-23.42017578 27.74896484 -23.45949219 29.01160156 -23.5 30.3125 C-23.54318359 31.58673828 -23.58636719 32.86097656 -23.63085938 34.17382812 C-23.73704789 37.32408727 -23.83778813 40.4745292 -23.9375 43.625 C-29.2175 43.625 -34.4975 43.625 -39.9375 43.625 C-39.9375 28.445 -39.9375 13.265 -39.9375 -2.375 C-34.6575 -2.375 -29.3775 -2.375 -23.9375 -2.375 C-23.6075 -1.715 -23.2775 -1.055 -22.9375 -0.375 C-22.23625 -0.849375 -21.535 -1.32375 -20.8125 -1.8125 C-13.82340902 -5.61091901 -6.1707226 -4.98909487 0 0 Z " fill="#2A2928" transform="translate(496.9375,519.375)"/>
<path d="M0 0 C6.89972507 7.28304313 6 12.63349833 6 23 C-4.23 23 -14.46 23 -25 23 C-20.47406479 27.52593521 -17.96390953 28.77630872 -11.6875 29.25 C-7.27417008 28.95079119 -3.29392962 28.05696729 1 27 C2.65 30.63 4.3 34.26 6 38 C-3.40297825 43.64178695 -13.59241401 44.59369835 -24.25 41.9375 C-30.78650879 39.69550906 -35.25632652 35.67000001 -39 29.9375 C-41.25329256 23.4848895 -41.31257749 14.46114092 -38.875 8.0625 C-34.08959444 0.24633759 -29.88775976 -3.52806006 -20.75 -5.8125 C-13.09973869 -6.19501307 -5.956697 -5.08498524 0 0 Z M-24 9 C-24.66 10.65 -25.32 12.3 -26 14 C-20.06 14 -14.12 14 -8 14 C-9.91084527 8.80337504 -9.91084527 8.80337504 -14 6 C-18.19578178 5.35449511 -20.68955243 6.40532488 -24 9 Z " fill="#2A2928" transform="translate(676,521)"/>
<path d="M0 0 C4.90787804 5.09509954 6.43454096 10.77844597 6.55859375 17.67578125 C6.43359375 21.48828125 6.43359375 21.48828125 5.43359375 23.48828125 C-4.46640625 23.81828125 -14.36640625 24.14828125 -24.56640625 24.48828125 C-20.50394585 28.55074165 -16.8538286 29.31884256 -11.19140625 29.73828125 C-6.80470199 29.43574992 -2.83509827 28.53903621 1.43359375 27.48828125 C3.08359375 31.11828125 4.73359375 34.74828125 6.43359375 38.48828125 C-3.05392678 43.47324966 -11.88476 45.03445876 -22.61328125 42.875 C-30.19448714 40.4980197 -34.78627919 36.36066888 -38.703125 29.49609375 C-41.60107508 22.75606505 -40.72214768 15.31673789 -38.56640625 8.48828125 C-35.64662291 2.96154851 -31.70628347 -0.90152531 -26.12890625 -3.76171875 C-17.20329142 -6.37409382 -7.47465668 -6.07651946 0 0 Z M-24.56640625 10.48828125 C-24.89640625 11.80828125 -25.22640625 13.12828125 -25.56640625 14.48828125 C-19.62640625 14.48828125 -13.68640625 14.48828125 -7.56640625 14.48828125 C-9.46124107 9.27083807 -9.46124107 9.27083807 -13.56640625 6.48828125 C-18.61841321 5.73585468 -21.03244834 6.85335312 -24.56640625 10.48828125 Z " fill="#2A2928" transform="translate(1010.56640625,520.51171875)"/>
<path d="M0 0 C-0.66 3.96 -1.32 7.92 -2 12 C-3.32 11.67 -4.64 11.34 -6 11 C-10.44954472 9.99867615 -14.4517307 9.83460839 -19 10 C-19 10.66 -19 11.32 -19 12 C-18.05898438 12.27972656 -17.11796875 12.55945313 -16.1484375 12.84765625 C-3.54949764 16.90383668 -3.54949764 16.90383668 0.078125 22.04296875 C2.38905179 26.94879216 2.6084221 31.20853493 0.875 36.3125 C-2.2218187 40.75127347 -5.52159791 43.39741837 -10.86328125 44.68359375 C-19.70453748 45.99281085 -27.57807237 44.78520441 -36 42 C-36.65234375 40.265625 -36.65234375 40.265625 -37 38 C-36.00390625 35.859375 -36.00390625 35.859375 -34.5625 33.75 C-34.08941406 33.04359375 -33.61632812 32.3371875 -33.12890625 31.609375 C-32.75636719 31.07828125 -32.38382813 30.5471875 -32 30 C-31.10796875 30.144375 -30.2159375 30.28875 -29.296875 30.4375 C-27.54117188 30.7159375 -27.54117188 30.7159375 -25.75 31 C-24.00976562 31.2784375 -24.00976562 31.2784375 -22.234375 31.5625 C-18.88332154 32.08936331 -18.88332154 32.08936331 -15 32 C-15.33 31.01 -15.66 30.02 -16 29 C-18.58656198 27.88881487 -18.58656198 27.88881487 -21.6875 27.0625 C-27.86591806 25.1377134 -32.30568255 23.54147617 -36 18 C-37.15769213 13.50850273 -37.18768205 9.75072819 -36.0625 5.25 C-32.60700065 -0.19502928 -28.40726997 -2.44751181 -22.1875 -3.875 C-14.30650709 -4.40246803 -7.05586971 -3.60633341 0 0 Z " fill="#2A2928" transform="translate(814,519)"/>
<path d="M0 0 C-0.33 3.63 -0.66 7.26 -1 11 C-4 12 -4 12 -6.625 11.0625 C-10.85031919 9.73230692 -14.61159981 9.82446399 -19 10 C-19 10.66 -19 11.32 -19 12 C-17.89140625 12.37511719 -16.7828125 12.75023437 -15.640625 13.13671875 C-14.17678995 13.65281444 -12.7132642 14.16978801 -11.25 14.6875 C-10.52039063 14.93177734 -9.79078125 15.17605469 -9.0390625 15.42773438 C-4.37834728 17.10135484 -1.71390745 18.64815346 1 23 C2.80038454 28.40115361 2.85842938 33.2171082 0.375 38.375 C-3.82167742 43.01343294 -8.77133205 44.77250578 -14.8828125 45.203125 C-22.82348777 45.31792994 -29.8244713 44.58776435 -37 41 C-35.7702107 36.93223538 -34.238962 33.60074162 -32 30 C-31.02417969 30.16757812 -30.04835938 30.33515625 -29.04296875 30.5078125 C-27.77066406 30.71148438 -26.49835937 30.91515625 -25.1875 31.125 C-23.92292969 31.33382812 -22.65835938 31.54265625 -21.35546875 31.7578125 C-17.86716423 32.35428059 -17.86716423 32.35428059 -15 30 C-15.65226563 29.74605469 -16.30453125 29.49210938 -16.9765625 29.23046875 C-33.26092944 22.81759858 -33.26092944 22.81759858 -36 17 C-36.75676224 12.13815954 -36.58757424 7.72599933 -35 3.0625 C-30.81568954 -1.25257016 -25.34223097 -3.53051008 -19.34765625 -4.04296875 C-12.60618132 -3.91958069 -6.03723985 -3.01861992 0 0 Z " fill="#2A2928" transform="translate(544,519)"/>
<path d="M0 0 C-0.66 4.62 -1.32 9.24 -2 14 C-3.03640625 13.95359375 -4.0728125 13.9071875 -5.140625 13.859375 C-6.51038779 13.82184725 -7.88018182 13.78544816 -9.25 13.75 C-10.27287109 13.69972656 -10.27287109 13.69972656 -11.31640625 13.6484375 C-14.75954073 13.58158052 -16.64390141 13.73957814 -19.45703125 15.796875 C-21.69196125 18.98801555 -21.47557553 21.19539572 -21 25 C-19.23984869 28.1850357 -18.50109084 28.83296972 -15 30 C-12.93854893 30.068991 -10.87498599 30.08467727 -8.8125 30.0625 C-7.72582031 30.05347656 -6.63914062 30.04445313 -5.51953125 30.03515625 C-4.27236328 30.01775391 -4.27236328 30.01775391 -3 30 C-2.13083113 31.40751221 -1.28014851 32.8264521 -0.4375 34.25 C0.03816406 35.03890625 0.51382813 35.8278125 1.00390625 36.640625 C2 39 2 39 1.93359375 41.1875 C1 43 1 43 -0.96875 44.046875 C-10.52226709 46.70062975 -18.74900419 47.08267088 -28 43 C-33.67530426 39.39037871 -36.80484831 35.12870582 -38.6875 28.625 C-39.72423305 19.91644237 -38.85311114 12.30904448 -33.375 5.1875 C-24.8223885 -3.73876928 -11.02331559 -4.40932624 0 0 Z " fill="#2A2928" transform="translate(967,518)"/>
<path d="M0 0 C5.61 0 11.22 0 17 0 C17 22.11 17 44.22 17 67 C11.39 67 5.78 67 0 67 C0 44.89 0 22.78 0 0 Z " fill="#2A2928" transform="translate(404,496)"/>
<path d="M0 0 C5.28 0 10.56 0 16 0 C16 22.11 16 44.22 16 67 C10.72 67 5.44 67 0 67 C0 44.89 0 22.78 0 0 Z " fill="#2A2928" transform="translate(379,496)"/>
<path d="M0 0 C0.495 0.495 0.495 0.495 1 1 C0.909084 3.70108504 0.76259234 6.36930311 0.5625 9.0625 C0.51029297 9.82111328 0.45808594 10.57972656 0.40429688 11.36132812 C0.27424165 13.24121722 0.13771962 15.12065685 0 17 C-0.68707031 16.96519531 -1.37414062 16.93039062 -2.08203125 16.89453125 C-3.43361328 16.85392578 -3.43361328 16.85392578 -4.8125 16.8125 C-5.70582031 16.77769531 -6.59914063 16.74289062 -7.51953125 16.70703125 C-10.04398426 16.7863515 -10.04398426 16.7863515 -11.76171875 18.38671875 C-14.15106609 21.49965393 -14.17949165 23.79133519 -14.31640625 27.6640625 C-14.35830078 28.78554688 -14.40019531 29.90703125 -14.44335938 31.0625 C-14.48267578 32.238125 -14.52199219 33.41375 -14.5625 34.625 C-14.60568359 35.80835938 -14.64886719 36.99171875 -14.69335938 38.2109375 C-14.79967338 41.14047907 -14.90036217 44.07022377 -15 47 C-20.61 47 -26.22 47 -32 47 C-32 31.82 -32 16.64 -32 1 C-26.39 1 -20.78 1 -15 1 C-14.67 1.66 -14.34 2.32 -14 3 C-13.360625 2.505 -12.72125 2.01 -12.0625 1.5 C-8.0191151 -0.48043342 -4.43947758 -0.47696867 0 0 Z " fill="#2A2928" transform="translate(720,516)"/>
<path d="M0 0 C5.61 0 11.22 0 17 0 C17 15.18 17 30.36 17 46 C11.39 46 5.78 46 0 46 C0 30.82 0 15.64 0 0 Z " fill="#2A2928" transform="translate(431,517)"/>
<path d="M0 0 C16.5 0 33 0 50 0 C49.67 3.3 49.34 6.6 49 10 C32.83 10 16.66 10 0 10 C0 6.7 0 3.4 0 0 Z " fill="#2A2928" transform="translate(63,534)"/>
<path d="M0 0 C6.29831167 1.2361036 12.19064527 2.99507584 18.19140625 5.2578125 C19.02212143 5.56572723 19.85283661 5.87364197 20.70872498 6.19088745 C23.32872852 7.16344289 25.94562434 8.14406366 28.5625 9.125 C30.35201325 9.79090308 32.14172512 10.45627266 33.93164062 11.12109375 C38.29007874 12.74124303 42.6457514 14.36862641 47 16 C46.01 19.3 45.02 22.6 44 26 C39.36632209 24.38986164 34.73570361 22.77176188 30.109375 21.140625 C25.79612551 19.62147524 21.4715382 18.13985738 17.140625 16.671875 C14.86441973 15.88589029 12.58837552 15.09943902 10.3125 14.3125 C9.207854 13.94455322 8.10320801 13.57660645 6.96508789 13.19750977 C5.9414917 12.83971436 4.91789551 12.48191895 3.86328125 12.11328125 C2.94844971 11.80173096 2.03361816 11.49018066 1.09106445 11.16918945 C-1 10 -1 10 -1.86254883 8.07104492 C-2.06069513 5.08547639 -1.06603053 2.75913785 0 0 Z " fill="#292827" transform="translate(69,507)"/>
<path d="M0 0 C2.701875 -0.103125 5.40375 -0.20625 8.1875 -0.3125 C9.02949951 -0.35802002 9.87149902 -0.40354004 10.73901367 -0.45043945 C14.93643418 -0.52777217 16.55728071 -0.33676448 20.01953125 2.296875 C22.59110443 5.80679342 22.62006916 7.7370245 22 12 C20.5 14.4375 20.5 14.4375 19 16 C19.639375 16.165 20.27875 16.33 20.9375 16.5 C23 18 23 18 23.9375 21.8125 C24.15582553 24.74658211 23.97707187 26.05859412 22.875 28.875 C21 31 21 31 16 33 C10.72 33 5.44 33 0 33 C0 22.11 0 11.22 0 0 Z M5 4 C5 7.3 5 10.6 5 14 C9.88424492 14.28730852 13.21669117 14.32472595 17 11 C17.58350505 8.45709375 17.58350505 8.45709375 17 6 C15.18806994 3.75675164 15.18806994 3.75675164 12.6171875 3.8046875 C11.71226562 3.82789063 10.80734375 3.85109375 9.875 3.875 C8.26625 3.91625 6.6575 3.9575 5 4 Z M5 18 C5 21.63 5 25.26 5 29 C11.83757756 29.4610899 11.83757756 29.4610899 18 27 C19.08223366 24.08995097 19.08223366 24.08995097 19 21 C17.92176376 19.20180007 17.92176376 19.20180007 16 18 C13.25756437 17.63729516 13.25756437 17.63729516 10.3125 17.8125 C8.559375 17.874375 6.80625 17.93625 5 18 Z " fill="#292827" transform="translate(424,588)"/>
<path d="M0 0 C4.03805866 1.36266644 6.54368118 3.1409151 9.625 6.0625 C13.96719565 10.08400173 18.44000361 13.85929733 23.0390625 17.58203125 C28.42299839 21.97867546 33.70533131 26.49658545 39 31 C37.35 33.31 35.7 35.62 34 38 C31.21176763 36.71076019 29.01003398 35.31380469 26.71484375 33.27734375 C26.10713135 32.74318848 25.49941895 32.2090332 24.87329102 31.65869141 C24.23447998 31.09069824 23.59566895 30.52270508 22.9375 29.9375 C17.52550889 25.18156751 12.05219101 20.54629167 6.453125 16.01171875 C2.89354965 13.09264024 -0.56348233 10.06234096 -4 7 C-2.92598892 4.08482708 -2.22189824 2.22189824 0 0 Z " fill="#282827" transform="translate(84,484)"/>
<path d="M0 0 C0.4125 0.74459473 0.825 1.48918945 1.25 2.25634766 C2.81787783 5.08543971 4.38655594 7.91408614 5.95578003 10.74243164 C6.64985258 11.99373793 7.34364095 13.24520189 8.03713989 14.49682617 C12.52034391 22.58712837 17.04922795 30.64328776 21.77734375 38.59375 C23 41 23 41 23 44 C20.35261084 45.4606285 19.10551666 46 16 46 C15.62302979 45.32122803 15.24605957 44.64245605 14.85766602 43.94311523 C13.09519313 40.77313241 11.32916434 37.60514877 9.5625 34.4375 C8.92884521 33.29901611 8.29519043 32.16053223 7.64233398 30.98754883 C3.7442796 24.01518172 -0.21725826 17.10089347 -4.59741211 10.41772461 C-6.06446312 8.08926659 -7.02122399 6.53429099 -6.91015625 3.73828125 C-5.25131765 0.57011311 -3.43223134 0 0 0 Z " fill="#282726" transform="translate(108,467)"/>
<path d="M0 0 C1.98 0 3.96 0 6 0 C7.85594207 4.37634785 9.70723236 8.75462235 11.55419922 13.13476562 C12.18345026 14.62521672 12.81397934 16.1151289 13.44580078 17.60449219 C14.35263534 19.74274259 15.25488789 21.88287552 16.15625 24.0234375 C16.44060913 24.69120209 16.72496826 25.35896667 17.01794434 26.04696655 C19 30.77225659 19 30.77225659 19 33 C17.35 33 15.7 33 14 33 C13.32845067 31.71086513 12.66291141 30.41859796 12 29.125 C11.62875 28.40570312 11.2575 27.68640625 10.875 26.9453125 C10 25 10 25 10 23 C5.38 23 0.76 23 -4 23 C-4.99 26.3 -5.98 29.6 -7 33 C-8.65 33 -10.3 33 -12 33 C-11.40405108 28.4992514 -10.23171075 24.69723284 -8.49609375 20.5078125 C-7.75649414 18.70957031 -7.75649414 18.70957031 -7.00195312 16.875 C-6.48060478 15.62494326 -5.95911869 14.37494396 -5.4375 13.125 C-4.91153536 11.85179948 -4.3861391 10.578364 -3.86132812 9.3046875 C-2.57978638 6.20076989 -1.29251196 3.09936178 0 0 Z M2 7 C1.3291288 8.6232687 0.66342971 10.24867578 0 11.875 C-0.37125 12.77992188 -0.7425 13.68484375 -1.125 14.6171875 C-2.11490226 16.88983858 -2.11490226 16.88983858 -2 19 C1.3 19 4.6 19 8 19 C7.52309796 17.37433394 7.04340334 15.74948689 6.5625 14.125 C6.29566406 13.22007812 6.02882813 12.31515625 5.75390625 11.3828125 C5.07386174 9.01724619 5.07386174 9.01724619 4 7 C3.34 7 2.68 7 2 7 Z " fill="#292827" transform="translate(274,588)"/>
<path d="M0 0 C1.98 0 3.96 0 6 0 C7.61741195 5.32658795 8.77223439 10.63387083 9.76171875 16.109375 C9.91663284 16.9580011 10.07154694 17.8066272 10.2311554 18.68096924 C10.55484147 20.46226276 10.87660506 22.24390661 11.1965332 24.02587891 C11.68877209 26.75705815 12.19278634 29.48590238 12.69726562 32.21484375 C13.01113792 33.95039055 13.32431365 35.6860635 13.63671875 37.421875 C13.78872238 38.23750916 13.94072601 39.05314331 14.09733582 39.89349365 C15.11440663 45.6567801 15.11440663 45.6567801 14 49 C12.02 49 10.04 49 8 49 C6.85582483 42.66541766 5.71705112 36.32988147 4.58203125 29.99365234 C4.1952553 27.83815516 3.80724237 25.68287955 3.41796875 23.52783203 C2.85872422 20.43058748 2.30392974 17.33257391 1.75 14.234375 C1.57500977 13.27070007 1.40001953 12.30702515 1.21972656 11.31414795 C1.05956055 10.41351624 0.89939453 9.51288452 0.734375 8.58496094 C0.59225586 7.79442322 0.45013672 7.0038855 0.30371094 6.18939209 C0 4 0 4 0 0 Z " fill="#292827" transform="translate(127,459)"/>
<path d="M0 0 C1.98 0 3.96 0 6 0 C5.43372204 10.38077683 3.36655592 20.49567035 1.4375 30.6875 C1.10435311 32.46801209 0.77166708 34.24861048 0.43945312 36.02929688 C-0.36838818 40.35387779 -1.18245659 44.67724319 -2 49 C-3.98 49 -5.96 49 -8 49 C-6.72119416 37.74040994 -4.95955931 26.63665277 -2.875 15.5 C-2.59463139 13.98315061 -2.31468178 12.46622372 -2.03515625 10.94921875 C-1.36156862 7.29857843 -0.68242216 3.64900053 0 0 Z " fill="#292827" transform="translate(155,459)"/>
<path d="M0 0 C2.0625 0.4375 2.0625 0.4375 4 1 C4 5.46826453 3.15444907 7.00673981 1 10.83984375 C0.35933594 11.98646484 -0.28132813 13.13308594 -0.94140625 14.31445312 C-1.45018311 15.20982788 -1.45018311 15.20982788 -1.96923828 16.12329102 C-2.97635501 17.89588324 -3.9717471 19.67460124 -4.96484375 21.45507812 C-9.43707775 29.43413922 -14.15129666 37.24417017 -19 45 C-20.65 44.34 -22.3 43.68 -24 43 C-22.68993659 38.67116471 -21.01069797 34.98165828 -18.734375 31.078125 C-18.09113281 29.96953125 -17.44789063 28.8609375 -16.78515625 27.71875 C-16.10684518 26.56245638 -15.42845942 25.40620658 -14.75 24.25 C-14.09386719 23.12078125 -13.43773437 21.9915625 -12.76171875 20.828125 C-1.52237708 1.52237708 -1.52237708 1.52237708 0 0 Z " fill="#282726" transform="translate(182,468)"/>
<path d="M0 0 C3.24228433 1.3689645 4.60765468 2.29004179 6.3125 5.375 C7 8 7 8 7 13 C1.72 13 -3.56 13 -9 13 C-7.5 17 -7.5 17 -5 18 C-3.12620395 18.07033769 -1.24998898 18.0843022 0.625 18.0625 C1.62789062 18.05347656 2.63078125 18.04445313 3.6640625 18.03515625 C4.82035156 18.01775391 4.82035156 18.01775391 6 18 C6 19.32 6 20.64 6 22 C1.82666517 24.08666742 -3.45442676 23.44849656 -8 23 C-11.67930728 20.90784488 -12.6704934 19.98851981 -14 16 C-14.5074473 12.19414525 -14.86096143 8.55165811 -12.953125 5.11328125 C-8.88965957 0.17736588 -6.27165358 -0.42519685 0 0 Z M-9 7 C-9 7.99 -9 8.98 -9 10 C-5.37 10 -1.74 10 2 10 C1.37158027 6.0285831 1.37158027 6.0285831 -1 4 C-5.21174952 4 -6.0936485 4.19744677 -9 7 Z " fill="#292827" transform="translate(542,598)"/>
<path d="M0 0 C2.88553572 2.52484375 3.72275236 5.21094886 4 9 C3.2092654 12.32108532 2.41901252 13.66246214 -0.25 15.8125 C-3.52426072 17.22638531 -5.46719094 17.51520132 -9 17 C-11.69990662 15.20006226 -13.5418865 13.916227 -15 11 C-15.43023798 7.12785818 -15.31669086 5.47503629 -13.125 2.1875 C-9.11493556 -1.94050751 -5.34357385 -1.26480922 0 0 Z " fill="#292827" transform="translate(445,494)"/>
<path d="M0 0 C0.53496094 0.26554687 1.06992188 0.53109375 1.62109375 0.8046875 C1.62109375 4.8046875 1.62109375 4.8046875 -0.2578125 6.70703125 C-1.14339844 7.37863281 -2.02898437 8.05023438 -2.94140625 8.7421875 C-3.94171875 9.52335937 -4.94203125 10.30453125 -5.97265625 11.109375 C-6.52050781 11.53702148 -7.06835938 11.96466797 -7.6328125 12.40527344 C-10.82056067 14.9601074 -13.87122839 17.67329885 -16.94140625 20.3671875 C-22.63617523 25.33945343 -28.41311112 30.15838588 -34.37890625 34.8046875 C-35.36890625 34.1446875 -36.35890625 33.4846875 -37.37890625 32.8046875 C-36.85537936 28.78797256 -35.00235856 27.21363911 -32.00390625 24.6171875 C-31.09511719 23.82699219 -30.18632812 23.03679687 -29.25 22.22265625 C-25.64039958 19.18273426 -22.00312257 16.18226301 -18.32421875 13.2265625 C-16.14982199 11.43859699 -14.03432242 9.62850029 -11.93359375 7.7578125 C-11.35262939 7.24653809 -10.77166504 6.73526367 -10.1730957 6.20849609 C-9.0375527 5.20599077 -7.91068495 4.19355339 -6.79370117 3.17041016 C-2.90435017 -0.2384524 -2.90435017 -0.2384524 0 0 Z " fill="#282726" transform="translate(205.37890625,486.1953125)"/>
<path d="M0 0 C2.79756228 2.02680532 4.7319019 3.59391627 5.40014648 7.09863281 C5.49190865 9.52156079 5.43671869 11.89119104 5.3125 14.3125 C5.28994141 15.14845703 5.26738281 15.98441406 5.24414062 16.84570312 C5.1855061 18.89791149 5.09583215 20.94919202 5 23 C3.35 23 1.7 23 0 23 C-0.33 17.39 -0.66 11.78 -1 6 C-2.65 5.67 -4.3 5.34 -6 5 C-9.32597281 8.53105961 -9.46770164 11.50235535 -9.6875 16.25 C-9.75324219 17.51328125 -9.81898438 18.7765625 -9.88671875 20.078125 C-9.92410156 21.04234375 -9.96148437 22.0065625 -10 23 C-11.32 23 -12.64 23 -14 23 C-14 15.74 -14 8.48 -14 1 C-12.02 1 -10.04 1 -8 1 C-5.11138291 -0.44430855 -3.20352299 -0.37688506 0 0 Z " fill="#282726" transform="translate(519,598)"/>
<path d="M0 0 C2.36497439 1.86708505 3.66030715 3.32061431 5 6 C5.07194869 8.88370333 5.09291708 11.74239664 5.0625 14.625 C5.05798828 15.42679688 5.05347656 16.22859375 5.04882812 17.0546875 C5.03703168 19.03649006 5.01909605 21.01825433 5 23 C3.35 23 1.7 23 0 23 C-0.33 17.06 -0.66 11.12 -1 5 C-3.31 5.33 -5.62 5.66 -8 6 C-9.52106634 9.04213267 -9.37429338 12.28047572 -9.5625 15.625 C-9.60568359 16.33140625 -9.64886719 17.0378125 -9.69335938 17.765625 C-9.79944751 19.51018537 -9.90022889 21.25506697 -10 23 C-11.32 23 -12.64 23 -14 23 C-14 15.74 -14 8.48 -14 1 C-4.21590909 -0.39772727 -4.21590909 -0.39772727 0 0 Z " fill="#292827" transform="translate(311,598)"/>
<path d="M0 0 C1.65 0 3.3 0 5 0 C5.33 5.94 5.66 11.88 6 18 C8.31 17.34 10.62 16.68 13 16 C14.10514766 12.68455701 14.32107631 9.79589889 14.5625 6.3125 C14.64628906 5.13300781 14.73007812 3.95351563 14.81640625 2.73828125 C14.87699219 1.83464844 14.93757813 0.93101562 15 0 C16.32 0 17.64 0 19 0 C19 7.26 19 14.52 19 22 C17.35 21.67 15.7 21.34 14 21 C13.67 21.33 13.34 21.66 13 22 C11.0390625 22.16796875 11.0390625 22.16796875 8.625 22.1875 C7.83351563 22.20167969 7.04203125 22.21585938 6.2265625 22.23046875 C4 22 4 22 1 20 C0.09761253 17.29283758 -0.11851302 15.76223232 -0.09765625 12.98828125 C-0.09443359 12.23095703 -0.09121094 11.47363281 -0.08789062 10.69335938 C-0.07951172 9.90767578 -0.07113281 9.12199219 -0.0625 8.3125 C-0.05798828 7.51521484 -0.05347656 6.71792969 -0.04882812 5.89648438 C-0.0370585 3.93095743 -0.01912348 1.96546915 0 0 Z " fill="#2A2927" transform="translate(452,599)"/>
<path d="M0 0 C0 1.65 0 3.3 0 5 C-2.97 4.67 -5.94 4.34 -9 4 C-9 4.99 -9 5.98 -9 7 C-8.04287109 7.39832031 -8.04287109 7.39832031 -7.06640625 7.8046875 C-6.24011719 8.15789063 -5.41382813 8.51109375 -4.5625 8.875 C-3.73878906 9.22304688 -2.91507813 9.57109375 -2.06640625 9.9296875 C0 11 0 11 1 13 C1.3125 15.9375 1.3125 15.9375 1 19 C-1.21675836 21.21675836 -2.60897462 21.94285876 -5.7265625 22.3984375 C-6.68304687 22.39070312 -7.63953125 22.38296875 -8.625 22.375 C-10.06746094 22.38660156 -10.06746094 22.38660156 -11.5390625 22.3984375 C-12.35117187 22.26695312 -13.16328125 22.13546875 -14 22 C-14.66 21.01 -15.32 20.02 -16 19 C-15.01 17.515 -15.01 17.515 -14 16 C-10.7 16.66 -7.4 17.32 -4 18 C-4 16.68 -4 15.36 -4 14 C-4.62648438 13.80664062 -5.25296875 13.61328125 -5.8984375 13.4140625 C-6.71570313 13.15367187 -7.53296875 12.89328125 -8.375 12.625 C-9.59316406 12.24214844 -9.59316406 12.24214844 -10.8359375 11.8515625 C-13 11 -13 11 -15 9 C-15.34490322 4.94738713 -15.30163882 3.45245824 -13 0 C-8.52745503 -1.49084832 -4.47254497 -1.49084832 0 0 Z " fill="#282726" transform="translate(586,599)"/>
<path d="M0 0 C0.99 0.33 1.98 0.66 3 1 C3 2.65 3 4.3 3 6 C0.03 5.67 -2.94 5.34 -6 5 C-6 5.99 -6 6.98 -6 8 C-5.36191406 8.27714844 -4.72382813 8.55429687 -4.06640625 8.83984375 C-3.24011719 9.20207031 -2.41382813 9.56429687 -1.5625 9.9375 C-0.73878906 10.29714844 0.08492188 10.65679688 0.93359375 11.02734375 C3 12 3 12 4 13 C4.46776176 19.31478377 4.46776176 19.31478377 2.83203125 21.7109375 C0.29635755 23.49510023 -1.49211313 23.33176796 -4.5625 23.25 C-5.53316406 23.23453125 -6.50382812 23.2190625 -7.50390625 23.203125 C-10 23 -10 23 -12 22 C-12 20.35 -12 18.7 -12 17 C-8.37 17.66 -4.74 18.32 -1 19 C-1 18.01 -1 17.02 -1 16 C-1.71027344 15.65066406 -2.42054688 15.30132813 -3.15234375 14.94140625 C-4.07144531 14.48636719 -4.99054688 14.03132812 -5.9375 13.5625 C-6.85402344 13.11003906 -7.77054687 12.65757812 -8.71484375 12.19140625 C-11 11 -11 11 -12 10 C-12.46808511 4.61702128 -12.46808511 4.61702128 -10.625 2.1875 C-7.09023038 -0.39560088 -4.3233111 -0.15169513 0 0 Z " fill="#282726" transform="translate(487,598)"/>
<path d="M0 0 C0.99 0.33 1.98 0.66 3 1 C3 2.65 3 4.3 3 6 C0.03 5.67 -2.94 5.34 -6 5 C-6.33 5.99 -6.66 6.98 -7 8 C-6.38511719 8.15855469 -5.77023437 8.31710937 -5.13671875 8.48046875 C1.42370362 10.37430679 1.42370362 10.37430679 4.1875 13.375 C5 16 5 16 4.3125 18.6875 C3 21 3 21 1 23 C-1.53125 23.23046875 -1.53125 23.23046875 -4.5 23.1875 C-5.96953125 23.17783203 -5.96953125 23.17783203 -7.46875 23.16796875 C-10 23 -10 23 -12 22 C-12 20.35 -12 18.7 -12 17 C-11.01 17.33 -10.02 17.66 -9 18 C-7.60560336 18.06665376 -6.20830125 18.08538199 -4.8125 18.0625 C-3.554375 18.041875 -2.29625 18.02125 -1 18 C-1 17.34 -1 16.68 -1 16 C-1.71027344 15.70867188 -2.42054688 15.41734375 -3.15234375 15.1171875 C-10.62393162 11.78483835 -10.62393162 11.78483835 -12.4375 8 C-12 5 -12 5 -10 2.125 C-6.32478359 -0.47827829 -4.41538659 -0.49059851 0 0 Z " fill="#282726" transform="translate(564,598)"/>
<path d="M0 0 C1.32 0 2.64 0 4 0 C4 7.26 4 14.52 4 22 C2.68 22 1.36 22 0 22 C0 14.74 0 7.48 0 0 Z " fill="#2A2928" transform="translate(495,599)"/>
<path d="M0 0 C1.65 0.33 3.3 0.66 5 1 C4.67 2.65 4.34 4.3 4 6 C2.35 5.67 0.7 5.34 -1 5 C-0.67 3.35 -0.34 1.7 0 0 Z " fill="#272625" transform="translate(495,588)"/>
</svg>
