<?xml version="1.0" encoding="UTF-8"?>
<svg version="1.1" xmlns="http://www.w3.org/2000/svg" width="1080" height="1080">
<path d="M0 0 C14.85 0 29.7 0 45 0 C45 13.526937 43.86555948 23.20933221 38 35 C39.00160156 34.9690625 40.00320312 34.938125 41.03515625 34.90625 C57.25204481 35.28970352 74.0910176 43.20314047 86 54 C86.74507812 54.64195312 87.49015625 55.28390625 88.2578125 55.9453125 C102.33295399 68.87535773 109.14377498 88.36229349 111 107 C111 112.28 111 117.56 111 123 C96.15 123 81.3 123 66 123 C66.04125 119.514375 66.0825 116.02875 66.125 112.4375 C66.18916516 92.64394212 63.93360397 72.52784776 50 57.25 C44.49293517 52.00742542 37.87808312 49.04279353 31 46 C30.26523438 46.74636719 29.53046875 47.49273438 28.7734375 48.26171875 C12.81477356 64.01808977 -4.89170475 70.53944273 -26.984375 71.75 C-35.56985164 72.46174936 -41.3710572 76.58516641 -47 83 C-55.70641975 95.40472195 -58.51207915 108.0724749 -61 123 C-75.85 123 -90.7 123 -106 123 C-106 105.69402277 -99.19350102 90.32686744 -87 78 C-73.95072655 66.45213443 -59.19282439 59.83763988 -41.89624023 58.34423828 C-33.73505239 57.63456977 -26.83243392 56.95686383 -20 52 C-19.38382812 51.56429687 -18.76765625 51.12859375 -18.1328125 50.6796875 C-4.13191892 38.7944845 -1.40942574 16.91310889 0 0 Z " fill="#8795AE" transform="translate(170,557)"/>
<path d="M0 0 C0 14.19 0 28.38 0 43 C-4.24875 42.938125 -8.4975 42.87625 -12.875 42.8125 C-33.94052399 42.71736301 -55.85954487 44.8865053 -72.09765625 59.9453125 C-75.8245791 63.98083405 -79.46958805 68.64355816 -81 74 C-80.76251155 76.59258227 -80.33665339 77.67021709 -78.46875 79.5 C-77.8190625 79.995 -77.169375 80.49 -76.5 81 C-63.73024883 91.7293421 -57.51050315 105.83524947 -55 122 C-54.83044457 124.12323887 -54.68317587 126.24842301 -54.5625 128.375 C-54.01600202 136.1393958 -51.12718793 141.89504016 -45.4140625 147.20703125 C-34.76644713 155.1152116 -22.82475496 158.55141729 -10 161 C-6.7 161.66 -3.4 162.32 0 163 C0 176.86 0 190.72 0 205 C-17.98917497 205 -35.14572554 198.59748836 -48.1171875 185.98681641 C-49.42413329 184.6703408 -50.712869 183.3358552 -52 182 C-52.88558594 181.16082031 -52.88558594 181.16082031 -53.7890625 180.3046875 C-64.50643001 169.35807149 -67.77493453 154.00180158 -69.40234375 139.38671875 C-70.45529645 130.69233786 -72.49044151 125.94481004 -79.08984375 120.171875 C-94.00712506 108.75432192 -111.82185278 106.5148456 -130 105 C-130 90.81 -130 76.62 -130 62 C-117.52519437 62 -105.32731085 63.33634457 -94 69 C-93.86464844 68.030625 -93.72929687 67.06125 -93.58984375 66.0625 C-90.55279455 46.37994199 -82.15726531 29.40751744 -66.11328125 17.0625 C-53.37791234 8.62551784 -39.69141742 3.52359343 -24.625 1.25 C-23.78751221 1.12197998 -22.95002441 0.99395996 -22.0871582 0.86206055 C-14.55756949 -0.16165186 -7.79328837 0 0 0 Z " fill="#3F424D" transform="translate(361,475)"/>
<path d="M0 0 C22.23969396 1.71074569 40.00829459 8.95947072 54.828125 26.0390625 C63.02262339 37.2106988 67.66999499 49.87240991 68.4375 63.6875 C68.96066621 71.94957765 71.3914221 78.55782372 77.578125 84.2421875 C93.3087502 95.65957676 110.87777358 97.98713406 130 100 C130 114.19 130 128.38 130 143 C110.82667776 141.87215752 110.82667776 141.87215752 104.6875 140.0625 C102.89892578 139.55396484 102.89892578 139.55396484 101.07421875 139.03515625 C98.55806706 138.18791331 96.31896269 137.27686094 94 136 C93.76925781 137.08796875 93.53851563 138.1759375 93.30078125 139.296875 C88.80251329 159.84764744 80.82681444 177.70993103 62.6875 189.75 C44.26624087 200.73041393 23.48241947 205.93838962 2 205 C1.34 204.67 0.68 204.34 0 204 C0 190.14 0 176.28 0 162 C3.898125 162.061875 7.79625 162.12375 11.8125 162.1875 C33.10822494 162.29162905 55.11740108 159.81752231 71.6875 144.9375 C76.27870595 140.10580231 79.07081235 133.92069844 82 128 C81.43796875 127.75894531 80.8759375 127.51789063 80.296875 127.26953125 C68.63657575 120.82463796 60.50796148 106.76710292 56.73046875 94.37890625 C55.66720177 89.46058571 55.14228877 84.50927489 54.77001953 79.4934082 C54.05505367 70.77721867 51.45920132 64.01912387 45 58 C32.2930533 47.52639544 15.65175281 45.13035056 0 42 C0 28.14 0 14.28 0 0 Z " fill="#F2934F" transform="translate(64,400)"/>
<path d="M0 0 C14.85 0 29.7 0 45 0 C44.938125 4.310625 44.87625 8.62125 44.8125 13.0625 C44.72158756 33.3254838 47.50102183 51.15764331 62.1328125 66.19140625 C66.76474531 70.57318241 71.68908225 74.46752093 78 76 C82.32912271 75.43394528 84.0232406 73.11206664 87 70 C100.07551758 56.63815722 118.15799512 51.94602129 136.3034668 50.8581543 C144.5650504 50.24151287 150.71771546 47.08421107 156.34375 41.0234375 C164.93640601 30.52580587 168.84878291 17.57051865 170.640625 4.29296875 C171 2 171 2 172 0 C186.85 0 201.7 0 217 0 C214.06360427 20.55477008 207.63570093 37.35339685 190.75 50.1875 C177.27603364 59.49712236 163.52996242 63.85464774 147.21484375 64.75390625 C138.57559564 65.41523387 132.65041305 68.02487444 126.390625 74.09765625 C115.15831647 87.73426611 112.42589954 105.01870325 110 122 C95.15 122 80.3 122 65 122 C65.76775146 109.71597664 66.50812938 99.76297693 72 89 C71.15574463 88.81993408 71.15574463 88.81993408 70.29443359 88.63623047 C53.59526588 85.01870137 39.58131398 80.86047835 26 70 C24.96875 69.2575 23.9375 68.515 22.875 67.75 C9.44785668 54.90664552 3.00305842 38.0183505 0 20 C0 13.4 0 6.8 0 0 Z " fill="#BB3C27" transform="translate(144,400)"/>
<path d="M0 0 C7.73097371 6.31812636 12.3872459 15.65487236 13.75 25.4375 C14.96195376 38.75552517 13.48728515 51.41213612 5.37890625 62.5078125 C-1.60291347 70.77884114 -10.4541173 75.44191428 -21.25 76.4375 C-31.2630756 76.4375 -38.32806927 74.77504458 -46.25 68.4375 C-46.58 80.9775 -46.91 93.5175 -47.25 106.4375 C-54.51 106.4375 -61.77 106.4375 -69.25 106.4375 C-69.58 69.8075 -69.91 33.1775 -70.25 -4.5625 C-63.65 -4.5625 -57.05 -4.5625 -50.25 -4.5625 C-49.92 -1.2625 -49.59 2.0375 -49.25 5.4375 C-48.280625 4.365 -47.31125 3.2925 -46.3125 2.1875 C-33.98613171 -10.16387107 -13.86946646 -9.18419564 0 0 Z M-42.25 15.4375 C-47.38949856 22.02660072 -47.4584975 27.22445376 -47.5 35.25 C-47.520625 36.23548828 -47.54125 37.22097656 -47.5625 38.23632812 C-47.59735231 44.72321487 -47.10928973 49.33777 -42.53125 54.30078125 C-41.64953125 55.01814453 -41.64953125 55.01814453 -40.75 55.75 C-40.1621875 56.24113281 -39.574375 56.73226562 -38.96875 57.23828125 C-34.34694506 60.4630406 -28.62980893 59.84716936 -23.25 59.4375 C-17.79126187 57.686584 -14.28664335 54.2029698 -11.25 49.4375 C-7.46449385 40.9874563 -7.04198226 32.56008438 -9.75 23.75 C-12.16467513 17.62645335 -16.36505557 13.37997221 -22.25 10.4375 C-30.10629314 9.59143766 -36.28693205 9.91986604 -42.25 15.4375 Z " fill="#282725" transform="translate(847.25,440.5625)"/>
<path d="M0 0 C4.02618701 2.73104993 7.10497457 6.10285039 10 10 C10.32871094 9.55269531 10.65742187 9.10539063 10.99609375 8.64453125 C15.62153383 2.76558437 21.49275592 -1.64260162 29 -3 C38.37418712 -3.64478536 45.06854828 -3.05750007 53.125 1.9375 C58.57677214 6.82169039 61.84714415 14.89923678 63 22 C63.08345812 23.84004979 63.11783906 25.68272176 63.11352539 27.5246582 C63.11341209 29.14577263 63.11341209 29.14577263 63.11329651 30.79963684 C63.10813522 31.9550145 63.10297394 33.11039215 63.09765625 34.30078125 C63.0962413 35.49229294 63.09482635 36.68380463 63.09336853 37.91142273 C63.08777728 41.71180751 63.07522632 45.51213307 63.0625 49.3125 C63.05748387 51.89127519 63.05292116 54.4700513 63.04882812 57.04882812 C63.0378107 63.36590818 63.02055201 69.68294406 63 76 C58.05 76 53.1 76 48 76 C47.98541748 74.5680127 47.97083496 73.13602539 47.95581055 71.66064453 C47.89752624 66.311604 47.82029595 60.96297121 47.73754883 55.61425781 C47.70444072 53.30605726 47.67636556 50.9977785 47.65356445 48.68945312 C47.61975817 45.35773611 47.56742933 42.02672682 47.51171875 38.6953125 C47.50532883 37.67511017 47.4989389 36.65490784 47.49235535 35.60379028 C47.33504273 27.8132339 46.58221911 20.26175045 41.625 14 C37.48547978 10.84607983 34.74840223 9.77753586 29.5625 10.125 C23.92052561 10.93099634 20.48772272 13.35144239 16.6875 17.5625 C14.19293304 21.16576338 13.86574845 23.93141466 13.79467773 28.20581055 C13.77473251 29.26668381 13.75478729 30.32755707 13.73423767 31.420578 C13.71752518 32.56440445 13.70081268 33.7082309 13.68359375 34.88671875 C13.6524221 36.64493706 13.6524221 36.64493706 13.62062073 38.43867493 C13.55516182 42.18822286 13.49625704 45.93784163 13.4375 49.6875 C13.39431132 52.22722091 13.35069692 54.76693462 13.30664062 57.30664062 C13.19948414 63.53768522 13.0977108 69.76880051 13 76 C10.52076199 76.02685095 8.0418116 76.04676547 5.5625 76.0625 C4.85544922 76.07087891 4.14839844 76.07925781 3.41992188 76.08789062 C1.61306441 76.09653588 -0.19387603 76.05220011 -2 76 C-3.65039187 74.34960813 -3.13320744 72.42028157 -3.1418457 70.14819336 C-3.14888016 69.11299057 -3.15591461 68.07778778 -3.16316223 67.01121521 C-3.16732651 65.88216263 -3.17149078 64.75311005 -3.17578125 63.58984375 C-3.19899199 61.21418397 -3.22310982 58.83853291 -3.24804688 56.46289062 C-3.28308857 52.70607789 -3.31245668 48.94958279 -3.32592773 45.19262695 C-3.34145149 41.57463628 -3.38170812 37.95758487 -3.42578125 34.33984375 C-3.42387283 33.22496078 -3.42196442 32.11007782 -3.41999817 30.96141052 C-3.53655777 23.48853431 -4.4156383 17.56285552 -9.953125 12.05859375 C-14.39416874 9.76179441 -19.48192403 9.2737972 -24.2890625 10.66015625 C-30.02859447 13.31495849 -32.94454937 16.68374032 -35.57348633 22.453125 C-37.50230825 27.74209892 -37.4771359 32.92270417 -37.51171875 38.5 C-37.52966995 39.57628662 -37.54762115 40.65257324 -37.56611633 41.76147461 C-37.61998001 45.17427743 -37.65403865 48.58694231 -37.6875 52 C-37.72069415 54.32423784 -37.75518573 56.64845754 -37.79101562 58.97265625 C-37.87569296 64.6483376 -37.94261843 70.32397972 -38 76 C-42.95 76 -47.9 76 -53 76 C-53.33 50.59 -53.66 25.18 -54 -1 C-49.38 -1 -44.76 -1 -40 -1 C-39.34 1.97 -38.68 4.94 -38 8 C-37.05125 6.9275 -36.1025 5.855 -35.125 4.75 C-25.75147158 -4.49229902 -11.61782228 -5.91082186 0 0 Z " fill="#282725" transform="translate(868,564)"/>
<path d="M0 0 C7.47801164 6.31241063 12.69824446 14.80776794 13.9296875 24.62890625 C14.74762664 38.26122529 13.26120057 49.3813636 4.9296875 60.62890625 C-3.08665876 69.6648755 -14.20517923 73.8106212 -26.0703125 74.62890625 C-39.9999536 74.75383577 -50.86174857 71.43377031 -60.9765625 61.81640625 C-69.54346131 52.81390242 -71.39853041 42.32107727 -71.28515625 30.265625 C-70.63414061 19.24570578 -66.33571197 8.86950379 -58.21484375 1.26171875 C-41.47111696 -11.48669254 -17.17581389 -12.5515563 0 0 Z M-40.8828125 11.31640625 C-47.75763877 18.58407974 -48.54427154 27.17557046 -48.33984375 36.79296875 C-47.80338771 44.42774893 -45.65103398 49.55625692 -39.9453125 54.69140625 C-35.19405736 58.50137499 -32.03564953 59.06046144 -25.95703125 58.94921875 C-21.26890603 58.42902082 -18.35765927 57.0093587 -15.0703125 53.62890625 C-8.39853349 44.82844401 -7.66188647 35.2311496 -9.0703125 24.62890625 C-10.41791531 18.37949671 -12.91917537 13.62754513 -18.08984375 9.7578125 C-26.2323586 5.11641843 -33.15008039 6.67676698 -40.8828125 11.31640625 Z " fill="#282725" transform="translate(1002.0703125,442.37109375)"/>
<path d="M0 0 C5.28 0 10.56 0 16 0 C16 37.29 16 74.58 16 113 C11.38 113 6.76 113 2 113 C1.67 109.37 1.34 105.74 1 102 C0.505 102.721875 0.01 103.44375 -0.5 104.1875 C-6.16317481 110.55857167 -13.15209229 113.60033309 -21.6484375 114.30078125 C-33.89506056 114.33929264 -42.03722196 112.70959222 -51 104 C-58.30387218 95.2799086 -61.41338421 84.76855354 -61.21484375 73.4296875 C-60.39646965 64.17462043 -58.29922355 55.68626119 -53 48 C-52.278125 46.948125 -51.55625 45.89625 -50.8125 44.8125 C-43.29466768 37.29466768 -34.76883674 33.99087258 -24.25 33.625 C-14.25388959 33.78468227 -8.09091004 35.90908996 -1 43 C-0.67 28.81 -0.34 14.62 0 0 Z M-38.3125 53.3125 C-42.2515271 58.3219149 -44.36647615 63.66476151 -45 70 C-45.06445312 70.63292969 -45.12890625 71.26585937 -45.1953125 71.91796875 C-45.61599729 79.61650033 -43.84091664 87.89332842 -39.421875 94.28125 C-34.5125074 99.50021736 -29.20198184 102.10261037 -22 102.375 C-14.4879179 102.11321532 -9.30636367 99.06516532 -4 94 C0.54018193 87.5811221 0.24084086 81.36497759 0.3125 73.75 C0.34150391 72.73808594 0.37050781 71.72617187 0.40039062 70.68359375 C0.4641183 63.12451102 -0.75456942 57.76092403 -5.74609375 51.9765625 C-6.30425781 51.53054688 -6.86242187 51.08453125 -7.4375 50.625 C-7.99308594 50.16351562 -8.54867187 49.70203125 -9.12109375 49.2265625 C-18.87932414 42.85632478 -30.6385984 44.96148944 -38.3125 53.3125 Z " fill="#282725" transform="translate(696,527)"/>
<path d="M0 0 C5.28 0 10.56 0 16 0 C16.33 14.85 16.66 29.7 17 45 C19.31 43.02 21.62 41.04 24 39 C32.30052145 33.93362821 40.89456956 33.15826863 50.29296875 35.15625 C58.79182378 37.80524377 63.89985277 43.28781831 68 51 C71.48799283 59.13864993 71.14029743 68.02410856 71.09765625 76.71875 C71.0962413 77.81723267 71.09482635 78.91571533 71.09336853 80.04748535 C71.08780257 83.53168543 71.07525639 87.01581958 71.0625 90.5 C71.0574806 92.8723949 71.05291846 95.24479082 71.04882812 97.6171875 C71.03784429 103.41148346 71.02060326 109.20573058 71 115 C65.72 115 60.44 115 55 115 C54.98541748 113.5680127 54.97083496 112.13602539 54.95581055 110.66064453 C54.89752624 105.311604 54.82029595 99.96297121 54.73754883 94.61425781 C54.70444072 92.30605726 54.67636556 89.9977785 54.65356445 87.68945312 C54.61975817 84.35773611 54.56742933 81.02672682 54.51171875 77.6953125 C54.50532883 76.67511017 54.4989389 75.65490784 54.49235535 74.60379028 C54.33650669 66.88573366 53.24885619 59.77486574 49.25 53.0625 C45.43446149 49.56492303 41.67480198 48.18270567 36.5625 47.625 C32.30685697 48.07296242 28.89349075 49.29500732 25 51 C24.21625 51.309375 23.4325 51.61875 22.625 51.9375 C20.49655969 53.32917251 19.96021067 54.66805979 19 57 C18.65852936 57.59222351 18.31705872 58.18444702 17.96524048 58.7946167 C16.79524081 61.4678342 16.72201586 63.4962018 16.68115234 66.41113281 C16.66128265 67.49195129 16.64141296 68.57276978 16.62094116 69.68634033 C16.60361435 71.42714874 16.60361435 71.42714874 16.5859375 73.203125 C16.56657135 74.39605164 16.5472052 75.58897827 16.5272522 76.8180542 C16.46746733 80.62863004 16.42107473 84.4392361 16.375 88.25 C16.33681928 90.83334652 16.2977675 93.41668032 16.2578125 96 C16.16176642 102.33323007 16.0777308 108.66651973 16 115 C10.72 115 5.44 115 0 115 C0 77.05 0 39.1 0 0 Z " fill="#272624" transform="translate(471,400)"/>
<path d="M0 0 C5.28 0 10.56 0 16 0 C16.33 22.77 16.66 45.54 17 69 C24.28350369 61.08917895 24.28350369 61.08917895 31.4375 53.0625 C31.98792969 52.45535156 32.53835938 51.84820312 33.10546875 51.22265625 C34.66082889 49.39791414 36.03382578 47.56705071 37.42578125 45.62109375 C44.20868071 36.67456883 44.20868071 36.67456883 49.40234375 35.41943359 C54.99061091 34.87846412 60.44216097 35.31980422 66 36 C64.71977125 38.80969467 63.39285871 40.8539238 61.20263672 43.02441406 C60.64220673 43.58469299 60.08177673 44.14497192 59.50436401 44.722229 C58.90222076 45.31404968 58.30007751 45.90587036 57.6796875 46.515625 C57.06102814 47.13145447 56.44236877 47.74728394 55.80496216 48.3817749 C53.83296186 50.34260336 51.85411263 52.29635301 49.875 54.25 C48.53469836 55.58026799 47.19484917 56.910992 45.85546875 58.2421875 C42.57553411 61.5001015 39.28944058 64.75168533 36 68 C37.63574273 72.41650537 39.89751621 75.50917303 43 79 C47.24224357 83.89044164 51.29508944 88.87054288 55.20654297 94.02856445 C57.46119792 97.00011868 59.74163747 99.94526264 62.0703125 102.859375 C62.83408203 103.81759155 62.83408203 103.81759155 63.61328125 104.79516602 C64.60427906 106.03567377 65.59894961 107.27325835 66.59765625 108.50756836 C70 112.77837268 70 112.77837268 70 115 C54.34165763 117.21116759 54.34165763 117.21116759 49.06738281 113.72119141 C45.52069512 110.27011008 42.87556701 106.19078193 40.27148438 102.00537109 C38.39545561 99.04651928 36.26827791 96.3338577 34.125 93.5625 C32.74841908 91.70950674 31.37329109 89.85543273 30 88 C28.81367928 86.41578289 27.62632974 84.83233516 26.4375 83.25 C25.625 82.16666667 24.8125 81.08333333 24 80 C21.09505777 81.30221548 18.92713161 82.43892133 17 85 C16.491851 88.19477975 16.491851 88.19477975 16.48828125 91.85546875 C16.47033005 92.51710526 16.45237885 93.17874176 16.43388367 93.86042786 C16.37979102 95.96938747 16.34589069 98.07812099 16.3125 100.1875 C16.27932573 101.61917208 16.24483595 103.05081433 16.20898438 104.48242188 C16.12159113 107.98831349 16.06152321 111.49317716 16 115 C10.72 115 5.44 115 0 115 C0 77.05 0 39.1 0 0 Z " fill="#282725" transform="translate(699,400)"/>
<path d="M0 0 C6.56648618 7.01492914 8.42517796 15.5021753 8.40258789 24.94482422 C8.40247459 26.53579422 8.40247459 26.53579422 8.40235901 28.15890503 C8.39719772 29.28724762 8.39203644 30.41559021 8.38671875 31.578125 C8.3853038 32.7460257 8.38388885 33.91392639 8.38243103 35.11721802 C8.37684748 38.83598424 8.36429794 42.55468957 8.3515625 46.2734375 C8.34654538 48.7994783 8.34198284 51.32552004 8.33789062 53.8515625 C8.32688343 60.03387752 8.30963005 66.21614719 8.2890625 72.3984375 C3.0090625 72.3984375 -2.2709375 72.3984375 -7.7109375 72.3984375 C-7.72552002 70.90062744 -7.74010254 69.40281738 -7.75512695 67.85961914 C-7.8133351 62.27393364 -7.89056681 56.68864177 -7.97338867 51.10327148 C-8.00653225 48.69122736 -8.03459668 46.27910765 -8.05737305 43.86694336 C-8.09111322 40.38883415 -8.14344012 36.91141106 -8.19921875 33.43359375 C-8.20560867 32.36448257 -8.2119986 31.2953714 -8.21858215 30.19386292 C-8.36820919 22.48066732 -9.14558488 15.65712866 -14.0234375 9.4609375 C-18.97548269 5.66053073 -23.54707978 4.86707045 -29.7109375 5.3984375 C-36.23828428 6.79262807 -40.00863738 9.91573191 -43.7109375 15.3984375 C-45.61111795 18.6010924 -45.97681794 21.01006835 -46.02978516 24.71777344 C-46.04965485 25.77857117 -46.06952454 26.8393689 -46.08999634 27.93231201 C-46.10732315 29.64030975 -46.10732315 29.64030975 -46.125 31.3828125 C-46.14436615 32.55354309 -46.1637323 33.72427368 -46.1836853 34.93048096 C-46.24346457 38.66972569 -46.2898605 42.40900124 -46.3359375 46.1484375 C-46.37411874 48.68360718 -46.41317055 51.2187639 -46.453125 53.75390625 C-46.54916502 59.96864481 -46.63320268 66.1834441 -46.7109375 72.3984375 C-51.9909375 72.3984375 -57.2709375 72.3984375 -62.7109375 72.3984375 C-63.0409375 46.3284375 -63.3709375 20.2584375 -63.7109375 -6.6015625 C-59.0909375 -6.6015625 -54.4709375 -6.6015625 -49.7109375 -6.6015625 C-49.0509375 -3.3015625 -48.3909375 -0.0015625 -47.7109375 3.3984375 C-46.5765625 2.3259375 -45.4421875 1.2534375 -44.2734375 0.1484375 C-31.50154945 -10.97909812 -12.66963526 -11.85970424 0 0 Z " fill="#282725" transform="translate(667.7109375,442.6015625)"/>
<path d="M0 0 C7.97027143 5.56034138 12.80128007 12.54406723 15 22 C15.86179936 27.99446278 16.19414031 33.02929846 15 39 C-3.48 39 -21.96 39 -41 39 C-38.94924147 50.24965069 -38.94924147 50.24965069 -32.03515625 58.5703125 C-25.5974054 62.7662395 -20.28759997 63.18169291 -12.75 63.1875 C-11.51830078 63.20586914 -11.51830078 63.20586914 -10.26171875 63.22460938 C-4.81343258 63.23756093 -0.25025151 62.42522922 5 61 C6.32 61 7.64 61 9 61 C9.99 66.445 9.99 66.445 11 72 C-4.54010096 76.89619619 -22.75868448 79.18488793 -38 72 C-46.95996558 66.76770543 -52.27484673 59.22373522 -55.39355469 49.453125 C-56.40492818 45.36202964 -56.48917098 41.38505498 -56.4375 37.1875 C-56.42920166 36.31311279 -56.42090332 35.43872559 -56.41235352 34.5378418 C-56.11669847 23.16301377 -53.00517302 14.25123367 -45 6 C-32.99656388 -5.3676609 -14.62769345 -7.9936594 0 0 Z M-34.6875 13.75 C-38.28292943 18.06928802 -41 22.21265986 -41 28 C-27.47 28 -13.94 28 0 28 C0 21.19251718 -0.39518181 18.37211541 -4 13 C-8.55661235 8.56022386 -13.09995043 6.7144683 -19.4375 6.6875 C-26.33643432 6.8629749 -30.00659212 8.72848551 -34.6875 13.75 Z " fill="#282725" transform="translate(784,565)"/>
<path d="M0 0 C8.78688758 9.0531569 9.50393219 20.81994731 9.57421875 32.890625 C9.59216995 34.05003601 9.61012115 35.20944702 9.62861633 36.4039917 C9.68224819 40.06095885 9.71646319 43.7177991 9.75 47.375 C9.78321467 49.8737154 9.81770808 52.37241416 9.85351562 54.87109375 C9.9379473 60.95563685 10.00498179 67.04014539 10.0625 73.125 C5.4425 73.125 0.8225 73.125 -3.9375 73.125 C-4.5975 70.485 -5.2575 67.845 -5.9375 65.125 C-6.4221875 65.52332031 -6.906875 65.92164063 -7.40625 66.33203125 C-16.95439179 73.87873563 -24.69876556 75.10356256 -36.9375 74.125 C-43.67713971 72.78537978 -48.80704549 69.13702189 -52.75 63.5625 C-55.78473103 57.33331525 -56.1690586 49.98535632 -54.06640625 43.39453125 C-50.50012594 35.6656418 -45.86280259 31.18861692 -38.0625 27.875 C-27.77162045 24.16782216 -17.78299324 23.59816733 -6.9375 23.125 C-7.58538062 18.1450221 -8.12835273 14.20386303 -11.1875 10.125 C-17.01423774 5.88737256 -22.92440344 5.31285667 -29.9375 6.125 C-34.35341269 7.23652244 -38.64010304 8.62422603 -42.9375 10.125 C-43.9275 10.455 -44.9175 10.785 -45.9375 11.125 C-48.9375 4.625 -48.9375 4.625 -48.9375 0.125 C-33.47081658 -7.40723826 -15.09047549 -9.6322184 0 0 Z M-35.9375 41.125 C-39.36742011 44.87819994 -39.44887735 47.72323432 -39.2890625 52.6484375 C-38.76727922 56.3241108 -37.43716205 58.42266265 -34.9375 61.125 C-30.7108164 63.78177255 -25.77853065 63.77154833 -20.9375 63.125 C-15.02118956 61.26226183 -11.43277968 58.16231484 -7.9375 53.125 C-5.83013915 48.93954719 -5.72553353 45.4652059 -5.8125 40.8125 C-5.83054687 39.55824219 -5.84859375 38.30398438 -5.8671875 37.01171875 C-5.89039063 36.05910156 -5.91359375 35.10648438 -5.9375 34.125 C-17.11040708 33.81416178 -26.93328839 33.75050995 -35.9375 41.125 Z " fill="#282725" transform="translate(459.9375,566.875)"/>
<path d="M0 0 C6.1944541 4.89794045 8.94015649 10.50982175 10.6875 18.125 C11.4636527 25.77638413 11.34202831 33.50509706 11.375 41.1875 C11.40426212 44.29194461 11.43901447 47.39625152 11.47749329 50.50059509 C11.49960338 52.4205854 11.51564736 54.3406595 11.52433777 56.26075745 C11.57216615 62.27593848 12.01297502 68.1465467 12.6875 74.125 C7.7375 74.125 2.7875 74.125 -2.3125 74.125 C-2.8075 70.66 -2.8075 70.66 -3.3125 67.125 C-5.50456384 66.90549846 -5.50456384 66.90549846 -7.3125 68.875 C-15.89259977 75.31007483 -24.78107216 76.23478822 -35.3125 75.125 C-42.53626837 73.46197419 -47.2444391 69.20980497 -51.3125 63.125 C-54.41140052 56.28159469 -53.6289284 48.67935668 -51.0625 41.75 C-45.45947144 33.34545717 -37.00086646 28.43863975 -27.3125 26.125 C-19.6200816 24.69717292 -12.13318036 23.85532137 -4.3125 24.125 C-5.80317136 17.88357114 -6.99606971 13.17561355 -12.3125 9.125 C-17.65464112 5.91971533 -24.29422401 6.49108025 -30.1953125 7.73046875 C-34.95882775 9.0089599 -39.65899444 10.48998453 -44.3125 12.125 C-44.81865298 10.85660474 -45.31719099 9.58516898 -45.8125 8.3125 C-46.0909375 7.60480469 -46.369375 6.89710938 -46.65625 6.16796875 C-47.3125 4.125 -47.3125 4.125 -47.3125 1.125 C-45.25200145 0.30743762 -43.18901147 -0.50384734 -41.125 -1.3125 C-39.40216797 -1.99119141 -39.40216797 -1.99119141 -37.64453125 -2.68359375 C-25.46817923 -7.03738902 -11.22724732 -6.35504565 0 0 Z M-33.5 41.625 C-36.927445 46.35251035 -37.83872179 49.12607159 -37.3125 55.125 C-35.40584197 59.67979418 -32.70023175 61.93113412 -28.3125 64.125 C-22.12335184 65.40551341 -16.96394846 63.76553861 -11.5546875 60.70703125 C-7.74995097 58.02250461 -5.60539122 55.65343439 -4.3125 51.125 C-3.77915261 45.79557681 -4.02101573 40.46240091 -4.3125 35.125 C-13.93351613 34.55813162 -26.00519101 34.52581142 -33.5 41.625 Z " fill="#282725" transform="translate(609.3125,565.875)"/>
<path d="M0 0 C5.94 0 11.88 0 18 0 C20.4919706 6.34901114 22.98213794 12.69872556 25.47070312 19.04907227 C26.31592191 21.20518667 27.16161624 23.36111473 28.0078125 25.5168457 C29.23044687 28.63182395 30.45131736 31.74748878 31.671875 34.86328125 C32.04495789 35.81270096 32.41804077 36.76212067 32.8024292 37.74031067 C35.30110962 44.12541963 37.68453214 50.54624187 40 57 C40.32162109 56.05495605 40.64324219 55.10991211 40.97460938 54.13623047 C47.14221793 36.02528143 53.34822434 17.94023022 60 0 C65.61 0 71.22 0 77 0 C74.81418412 6.76485766 72.35106686 13.36986883 69.71875 19.97265625 C69.30516235 21.0128038 68.89157471 22.05295135 68.4654541 23.12461853 C67.58936104 25.32459948 66.71185191 27.52401698 65.83300781 29.72290039 C64.52560529 32.99835078 63.22744285 36.27735836 61.9296875 39.55664062 C57.56071347 50.53721321 53.02264707 61.41724831 48.12109375 72.171875 C47.45098267 73.64812096 47.45098267 73.64812096 46.76733398 75.15419006 C43.47902485 82.26840075 39.80652413 88.78042201 35 95 C34.34386719 95.86109375 33.68773437 96.7221875 33.01171875 97.609375 C27.6076138 104.03134049 19.40647921 109.51524551 11 110.75 C10.01 110.8325 9.02 110.915 8 111 C7.49242138 109.58603098 6.99425075 108.16868271 6.5 106.75 C6.2215625 105.96109375 5.943125 105.1721875 5.65625 104.359375 C5 102 5 102 5 98 C5.80824219 97.61328125 6.61648438 97.2265625 7.44921875 96.828125 C9.05216797 96.04695312 9.05216797 96.04695312 10.6875 95.25 C11.74324219 94.73953125 12.79898438 94.2290625 13.88671875 93.703125 C18.91857361 90.95044154 22.42874813 87.853418 25.75 83.1875 C26.63945313 81.97126953 26.63945313 81.97126953 27.546875 80.73046875 C29.62901622 76.81805823 30.60835707 73.2559453 29.42169189 68.85548401 C28.47292816 66.39465901 27.42492414 64.00400399 26.328125 61.60546875 C25.93420059 60.70788849 25.54027618 59.81030823 25.13441467 58.88552856 C23.85498946 55.97910374 22.55260925 53.08359764 21.25 50.1875 C20.37082123 48.19961523 19.49346522 46.21092332 18.61791992 44.22143555 C16.88589544 40.28883621 15.14677115 36.35951251 13.40185547 32.43261719 C10.29468573 25.42484054 7.28877092 18.37677864 4.3125 11.3125 C3.86229492 10.25248779 3.41208984 9.19247559 2.94824219 8.1003418 C2.54895508 7.15586182 2.14966797 6.21138184 1.73828125 5.23828125 C1.39837158 4.43430908 1.05846191 3.63033691 0.70825195 2.80200195 C0 1 0 1 0 0 Z " fill="#282725" transform="translate(939,563)"/>
<path d="M0 0 C5.42838365 4.19153674 7.90600869 9.28052608 10.0390625 15.6796875 C10.95393036 23.85350693 9.45971372 31.04497096 4.53125 37.72265625 C-1.70329313 44.52265795 -9.1743157 47.22243211 -18.26953125 47.703125 C-27.16053945 47.62569967 -33.23508865 44.46028192 -39.9609375 38.6796875 C-45.22224453 32.23458639 -46.50419874 25.95023599 -46.33203125 17.77734375 C-45.38186169 9.84592839 -41.23019139 3.95306626 -35.04296875 -0.9140625 C-24.2169531 -8.22619315 -10.58755991 -7.1286758 0 0 Z " fill="#8795AE" transform="translate(204.9609375,632.3203125)"/>
<path d="M0 0 C6.80443424 5.00326047 10.03582744 10.86095995 12 19 C13.004465 26.031255 10.62045701 33.39770088 6.45703125 39.12109375 C1.18028168 44.73594169 -5.52516705 48.50830516 -13.26171875 49.203125 C-21.95422604 49.37109616 -29.0994471 47.48907617 -36 42 C-42.0833637 35.63368915 -44.16055833 30.71231159 -44.4375 22.0625 C-44.19485552 13.24330641 -42.10417176 8.77018266 -35.8125 2.6875 C-25.58163032 -5.79379099 -11.5210253 -6.84666992 0 0 Z " fill="#BB3C27" transform="translate(254,404)"/>
<path d="M0 0 C5.4623098 4.89759732 9.40989819 10.325598 10.34765625 17.75390625 C10.77127644 26.25889623 8.84468273 32.65526259 3.16796875 39.0703125 C-4.43825991 46.24147088 -11.33383579 47.55266962 -21.6640625 47.27734375 C-29.96487387 46.58722946 -35.367124 43.0825069 -41 37 C-45.75811171 30.43188614 -46.79754954 23.94131474 -46 16 C-44.23627085 8.84945952 -40.95128182 3.3876117 -35 -1 C-23.42132116 -7.61638791 -11.13846301 -7.56892201 0 0 Z " fill="#F2934F" transform="translate(110,495)"/>
<path d="M0 0 C7.25185908 4.62592274 11.09908553 10.02484739 13.45703125 18.29296875 C14.68538676 25.43457057 12.9766798 31.77250545 9.29296875 37.87109375 C4.52003909 44.44968595 -1.05792128 48.04383211 -9.01953125 49.68359375 C-18.03166518 50.78291377 -25.75893684 49.46842886 -33.13671875 44.0078125 C-39.35518313 38.35796257 -42.73071448 31.5892468 -43.14453125 23.18359375 C-42.7413719 14.99441942 -39.44718843 8.14783969 -33.40625 2.58203125 C-24.14303342 -4.44240349 -10.27470918 -5.57108997 0 0 Z " fill="#3F424D" transform="translate(347.14453125,540.81640625)"/>
<path d="M0 0 C0 6.6 0 13.2 0 20 C-2.64 20 -5.28 20 -8 20 C-13.87107696 21.09581558 -18.37913906 23.10118814 -22 28 C-24.88798298 34.42021192 -25.46315118 40.54175051 -25.51171875 47.50390625 C-25.52966995 48.4677977 -25.54762115 49.43168915 -25.56611633 50.42478943 C-25.61982853 53.47064988 -25.65398881 56.51635721 -25.6875 59.5625 C-25.72070762 61.64129717 -25.75520042 63.72007424 -25.79101562 65.79882812 C-25.87792596 70.86590269 -25.93832852 75.93230559 -26 81 C-33.26 81 -40.52 81 -48 81 C-48 54.93 -48 28.86 -48 2 C-41.73 2 -35.46 2 -29 2 C-28.67 5.96 -28.34 9.92 -28 14 C-27.46375 13.113125 -26.9275 12.22625 -26.375 11.3125 C-19.72215136 1.41492869 -11.20374268 -0.41495343 0 0 Z " fill="#282725" transform="translate(925,434)"/>
<path d="M0 0 C0 7.26 0 14.52 0 22 C7.26 22 14.52 22 22 22 C22 25.96 22 29.92 22 34 C14.74 34 7.48 34 0 34 C0.09713999 40.28086717 0.20000028 46.56110607 0.31738281 52.84155273 C0.35556906 54.97626097 0.39043968 57.11103129 0.421875 59.24584961 C0.46775077 62.32167686 0.52570794 65.3970806 0.5859375 68.47265625 C0.60326431 69.89494286 0.60326431 69.89494286 0.62094116 71.34596252 C0.7364418 76.57993277 1.15050058 81.07962598 3 86 C6.6326857 89.13645193 9.61820887 89.34225685 14.3125 89.1875 C15.38113281 89.16042969 16.44976562 89.13335937 17.55078125 89.10546875 C18.76314453 89.05326172 18.76314453 89.05326172 20 89 C20.89445704 93.07787895 21.08196118 96.81998005 21 101 C16.68119244 102.2076688 12.58386068 102.22118668 8.125 102.25 C7.33480469 102.270625 6.54460937 102.29125 5.73046875 102.3125 C-0.64468552 102.35493031 -4.66686387 100.89906429 -9.6875 96.8125 C-15.46309031 89.78813341 -15.41589888 82.54632372 -15.29296875 73.84375 C-15.28872391 72.70087524 -15.28447906 71.55800049 -15.28010559 70.38049316 C-15.26339974 66.75341591 -15.22576156 63.1269075 -15.1875 59.5 C-15.17244275 57.03125806 -15.15875617 54.56250736 -15.14648438 52.09375 C-15.11352257 46.06228298 -15.06179547 40.03123773 -15 34 C-19.29 34 -23.58 34 -28 34 C-28 30.04 -28 26.08 -28 22 C-23.71 22 -19.42 22 -15 22 C-15 15.73 -15 9.46 -15 3 C-3.375 0 -3.375 0 0 0 Z " fill="#282725" transform="translate(433,414)"/>
<path d="M0 0 C0.97327263 3.68038855 1.04901059 5.80433501 -0.4375 9.3125 C-0.86869141 10.35857422 -0.86869141 10.35857422 -1.30859375 11.42578125 C-1.65083984 12.20501953 -1.65083984 12.20501953 -2 13 C-2.65484375 12.7834375 -3.3096875 12.566875 -3.984375 12.34375 C-13.98681598 9.29215784 -24.38005242 8.09752671 -34 13 C-40.59793025 17.20225319 -43.57784859 22.73354576 -46 30 C-46.67709067 38.53578233 -46.70907524 46.59246591 -42 54 C-36.80256158 60.071344 -30.97527812 63.53581505 -23.02734375 64.27734375 C-15.28543591 64.5080323 -8.39017404 63.23702566 -1 61 C0.13764351 65.26616316 1 68.56486311 1 73 C-0.19625 73.474375 -1.3925 73.94875 -2.625 74.4375 C-3.29789063 74.70433594 -3.97078125 74.97117187 -4.6640625 75.24609375 C-16.83068976 79.17278114 -32.50724879 78.36644995 -44 73 C-53.78538476 67.16128855 -59.30594121 59.40359206 -62.3046875 48.4921875 C-64.55489974 37.19055975 -63.39168181 25.79588487 -57.6796875 15.65625 C-50.78404991 5.85916927 -41.39719645 -0.40538603 -29.63671875 -2.68359375 C-19.3410335 -3.91907598 -9.87509026 -3.08941371 0 0 Z " fill="#282725" transform="translate(547,564)"/>
<path d="M0 0 C5.28 0 10.56 0 16 0 C16 26.07 16 52.14 16 79 C10.72 79 5.44 79 0 79 C0 52.93 0 26.86 0 0 Z " fill="#282725" transform="translate(565,436)"/>
<path d="M0 0 C3.460675 2.11016768 3.87262936 3.53297431 4.9375 7.4375 C5.00754154 11.42986787 4.46465254 12.91918433 2 16 C-1.68497796 18.45665197 -4.71971786 18.70086491 -9 18 C-11.8100346 16.20636089 -13.50940468 14.98119065 -15 12 C-15.25491388 8.0913205 -15.23289019 5.29057502 -13 2 C-8.75693718 -0.82870855 -4.98038101 -0.64500016 0 0 Z " fill="#272625" transform="translate(578,406)"/>
<path d="M0 0 C3.51995695 0.68989211 3.51995695 0.68989211 6.8125 -0.125 C9.5625 -0.5 9.5625 -0.5 11.22265625 0.58984375 C13.13960004 3.32274612 12.85636663 5.39013458 12.75 8.6875 C12.72292969 9.77417969 12.69585938 10.86085938 12.66796875 11.98046875 C12.63316406 12.81191406 12.59835937 13.64335938 12.5625 14.5 C11.5725 14.5 10.5825 14.5 9.5625 14.5 C8.9025 10.87 8.2425 7.24 7.5625 3.5 C6.5725 3.83 5.5825 4.16 4.5625 4.5 C4.2325 7.8 3.9025 11.1 3.5625 14.5 C2.5725 14.5 1.5825 14.5 0.5625 14.5 C0.2325 11.2 -0.0975 7.9 -0.4375 4.5 C-1.4275 4.17 -2.4175 3.84 -3.4375 3.5 C-4.58564997 5.79629994 -4.74519809 7.57698086 -5 10.125 C-5.08378906 10.94226563 -5.16757812 11.75953125 -5.25390625 12.6015625 C-5.31449219 13.22804688 -5.37507812 13.85453125 -5.4375 14.5 C-6.4275 14.5 -7.4175 14.5 -8.4375 14.5 C-8.4375 9.88 -8.4375 5.26 -8.4375 0.5 C-3.4375 -0.5 -3.4375 -0.5 0 0 Z " fill="#757271" transform="translate(685.4375,660.5)"/>
<path d="M0 0 C1.32 0 2.64 0 4 0 C4.66 1.98 5.32 3.96 6 6 C6.99 4.02 7.98 2.04 9 0 C10.32 0 11.64 0 13 0 C13.66 1.98 14.32 3.96 15 6 C15.99 4.02 16.98 2.04 18 0 C19.32 0.33 20.64 0.66 22 1 C21.43711205 2.98507824 20.84902373 4.96302563 20.25 6.9375 C19.92515625 8.03964844 19.6003125 9.14179687 19.265625 10.27734375 C18 13 18 13 15.859375 13.87890625 C14.93898438 13.93884766 14.93898438 13.93884766 14 14 C13.01 11.69 12.02 9.38 11 7 C10.01 9.31 9.02 11.62 8 14 C6.68 14 5.36 14 4 14 C3.32968281 12.0429132 2.66385317 10.08428887 2 8.125 C1.62875 7.03445313 1.2575 5.94390625 0.875 4.8203125 C0 2 0 2 0 0 Z " fill="#73706F" transform="translate(416,661)"/>
<path d="M0 0 C1.32 0 2.64 0 4 0 C4 6.93 4 13.86 4 21 C-6.46641791 21.36940299 -6.46641791 21.36940299 -8.828125 19.734375 C-10.85471035 16.73502868 -10.61280096 13.42893119 -10 10 C-8.375 7.4375 -8.375 7.4375 -6 6 C-2.75 6.25 -2.75 6.25 0 7 C0 4.69 0 2.38 0 0 Z M-4 9 C-5.66621425 10.1645201 -5.66621425 10.1645201 -7 12 C-6.76956136 14.65466049 -6.76956136 14.65466049 -6 17 C-4.34385343 17.38218767 -2.67542976 17.71395102 -1 18 C0.35618499 16.87465895 0.35618499 16.87465895 0.0625 13.9375 C0.041875 12.968125 0.02125 11.99875 0 11 C-1.32 10.34 -2.64 9.68 -4 9 Z " fill="#757170" transform="translate(545,654)"/>
<path d="M0 0 C1.32 0 2.64 0 4 0 C4 2.31 4 4.62 4 7 C5.3921875 6.6596875 5.3921875 6.6596875 6.8125 6.3125 C10 6 10 6 11.6875 7.09375 C13.56900994 9.8264192 13.29324748 11.90932822 13.1875 15.1875 C13.16042969 16.27417969 13.13335937 17.36085938 13.10546875 18.48046875 C13.07066406 19.31191406 13.03585937 20.14335938 13 21 C12.01 21 11.02 21 10 21 C9.93941406 20.37351562 9.87882812 19.74703125 9.81640625 19.1015625 C9.73261719 18.28429687 9.64882813 17.46703125 9.5625 16.625 C9.48128906 15.81289063 9.40007812 15.00078125 9.31640625 14.1640625 C9.10909886 11.95727195 9.10909886 11.95727195 8 10 C7.01 10.33 6.02 10.66 5 11 C4.67 14.3 4.34 17.6 4 21 C2.68 21 1.36 21 0 21 C0 14.07 0 7.14 0 0 Z " fill="#757170" transform="translate(442,654)"/>
<path d="M0 0 C2.1519437 3.22791555 2.20086443 4.28400809 2 8 C-2.455 8.495 -2.455 8.495 -7 9 C-5.03177114 10.96822886 -1.65191291 10.66248381 1 11 C1 11.99 1 12.98 1 14 C-0.43655854 14.08131463 -1.8744483 14.13933559 -3.3125 14.1875 C-4.51326172 14.23970703 -4.51326172 14.23970703 -5.73828125 14.29296875 C-8 14 -8 14 -9.73828125 12.66796875 C-11.64844032 10.14277394 -11.87453116 8.13672108 -12 5 C-9.05979673 -1.30043559 -6.60476556 -1.41530691 0 0 Z M-6 2 C-6.99 3.485 -6.99 3.485 -8 5 C-6.02 5 -4.04 5 -2 5 C-2.33 4.01 -2.66 3.02 -3 2 C-3.99 2 -4.98 2 -6 2 Z " fill="#706C6C" transform="translate(472,661)"/>
<path d="M0 0 C2 1.625 2 1.625 3 4 C2.87988224 7.42335626 2.60726153 9.95416069 0.875 12.9375 C-2.18452459 14.6712306 -4.56817525 14.42145216 -8 14 C-10.4375 12.4375 -10.4375 12.4375 -12 10 C-12.5625 6.5 -12.5625 6.5 -12 3 C-8.33340589 -1.4443565 -5.38867153 -1.59664341 0 0 Z M-6 2 C-8.34973818 3.89755144 -8.34973818 3.89755144 -8.125 7.125 C-8.08375 8.07375 -8.0425 9.0225 -8 10 C-5.60280568 10.67958603 -5.60280568 10.67958603 -3 11 C-0.7508092 9.17296773 -0.7508092 9.17296773 -0.75 6.5 C-0.7508092 3.82703227 -0.7508092 3.82703227 -3 2 C-3.99 2 -4.98 2 -6 2 Z " fill="#736F6E" transform="translate(910,661)"/>
<path d="M0 0 C3.25543053 1.20309389 4.29989632 1.9997984 5.875 5.0625 C5.875 6.3825 5.875 7.7025 5.875 9.0625 C2.575 9.0625 -0.725 9.0625 -4.125 9.0625 C-3.795 9.7225 -3.465 10.3825 -3.125 11.0625 C-1.22966658 11.52773063 -1.22966658 11.52773063 0.9375 11.6875 C2.236875 11.81125 3.53625 11.935 4.875 12.0625 C4.545 13.0525 4.215 14.0425 3.875 15.0625 C-3.38081395 15.54622093 -3.38081395 15.54622093 -6.625 13.4375 C-8.60698314 10.29936002 -8.79564058 8.71376535 -8.125 5.0625 C-5.58554286 1.55207396 -4.41454364 0.08829087 0 0 Z M-2.125 3.0625 C-3.115 4.5475 -3.115 4.5475 -4.125 6.0625 C-2.145 6.0625 -0.165 6.0625 1.875 6.0625 C1.545 5.0725 1.215 4.0825 0.875 3.0625 C-0.115 3.0625 -1.105 3.0625 -2.125 3.0625 Z " fill="#747170" transform="translate(498.125,659.9375)"/>
<path d="M0 0 C3.25543053 1.20309389 4.29989632 1.9997984 5.875 5.0625 C5.875 6.3825 5.875 7.7025 5.875 9.0625 C2.575 9.0625 -0.725 9.0625 -4.125 9.0625 C-3.795 9.7225 -3.465 10.3825 -3.125 11.0625 C-1.22966658 11.52773063 -1.22966658 11.52773063 0.9375 11.6875 C2.236875 11.81125 3.53625 11.935 4.875 12.0625 C4.545 13.0525 4.215 14.0425 3.875 15.0625 C-3.38081395 15.54622093 -3.38081395 15.54622093 -6.625 13.4375 C-8.60698314 10.29936002 -8.79564058 8.71376535 -8.125 5.0625 C-5.58554286 1.55207396 -4.41454364 0.08829087 0 0 Z M-2.125 3.0625 C-3.115 4.5475 -3.115 4.5475 -4.125 6.0625 C-2.145 6.0625 -0.165 6.0625 1.875 6.0625 C1.545 5.0725 1.215 4.0825 0.875 3.0625 C-0.115 3.0625 -1.105 3.0625 -2.125 3.0625 Z " fill="#757170" transform="translate(711.125,659.9375)"/>
<path d="M0 0 C2 1.625 2 1.625 3 4 C2.87988224 7.42335626 2.60726153 9.95416069 0.875 12.9375 C-2.18452459 14.6712306 -4.56817525 14.42145216 -8 14 C-10.4375 12.4375 -10.4375 12.4375 -12 10 C-12.5625 6.5 -12.5625 6.5 -12 3 C-8.33340589 -1.4443565 -5.38867153 -1.59664341 0 0 Z M-6 2 C-8.34973818 3.89755144 -8.34973818 3.89755144 -8.125 7.125 C-8.08375 8.07375 -8.0425 9.0225 -8 10 C-5.60280568 10.67958603 -5.60280568 10.67958603 -3 11 C-0.7508092 9.17296773 -0.7508092 9.17296773 -0.75 6.5 C-0.7508092 3.82703227 -0.7508092 3.82703227 -3 2 C-3.99 2 -4.98 2 -6 2 Z " fill="#736F6E" transform="translate(835,661)"/>
<path d="M0 0 C2.0790122 3.07665899 2.22109424 5.598419 2.125 9.25 C2.10695313 10.14203125 2.08890625 11.0340625 2.0703125 11.953125 C2.03550781 12.96632813 2.03550781 12.96632813 2 14 C0.68 14 -0.64 14 -2 14 C-2.33 10.7 -2.66 7.4 -3 4 C-4.32 4 -5.64 4 -7 4 C-7.33 7.3 -7.66 10.6 -8 14 C-9.32 14 -10.64 14 -12 14 C-12 9.38 -12 4.76 -12 0 C-4.32786885 -1.27868852 -4.32786885 -1.27868852 0 0 Z " fill="#6B6766" transform="translate(660,661)"/>
<path d="M0 0 C2 2 2 2 2.125 5.125 C2.08375 6.07375 2.0425 7.0225 2 8 C-0.97 8 -3.94 8 -7 8 C-6.67 8.66 -6.34 9.32 -6 10 C-3.67843403 10.40729228 -1.3431213 10.74438677 1 11 C1 11.99 1 12.98 1 14 C-0.43655854 14.08131463 -1.8744483 14.13933559 -3.3125 14.1875 C-4.51326172 14.23970703 -4.51326172 14.23970703 -5.73828125 14.29296875 C-8 14 -8 14 -9.76171875 12.734375 C-11.51923563 10.27274253 -11.5341885 7.90478036 -11.4140625 4.9453125 C-11 3 -11 3 -8.875 0.4375 C-5.34522437 -1.32738782 -3.72617026 -1.15925297 0 0 Z M-6 2 C-6.33 2.99 -6.66 3.98 -7 5 C-5.02 5 -3.04 5 -1 5 C-1.66 4.01 -2.32 3.02 -3 2 C-3.99 2 -4.98 2 -6 2 Z " fill="#74706F" transform="translate(732,661)"/>
<path d="M0 0 C2.13161451 3.03239355 2.22063651 5.61581254 2.125 9.25 C2.10695313 10.14203125 2.08890625 11.0340625 2.0703125 11.953125 C2.03550781 12.96632813 2.03550781 12.96632813 2 14 C0.18757948 14.02687279 -1.62495233 14.04633715 -3.4375 14.0625 C-4.44683594 14.07410156 -5.45617187 14.08570313 -6.49609375 14.09765625 C-9 14 -9 14 -10 13 C-10.1875 10.0625 -10.1875 10.0625 -10 7 C-7.77810176 4.77810176 -5.91517292 4.07401108 -3 3 C-4.98 3 -6.96 3 -9 3 C-9 2.01 -9 1.02 -9 0 C-5.81926598 -1.59036701 -3.37573597 -0.78365299 0 0 Z M-5 7 C-5.66 8.32 -6.32 9.64 -7 11 C-5.35 10.67 -3.7 10.34 -2 10 C-2 9.01 -2 8.02 -2 7 C-2.99 7 -3.98 7 -5 7 Z " fill="#74716F" transform="translate(869,661)"/>
<path d="M0 0 C2.52122604 3.78183906 2.73098831 6.55855205 2 11 C0.4375 13 0.4375 13 -2 14 C-8.0023753 14.63182898 -8.0023753 14.63182898 -10.875 12.8125 C-12.36816938 10.40683822 -12.8675026 8.84869415 -13 6 C-11.75 2.75 -11.75 2.75 -10 0 C-6.23918426 -1.25360525 -3.84551868 -0.83902226 0 0 Z M-7 2 C-9.33391203 4.78114056 -9.33391203 4.78114056 -8.625 7.6875 C-8.41875 8.450625 -8.2125 9.21375 -8 10 C-6.35 10.33 -4.7 10.66 -3 11 C-1.70957237 8.73398135 -1.70957237 8.73398135 -1 6 C-2.05893971 3.61557197 -2.05893971 3.61557197 -4 2 C-4.99 2 -5.98 2 -7 2 Z " fill="#716D6C" transform="translate(641,661)"/>
<path d="M0 0 C2 2 2 2 2.125 5.125 C2.08375 6.07375 2.0425 7.0225 2 8 C-0.97 8 -3.94 8 -7 8 C-6.67 8.66 -6.34 9.32 -6 10 C-3.67843403 10.40729228 -1.3431213 10.74438677 1 11 C1 11.99 1 12.98 1 14 C-6.22891566 14.48192771 -6.22891566 14.48192771 -9.5 12.4375 C-11.60020266 9.02467068 -11.63210717 6.93311127 -11 3 C-7.50983548 -1.10607591 -5.08222888 -1.58113787 0 0 Z M-6 2 C-6.33 2.99 -6.66 3.98 -7 5 C-5.02 5 -3.04 5 -1 5 C-1.66 4.01 -2.32 3.02 -3 2 C-3.99 2 -4.98 2 -6 2 Z " fill="#767271" transform="translate(528,661)"/>
<path d="M0 0 C2 2 2 2 2.1953125 4.8203125 C2.16050781 6.45613281 2.16050781 6.45613281 2.125 8.125 C2.10695313 9.22070312 2.08890625 10.31640625 2.0703125 11.4453125 C2.04710937 12.28835938 2.02390625 13.13140625 2 14 C0.68 14 -0.64 14 -2 14 C-2.33 10.37 -2.66 6.74 -3 3 C-4.32 3 -5.64 3 -7 3 C-7 6.63 -7 10.26 -7 14 C-8.32 14 -9.64 14 -11 14 C-11 9.38 -11 4.76 -11 0 C-6.49409249 -0.9011815 -4.31331799 -1.05436662 0 0 Z " fill="#73706F" transform="translate(929,661)"/>
<path d="M0 0 C2 2 2 2 2.1953125 4.8203125 C2.16050781 6.45613281 2.16050781 6.45613281 2.125 8.125 C2.10695313 9.22070312 2.08890625 10.31640625 2.0703125 11.4453125 C2.04710937 12.28835938 2.02390625 13.13140625 2 14 C0.37536158 14.05395478 -1.24978541 14.09277195 -2.875 14.125 C-3.77992188 14.14820313 -4.68484375 14.17140625 -5.6171875 14.1953125 C-8 14 -8 14 -10 12 C-9.625 8.875 -9.625 8.875 -9 6 C-7.02 5.34 -5.04 4.68 -3 4 C-5.94729537 2.84188612 -5.94729537 2.84188612 -9 3 C-9 2.01 -9 1.02 -9 0 C-5.47955362 -1.17348213 -3.57539179 -0.83679382 0 0 Z M-6 8 C-6 8.99 -6 9.98 -6 11 C-4.68 11 -3.36 11 -2 11 C-1.67 9.68 -1.34 8.36 -1 7 C-3.9254644 6.7763932 -3.9254644 6.7763932 -6 8 Z " fill="#757170" transform="translate(599,661)"/>
<path d="M0 0 C2.0790122 3.07665899 2.22109424 5.598419 2.125 9.25 C2.10695313 10.14203125 2.08890625 11.0340625 2.0703125 11.953125 C2.03550781 12.96632813 2.03550781 12.96632813 2 14 C0.68 14 -0.64 14 -2 14 C-2.33 10.7 -2.66 7.4 -3 4 C-4.32 4 -5.64 4 -7 4 C-7.33 7.3 -7.66 10.6 -8 14 C-8.99 14 -9.98 14 -11 14 C-11.33 9.38 -11.66 4.76 -12 0 C-4.32786885 -1.27868852 -4.32786885 -1.27868852 0 0 Z " fill="#747170" transform="translate(797,661)"/>
<path d="M0 0 C2.28062828 3.42094242 2.21925007 4.68187222 2.125 8.6875 C2.10695313 9.68136719 2.08890625 10.67523437 2.0703125 11.69921875 C2.03550781 12.83810547 2.03550781 12.83810547 2 14 C0.68 14 -0.64 14 -2 14 C-2 10.37 -2 6.74 -2 3 C-3.65 3 -5.3 3 -7 3 C-7.33 6.63 -7.66 10.26 -8 14 C-8.99 14 -9.98 14 -11 14 C-11 9.38 -11 4.76 -11 0 C-6.50552991 -0.89889402 -4.29307885 -1.14482103 0 0 Z " fill="#747070" transform="translate(816,661)"/>
<path d="M0 0 C0.99 0 1.98 0 3 0 C3.66 3.3 4.32 6.6 5 10 C5.99 10 6.98 10 8 10 C8.33 6.7 8.66 3.4 9 0 C10.32 0 11.64 0 13 0 C13 4.62 13 9.24 13 14 C4.6015625 14.29296875 4.6015625 14.29296875 2 14 C-0.28062828 10.57905758 -0.21925007 9.31812778 -0.125 5.3125 C-0.10695313 4.31863281 -0.08890625 3.32476563 -0.0703125 2.30078125 C-0.04710937 1.54152344 -0.02390625 0.78226563 0 0 Z " fill="#74706F" transform="translate(555,661)"/>
<path d="M0 0 C1.32 0 2.64 0 4 0 C4.99 2.31 5.98 4.62 7 7 C7.99 4.69 8.98 2.38 10 0 C11.32 0 12.64 0 14 0 C13.34580901 5.06998019 11.1453591 9.41990777 9 14 C7.68 14 6.36 14 5 14 C4.16235732 12.04350603 3.33000941 10.08474444 2.5 8.125 C2.0359375 7.03445313 1.571875 5.94390625 1.09375 4.8203125 C0 2 0 2 0 0 Z " fill="#747170" transform="translate(841,661)"/>
<path d="M0 0 C0 0.99 0 1.98 0 3 C-2.31 3.33 -4.62 3.66 -7 4 C-7 5.65 -7 7.3 -7 9 C-4.69 9.66 -2.38 10.32 0 11 C0 11.99 0 12.98 0 14 C-7.25581395 14.48372093 -7.25581395 14.48372093 -10.5 12.375 C-12.44280469 9.29889257 -12.52224493 7.58110811 -12 4 C-8.93642682 -1.39772418 -5.69145086 -1.13829017 0 0 Z " fill="#767171" transform="translate(585,661)"/>
<path d="M0 0 C1.36125 0.37125 1.36125 0.37125 2.75 0.75 C2.42 1.74 2.09 2.73 1.75 3.75 C-0.3125 4.4375 -0.3125 4.4375 -2.25 4.75 C-1.425 5.12125 -0.6 5.4925 0.25 5.875 C1.075 6.49375 1.9 7.1125 2.75 7.75 C3.0625 10.9375 3.0625 10.9375 2.75 13.75 C-0.20664519 15.2283226 -2.99229737 14.81032783 -6.25 14.75 C-6.25 13.43 -6.25 12.11 -6.25 10.75 C-3.28 11.245 -3.28 11.245 -0.25 11.75 C-1.1418702 9.50587501 -1.1418702 9.50587501 -3.75 8.3125 C-6.25 6.75 -6.25 6.75 -7.25 3.75 C-4.05 -0.31153846 -4.05 -0.31153846 0 0 Z " fill="#726E6D" transform="translate(758.25,660.25)"/>
<path d="M0 0 C1.32 0 2.64 0 4 0 C4 1.32 4 2.64 4 4 C4.99 4 5.98 4 7 4 C7 4.66 7 5.32 7 6 C6.01 6 5.02 6 4 6 C4 8.97 4 11.94 4 15 C4.99 15 5.98 15 7 15 C7 15.99 7 16.98 7 18 C5.02 18 3.04 18 1 18 C-0.26237731 15.47524538 -0.09856404 13.68799534 -0.0625 10.875 C-0.05347656 9.96492187 -0.04445313 9.05484375 -0.03515625 8.1171875 C-0.02355469 7.41851563 -0.01195312 6.71984375 0 6 C-0.66 6 -1.32 6 -2 6 C-2 5.34 -2 4.68 -2 4 C-1.34 4 -0.68 4 0 4 C0 2.68 0 1.36 0 0 Z " fill="#726E6D" transform="translate(740,657)"/>
<path d="M0 0 C1.32 0 2.64 0 4 0 C4 1.32 4 2.64 4 4 C4.99 4 5.98 4 7 4 C7 4.66 7 5.32 7 6 C6.01 6 5.02 6 4 6 C4 8.97 4 11.94 4 15 C4.99 15 5.98 15 7 15 C7 15.99 7 16.98 7 18 C4.625 18.125 4.625 18.125 2 18 C0 16 0 16 -0.1953125 13.6171875 C-0.17210937 12.71226562 -0.14890625 11.80734375 -0.125 10.875 C-0.10695313 9.96492187 -0.08890625 9.05484375 -0.0703125 8.1171875 C-0.04710937 7.41851563 -0.02390625 6.71984375 0 6 C-0.66 6 -1.32 6 -2 6 C-2 5.34 -2 4.68 -2 4 C-1.34 4 -0.68 4 0 4 C0 2.68 0 1.36 0 0 Z " fill="#777371" transform="translate(877,657)"/>
<path d="M0 0 C0.99 0 1.98 0 3 0 C3 1.32 3 2.64 3 4 C4.32 4 5.64 4 7 4 C7 4.66 7 5.32 7 6 C5.68 6 4.36 6 3 6 C3.33 8.64 3.66 11.28 4 14 C4.99 14.33 5.98 14.66 7 15 C7 15.99 7 16.98 7 18 C5.00045254 18.04254356 2.99958364 18.04080783 1 18 C0 17 0 17 -0.09765625 14.49609375 C-0.08605469 13.48675781 -0.07445312 12.47742188 -0.0625 11.4375 C-0.05347656 10.42558594 -0.04445313 9.41367187 -0.03515625 8.37109375 C-0.02355469 7.58863281 -0.01195312 6.80617188 0 6 C-0.99 6 -1.98 6 -3 6 C-3 5.34 -3 4.68 -3 4 C-2.01 4 -1.02 4 0 4 C0 2.68 0 1.36 0 0 Z " fill="#757170" transform="translate(608,657)"/>
<path d="M0 0 C0 1.32 0 2.64 0 4 C-0.99 4.33 -1.98 4.66 -3 5 C-3.33 7.97 -3.66 10.94 -4 14 C-5.32 14.33 -6.64 14.66 -8 15 C-8 10.38 -8 5.76 -8 1 C-3 0 -3 0 0 0 Z " fill="#696565" transform="translate(487,660)"/>
<path d="M0 0 C1.32 0 2.64 0 4 0 C4 4.62 4 9.24 4 14 C2.68 14 1.36 14 0 14 C0 9.38 0 4.76 0 0 Z " fill="#767372" transform="translate(889,661)"/>
<path d="M0 0 C0.99 0 1.98 0 3 0 C3 4.62 3 9.24 3 14 C2.01 14 1.02 14 0 14 C0 9.38 0 4.76 0 0 Z " fill="#777372" transform="translate(776,661)"/>
<path d="M0 0 C0.99 0 1.98 0 3 0 C3 4.62 3 9.24 3 14 C2.01 14 1.02 14 0 14 C0 9.38 0 4.76 0 0 Z " fill="#777372" transform="translate(620,661)"/>
<path d="M0 0 C1.98 0.495 1.98 0.495 4 1 C3.67 1.99 3.34 2.98 3 4 C1.68 3.67 0.36 3.34 -1 3 C-0.67 2.01 -0.34 1.02 0 0 Z " fill="#646160" transform="translate(776,655)"/>
<path d="M0 0 C0.99 0 1.98 0 3 0 C3.33 0.99 3.66 1.98 4 3 C2.68 3.33 1.36 3.66 0 4 C0 2.68 0 1.36 0 0 Z " fill="#6F6C6B" transform="translate(620,655)"/>
<path d="M0 0 C0.99 0.33 1.98 0.66 3 1 C3 1.99 3 2.98 3 4 C1.68 4 0.36 4 -1 4 C-0.67 2.68 -0.34 1.36 0 0 Z " fill="#767171" transform="translate(890,655)"/>
</svg>
