<?xml version="1.0" encoding="UTF-8"?>
<!-- Generator: https://ezgif.com/png-to-svg -->
<svg version="1.1" xmlns="http://www.w3.org/2000/svg" width="1080" height="1080">
<path d="M0 0 C311.52 0 623.04 0 944 0 C944 155.76 944 311.52 944 472 C632.48 472 320.96 472 0 472 C0 316.24 0 160.48 0 0 Z " fill="#FEFEFE" transform="translate(68,304)"/>
<path d="M0 0 C1.32 0 2.64 0 3.99 0 C23.07 0.03 41.66 0.36 60.38 4.38 C61.56 4.63 62.74 4.88 63.96 5.14 C88.97 10.63 117.92 17.08 135.38 37.38 C140.47 45.53 143.18 52.76 142.38 62.38 C141.62 65.49 140.57 68.41 139.38 71.38 C138.98 72.39 138.59 73.4 138.19 74.44 C137.92 75.08 137.65 75.72 137.38 76.38 C137.87 76.75 138.37 77.13 138.88 77.52 C147.78 84.73 155.12 95.51 156.75 107.06 C157.22 117.55 153.39 126.68 146.38 134.38 C139.13 142.05 128.45 146.77 117.94 147.56 C115.15 147.63 112.37 147.63 109.58 147.62 C107.98 147.62 107.98 147.62 106.35 147.62 C102.8 147.62 99.25 147.61 95.69 147.6 C93.14 147.6 90.59 147.6 88.03 147.6 C82.54 147.6 77.05 147.6 71.56 147.59 C63.63 147.57 55.69 147.56 47.75 147.56 C34.87 147.56 21.99 147.54 9.11 147.53 C-3.39 147.51 -15.9 147.49 -28.41 147.48 C-29.18 147.48 -29.95 147.48 -30.75 147.48 C-34.62 147.48 -38.49 147.48 -42.36 147.48 C-74.45 147.45 -106.54 147.42 -138.62 147.38 C-138.62 136.49 -138.62 125.6 -138.62 114.38 C-135.99 113.38 -133.34 112.39 -130.62 111.38 C-126.93 109.55 -126.93 109.55 -124.62 106.38 C-124.5 103.95 -124.44 101.56 -124.42 99.14 C-124.42 98.42 -124.41 97.7 -124.4 96.96 C-124.4 95.44 -124.39 93.92 -124.38 92.4 C-124.38 90.08 -124.34 87.76 -124.31 85.45 C-124.31 83.97 -124.3 82.49 -124.3 81.01 C-124.28 80.32 -124.27 79.63 -124.26 78.92 C-124.28 74.56 -124.94 71.83 -127.62 68.38 C-130.32 66.58 -131.77 65.95 -134.81 65.25 C-136.07 64.96 -137.33 64.67 -138.62 64.38 C-138.75 59.3 -138.84 54.23 -138.9 49.16 C-138.92 47.43 -138.96 45.71 -139 43.98 C-139.06 41.5 -139.09 39.02 -139.11 36.54 C-139.14 35.77 -139.16 35 -139.19 34.2 C-139.19 32.02 -139.19 32.02 -138.62 28.38 C-136.47 26.5 -136.47 26.5 -133.62 25.38 C-132.68 25 -131.73 24.62 -130.75 24.23 C-127.19 23.01 -123.63 21.8 -120.06 20.62 C-119.4 20.41 -118.74 20.19 -118.05 19.96 C-98.82 13.61 -79.24 8.96 -59.38 5.06 C-58.14 4.82 -56.9 4.58 -55.63 4.33 C-51.97 3.63 -48.3 2.99 -44.62 2.38 C-42.91 2.08 -42.91 2.08 -41.15 1.78 C-27.52 -0.26 -13.76 -0.02 0 0 Z " fill="#FCFDFD" transform="translate(303.625,315.625)"/>
<path d="M0 0 C2.28 0.01 4.56 0.01 6.84 0.01 C12.77 0.02 18.7 0.05 24.64 0.09 C30.72 0.12 36.8 0.13 42.88 0.15 C54.76 0.18 66.64 0.23 78.52 0.29 C78.59 2.24 78.65 4.19 78.7 6.14 C78.73 7.23 78.77 8.31 78.8 9.43 C78.52 12.29 78.52 12.29 75.58 14.73 C74.06 15.5 74.06 15.5 72.52 16.29 C70.63 22.23 71.33 28.89 71.33 35.07 C71.33 37.29 71.31 39.5 71.29 41.72 C71.29 43.14 71.29 44.56 71.29 45.98 C71.28 47.26 71.28 48.55 71.27 49.87 C71.51 53.16 71.98 55.38 73.52 58.29 C76.32 59.7 78.89 59.6 82.02 59.79 C88.29 60.18 88.29 60.18 90.52 61.29 C90.52 71.52 90.52 81.75 90.52 92.29 C79.21 92.38 67.91 92.46 56.61 92.5 C51.36 92.52 46.12 92.55 40.87 92.59 C35.8 92.64 30.73 92.66 25.66 92.67 C23.73 92.68 21.8 92.69 19.87 92.72 C1.48 92.91 1.48 92.91 -5.56 89.06 C-8.82 87.76 -11.36 89.03 -14.5 90.22 C-18.35 91.6 -22.25 92.5 -26.23 93.42 C-26.96 93.59 -27.68 93.76 -28.42 93.93 C-50.55 99.09 -74.72 98.38 -94.48 86.29 C-101.02 81.86 -104.95 76.24 -107.8 68.92 C-110.15 56.52 -106.94 45.1 -100.11 34.57 C-89.29 19.4 -72.79 11.13 -55.23 5.98 C-54.46 5.75 -53.69 5.52 -52.9 5.28 C-35.47 0.51 -17.95 -0.13 0 0 Z " fill="#FCFDFD" transform="translate(704.484375,370.70703125)"/>
<path d="M0 0 C1.32 0 2.64 0 3.99 0 C23.07 0.03 41.66 0.36 60.38 4.38 C61.56 4.63 62.74 4.88 63.96 5.14 C88.97 10.63 117.92 17.08 135.38 37.38 C140.47 45.53 143.18 52.76 142.38 62.38 C141.62 65.49 140.57 68.41 139.38 71.38 C138.98 72.39 138.59 73.4 138.19 74.44 C137.92 75.08 137.65 75.72 137.38 76.38 C137.87 76.75 138.37 77.13 138.88 77.52 C147.78 84.73 155.12 95.51 156.75 107.06 C157.22 117.55 153.39 126.68 146.38 134.38 C139.13 142.05 128.45 146.77 117.94 147.56 C115.15 147.63 112.37 147.63 109.58 147.62 C107.98 147.62 107.98 147.62 106.35 147.62 C102.8 147.62 99.25 147.61 95.69 147.6 C93.14 147.6 90.59 147.6 88.03 147.6 C82.54 147.6 77.05 147.6 71.56 147.59 C63.63 147.57 55.69 147.56 47.75 147.56 C34.87 147.56 21.99 147.54 9.11 147.53 C-3.39 147.51 -15.9 147.49 -28.41 147.48 C-29.18 147.48 -29.95 147.48 -30.75 147.48 C-34.62 147.48 -38.49 147.48 -42.36 147.48 C-74.45 147.45 -106.54 147.42 -138.62 147.38 C-138.62 136.49 -138.62 125.6 -138.62 114.38 C-135.99 113.38 -133.34 112.39 -130.62 111.38 C-126.93 109.55 -126.93 109.55 -124.62 106.38 C-124.5 103.95 -124.44 101.56 -124.42 99.14 C-124.42 98.42 -124.41 97.7 -124.4 96.96 C-124.4 95.44 -124.39 93.92 -124.38 92.4 C-124.38 90.08 -124.34 87.76 -124.31 85.45 C-124.31 83.97 -124.3 82.49 -124.3 81.01 C-124.28 80.32 -124.27 79.63 -124.26 78.92 C-124.28 74.56 -124.94 71.83 -127.62 68.38 C-130.32 66.58 -131.77 65.95 -134.81 65.25 C-136.07 64.96 -137.33 64.67 -138.62 64.38 C-138.75 59.3 -138.84 54.23 -138.9 49.16 C-138.92 47.43 -138.96 45.71 -139 43.98 C-139.06 41.5 -139.09 39.02 -139.11 36.54 C-139.14 35.77 -139.16 35 -139.19 34.2 C-139.19 32.02 -139.19 32.02 -138.62 28.38 C-136.47 26.5 -136.47 26.5 -133.62 25.38 C-132.68 25 -131.73 24.62 -130.75 24.23 C-127.19 23.01 -123.63 21.8 -120.06 20.62 C-119.4 20.41 -118.74 20.19 -118.05 19.96 C-98.82 13.61 -79.24 8.96 -59.38 5.06 C-58.14 4.82 -56.9 4.58 -55.63 4.33 C-51.97 3.63 -48.3 2.99 -44.62 2.38 C-42.91 2.08 -42.91 2.08 -41.15 1.78 C-27.52 -0.26 -13.76 -0.02 0 0 Z M-49.62 16.38 C-50.7 16.55 -51.78 16.72 -52.88 16.89 C-66.81 19.12 -80.33 22.51 -93.88 26.38 C-94.98 26.69 -94.98 26.69 -96.1 27.01 C-111.92 30.38 -111.92 30.38 -125.62 37.38 C-125.7 39.73 -125.71 42.08 -125.69 44.44 C-125.68 45.73 -125.67 47.02 -125.66 48.35 C-125.65 49.35 -125.64 50.35 -125.62 51.38 C-125.02 51.65 -124.42 51.93 -123.8 52.22 C-117.97 55.15 -115.21 57.35 -112.62 63.38 C-111.47 67.76 -111.46 72.1 -111.46 76.61 C-111.45 77.4 -111.45 78.19 -111.45 79 C-111.44 80.67 -111.44 82.34 -111.44 84.01 C-111.44 86.54 -111.42 89.06 -111.4 91.59 C-111.33 112.73 -111.33 112.73 -115.62 120.38 C-118.63 122.41 -122.19 123.28 -125.62 124.38 C-125.62 127.68 -125.62 130.98 -125.62 134.38 C-122.2 136.09 -118.27 135.52 -114.5 135.51 C-113.54 135.51 -112.58 135.51 -111.6 135.52 C-108.37 135.52 -105.14 135.52 -101.91 135.52 C-99.6 135.52 -97.29 135.53 -94.99 135.53 C-88.7 135.54 -82.41 135.54 -76.13 135.54 C-70.88 135.54 -65.64 135.55 -60.39 135.55 C-48.72 135.56 -37.05 135.56 -25.37 135.56 C-24.67 135.56 -23.97 135.56 -23.25 135.56 C-22.2 135.56 -22.2 135.56 -21.12 135.56 C-9.77 135.56 1.59 135.57 12.94 135.58 C24.6 135.6 36.27 135.6 47.93 135.6 C54.48 135.6 61.02 135.61 67.57 135.62 C73.73 135.63 79.89 135.63 86.06 135.62 C88.31 135.62 90.57 135.62 92.83 135.63 C95.92 135.63 99.01 135.63 102.11 135.62 C102.99 135.63 103.88 135.63 104.79 135.64 C115.82 135.58 126.73 133.8 135.75 127.06 C140.72 121.98 141.56 117.87 141.81 110.94 C141.46 99.54 135.43 93.1 127.38 85.38 C122.39 81.12 122.39 81.12 116.38 79.38 C117.38 76.38 117.38 76.38 119.69 74.62 C124.91 70.25 126.95 64.88 127.75 58.25 C127.05 50.98 123.74 45.29 118.5 40.25 C88.3 15.79 42.08 11.92 4.62 12 C3.16 12 3.16 12 1.67 12 C-15.76 12.04 -32.44 13.41 -49.62 16.38 Z " fill="#182E55" transform="translate(303.625,315.625)"/>
<path d="M0 0 C28.38 0 56.76 0 86 0 C86.38 26.19 86.38 26.19 86.48 34.43 C86.51 36.6 86.55 38.76 86.59 40.92 C86.6 42.04 86.61 43.16 86.62 44.31 C86.64 45.38 86.66 46.46 86.68 47.57 C86.69 48.5 86.71 49.43 86.72 50.39 C87.05 53.51 87.71 56.71 90 59 C92.31 59.21 94.62 59.37 96.94 59.5 C103.78 59.89 103.78 59.89 106 61 C106 71.23 106 81.46 106 92 C95.19 92.07 84.37 92.12 73.56 92.16 C68.54 92.17 63.51 92.19 58.49 92.23 C53.64 92.26 48.79 92.28 43.94 92.28 C42.1 92.29 40.25 92.3 38.4 92.32 C35.81 92.34 33.21 92.34 30.62 92.34 C29.86 92.35 29.11 92.36 28.33 92.37 C22.66 92.34 16.78 91.52 12.43 87.58 C8.58 83.13 7.88 79.75 7.81 74.03 C7.79 72.19 7.79 72.19 7.76 70.31 C7.75 69.33 7.75 69.33 7.74 68.32 C7.72 66.27 7.69 64.21 7.66 62.16 C7.6 57.79 7.55 53.43 7.5 49.06 C7.44 44.01 7.38 38.95 7.31 33.9 C7.28 31.88 7.26 29.85 7.24 27.83 C7.22 26.6 7.21 25.37 7.19 24.1 C7.17 22.47 7.17 22.47 7.15 20.81 C6.97 17.32 6.97 17.32 6 14 C3 12.7 3 12.7 0 12 C0 8.04 0 4.08 0 0 Z " fill="#172D54" transform="translate(473,371)"/>
<path d="M0 0 C298.98 0 597.96 0 906 0 C906 2.64 906 5.28 906 8 C607.02 8 308.04 8 0 8 C0 5.36 0 2.72 0 0 Z " fill="#ED4750" transform="translate(87,502)"/>
<path d="M0 0 C2.28 0.01 4.56 0.01 6.84 0.01 C12.77 0.02 18.7 0.05 24.64 0.09 C30.72 0.12 36.8 0.13 42.88 0.15 C54.76 0.18 66.64 0.23 78.52 0.29 C78.59 2.24 78.65 4.19 78.7 6.14 C78.73 7.23 78.77 8.31 78.8 9.43 C78.52 12.29 78.52 12.29 75.58 14.73 C74.06 15.5 74.06 15.5 72.52 16.29 C70.63 22.23 71.33 28.89 71.33 35.07 C71.33 37.29 71.31 39.5 71.29 41.72 C71.29 43.14 71.29 44.56 71.29 45.98 C71.28 47.26 71.28 48.55 71.27 49.87 C71.51 53.16 71.98 55.38 73.52 58.29 C76.32 59.7 78.89 59.6 82.02 59.79 C88.29 60.18 88.29 60.18 90.52 61.29 C90.52 71.52 90.52 81.75 90.52 92.29 C79.21 92.38 67.91 92.46 56.61 92.5 C51.36 92.52 46.12 92.55 40.87 92.59 C35.8 92.64 30.73 92.66 25.66 92.67 C23.73 92.68 21.8 92.69 19.87 92.72 C1.48 92.91 1.48 92.91 -5.56 89.06 C-8.82 87.76 -11.36 89.03 -14.5 90.22 C-18.35 91.6 -22.25 92.5 -26.23 93.42 C-26.96 93.59 -27.68 93.76 -28.42 93.93 C-50.55 99.09 -74.72 98.38 -94.48 86.29 C-101.02 81.86 -104.95 76.24 -107.8 68.92 C-110.15 56.52 -106.94 45.1 -100.11 34.57 C-89.29 19.4 -72.79 11.13 -55.23 5.98 C-54.46 5.75 -53.69 5.52 -52.9 5.28 C-35.47 0.51 -17.95 -0.13 0 0 Z M-45.05 16.04 C-45.83 16.21 -46.61 16.38 -47.42 16.55 C-63.15 20.13 -79.2 26.23 -89.48 39.29 C-94.45 47.61 -96.34 54.59 -95.48 64.29 C-93.75 70.87 -89.19 75.77 -83.48 79.29 C-79.23 80.97 -74.93 82.2 -70.48 83.29 C-69.85 83.47 -69.22 83.64 -68.57 83.82 C-50.02 88 -25.47 82.66 -8.92 73.98 C-5.48 72.29 -5.48 72.29 -2.48 73.29 C-1.72 74.1 -0.96 74.9 -0.17 75.73 C5.48 81.12 12.01 80.58 19.37 80.52 C20.43 80.52 21.48 80.52 22.57 80.52 C24.81 80.52 27.05 80.51 29.29 80.5 C32.65 80.48 36.01 80.48 39.37 80.48 C52.11 80.46 64.8 80.12 77.52 79.29 C77.52 76.98 77.52 74.67 77.52 72.29 C76.86 72.21 76.21 72.12 75.54 72.03 C69.37 71.04 65.85 69.85 61.52 65.29 C59.62 62.22 59.27 59.93 59.29 56.34 C59.29 54.87 59.29 54.87 59.29 53.37 C59.3 52.32 59.31 51.27 59.32 50.18 C59.32 49.1 59.33 48.02 59.33 46.9 C59.34 43.45 59.37 40 59.39 36.54 C59.4 34.2 59.41 31.86 59.42 29.52 C59.44 23.77 59.47 18.03 59.52 12.29 C49.64 12.25 39.76 12.21 29.89 12.19 C25.3 12.18 20.71 12.16 16.12 12.14 C11.68 12.12 7.24 12.11 2.8 12.1 C1.12 12.1 -0.56 12.09 -2.24 12.08 C-16.68 11.99 -30.89 12.99 -45.05 16.04 Z " fill="#182E55" transform="translate(704.484375,370.70703125)"/>
<path d="M0 0 C17.76 -0.12 17.76 -0.12 25.55 -0.15 C30.79 -0.16 36.03 -0.18 41.27 -0.23 C102.07 -0.7 102.07 -0.7 121 8 C122.01 8.44 123.01 8.88 124.05 9.34 C131.72 13.08 138.74 18.87 142 27 C142.57 31.16 142.42 34.88 140.94 38.81 C137.08 43.17 132.67 45.05 127 46 C125.19 46.09 123.39 46.12 121.58 46.12 C120.5 46.12 119.43 46.12 118.32 46.12 C117.15 46.12 115.98 46.12 114.77 46.11 C113.53 46.11 112.3 46.11 111.02 46.11 C107.63 46.11 104.24 46.11 100.85 46.1 C97.3 46.1 93.76 46.09 90.21 46.09 C83.5 46.09 76.79 46.08 70.08 46.07 C62.43 46.06 54.79 46.06 47.15 46.05 C31.43 46.04 15.72 46.02 0 46 C0 30.82 0 15.64 0 0 Z " fill="#1A2F56" transform="translate(290,395)"/>
<path d="M0 0 C-0.16 0.97 -0.32 1.94 -0.49 2.93 C-1.11 7.31 -1.16 11.64 -1.16 16.05 C-1.17 16.93 -1.17 17.81 -1.18 18.72 C-1.19 21.6 -1.2 24.49 -1.2 27.38 C-1.21 29.39 -1.21 31.41 -1.22 33.43 C-1.23 37.64 -1.24 41.86 -1.24 46.08 C-1.25 51.48 -1.27 56.88 -1.3 62.28 C-1.32 66.43 -1.32 70.59 -1.32 74.75 C-1.33 76.75 -1.33 78.74 -1.35 80.73 C-1.36 83.51 -1.36 86.29 -1.36 89.08 C-1.37 90.3 -1.37 90.3 -1.38 91.56 C-1.35 96.44 -0.69 99.76 2 104 C6.74 108.05 12.09 109.46 18 111 C18.04 113 18.04 115 18 117 C16.23 118.77 13.67 118.15 11.27 118.16 C10.05 118.17 8.82 118.18 7.56 118.19 C6.21 118.2 4.86 118.2 3.52 118.2 C2.14 118.21 0.76 118.21 -0.61 118.22 C-3.51 118.23 -6.4 118.24 -9.29 118.24 C-12.99 118.25 -16.69 118.27 -20.39 118.3 C-23.24 118.32 -26.08 118.32 -28.93 118.32 C-30.29 118.33 -31.66 118.33 -33.02 118.35 C-34.93 118.36 -36.84 118.36 -38.76 118.36 C-39.84 118.36 -40.93 118.36 -42.05 118.37 C-45.44 117.95 -47.28 117.03 -50 115 C-52.41 111.39 -52.26 109.71 -52.29 105.4 C-52.29 104.74 -52.3 104.07 -52.31 103.39 C-52.32 101.94 -52.33 100.5 -52.34 99.06 C-52.34 96.77 -52.36 94.48 -52.39 92.2 C-52.44 87.34 -52.47 82.48 -52.5 77.62 C-52.54 72 -52.58 66.38 -52.64 60.76 C-52.66 58.51 -52.66 56.26 -52.67 54.01 C-52.69 52.62 -52.7 51.24 -52.71 49.85 C-52.72 48.05 -52.72 48.05 -52.73 46.2 C-53 43.04 -53.72 40.87 -55 38 C-55.02 35.91 -55.02 35.91 -54 34 C-51.9 32.66 -49.9 31.54 -47.69 30.44 C-42.48 27.67 -38.17 24.67 -33.94 20.56 C-25.53 12.46 -12.04 0 0 0 Z " fill="#FDFDFD" transform="translate(884,333)"/>
<path d="M0 0 C0 4.95 0 9.9 0 15 C-1.98 15.99 -3.96 16.98 -6 18 C-7.6 21.21 -7.14 24.7 -7.13 28.23 C-7.13 29.08 -7.13 29.93 -7.13 30.8 C-7.14 33.63 -7.14 36.45 -7.13 39.27 C-7.13 41.23 -7.13 43.19 -7.14 45.14 C-7.14 49.25 -7.14 53.36 -7.13 57.47 C-7.12 62.74 -7.13 68.01 -7.13 73.27 C-7.14 77.32 -7.14 81.36 -7.13 85.41 C-7.13 87.35 -7.13 89.29 -7.14 91.24 C-7.14 93.95 -7.13 96.67 -7.13 99.39 C-7.13 100.59 -7.13 100.59 -7.14 101.82 C-7.12 105.76 -6.78 109.1 -6 113 C-0.06 113.66 5.88 114.32 12 115 C12 125.23 12 135.46 12 146 C1.46 146.09 -9.07 146.16 -19.61 146.21 C-24.5 146.23 -29.39 146.26 -34.29 146.3 C-39.01 146.35 -43.74 146.37 -48.47 146.38 C-50.27 146.39 -52.06 146.4 -53.86 146.42 C-73.01 146.64 -73.01 146.64 -79 142 C-83.56 136.46 -84.13 130.86 -84.11 123.94 C-84.11 123.23 -84.11 122.53 -84.11 121.81 C-84.11 119.49 -84.11 117.18 -84.1 114.86 C-84.1 113.25 -84.09 111.64 -84.09 110.03 C-84.09 105.81 -84.08 101.58 -84.07 97.35 C-84.06 93.03 -84.05 88.72 -84.05 84.4 C-84.04 75.93 -84.02 67.47 -84 59 C-85.65 58.34 -87.3 57.68 -89 57 C-89 52.71 -89 48.42 -89 44 C-87.78 43.48 -86.57 42.97 -85.31 42.44 C-74.34 37.51 -65.14 31.81 -56 24 C-39.94 10.74 -21.43 0 0 0 Z M-53.88 37.56 C-59.88 43.13 -66.9 47 -74 51 C-73.48 53.76 -72.89 56.33 -72 59 C-71.9 61.2 -71.86 63.4 -71.86 65.6 C-71.85 66.26 -71.85 66.93 -71.85 67.61 C-71.84 69.06 -71.83 70.5 -71.83 71.94 C-71.82 74.23 -71.81 76.52 -71.79 78.8 C-71.74 85.3 -71.69 91.81 -71.67 98.31 C-71.66 102.29 -71.63 106.26 -71.59 110.24 C-71.58 111.76 -71.58 113.27 -71.58 114.78 C-71.58 116.91 -71.56 119.03 -71.53 121.15 C-71.52 122.35 -71.52 123.56 -71.51 124.8 C-70.9 128.63 -69.74 130.29 -67 133 C-63.76 134.08 -61.4 134.13 -57.98 134.13 C-56.75 134.13 -55.51 134.14 -54.23 134.14 C-52.88 134.14 -51.53 134.14 -50.18 134.13 C-48.8 134.13 -47.41 134.13 -46.03 134.14 C-43.13 134.14 -40.24 134.14 -37.34 134.13 C-33.62 134.12 -29.9 134.13 -26.18 134.13 C-23.32 134.14 -20.47 134.14 -17.61 134.13 C-16.24 134.13 -14.87 134.13 -13.5 134.14 C-11.58 134.14 -9.67 134.13 -7.76 134.13 C-6.67 134.13 -5.58 134.13 -4.45 134.13 C-2.05 134.28 -2.05 134.28 -1 133 C-0.96 131 -0.96 129 -1 127 C-2.21 126.64 -2.21 126.64 -3.45 126.27 C-16.28 122.24 -16.28 122.24 -19.1 116.92 C-20.32 112.96 -20.27 109.31 -20.24 105.19 C-20.24 104.31 -20.25 103.44 -20.25 102.53 C-20.25 99.64 -20.24 96.75 -20.23 93.85 C-20.23 91.84 -20.23 89.82 -20.23 87.8 C-20.23 83.58 -20.22 79.35 -20.21 75.13 C-20.19 69.72 -20.18 64.32 -20.19 58.91 C-20.19 54.75 -20.18 50.58 -20.17 46.42 C-20.17 44.43 -20.17 42.43 -20.17 40.44 C-20.16 37.65 -20.16 34.86 -20.15 32.07 C-20.15 31.25 -20.15 30.43 -20.15 29.59 C-20.12 24.96 -19.76 20.57 -19 16 C-31.47 16 -45.41 29.56 -53.88 37.56 Z " fill="#192F55" transform="translate(903,317)"/>
<path d="M0 0 C13.81 0.01 27.37 0.46 41.08 2.19 C42.05 2.31 43.02 2.43 44.03 2.55 C67.99 5.56 97.87 10.62 115.08 29.19 C116.61 32.25 116.3 34.81 116.08 38.19 C114.27 42.36 112.18 44.28 108.08 46.19 C102.46 47.48 96.84 47.32 91.11 47.3 C90.02 47.3 88.93 47.3 87.8 47.3 C84.2 47.3 80.59 47.3 76.99 47.29 C74.49 47.29 71.98 47.28 69.48 47.28 C63.57 47.28 57.67 47.27 51.76 47.26 C44.37 47.25 36.98 47.24 29.59 47.24 C16.42 47.23 3.25 47.21 -9.92 47.19 C-9.95 40.66 -9.97 34.12 -9.98 27.59 C-9.98 25.37 -9.99 23.14 -10 20.92 C-10.01 17.73 -10.02 14.54 -10.02 11.35 C-10.03 10.35 -10.03 9.35 -10.04 8.32 C-10.04 7.4 -10.04 6.48 -10.04 5.53 C-10.04 4.71 -10.04 3.9 -10.04 3.06 C-9.74 -1.71 -3.61 0.02 0 0 Z " fill="#1A3056" transform="translate(299.924560546875,339.8095703125)"/>
<path d="M0 0 C1.18 0.01 2.37 0.01 3.59 0.02 C14.57 0.11 25.53 0.57 36.5 1.19 C36.5 3.5 36.5 5.81 36.5 8.19 C33.2 8.52 29.9 8.85 26.5 9.19 C26.82 9.88 27.14 10.58 27.48 11.29 C29.75 17.72 29.68 25.6 26.75 31.81 C24.68 35.57 22.01 37.61 18.01 39.14 C7 42.02 -3.54 42.23 -14.5 39.19 C-17.98 39.49 -19.02 39.71 -21.5 42.19 C-21.67 45.77 -21.67 45.77 -21.5 49.19 C-20.34 49.21 -19.17 49.23 -17.97 49.25 C-13.62 49.32 -9.26 49.41 -4.9 49.5 C-3.03 49.54 -1.15 49.58 0.73 49.61 C3.44 49.66 6.16 49.71 8.87 49.77 C10.11 49.79 10.11 49.79 11.38 49.81 C18.23 49.98 25.05 50.19 30.5 54.62 C34.73 60.05 34.06 66.6 33.5 73.19 C31.96 78.54 29.28 82.23 24.5 85.19 C15.69 88.91 5.95 88.37 -3.44 88.38 C-4.66 88.39 -5.89 88.4 -7.15 88.41 C-23.98 88.44 -23.98 88.44 -30 83.81 C-33.76 79.86 -33.9 75.88 -33.86 70.57 C-33.04 65.1 -29.39 60.91 -25.5 57.19 C-26.16 56.57 -26.82 55.95 -27.5 55.31 C-30.29 50.96 -30.34 47.24 -29.5 42.19 C-27.69 39.25 -27.69 39.25 -25.5 37.19 C-24.92 36.59 -24.35 35.99 -23.75 35.38 C-23.13 34.79 -23.13 34.79 -22.5 34.19 C-22.97 33.61 -23.45 33.03 -23.94 32.44 C-26.81 28.31 -26.69 24.26 -26.75 19.31 C-26.79 17.52 -26.79 17.52 -26.83 15.7 C-26.36 10.7 -24.78 7.43 -21.19 3.94 C-14.44 -0.46 -7.8 -0.09 0 0 Z " fill="#1D3258" transform="translate(632.5,565.8125)"/>
<path d="M0 0 C0.69 -0.02 1.37 -0.03 2.08 -0.05 C6.8 -0.05 10.01 0.8 14 3.31 C17.29 7.58 19.11 11.01 19.16 16.4 C19.17 17.22 19.18 18.03 19.19 18.88 C19.19 19.76 19.2 20.64 19.2 21.55 C19.21 22.46 19.21 23.37 19.22 24.31 C19.23 26.24 19.24 28.17 19.24 30.1 C19.25 33.04 19.28 35.98 19.31 38.91 C19.32 40.79 19.32 42.67 19.33 44.55 C19.34 45.42 19.35 46.29 19.37 47.19 C19.34 54.03 18.13 58.72 13.69 64.12 C7.76 68.95 1.35 68.93 -6 68.31 C-13.54 67.01 -19.04 64.79 -26 61.31 C-26.33 67.91 -26.66 74.51 -27 81.31 C-23.37 81.31 -19.74 81.31 -16 81.31 C-16 83.62 -16 85.93 -16 88.31 C-26.23 88.31 -36.46 88.31 -47 88.31 C-47 82.31 -47 82.31 -46 81.31 C-43.03 81.31 -40.06 81.31 -37 81.31 C-37 57.55 -37 33.79 -37 9.31 C-39.97 9.31 -42.94 9.31 -46 9.31 C-46 6.67 -46 4.03 -46 1.31 C-39.73 1.31 -33.46 1.31 -27 1.31 C-26.67 3.95 -26.34 6.59 -26 9.31 C-25.2 8.83 -24.41 8.35 -23.59 7.85 C-22.53 7.22 -21.47 6.59 -20.38 5.94 C-19.33 5.31 -18.29 4.68 -17.21 4.04 C-11.44 0.94 -6.51 -0.03 0 0 Z " fill="#1A2F56" transform="translate(446,565.6875)"/>
<path d="M0 0 C6.93 0 13.86 0 21 0 C21 27.06 21 54.12 21 82 C24.3 82 27.6 82 31 82 C31.04 84.33 31.04 86.67 31 89 C30 90 30 90 28.14 90.11 C26.96 90.11 26.96 90.11 25.75 90.1 C24.89 90.09 24.04 90.09 23.16 90.09 C22.26 90.08 21.36 90.07 20.44 90.06 C19.54 90.06 18.63 90.05 17.71 90.05 C15.47 90.04 13.24 90.02 11 90 C11 86.7 11 83.4 11 80 C10.2 80.55 9.41 81.11 8.59 81.68 C7 82.77 7 82.77 5.38 83.88 C3.81 84.95 3.81 84.95 2.21 86.05 C-3.69 89.63 -8.76 90.36 -15.5 90.38 C-16.23 90.4 -16.97 90.42 -17.72 90.45 C-22.94 90.48 -25.86 89.43 -30 86 C-33.57 81.37 -35.09 77.78 -35.18 72 C-35.19 71.23 -35.2 70.45 -35.22 69.65 C-35.22 68.82 -35.23 67.99 -35.24 67.14 C-35.25 66.28 -35.25 65.41 -35.26 64.52 C-35.28 62.7 -35.29 60.87 -35.3 59.05 C-35.31 57.19 -35.33 55.33 -35.36 53.47 C-35.4 50.78 -35.42 48.09 -35.43 45.39 C-35.44 44.57 -35.46 43.75 -35.48 42.9 C-35.46 37.15 -34.23 32.8 -31 28 C-23.78 21.3 -15.76 22.46 -6.39 22.8 C-1.77 23.18 2.02 24.73 6 27 C7.32 27.66 8.64 28.32 10 29 C10.33 21.74 10.66 14.48 11 7 C7.7 7 4.4 7 1 7 C0.5 6.5 0.5 6.5 0 6 C0 4.02 0 2.04 0 0 Z " fill="#1A3056" transform="translate(611,674)"/>
<path d="M0 0 C7.67 -0.03 15.34 -0.04 23.02 -0.05 C25.63 -0.06 28.24 -0.07 30.85 -0.08 C34.6 -0.09 38.34 -0.09 42.09 -0.1 C43.27 -0.1 44.44 -0.11 45.65 -0.11 C46.73 -0.11 47.82 -0.11 48.93 -0.11 C49.89 -0.12 50.84 -0.12 51.83 -0.12 C54 0 54 0 55 1 C55.1 2.47 55.14 3.95 55.14 5.42 C55.15 6.37 55.16 7.31 55.16 8.28 C55.17 9.3 55.17 10.33 55.18 11.39 C55.2 13.54 55.22 15.7 55.25 17.86 C55.28 21.27 55.31 24.68 55.33 28.09 C55.34 31.38 55.38 34.66 55.43 37.95 C55.42 38.97 55.42 39.98 55.42 41.03 C55.52 46.99 56.06 50.43 60 55 C64.17 58.55 68.61 59.46 74 60 C75 61 75 61 75.12 64 C75 67 75 67 74 68 C71.94 68.12 69.88 68.16 67.82 68.18 C67.17 68.18 66.52 68.19 65.86 68.2 C63.71 68.22 61.57 68.23 59.42 68.24 C58.69 68.24 57.96 68.25 57.2 68.25 C53.33 68.27 49.45 68.29 45.57 68.3 C41.57 68.31 37.57 68.34 33.57 68.38 C30.49 68.41 27.41 68.41 24.33 68.42 C22.86 68.42 21.38 68.43 19.91 68.45 C17.84 68.48 15.77 68.48 13.7 68.47 C11.94 68.48 11.94 68.48 10.14 68.49 C6.33 67.9 4.69 66.71 2 64 C0.93 60.8 0.84 58.43 0.79 55.06 C0.77 53.84 0.75 52.62 0.73 51.36 C0.71 49.38 0.71 49.38 0.68 47.36 C0.66 46 0.64 44.64 0.62 43.27 C0.57 39.69 0.52 36.1 0.47 32.52 C0.42 28.86 0.36 25.2 0.31 21.54 C0.2 14.36 0.1 7.18 0 0 Z " fill="#FDFDFD" transform="translate(492,383)"/>
<path d="M0 0 C1 1 1 1 1.11 4.05 C1.11 5.4 1.11 6.75 1.1 8.1 C1.1 8.81 1.09 9.52 1.09 10.25 C1.09 12.52 1.08 14.79 1.06 17.06 C1.06 18.6 1.05 20.14 1.05 21.67 C1.04 25.45 1.02 29.22 1 33 C-20.01 44.13 -48.33 56.39 -72.5 49.75 C-77.62 47.97 -80.79 45.83 -83.81 41.25 C-85.8 35.81 -85.82 31.28 -83.56 26 C-77.04 14.44 -64.57 9.5 -52.43 5.96 C-35.41 1.31 -17.64 -1.1 0 0 Z " fill="#192F55" transform="translate(707,393)"/>
<path d="M0 0 C3.06 3.69 4 5.15 4 10 C4.94 9.31 4.94 9.31 5.91 8.61 C15.78 1.53 25.39 -4.17 38 -3 C43.17 -1.33 46.03 0.43 49 5 C49.98 7.93 50.12 9.79 50.11 12.84 C50.11 14.31 50.11 14.31 50.11 15.81 C50.11 16.87 50.1 17.92 50.1 19.01 C50.1 20.1 50.09 21.18 50.09 22.29 C50.09 25.76 50.08 29.22 50.06 32.69 C50.06 35.03 50.05 37.38 50.05 39.73 C50.04 45.49 50.02 51.24 50 57 C50.71 56.99 51.42 56.98 52.15 56.96 C53.07 56.96 53.99 56.95 54.94 56.94 C55.85 56.93 56.77 56.91 57.71 56.9 C60 57 60 57 61 58 C61.12 61 61.12 61 61 64 C60 65 60 65 58.05 65.11 C57.22 65.11 56.39 65.1 55.53 65.1 C54.63 65.09 53.73 65.09 52.8 65.09 C51.38 65.08 51.38 65.08 49.94 65.06 C48.51 65.06 48.51 65.06 47.06 65.05 C44.71 65.04 42.35 65.02 40 65 C39.99 64 39.99 64 39.99 62.98 C39.95 56.03 39.88 49.09 39.79 42.15 C39.76 39.56 39.74 36.96 39.73 34.37 C39.71 30.65 39.66 26.93 39.61 23.2 C39.61 22.04 39.61 20.88 39.61 19.69 C39.59 18.61 39.57 17.52 39.55 16.41 C39.54 15.46 39.53 14.51 39.52 13.53 C38.85 10.26 37.57 9.06 35 7 C25.82 4.48 18 8.88 10.18 13.15 C7.23 14.69 7.23 14.69 6 16 C5.84 19.03 5.74 22.04 5.68 25.07 C5.65 26.43 5.65 26.43 5.62 27.82 C5.56 30.73 5.5 33.65 5.44 36.56 C5.39 38.53 5.35 40.5 5.31 42.47 C5.2 47.32 5.1 52.16 5 57 C8.3 57 11.6 57 15 57 C15 59.64 15 62.28 15 65 C8.4 65 1.8 65 -5 65 C-5.03 62.62 -5.03 62.62 -5.06 60.2 C-5.14 54.32 -5.22 48.45 -5.32 42.58 C-5.36 40.03 -5.39 37.49 -5.42 34.95 C-5.47 31.29 -5.53 27.64 -5.59 23.98 C-5.6 22.85 -5.61 21.71 -5.62 20.53 C-5.64 19.47 -5.66 18.41 -5.68 17.32 C-5.69 16.39 -5.71 15.45 -5.72 14.49 C-6.02 11.86 -6.58 10.22 -8 8 C-12.73 5.64 -19.55 6.3 -24.51 7.72 C-26.78 8.7 -28.86 9.75 -31 11 C-31.64 11.3 -32.28 11.59 -32.94 11.89 C-37.27 14.07 -37.27 14.07 -39.74 18.03 C-40.02 20.54 -40.06 22.94 -40 25.46 C-40.02 26.81 -40.02 26.81 -40.03 28.19 C-40.06 31.07 -40.03 33.94 -40 36.81 C-40.01 38.76 -40.02 40.72 -40.04 42.67 C-40.06 47.45 -40.05 52.22 -40 57 C-39.36 56.99 -38.72 56.98 -38.07 56.96 C-37.24 56.96 -36.41 56.95 -35.56 56.94 C-34.74 56.93 -33.92 56.91 -33.07 56.9 C-31 57 -31 57 -30 58 C-29.88 61 -29.88 61 -30 64 C-31.83 65.83 -34.73 65.13 -37.19 65.13 C-38.44 65.13 -39.7 65.14 -40.99 65.14 C-41.65 65.13 -42.31 65.13 -42.98 65.13 C-44.99 65.13 -47 65.13 -49.01 65.14 C-50.26 65.14 -51.52 65.13 -52.81 65.13 C-53.97 65.13 -55.14 65.13 -56.33 65.13 C-59 65 -59 65 -60 64 C-60.04 61.67 -60.04 59.33 -60 57 C-56.7 57 -53.4 57 -50 57 C-50 40.5 -50 24 -50 7 C-52.97 6.67 -55.94 6.34 -59 6 C-59 3.69 -59 1.38 -59 -1 C-52.73 -1 -46.46 -1 -40 -1 C-40 2.3 -40 5.6 -40 9 C-39.11 8.39 -38.21 7.77 -37.29 7.14 C-26.06 -0.44 -13.18 -7.75 0 0 Z " fill="#1C3157" transform="translate(384,699)"/>
<path d="M0 0 C10.56 0 21.12 0 32 0 C32 2.64 32 5.28 32 8 C28.7 8 25.4 8 22 8 C22 18.56 22 29.12 22 40 C28.93 40 35.86 40 43 40 C43.66 38.68 44.32 37.36 45 36 C45.83 34.73 46.69 33.48 47.57 32.24 C48.32 31.19 48.32 31.19 49.09 30.11 C49.62 29.37 50.14 28.63 50.69 27.88 C51.77 26.35 52.85 24.83 53.93 23.31 C54.46 22.57 54.98 21.84 55.52 21.08 C57.45 18.37 59.35 15.66 61.25 12.94 C62.06 11.78 62.06 11.78 62.89 10.59 C63.26 10.07 63.62 9.54 64 9 C61.36 8.67 58.72 8.34 56 8 C56 5.36 56 2.72 56 0 C66.23 0 76.46 0 87 0 C87 2.64 87 5.28 87 8 C85.74 8.04 85.74 8.04 84.45 8.08 C83.35 8.13 82.25 8.19 81.12 8.25 C80.03 8.3 78.94 8.34 77.82 8.39 C74.96 8.67 74.96 8.67 73.93 10.59 C73.47 11.78 73.47 11.78 73 13 C72.27 14.15 71.52 15.28 70.75 16.4 C70.31 17.04 69.87 17.67 69.42 18.33 C68.72 19.34 68.72 19.34 68 20.38 C67.52 21.08 67.04 21.78 66.54 22.5 C64.1 26.06 61.6 29.56 58.98 32.99 C58.28 33.92 58.28 33.92 57.56 34.88 C56.66 36.06 55.75 37.23 54.82 38.39 C53.43 40.17 53.43 40.17 52 43 C52.81 47.46 55.96 50.97 58.62 54.56 C61.95 59.13 65.2 63.72 68.31 68.44 C69.29 69.88 69.29 69.88 70.28 71.36 C72 74 72 74 73.22 76.27 C74.38 78.48 74.38 78.48 77 81 C80.68 81.86 84.23 82.05 88 82 C88 84.64 88 87.28 88 90 C77.44 90 66.88 90 56 90 C56 87.36 56 84.72 56 82 C58.64 82 61.28 82 64 82 C60.02 74.87 55.86 68.08 50.85 61.62 C49 59 49 59 47.9 56.35 C46.64 53.48 45.38 52.03 43 50 C40.59 49.3 40.59 49.3 37.96 49.22 C37.1 49.16 36.24 49.09 35.36 49.03 C30.91 48.9 26.45 48.97 22 49 C22 59.89 22 70.78 22 82 C25.3 82 28.6 82 32 82 C32 84.64 32 87.28 32 90 C21.44 90 10.88 90 0 90 C0 87.36 0 84.72 0 82 C3.63 82 7.26 82 11 82 C11 57.58 11 33.16 11 8 C7.7 8 4.4 8 1 8 C0.67 7.67 0.34 7.34 0 7 C0 4.69 0 2.38 0 0 Z " fill="#1D3258" transform="translate(170,543)"/>
<path d="M0 0 C0.9 -0.02 1.8 -0.03 2.72 -0.05 C9.75 -0.05 16.36 0.7 22.03 5.14 C22.55 5.8 23.08 6.45 23.62 7.12 C24.17 7.77 24.72 8.42 25.28 9.08 C31.13 18.34 28.69 26.86 28.69 38.31 C12.85 38.31 -2.99 38.31 -19.31 38.31 C-18.96 47.78 -18.96 47.78 -15.31 55.31 C-8.8 60.55 -2.41 60.96 5.69 60.31 C10.63 59.39 14.29 58.29 17.31 54.12 C19.69 51.31 19.69 51.31 23.5 50.94 C25.08 51.12 25.08 51.12 26.69 51.31 C27.1 55.47 27.23 57.58 24.69 61 C14.41 68.92 3.24 69.32 -9.31 68.31 C-15.74 67.09 -21.25 64.87 -25.16 59.43 C-29.66 51.14 -29.6 42.35 -29.69 33.12 C-29.7 32.1 -29.72 31.08 -29.73 30.03 C-29.67 21.11 -28.06 13.37 -22.31 6.31 C-15.2 0.75 -8.73 -0.03 0 0 Z " fill="#1D3258" transform="translate(863.3125,565.6875)"/>
<path d="M0 0 C0.98 -0.03 1.96 -0.06 2.97 -0.09 C11.26 -0.11 17.9 2.1 24.12 7.69 C29.79 17.88 28.69 26.16 28.69 38.5 C12.85 38.5 -2.99 38.5 -19.31 38.5 C-19.08 48.52 -19.08 48.52 -15.31 56.5 C-9.34 61.18 -1.6 61.09 5.69 60.5 C8.93 59.9 11.81 59.12 14.69 57.5 C15.39 56.45 16.09 55.4 16.81 54.31 C17.43 53.38 18.05 52.46 18.69 51.5 C22.38 51.06 22.38 51.06 25.69 51.5 C26.69 52.5 26.69 52.5 27.25 55.12 C26.49 59.66 24.6 61.18 21.06 63.95 C11.38 70.27 -2.49 70.09 -13.55 67.84 C-20.77 65.3 -24.62 60.92 -27.95 54.2 C-30.2 47.89 -29.79 41.23 -29.75 34.62 C-29.77 33.31 -29.79 32 -29.81 30.65 C-29.81 22.31 -29.41 14.12 -23.62 7.6 C-16.57 0.93 -9.34 -0.02 0 0 Z " fill="#1C3258" transform="translate(291.3125,565.5)"/>
<path d="M0 0 C0.9 -0.02 1.8 -0.03 2.72 -0.05 C9.75 -0.05 16.36 0.7 22.03 5.14 C22.55 5.8 23.08 6.45 23.62 7.12 C24.17 7.77 24.72 8.42 25.28 9.08 C31.13 18.34 28.69 26.86 28.69 38.31 C12.85 38.31 -2.99 38.31 -19.31 38.31 C-18.34 49.77 -18.34 49.77 -12.25 58.1 C-7.94 59.88 -3.93 59.75 0.69 59.69 C2.02 59.7 2.02 59.7 3.38 59.72 C8.28 59.7 11.76 59.56 15.69 56.31 C16.31 55.43 16.93 54.54 17.56 53.62 C19.69 51.31 19.69 51.31 23.44 51 C24.51 51.1 25.58 51.21 26.69 51.31 C27.11 54.39 27.36 56.35 26.69 59.31 C22.3 64.72 15.39 67.28 8.69 68.31 C-2.08 69.22 -12.26 69.01 -21.69 63.25 C-28.71 55.39 -28.98 46.06 -28.89 36.01 C-28.88 33.82 -28.91 31.63 -28.95 29.43 C-28.99 21.23 -28.37 14.14 -23.31 7.31 C-16.5 0.85 -9.07 -0.03 0 0 Z " fill="#1C3257" transform="translate(361.3125,565.6875)"/>
<path d="M0 0 C0.71 0 1.41 0 2.14 0.01 C3.25 0 3.25 0 4.38 0 C6.84 -0 9.29 -0 11.75 0 C13.45 0 15.15 0 16.85 -0 C20.42 -0 23.99 0 27.55 0.01 C32.14 0.01 36.72 0.01 41.31 0 C44.82 -0 48.33 -0 51.84 0 C53.53 0 55.22 0 56.91 -0 C59.27 -0 61.63 0 63.99 0.01 C64.69 0 65.4 0 66.13 0 C70.95 0.02 70.95 0.02 72.06 1.14 C72.06 11.04 72.06 20.94 72.06 31.14 C46.32 31.14 20.58 31.14 -5.94 31.14 C-5.94 0.03 -5.94 0.03 0 0 Z " fill="#1B3157" transform="translate(486.9363708496094,329.8644714355469)"/>
<path d="M0 0 C0.69 -0 1.37 -0.01 2.08 -0.01 C4.37 -0.02 6.66 -0.02 8.94 -0.02 C10.54 -0.03 12.14 -0.03 13.73 -0.03 C17.1 -0.04 20.46 -0.04 23.82 -0.04 C28.09 -0.04 32.36 -0.05 36.62 -0.07 C39.93 -0.08 43.24 -0.08 46.55 -0.08 C48.12 -0.08 49.69 -0.09 51.26 -0.1 C64.45 -0.16 78 0.11 90.56 4.52 C91.74 4.92 92.92 5.32 94.13 5.73 C98.56 7.62 103.56 10.15 106.44 14.15 C106.69 16.77 106.69 16.77 106.44 19.15 C105.44 20.15 105.44 20.15 103.55 20.27 C102.72 20.27 101.89 20.27 101.03 20.27 C100.08 20.27 99.12 20.27 98.14 20.27 C97.09 20.27 96.04 20.26 94.95 20.26 C93.85 20.26 92.75 20.26 91.61 20.26 C87.95 20.26 84.29 20.25 80.62 20.24 C78.09 20.24 75.56 20.24 73.03 20.24 C67.03 20.24 61.03 20.23 55.04 20.22 C48.21 20.21 41.39 20.2 34.57 20.2 C20.52 20.19 6.48 20.17 -7.56 20.15 C-7.59 17 -7.61 13.85 -7.62 10.71 C-7.63 9.81 -7.64 8.91 -7.65 7.99 C-7.65 7.13 -7.66 6.28 -7.66 5.4 C-7.67 4.21 -7.67 4.21 -7.67 3 C-7.41 -1.3 -3.47 0.01 0 0 Z " fill="#FEFEFE" transform="translate(309.560791015625,407.854736328125)"/>
<path d="M0 0 C1.02 -0.03 1.02 -0.03 2.07 -0.07 C7.13 -0.04 9.97 1.29 13.88 4.44 C17.9 10.18 17.01 18.17 16.97 24.87 C16.97 25.86 16.97 26.85 16.97 27.87 C16.96 31.02 16.95 34.16 16.94 37.31 C16.93 39.45 16.93 41.59 16.92 43.73 C16.91 48.97 16.9 54.2 16.88 59.44 C20.17 59.44 23.48 59.44 26.88 59.44 C26.88 62.08 26.88 64.72 26.88 67.44 C20.27 67.44 13.67 67.44 6.88 67.44 C6.85 65.96 6.82 64.48 6.8 62.96 C6.7 57.46 6.6 51.96 6.5 46.46 C6.46 44.08 6.42 41.71 6.38 39.33 C6.32 35.9 6.26 32.48 6.19 29.06 C6.17 28 6.16 26.94 6.14 25.85 C6.04 20.62 5.77 15.59 4.88 10.44 C-4.02 8.07 -12.07 9.1 -20.12 13.44 C-20.88 13.69 -21.63 13.95 -22.4 14.21 C-25.52 15.6 -27.05 16.68 -29.12 19.44 C-30.84 26 -30.29 33.09 -30.19 39.81 C-30.19 41.71 -30.2 43.61 -30.21 45.51 C-30.23 50.15 -30.19 54.79 -30.12 59.44 C-26.83 59.44 -23.52 59.44 -20.12 59.44 C-20.08 61.77 -20.08 64.1 -20.12 66.44 C-21.12 67.44 -21.12 67.44 -23.81 67.55 C-24.98 67.55 -26.14 67.54 -27.35 67.54 C-29.24 67.53 -29.24 67.53 -31.17 67.53 C-32.51 67.52 -33.85 67.51 -35.19 67.5 C-36.53 67.49 -37.88 67.49 -39.22 67.49 C-42.52 67.47 -45.82 67.46 -49.12 67.44 C-49.12 64.8 -49.12 62.16 -49.12 59.44 C-46.15 59.44 -43.18 59.44 -40.12 59.44 C-40.12 42.94 -40.12 26.44 -40.12 9.44 C-42.76 9.44 -45.4 9.44 -48.12 9.44 C-48.46 9.11 -48.78 8.78 -49.12 8.44 C-49.12 6.13 -49.12 3.82 -49.12 1.44 C-42.86 1.44 -36.59 1.44 -30.12 1.44 C-30.12 5.07 -30.12 8.7 -30.12 12.44 C-28.75 11.52 -28.75 11.52 -27.34 10.57 C-18.07 4.43 -11.39 0.27 0 0 Z " fill="#1D3258" transform="translate(564.125,565.5625)"/>
<path d="M0 0 C3.91 4.11 5.13 7.24 5.11 12.84 C5.11 14.31 5.11 14.31 5.11 15.81 C5.11 16.87 5.1 17.92 5.1 19.01 C5.1 20.1 5.09 21.18 5.09 22.29 C5.09 25.76 5.08 29.22 5.06 32.69 C5.06 35.03 5.05 37.38 5.05 39.73 C5.04 45.49 5.02 51.24 5 57 C8.3 57 11.6 57 15 57 C15 59.64 15 62.28 15 65 C8.4 65 1.8 65 -5 65 C-5.01 63.39 -5.02 61.77 -5.03 60.11 C-5.07 54.12 -5.13 48.13 -5.21 42.15 C-5.24 39.56 -5.26 36.96 -5.27 34.37 C-5.29 30.65 -5.34 26.93 -5.39 23.2 C-5.39 22.04 -5.39 20.88 -5.39 19.69 C-5.41 18.61 -5.43 17.52 -5.45 16.41 C-5.46 15.46 -5.47 14.51 -5.48 13.53 C-6.15 10.26 -7.42 9.06 -10 7 C-18.59 5.12 -26.47 7.99 -34 12 C-35.03 12.5 -36.06 13 -37.12 13.51 C-40.21 16.18 -40.43 16.44 -40.77 20.22 C-40.81 21.93 -40.82 23.65 -40.8 25.36 C-40.82 26.26 -40.83 27.17 -40.85 28.1 C-40.88 30.98 -40.88 33.87 -40.88 36.75 C-40.89 38.71 -40.91 40.66 -40.94 42.62 C-40.99 47.41 -41 52.21 -41 57 C-38.03 57 -35.06 57 -32 57 C-32 59.64 -32 62.28 -32 65 C-41.57 65 -51.14 65 -61 65 C-61 62.36 -61 59.72 -61 57 C-58.03 57 -55.06 57 -52 57 C-51.67 40.5 -51.34 24 -51 7 C-53.97 6.67 -56.94 6.34 -60 6 C-60 3.69 -60 1.38 -60 -1 C-54.06 -1 -48.12 -1 -42 -1 C-42 2.63 -42 6.26 -42 10 C-41.14 9.4 -40.28 8.79 -39.39 8.17 C-27.74 0.21 -13.73 -7.66 0 0 Z " fill="#1D3358" transform="translate(269,699)"/>
<path d="M0 0 C0.73 -0.02 1.46 -0.04 2.21 -0.06 C7.36 -0.06 10.54 0.81 14.44 4.44 C17.52 10.91 17.84 16.41 17.73 23.5 C17.73 24.53 17.72 25.56 17.72 26.63 C17.7 29.9 17.66 33.17 17.62 36.44 C17.61 38.67 17.6 40.89 17.58 43.12 C17.55 48.56 17.5 54 17.44 59.44 C20.74 59.44 24.04 59.44 27.44 59.44 C27.44 61.75 27.44 64.06 27.44 66.44 C20.84 66.44 14.24 66.44 7.44 66.44 C7.41 64.27 7.41 64.27 7.38 62.05 C7.3 56.66 7.21 51.27 7.12 45.89 C7.08 43.56 7.05 41.23 7.02 38.9 C6.97 35.55 6.91 32.19 6.85 28.84 C6.84 27.8 6.83 26.77 6.82 25.7 C6.71 20.29 6.49 15.48 4.44 10.44 C-3.2 7.89 -9.86 8.76 -16.98 12.25 C-19.06 13.34 -21.13 14.46 -23.19 15.59 C-26.56 17.44 -26.56 17.44 -29.56 18.44 C-29.56 31.97 -29.56 45.5 -29.56 59.44 C-26.26 59.44 -22.96 59.44 -19.56 59.44 C-19.52 61.77 -19.52 64.1 -19.56 66.44 C-21.39 68.27 -24.29 67.57 -26.75 67.57 C-28.01 67.57 -29.26 67.57 -30.55 67.57 C-31.21 67.57 -31.87 67.57 -32.55 67.57 C-34.55 67.56 -36.56 67.57 -38.57 67.57 C-39.83 67.57 -41.08 67.57 -42.38 67.57 C-43.54 67.57 -44.7 67.57 -45.89 67.57 C-48.56 67.44 -48.56 67.44 -49.56 66.44 C-49.69 63.44 -49.69 63.44 -49.56 60.44 C-49.07 59.94 -49.07 59.94 -48.56 59.44 C-45.59 59.44 -42.62 59.44 -39.56 59.44 C-39.56 42.94 -39.56 26.44 -39.56 9.44 C-42.53 9.11 -45.5 8.78 -48.56 8.44 C-48.56 6.13 -48.56 3.82 -48.56 1.44 C-42.29 1.44 -36.02 1.44 -29.56 1.44 C-29.23 4.74 -28.9 8.04 -28.56 11.44 C-27.28 10.62 -27.28 10.62 -25.96 9.79 C-24.81 9.07 -23.66 8.35 -22.5 7.62 C-21.94 7.27 -21.38 6.91 -20.8 6.54 C-13.95 2.28 -8.1 -0.08 0 0 Z " fill="#1C3157" transform="translate(539.5625,696.5625)"/>
<path d="M0 0 C1.12 -0.03 2.24 -0.05 3.4 -0.08 C7.1 0.3 8.79 0.85 11.62 3.25 C14.15 8.19 15.01 11.85 15.02 17.47 C15.03 18.13 15.03 18.79 15.03 19.47 C15.03 20.86 15.03 22.25 15.02 23.64 C15 25.75 15.02 27.85 15.04 29.96 C15.03 31.32 15.03 32.67 15.02 34.03 C15.02 35.25 15.02 36.47 15.01 37.72 C14.45 42.88 12.98 46.79 9.39 50.66 C3.45 54.08 -4.96 53.14 -11.44 51.45 C-13.87 50.51 -16.11 49.54 -18.38 48.25 C-19.07 47.9 -19.76 47.54 -20.47 47.18 C-22.88 44.74 -22.88 42.88 -22.96 39.52 C-22.95 38.76 -22.95 38.01 -22.94 37.22 C-22.95 36.44 -22.95 35.65 -22.96 34.84 C-22.97 33.18 -22.96 31.52 -22.95 29.86 C-22.94 27.32 -22.97 24.79 -23.01 22.25 C-23.01 20.64 -23.01 19.02 -23 17.41 C-23.02 16.65 -23.03 15.9 -23.04 15.12 C-22.98 11.25 -22.74 9.61 -19.97 6.82 C-17.75 5.48 -15.58 4.18 -13.25 3.06 C-12.59 2.74 -11.92 2.42 -11.24 2.08 C-7.37 0.36 -4.21 0.06 0 0 Z " fill="#FCFDFD" transform="translate(441.375,573.75)"/>
<path d="M0 0 C0.76 0 1.51 0.01 2.29 0.01 C9.83 0.21 15.62 2.26 21.88 6.44 C22.27 9.2 22.46 11.74 22.52 14.52 C22.54 15.32 22.56 16.12 22.58 16.95 C22.61 18.66 22.64 20.36 22.65 22.07 C22.69 24.67 22.79 27.26 22.9 29.86 C23.17 41.97 23.17 41.97 19.71 45.9 C17.12 47.47 14.76 48.52 11.88 49.44 C10.76 49.89 9.65 50.35 8.5 50.81 C-3.69 52.91 -3.69 52.91 -9.16 50.56 C-13.07 47.64 -14.35 44.05 -15.12 39.44 C-15.43 34.98 -15.45 30.53 -15.44 26.06 C-15.45 24.88 -15.47 23.7 -15.49 22.48 C-15.49 14.96 -15.44 7.45 -10.45 1.4 C-7 -0.03 -3.67 -0.05 0 0 Z " fill="#FDFDFD" transform="translate(600.125,704.5625)"/>
<path d="M0 0 C0.76 0 1.52 0 2.3 0.01 C10.58 0.09 18.75 0.84 26.97 1.79 C27.74 1.88 28.52 1.96 29.32 2.05 C50.66 4.51 71.29 8.05 89.47 20.16 C89.47 20.82 89.47 21.48 89.47 22.16 C56.8 22.16 24.13 22.16 -9.53 22.16 C-9.53 15.23 -9.53 8.3 -9.53 1.16 C-6.49 -0.36 -3.34 -0.01 0 0 Z " fill="#FCFCFD" transform="translate(311.53125,351.8359375)"/>
<path d="M0 0 C0 1.98 0 3.96 0 6 C-3.94 7.65 -7.92 8.92 -12.01 10.12 C-14.35 10.94 -14.35 10.94 -16 14 C-16.46 16.97 -16.46 16.97 -16.62 20.19 C-16.75 22.11 -16.87 24.02 -17 26 C-10.4 26 -3.8 26 3 26 C3 28.64 3 31.28 3 34 C-3.6 34 -10.2 34 -17 34 C-17 50.5 -17 67 -17 84 C-13.37 84 -9.74 84 -6 84 C-5 85 -5 85 -5 92 C-15.56 92 -26.12 92 -37 92 C-37 85 -37 85 -36 84 C-33.03 84 -30.06 84 -27 84 C-27 67.5 -27 51 -27 34 C-30.3 34 -33.6 34 -37 34 C-37 31.69 -37 29.38 -37 27 C-33.7 27 -30.4 27 -27 27 C-27.03 26.06 -27.07 25.12 -27.11 24.15 C-27.13 22.9 -27.16 21.66 -27.19 20.38 C-27.22 19.15 -27.26 17.92 -27.29 16.65 C-26.89 11.68 -25.34 8.42 -21.94 4.81 C-15 0.53 -8.02 -0.39 0 0 Z " fill="#1E3358" transform="translate(824,541)"/>
<path d="M0 0 C6.27 0 12.54 0 19 0 C19 27.06 19 54.12 19 82 C21.97 82 24.94 82 28 82 C29 83 29 83 29.12 86 C29 89 29 89 28 90 C25.85 90.09 23.71 90.11 21.56 90.1 C20.25 90.09 18.95 90.09 17.6 90.09 C16.21 90.08 14.83 90.07 13.44 90.06 C12.04 90.06 10.65 90.05 9.26 90.05 C5.84 90.04 2.42 90.02 -1 90 C-1.04 87.67 -1.04 85.33 -1 83 C-0.5 82.5 -0.5 82.5 0 82 C2.97 82 5.94 82 9 82 C9 57.58 9 33.16 9 8 C6.03 8 3.06 8 0 8 C0 5.36 0 2.72 0 0 Z " fill="#1B3057" transform="translate(711,543)"/>
<path d="M0 0 C0.82 0 1.65 0 2.49 0 C4.23 0.01 5.96 0.03 7.69 0.08 C10.34 0.14 12.98 0.14 15.62 0.13 C17.31 0.15 19 0.17 20.69 0.19 C21.87 0.19 21.87 0.19 23.07 0.19 C26.95 0.31 28.9 0.59 32.27 2.69 C34.88 5.46 34.95 7 34.9 10.76 C34.71 14.75 34.47 16.51 32.34 19.95 C24.29 24.88 14.65 24.16 5.53 24.14 C3.58 24.16 3.58 24.16 1.59 24.19 C0.33 24.19 -0.92 24.19 -2.21 24.19 C-3.34 24.19 -4.47 24.19 -5.64 24.2 C-9.08 23.78 -10.96 22.88 -13.72 20.82 C-14.97 18.33 -15.03 16.43 -15.16 13.64 C-15.25 12.25 -15.25 12.25 -15.34 10.84 C-13.62 2.45 -7.94 -0.24 0 0 Z " fill="#FCFDFD" transform="translate(622.72265625,623.17578125)"/>
<path d="M0 0 C1.27 -0 1.27 -0 2.56 -0.01 C4.56 0.12 4.56 0.12 5.56 1.12 C6.18 4.9 6.26 8.36 5.56 12.12 C3.45 14.92 0.77 15.89 -2.44 17.12 C-3.51 17.54 -4.57 17.96 -5.68 18.39 C-38.3 30.06 -38.3 30.06 -50.26 24.91 C-52.44 23.12 -52.44 23.12 -52.98 20.69 C-51.9 15.6 -47.51 12.99 -43.44 10.12 C-31.09 3.18 -14.12 -0.04 0 0 Z " fill="#FAFBFB" transform="translate(689.4375,404.875)"/>
<path d="M0 0 C6.27 0 12.54 0 19 0 C19 19.14 19 38.28 19 58 C21.97 58 24.94 58 28 58 C28 60.64 28 63.28 28 66 C18.43 66 8.86 66 -1 66 C-1 63.36 -1 60.72 -1 58 C3.45 57.5 3.45 57.5 8 57 C8.33 40.83 8.66 24.66 9 8 C6.36 8 3.72 8 1 8 C0.67 7.67 0.34 7.34 0 7 C0 4.69 0 2.38 0 0 Z " fill="#20355A" transform="translate(454,698)"/>
<path d="M0 0 C6.27 0 12.54 0 19 0 C19 19.14 19 38.28 19 58 C21.97 58 24.94 58 28 58 C28 60.64 28 63.28 28 66 C18.43 66 8.86 66 -1 66 C-1 63.36 -1 60.72 -1 58 C2.3 58 5.6 58 9 58 C9 41.5 9 25 9 8 C6.69 8 4.38 8 2 8 C1.34 7.67 0.68 7.34 0 7 C0 4.69 0 2.38 0 0 Z " fill="#1C3157" transform="translate(478,567)"/>
<path d="M0 0 C6.27 0 12.54 0 19 0 C19 19.14 19 38.28 19 58 C22.3 58 25.6 58 29 58 C29 60.64 29 63.28 29 66 C19.43 66 9.86 66 0 66 C0 63.36 0 60.72 0 58 C2.97 58 5.94 58 9 58 C9 41.5 9 25 9 8 C6.03 7.67 3.06 7.34 0 7 C0 4.69 0 2.38 0 0 Z " fill="#1B3157" transform="translate(171,698)"/>
<path d="M0 0 C0.77 -0.01 1.55 -0.02 2.34 -0.04 C7.63 -0.01 11.39 0.86 16.06 3.38 C19.22 7.76 19.8 12.09 19.06 17.38 C17.86 21.44 17.12 23.66 13.57 26.05 C8.96 27.79 4.94 27.85 0.06 27.81 C-0.81 27.83 -1.69 27.85 -2.59 27.87 C-8.19 27.87 -11.56 27.19 -15.94 23.38 C-18.18 18.9 -18.56 14.3 -17.94 9.38 C-16.65 5.59 -15.75 3.9 -12.38 1.73 C-8.09 0.04 -4.56 -0.07 0 0 Z " fill="#FBFBFC" transform="translate(632.9375,571.625)"/>
<path d="M0 0 C6.27 0 12.54 0 19 0 C19 19.14 19 38.28 19 58 C21.97 58 24.94 58 28 58 C29 59 29 59 29.12 62 C29 65 29 65 28 66 C25.93 66.09 23.85 66.11 21.78 66.1 C19.89 66.09 19.89 66.09 17.96 66.09 C16.62 66.08 15.28 66.07 13.94 66.06 C12.59 66.06 11.25 66.05 9.9 66.05 C6.6 66.04 3.3 66.02 0 66 C0 63.36 0 60.72 0 58 C2.97 58 5.94 58 9 58 C9 41.5 9 25 9 8 C6.03 7.67 3.06 7.34 0 7 C0 4.69 0 2.38 0 0 Z " fill="#1C3157" transform="translate(750,567)"/>
<path d="M0 0 C0.77 -0.02 1.54 -0.03 2.33 -0.05 C7.99 -0.01 11.44 1.08 16 4.5 C19 10.5 19 10.5 19 24.5 C6.13 24.5 -6.74 24.5 -20 24.5 C-20 8.91 -20 8.91 -16 4.5 C-10.58 0.67 -6.56 -0.13 0 0 Z " fill="#FCFDFD" transform="translate(362,572.5)"/>
<path d="M0 0 C0.78 -0.01 1.56 -0.01 2.37 -0.02 C7.3 0.03 10.73 0.75 15 3.44 C21.28 10.06 20 14.79 20 24.44 C7.13 24.44 -5.74 24.44 -19 24.44 C-19 8.44 -19 8.44 -15 4.44 C-9.94 0.28 -6.28 -0.16 0 0 Z " fill="#FCFDFD" transform="translate(291,572.5625)"/>
<path d="M0 0 C0.73 -0.01 1.47 -0.02 2.22 -0.04 C7.03 -0.01 10.33 0.76 14.5 3.38 C21.22 10.82 19.5 11.99 19.5 24.38 C6.63 24.38 -6.24 24.38 -19.5 24.38 C-19.5 9.93 -19.5 9.93 -16.18 4.96 C-11.31 0.36 -6.34 -0.1 0 0 Z " fill="#FDFDFD" transform="translate(863.5,572.625)"/>
<path d="M0 0 C1.04 -0 2.08 -0.01 3.14 -0.01 C4.84 -0.01 4.84 -0.01 6.57 -0 C7.72 -0 8.87 -0.01 10.05 -0.01 C12.49 -0.01 14.93 -0.01 17.37 -0 C21.11 0 24.86 -0 28.61 -0.01 C30.97 -0.01 33.33 -0.01 35.69 -0 C36.82 -0.01 37.95 -0.01 39.11 -0.01 C40.15 -0.01 41.19 -0 42.26 0 C43.18 0 44.09 0 45.04 0 C47.13 0.13 47.13 0.13 48.13 1.13 C48.25 4.63 48.25 4.63 48.13 8.13 C47.13 9.13 47.13 9.13 45 9.25 C44.06 9.25 43.12 9.25 42.15 9.24 C41.09 9.24 40.03 9.24 38.93 9.24 C37.2 9.23 37.2 9.23 35.44 9.23 C34.26 9.23 33.09 9.22 31.88 9.22 C28.11 9.22 24.34 9.2 20.57 9.19 C18.02 9.19 15.47 9.18 12.92 9.18 C6.66 9.17 0.39 9.15 -5.87 9.13 C-5.97 2.98 -5.97 2.98 -5.87 1.13 C-4.22 -0.52 -2.28 0 0 0 Z " fill="#FDFDFD" transform="translate(498.87109375,340.87060546875)"/>
<path d="M0 0 C1.88 1.12 1.88 1.12 3 3 C3.39 6.15 3.53 8.12 1.88 10.88 C-0.88 12.53 -2.85 12.39 -6 12 C-7.88 10.88 -7.88 10.88 -9 9 C-9.39 5.85 -9.53 3.88 -7.88 1.12 C-5.12 -0.53 -3.15 -0.39 0 0 Z " fill="#1B3157" transform="translate(660,752)"/>
<path d="M0 0 C3 1.15 4 2.07 5.44 4.94 C5.31 7.56 5.31 7.56 4.44 9.94 C1.44 11.94 1.44 11.94 -2.12 11.75 C-5.56 10.94 -5.56 10.94 -7.56 7.94 C-7.41 4.79 -6.97 3.38 -4.81 1.06 C-2.56 -0.06 -2.56 -0.06 0 0 Z " fill="#24385D" transform="translate(492.5625,543.0625)"/>
<path d="M0 0 C2 3 2 3 1.81 6.06 C1 9 1 9 -2 11 C-7.44 10.56 -7.44 10.56 -10 8 C-10.38 5.06 -10.38 5.06 -10 2 C-6.96 -1.62 -4.33 -1.32 0 0 Z " fill="#20355A" transform="translate(189,675)"/>
<path d="M0 0 C2.97 1.14 3.99 2.12 5.44 4.94 C5.35 7.77 4.65 8.71 2.69 10.75 C0.44 11.94 0.44 11.94 -2.12 11.81 C-4.77 10.86 -6.04 10.31 -7.56 7.94 C-7.48 4.77 -6.98 3.39 -4.81 1.06 C-2.56 -0.06 -2.56 -0.06 0 0 Z " fill="#22375C" transform="translate(468.5625,674.0625)"/>
<path d="M0 0 C3.56 0.31 3.56 0.31 5.5 1.5 C6.97 4 7.06 5.46 6.56 8.31 C4.43 10.6 3.09 11.24 0 11.69 C-2.44 11.31 -2.44 11.31 -4.25 10.19 C-5.97 7.48 -5.77 5.45 -5.44 2.31 C-3.44 0.31 -3.44 0.31 0 0 Z " fill="#1E3359" transform="translate(763.4375,543.6875)"/>
</svg>
