<?xml version="1.0" encoding="UTF-8"?>
<svg version="1.1" xmlns="http://www.w3.org/2000/svg" width="1080" height="1080">
<path d="M0 0 C11.09788513 7.19473914 16.72771945 18.62333816 19.625 31.25 C22.52091628 48.22047443 21.44814013 67.54022164 11.625 82.25 C2.78008407 93.60266987 -8.42862272 102.28585136 -22.875 104.96875 C-39.0601903 106.78958391 -51.41358288 102.78833912 -65.375 95.25 C-66.60400462 96.25746419 -66.60400462 96.25746419 -66.49525452 98.30641174 C-66.49303391 99.21020065 -66.49081329 100.11398956 -66.48852539 101.04516602 C-66.48841209 102.57664024 -66.48841209 102.57664024 -66.48829651 104.13905334 C-66.48313522 105.2494548 -66.47797394 106.35985626 -66.47265625 107.50390625 C-66.4712413 108.63448959 -66.46982635 109.76507294 -66.46836853 110.92991638 C-66.46275019 114.55747065 -66.45019458 118.18496424 -66.4375 121.8125 C-66.43248736 124.26497307 -66.42792405 126.7174471 -66.42382812 129.16992188 C-66.4127748 135.19663813 -66.39549788 141.22330876 -66.375 147.25 C-73.635 147.25 -80.895 147.25 -88.375 147.25 C-88.375 97.42 -88.375 47.59 -88.375 -3.75 C-82.435 -3.75 -76.495 -3.75 -70.375 -3.75 C-68.71157163 -2.08657163 -69.01451903 0.0325709 -68.8125 2.3125 C-68.68681641 3.69115234 -68.68681641 3.69115234 -68.55859375 5.09765625 C-68.49800781 5.80792969 -68.43742188 6.51820313 -68.375 7.25 C-67.59898437 6.73050781 -66.82296875 6.21101563 -66.0234375 5.67578125 C-45.60698326 -7.50476975 -22.18541669 -12.17370691 0 0 Z M-62.375 20.25 C-63.07239792 20.67053146 -63.76979584 21.09106293 -64.48832703 21.52433777 C-66.5850942 23.11191963 -66.5850942 23.11191963 -66.9165802 25.65840149 C-66.9348436 26.61071152 -66.95310699 27.56302155 -66.97192383 28.54418945 C-67.00067093 29.62573807 -67.02941803 30.70728668 -67.05903625 31.8216095 C-67.0666246 32.99036118 -67.07421295 34.15911285 -67.08203125 35.36328125 C-67.09771652 36.56558884 -67.11340179 37.76789642 -67.12956238 39.00663757 C-67.15421533 41.55276465 -67.16777262 44.09901948 -67.17114258 46.64526367 C-67.1873996 50.53845572 -67.27283135 54.42622703 -67.36132812 58.31835938 C-67.37666277 60.79164389 -67.38786589 63.26495818 -67.39453125 65.73828125 C-67.4284346 66.90096024 -67.46233795 68.06363922 -67.49726868 69.2615509 C-67.52861281 75.35357981 -67.52861281 75.35357981 -64.40544128 80.30738831 C-62.11678991 81.85968329 -59.88828698 83.10374063 -57.375 84.25 C-55.92673828 84.95576172 -55.92673828 84.95576172 -54.44921875 85.67578125 C-53.66160156 85.96839844 -52.87398437 86.26101563 -52.0625 86.5625 C-50.86173828 87.02076172 -50.86173828 87.02076172 -49.63671875 87.48828125 C-40.50713769 90.56301062 -30.62512838 90.08659673 -21.8359375 86.09765625 C-11.94123713 80.70190575 -6.77173297 72.82370102 -3.375 62.25 C-1.97454678 57.41773038 -2.15154241 52.62160867 -2.125 47.625 C-2.104375 46.67753906 -2.08375 45.73007812 -2.0625 44.75390625 C-2.00028241 33.38364089 -5.03578301 23.71338483 -13.0625 15.5 C-29.37518963 3.31710521 -47.29973618 9.71930517 -62.375 20.25 Z " fill="#2A2928" transform="translate(883.375,445.75)"/>
<path d="M0 0 C10.14862208 7.71008391 15.45111008 19.3924901 17.7421875 31.70703125 C20.1909006 49.77092807 18.46926662 68.50960516 7.13671875 83.40625 C-2.44128859 94.47194085 -13.05446203 101.41282589 -27.7890625 103.6796875 C-44.34350938 104.75438318 -53.64321058 100.75747519 -68.7890625 92.6796875 C-68.7890625 110.1696875 -68.7890625 127.6596875 -68.7890625 145.6796875 C-76.0490625 145.6796875 -83.3090625 145.6796875 -90.7890625 145.6796875 C-90.7890625 95.8496875 -90.7890625 46.0196875 -90.7890625 -5.3203125 C-84.5190625 -5.3203125 -78.2490625 -5.3203125 -71.7890625 -5.3203125 C-71.1290625 -1.6903125 -70.4690625 1.9396875 -69.7890625 5.6796875 C-68.5721875 4.8134375 -67.3553125 3.9471875 -66.1015625 3.0546875 C-45.94143074 -10.36420146 -21.02120444 -13.67398736 0 0 Z M-55.7890625 12.6796875 C-56.91900635 13.10685059 -58.0489502 13.53401367 -59.21313477 13.97412109 C-63.32634214 15.99475827 -66.3571043 17.71815229 -68.7890625 21.6796875 C-70.92542877 29.39860992 -70.48753249 37.59175031 -70.26416016 45.52758789 C-70.16400052 49.36956504 -70.18191653 53.19811427 -70.21484375 57.04101562 C-70.19188283 59.48705473 -70.16216651 61.93304175 -70.125 64.37890625 C-70.13066986 65.52276291 -70.13633972 66.66661957 -70.1421814 67.84513855 C-69.98422873 73.86494016 -69.98422873 73.86494016 -66.79945374 78.72370911 C-64.51740772 80.27187359 -62.29004283 81.52489154 -59.7890625 82.6796875 C-58.34080078 83.38544922 -58.34080078 83.38544922 -56.86328125 84.10546875 C-56.07566406 84.39808594 -55.28804687 84.69070313 -54.4765625 84.9921875 C-53.27580078 85.45044922 -53.27580078 85.45044922 -52.05078125 85.91796875 C-42.93244314 88.98891164 -33.63263255 88.47183324 -24.7890625 84.6796875 C-15.19861454 79.69824123 -9.09991714 71.92907963 -5.7890625 61.6796875 C-2.5684886 48.60589832 -2.70526948 33.91740371 -8.7890625 21.6796875 C-13.78356363 14.30421576 -19.98613857 9.42441116 -28.7890625 7.6796875 C-38.98209821 6.74942349 -46.62805574 8.30341866 -55.7890625 12.6796875 Z " fill="#2A2928" transform="translate(150.7890625,447.3203125)"/>
<path d="M0 0 C10.38536379 7.47822696 15.25688986 17.68457844 18 30 C19.19544344 38.05056442 18.82223494 44.77765058 18 53 C-9.39 53 -36.78 53 -65 53 C-59.44964549 71.07564559 -59.44964549 71.07564559 -46 83 C-33.02001408 89.48011474 -19.61264944 88.68097153 -6 85 C-2.91367847 83.80173922 0.01564477 82.49652028 2.9609375 80.98828125 C5 80 5 80 7 80 C8.76171875 82.30078125 8.76171875 82.30078125 10.6875 85.3125 C11.33074219 86.29863281 11.97398437 87.28476562 12.63671875 88.30078125 C13.08660156 89.19152344 13.53648437 90.08226562 14 91 C13 94 13 94 10.2265625 95.5 C-11.44282545 104.52499455 -32.55036899 107.19895796 -55.125 99.375 C-67.57352059 93.96972132 -77.45459588 84.31801725 -82.875 71.9375 C-83.61391551 69.96954658 -84.32543301 67.99092847 -85 66 C-85.24621094 65.29746094 -85.49242187 64.59492188 -85.74609375 63.87109375 C-89.62484748 50.20183061 -87.54641438 33.90814319 -81.71484375 21.19921875 C-74.01173491 7.40228565 -62.59963009 -1.90216025 -47.5456543 -6.56176758 C-31.91254048 -10.74826247 -13.49730722 -9.25890047 0 0 Z M-57.71875 19.10546875 C-62.13676139 25.3968036 -65 31.18392641 -65 39 C-43.88 39 -22.76 39 -1 39 C-1 29.37116585 -2.73096811 21.59920621 -9.49609375 14.41015625 C-16.54724088 7.74983483 -24.21022868 6.39705106 -33.72265625 6.65234375 C-43.12325705 7.64954693 -51.70128478 11.73407385 -57.71875 19.10546875 Z " fill="#2A2928" transform="translate(308,447)"/>
<path d="M0 0 C1.051875 0.721875 2.10375 1.44375 3.1875 2.1875 C13.2538413 12.2538413 17.11618201 24.49340542 17.31469727 38.42236328 C17.30536711 50.69463289 17.30536711 50.69463289 16 52 C13.44410112 52.09506052 10.91532028 52.12556761 8.35913086 52.11352539 C7.15922264 52.11374443 7.15922264 52.11374443 5.93507385 52.1139679 C3.27830335 52.11326855 0.62160207 52.10547518 -2.03515625 52.09765625 C-3.87218691 52.09579215 -5.70921806 52.09436821 -7.54624939 52.09336853 C-12.39109662 52.08954275 -17.23591408 52.07971196 -22.08074951 52.06866455 C-27.02062578 52.05845172 -31.96050685 52.05387119 -36.90039062 52.04882812 C-46.60027353 52.03808974 -56.30013429 52.0210126 -66 52 C-65.56425762 53.89124692 -65.11820415 55.7801196 -64.66796875 57.66796875 C-64.42071045 58.72008545 -64.17345215 59.77220215 -63.91870117 60.85620117 C-61.18848803 70.19900071 -55.20577388 77.29973482 -46.91015625 82.24609375 C-33.40393806 88.91372045 -18.90530855 87.60676153 -4.97265625 83.1328125 C-1.9068888 82.0217259 -1.9068888 82.0217259 1.25390625 80.3671875 C4 79 4 79 6 79 C7.28406399 80.95224208 8.47941678 82.96340762 9.625 85 C10.25664063 86.11375 10.88828125 87.2275 11.5390625 88.375 C12.02117187 89.24125 12.50328125 90.1075 13 91 C0.35426476 101.9086837 -18.78411962 104.0660258 -34.96289062 103.16845703 C-51.6271493 101.7904203 -65.21628125 95.27526299 -76.75 83.3125 C-88.08346649 69.72841605 -89.29161196 52.85727299 -88 36 C-87.31233568 31.41766452 -85.87538787 27.23196079 -84 23 C-83.649375 22.19820313 -83.29875 21.39640625 -82.9375 20.5703125 C-76.05237619 6.75225152 -64.13685519 -1.84734438 -49.98046875 -7.0546875 C-33.40213666 -12.31282166 -14.18875075 -9.90919936 0 0 Z M-58.68359375 17.70703125 C-63.086474 22.92241309 -67 31.0441716 -67 38 C-45.55 38 -24.1 38 -2 38 C-3.00423869 26.95337437 -4.563491 18.41565289 -13 11 C-28.12201289 1.3954783 -46.48399702 5.33760255 -58.68359375 17.70703125 Z " fill="#2A2928" transform="translate(719,448)"/>
<path d="M0 0 C-1.51553404 3.47775179 -3.5773456 5.9557984 -6.125 8.75 C-6.84945312 9.54921875 -7.57390625 10.3484375 -8.3203125 11.171875 C-8.87460937 11.77515625 -9.42890625 12.3784375 -10 13 C-14.61871285 12.12854474 -18.30815668 9.68105332 -22.34375 7.375 C-29.47611343 3.68295305 -38.46941442 3.91647705 -46.15234375 5.75390625 C-56.41373842 9.34328299 -64.12152646 15.269553 -69.3125 24.9375 C-74.65152872 36.73835748 -74.34225419 49.92004473 -70 62 C-65.55264028 71.54160813 -59.75300303 77.18035219 -50.11328125 81.23828125 C-40.58230777 84.67365986 -29.23070695 84.14625198 -20 80 C-17.34163716 78.45121469 -14.76591232 76.84638954 -12.2265625 75.109375 C-10 74 -10 74 -7.9765625 74.01953125 C-5.12499589 75.43404354 -3.68929457 77.43437349 -1.75 79.9375 C-1.04359375 80.83339844 -0.3371875 81.72929688 0.390625 82.65234375 C2 85 2 85 2 87 C-16.01125787 98.12539467 -34.77228511 103.18614704 -55.8125 98.375 C-69.14642309 95.05393373 -80.13187076 88.18671153 -87.8125 76.625 C-96.39560872 62.28662813 -98.69027049 45.39734415 -95.31640625 28.94921875 C-91.35049459 15.20840448 -83.2151776 3.94638891 -70.95703125 -3.3984375 C-48.63904945 -15.48611588 -20.63728922 -16.35407825 0 0 Z " fill="#2A2928" transform="translate(588,451)"/>
<path d="M0 0 C5.94 0 11.88 0 18 0 C18 9.9 18 19.8 18 30 C29.22 30 40.44 30 52 30 C52 34.95 52 39.9 52 45 C40.78 45 29.56 45 18 45 C18.08872567 52.9386129 18.17928516 60.87684026 18.28729248 68.81515503 C18.33707818 72.51247548 18.38356735 76.20976786 18.421875 79.90722656 C18.45895427 83.47352583 18.50537294 87.03959606 18.55806351 90.60569763 C18.58540809 92.61730411 18.60326832 94.62903237 18.62094116 96.64074707 C18.63815628 109.39735004 18.63815628 109.39735004 25 120 C31.66052837 123.85755601 38.49570444 123.2337337 45.73828125 121.47265625 C48 121 48 121 52 121 C52.53532823 122.55759343 53.05265378 124.12138045 53.5625 125.6875 C53.85253906 126.55761719 54.14257812 127.42773438 54.44140625 128.32421875 C55.05141961 131.24631074 54.77703633 133.14400553 54 136 C39.56729938 139.44047886 23.67278896 143.02654942 9.9140625 135.3828125 C1.77586017 129.50337653 -1.9599295 122.4417426 -3.5234375 112.75805664 C-4.30580757 106.34425062 -4.12306853 99.88771595 -4.09765625 93.4375 C-4.09578795 92.03645885 -4.094366 90.63541704 -4.09336853 89.234375 C-4.08957576 85.57165682 -4.07977366 81.90897917 -4.06866455 78.24627686 C-4.05838026 74.49882556 -4.05385596 70.75136763 -4.04882812 67.00390625 C-4.03814804 59.66925034 -4.02057801 52.33463604 -4 45 C-9.94 45 -15.88 45 -22 45 C-22 40.38 -22 35.76 -22 31 C-17.52559456 30.18647174 -13.28772742 29.94393609 -8.734375 29.96875 C-7.12127441 29.97551758 -7.12127441 29.97551758 -5.47558594 29.98242188 C-4.2501709 29.99112305 -4.2501709 29.99112305 -3 30 C-2.94465088 29.26885986 -2.88930176 28.53771973 -2.83227539 27.78442383 C-2.57883794 24.46020002 -2.3207169 21.13635583 -2.0625 17.8125 C-1.97548828 16.66201172 -1.88847656 15.51152344 -1.79882812 14.32617188 C-1.71181641 13.21435547 -1.62480469 12.10253906 -1.53515625 10.95703125 C-1.456604 9.93585205 -1.37805176 8.91467285 -1.29711914 7.86254883 C-1 5 -1 5 0 0 Z " fill="#2A2928" transform="translate(968,412)"/>
<path d="M0 0 C-1.92710706 11.52164009 -1.92710706 11.52164009 -4 17 C-4.763125 16.835 -5.52625 16.67 -6.3125 16.5 C-16.36932029 15.13636335 -24.53717341 15.69144894 -33.15625 21.4375 C-39.62191738 26.6100339 -45.17452663 33.36665407 -46.64962769 41.64633179 C-46.9017008 45.83582526 -46.94560207 49.97370157 -46.90234375 54.16796875 C-46.91174783 55.69926564 -46.92421726 57.23054645 -46.93959045 58.76179504 C-46.97158421 62.75526414 -46.96246007 66.74757557 -46.94421387 70.74108887 C-46.93299025 74.83077269 -46.96142244 78.92017049 -46.98632812 83.00976562 C-47.02928122 91.00684094 -47.02504162 99.00284831 -47 107 C-54.26 107 -61.52 107 -69 107 C-69 71.69 -69 36.38 -69 0 C-63.06 0 -57.12 0 -51 0 C-50.34 5.28 -49.68 10.56 -49 16 C-48.34 16 -47.68 16 -47 16 C-45.95244255 14.85423404 -44.96190283 13.6560644 -44 12.4375 C-33.62940445 0.30261226 -15.46249632 -7.52148561 0 0 Z " fill="#2A2928" transform="translate(454,441)"/>
<path d="M0 0 C1.98 0 3.96 0 6 0 C6.23710693 0.57032959 6.47421387 1.14065918 6.71850586 1.72827148 C7.78895634 4.29908382 8.86317581 6.8683042 9.9375 9.4375 C10.31068359 10.33533203 10.68386719 11.23316406 11.06835938 12.15820312 C11.42607422 13.01220703 11.78378906 13.86621094 12.15234375 14.74609375 C12.48226318 15.53685303 12.81218262 16.3276123 13.15209961 17.14233398 C13.85721491 18.97376797 13.85721491 18.97376797 15 20 C17.64 13.4 20.28 6.8 23 0 C25.31 0 27.62 0 30 0 C30 10.23 30 20.46 30 31 C28.02 31 26.04 31 24 31 C24 24.73 24 18.46 24 12 C21.69 17.28 19.38 22.56 17 28 C15.35 28 13.7 28 12 28 C10.02 23.38 8.04 18.76 6 14 C5.67 19.61 5.34 25.22 5 31 C3.35 31 1.7 31 0 31 C0 20.77 0 10.54 0 0 Z " fill="#282726" transform="translate(448,634)"/>
<path d="M0 0 C0.886875 0.37125 1.77375 0.7425 2.6875 1.125 C3.450625 1.41375 4.21375 1.7025 5 2 C6.34246312 1.35191436 7.67432801 0.68177416 9 0 C12.93588319 -0.58671551 15.78133637 -0.75420791 19.234375 1.3828125 C21.98968815 5.46701563 21.42484641 9.44844848 21.25 14.25 C21.23195313 15.18585937 21.21390625 16.12171875 21.1953125 17.0859375 C21.14825673 19.39167015 21.08253713 21.69530945 21 24 C19.35 24 17.7 24 16 24 C15.95101562 22.87980469 15.90203125 21.75960937 15.8515625 20.60546875 C15.77652144 19.13278797 15.70097418 17.66013293 15.625 16.1875 C15.5940625 15.44951172 15.563125 14.71152344 15.53125 13.95117188 C15.32653852 10.18106885 15.13566173 8.20349259 13 5 C9.39007621 5.65585189 9.39007621 5.65585189 6 7 C5.67 12.61 5.34 18.22 5 24 C3.02 24 1.04 24 -1 24 C-1.33 18.06 -1.66 12.12 -2 6 C-6.10846523 4.51190647 -6.10846523 4.51190647 -10 7 C-10.33 12.61 -10.66 18.22 -11 24 C-12.98 24 -14.96 24 -17 24 C-17 16.41 -17 8.82 -17 1 C-14.33333333 1 -11.66666667 1 -9 1 C-5.96967558 -0.51516221 -3.34885038 -0.17028053 0 0 Z " fill="#292827" transform="translate(286,641)"/>
<path d="M0 0 C0.886875 0.37125 1.77375 0.7425 2.6875 1.125 C3.450625 1.41375 4.21375 1.7025 5 2 C5.99 1.34 6.98 0.68 8 0 C11.86452782 -0.58808032 13.45087372 -0.3863925 16.67578125 1.8828125 C19.99291929 6.33167999 19.56007008 9.92308971 19.3125 15.3125 C19.28994141 16.24384766 19.26738281 17.17519531 19.24414062 18.13476562 C19.18542078 20.4248396 19.10336858 22.71157875 19 25 C17.35 25 15.7 25 14 25 C13.505 15.1 13.505 15.1 13 5 C10.69 5.66 8.38 6.32 6 7 C5.67 12.94 5.34 18.88 5 25 C3.35 25 1.7 25 0 25 C-0.06058594 23.79601562 -0.12117187 22.59203125 -0.18359375 21.3515625 C-0.26799732 19.77602923 -0.35264541 18.20050904 -0.4375 16.625 C-0.47681641 15.8309375 -0.51613281 15.036875 -0.55664062 14.21875 C-0.68893404 9.97398779 -0.68893404 9.97398779 -2 6 C-4.41645782 5.83312552 -4.41645782 5.83312552 -7 6 C-10.02093215 9.02093215 -9.46676834 12.56372072 -9.625 16.625 C-9.66367187 17.42679688 -9.70234375 18.22859375 -9.7421875 19.0546875 C-9.83653931 21.03607556 -9.91936215 23.01800645 -10 25 C-11.65 25 -13.3 25 -15 25 C-15 17.08 -15 9.16 -15 1 C-12.66666667 1 -10.33333333 1 -8 1 C-5.21084611 -0.39457694 -3.09726736 -0.1821922 0 0 Z " fill="#292927" transform="translate(748,642)"/>
<path d="M0 0 C2.375 1.5 2.375 1.5 4 3 C4.53625 2.505 5.0725 2.01 5.625 1.5 C8.70110743 -0.44280469 10.41889189 -0.52224493 14 0 C16.171875 1.35546875 16.171875 1.35546875 18 4 C18.49810174 7.59404856 18.37530674 11.13056299 18.25 14.75 C18.23195313 15.73355469 18.21390625 16.71710937 18.1953125 17.73046875 C18.14824126 20.15463783 18.08250742 22.57682059 18 25 C16.35 25 14.7 25 13 25 C12.505 15.595 12.505 15.595 12 6 C10.35 6 8.7 6 7 6 C3.97906785 9.02093215 4.53323166 12.56372072 4.375 16.625 C4.33632813 17.42679688 4.29765625 18.22859375 4.2578125 19.0546875 C4.16346069 21.03607556 4.08063785 23.01800645 4 25 C2.35 25 0.7 25 -1 25 C-1.33 18.4 -1.66 11.8 -2 5 C-4.31 5.66 -6.62 6.32 -9 7 C-9.33 12.94 -9.66 18.88 -10 25 C-11.65 25 -13.3 25 -15 25 C-15 17.08 -15 9.16 -15 1 C-12.525 1.495 -12.525 1.495 -10 2 C-6.34212024 0.23005818 -4.16512336 -0.43386702 0 0 Z " fill="#282726" transform="translate(706,642)"/>
<path d="M0 0 C1.65 0 3.3 0 5 0 C5 10.89 5 21.78 5 33 C2.69 33 0.38 33 -2 33 C-2.99 33.495 -2.99 33.495 -4 34 C-8.41308343 34.04259733 -11.96303299 33.80364944 -15.5 31.0625 C-18.74126517 26.6057604 -18.56820956 22.36916857 -18 17 C-16.54989104 13.61641243 -15.5388881 11.73342752 -12.1640625 10.125 C-7.57032014 8.71695636 -4.46181404 8.99218368 0 11 C0 7.37 0 3.74 0 0 Z M-11.4375 16 C-13.2656396 19.51002802 -13.33021613 21.37815669 -12.609375 25.19140625 C-12.06184878 27.18467569 -12.06184878 27.18467569 -10.25 29.0625 C-7.35854268 30.26727389 -5.94538545 29.98179515 -3 29 C-2.01 28.34 -1.02 27.68 0 27 C0.47874797 24.40701738 0.47874797 24.40701738 0.375 21.5 C0.38273438 20.5203125 0.39046875 19.540625 0.3984375 18.53125 C0.20121094 17.27828125 0.20121094 17.27828125 0 16 C-4.27711804 13.14858797 -7.33166612 12.63111066 -11.4375 16 Z " fill="#292827" transform="translate(528,632)"/>
<path d="M0 0 C7.26 0 14.52 0 22 0 C22 1.32 22 2.64 22 4 C16.39 4 10.78 4 5 4 C5 6.64 5 9.28 5 12 C9.62 12 14.24 12 19 12 C19 13.65 19 15.3 19 17 C14.38 17 9.76 17 5 17 C5 20.3 5 23.6 5 27 C10.61 27 16.22 27 22 27 C22 28.32 22 29.64 22 31 C14.74 31 7.48 31 0 31 C0 20.77 0 10.54 0 0 Z " fill="#292828" transform="translate(57,634)"/>
<path d="M0 0 C2.5575326 2.08391545 3.49400704 4.33159294 4.6875 7.375 C4.9375 10.1875 4.9375 10.1875 4.6875 12.375 C3.6875 13.375 3.6875 13.375 -0.12890625 13.47265625 C-1.71096682 13.46598089 -3.29301159 13.45401875 -4.875 13.4375 C-5.68130859 13.43298828 -6.48761719 13.42847656 -7.31835938 13.42382812 C-9.31643756 13.41200518 -11.31447783 13.39406914 -13.3125 13.375 C-13.04573796 15.35991642 -13.04573796 15.35991642 -12.3125 17.375 C-9.02730525 18.47006492 -6.57586585 18.47460608 -3.125 18.4375 C-2.03832031 18.42847656 -0.95164062 18.41945313 0.16796875 18.41015625 C0.99941406 18.39855469 1.83085937 18.38695312 2.6875 18.375 C3.0175 19.365 3.3475 20.355 3.6875 21.375 C-1.09888657 24.1839123 -5.90948576 24.01616812 -11.3125 23.375 C-14.58709047 21.76642924 -16.45641724 20.46455988 -18.6875 17.625 C-19.97166889 13.00199199 -19.9473239 8.96205974 -18.1875 4.5625 C-13.34223037 -1.09031457 -6.95478774 -1.87967236 0 0 Z M-11.75 5.1875 C-13.50624606 7.19820672 -13.50624606 7.19820672 -13.3125 9.375 C-9.0225 9.375 -4.7325 9.375 -0.3125 9.375 C-0.9725 7.725 -1.6325 6.075 -2.3125 4.375 C-7.32826689 3.05479753 -7.32826689 3.05479753 -11.75 5.1875 Z " fill="#272625" transform="translate(332.3125,641.625)"/>
<path d="M0 0 C2.28128232 1.52407022 2.81579839 2.71049506 3.84765625 5.234375 C4.07470703 7.34082031 4.07470703 7.34082031 4.04296875 9.5625 C4.03652344 10.36171875 4.03007812 11.1609375 4.0234375 11.984375 C4.00667969 12.809375 3.98992187 13.634375 3.97265625 14.484375 C3.96363281 15.32484375 3.95460937 16.1653125 3.9453125 17.03125 C3.92181442 19.09908104 3.88594533 21.16676495 3.84765625 23.234375 C2.19765625 23.234375 0.54765625 23.234375 -1.15234375 23.234375 C-1.15234375 22.574375 -1.15234375 21.914375 -1.15234375 21.234375 C-1.71953125 21.55792969 -2.28671875 21.88148438 -2.87109375 22.21484375 C-6.58082977 23.87279084 -10.16441934 23.68804713 -14.15234375 23.234375 C-16.71484375 22.171875 -16.71484375 22.171875 -18.15234375 20.234375 C-18.77734375 16.796875 -18.77734375 16.796875 -18.15234375 13.234375 C-13.55672868 8.63875993 -8.32920972 8.4785199 -2.15234375 8.234375 C-2.81234375 6.914375 -3.47234375 5.594375 -4.15234375 4.234375 C-10.09234375 4.729375 -10.09234375 4.729375 -16.15234375 5.234375 C-16.15234375 3.914375 -16.15234375 2.594375 -16.15234375 1.234375 C-11.17322369 -1.33549342 -5.3122037 -1.88964052 0 0 Z M-8.21484375 12.546875 C-8.92769531 12.79050781 -9.64054688 13.03414062 -10.375 13.28515625 C-12.51104664 14.16407255 -12.51104664 14.16407255 -13.15234375 17.234375 C-12.82234375 17.894375 -12.49234375 18.554375 -12.15234375 19.234375 C-6.83063881 19.52999867 -6.83063881 19.52999867 -2.15234375 17.234375 C-1.90212805 14.15071629 -1.90212805 14.15071629 -2.15234375 11.234375 C-4.45476673 11.234375 -6.04655753 11.77951418 -8.21484375 12.546875 Z " fill="#292827" transform="translate(214.15234375,641.765625)"/>
<path d="M0 0 C2.125 1.6875 2.125 1.6875 4.125 4.6875 C4.125 7.3275 4.125 9.9675 4.125 12.6875 C-4.29 13.1825 -4.29 13.1825 -12.875 13.6875 C-9.47593195 17.88990267 -9.47593195 17.88990267 -6.078125 18.078125 C-5.10359375 18.03171875 -4.1290625 17.9853125 -3.125 17.9375 C-1.64773437 17.88335938 -1.64773437 17.88335938 -0.140625 17.828125 C0.60703125 17.78171875 1.3546875 17.7353125 2.125 17.6875 C2.125 19.0075 2.125 20.3275 2.125 21.6875 C-0.55155801 23.02577901 -2.69934052 22.89328556 -5.6875 22.9375 C-6.72519531 22.96328125 -7.76289063 22.9890625 -8.83203125 23.015625 C-12.30557792 22.64107055 -14.10344493 21.78436829 -16.875 19.6875 C-19.0305305 15.95124714 -19.875 13.44567763 -19.875 9.125 C-18.60870936 4.77212592 -17.06981103 2.88231103 -13.875 -0.3125 C-8.9981798 -1.93810673 -4.6477893 -2.12181686 0 0 Z M-12.25 4.5625 C-14.07748337 6.50643314 -14.07748337 6.50643314 -13.875 8.6875 C-9.585 8.6875 -5.295 8.6875 -0.875 8.6875 C-1.50341973 4.7160831 -1.50341973 4.7160831 -3.875 2.6875 C-7.62617071 2.19821686 -9.23748923 2.18420202 -12.25 4.5625 Z " fill="#272625" transform="translate(150.875,642.3125)"/>
<path d="M0 0 C3.23613354 1.74253345 3.82395315 2.47185944 5 6 C5.08021999 7.40824893 5.10765977 8.81997231 5.09765625 10.23046875 C5.09443359 11.03291016 5.09121094 11.83535156 5.08789062 12.66210938 C5.07951172 13.49548828 5.07113281 14.32886719 5.0625 15.1875 C5.05798828 16.03248047 5.05347656 16.87746094 5.04882812 17.74804688 C5.03705403 19.83206155 5.0191189 21.91603977 5 24 C3.02 24 1.04 24 -1 24 C-1.33 18.06 -1.66 12.12 -2 6 C-6.97076473 4.47376519 -6.97076473 4.47376519 -11 7 C-11.33 12.61 -11.66 18.22 -12 24 C-13.98 24 -15.96 24 -18 24 C-18 16.41 -18 8.82 -18 1 C-15.33333333 1 -12.66666667 1 -10 1 C-6.81496713 -0.59251643 -3.4667595 -0.39129761 0 0 Z " fill="#292828" transform="translate(360,641)"/>
<path d="M0 0 C3.23613354 1.74253345 3.82395315 2.47185944 5 6 C5.08021999 7.40824893 5.10765977 8.81997231 5.09765625 10.23046875 C5.09443359 11.03291016 5.09121094 11.83535156 5.08789062 12.66210938 C5.07951172 13.49548828 5.07113281 14.32886719 5.0625 15.1875 C5.05798828 16.03248047 5.05347656 16.87746094 5.04882812 17.74804688 C5.03705403 19.83206155 5.0191189 21.91603977 5 24 C3.02 24 1.04 24 -1 24 C-1.33 18.06 -1.66 12.12 -2 6 C-6.97076473 4.47376519 -6.97076473 4.47376519 -11 7 C-11.33 12.61 -11.66 18.22 -12 24 C-13.98 24 -15.96 24 -18 24 C-18 16.41 -18 8.82 -18 1 C-15.33333333 1 -12.66666667 1 -10 1 C-6.81496713 -0.59251643 -3.4667595 -0.39129761 0 0 Z " fill="#292827" transform="translate(103,641)"/>
<path d="M0 0 C2.96858157 2.20740681 3.82865791 3.48597373 5 7 C5.08021999 8.40824893 5.10765977 9.81997231 5.09765625 11.23046875 C5.09443359 12.03291016 5.09121094 12.83535156 5.08789062 13.66210938 C5.07951172 14.49548828 5.07113281 15.32886719 5.0625 16.1875 C5.05798828 17.03248047 5.05347656 17.87746094 5.04882812 18.74804688 C5.03705403 20.83206155 5.0191189 22.91603977 5 25 C2.66666667 25 0.33333333 25 -2 25 C-3.258125 25.268125 -4.51625 25.53625 -5.8125 25.8125 C-9.37400556 26.26093774 -9.8453538 26.10099344 -13.0625 24 C-15 21 -15 21 -15.0625 17.375 C-14 14 -14 14 -12.5 12.25 C-8.80600969 10.40300485 -4.9482117 9.18952532 -1 8 C-1.66 7.01 -2.32 6.02 -3 5 C-6.12290635 5.48578543 -8.99580359 5.9986012 -12 7 C-12.66 5.68 -13.32 4.36 -14 3 C-8.99101557 -0.00539066 -5.70101153 -0.64366259 0 0 Z M-9 16 C-10.05081138 18.02418332 -10.05081138 18.02418332 -10 20 C-8.8956608 21.32420249 -8.8956608 21.32420249 -6.125 21.1875 C-2.83429242 21.25343513 -2.83429242 21.25343513 0 19 C0.2502157 15.91634129 0.2502157 15.91634129 0 13 C-3.7794561 13 -5.79116175 14.04679411 -9 16 Z " fill="#282726" transform="translate(885,642)"/>
<path d="M0 0 C2.0692685 1.83564142 2.91285681 3.25252722 3.23461914 6.01245117 C3.2955871 8.43203746 3.261209 10.83083278 3.1875 13.25 C3.16719727 14.51070312 3.16719727 14.51070312 3.14648438 15.796875 C3.11123464 17.86485938 3.0574302 19.93251271 3 22 C0.66666667 22 -1.66666667 22 -4 22 C-4.66773438 22.09539063 -5.33546875 22.19078125 -6.0234375 22.2890625 C-7.18746094 22.45535156 -7.18746094 22.45535156 -8.375 22.625 C-9.14585937 22.74101563 -9.91671875 22.85703125 -10.7109375 22.9765625 C-13.39121228 23.00400559 -14.76473561 22.44750602 -17 21 C-18.43735246 18.12529507 -18.38172649 16.18105412 -18 13 C-14.08878369 8.30654043 -8.74294222 7.84750215 -3 7 C-3.33 6.01 -3.66 5.02 -4 4 C-8.16138263 3.91840426 -11.9472484 4.01751476 -16 5 C-16.33 3.68 -16.66 2.36 -17 1 C-11.15555299 -2.37179635 -6.25889421 -2.47993922 0 0 Z M-12 13 C-13.1490712 14.9254644 -13.1490712 14.9254644 -13 17 C-12.34 17.66 -11.68 18.32 -11 19 C-7.19090105 18.67582137 -5.21627837 18.14418558 -2 16 C-1.74969023 13.41619823 -1.74969023 13.41619823 -2 11 C-5.96602757 11 -8.40349908 11.40155515 -12 13 Z " fill="#292827" transform="translate(570,643)"/>
<path d="M0 0 C5.29810209 0.03435864 5.29810209 0.03435864 8.3125 2.1875 C11.1997174 6.64956325 10.6875 6.85309337 10.6875 13.3125 C5.0775 13.3125 -0.5325 13.3125 -6.3125 13.3125 C-3.954252 18.5668951 -3.954252 18.5668951 0.0625 19.1875 C3.20882642 19.29599401 5.6698277 19.13550154 8.6875 18.3125 C9.0175 19.6325 9.3475 20.9525 9.6875 22.3125 C5.54422976 24.3213583 2.27211644 24.71465934 -2.3125 24.3125 C-6.52669366 22.69165629 -8.96628529 21.16217988 -11.3125 17.3125 C-11.97886661 13.58640007 -11.92642778 10.04584461 -11.3125 6.3125 C-8.875 3.1875 -8.875 3.1875 -6.3125 1.3125 C-4.58665266 -0.41334734 -2.35040633 0.0591493 0 0 Z M-3.0625 4.5 C-5.5706635 6.18630415 -5.5706635 6.18630415 -6.3125 9.3125 C-2.3525 9.3125 1.6075 9.3125 5.6875 9.3125 C5.15865921 5.25075904 5.15865921 5.25075904 2.4375 3.875 C-0.37212193 3.02699226 -0.37212193 3.02699226 -3.0625 4.5 Z " fill="#292827" transform="translate(495.3125,641.6875)"/>
<path d="M0 0 C3.98893603 2.14788863 6.32743489 3.79161037 8 8 C8.77733802 13.55241442 8.3222998 18.34878029 5 23 C1.65349212 25.41259871 -0.99799745 26.26189069 -5.0625 26.0625 C-8.70346899 25.39987154 -10.89202405 23.97429829 -13.08984375 20.875 C-14.80478464 17.34207457 -15.25156277 13.89922293 -15 10 C-13.6413449 6.33163123 -12.09075933 3.44685114 -9 1 C-5.64870516 -0.11709828 -3.51689744 -0.34479387 0 0 Z M-9 8 C-10.08867943 11.41119554 -10.20212653 13.31587944 -9.1875 16.75 C-8.07979783 19.11707301 -8.07979783 19.11707301 -6 21 C-2.46537413 20.99510849 -2.46537413 20.99510849 1 20 C3.51266172 16.36346403 3.18282411 13.27894514 2.62109375 9.0625 C2.12116785 6.71124071 2.12116785 6.71124071 -0.5 4.9375 C-4.7157621 3.35658921 -5.74204913 4.90494667 -9 8 Z " fill="#282726" transform="translate(944,642)"/>
<path d="M0 0 C2.27128899 1.46697952 3.34884427 2.79845903 5 5 C3.25 6.125 3.25 6.125 1 7 C-0.33333333 6.33333333 -1.66666667 5.66666667 -3 5 C-6.53240196 5.14417967 -8.32133342 5.29793112 -10.8125 7.875 C-13.66661004 12.9823548 -13.74800791 18.35320279 -12.1875 23.875 C-11.04443152 26.2995233 -11.04443152 26.2995233 -8 28 C-3.92509248 28.33957563 -2.46998729 28.31332486 1 26 C3.1875 26.375 3.1875 26.375 5 27 C4.875 28.8125 4.875 28.8125 4 31 C-0.27103951 34.09650365 -3.77206891 34.42322034 -8.81640625 33.640625 C-12.54292726 32.5473344 -14.34733251 30.84676511 -17 28 C-20.1475798 21.65094348 -20.05369984 14.21963841 -17.875 7.5625 C-12.92518749 0.79775624 -8.4647587 -1.83097942 0 0 Z " fill="#292827" transform="translate(650,634)"/>
<path d="M0 0 C3.59399219 2.78717761 4.72967128 4.2074319 5.40234375 8.66796875 C5.57433764 13.76586763 5.57227951 18.05817433 2 22 C-0.71424521 24.12738138 -2.5239277 24.92909561 -5.9375 25.4375 C-9.83530088 24.8806713 -11.93989651 23.43417323 -15 21 C-18.11546876 16.32679686 -17.72135772 11.46789154 -17 6 C-15.63820192 3.20307625 -14.42063567 2.08287255 -12 0 C-7.7879065 -1.40403117 -4.27049246 -1.17419845 0 0 Z M-9.625 5 C-11.97593117 7.96959727 -12.38142263 8.53811693 -12.5 12.0625 C-11.99824349 16.74290554 -11.99824349 16.74290554 -9 20 C-6 20.66666667 -6 20.66666667 -3 20 C-0.02005003 17.61604002 0.01653701 15.86977106 0.5 12.0625 C0.38142263 8.53811693 -0.02406883 7.96959727 -2.375 5 C-5.88462889 2.32599704 -6.11537111 2.32599704 -9.625 5 Z " fill="#282726" transform="translate(678,643)"/>
<path d="M0 0 C2.2421875 1.37890625 2.2421875 1.37890625 4 4 C4.48862525 7.42987568 4.37582688 10.79460042 4.25 14.25 C4.23195313 15.18585937 4.21390625 16.12171875 4.1953125 17.0859375 C4.14825673 19.39167015 4.08253713 21.69530945 4 24 C2.35 24 0.7 24 -1 24 C-1.495 14.595 -1.495 14.595 -2 5 C-9.28373595 5.07908908 -9.28373595 5.07908908 -11 7 C-11.23701239 9.85877909 -11.42219182 12.69883297 -11.5625 15.5625 C-11.60568359 16.36880859 -11.64886719 17.17511719 -11.69335938 18.00585938 C-11.79975262 20.00368805 -11.90040888 22.0018207 -12 24 C-13.98 24 -15.96 24 -18 24 C-18 16.41 -18 8.82 -18 1 C-15.33333333 1 -12.66666667 1 -10 1 C-6.87057535 -0.56471233 -3.38917777 -0.69701958 0 0 Z " fill="#272625" transform="translate(257,641)"/>
<path d="M0 0 C2.171875 1.3515625 2.171875 1.3515625 4 4 C4.49805089 7.59406357 4.37530713 11.13055186 4.25 14.75 C4.23195313 15.73355469 4.21390625 16.71710937 4.1953125 17.73046875 C4.14824126 20.15463783 4.08250742 22.57682059 4 25 C2.35 25 0.7 25 -1 25 C-1.33 18.73 -1.66 12.46 -2 6 C-4.31 6.33 -6.62 6.66 -9 7 C-9.33 12.94 -9.66 18.88 -10 25 C-11.65 25 -13.3 25 -15 25 C-15 17.08 -15 9.16 -15 1 C-12.525 1.495 -12.525 1.495 -10 2 C-6.34153678 0.22977586 -4.16911848 -0.52113981 0 0 Z " fill="#272726" transform="translate(820,642)"/>
<path d="M0 0 C1.65 0 3.3 0 5 0 C5.33 6.6 5.66 13.2 6 20 C11.47825081 18.67082039 11.47825081 18.67082039 13 17 C13.23701239 14.14122091 13.42219182 11.30116703 13.5625 8.4375 C13.60568359 7.63119141 13.64886719 6.82488281 13.69335938 5.99414062 C13.79975262 3.99631195 13.90040888 1.9981793 14 0 C15.65 0 17.3 0 19 0 C19 7.92 19 15.84 19 24 C17.68 24 16.36 24 15 24 C15 23.34 15 22.68 15 22 C14.319375 22.515625 13.63875 23.03125 12.9375 23.5625 C9.10852228 25.43625505 7.06665724 25.12962701 3 24 C0.24220905 21.13122914 -0.36858062 19.16619249 -0.29296875 15.234375 C-0.28330078 14.34492187 -0.27363281 13.45546875 -0.26367188 12.5390625 C-0.23853516 11.61867188 -0.21339844 10.69828125 -0.1875 9.75 C-0.16719727 8.34621094 -0.16719727 8.34621094 -0.14648438 6.9140625 C-0.11119954 4.60878673 -0.06190281 2.3046894 0 0 Z " fill="#292827" transform="translate(776,643)"/>
<path d="M0 0 C2.171875 1.3515625 2.171875 1.3515625 4 4 C4.49805089 7.59406357 4.37530713 11.13055186 4.25 14.75 C4.23195313 15.73355469 4.21390625 16.71710937 4.1953125 17.73046875 C4.14824126 20.15463783 4.08250742 22.57682059 4 25 C2.68 25 1.36 25 0 25 C-0.06058594 23.96359375 -0.12117187 22.9271875 -0.18359375 21.859375 C-0.26803371 20.48957127 -0.35267997 19.11978025 -0.4375 17.75 C-0.47681641 17.06808594 -0.51613281 16.38617187 -0.55664062 15.68359375 C-0.76666472 12.35551959 -1.01934002 9.19744598 -2 6 C-4.31 6.33 -6.62 6.66 -9 7 C-9.33 12.94 -9.66 18.88 -10 25 C-11.65 25 -13.3 25 -15 25 C-15 17.08 -15 9.16 -15 1 C-12.525 1.495 -12.525 1.495 -10 2 C-6.34153678 0.22977586 -4.16911848 -0.52113981 0 0 Z " fill="#292928" transform="translate(975,642)"/>
<path d="M0 0 C2.4375 1 2.4375 1 4 2 C3.67 3.32 3.34 4.64 3 6 C0.36 5.67 -2.28 5.34 -5 5 C-5.33 5.99 -5.66 6.98 -6 8 C-4.93458984 8.50660156 -4.93458984 8.50660156 -3.84765625 9.0234375 C-2.92855469 9.46945312 -2.00945313 9.91546875 -1.0625 10.375 C-0.14597656 10.81585937 0.77054688 11.25671875 1.71484375 11.7109375 C4 13 4 13 5 15 C5.45118483 21.20379147 5.45118483 21.20379147 3.9375 23.875 C0.89276342 25.64291156 -1.48198966 25.8846554 -5 26 C-7.82406535 25.22486318 -10.30434457 24.18230501 -13 23 C-12.67 21.68 -12.34 20.36 -12 19 C-11.484375 19.165 -10.96875 19.33 -10.4375 19.5 C-7.26636124 20.15049 -4.22781666 20.0620734 -1 20 C-1.20094716 18.05610287 -1.20094716 18.05610287 -2 16 C-3.77468247 14.7270761 -3.77468247 14.7270761 -5.9375 13.875 C-8.53209987 12.73544797 -9.96549847 12.03450153 -12 10 C-12.4375 7.125 -12.4375 7.125 -12 4 C-8.37283367 -0.17673698 -5.37688348 -0.58656911 0 0 Z " fill="#282727" transform="translate(999,642)"/>
<path d="M0 0 C1.65 0 3.3 0 5 0 C5 2.31 5 4.62 5 7 C7.31 7 9.62 7 12 7 C12 8.32 12 9.64 12 11 C9.69 11 7.38 11 5 11 C5.33 15.62 5.66 20.24 6 25 C8.31 25.66 10.62 26.32 13 27 C13 27.99 13 28.98 13 30 C11.2312602 30.13513292 9.45956945 30.23205586 7.6875 30.3125 C6.70136719 30.37050781 5.71523437 30.42851563 4.69921875 30.48828125 C2 30 2 30 0.15625 27.9375 C-1.2616177 24.33534964 -1.29574822 21.54835315 -1.1875 17.6875 C-1.16042969 16.43324219 -1.13335937 15.17898438 -1.10546875 13.88671875 C-1.07066406 12.93410156 -1.03585938 11.98148438 -1 11 C-2.32 11 -3.64 11 -5 11 C-5 9.68 -5 8.36 -5 7 C-3.68 6.67 -2.36 6.34 -1 6 C-0.67 4.02 -0.34 2.04 0 0 Z " fill="#292827" transform="translate(117,635)"/>
<path d="M0 0 C4.45850936 0.79616239 5.90783917 1.93313458 8.5 5.625 C9.125 9.125 9.125 9.125 8.5 12.625 C5.90783917 16.31686542 4.45850936 17.45383761 0 18.25 C-4.45850936 17.45383761 -5.90783917 16.31686542 -8.5 12.625 C-9.125 9.125 -9.125 9.125 -8.5 5.625 C-5.90783917 1.93313458 -4.45850936 0.79616239 0 0 Z " fill="#DF1F22" transform="translate(419.5,646.375)"/>
<path d="M0 0 C1.65 0 3.3 0 5 0 C5 2.31 5 4.62 5 7 C7.31 7 9.62 7 12 7 C12 8.32 12 9.64 12 11 C9.69 11 7.38 11 5 11 C5.33 15.62 5.66 20.24 6 25 C8.31 25.66 10.62 26.32 13 27 C13 27.99 13 28.98 13 30 C11.39620659 30.05416188 9.79188594 30.09286638 8.1875 30.125 C7.29417969 30.14820313 6.40085937 30.17140625 5.48046875 30.1953125 C3 30 3 30 0 28 C-1.18681726 24.43954823 -1.09689832 21.56191663 -1.0625 17.8125 C-1.05347656 16.54019531 -1.04445313 15.26789062 -1.03515625 13.95703125 C-1.02355469 12.98121094 -1.01195312 12.00539063 -1 11 C-2.32 11 -3.64 11 -5 11 C-5 9.68 -5 8.36 -5 7 C-3.35 7 -1.7 7 0 7 C0 4.69 0 2.38 0 0 Z " fill="#2A2927" transform="translate(374,635)"/>
<path d="M0 0 C3.01005365 0.08740628 3.97765608 0.27677072 6.5625 2 C8.49731132 4.9409132 9.05309193 6.85150456 9.125 10.375 C7.52088152 13.90406067 6.38340638 15.20272908 3.125 17.375 C-0.61776552 17.86318681 -2.39576055 17.6518939 -5.6875 15.75 C-8.36497956 12.8430222 -8.875 11.31059391 -8.875 7.375 C-6.66616122 2.74695685 -5.25790675 0.50882969 0 0 Z " fill="#E02022" transform="translate(600.875,646.625)"/>
<path d="M0 0 C0.53625 0.33 1.0725 0.66 1.625 1 C1.295 2.32 0.965 3.64 0.625 5 C-0.4475 4.773125 -1.52 4.54625 -2.625 4.3125 C-6.22498788 3.72095648 -6.22498788 3.72095648 -8.75 5 C-11.15038789 7.95432355 -11.31010145 10.2358841 -11.375 14 C-10.50853917 17.00155751 -10.50853917 17.00155751 -8.375 19 C-4.89382027 19.43514747 -2.70160966 19.10886989 0.625 18 C1.285 19.32 1.945 20.64 2.625 22 C-1.64061384 24.66600865 -4.61015533 25.48747322 -9.4765625 24.6484375 C-12.65127103 23.56407203 -14.3444455 21.58434209 -16.375 19 C-18.05473059 13.96080822 -17.93239548 9.64122002 -16.25 4.6875 C-12.35914614 -0.88939053 -6.29532102 -2.65066148 0 0 Z " fill="#282726" transform="translate(863.375,643)"/>
<path d="M0 0 C1.32 0 2.64 0 4 0 C4 2.31 4 4.62 4 7 C6.64 7 9.28 7 12 7 C12 8.32 12 9.64 12 11 C9.36 11 6.72 11 4 11 C4.33 15.29 4.66 19.58 5 24 C7.31 24.66 9.62 25.32 12 26 C12 27.32 12 28.64 12 30 C10.39667209 30.08121924 8.79215974 30.13929134 7.1875 30.1875 C5.84751953 30.23970703 5.84751953 30.23970703 4.48046875 30.29296875 C2 30 2 30 0.1875 29 C-1.71637898 25.79346697 -1.31051476 22.42408708 -1.1875 18.8125 C-1.16719727 17.68811523 -1.16719727 17.68811523 -1.14648438 16.54101562 C-1.11118539 14.69370233 -1.05737917 12.84675934 -1 11 C-2.32 11 -3.64 11 -5 11 C-5 9.68 -5 8.36 -5 7 C-3.68 7 -2.36 7 -1 7 C-1.020625 6.030625 -1.04125 5.06125 -1.0625 4.0625 C-1 1 -1 1 0 0 Z " fill="#2A2927" transform="translate(182,635)"/>
<path d="M0 0 C1.65 0 3.3 0 5 0 C5 2.31 5 4.62 5 7 C6.98 7 8.96 7 11 7 C11 8.32 11 9.64 11 11 C9.02 11 7.04 11 5 11 C5.33 15.95 5.66 20.9 6 26 C7.65 26.33 9.3 26.66 11 27 C11.33 28.32 11.66 29.64 12 31 C4.79620853 32.3206951 4.79620853 32.3206951 1.75 31.09375 C-1.08579203 27.7009274 -0.42152408 24.07751213 -0.25 19.8125 C-0.23195313 18.96751953 -0.21390625 18.12253906 -0.1953125 17.25195312 C-0.14820586 15.16748427 -0.07646233 13.08359856 0 11 C-1.32 11 -2.64 11 -4 11 C-4 9.68 -4 8.36 -4 7 C-2.68 7 -1.36 7 0 7 C0 4.69 0 2.38 0 0 Z " fill="#292827" transform="translate(899,636)"/>
<path d="M0 0 C0 1.65 0 3.3 0 5 C-1.11375 5.103125 -2.2275 5.20625 -3.375 5.3125 C-4.57125 5.539375 -5.7675 5.76625 -7 6 C-9.40119059 9.60178588 -9.43771322 12.50866369 -9.625 16.6875 C-9.66367188 17.38939453 -9.70234375 18.09128906 -9.7421875 18.81445312 C-9.8362334 20.54254655 -9.9191968 22.27123675 -10 24 C-11.65 24 -13.3 24 -15 24 C-15 16.41 -15 8.82 -15 1 C-12.03 1.495 -12.03 1.495 -9 2 C-5.5647952 -0.29013653 -4.014669 -0.17842973 0 0 Z " fill="#2A2928" transform="translate(176,641)"/>
<path d="M0 0 C1.98 0 3.96 0 6 0 C6 7.59 6 15.18 6 23 C4.02 23 2.04 23 0 23 C0 15.41 0 7.82 0 0 Z " fill="#2A2927" transform="translate(225,642)"/>
<path d="M0 0 C1.65 0 3.3 0 5 0 C5 7.92 5 15.84 5 24 C3.35 24 1.7 24 0 24 C0 16.08 0 8.16 0 0 Z " fill="#2A2928" transform="translate(917,643)"/>
<path d="M0 0 C1.65 0 3.3 0 5 0 C5 7.59 5 15.18 5 23 C3.35 23 1.7 23 0 23 C0 15.41 0 7.82 0 0 Z " fill="#2A2928" transform="translate(541,642)"/>
<path d="M0 0 C1.32 0 2.64 0 4 0 C4 7.92 4 15.84 4 24 C2.68 24 1.36 24 0 24 C0 16.08 0 8.16 0 0 Z " fill="#2A2928" transform="translate(834,643)"/>
<path d="M0 0 C2.00720923 0.28674418 4.0085944 0.61866701 6 1 C6 2.32 6 3.64 6 5 C4.02 5.33 2.04 5.66 0 6 C-0.38218767 4.34385343 -0.71395102 2.67542976 -1 1 C-0.67 0.67 -0.34 0.34 0 0 Z " fill="#272625" transform="translate(226,632)"/>
<path d="M0 0 C1.2065625 0.0309375 1.2065625 0.0309375 2.4375 0.0625 C2.4375 1.7125 2.4375 3.3625 2.4375 5.0625 C0.7875 5.3925 -0.8625 5.7225 -2.5625 6.0625 C-2.94468767 4.40635343 -3.27645102 2.73792976 -3.5625 1.0625 C-2.5625 0.0625 -2.5625 0.0625 0 0 Z " fill="#262524" transform="translate(836.5625,632.9375)"/>
<path d="M0 0 C1.65 0 3.3 0 5 0 C5 1.65 5 3.3 5 5 C1.25 6.125 1.25 6.125 -1 5 C-0.67 3.35 -0.34 1.7 0 0 Z " fill="#282726" transform="translate(917,633)"/>
<path d="M0 0 C1.2065625 0.0309375 1.2065625 0.0309375 2.4375 0.0625 C3 2 3 2 3.4375 4.0625 C2.4375 5.0625 2.4375 5.0625 -0.125 5.125 C-1.3315625 5.0940625 -1.3315625 5.0940625 -2.5625 5.0625 C-3.125 3.125 -3.125 3.125 -3.5625 1.0625 C-2.5625 0.0625 -2.5625 0.0625 0 0 Z " fill="#2A2928" transform="translate(543.5625,632.9375)"/>
</svg>
