<?xml version="1.0" encoding="UTF-8"?>
<svg version="1.1" xmlns="http://www.w3.org/2000/svg" width="1080" height="1080">
<path d="M0 0 C36.03986882 -0.1209091 36.03986882 -0.1209091 51.15234375 -0.14648438 C61.58354115 -0.16427923 72.0146658 -0.18518896 82.44580078 -0.22631836 C90.04303894 -0.25625953 97.64021802 -0.27558421 105.23751354 -0.28226548 C109.25866701 -0.28616976 113.27965152 -0.29531885 117.30075073 -0.31719017 C121.08953952 -0.33762996 124.87809056 -0.34381876 128.66692924 -0.33932304 C130.05360648 -0.34014491 131.44029209 -0.34606593 132.82692146 -0.35761642 C143.6396104 -0.44322837 151.10914219 0.54346612 159.23828125 8.09765625 C164.62766195 13.91723141 166.12857623 19.6546632 166.11352539 27.42089844 C166.11344986 28.72194519 166.11337433 30.02299194 166.11329651 31.36346436 C166.10819024 32.77876829 166.10297425 34.19407184 166.09765625 35.609375 C166.09579035 37.06097363 166.09436726 38.51257288 166.09336853 39.96417236 C166.08955688 43.77819569 166.07973815 47.59218073 166.06866455 51.40618896 C166.05842135 55.30073529 166.05386468 59.19528783 166.04882812 63.08984375 C166.03811465 70.72658195 166.02052882 78.36328072 166 86 C158.41 86 150.82 86 143 86 C142.99589111 84.21384277 142.99178223 82.42768555 142.98754883 80.58740234 C142.96811754 74.67197401 142.92575676 68.75694609 142.86790943 62.84178734 C142.83368415 59.256908 142.80853658 55.67245276 142.80444336 52.08740234 C142.80015052 48.62457797 142.77160922 45.16270951 142.72656822 41.70018387 C142.7073441 39.74279142 142.71294109 37.7852059 142.71894836 35.82772827 C142.77143141 28.55475261 142.77143141 28.55475261 139.66357422 22.22827148 C132.83980921 16.51970107 123.74999071 17.71895284 115.31665039 17.79418945 C113.17517343 17.81260601 111.03412657 17.81469757 108.89257812 17.81445312 C101.84375585 17.65811067 101.84375585 17.65811067 95 19 C94.67 41.11 94.34 63.22 94 86 C86.74 86 79.48 86 72 86 C71.67 63.56 71.34 41.12 71 18 C55.16 18 39.32 18 23 18 C22.67 40.44 22.34 62.88 22 86 C14.74 86 7.48 86 0 86 C0 57.62 0 29.24 0 0 Z " fill="#E21736" transform="translate(62,577)"/>
<path d="M0 0 C7.26 0 14.52 0 22 0 C22 38.61 22 77.22 22 117 C5.62375 117.061875 -10.7525 117.12375 -27.625 117.1875 C-32.7910791 117.21481201 -37.9571582 117.24212402 -43.27978516 117.27026367 C-49.6003418 117.28381348 -49.6003418 117.28381348 -52.56161499 117.28633118 C-54.6247044 117.29093039 -56.68778588 117.30146605 -58.75082397 117.31672668 C-61.88041135 117.33871452 -65.009507 117.34171706 -68.13916016 117.34057617 C-69.05440775 117.3513705 -69.96965534 117.36216482 -70.91263771 117.37328625 C-76.74047914 117.34488315 -81.20028645 116.61350932 -85.64453125 112.46484375 C-88.89507797 108.2141288 -90.12176582 106.17207069 -90.17700195 100.86694336 C-90.18983719 99.79500229 -90.20267242 98.72306122 -90.21589661 97.61863708 C-90.22328354 96.45413528 -90.23067047 95.28963348 -90.23828125 94.08984375 C-90.246353 92.89323624 -90.25442474 91.69662872 -90.26274109 90.46376038 C-90.27659521 87.92417861 -90.28731139 85.38457811 -90.29516602 82.8449707 C-90.31232184 78.97766218 -90.35619119 75.11122101 -90.40039062 71.24414062 C-90.41052239 68.77604795 -90.41903698 66.30794801 -90.42578125 63.83984375 C-90.45204338 62.11434547 -90.45204338 62.11434547 -90.47883606 60.35398865 C-90.45736699 52.32570107 -89.05767543 46.32240735 -84.39453125 39.73046875 C-83.87246094 39.22128906 -83.35039063 38.71210937 -82.8125 38.1875 C-82.04873047 37.40439453 -82.04873047 37.40439453 -81.26953125 36.60546875 C-73.03839917 30.78275742 -65.45130581 30.45343632 -55.55859375 30.609375 C-54.18141 30.61685083 -52.80421548 30.62253741 -51.42701721 30.62652588 C-47.83142869 30.64167709 -44.23650368 30.68086473 -40.64117432 30.7253418 C-36.96074393 30.76652429 -33.28020458 30.78458552 -29.59960938 30.8046875 C-22.39943962 30.84737212 -15.19981337 30.91549189 -8 31 C-9.27125943 34.36072306 -10.61264881 37.68554743 -12 41 C-12.43400871 42.08573555 -12.43400871 42.08573555 -12.87678528 43.19340515 C-13.75317383 45.07299805 -13.75317383 45.07299805 -16 48 C-18.99796519 48.70865412 -20.95472522 48.9152655 -23.94921875 48.83203125 C-24.72127151 48.83957932 -25.49332428 48.84712738 -26.28877258 48.85490417 C-28.75620156 48.87340083 -31.22026264 48.84503659 -33.6875 48.8125 C-36.92068 48.80451842 -40.1535831 48.81448862 -43.38671875 48.83203125 C-44.54105911 48.83633652 -44.54105911 48.83633652 -45.71871948 48.84072876 C-52.46148366 48.91009215 -58.60982599 49.00818832 -64 53.5 C-67.5174691 57.89683638 -67.13026043 61.50631923 -67.09765625 66.9453125 C-67.09664917 67.72962646 -67.09564209 68.51394043 -67.09460449 69.32202148 C-67.08936611 72.25636249 -67.07540487 75.19068269 -67.0625 78.125 C-67.0315625 87.963125 -67.0315625 87.963125 -67 98 C-33.835 98.495 -33.835 98.495 0 99 C0 66.33 0 33.66 0 0 Z " fill="#E21736" transform="translate(780,546)"/>
<path d="M0 0 C9.08447396 -0.09303993 18.16878169 -0.16393619 27.25362968 -0.20724869 C31.47296967 -0.22804578 35.69198158 -0.25621744 39.91113281 -0.30175781 C43.98955597 -0.34549932 48.0676653 -0.36919622 52.14630508 -0.37950897 C53.69551655 -0.38684995 55.24471254 -0.40118416 56.79378891 -0.42292023 C68.11257251 -0.57529826 77.86418588 0.28119911 86.53125 8.35546875 C91.69993786 14.14274957 93.12823454 19.83097866 93.11352539 27.42089844 C93.11341209 29.37246857 93.11341209 29.37246857 93.11329651 31.36346436 C93.10819024 32.77876829 93.10297425 34.19407184 93.09765625 35.609375 C93.09579035 37.06097363 93.09436726 38.51257288 93.09336853 39.96417236 C93.08955688 43.77819569 93.07973815 47.59218073 93.06866455 51.40618896 C93.05842135 55.30073529 93.05386468 59.19528783 93.04882812 63.08984375 C93.03811465 70.72657993 93.02105449 78.36328459 93 86 C79.67412572 86.06951451 66.3482946 86.1228188 53.02227592 86.15543652 C46.83444692 86.17109147 40.64674198 86.19232698 34.45898438 86.22631836 C28.4873139 86.25891736 22.51576275 86.27685429 16.54401016 86.28463173 C14.26584113 86.29017422 11.98767862 86.3009973 9.70956039 86.31719017 C6.5183069 86.3389712 3.32754635 86.34196658 0.13623047 86.34057617 C-1.27610115 86.35675491 -1.27610115 86.35675491 -2.71696472 86.3732605 C-8.6308413 86.3453846 -13.05135254 85.62646745 -17.64453125 81.53515625 C-23.04726464 74.72301415 -22.24569647 68.16724474 -22.3125 59.75 C-22.34150391 58.54730469 -22.37050781 57.34460938 -22.40039062 56.10546875 C-22.44908463 49.28081633 -22.45916926 43.44762423 -18 38 C-10.98381715 33.36769594 -4.77181905 33.47076554 3.46875 33.609375 C4.74480103 33.61503479 6.02085205 33.62069458 7.33557129 33.62652588 C10.70282658 33.64504202 14.06896591 33.68087911 17.43591309 33.7253418 C20.88165728 33.76650569 24.32751748 33.78458158 27.7734375 33.8046875 C34.51592944 33.84866882 41.2579004 33.91551782 48 34 C47.3459924 39.23206083 45.60441228 41.79117544 43 47 C28.81 47.33 14.62 47.66 0 48 C0 54.6 0 61.2 0 68 C23.1 68.33 46.2 68.66 70 69 C69.9175 62.008125 69.835 55.01625 69.75 47.8125 C69.72631348 44.51342651 69.72631348 44.51342651 69.70214844 41.14770508 C69.67277286 39.39662047 69.64194602 37.64555934 69.609375 35.89453125 C69.60768311 34.5402301 69.60768311 34.5402301 69.60595703 33.15856934 C69.51214176 29.02898106 69.36399624 26.60936072 67.21191406 23.0065918 C62.99676039 19.18271232 59.88153355 18.74322847 54.21191406 18.68115234 C53.20154335 18.66608391 53.20154335 18.66608391 52.17076111 18.65071106 C49.9523908 18.61990979 47.734141 18.60285279 45.515625 18.5859375 C43.97433436 18.56722335 42.43305394 18.54764975 40.89178467 18.5272522 C36.84110542 18.47595089 32.79039296 18.43631456 28.73956299 18.39910889 C24.60363564 18.35905663 20.46784621 18.30796987 16.33203125 18.2578125 C8.22144842 18.16107693 0.11079726 18.07666467 -8 18 C-7.39733215 13.49272353 -5.63400206 10.1412037 -3.4375 6.1875 C-3.10814453 5.59001953 -2.77878906 4.99253906 -2.43945312 4.37695312 C-1.63226733 2.91466002 -0.81695083 1.4568601 0 0 Z " fill="#E21736" transform="translate(267,577)"/>
<path d="M0 0 C9.36251443 -0.09296375 18.72486827 -0.16389804 28.08774471 -0.20724869 C32.43602317 -0.22806215 36.78398424 -0.25626449 41.13208008 -0.30175781 C45.33369092 -0.34543992 49.5349978 -0.36918397 53.73681831 -0.37950897 C55.33430321 -0.38686045 56.93177276 -0.40121572 58.52912712 -0.42292023 C69.87203311 -0.57081886 78.78868331 0.32915597 87.49609375 8.2890625 C92.63860105 14.13949938 94.12847783 20.73326191 94.11352539 28.32910156 C94.11341209 30.25064056 94.11341209 30.25064056 94.11329651 32.21099854 C94.10819026 33.60420775 94.10297427 34.99741657 94.09765625 36.390625 C94.09579032 37.81980337 94.09436724 39.24898238 94.09336853 40.67816162 C94.08955715 44.43300148 94.07973867 48.18780243 94.06866455 51.94262695 C94.05842075 55.77685012 94.05386455 59.61107959 94.04882812 63.4453125 C94.03811514 70.96355937 94.02105531 78.48177423 94 86 C80.67412572 86.06951451 67.3482946 86.1228188 54.02227592 86.15543652 C47.83444692 86.17109147 41.64674198 86.19232698 35.45898438 86.22631836 C29.4873139 86.25891736 23.51576275 86.27685429 17.54401016 86.28463173 C15.26584113 86.29017422 12.98767862 86.3009973 10.70956039 86.31719017 C7.5183069 86.3389712 4.32754635 86.34196658 1.13623047 86.34057617 C-0.27610115 86.35675491 -0.27610115 86.35675491 -1.71696472 86.3732605 C-7.62645801 86.34540526 -12.09410892 85.65050398 -16.64453125 81.5 C-21.93615193 74.70407243 -21.24931332 68.64050446 -21.3125 60.3125 C-21.34150391 59.05759766 -21.37050781 57.80269531 -21.40039062 56.50976562 C-21.48994342 43.42816847 -21.48994342 43.42816847 -17 38 C-9.98101241 33.37049901 -3.77340242 33.47073891 4.46875 33.609375 C5.74480103 33.61503479 7.02085205 33.62069458 8.33557129 33.62652588 C11.70282658 33.64504202 15.06896591 33.68087911 18.43591309 33.7253418 C21.88165728 33.76650569 25.32751748 33.78458158 28.7734375 33.8046875 C35.51592944 33.84866882 42.2579004 33.91551782 49 34 C48.3459924 39.23206083 46.60441228 41.79117544 44 47 C29.81 47.33 15.62 47.66 1 48 C1 54.6 1 61.2 1 68 C24.43 68.33 47.86 68.66 72 69 C71.87625 62.874375 71.7525 56.74875 71.625 50.4375 C71.59100098 48.51736084 71.55700195 46.59722168 71.52197266 44.61889648 C71.48673015 43.07794543 71.4508049 41.53700977 71.4140625 39.99609375 C71.40270264 39.21141724 71.39134277 38.42674072 71.37963867 37.61828613 C71.22370587 31.62802421 71.05422689 25.95151554 66.5 21.625 C62.48919662 19.0179778 60.24731244 18.85587489 55.43896484 18.79467773 C54.42903221 18.77982834 54.42903221 18.77982834 53.3986969 18.76467896 C51.16947974 18.73304885 48.94024126 18.70830066 46.7109375 18.68359375 C45.16679322 18.66302552 43.62265459 18.64202908 42.07852173 18.62062073 C38.01135833 18.56538651 33.94414401 18.51598322 29.87689209 18.46777344 C25.72777771 18.41756825 21.57873741 18.36187707 17.4296875 18.30664062 C9.28652095 18.19904254 1.14329248 18.09760126 -7 18 C-5.06375702 11.79522136 -2.74390859 5.89174281 0 0 Z " fill="#E21736" transform="translate(924,577)"/>
<path d="M0 0 C27.39 0 54.78 0 83 0 C83 6.6 83 13.2 83 20 C64.19 20 45.38 20 26 20 C26 24.29 26 28.58 26 33 C43.82 33 61.64 33 80 33 C80 38.94 80 44.88 80 51 C62.18 51 44.36 51 26 51 C26 56.28 26 61.56 26 67 C45.8 67 65.6 67 86 67 C86 73.6 86 80.2 86 87 C57.62 87 29.24 87 0 87 C0 58.29 0 29.58 0 0 Z " fill="#4C4C4E" transform="translate(167,418)"/>
<path d="M0 0 C8.25 0 16.5 0 25 0 C25 11.88 25 23.76 25 36 C40.18 36 55.36 36 71 36 C71 24.12 71 12.24 71 0 C79.25 0 87.5 0 96 0 C96 28.71 96 57.42 96 87 C87.75 87 79.5 87 71 87 C71 77.1 71 67.2 71 57 C55.82 57 40.64 57 25 57 C25 66.9 25 76.8 25 87 C16.75 87 8.5 87 0 87 C0 58.29 0 29.58 0 0 Z " fill="#4C4C4E" transform="translate(369,418)"/>
<path d="M0 0 C14.169375 -0.0825 28.33875 -0.165 42.9375 -0.25 C49.62761353 -0.30462402 49.62761353 -0.30462402 56.45288086 -0.36035156 C61.93469238 -0.37841797 61.93469238 -0.37841797 64.50782776 -0.3817749 C66.28997298 -0.38788337 68.07210254 -0.40188112 69.85414124 -0.42230225 C72.56703026 -0.45181357 75.2789166 -0.45561649 77.99194336 -0.45410156 C78.77460792 -0.468494 79.55727247 -0.48288643 80.36365414 -0.497715 C87.36241408 -0.44580585 92.76423026 2.04348806 98.6875 5.625 C105.47655653 12.59754455 108.13273858 19.76345023 108.11352539 29.35083008 C108.11341209 31.24222466 108.11341209 31.24222466 108.11329651 33.17182922 C108.10819069 34.53773031 108.1029747 35.90363098 108.09765625 37.26953125 C108.0957897 38.67486012 108.09436692 40.08018965 108.09336853 41.48551941 C108.089562 45.17294125 108.07974774 48.8603233 108.06866455 52.54772949 C108.05841025 56.31501731 108.05386232 60.0823116 108.04882812 63.84960938 C108.0381237 71.2330931 108.0205421 78.61653589 108 86 C100.41 86 92.82 86 85 86 C84.99589111 84.21384277 84.99178223 82.42768555 84.98754883 80.58740234 C84.96811754 74.67197401 84.92575676 68.75694609 84.86790943 62.84178734 C84.83368415 59.256908 84.80853658 55.67245276 84.80444336 52.08740234 C84.80015052 48.62457797 84.77160922 45.16270951 84.72656822 41.70018387 C84.7073441 39.74279142 84.71294109 37.7852059 84.71894836 35.82772827 C84.76812082 28.5402864 84.76812082 28.5402864 81.64331055 22.20556641 C77.96756791 19.13854332 75.33661666 18.87029444 70.70239258 18.79467773 C69.60640747 18.77449585 68.51042236 18.75431396 67.38122559 18.73352051 C66.23061646 18.71704468 65.08000732 18.70056885 63.89453125 18.68359375 C62.83600952 18.66494263 61.77748779 18.6462915 60.68688965 18.6270752 C56.72884551 18.55872326 52.77066258 18.4986092 48.8125 18.4375 C39.964375 18.293125 31.11625 18.14875 22 18 C22 40.44 22 62.88 22 86 C14.74 86 7.48 86 0 86 C0 57.62 0 29.24 0 0 Z " fill="#E21736" transform="translate(562,577)"/>
<path d="M0 0 C1.25643311 -0.00128906 2.51286621 -0.00257813 3.80737305 -0.00390625 C14.57192969 0.11688189 24.6065535 1.66471826 35 4.375 C34.46516981 9.19366427 33.7806057 13.70332801 32.4375 18.375 C32.16808594 19.32375 31.89867187 20.2725 31.62109375 21.25 C31.41613281 21.95125 31.21117187 22.6525 31 23.375 C29.33317469 23.2309912 27.66654815 23.08468156 26 22.9375 C24.6078125 22.81568359 24.6078125 22.81568359 23.1875 22.69140625 C20.86822241 22.46118384 18.55443731 22.17343351 16.24609375 21.8515625 C11.51704543 21.25214523 6.8244913 21.1911268 2.0625 21.1875 C0.79889648 21.16913086 0.79889648 21.16913086 -0.49023438 21.15039062 C-9.32220699 21.12999346 -18.26850687 22.14608441 -25 28.375 C-29.55636885 34.91984195 -30.82517844 43.30708991 -29.55859375 51.0859375 C-28.10364444 56.62305889 -26.19597903 60.46511045 -22 64.375 C-14.02789542 68.5034113 -6.71854944 68.55733771 2.0625 68.5625 C3.13177734 68.57474609 4.20105469 68.58699219 5.30273438 68.59960938 C11.82387105 68.61143017 17.9105337 68.00860647 24.31811523 66.8137207 C27.6189741 66.27374406 30.66612354 66.22346016 34 66.375 C34.67126129 68.8113189 35.33716354 71.24888883 36 73.6875 C36.19078125 74.37779297 36.3815625 75.06808594 36.578125 75.77929688 C37.37716184 78.73287949 38 81.30059219 38 84.375 C13.91236639 91.10338928 -17.66117272 94.58828206 -40.44140625 82.0390625 C-49.30279752 76.27577596 -53.67290181 68.57843054 -56 58.375 C-56.48804787 55.37939586 -56.78451706 52.40178367 -57 49.375 C-57.06574219 48.63765625 -57.13148438 47.9003125 -57.19921875 47.140625 C-57.69525959 36.94613059 -55.13315736 24.56096675 -48.88671875 16.33203125 C-35.41026678 2.35335126 -18.5840894 -0.01991464 0 0 Z " fill="#4C4C4E" transform="translate(319,416.625)"/>
<path d="M0 0 C31.35 0 62.7 0 95 0 C95 6.93 95 13.86 95 21 C83.78 21 72.56 21 61 21 C61 42.45 61 63.9 61 86 C52.42 86 43.84 86 35 86 C35 64.55 35 43.1 35 21 C23.45 21 11.9 21 0 21 C0 14.07 0 7.14 0 0 Z " fill="#4C4C4E" transform="translate(62,418)"/>
<path d="M0 0 C1.29824707 0.00424484 2.59649414 0.00848969 3.93408203 0.01286316 C7.36022757 0.02423453 10.78598234 0.05363332 14.2119751 0.0869751 C17.7180859 0.11784395 21.22426078 0.13140415 24.73046875 0.14648438 C31.59130481 0.17851202 38.45188357 0.22961302 45.3125 0.29296875 C44.5355243 4.61630659 43.13867838 8.12718876 41.25 12.10546875 C40.70214844 13.26691406 40.15429688 14.42835938 39.58984375 15.625 C39.16832031 16.50542969 38.74679687 17.38585937 38.3125 18.29296875 C36.45117432 18.3069873 36.45117432 18.3069873 34.55224609 18.32128906 C29.93372134 18.36126158 25.31585762 18.42704082 20.69775391 18.50048828 C18.70174675 18.52865578 16.70562894 18.54989127 14.70947266 18.56396484 C11.83438636 18.58545278 8.96062471 18.63213301 6.0859375 18.68359375 C5.19820648 18.68482239 4.31047546 18.68605103 3.39584351 18.68731689 C-2.07541568 18.81568834 -5.41882908 19.53746685 -9.6875 23.29296875 C-11.79908686 26.58206674 -11.95678036 29.29683648 -12.00634766 33.16308594 C-12.02621735 34.34400818 -12.04608704 35.52493042 -12.06655884 36.74163818 C-12.08388565 38.64649994 -12.08388565 38.64649994 -12.1015625 40.58984375 C-12.12092865 41.89375061 -12.1402948 43.19765747 -12.1602478 44.54107666 C-12.21151083 47.99990811 -12.25116744 51.45877841 -12.28839111 54.91778564 C-12.32846753 58.45049607 -12.37954322 61.98304568 -12.4296875 65.515625 C-12.52637764 72.44129521 -12.60978728 79.36705986 -12.6875 86.29296875 C-19.9475 86.29296875 -27.2075 86.29296875 -34.6875 86.29296875 C-34.77816794 77.84306508 -34.851426 69.39354487 -34.89474869 60.94328403 C-34.91555011 57.01872629 -34.94372951 53.09452098 -34.98925781 49.17016602 C-35.03298418 45.37703465 -35.05669299 41.58424051 -35.06700897 37.79087639 C-35.07435268 36.34968705 -35.08869244 34.90851443 -35.11042023 33.46747017 C-35.24684331 24.03738329 -34.80211388 16.2892856 -28.609375 8.76953125 C-27.89265625 8.15851562 -27.1759375 7.5475 -26.4375 6.91796875 C-25.37789062 5.97824219 -25.37789062 5.97824219 -24.296875 5.01953125 C-16.44814495 -0.17379013 -9.15433536 -0.11346245 0 0 Z " fill="#E21736" transform="translate(865.6875,576.70703125)"/>
<path d="M0 0 C7.22236996 -0.10194982 14.4445523 -0.17169539 21.66748047 -0.21972656 C24.12132706 -0.23976324 26.57512637 -0.26700032 29.02880859 -0.30175781 C32.56880403 -0.35062498 36.10816468 -0.3730492 39.6484375 -0.390625 C41.277173 -0.42159271 41.277173 -0.42159271 42.93881226 -0.45318604 C52.69543285 -0.45601949 60.41003038 1.76372362 67.4296875 8.73046875 C73.29933411 17.21371422 73.54160628 25.30292853 73.390625 35.31640625 C73.38315046 36.78327152 73.37746327 38.25014687 73.37347412 39.71702576 C73.35831285 43.54932976 73.31911576 47.38101259 73.2746582 51.21307373 C73.23349804 55.13480226 73.21541916 59.05663265 73.1953125 62.97851562 C73.1526098 70.65265767 73.08234071 78.32616213 73 86 C65.74 86 58.48 86 51 86 C50.98541748 84.27442871 50.97083496 82.54885742 50.95581055 80.77099609 C50.90406224 75.05518994 50.83875042 69.33964527 50.76428509 63.62409019 C50.7196506 60.16038741 50.68037982 56.69680036 50.65356445 53.23291016 C50.62246237 49.24616608 50.56767551 45.25991324 50.51171875 41.2734375 C50.50532883 40.03572601 50.4989389 38.79801453 50.49235535 37.52279663 C50.43908419 29.31576478 50.43908419 29.31576478 47 22 C40.96450303 17.39396284 34.15197303 17.81322791 26.88671875 17.68359375 C25.91716751 17.66281265 24.94761627 17.64203156 23.94868469 17.62062073 C20.86169293 17.55541059 17.77461848 17.4963732 14.6875 17.4375 C12.59048636 17.39428763 10.49348097 17.35067248 8.39648438 17.30664062 C3.26440693 17.19975849 -1.86775341 17.09841104 -7 17 C-6.37954537 12.76677156 -4.89476441 9.47709705 -2.9375 5.6875 C-2.38964844 4.61886719 -1.84179688 3.55023437 -1.27734375 2.44921875 C-0.64505859 1.23685547 -0.64505859 1.23685547 0 0 Z " fill="#E21736" transform="translate(417,577)"/>
<path d="M0 0 C7.26 0 14.52 0 22 0 C22 38.61 22 77.22 22 117 C14.74 117 7.48 117 0 117 C0 78.39 0 39.78 0 0 Z " fill="#E21736" transform="translate(381,546)"/>
<path d="M0 0 C0 30.69 0 61.38 0 93 C-7.26 93 -14.52 93 -22 93 C-22.43064904 82.62920402 -22.77852007 72.26440753 -22.98443127 61.88666821 C-23.08330554 57.06663788 -23.21711107 52.2530735 -23.43334961 47.43676758 C-24.80101991 16.19904757 -24.80101991 16.19904757 -20.10601807 9.16070557 C-15.10504621 4.5754313 -9.49709215 2.56302115 -3 1 C-1 0 -1 0 0 0 Z " fill="#E21736" transform="translate(537,570)"/>
<path d="M0 0 C7.26 0 14.52 0 22 0 C22 4.62 22 9.24 22 14 C18.52229768 16.00258437 15.04293733 18.00217947 11.5625 20 C10.56927734 20.57234375 9.57605469 21.1446875 8.55273438 21.734375 C7.60849609 22.27578125 6.66425781 22.8171875 5.69140625 23.375 C4.37958374 24.12910156 4.37958374 24.12910156 3.04125977 24.8984375 C1 26 1 26 0 26 C0 17.42 0 8.84 0 0 Z " fill="#E11736" transform="translate(515,546)"/>
</svg>
