<?xml version="1.0" encoding="UTF-8"?>
<svg version="1.1" xmlns="http://www.w3.org/2000/svg" width="1080" height="1080">
<path d="M0 0 C-1.55701125 3.89252812 -4.01434106 6.06142977 -7.125 8.8125 C-7.87185059 9.47922729 -7.87185059 9.47922729 -8.63378906 10.15942383 C-10.72779221 12.02357266 -12.8402305 13.8642275 -14.9765625 15.6796875 C-22.40864639 21.99859583 -29.15079161 29.06383877 -36 36 C-34.88559348 39.34321955 -34.02527657 40.06019619 -31.375 42.25 C-30.28832031 43.18199219 -30.28832031 43.18199219 -29.1796875 44.1328125 C-28.10074219 45.05707031 -28.10074219 45.05707031 -27 46 C-12.6263914 58.38245936 -6.33459248 76.68804026 -4 95 C-3.20673319 106.05615618 -4.77028891 116.33295329 -8.078125 126.875 C-8.4380957 128.02742187 -8.79806641 129.17984375 -9.16894531 130.3671875 C-9.44319336 131.23601562 -9.71744141 132.10484375 -10 133 C19.67111295 142.48048065 49.13548416 146.85598937 80 150 C84.01104937 150.40947426 88.02165132 150.82210705 92.03125 151.24560547 C94.37151848 151.49266914 96.71265447 151.73169048 99.0546875 151.96142578 C100.59382812 152.12360596 100.59382812 152.12360596 102.1640625 152.2890625 C103.05561035 152.37881348 103.9471582 152.46856445 104.86572266 152.56103516 C107 153 107 153 109 155 C101.02659138 156.96067543 93.28490974 157.38593085 85.09765625 157.5625 C83.7487056 157.59819727 82.39977784 157.63476873 81.0508728 157.67214966 C78.19749453 157.74989198 75.34405462 157.82281364 72.490448 157.8916626 C65.78349299 158.05395392 59.07722017 158.24113898 52.3709507 158.42938614 C50.87784414 158.47128218 49.3847296 158.51289506 47.89160728 158.55422592 C33.06270761 158.96633046 18.24951226 159.60159032 3.43579102 160.390625 C-4.21507371 160.79245397 -11.86643098 161.12022706 -19.52734375 161.2421875 C-20.25071426 161.26403107 -20.97408478 161.28587463 -21.71937561 161.30838013 C-23.73413086 161.32373047 -23.73413086 161.32373047 -27 161 C-27.66 160.01 -28.32 159.02 -29 158 C-29.598125 158.845625 -30.19625 159.69125 -30.8125 160.5625 C-41.85200329 173.67384284 -60.74158513 177.5426485 -77 179 C-95.28259142 179.86133204 -111.04723574 173.1010131 -127 165 C-127.67696772 167.99799992 -128.34175788 170.99788223 -129 174 C-129.19078125 174.83917969 -129.3815625 175.67835938 -129.578125 176.54296875 C-131.24386087 184.21725188 -132.4787301 191.03308652 -128 198 C-123.45249616 201.03166922 -119.32915827 200.63330073 -114 200 C-103.82519903 197.20904261 -94.81949843 190.8842219 -86.8125 184.1640625 C-86.214375 183.77992188 -85.61625 183.39578125 -85 183 C-84.01 183.33 -83.02 183.66 -82 184 C-92.80509172 199.63289866 -107.39280553 213.67254356 -125.97265625 219.6328125 C-131.84880536 220.69708613 -138.6129021 221.21054833 -144 218.3125 C-148.52431908 214.82500404 -151.27286334 211.44599261 -153 206 C-154.56543077 192.36034854 -151.98568115 180.30520006 -147.3984375 167.50390625 C-147.12596191 166.74352051 -146.85348633 165.98313477 -146.57275391 165.19970703 C-146.0386024 163.73102813 -145.49207424 162.26676999 -144.93115234 160.80810547 C-143.39834785 156.70846952 -142.34779526 153.36161918 -143 149 C-144.33752477 146.58788268 -145.65970754 144.47591336 -147.25 142.25 C-152.84222447 133.99066439 -156.3247569 125.87511721 -158 116 C-158.11214844 115.34 -158.22429687 114.68 -158.33984375 114 C-161.32892063 92.38037545 -157.03411702 71.74371009 -144 54 C-132.34860424 39.41552718 -116.53269927 28.11352956 -97.96875 24.4375 C-82.16068333 22.69487848 -66.18258371 22.64704655 -51.421875 29.1328125 C-48.69093174 30.11066638 -46.87659972 30.38973286 -44 30 C-42.04206893 28.68219872 -42.04206893 28.68219872 -40.25 26.75 C-29.79208219 16.91955726 -17.26285328 9.35771197 -5 2 C-2 0 -2 0 0 0 Z M-135.7890625 55.953125 C-148.98521823 72.18369088 -152.3260445 89.59428912 -151 110 C-149.72076102 122.25043263 -145.67725024 134.12095324 -137 143 C-134.89640784 140.29778737 -133.12032776 137.57623641 -131.46875 134.578125 C-121.63802796 116.93452209 -110.46778978 100.87181105 -98 85 C-97.56381348 84.44376953 -97.12762695 83.88753906 -96.67822266 83.31445312 C-92.44106385 77.94049561 -88.08418403 72.85765907 -83.1171875 68.14453125 C-81.28448658 66.28816076 -79.60467806 64.39055215 -77.91015625 62.41015625 C-72.5487488 56.2306769 -66.61564197 50.60773408 -60.76757812 44.89453125 C-59.46143555 43.60482422 -59.46143555 43.60482422 -58.12890625 42.2890625 C-56.93890015 41.12431396 -56.93890015 41.12431396 -55.72485352 39.93603516 C-53.77826306 38.18327192 -53.77826306 38.18327192 -54 36 C-55.89453221 35.35035977 -57.79068649 34.70544885 -59.6875 34.0625 C-61.27111328 33.52302734 -61.27111328 33.52302734 -62.88671875 32.97265625 C-89.69276342 24.5978694 -117.62791104 36.12654043 -135.7890625 55.953125 Z M-44 43 C-49.45609505 48.9462407 -54.6847842 55.01750987 -59.7578125 61.29296875 C-61.89483782 63.87303591 -64.10735745 66.34714485 -66.375 68.8125 C-71.93850116 74.92847427 -76.98836207 81.43027635 -82 88 C-82.67611328 88.88107422 -83.35222656 89.76214844 -84.04882812 90.66992188 C-89.50156553 97.84457635 -94.58987055 105.1951284 -99.5 112.75 C-99.86751373 113.31415619 -100.23502747 113.87831238 -100.61367798 114.45956421 C-115.46425038 134.91705303 -115.46425038 134.91705303 -123 158 C-102.99196064 168.58191556 -83.38932988 174.89030847 -60.921875 168.31640625 C-49.31541242 164.58412077 -40.48562871 158.60685197 -32 150 C-33.101151 147.76930156 -34.20535854 145.54022679 -35.3125 143.3125 C-35.65990234 142.61294189 -36.00730469 141.91338379 -36.36523438 141.19262695 C-38.51648494 136.88778752 -40.7210671 132.61634133 -42.98046875 128.3671875 C-43.73106567 126.95312622 -43.73106567 126.95312622 -44.49682617 125.51049805 C-45.4903945 123.64455187 -46.48917163 121.78136893 -47.4934082 119.92114258 C-47.9493335 119.06415771 -48.40525879 118.20717285 -48.875 117.32421875 C-49.28492188 116.56197998 -49.69484375 115.79974121 -50.1171875 115.0144043 C-51 113 -51 113 -51 110 C-50.09121094 110.70125 -49.18242187 111.4025 -48.24609375 112.125 C-41.67774454 117.11363081 -35.09110668 121.78433472 -27.8125 125.6875 C-27.18980225 126.02587891 -26.56710449 126.36425781 -25.92553711 126.71289062 C-22.60355902 128.43603868 -20.83833895 129 -17 129 C-16.35035977 127.10546779 -15.70544885 125.20931351 -15.0625 123.3125 C-14.70285156 122.25675781 -14.34320313 121.20101562 -13.97265625 120.11328125 C-8.74378629 103.37669748 -11.52756794 85.25342722 -18.8125 69.6875 C-24.10009183 59.73205902 -32.8989782 46.61474553 -44 43 Z " fill="#0036A4" transform="translate(218,430)"/>
<path d="M0 0 C0.78597565 0.00404846 1.57195129 0.00809692 2.38174438 0.01226807 C3.20959946 0.00876343 4.03745453 0.00525879 4.89039612 0.00164795 C7.63800348 -0.0071819 10.38535491 -0.00131316 13.13296509 0.00543213 C15.04147898 0.0040852 16.94999253 0.00214443 18.85850525 -0.00036621 C22.86595921 -0.0033197 26.87332419 0.00098499 30.88076782 0.01031494 C36.00756064 0.02167109 41.13414317 0.01517585 46.26092815 0.00317001 C50.20641141 -0.00407547 54.1518453 -0.00174765 58.09733009 0.0034256 C59.98669268 0.00475667 61.8760598 0.00313344 63.7654171 -0.00153351 C66.41498957 -0.0066386 69.0642279 0.00116895 71.71377563 0.01226807 C72.87755737 0.00619537 72.87755737 0.00619537 74.06484985 0 C79.72727673 0.0437244 85.00185922 0.58754523 89.74624634 3.95855713 C92.03945887 7.22197496 92.37124634 9.27028294 92.37124634 13.27105713 C89.845272 22.36124108 83.18211629 29.99788743 76.37124634 36.27105713 C75.25749634 37.32293213 75.25749634 37.32293213 74.12124634 38.39605713 C70.44875367 40.9000294 66.61660307 42.05017023 62.37124634 43.27105713 C62.72187134 43.95168213 63.07249634 44.63230713 63.43374634 45.33355713 C64.64699286 49.13506289 64.25384165 51.38110002 63.37124634 55.27105713 C61.91638636 57.62776013 60.55092459 59.59901348 58.80874634 61.70855713 C58.35838013 62.26986328 57.90801392 62.83116943 57.44400024 63.40948486 C48.01042041 75.00221738 40.46682234 80.69186827 25.37124634 82.27105713 C18.27911673 82.61421686 11.17230192 82.50470114 4.07437134 82.46636963 C2.02886087 82.46263278 -0.0166514 82.45978899 -2.06216431 82.45779419 C-7.40830554 82.45021061 -12.7543356 82.43060825 -18.10043335 82.40838623 C-23.57079566 82.3878133 -29.04117619 82.37876814 -34.51156616 82.36871338 C-45.21734378 82.34735671 -55.92303943 82.31328553 -66.62875366 82.27105713 C-65.95540051 78.50371004 -65.16445459 76.19307685 -62.85531616 73.11871338 C-62.28361694 72.3497876 -61.71191772 71.58086182 -61.12289429 70.78863525 C-60.50607788 69.97845947 -59.88926147 69.16828369 -59.25375366 68.33355713 C-58.61889038 67.48599854 -57.9840271 66.63843994 -57.32992554 65.76519775 C-53.23668426 60.32262669 -49.05798401 54.95099475 -44.81698608 49.62310791 C-40.94679433 44.73867359 -37.2497482 39.73474005 -33.56625366 34.70855713 C-8.14752431 0.06415238 -8.14752431 0.06415238 0 0 Z M20.91421509 21.17340088 C19.4273451 23.49592944 18.36428312 25.70423439 17.37124634 28.27105713 C16.71124634 29.26105713 16.05124634 30.25105713 15.37124634 31.27105713 C23.25332545 32.88789387 30.18619921 33.35667216 37.37124634 29.27105713 C40.0576747 26.51393329 41.95341064 24.17085698 42.37124634 20.27105713 C39.91585657 17.81566736 33.59261695 18.66420975 30.17788696 18.5960083 C25.16683009 18.70487196 25.16683009 18.70487196 20.91421509 21.17340088 Z M-4.42953491 55.49761963 C-4.9284021 56.289104 -5.42726929 57.08058838 -5.94125366 57.89605713 C-6.45301147 58.69269775 -6.96476929 59.48933838 -7.49203491 60.31011963 C-8.71233895 62.03748485 -8.71233895 62.03748485 -8.62875366 63.27105713 C-6.42192459 63.49476309 -4.21315393 63.69936104 -2.00375366 63.89605713 C-0.77398804 64.01207275 0.45577759 64.12808838 1.72280884 64.24761963 C6.73163403 64.27979624 9.91649842 63.55308414 13.70718384 60.21246338 C14.38007446 59.42742432 15.05296509 58.64238525 15.74624634 57.83355713 C16.43460571 57.05109619 17.12296509 56.26863525 17.83218384 55.46246338 C19.65861352 53.30819837 19.65861352 53.30819837 19.37124634 50.27105713 C16.6414757 50.18979604 13.91414464 50.1304405 11.18374634 50.08355713 C10.03035767 50.04585205 10.03035767 50.04585205 8.85366821 50.00738525 C2.97648003 49.9317133 -0.56893323 50.72420757 -4.42953491 55.49761963 Z " fill="#0037A5" transform="translate(352.6287536621094,474.72894287109375)"/>
<path d="M0 0 C1.02342247 -0.00744736 1.02342247 -0.00744736 2.06752014 -0.01504517 C4.30088342 -0.02952519 6.53417583 -0.03644282 8.76757812 -0.04199219 C9.91981117 -0.04623325 9.91981117 -0.04623325 11.09532166 -0.05056 C15.15583636 -0.06549057 19.21631606 -0.07476029 23.27685547 -0.07910156 C27.45632643 -0.08459511 31.6354731 -0.10865909 35.81484222 -0.13707352 C39.04401579 -0.15574332 42.27311162 -0.16090767 45.50233459 -0.16243744 C47.04282922 -0.16545176 48.58332288 -0.17343881 50.12376404 -0.18662262 C52.28197703 -0.20378448 54.43940168 -0.20177944 56.59765625 -0.1953125 C57.82230591 -0.19895813 59.04695557 -0.20260376 60.30871582 -0.20635986 C65.44547735 0.33451736 69.31124002 1.89668292 73.29882812 5.28613281 C75.51633095 9.53634655 75.1412273 12.62600046 73.79882812 17.16113281 C70.226955 25.0244872 64.43819497 31.73492977 59.12207031 38.47900391 C56.95470078 41.23420245 54.81323653 44.00919889 52.67382812 46.78613281 C52.25794434 47.32439697 51.84206055 47.86266113 51.41357422 48.41723633 C48.76013797 51.86544936 46.19978839 55.36886823 43.67382812 58.91113281 C35.03065552 70.810651 26.72735642 79.49952937 11.79882812 82.16113281 C5.89325897 82.58148195 0.00979186 82.58463162 -5.90820312 82.55957031 C-7.60446802 82.56159546 -9.30073207 82.56451056 -10.99699402 82.56826782 C-14.53120308 82.57266441 -18.06518302 82.56634277 -21.59936523 82.55224609 C-26.11964635 82.53508978 -30.63939548 82.54505273 -35.15965748 82.56296349 C-38.65388482 82.57381775 -42.14798646 82.57034859 -45.64221764 82.56258011 C-47.30912019 82.56058604 -48.97603434 82.56300936 -50.64292336 82.57001877 C-52.97099623 82.57766791 -55.29821147 82.5659845 -57.6262207 82.54931641 C-58.30737442 82.5553891 -58.98852814 82.56146179 -59.69032288 82.56771851 C-64.23271797 82.50770007 -67.35271415 81.56521667 -71.20117188 79.16113281 C-73.94590872 75.04402755 -74.57072953 72.04545314 -74.20117188 67.16113281 C-70.27932167 58.25587896 -62.81425118 50.38878148 -56.83398438 42.80175781 C-53.44538487 38.49552485 -50.15564442 34.12245736 -46.88867188 29.72363281 C-27.17367323 3.32158097 -27.17367323 3.32158097 -10.97351074 0.62359619 C-7.27577283 0.17027839 -3.72380021 0.02076195 0 0 Z M2.79882812 24.16113281 C2.33565186 24.73774658 1.87247559 25.31436035 1.39526367 25.90844727 C-0.19128426 27.90635101 -1.7303485 29.93463154 -3.26367188 31.97363281 C-3.82223877 32.71049316 -4.38080566 33.44735352 -4.95629883 34.20654297 C-6.70890804 36.52151434 -8.45553408 38.84090138 -10.20117188 41.16113281 C-10.77512695 41.92184082 -11.34908203 42.68254883 -11.94042969 43.46630859 C-20.10102547 52.62704842 -20.10102547 52.62704842 -24.20117188 63.16113281 C-21.47093298 63.26949952 -18.74502645 63.34859976 -16.01367188 63.41113281 C-15.24474609 63.44464844 -14.47582031 63.47816406 -13.68359375 63.51269531 C-10.05488895 63.57499067 -7.78238346 63.48316708 -4.56445312 61.70019531 C-1.23296828 58.12091407 1.58892391 54.26472555 4.42382812 50.28613281 C5.65896303 48.57906772 6.89596328 46.87335084 8.13476562 45.16894531 C8.74803711 44.32493164 9.36130859 43.48091797 9.99316406 42.61132812 C13.03971387 38.47731327 16.22069211 34.45328913 19.42236328 30.43896484 C23.68250618 25.43617618 23.68250618 25.43617618 24.79882812 19.16113281 C22.0679891 19.02564466 19.34391005 18.92683426 16.61132812 18.84863281 C15.45793945 18.78579102 15.45793945 18.78579102 14.28125 18.72167969 C8.62689234 18.60034154 6.42417839 19.53820295 2.79882812 24.16113281 Z " fill="#0037A5" transform="translate(502.201171875,474.8388671875)"/>
<path d="M0 0 C1.02342247 -0.00744736 1.02342247 -0.00744736 2.06752014 -0.01504517 C4.30088342 -0.02952519 6.53417583 -0.03644282 8.76757812 -0.04199219 C9.91981117 -0.04623325 9.91981117 -0.04623325 11.09532166 -0.05056 C15.15583636 -0.06549057 19.21631606 -0.07476029 23.27685547 -0.07910156 C27.45632643 -0.08459511 31.6354731 -0.10865909 35.81484222 -0.13707352 C39.04401579 -0.15574332 42.27311162 -0.16090767 45.50233459 -0.16243744 C47.04282922 -0.16545176 48.58332288 -0.17343881 50.12376404 -0.18662262 C52.28197703 -0.20378448 54.43940168 -0.20177944 56.59765625 -0.1953125 C57.82230591 -0.19895813 59.04695557 -0.20260376 60.30871582 -0.20635986 C65.0437977 0.29222235 69.06202434 1.59800941 72.67382812 4.84863281 C74.36585268 8.3266833 75.2500558 11.32896734 74.79882812 15.16113281 C73.16912596 18.7670519 71.09493853 21.94657825 68.79882812 25.16113281 C68.3641069 25.85914001 67.92938568 26.55714722 67.48149109 27.27630615 C65.79882812 29.16113281 65.79882812 29.16113281 63.69172668 29.64215088 C62.47594185 29.62882721 62.47594185 29.62882721 61.2355957 29.61523438 C60.31486771 29.61493225 59.39413971 29.61463013 58.44551086 29.61431885 C56.95944588 29.58335114 56.95944588 29.58335114 55.44335938 29.55175781 C54.42658615 29.54609802 53.40981293 29.54043823 52.36222839 29.53460693 C49.1114514 29.51219801 45.86177253 29.46199223 42.61132812 29.41113281 C40.40887007 29.3910737 38.20639476 29.37282191 36.00390625 29.35644531 C30.60178977 29.31231822 25.20049519 29.24325862 19.79882812 29.16113281 C21.44882812 25.86113281 23.09882812 22.56113281 24.79882812 19.16113281 C22.02765509 19.30193836 19.25700172 19.44856399 16.48632812 19.59863281 C15.30780273 19.65760742 15.30780273 19.65760742 14.10546875 19.71777344 C13.34814453 19.75966797 12.59082031 19.8015625 11.81054688 19.84472656 C10.765802 19.89971313 10.765802 19.89971313 9.69995117 19.95581055 C7.57717093 20.11694434 7.57717093 20.11694434 4.79882812 21.16113281 C4.09279858 22.47404732 3.43500637 23.81298614 2.79882812 25.16113281 C1.39556055 27.08244237 -0.04767506 28.97474818 -1.51367188 30.84863281 C-2.40727248 31.99678132 -3.30048054 33.14523542 -4.19335938 34.29394531 C-4.67385742 34.91043945 -5.15435547 35.52693359 -5.64941406 36.16210938 C-8.49950161 39.8336822 -11.31732205 43.52996243 -14.13867188 47.22363281 C-14.69401611 47.9496167 -15.24936035 48.67560059 -15.8215332 49.42358398 C-16.84975507 50.76825447 -17.87602777 52.11441874 -18.89990234 53.46240234 C-19.91911085 54.79291881 -20.96367824 56.10401703 -22.01757812 57.40722656 C-23.30468177 59.31451876 -23.79885212 60.90814218 -24.20117188 63.16113281 C-17.40850182 63.30264677 -10.71213463 63.33145373 -4.20117188 61.16113281 C-3.08696716 59.34938216 -3.08696716 59.34938216 -2.20117188 57.16113281 C1.30189811 49.97172017 5.21481869 42.93307692 11.79882812 38.16113281 C20.84560963 35.10157507 30.80575934 36.37076693 40.17382812 36.97363281 C42.75945386 37.06907864 45.34541935 37.15574641 47.93164062 37.23339844 C54.22819293 37.44142863 60.51191075 37.75798218 66.79882812 38.16113281 C64.28406516 44.60915509 61.18458887 51.57255497 55.79882812 56.16113281 C51.10428492 57.79358724 46.75094467 58.19635413 41.79882812 58.16113281 C41.52039063 58.90621094 41.24195313 59.65128906 40.95507812 60.41894531 C37.22353755 69.26874763 30.10863488 75.27090254 21.47070312 79.22753906 C11.26289328 82.92162409 0.26672379 82.32391513 -10.43554688 82.32910156 C-12.00254343 82.33232033 -13.5695397 82.33568486 -15.13653564 82.33918762 C-18.40434466 82.34514466 -21.67212735 82.34703079 -24.93994141 82.34643555 C-29.12172132 82.34633348 -33.30333314 82.36004668 -37.48507309 82.37720776 C-40.7141599 82.38832981 -43.94320587 82.39035478 -47.17230988 82.38982582 C-48.71444535 82.39100327 -50.25658196 82.39541183 -51.79869843 82.40315819 C-53.95218263 82.41297347 -56.10529873 82.41007543 -58.25878906 82.40405273 C-60.09337677 82.40619026 -60.09337677 82.40619026 -61.96502686 82.40837097 C-65.94301214 82.10445698 -68.85657406 81.26562387 -71.95117188 78.72363281 C-74.1337133 75.99545603 -74.73441123 72.80915013 -74.66210938 69.36035156 C-72.66098919 59.81263407 -64.52164675 51.34227233 -58.546875 43.84960938 C-56.71442278 41.55040046 -54.90031386 39.2369808 -53.08520508 36.92407227 C-52.16547422 35.75254704 -51.24474434 34.5818054 -50.32299805 33.41186523 C-46.30312022 28.30765479 -42.34162394 23.16010891 -38.39257812 18.00097656 C-37.66941406 17.06382812 -36.94625 16.12667969 -36.20117188 15.16113281 C-35.5334375 14.278125 -34.86570312 13.39511719 -34.17773438 12.48535156 C-25.58541741 2.38173775 -12.61819201 0.07035241 0 0 Z " fill="#0037A5" transform="translate(946.201171875,474.8388671875)"/>
<path d="M0 0 C0.67434586 -0.00191345 1.34869171 -0.0038269 2.04347229 -0.00579834 C3.46819431 -0.00715782 4.89292882 -0.0034779 6.31762695 0.00488281 C8.49263525 0.01556962 10.66681451 0.00498875 12.84179688 -0.0078125 C14.2278664 -0.00649054 15.61393541 -0.00392738 17 0 C18.25868896 0.00225586 19.51737793 0.00451172 20.81420898 0.00683594 C25.85233547 0.40773783 25.85233547 0.40773783 28.06640625 2.265625 C29.16308594 5.2590332 29.16308594 5.2590332 29.98828125 9.06640625 C30.13799377 9.73979538 30.2877063 10.41318451 30.44195557 11.10697937 C30.7554987 12.53176234 31.06095155 13.95834631 31.35888672 15.38647461 C31.81328473 17.56317201 32.29096601 19.733668 32.7734375 21.90429688 C35.27350442 33.38078427 35.27350442 33.38078427 35.06640625 38.265625 C38.89932066 34.56488005 42.31110223 30.68155201 45.62890625 26.515625 C46.13977783 25.8767334 46.65064941 25.2378418 47.17700195 24.57958984 C52.76920928 17.50380532 57.92796608 10.127259 63.04174805 2.70166016 C64.06640625 1.265625 64.06640625 1.265625 65.06640625 0.265625 C67.28495889 0.17778958 69.50629121 0.15867891 71.7265625 0.16796875 C72.7232621 0.17009117 72.7232621 0.17009117 73.74009705 0.17225647 C75.86974524 0.17786982 77.99928964 0.19042446 80.12890625 0.203125 C81.56965994 0.20813829 83.01041528 0.21270149 84.45117188 0.21679688 C87.98961727 0.22784355 91.52800164 0.24511708 95.06640625 0.265625 C93.91593208 4.11442197 92.75075253 7.09510381 90.23046875 10.2265625 C89.66706787 10.93683594 89.10366699 11.64710938 88.52319336 12.37890625 C87.91870361 13.12527344 87.31421387 13.87164062 86.69140625 14.640625 C85.41294569 16.25171856 84.13562159 17.86371454 82.859375 19.4765625 C82.21919434 20.2819043 81.57901367 21.08724609 80.91943359 21.91699219 C78.22847356 25.3276688 75.60653283 28.78727875 73.00390625 32.265625 C72.27917114 33.23290527 72.27917114 33.23290527 71.53979492 34.21972656 C67.80051477 39.23352192 64.14953762 44.30854292 60.50390625 49.390625 C49.85710983 64.20410916 49.85710983 64.20410916 44.56494141 70.42138672 C42.95804265 72.34060953 42.95804265 72.34060953 41.32958984 74.86376953 C38.07182192 79.26812181 35.75620934 81.87799521 30.29882812 83.12988281 C26.67487109 83.44995742 23.08474036 83.40215472 19.453125 83.23974609 C17.17358629 83.13984403 14.90263579 83.11672475 12.62109375 83.10546875 C1.79641522 82.89584927 1.79641522 82.89584927 -0.77148438 80.67895508 C-2.29432993 77.51649115 -3.04258845 74.32920923 -3.72265625 70.91015625 C-3.87141205 70.20791428 -4.02016785 69.5056723 -4.1734314 68.78215027 C-4.64485062 66.5493758 -5.10240873 64.31405716 -5.55859375 62.078125 C-6.02417956 59.83203345 -6.49266395 57.5866087 -6.96517944 55.34196472 C-7.25800064 53.94733373 -7.54639348 52.55176438 -7.82998657 51.15522766 C-8.29667941 47.93411338 -8.29667941 47.93411338 -9.93359375 45.265625 C-10.68382812 46.26980469 -11.4340625 47.27398438 -12.20703125 48.30859375 C-18.01663967 56.07478131 -23.8687504 63.80262516 -29.8046875 71.47265625 C-31.5698336 73.78839839 -33.2710792 76.12606327 -34.93359375 78.515625 C-36.93359375 81.265625 -36.93359375 81.265625 -38.93359375 82.265625 C-41.11184336 82.35121618 -43.2927463 82.37275912 -45.47265625 82.36328125 C-47.42558594 82.35844727 -47.42558594 82.35844727 -49.41796875 82.35351562 C-50.79817774 82.34515966 -52.17838607 82.33669471 -53.55859375 82.328125 C-54.94661301 82.32311001 -56.33463397 82.3185471 -57.72265625 82.31445312 C-61.12634507 82.30263476 -64.52994814 82.28615934 -67.93359375 82.265625 C-66.70610638 78.93562404 -65.35769506 76.20254379 -63.23828125 73.359375 C-62.6954248 72.62630127 -62.15256836 71.89322754 -61.59326172 71.13793945 C-60.70985107 69.9636438 -60.70985107 69.9636438 -59.80859375 68.765625 C-59.19258301 67.93828857 -58.57657227 67.11095215 -57.94189453 66.25854492 C-51.94122182 58.22125744 -45.85191907 50.25076712 -39.76171875 42.28125 C-32.09992459 32.25140381 -24.49635993 22.1881377 -17.22900391 11.86743164 C-8.86173762 0.01589651 -8.86173762 0.01589651 0 0 Z " fill="#0037A5" transform="translate(801.93359375,474.734375)"/>
<path d="M0 0 C2.84100433 -0.28618725 5.46310581 -0.37815744 8.30517578 -0.34057617 C9.16378204 -0.34101425 10.02238831 -0.34145233 10.90701294 -0.34190369 C13.75334178 -0.33980874 16.59908619 -0.31644467 19.4453125 -0.29296875 C21.41543252 -0.2873753 23.3855567 -0.28310402 25.35568237 -0.28010559 C30.5475003 -0.26863705 35.73906746 -0.23915262 40.93078613 -0.20599365 C46.22595833 -0.17533601 51.52117094 -0.16160948 56.81640625 -0.14648438 C67.21104783 -0.11428482 77.60550308 -0.06306426 88 0 C86.48533678 4.89461009 84.59065172 8.24832532 81.4375 12.3125 C81.02564453 12.84939453 80.61378906 13.38628906 80.18945312 13.93945312 C77.26506696 17.73493304 77.26506696 17.73493304 76 19 C74.58774954 19.0928726 73.17091066 19.11746772 71.75561523 19.11352539 C70.85475693 19.11344986 69.95389862 19.11337433 69.02574158 19.11329651 C68.04658279 19.10813522 67.06742401 19.10297394 66.05859375 19.09765625 C65.06118668 19.0962413 64.0637796 19.09482635 63.03614807 19.09336853 C59.83656876 19.08775114 56.63705831 19.07519571 53.4375 19.0625 C51.27408955 19.05748724 49.11067801 19.05292395 46.94726562 19.04882812 C41.63148675 19.03777607 36.31574829 19.02102104 31 19 C30.773125 19.680625 30.54625 20.36125 30.3125 21.0625 C29 24 29 24 24 31 C37.53 31 51.06 31 65 31 C63.29593044 36.11220867 62.07051788 38.63329411 58.9375 42.75 C56.2363396 46.23095067 56.2363396 46.23095067 54 50 C52.68394775 49.96745117 51.36789551 49.93490234 50.01196289 49.90136719 C45.09703166 49.79588767 40.18428327 49.77033444 35.26831055 49.76806641 C33.1469855 49.75611164 31.02566393 49.72290261 28.9050293 49.66748047 C25.84178146 49.59120509 22.78664718 49.59316564 19.72265625 49.609375 C18.78478775 49.56931335 17.84691925 49.52925171 16.88063049 49.48797607 C13.69816406 49.44132263 13.69816406 49.44132263 9 51 C6.03 54.96 3.06 58.92 0 63 C13.53 63 27.06 63 41 63 C38.5484139 70.35475831 35.58661685 77.45764954 29 82 C22.57633928 84.25273576 15.46498342 83.51407727 8.7734375 83.26953125 C6.8148105 83.24525054 4.85610393 83.2267616 2.89736938 83.21379089 C-2.23071588 83.16441309 -7.35392846 83.03697222 -12.48010254 82.89263916 C-17.72174152 82.75907024 -22.96417697 82.70015746 -28.20703125 82.63476562 C-38.47348236 82.49580712 -48.73633435 82.27427632 -59 82 C-51.63627593 62.81175719 -34.16063615 45.07384148 -21.58691406 29.02783203 C-10.42384505 14.78458514 -10.42384505 14.78458514 0 0 Z " fill="#0037A5" transform="translate(611,475)"/>
<path d="M0 0 C1.88340522 0.0009477 3.76698031 0.0347228 5.64941406 0.09521484 C6.64257629 0.10370453 7.63573853 0.11219421 8.65899658 0.12094116 C11.82878447 0.15450846 14.99602121 0.22979625 18.16503906 0.30615234 C20.31474189 0.33624754 22.46448462 0.36362411 24.61425781 0.38818359 C29.88205421 0.45430982 35.14836441 0.55469021 40.41503906 0.68115234 C39.03637418 5.04044134 37.61211357 8.1316149 34.79003906 11.74365234 C33.58541016 13.30599609 33.58541016 13.30599609 32.35644531 14.89990234 C31.66639404 15.78548828 31.66639404 15.78548828 30.96240234 16.68896484 C27.85735291 20.68663026 24.79630577 24.71811587 21.72753906 28.74365234 C20.69632935 30.09354248 20.69632935 30.09354248 19.64428711 31.47070312 C14.47312908 38.25276691 9.40500347 45.10497423 4.36914062 51.98779297 C-0.34304569 58.40634958 -5.15049878 64.7660372 -10.28930664 70.85205078 C-11.71301614 72.71959245 -11.71301614 72.71959245 -12.66772461 75.28369141 C-14.30626323 78.68156316 -15.51953374 80.43224128 -18.58496094 82.68115234 C-25.84882925 84.41575701 -33.62882 83.61371295 -41.02246094 83.30615234 C-43.11024565 83.25596132 -45.19814553 83.21033923 -47.28613281 83.16943359 C-52.38859275 83.05952976 -57.48551407 82.88717139 -62.58496094 82.68115234 C-61.81898912 78.08338226 -60.08986406 75.11973222 -57.33496094 71.43115234 C-56.89313477 70.8261792 -56.45130859 70.22120605 -55.99609375 69.59790039 C-51.97087438 64.11928434 -47.82674117 58.72932981 -43.67895508 53.34326172 C-39.63890005 48.09007723 -35.68783282 42.77775962 -31.77246094 37.43115234 C-25.9231282 29.44363904 -19.95123816 21.55574118 -13.91381836 13.70947266 C-13.27677979 12.87899414 -12.63974121 12.04851562 -11.98339844 11.19287109 C-11.14301025 10.10171997 -11.14301025 10.10171997 -10.28564453 8.98852539 C-8.43668365 6.62722687 -8.43668365 6.62722687 -7.01220703 3.43579102 C-4.28593313 0.34179097 -3.89019772 0.25342292 0 0 Z " fill="#0037A5" transform="translate(726.5849609375,474.31884765625)"/>
</svg>
