<?xml version="1.0" encoding="UTF-8"?>
<svg version="1.1" xmlns="http://www.w3.org/2000/svg" width="1080" height="1080">
<path d="M0 0 C19.47 0 38.94 0 59 0 C59 21.45 59 42.9 59 65 C69.89 65 80.78 65 92 65 C92 43.55 92 22.1 92 0 C111.8 0 131.6 0 152 0 C152 57.42 152 114.84 152 174 C132.2 174 112.4 174 92 174 C92 149.58 92 125.16 92 100 C81.11 100 70.22 100 59 100 C59 124.42 59 148.84 59 174 C39.53 174 20.06 174 0 174 C0 116.58 0 59.16 0 0 Z " fill="#E22023" transform="translate(236,453)"/>
<path d="M0 0 C26.07 0 52.14 0 79 0 C80.81543898 4.84117061 82.45698192 9.30209111 83.7956543 14.22875977 C84.11924927 15.4120285 84.44284424 16.59529724 84.77624512 17.81442261 C85.12560273 19.10674155 85.47492607 20.39906976 85.82421875 21.69140625 C86.20255758 23.07953651 86.58127161 24.46756455 86.96032715 25.85549927 C87.77744404 28.84998709 88.59230811 31.845075 89.40536499 34.84066772 C91.38390514 42.13001808 93.37284851 49.41653264 95.36123085 56.7032032 C95.83153425 58.42692074 96.30168501 60.15067994 96.77168846 61.87447929 C100.69159549 76.25051297 104.6498104 90.61572481 108.625 104.9765625 C109.17872 106.9779138 109.73241578 108.97927181 110.28608704 110.9806366 C112.45776749 118.82956579 114.6295624 126.67845978 116.8074646 134.52566528 C118.08758916 139.13814813 119.36491975 143.75139604 120.64027405 148.36520004 C121.11189143 150.06916701 121.5846044 151.77283118 122.05848694 153.47616959 C122.70870328 155.81367026 123.35515195 158.15218224 124.00073242 160.4909668 C124.19017772 161.16838204 124.37962301 161.84579729 124.57480907 162.54374027 C125.62868883 166.37941762 126.34153499 170.04920994 127 174 C106.21 174 85.42 174 64 174 C59 146 59 146 59 143 C45.8 143 32.6 143 19 143 C18.01 149.435 18.01 149.435 17 156 C15.68 161.94 14.36 167.88 13 174 C-6.8 174 -26.6 174 -47 174 C-44.67475832 164.11772286 -42.36094713 154.31053252 -39.67529297 144.53393555 C-39.36890396 143.4090976 -39.06251495 142.28425964 -38.74684143 141.12533569 C-37.74813975 137.46167884 -36.7452369 133.79918742 -35.7421875 130.13671875 C-35.03143927 127.5345595 -34.32154483 124.93216751 -33.61160278 122.32978821 C-32.12585692 116.88541446 -30.63792764 111.44164153 -29.1484375 105.99829102 C-27.27031902 99.13466757 -25.39558711 92.27012437 -23.5220623 85.40524578 C-21.87573401 79.37289849 -20.22795846 73.34094665 -18.57988977 67.30907464 C-18.06866239 65.43786992 -17.55758162 63.56662515 -17.04650497 61.69537926 C-11.42327359 41.11354991 -5.71058378 20.55810159 0 0 Z M39 30 C37.17363294 40.41325998 35.34817119 50.82667822 33.52388 61.24030209 C32.67685117 66.07523799 31.82950509 70.91011786 30.98144531 75.74487305 C30.16374103 80.40664024 29.34685528 85.06855018 28.5305481 89.73056221 C28.21824577 91.51329265 27.90564352 93.29597058 27.59274292 95.07859612 C27.15609752 97.5665025 26.72049835 100.05458989 26.28515625 102.54272461 C26.15424591 103.28718842 26.02333557 104.03165222 25.88845825 104.79867554 C25.26477925 107.88116424 25.26477925 107.88116424 25 111 C34.24 111 43.48 111 53 111 C51.33292573 96.42257218 49.0162904 81.95166927 46.68652344 67.46850586 C46.10801996 63.86969527 45.53906028 60.26944077 44.97215271 56.66878796 C44.53101873 53.87734576 44.08328724 51.08699139 43.63369751 48.2968998 C43.31781473 46.32612703 43.00882332 44.35425367 42.69995117 42.38237 C42.5063501 41.19295303 42.31274902 40.00353607 42.11328125 38.77807617 C41.94610596 37.73157394 41.77893066 36.68507172 41.60668945 35.6068573 C41.11123252 32.785883 41.11123252 32.785883 39 30 Z " fill="#E22023" transform="translate(449,453)"/>
<path d="M0 0 C0.70692993 -0.00100708 1.41385986 -0.00201416 2.14221191 -0.00305176 C23.48674346 0.01745907 47.57975326 1.69018281 64.0625 17 C75.79598711 29.64716029 74.6875 43.42519417 74.6875 60.25 C56.2075 60.25 37.7275 60.25 18.6875 60.25 C18.3575 55.63 18.0275 51.01 17.6875 46.25 C15.77422848 39.05053768 15.77422848 39.05053768 10.75 34.125 C2.49068294 31.63296468 -6.67766539 32.4325827 -14.3125 36.25 C-16.90140605 38.42981004 -17.29528264 39.18359018 -18.1875 42.625 C-18.33277896 46.8380898 -17.9579465 48.02586207 -15.3125 51.25 C-10.72960343 55.62310519 -5.79968722 58.99747533 -0.3125 62.125 C0.42444092 62.55135742 1.16138184 62.97771484 1.9206543 63.41699219 C10.93703387 68.59901941 20.08663775 73.51027718 29.4375 78.0625 C48.92960733 87.75572953 68.65968134 98.08926124 76.7890625 119.50390625 C77.86975818 122.80707609 78.49443475 125.77482542 78.6875 129.25 C78.73777344 130.00667969 78.78804687 130.76335937 78.83984375 131.54296875 C79.23773743 141.80862576 76.44923014 149.57060649 69.6875 157.25 C69.20796875 157.83394531 68.7284375 158.41789063 68.234375 159.01953125 C59.14909927 169.18310991 45.61544456 174.16022724 32.6875 177.25 C32.00719727 177.41371094 31.32689453 177.57742188 30.62597656 177.74609375 C1.77953886 184.27940018 -34.96857872 183.11464792 -60.65625 167.12890625 C-70.30040802 160.30708271 -75.09765041 152.50197355 -78.3125 141.25 C-78.3125 133.33 -78.3125 125.41 -78.3125 117.25 C-59.1725 117.25 -40.0325 117.25 -20.3125 117.25 C-19.9825 123.52 -19.6525 129.79 -19.3125 136.25 C-16.2751923 143.92078916 -16.2751923 143.92078916 -12.4375 146.25 C-5.45530177 148.57237263 3.46332979 148.35658457 10.375 145.9375 C14.964431 143.60455642 14.964431 143.60455642 17.33984375 139.26953125 C17.98534517 134.27352713 17.79798244 130.60038328 15.20703125 126.20703125 C6.33289813 114.7778778 -9.73790018 108.46825176 -22.41162109 102.23950195 C-67.13503522 80.25540683 -67.13503522 80.25540683 -73.3125 62.25 C-76.86184834 51.0325408 -76.10541546 38.74418052 -71.125 28.0625 C-64.13557124 15.24177456 -52.90318525 8.7964078 -39.3125 4.25 C-26.18175467 0.98087849 -13.4890195 0.0133376 0 0 Z " fill="#E22023" transform="translate(661.3125,449.75)"/>
<path d="M0 0 C14.685 -0.061875 29.37 -0.12375 44.5 -0.1875 C49.08455078 -0.21481201 53.66910156 -0.24212402 58.39257812 -0.27026367 C124.01492477 -0.49850797 124.01492477 -0.49850797 142.28515625 14.9296875 C153.42997305 26.30365007 154.25440376 40.86431279 154.2487793 55.88500977 C154.12874173 67.27648828 152.28840186 76.38829716 146 86 C145.443125 86.86625 144.88625 87.7325 144.3125 88.625 C133.32995146 99.90437417 117.75106267 104.94487921 102.25317383 105.22705078 C100.23776526 105.22656047 98.22233475 105.2158975 96.20703125 105.1953125 C95.25485718 105.19329834 94.30268311 105.19128418 93.32165527 105.18920898 C89.81855339 105.17886999 86.31552103 105.15094915 82.8125 105.125 C71.0253125 105.063125 71.0253125 105.063125 59 105 C59 127.77 59 150.54 59 174 C39.53 174 20.06 174 0 174 C0 116.58 0 59.16 0 0 Z M59 31 C59 45.19 59 59.38 59 74 C75.23033492 75.09771204 75.23033492 75.09771204 90.0625 69.6875 C93.98597679 64.245258 94.3392319 59.63689132 94.3125 53.125 C94.32861328 52.34769531 94.34472656 51.57039063 94.36132812 50.76953125 C94.36581459 45.43063985 93.51428146 41.72852933 91 37 C86.74921257 32.96175194 83.29538853 31.91714406 77.5625 31.4375 C76.14130859 31.31181641 76.14130859 31.31181641 74.69140625 31.18359375 C69.46703704 30.9237574 64.23082675 31 59 31 Z " fill="#E22023" transform="translate(59,453)"/>
<path d="M0 0 C43.23 0 86.46 0 131 0 C131 11.22 131 22.44 131 34 C107.24 34 83.48 34 59 34 C59 45.22 59 56.44 59 68 C79.79 68 100.58 68 122 68 C122 79.22 122 90.44 122 102 C101.21 102 80.42 102 59 102 C59 114.54 59 127.08 59 140 C83.75 140 108.5 140 134 140 C134 151.22 134 162.44 134 174 C89.78 174 45.56 174 0 174 C0 116.58 0 59.16 0 0 Z " fill="#E22023" transform="translate(763,453)"/>
<path d="M0 0 C16.17 0 32.34 0 49 0 C49 56.43 49 112.86 49 171 C30.52 171 12.04 171 -7 171 C-7 128.76 -7 86.52 -7 43 C-20.2 43 -33.4 43 -47 43 C-47 34.75 -47 26.5 -47 18 C-44.009375 17.608125 -41.01875 17.21625 -37.9375 16.8125 C-23.97504548 14.79896948 -8.91571288 11.88761717 0 0 Z " fill="#E22023" transform="translate(972,456)"/>
</svg>
