<?xml version="1.0" encoding="UTF-8"?>
<svg version="1.1" xmlns="http://www.w3.org/2000/svg" width="1080" height="1080">
<path d="M0 0 C11.55 0 23.1 0 35 0 C35 52.47 35 104.94 35 159 C5.3 159 -24.4 159 -55 159 C-55.99 156.03 -56.98 153.06 -58 150 C-58.52207031 150.45890625 -59.04414062 150.9178125 -59.58203125 151.390625 C-69.75497977 159.87105143 -80.72357119 162.77038824 -93.91796875 161.78125 C-103.9781901 160.30556168 -111.87503225 156.38735883 -118.3046875 148.421875 C-124.84310897 139.0812729 -125.16575695 129.0680523 -124 118 C-122.21207451 108.81172068 -115.95383732 101.45582064 -108.390625 96.1796875 C-93.38330629 87.54831055 -77.93343389 85.6175636 -61 86 C-62.2734972 79.00993538 -62.2734972 79.00993538 -67 74 C-78.24468903 69.21502595 -90.91134208 72.20216642 -102 76 C-103.61068359 76.81017578 -103.61068359 76.81017578 -105.25390625 77.63671875 C-108 79 -108 79 -111 79 C-112.00427892 75.54289448 -113.0026944 72.08412303 -114 68.625 C-114.28617188 67.64015625 -114.57234375 66.6553125 -114.8671875 65.640625 C-115.13789062 64.69960938 -115.40859375 63.75859375 -115.6875 62.7890625 C-115.93886719 61.91975098 -116.19023438 61.05043945 -116.44921875 60.15478516 C-117 58 -117 58 -117 56 C-102.81617118 49.78325801 -89.85087295 46.76940441 -74.3125 46.625 C-73.27947754 46.61098145 -72.24645508 46.59696289 -71.18212891 46.58251953 C-58.62070855 46.66046629 -47.16559525 49.41707426 -37.7421875 58.07421875 C-27.24873694 69.16784821 -25.72025093 81.74894768 -25.65625 96.49609375 C-25.6416272 97.76598648 -25.62700439 99.03587921 -25.61193848 100.34425354 C-25.55776827 105.06299798 -25.52019126 109.78176029 -25.48431396 114.50067139 C-25.44816762 119.14513371 -25.39751259 123.78929486 -25.34375 128.43359375 C-25.33583435 130.27877846 -25.33583435 130.27877846 -25.32775879 132.16123962 C-25.31434448 133.29324295 -25.30093018 134.42524628 -25.28710938 135.59155273 C-25.27617249 137.08971779 -25.27617249 137.08971779 -25.26501465 138.6181488 C-25.23030728 141.18607738 -25.23030728 141.18607738 -23 143 C-11.615 143.495 -11.615 143.495 0 144 C0 96.48 0 48.96 0 0 Z M-87 115 C-89.9156441 119.37346615 -90.56872801 122.78665994 -90 128 C-88.34113226 131.64950902 -86.5416427 134.08559854 -83 136 C-76.88617538 137.42655908 -72.50652496 137.11733025 -67 134 C-62.67772542 130.92085749 -60.27296773 127.70555411 -59.234375 122.3671875 C-58.76078302 117.58390848 -58.85603153 112.79894884 -59 108 C-68.88381989 107.48382372 -79.22653665 108.19821957 -87 115 Z " fill="#346736" transform="translate(668,511)"/>
<path d="M0 0 C11.55 0 23.1 0 35 0 C35 19.14 35 38.28 35 58 C53.15 58 71.3 58 90 58 C90 38.86 90 19.72 90 0 C101.22 0 112.44 0 124 0 C124 49.83 124 99.66 124 151 C112.78 151 101.56 151 90 151 C90 130.21 90 109.42 90 88 C71.85 88 53.7 88 35 88 C35 108.79 35 129.58 35 151 C23.45 151 11.9 151 0 151 C0 101.17 0 51.34 0 0 Z " fill="#346736" transform="translate(64,519)"/>
<path d="M0 0 C11.22 0 22.44 0 34 0 C34.33 19.8 34.66 39.6 35 60 C37.97 57.36 40.94 54.72 44 52 C47.43092853 50.42580926 50.44953962 49.0853739 54 48 C54.58910156 47.80792969 55.17820312 47.61585938 55.78515625 47.41796875 C68.77149139 44.96728469 81.52711158 47.12666383 92.6171875 54.21875 C103.8256967 62.59756999 109.780885 75.42423764 112 89 C114.33140344 107.65122752 112.67051269 127.34162232 100.859375 142.76171875 C100.24578125 143.50035156 99.6321875 144.23898437 99 145 C98.14148438 146.06154297 98.14148438 146.06154297 97.265625 147.14453125 C89.83987834 155.44296181 78.99727616 160.53411471 68.00390625 161.8515625 C54.67702302 162.5101081 44.14012999 159.79111048 34 151 C32.26329515 149.38161081 30.62825968 147.73002591 29 146 C29.01160156 146.77085937 29.02320313 147.54171875 29.03515625 148.3359375 C29.04417969 149.33882812 29.05320312 150.34171875 29.0625 151.375 C29.07410156 152.37273437 29.08570313 153.37046875 29.09765625 154.3984375 C29 157 29 157 28 159 C18.43 159 8.86 159 -1 159 C-1.02063226 139.30134721 -0.96056066 119.60731238 -0.79807091 99.90932894 C-0.76917253 96.37407895 -0.74166733 92.83881807 -0.71398926 89.30355835 C-0.66180869 82.66405581 -0.60844722 76.02456337 -0.5546174 69.38507402 C-0.49320564 61.80290975 -0.43317747 54.22073469 -0.37324238 46.63855863 C-0.250324 31.0923602 -0.12556091 15.54617735 0 0 Z M37.2265625 83.609375 C33.81250602 90.2635233 33.66112329 97.12060142 33.6875 104.4375 C33.67138672 105.32759766 33.65527344 106.21769531 33.63867188 107.13476562 C33.63315204 114.69141716 35.02190996 120.9165067 39.125 127.3125 C43.69431094 131.5838124 48.36097996 133.67590982 54.5625 134.4375 C63.23499461 133.33372796 67.81022883 130.10113436 73.1875 123.1875 C78.50437223 113.83713849 78.5672173 100.79096081 75.875 90.5 C73.59484839 84.20041835 70.13291406 78.89901701 64.25 75.5 C53.4603251 70.88761989 43.9637728 74.65151997 37.2265625 83.609375 Z " fill="#346736" transform="translate(418,511)"/>
<path d="M0 0 C0.69996094 0.26683594 1.39992188 0.53367187 2.12109375 0.80859375 C13.45595715 5.78002506 19.91122352 15.1519259 25 26 C28.0188584 34.29402619 29.14320311 42.68969556 29.125 51.5 C29.12886719 53.37171875 29.12886719 53.37171875 29.1328125 55.28125 C29 59 29 59 28 66 C4.9 66 -18.2 66 -42 66 C-38.78349575 74.57734468 -37.27269349 76.93536588 -29.8359375 81.2578125 C-17.21076095 86.98924186 -1.02552698 84.80882255 12.06640625 81.65625 C15 81 15 81 19 81 C19.67117267 84.43663614 20.33616071 87.87444041 21 91.3125 C21.19078125 92.28896484 21.3815625 93.26542969 21.578125 94.27148438 C21.75859375 95.20927734 21.9390625 96.14707031 22.125 97.11328125 C22.29257812 97.97735596 22.46015625 98.84143066 22.6328125 99.73168945 C23 102 23 102 23 105 C21.0868429 105.63566188 19.16919111 106.25779535 17.25 106.875 C16.18265625 107.22304688 15.1153125 107.57109375 14.015625 107.9296875 C-6.62542804 113.82867891 -31.36373079 113.8307552 -50.8125 104.375 C-62.90166027 97.1538374 -70.22773163 86.65343449 -74.09375 73.19140625 C-78.4432049 53.51817738 -75.65406593 35.048455 -65 18 C-57.25802037 6.84522935 -45.66679629 0.77781153 -32.75 -2.5859375 C-22.03333559 -4.19952618 -10.12183677 -4.0105391 0 0 Z M-34.72265625 24.515625 C-39.17220008 29.36967281 -42 34.29150736 -42 41 C-29.46 41 -16.92 41 -4 41 C-4.97017446 32.26842986 -5.76235998 27.75333831 -12.1875 22.0625 C-19.95020768 19.12992154 -28.22657829 18.80025482 -34.72265625 24.515625 Z " fill="#346736" transform="translate(905,561)"/>
<path d="M0 0 C0.98226562 0.79470703 0.98226562 0.79470703 1.984375 1.60546875 C2.59796875 2.08371094 3.2115625 2.56195312 3.84375 3.0546875 C12.35915291 10.53392413 17.70990533 23.5444751 18.984375 34.60546875 C19.93047429 54.76717088 19.93047429 54.76717088 17.984375 60.60546875 C-5.115625 60.60546875 -28.215625 60.60546875 -52.015625 60.60546875 C-46.9464781 71.20979178 -46.9464781 71.20979178 -37.81616211 76.44995117 C-31.68837577 78.3943989 -26.17882203 79.08113371 -19.765625 78.98046875 C-18.85756104 78.97466797 -17.94949707 78.96886719 -17.01391602 78.96289062 C-10.32070205 78.83500613 -4.21753377 77.96015032 2.26953125 76.26171875 C4.984375 75.60546875 4.984375 75.60546875 8.984375 75.60546875 C9.65944566 78.66617809 10.32292422 81.72928965 10.984375 84.79296875 C11.17515625 85.65728516 11.3659375 86.52160156 11.5625 87.41210938 C11.74296875 88.25322266 11.9234375 89.09433594 12.109375 89.9609375 C12.27695312 90.73074951 12.44453125 91.50056152 12.6171875 92.29370117 C13.00988415 94.76607122 13.04622785 97.10622684 12.984375 99.60546875 C11.04967724 100.23908996 9.11140761 100.86180526 7.171875 101.48046875 C6.09292969 101.82851563 5.01398438 102.1765625 3.90234375 102.53515625 C-5.6642674 105.28998594 -14.96620464 105.94496663 -24.890625 105.91796875 C-26.65599609 105.94213867 -26.65599609 105.94213867 -28.45703125 105.96679688 C-45.05827353 105.97592847 -59.67233761 101.6688275 -71.828125 90.01953125 C-84.12609373 76.44784433 -85.7789683 59.81529625 -85.19482422 42.34619141 C-84.19622791 27.0733819 -76.98059068 14.00266922 -66.015625 3.60546875 C-48.39232907 -11.28022781 -18.99871103 -14.04101819 0 0 Z M-44.703125 19.66796875 C-48.28334347 24.21581383 -52.015625 29.68069798 -52.015625 35.60546875 C-39.145625 35.60546875 -26.275625 35.60546875 -13.015625 35.60546875 C-14.98252093 24.79567657 -14.98252093 24.79567657 -21.703125 17.29296875 C-29.94298148 13.09530601 -37.44613761 14.09865285 -44.703125 19.66796875 Z " fill="#346736" transform="translate(295.015625,566.39453125)"/>
<path d="M0 0 C1.03189453 0.00565979 2.06378906 0.01131958 3.12695312 0.01715088 C6.3976229 0.03940244 9.6671657 0.0895787 12.9375 0.140625 C15.16534868 0.16070446 17.39321466 0.17895269 19.62109375 0.1953125 C25.06067109 0.23581568 30.49783576 0.31412972 35.9375 0.390625 C35.9375 8.970625 35.9375 17.550625 35.9375 26.390625 C24.3875 26.390625 12.8375 26.390625 0.9375 26.390625 C0.9375 35.960625 0.9375 45.530625 0.9375 55.390625 C10.1775 55.390625 19.4175 55.390625 28.9375 55.390625 C28.9375 62.980625 28.9375 70.570625 28.9375 78.390625 C19.0375 78.390625 9.1375 78.390625 -1.0625 78.390625 C-1.0625 111.720625 -1.0625 145.050625 -1.0625 179.390625 C-9.6425 179.390625 -18.2225 179.390625 -27.0625 179.390625 C-27.97954428 156.69377898 -28.15072721 134.03881598 -28.125 111.328125 C-28.12414398 110.56715767 -28.12328796 109.80619034 -28.12240601 109.02216339 C-28.11088452 99.47829085 -28.08986313 89.93446543 -28.0625 80.390625 C-34.0025 80.390625 -39.9425 80.390625 -46.0625 80.390625 C-46.0625 72.140625 -46.0625 63.890625 -46.0625 55.390625 C-39.7925 55.390625 -33.5225 55.390625 -27.0625 55.390625 C-27.10890625 52.90789063 -27.1553125 50.42515625 -27.203125 47.8671875 C-27.23442483 45.43117308 -27.25865292 42.99518207 -27.28222656 40.55908203 C-27.30219699 38.88124369 -27.32938332 37.20347364 -27.36425781 35.52587891 C-27.58700172 24.52626068 -27.17234211 16.14250846 -21.3125 6.515625 C-14.95158277 0.50809206 -8.46567022 -0.17711692 0 0 Z " fill="#346736" transform="translate(816.0625,490.609375)"/>
<path d="M0 0 C0 10.89 0 21.78 0 33 C-4.29 33 -8.58 33 -13 33 C-19.3669033 34.53128054 -23.47732116 36.2619555 -28 41 C-31.26450369 47.19130011 -32.09954115 53.0842641 -32.20532227 60.00537109 C-32.22526749 61.16612152 -32.24521271 62.32687195 -32.26576233 63.52279663 C-32.28247482 64.76050812 -32.29918732 65.9982196 -32.31640625 67.2734375 C-32.33718735 68.55231842 -32.35796844 69.83119934 -32.37937927 71.14883423 C-32.4335522 74.53205204 -32.48384226 77.91528165 -32.53222656 81.29858398 C-32.58265931 84.75770135 -32.6381819 88.21673685 -32.69335938 91.67578125 C-32.80105518 98.45045717 -32.90030795 105.22518267 -33 112 C-44.22 112 -55.44 112 -67 112 C-67.1320163 101.34916357 -67.26268722 90.69831278 -67.39115143 80.0474329 C-67.45088775 75.09891316 -67.51115651 70.15040124 -67.57275391 65.2019043 C-67.83464658 44.13317831 -68.06756158 23.07076818 -68 2 C-58.1 2 -48.2 2 -38 2 C-37.67 6.29 -37.34 10.58 -37 15 C-36.67 15.99 -36.34 16.98 -36 18 C-35.53851563 17.27554688 -35.07703125 16.55109375 -34.6015625 15.8046875 C-25.0725069 1.68059323 -17.11762215 0 0 0 Z " fill="#346736" transform="translate(401,558)"/>
<path d="M0 0 C11.55 0 23.1 0 35 0 C35 36.3 35 72.6 35 110 C23.45 110 11.9 110 0 110 C0 73.7 0 37.4 0 0 Z " fill="#336735" transform="translate(729,560)"/>
<path d="M0 0 C2.69849979 1.01264457 3.80479051 1.64986235 5.23046875 4.20703125 C5.54628906 5.06683594 5.86210938 5.92664063 6.1875 6.8125 C6.67283203 8.09060547 6.67283203 8.09060547 7.16796875 9.39453125 C11.47842712 22.89253939 10.03200303 38.09975736 3.6796875 50.59765625 C-4.38073985 64.84655378 -16.11753324 75.16793464 -28.92578125 85.00854492 C-33.24563076 88.34002531 -37.24934759 91.89624236 -41.1328125 95.734375 C-43 97 -43 97 -45.08203125 96.96484375 C-49.18411269 94.90127122 -50.43825057 90.07818954 -52 86 C-55.92273598 73.2248062 -56.25970646 61.02169926 -50 49 C-42.38534157 34.97408965 -31.64477137 25.29067884 -19 16 C-12.43851491 10.91226764 -6.14595894 5.5818371 0 0 Z " fill="#346736" transform="translate(1007,407)"/>
<path d="M0 0 C14.5621746 11.63098004 23.04528829 26.35045878 30.94067383 42.92797852 C32.00816996 45.16671021 33.09198156 47.39702676 34.17773438 49.62695312 C34.86683607 51.05683391 35.55502363 52.48715569 36.2421875 53.91796875 C36.72480797 54.9116169 36.72480797 54.9116169 37.21717834 55.92533875 C38.57460418 58.79260075 39.42578125 60.72263569 39.42578125 63.9375 C26.61035177 69.11296191 13.03679072 68.20122569 0.42578125 62.9375 C-2.82421875 61.1875 -2.82421875 61.1875 -5.57421875 58.9375 C-6.24582031 58.40640625 -6.91742187 57.8753125 -7.609375 57.328125 C-22.04873448 45.34073222 -29.1061202 29.03817974 -36.12109375 12.13671875 C-37.90115025 8.21772339 -40.06530534 4.68273855 -42.47265625 1.12109375 C-43.76779834 -1.44622692 -43.78371225 -3.22436183 -43.57421875 -6.0625 C-29.4451336 -10.40991082 -12.4077446 -8.34134091 0 0 Z " fill="#346736" transform="translate(913.57421875,452.0625)"/>
<path d="M0 0 C1.9921875 0.15625 1.9921875 0.15625 4 1 C5.1953125 2.53125 5.1953125 2.53125 6.125 4.5 C6.43695312 5.1290625 6.74890625 5.758125 7.0703125 6.40625 C11.43155926 18.57376197 12.27623937 34.00218136 7.4453125 46.11328125 C0.33593986 60.31281201 -9.47182417 71.77581244 -21.95703125 81.55859375 C-24.32800239 83.46084916 -26.61292536 85.39644631 -28.88671875 87.41015625 C-29.55735352 88.00320557 -30.22798828 88.59625488 -30.91894531 89.20727539 C-32.24193768 90.38225518 -33.5604803 91.56226878 -34.87402344 92.74780273 C-35.48149414 93.28477783 -36.08896484 93.82175293 -36.71484375 94.375 C-37.25230225 94.85710937 -37.78976074 95.33921875 -38.34350586 95.8359375 C-40.20683862 97.145351 -41.77635757 97.58376657 -44 98 C-51.04341908 85.55434686 -55.24866837 72.3125295 -52 58 C-48.52962815 48.26499233 -42.99106285 39.57150164 -36 32 C-35.23945312 31.17113281 -34.47890625 30.34226562 -33.6953125 29.48828125 C-28.56646055 24.13821683 -23.09946319 19.72014169 -17.109375 15.375 C-11.01815095 10.72240675 -5.41732674 5.41732674 0 0 Z " fill="#346736" transform="translate(1002,485)"/>
<path d="M0 0 C12.21 0 24.42 0 37 0 C37 11.88 37 23.76 37 36 C24.79 36 12.58 36 0 36 C0 24.12 0 12.24 0 0 Z " fill="#346736" transform="translate(728,512)"/>
</svg>
