<?xml version="1.0" encoding="UTF-8"?>
<svg version="1.1" xmlns="http://www.w3.org/2000/svg" width="1080" height="1080">
<path d="M0 0 C0.86786133 0.22913086 1.73572266 0.45826172 2.62988281 0.69433594 C65.55442099 17.61006235 127.7653367 57.31062829 168 109 C168.93739296 110.15065154 169.87768676 111.29894377 170.8203125 112.4453125 C227.19966199 181.28966998 251.83420441 270.4870976 243.359375 358.61523438 C240.5826747 384.76752574 234.61585082 410.17147731 226 435 C225.70399902 435.85480957 225.40799805 436.70961914 225.10302734 437.59033203 C206.61116043 490.16877373 171.85202985 543.01449533 127.6875 577.87109375 C124.8531103 580.11635885 122.12002994 582.45908438 119.375 584.8125 C53.25381602 639.81446048 -35.72210988 664.15578432 -120.7421875 656.75 C-190.69793048 649.92878814 -259.53897794 622.2803622 -311.5234375 574.265625 C-313.58592874 572.37880336 -315.67788158 570.54559182 -317.79296875 568.71875 C-321.99801751 565.04742651 -325.99345494 561.1988537 -329.9375 557.25 C-330.63697754 556.5497168 -331.33645508 555.84943359 -332.05712891 555.12792969 C-336.64572129 550.48500291 -340.90945819 545.75430091 -344.94140625 540.6171875 C-347.15698224 537.80042107 -349.47945004 535.09504877 -351.8125 532.375 C-407.19424081 465.79725912 -430.92611864 376.9077568 -423.75 291.4140625 C-417.1705324 221.94153809 -388.87753051 153.0248854 -341.265625 101.4765625 C-339.37880336 99.41407126 -337.54559182 97.32211842 -335.71875 95.20703125 C-332.04742651 91.00198249 -328.1988537 87.00654506 -324.25 83.0625 C-323.5497168 82.36302246 -322.84943359 81.66354492 -322.12792969 80.94287109 C-317.48500291 76.35427871 -312.75430091 72.09054181 -307.6171875 68.05859375 C-304.80042107 65.84301776 -302.09504877 63.52054996 -299.375 61.1875 C-248.86295703 19.16978005 -184.13528046 -5.27707735 -119 -11 C-117.14181641 -11.16822266 -117.14181641 -11.16822266 -115.24609375 -11.33984375 C-76.36689223 -14.29936587 -37.6030438 -10.011283 0 0 Z " fill="#00A8E2" transform="translate(625,161)"/>
<path d="M0 0 C6.03738208 0.67082023 11.52942765 1.48509999 17.359375 2.90234375 C26.92558162 5.11537948 36.50251584 6.44434801 46.25 7.5625 C47.13231293 7.66639038 48.01462585 7.77028076 48.92367554 7.87731934 C69.79394687 10.31727724 90.74568487 11.73645741 111.72610474 12.82931519 C113.51818849 12.92274563 115.31020866 13.01758885 117.1018486 13.11917496 C130.82350406 13.89457363 144.51161001 14.15692485 158.25386047 14.19923019 C161.81069024 14.21124815 165.36741051 14.23074091 168.92419434 14.25234985 C179.01827407 14.31329537 189.11232967 14.36827665 199.20654297 14.40136719 C205.42297306 14.42227485 211.63918081 14.45750819 217.85548401 14.50212479 C220.21258442 14.51627278 222.56972389 14.5250045 224.92686462 14.52817917 C228.20473814 14.53307275 231.48201328 14.55617869 234.75976562 14.58349609 C236.21215889 14.57898689 236.21215889 14.57898689 237.69389343 14.5743866 C242.59875401 14.63527002 246.0427496 14.75957025 250 18 C255.06221244 24.77577789 256.31684366 32.77618127 257 41 C257.07718262 41.73976074 257.15436523 42.47952148 257.23388672 43.24169922 C257.46666779 45.6398856 257.61763009 48.03184213 257.75 50.4375 C257.82645752 51.19482422 257.90291504 51.95214844 257.98168945 52.73242188 C258.05312405 55.14461036 257.91428077 56.76108309 257 59 C254.06038896 61.72054124 250.58236494 63.26359458 247 65 C245.74819433 65.64783525 244.49863429 66.30002235 243.25097656 66.95581055 C239.69588961 68.8174203 236.12339115 70.64258764 232.54498291 72.45889282 C190.64358419 93.74947481 151.05300202 117.67215281 115 148 C114.46842285 148.44666016 113.9368457 148.89332031 113.38916016 149.35351562 C105.32833462 156.14399732 97.47342495 163.12365273 89.78515625 170.33251953 C87.85465779 172.13576139 85.91203189 173.9253897 83.96875 175.71484375 C74.50008299 184.47627576 65.5116925 193.57650187 56.77783203 203.06933594 C55.14980654 204.83731528 53.51255851 206.5960703 51.87109375 208.3515625 C46.82195895 213.77244962 42.00919039 219.33187441 37.3671875 225.10546875 C35.19403014 227.76274532 32.96619417 230.35519305 30.70922852 232.94067383 C24.28944814 240.3100832 18.37007228 247.96513275 12.59033203 255.84326172 C10.93753807 258.08470812 9.26555797 260.31080289 7.58984375 262.53515625 C-5.79896981 280.0652223 -5.79896981 280.0652223 -17 299 C-16.43483673 298.94694199 -15.86967346 298.89388397 -15.28738403 298.83921814 C-0.9209533 297.5049391 13.43853799 296.5077768 27.84555054 295.73931885 C90.19338911 294.16273902 90.19338911 294.16273902 148.75 275.19921875 C151 274 151 274 154 273 C166.23746373 293.86387258 165.39348631 319.62085965 165 343 C159.01198874 343.72405247 153.10281648 344.19493829 147.07592773 344.37304688 C145.80971085 344.41474754 145.80971085 344.41474754 144.51791382 344.45729065 C141.73990576 344.54788455 138.96176736 344.63339633 136.18359375 344.71875 C134.20719045 344.78191589 132.23079594 344.84535749 130.25440979 344.90905762 C126.09781336 345.04229583 121.94115233 345.17319504 117.78442383 345.30224609 C112.58672991 345.46365216 107.38917918 345.62918127 102.19166756 345.7963438 C67.82589401 346.90016971 67.82589401 346.90016971 51.55224609 347.2746582 C50.64056577 347.29592459 49.72888544 347.31719097 48.78957844 347.33910179 C44.52994017 347.43780263 40.27029992 347.53173187 36.01036072 347.61645508 C-9.05078737 348.57802802 -55.09150245 359.4214436 -94.62231445 381.53466797 C-99.40159238 384.11373843 -99.40159238 384.11373843 -102.28125 383.56640625 C-109.28040183 377.18763379 -112.55783469 364.87326268 -113.14794922 355.70019531 C-113.24775783 353.15284114 -113.2955391 350.61172347 -113.3125 348.0625 C-113.32095947 346.83648071 -113.32095947 346.83648071 -113.32958984 345.58569336 C-113.23927503 338.1775828 -111.62612658 334.31534399 -106.4375 328.875 C-102.15143173 324.28718267 -98.14979771 319.564354 -94.2109375 314.671875 C-92.07437034 312.08987511 -89.84616627 309.63943641 -87.5625 307.1875 C-83.60416144 302.84498993 -80.23109377 298.25847142 -76.86914062 293.45605469 C-64.30796083 275.55975014 -49.64894851 259.1904235 -35 243 C-33.86099243 241.73071655 -33.86099243 241.73071655 -32.69897461 240.43579102 C-25.35076428 232.31773379 -17.69126616 224.53758159 -9.93774414 216.80737305 C-7.80172643 214.67675366 -5.67115882 212.54078777 -3.54101562 210.40429688 C-2.15917493 209.0231165 -0.77702433 207.64224611 0.60546875 206.26171875 C1.22963181 205.63553146 1.85379486 205.00934418 2.49687195 204.36418152 C6.28241486 200.59837648 10.1891753 197.02720775 14.22871399 193.53547668 C16.19710523 191.82913517 18.10911202 190.07295077 20 188.28125 C20.66 187.65863281 21.32 187.03601563 22 186.39453125 C22.66 185.76933594 23.32 185.14414062 24 184.5 C31.32725852 177.55913988 38.88800332 170.92726105 46.5625 164.375 C50.30708208 161.17633321 54.04320211 157.96956958 57.74609375 154.72265625 C64.31887521 148.96537547 70.96140714 143.37259699 77.87109375 138.02319336 C81.83520111 134.9455293 85.68889826 131.76476105 89.5 128.5 C95.55682002 123.32294155 101.77643282 118.38367518 108.07080078 113.49951172 C110.11256977 111.91250272 112.14841124 110.31810145 114.18359375 108.72265625 C128.56476984 97.46636188 143.18453752 86.53584152 157.875 75.6875 C158.58648193 75.1615625 159.29796387 74.635625 160.03100586 74.09375 C164.75775943 70.61353603 169.52288824 67.18926652 174.30126953 63.78051758 C174.94725601 63.31940834 175.59324249 62.8582991 176.25880432 62.38321686 C177.83905408 61.25526941 179.41950638 60.12760573 181 59 C166.09052641 58.95297775 151.18105864 58.91786478 136.27152634 58.89637566 C129.34651947 58.88612627 122.42155905 58.87218957 115.49658203 58.84912109 C108.79866152 58.8268199 102.10079892 58.81539105 95.40283966 58.81024551 C92.86272681 58.80658418 90.32261623 58.7994359 87.78252411 58.78853989 C69.10455222 58.71169247 50.80073413 59.51702055 32.375 62.75 C31.42915039 62.91411377 30.48330078 63.07822754 29.50878906 63.24731445 C20.3477815 64.94211624 11.71785378 67.76563644 3 71 C1.515 71.495 1.515 71.495 0 72 C0 48.24 0 24.48 0 0 Z " fill="#FBFDFD" transform="translate(463,292)"/>
<path d="M0 0 C11.323125 -0.12375 11.323125 -0.12375 22.875 -0.25 C25.23769043 -0.28641602 27.60038086 -0.32283203 30.03466797 -0.36035156 C31.93716528 -0.37204951 33.83967271 -0.38223871 35.7421875 -0.390625 C37.18766968 -0.4213208 37.18766968 -0.4213208 38.66235352 -0.45263672 C46.41275649 -0.45656794 53.78472405 0.86510595 59.5 6.4375 C63.60824262 13.45574781 63.74583888 19.98913792 63 28 C62.05691487 31.13002308 61.16165502 32.42938322 59 35 C56.25 36.4375 56.25 36.4375 54 37 C54 37.66 54 38.32 54 39 C54.7425 39.2475 55.485 39.495 56.25 39.75 C59.86976734 41.39534879 61.96839276 43.4797367 64.1875 46.75 C66.66444322 53.60922738 66.29408016 60.16004672 64 67 C60.78889736 73.72752324 57.01284225 77.4879371 50 80 C47.12037166 80.95987611 45.33372559 81.12153814 42.3449707 81.11352539 C41.39110474 81.11340454 40.43723877 81.11328369 39.45446777 81.11315918 C38.45500122 81.10804321 37.45553467 81.10292725 36.42578125 81.09765625 C35.50486694 81.09664917 34.58395264 81.09564209 33.63513184 81.09460449 C30.1942419 81.08937152 26.7533697 81.07541026 23.3125 81.0625 C15.619375 81.041875 7.92625 81.02125 0 81 C0 54.27 0 27.54 0 0 Z M20 17 C20 21.62 20 26.24 20 31 C23.06398451 31.13530844 26.12197126 31.2342407 29.1875 31.3125 C30.48397461 31.3753418 30.48397461 31.3753418 31.80664062 31.43945312 C36.36013112 31.52668474 38.35454471 31.48246972 42.109375 28.67578125 C44.28969206 26.1204926 44.28969206 26.1204926 44.0625 22.875 C42.78762737 19.42534466 42.24242916 18.69841528 39 17 C35.74176561 16.63457642 32.52328577 16.71821777 29.25 16.8125 C28.36183594 16.82603516 27.47367188 16.83957031 26.55859375 16.85351562 C24.372135 16.88878109 22.18598928 16.94258588 20 17 Z M20 48 C20 53.28 20 58.56 20 64 C23.41714149 64.0809323 26.83236685 64.14046835 30.25 64.1875 C31.21808594 64.21263672 32.18617188 64.23777344 33.18359375 64.26367188 C34.11816406 64.27333984 35.05273438 64.28300781 36.015625 64.29296875 C36.87446289 64.3086792 37.73330078 64.32438965 38.61816406 64.34057617 C41.55490785 63.92065432 42.88093998 63.05302447 45 61 C46.10373378 57.02655839 46.41543583 54.91000228 44.6875 51.125 C43.17274837 48.9104069 43.17274837 48.9104069 41 48 C39.40552536 47.91599471 37.80759455 47.89272533 36.2109375 47.90234375 C34.79941406 47.90717773 34.79941406 47.90717773 33.359375 47.91210938 C32.37453125 47.92048828 31.3896875 47.92886719 30.375 47.9375 C28.88613281 47.94426758 28.88613281 47.94426758 27.3671875 47.95117188 C24.91143278 47.96297839 22.45570894 47.98091418 20 48 Z " fill="#2A2928" transform="translate(202,847)"/>
<path d="M0 0 C7.59 -0.061875 15.18 -0.12375 23 -0.1875 C26.57134766 -0.22846802 26.57134766 -0.22846802 30.21484375 -0.27026367 C32.12239069 -0.27903346 34.02994328 -0.28667623 35.9375 -0.29296875 C36.91138672 -0.30831665 37.88527344 -0.32366455 38.88867188 -0.33947754 C46.21064159 -0.34226226 51.97712413 0.51452428 57.8125 5.3125 C63.43325108 12.21799419 63.82133962 18.2871405 63 27 C61.49736582 31.28250741 59.47906813 34.08207189 56 37 C55.34 37 54.68 37 54 37 C54 37.66 54 38.32 54 39 C54.721875 39.20625 55.44375 39.4125 56.1875 39.625 C59.98456 41.48134044 61.4981308 43.59467803 64 47 C66.15364435 53.46093305 66.31319976 62.14188116 63.5 68.4375 C59.8900375 74.36906383 54.86721341 78.75924177 48.14201355 80.59225464 C43.87941373 81.40366655 39.57755802 81.24151974 35.25390625 81.1953125 C34.35667847 81.19329834 33.45945068 81.19128418 32.53503418 81.18920898 C29.21080348 81.17881242 25.88664614 81.15089024 22.5625 81.125 C15.116875 81.08375 7.67125 81.0425 0 81 C0 54.27 0 27.54 0 0 Z M20 17 C20 21.62 20 26.24 20 31 C23.06398451 31.13530844 26.12197126 31.2342407 29.1875 31.3125 C30.48397461 31.3753418 30.48397461 31.3753418 31.80664062 31.43945312 C36.36013112 31.52668474 38.35454471 31.48246972 42.109375 28.67578125 C44.28969206 26.1204926 44.28969206 26.1204926 44.0625 22.875 C42.78762737 19.42534466 42.24242916 18.69841528 39 17 C35.74176561 16.63457642 32.52328577 16.71821777 29.25 16.8125 C28.36183594 16.82603516 27.47367188 16.83957031 26.55859375 16.85351562 C24.372135 16.88878109 22.18598928 16.94258588 20 17 Z M20 48 C20 53.28 20 58.56 20 64 C23.25022232 64.05397048 26.49954753 64.09365955 29.75 64.125 C30.67039062 64.14175781 31.59078125 64.15851563 32.5390625 64.17578125 C33.42851563 64.18222656 34.31796875 64.18867187 35.234375 64.1953125 C36.45979004 64.21102295 36.45979004 64.21102295 37.70996094 64.22705078 C40.25822419 63.97439781 41.84119819 63.36134735 44 62 C45.56471233 58.87057535 45.69701958 55.38917777 45 52 C43.74257885 49.54413419 43.74257885 49.54413419 41 48 C37.40466077 47.50870192 33.86996168 47.62467509 30.25 47.75 C29.26644531 47.76804687 28.28289063 47.78609375 27.26953125 47.8046875 C24.84593659 47.85174759 22.42284375 47.92348914 20 48 Z " fill="#2A2928" transform="translate(620,847)"/>
<path d="M0 0 C7.569375 -0.061875 15.13875 -0.12375 22.9375 -0.1875 C26.49519165 -0.22846802 26.49519165 -0.22846802 30.12475586 -0.27026367 C32.02978 -0.2790353 33.93480981 -0.28667763 35.83984375 -0.29296875 C37.29299988 -0.3159906 37.29299988 -0.3159906 38.7755127 -0.33947754 C46.28123351 -0.34233251 52.95195264 0.48204784 58.875 5.375 C64.7848454 12.67539726 65.67874643 18.76648722 65 28 C63.76205996 34.64399014 60.36770237 38.11760705 55 42 C55.94875 42.886875 56.8975 43.77375 57.875 44.6875 C63.78000601 51.56509523 63.13548059 62.00236473 63.65625 70.66015625 C63.87923631 73.0272532 63.87923631 73.0272532 65.03125 75.05859375 C66 77 66 77 66 81 C58.74 81 51.48 81 44 81 C43.35104224 77.75521121 42.87117162 75.17479323 42.75390625 71.96875 C42.72103516 71.24042969 42.68816406 70.51210938 42.65429688 69.76171875 C42.59310518 68.25405949 42.53581236 66.74623693 42.48242188 65.23828125 C42.22935643 59.36564495 42.22935643 59.36564495 40 54 C36.02971901 51.63379963 31.70315625 51.58314931 27.1875 51.375 C24.815625 51.25125 22.44375 51.1275 20 51 C20 60.9 20 70.8 20 81 C13.4 81 6.8 81 0 81 C0 54.27 0 27.54 0 0 Z M20 17 C20 22.61 20 28.22 20 34 C23.06303578 34.08115993 26.12390815 34.14057409 29.1875 34.1875 C30.05181641 34.21263672 30.91613281 34.23777344 31.80664062 34.26367188 C38.4186859 34.34080345 38.4186859 34.34080345 44 31 C45.14245141 28.37455877 45.19942571 25.84181641 45 23 C43.91771628 20.05338662 43.91771628 20.05338662 42 18 C39.17588235 17.05862745 37.47081968 16.88274618 34.55078125 16.90234375 C33.70322266 16.90556641 32.85566406 16.90878906 31.98242188 16.91210938 C31.10134766 16.92048828 30.22027344 16.92886719 29.3125 16.9375 C27.97348633 16.94426758 27.97348633 16.94426758 26.60742188 16.95117188 C24.40491927 16.96294996 22.20245115 16.98088519 20 17 Z " fill="#2A2928" transform="translate(278,847)"/>
<path d="M0 0 C10.1073466 10.81251032 12.9005708 21.52819989 13.0625 35.9375 C13.07659912 36.85958252 13.09069824 37.78166504 13.10522461 38.73168945 C13.0249007 50.14683527 9.51896226 60.31617256 1.87109375 68.91796875 C-6.30738604 76.66687182 -16.49020608 79.2769753 -27.54296875 79.078125 C-37.81199563 78.32496647 -45.82133999 75.0267547 -53.3125 67.875 C-62.54493081 56.15546538 -64.085133 42.35471469 -63.3125 27.875 C-61.73619708 15.8523506 -57.24089909 6.31033744 -47.76171875 -1.4296875 C-33.32231566 -11.42442584 -14.13408155 -9.06714666 0 0 Z M-38 16.6875 C-42.32207573 22.64495573 -42.6529597 28.13705326 -42.625 35.25 C-42.64111328 36.06210937 -42.65722656 36.87421875 -42.67382812 37.7109375 C-42.67931418 44.55753832 -41.18401276 49.75581206 -37.625 55.6875 C-34.03112264 59.08711372 -30.19639877 60.73998601 -25.2265625 60.97265625 C-20.310084 60.58649606 -17.04134297 59.01061795 -13.3125 55.875 C-7.66085877 49.12442854 -6.8790061 41.19680959 -7.05859375 32.6484375 C-7.69246605 25.72460166 -9.75510944 19.21365751 -14.3125 13.875 C-22.45643357 8.05790459 -31.44694546 9.82965223 -38 16.6875 Z " fill="#2A2928" transform="translate(756.3125,852.125)"/>
<path d="M0 0 C1.18094238 -0.01522705 1.18094238 -0.01522705 2.38574219 -0.03076172 C12.42370766 0.11790235 20.17361031 3.45351075 27.375 10.4375 C36.24978799 20.89002808 39.20030813 33.9997907 38.375 47.4375 C36.96095667 60.66506985 33.39737594 70.35119138 23.375 79.4375 C14.74301424 85.78148953 4.89550748 87.36620687 -5.625 86.4375 C-17.39764124 84.38170453 -25.63127248 79.15101044 -32.625 69.4375 C-39.5928318 57.04795292 -40.13723065 40.91597499 -36.87109375 27.29296875 C-33.49220172 17.18456791 -27.78780763 8.47838093 -18.40234375 3.18359375 C-12.3458861 0.49703526 -6.53142386 0.05969991 0 0 Z M-11.625 22.4375 C-18.52214876 31.05893595 -18.26644606 40.97456839 -17.625 51.4375 C-16.7032893 57.96248171 -14.04432305 62.03555704 -8.87109375 66.1171875 C-5.16846271 68.29369062 -1.87697851 68.82822235 2.375 68.4375 C7.88834792 66.87538476 11.42513887 64.33232451 14.375 59.4375 C18.67989689 51.19076981 18.59084399 41.12517697 16.68359375 32.203125 C14.76164374 26.25231743 12.61836674 22.85708701 7.375 19.4375 C1.1548538 16.3274269 -6.70777709 17.88007389 -11.625 22.4375 Z " fill="#2A2928" transform="translate(571.625,844.5625)"/>
<path d="M0 0 C7.404375 -0.061875 14.80875 -0.12375 22.4375 -0.1875 C25.9168811 -0.22846802 25.9168811 -0.22846802 29.46655273 -0.27026367 C31.33056113 -0.27903566 33.19457533 -0.28667791 35.05859375 -0.29296875 C36.47936218 -0.3159906 36.47936218 -0.3159906 37.92883301 -0.33947754 C45.37015805 -0.34236962 52.32179678 0.68679254 58.375 5.3125 C63.47101259 10.52984622 64.98852524 15.8626962 65 23 C64.41098117 30.00396936 62.55965242 34.66187034 58 40 C57.01 40.66 56.02 41.32 55 42 C55.63228516 42.67095703 55.63228516 42.67095703 56.27734375 43.35546875 C57.09912109 44.26232422 57.09912109 44.26232422 57.9375 45.1875 C58.48277344 45.77917969 59.02804687 46.37085938 59.58984375 46.98046875 C62.04364053 50.49463201 62.12925231 54.68321721 62.5 58.87109375 C62.5825 59.77537109 62.665 60.67964844 62.75 61.61132812 C62.8325 62.54396484 62.915 63.47660156 63 64.4375 C63.16460118 66.29054922 63.33121557 68.14342088 63.5 69.99609375 C63.60828125 71.22090454 63.60828125 71.22090454 63.71875 72.47045898 C64.03646116 75.32792888 64.52734006 78.16404034 65 81 C58.07 81 51.14 81 44 81 C43.07671638 78.23014913 42.77480751 76.13817262 42.5703125 73.25390625 C42.49683594 72.33416016 42.42335938 71.41441406 42.34765625 70.46679688 C42.19956101 68.53506339 42.0588994 66.60274521 41.92578125 64.66992188 C41.84972656 63.74888672 41.77367187 62.82785156 41.6953125 61.87890625 C41.6027417 60.61929077 41.6027417 60.61929077 41.50830078 59.33422852 C40.89921394 56.53716834 39.94744727 55.0819235 38 53 C34.43755339 51.8125178 31.02681357 51.64932792 27.3125 51.4375 C24.899375 51.293125 22.48625 51.14875 20 51 C20 60.9 20 70.8 20 81 C13.4 81 6.8 81 0 81 C0 54.27 0 27.54 0 0 Z M20 17 C20 22.61 20 28.22 20 34 C23.06345144 34.10822792 26.1230601 34.18741479 29.1875 34.25 C30.05181641 34.28351562 30.91613281 34.31703125 31.80664062 34.3515625 C35.9645977 34.41528598 38.38943069 34.3444635 42.07421875 32.265625 C44.2023209 29.76197541 44.68050784 28.74165805 44.625 25.5 C44.64433594 24.37078125 44.64433594 24.37078125 44.6640625 23.21875 C43.62051303 19.73206705 42.15484938 18.7798642 39 17 C35.7106431 16.5309295 32.50133421 16.62149934 29.1875 16.75 C27.86202148 16.77707031 27.86202148 16.77707031 26.50976562 16.8046875 C24.33937457 16.85161487 22.16954481 16.92335269 20 17 Z " fill="#2A2928" transform="translate(460,847)"/>
<path d="M0 0 C5.67684131 6.05017324 8 12.74133133 8 21 C1.73 21 -4.54 21 -11 21 C-12.32 18.36 -13.64 15.72 -15 13 C-18.79355645 10.53931473 -22.56204854 10.60375433 -27 11 C-29.96509533 12.01042218 -29.96509533 12.01042218 -32 14 C-32.83356413 16.45587964 -32.83356413 16.45587964 -32 19 C-28.66713103 22.06971826 -25.469912 23.83969568 -21.25390625 25.4375 C-20.16916016 25.85773437 -19.08441406 26.27796875 -17.96679688 26.7109375 C-16.28166992 27.34902344 -16.28166992 27.34902344 -14.5625 28 C4.76498178 35.34377546 4.76498178 35.34377546 9.0859375 44.234375 C11.22025383 50.69205004 11.28408135 59.15483855 8.5 65.4375 C4.39817761 72.14433942 -1.39967867 76.42648405 -8.921875 78.51171875 C-9.60765625 78.67285156 -10.2934375 78.83398438 -11 79 C-11.94875 79.226875 -12.8975 79.45375 -13.875 79.6875 C-24.57185231 80.75718523 -36.78900202 80.63591055 -45.5390625 73.5078125 C-52.12815542 66.70730484 -54 59.33361903 -54 50 C-47.73 50 -41.46 50 -35 50 C-34.08854167 52.5390625 -33.17708333 55.078125 -32.265625 57.6171875 C-30.77053066 60.4320256 -30.01501137 61.0617622 -27 62 C-24.08757044 62.315948 -24.08757044 62.315948 -21 62.25 C-19.96875 62.25515625 -18.9375 62.2603125 -17.875 62.265625 C-15.01163283 62.00107477 -13.35177944 61.63151288 -11 60 C-9.91776634 57.08995097 -9.91776634 57.08995097 -10 54 C-12.14558108 51.176867 -14.48692163 50.25191663 -17.7890625 49.1328125 C-18.73136719 48.80410156 -19.67367187 48.47539063 -20.64453125 48.13671875 C-21.62808594 47.80285156 -22.61164062 47.46898437 -23.625 47.125 C-45.50438264 39.69482039 -45.50438264 39.69482039 -51.06640625 28.9375 C-53.9781484 21.62550177 -53.5208036 13.90022806 -50.4375 6.6875 C-46.90874706 0.47078002 -40.71997043 -3.28115272 -34.0546875 -5.47265625 C-22.0376759 -8.55687025 -10.29032282 -7.19571479 0 0 Z " fill="#2A2928" transform="translate(1009,851)"/>
<path d="M0 0 C19.14 0 38.28 0 58 0 C58 5.61 58 11.22 58 17 C45.46 17 32.92 17 20 17 C20 21.62 20 26.24 20 31 C31.22 31 42.44 31 54 31 C54 36.61 54 42.22 54 48 C42.78 48 31.56 48 20 48 C20 53.28 20 58.56 20 64 C32.87 64 45.74 64 59 64 C59 69.61 59 75.22 59 81 C39.53 81 20.06 81 0 81 C0 54.27 0 27.54 0 0 Z " fill="#2A2928" transform="translate(133,847)"/>
<path d="M0 0 C7.59 0 15.18 0 23 0 C26.39312062 10.2647452 29.78374461 20.53030567 33.16993713 30.79733849 C34.74225292 35.56430669 36.31567539 40.33090372 37.89160156 45.09667969 C39.41141214 49.69289091 40.92834889 54.29004124 42.44326782 58.88786697 C43.02276603 60.64494458 43.60331233 62.40167686 44.18490601 64.15806198 C44.99711258 66.61147706 45.8056388 69.06607544 46.61328125 71.52099609 C46.85640045 72.25251389 47.09951965 72.98403168 47.3500061 73.73771667 C49 78.77189568 49 78.77189568 49 81 C41.74 81 34.48 81 27 81 C23 69.25 23 69.25 23 67 C14.75 67 6.5 67 -2 67 C-2.33 69.31 -2.66 71.62 -3 74 C-3.66 76.31 -4.32 78.62 -5 81 C-11.93 81 -18.86 81 -26 81 C-24.72538942 75.26425239 -23.4391768 69.88413657 -21.56982422 64.36889648 C-21.33544647 63.66532516 -21.10106873 62.96175385 -20.85958862 62.23686218 C-20.09555343 59.94682122 -19.32519416 57.65896453 -18.5546875 55.37109375 C-18.01906522 53.76983111 -17.48384418 52.1684342 -16.94900513 50.56690979 C-15.54905596 46.37844593 -14.14370811 42.19181348 -12.73718262 38.0055542 C-11.29935288 33.72290617 -9.8666993 29.43852756 -8.43359375 25.15429688 C-5.62742452 16.76783887 -2.81506535 8.38347605 0 0 Z M10 25 C8.99093539 28.24725579 7.99434878 31.49821074 7 34.75 C6.71382813 35.67039062 6.42765625 36.59078125 6.1328125 37.5390625 C5.72675781 38.87324219 5.72675781 38.87324219 5.3125 40.234375 C4.93544922 41.45979004 4.93544922 41.45979004 4.55078125 42.70996094 C3.84410442 45.25562575 3.84410442 45.25562575 4 49 C8.62 49 13.24 49 18 49 C16.60058475 41.18659816 14.86598798 33.42246105 12 26 C11.34 25.67 10.68 25.34 10 25 Z " fill="#2A2928" transform="translate(374,847)"/>
<path d="M0 0 C20.46 0 40.92 0 62 0 C62 18.91180253 62 18.91180253 58.64868164 22.75952148 C58.1664917 23.23075439 57.68430176 23.7019873 57.1875 24.1875 C56.16815966 25.32713209 55.14996237 26.46778744 54.1328125 27.609375 C53.60977539 28.16818359 53.08673828 28.72699219 52.54785156 29.30273438 C50.04588136 32.04621968 47.82147688 34.99373466 45.5625 37.9375 C41.05190982 43.70266973 36.47820216 49.41706753 31.88305664 55.11499023 C29.8125229 57.6905152 27.83440045 60.24839933 26 63 C37.88 63.33 49.76 63.66 62 64 C62 69.61 62 75.22 62 81 C41.21 81 20.42 81 -1 81 C-1 61.51470752 -1 61.51470752 5.51733398 54.39282227 C5.98469971 53.95510498 6.45206543 53.5173877 6.93359375 53.06640625 C9.93429481 50.13307359 12.44054944 46.9896345 14.9375 43.625 C19.18805358 38.01271892 23.5631037 32.50738088 27.97827148 27.02392578 C28.45852783 26.42692871 28.93878418 25.82993164 29.43359375 25.21484375 C29.85697021 24.69011475 30.28034668 24.16538574 30.71655273 23.62475586 C32.17738342 21.77544481 33.58598728 19.88535029 35 18 C23.45 17.67 11.9 17.34 0 17 C0 11.39 0 5.78 0 0 Z " fill="#2A2928" transform="translate(62,847)"/>
<path d="M0 0 C5.87821211 4.30983882 10.10693644 11.84845133 11.37207031 18.98535156 C11.61728654 20.92572112 11.80741913 22.87289013 11.98828125 24.8203125 C8.92200419 25.03696799 5.87100887 25.19490568 2.80078125 25.3203125 C1.50430664 25.42085937 1.50430664 25.42085937 0.18164062 25.5234375 C-2.43623695 25.60367896 -4.4976763 25.57087355 -7.01171875 24.8203125 C-8.81320343 22.91379897 -9.89375095 21.09944791 -11.04321289 18.74804688 C-12.50543924 15.83760088 -13.97691243 14.92387843 -17.01171875 13.8203125 C-21.67230428 13.13722111 -25.03484572 13.35952333 -29.32421875 15.3828125 C-35.59276305 21.0682364 -37.30737157 27.59570461 -38.01171875 35.8203125 C-38.09840768 43.36224926 -37.21493565 50.40701704 -33.01171875 56.8203125 C-29.42287239 60.40915886 -26.43530677 61.11558927 -21.51171875 61.3828125 C-17.92258942 61.23651647 -15.40711286 60.94383505 -12.51171875 58.7578125 C-9.44231005 55.44459983 -9.44231005 55.44459983 -7.01171875 48.8203125 C-1.07171875 48.8203125 4.86828125 48.8203125 10.98828125 48.8203125 C10.31546204 59.41721505 7.01687526 67.60929425 -1.01171875 74.8203125 C-9.5678832 80.59872417 -19.72341465 82.04532407 -29.77734375 80.35546875 C-39.57384491 78.0431661 -46.58199502 73.39721842 -52.5078125 65.2578125 C-60.09138861 52.96650992 -60.78495261 37.90241361 -58.328125 23.93359375 C-55.12260863 12.69433512 -48.99690294 3.28884273 -38.65234375 -2.5 C-26.34064894 -7.83506775 -11.46936717 -6.72572599 0 0 Z " fill="#2A2928" transform="translate(935.01171875,850.1796875)"/>
<path d="M0 0 C21.12 0 42.24 0 64 0 C64 5.61 64 11.22 64 17 C56.74 17 49.48 17 42 17 C42 38.12 42 59.24 42 81 C35.4 81 28.8 81 22 81 C22 59.88 22 38.76 22 17 C14.74 17 7.48 17 0 17 C0 11.39 0 5.78 0 0 Z " fill="#2A2928" transform="translate(773,847)"/>
<path d="M0 0 C6.6 0 13.2 0 20 0 C20 26.73 20 53.46 20 81 C13.4 81 6.8 81 0 81 C0 54.27 0 27.54 0 0 Z " fill="#2A2928" transform="translate(845,847)"/>
</svg>
