<?xml version="1.0" encoding="UTF-8"?>
<svg id="Layer_1" data-name="Layer 1" xmlns="http://www.w3.org/2000/svg" viewBox="0 0 259.2 259.2">
  <defs>
    <style>
      .cls-1 {
        fill: #ca2f30;
      }

      .cls-2 {
        fill: #ab3831;
      }

      .cls-3 {
        fill: #faca03;
      }

      .cls-4 {
        fill: #393837;
      }

      .cls-5 {
        fill: #484039;
      }

      .cls-6 {
        fill: #433b31;
      }

      .cls-7 {
        fill: #3f3e3d;
      }

      .cls-8 {
        fill: #d4a529;
      }

      .cls-9 {
        fill: #f5f4f3;
      }

      .cls-10 {
        fill: #484847;
      }

      .cls-11 {
        fill: #bdbab5;
      }

      .cls-12 {
        fill: #daa921;
      }

      .cls-13 {
        fill: #fbfafa;
      }

      .cls-14 {
        fill: #d72b30;
      }

      .cls-15 {
        fill: #2e5944;
      }
    </style>
  </defs>
  <g id="Layer_1-2" data-name="Layer_1">
    <g>
      <path class="cls-14" d="M215.94,120.48c2.93.48,5.02-2.59,7.51-3.42,1.39-.46,1.4,1.46.65,2.34-.8.94-5.25,2.82-5.27,3.58-.04,1.05,3.52,5.23,4.43,5.41,2.09.41,1.3-.33,1.85-1.5.8-1.71,6.35-6.74,8.11-7.72,1.58-.87,4.64-2.09,5.7.01.53,1.05.48,2.08-.85,2.19-.51.05-.98-.55-1.45-.63-1.39-.21-6.49,4.27-7.26,5.72,1.4-.34,2.62-1.49,3.91-2.2.9-.49,4.2-2.3,5.02-2.08.39.1,1.27,1.17,1.34,1.58.15.96-1.51,2.41-.21,4.03,1.02,1.27,2.28-.2,3.36-.49-1.12,2.48-3.93,3.83-5.86,1.31-.58-.76-.84-2.66-1.93-2.6-2,.1-5.53,4.46-8.87,3.81-.53-.1-.89-.71-.97-.71-.14,0-1.28,1.53-2.19,1.61-2.56.23-6.59-6.84-7.89-7.13-.37-.08-.49.31-.63.54-.78,1.24-1.54,4.63-2.69,5.47-.58.42-2.31.07-2.32-.61,0-1.19,1.57-2.45,1.58-3.72-2.54,2.32-6.19,4.78-8.86,1.18-.5-.68-.7-1.96-1.7-2.14-1.31-.24-4.35,1.4-6.04,1.62-1.24.16-3.5.52-4-.91-.21-.59.11-1.5-.48-1.42-2.13.26-6.05,3.54-8.03,2.03-.87-.66-.29-1.16-.25-2.04-1.66,1.08-3.22,1.3-4.78-.14-.96-.88-.98-3.04-2.06-3.22-2.4-.41-6.91,3.34-9.73,2.53-.52-.15-.42-.63-.58-.62-.36.02-1.49.94-2.26,1.1-4.13.84-3.07-4.04-4.24-6.39-.87-.15-3.39,1.78-4.05,2.42-.99.96-3.31,4.5-4.2,4.92-2.71,1.26-1.15-3.92-.89-4.97s1-2.47,1.13-3.43c.14-1.11-1.21.84-1.68.25,1.37-1.13,2.7-4.3,4.67-4.22,3.23.13-.99,4.69-1.07,6.25.81-.61,1.49-1.52,2.28-2.15,1.93-1.53,5.09-3.67,6.72-.5.83,1.61.16,5.47,1.67,5.77,1.85.37,1.3-.64,1.92-1.67.79-1.31,4.1-3.88,5.54-4.53,2.27-1.03,7-2.23,8.3.75,1.23,2.82-2.35.48-2.84.42-1.85-.24-5.76,1.97-6.81,3.59,2.68-.75,6.6-2.7,9.42-1.87,1.89.56-1.37,4.5,1.35,5.37,2.16.69,4.32-2.03,4.57-3.85.07-.53-.08-.28-.36-.35-.46-.11-2.95-.17-2.41-1.21s2.27-.57,3.13-.72c1.96-.36,2.08-5.85,3.17-6.19,1.23-.38,2.51.43,2.5,1.75,0,1.16-2.18,4.34-1.49,5.24.11.15,1.43.6,1.75.71.27.09,4.35.84,3.54,1.61-1.45-.09-5.3-.93-6.47-.36-.43.21-2.84,4.48-2.63,4.68,1.73-.58,4.5-.93,6.06-1.73.97-.5,2.2-1.79,3.31-2.45,2.82-1.67,9.83-4.51,10.51.56-1.26.81-1.79-.35-2.61-.6-1.59-.48-6.07,1.9-7.2,3.26,2.14-.27,8.34-3.18,10-1.38.96,1.04-1.73,3.78.61,4.8,1.36.59,5.43-1.73,6.14-2.85.52-.82,1.78-5.64,2.03-6.85.1-.47.22-.92.16-1.4-1.33.88-2.34,2.57-3.61,3.46-.26.18-1.16.75-.94.02.29-.93,2.42-3.03,3.12-4.08.86-1.28,2.28-4.81,3.1-5.53.54-.48,1.74-.59,2.19-.01,1.26,1.59-2.19,8.53-1.7,10.7Z"/>
      <path class="cls-14" d="M102.06,120.48c.33.34,2.28-1.27,2.64-1.56,1.33-1.05,2.95-2.54,4.2-3.72,2.19-2.06,5.4-6.27,7.7-7.65.88-.53,2.77-.6,2.97.57.38,2.21-3.38,4.05-4.81,5.27-2.21,1.89-4.49,4.51-6.58,6.61-.64.64-1.69.96-1.8,2.06-.22,2.19,3.87,3.59,5.51,4.07,1.15.34,2.62.06,3.49,1.07,1.83-3.97,5.02-8.04,8.67-10.51,1.76-1.19,4.54-2.81,5.6.07.36.98-.01,1.74-1.11,1.81-.68.04-1.08-.63-1.84-.44-.84.21-3.46,2.57-4.14,3.31-.32.35-2.73,3.38-2.51,3.6l6.73-4.9c1.11-.64,3.12-1.28,3.33.49.17,1.4-1.33,2.64-.34,4.16.7,1.07,1.62.71,2.49.12,2-1.37,2.44-6.67,3.37-9.11.42-1.12.83-2.57,2.34-1.86s.34,2.36.18,3.42c2.25-1.29,3.32-2.59,6.18-2.1,1.24.21,2.37,1.39,3.77,1.14-.56,1.83-2.43.34-3.5.25-2.48-.22-6.08,2.92-7.24,4.95-.71,1.24-2.09,6.13-2.78,6.57-.48.31-1.81.46-2.02-.17-.33-1,.42-1.99.44-2.97-1.39,2.03-3.78,3.22-5.64.97-.6-.73-.74-2.37-1.43-2.43-1.37-.11-6.45,5.92-9.13,6.02-1.52.06-1.21-2.18-1.65-2.15-.16.01-.3.58-.53.73-1.74,1.12-5.93.25-7.76-.6-1.11-.52-5.8-3.78-6.67-3.22-.27.17-1.63,5.23-1.94,6.09-.59,1.63-1.23,3.43-1.96,5-.53,1.14-1.54,3.84-3.09,3.42-2-.55-.21-4.18.24-5.55,2.71-8.15,6.09-16.41,9.12-24.47.65-1.73,2.03-7.62,3.97-7.8,2.38-.23,1.66,2.85,1.25,4.14-1.27,3.96-3.64,8.01-4.98,12.05-.35,1.06-.84,2.1-.71,3.24Z"/>
      <path class="cls-7" d="M91.99,144.48v-1.2h151.4c.45,0,.45,1.2,0,1.2H91.99Z"/>
      <path class="cls-5" d="M46.39,95.12c31.05-2.63,50.08,32.61,30.25,56.68-18.14,22.01-54.14,13.29-60.33-14.47-4.45-19.95,9.5-40.47,30.08-42.21ZM46.87,95.83c-27.02,2.13-40.27,35.06-22.72,55.72,17.29,20.36,50.82,13.47,58.32-12.17,6.84-23.38-11.52-45.45-35.59-43.55Z"/>
      <path class="cls-4" d="M216.84,151.76c.11.06-.04.44.17.41.8-1.09,1.45-.13,1.97-.04.33.05,1.23-.99,2.11-.2.56.5-.2,4.41-.4,4.53-.21.13-.65,0-.92.04-.17-1.13.33-2.24.42-3.3.03-.35.26-.63-.3-.54-1.38.22-1.06,3.57-1.32,3.84-.08.08-.93-.04-1.2,0,.07-.98.45-2.02.49-2.99.01-.37.2-.95-.37-.85-1.51.26-.21,4.39-2.28,3.84.01-.63.55-4.63.74-4.78.12-.1.7-.06.88.05Z"/>
      <path class="cls-4" d="M147.32,151.76c.11.06-.04.43.17.41.36-.49,1.09-.62,1.64-.48.19.05.16.49.29.49.53.01,1.31-1.02,2.16-.26.56.51-.2,4.41-.4,4.53-.21.13-.65,0-.92.04-.25-.24.42-2.72.45-3.27.07-1.12-.82-.56-1.11.09-.27.6-.44,3.05-.55,3.16s-.9-.04-1.19.01l.48-3.7c-2.03-.54-.44,4.24-2.64,3.7.06-.64.55-4.63.74-4.78.12-.1.7-.06.88.05Z"/>
      <path class="cls-4" d="M114.29,156.48l.96-6.48c2.9-.41,4.54.54,4.02,3.67-.46,2.76-2.56,2.99-4.98,2.81ZM117.82,151.26c-.24-.2-1.26-.43-1.5-.07-.16.24-.74,3.94-.59,4.09,2.2.93,3.08-3.18,2.1-4.02Z"/>
      <path class="cls-10" d="M185.49,134.4c.11,1.32.4,2.69.71,3.98.08.32-.21.69.36.59.32-.1,2.16-3.9,2.64-4.32.26-.23.95-.37,1.08-.24.32.32-1.11,4.91-.96,5.76l-.72-.13.72-4.2-2.64,3.96-.71.36-1.08-4.56c-.2,0-.65,3.46-.84,3.96-.14.37-.2.69-.72.6-.18-.21.91-5.3,1.07-5.53.24-.35.74-.22,1.09-.23Z"/>
      <path class="cls-4" d="M127.47,156c-.29,1.31.27,2.55-1.44,2.16l1.07-6.25c.17-.24,2.48-.29,2.77-.12,1.6.96.08,6.42-2.4,4.21ZM128.89,155.51c.3-.2,1.03-2.88-.11-2.88-1.52,0-1.16,3.71.11,2.88Z"/>
      <path class="cls-7" d="M156.9,151.99c.16.15.5,1.02.53,1.28.21,1.76-.78,1.22-2.03,1.3-.34.02-.71-.17-.59.36.28,1.23.99.22,1.78.11.24-.03.8-.1.61.37-2.07,2.69-4.52,0-3.13-2.65.52-.99,1.98-1.56,2.83-.77ZM156.22,152.67c-.96-.58-2.27,1.42.26.93.08-.08-.22-.91-.26-.93Z"/>
      <path class="cls-4" d="M160.74,151.76c.11.06-.04.43.17.41,2.91-2.04,2.27,2.37,1.76,3.92-.17.52-.7.41-1.16.4-.19-.19.48-2.87.49-3.47.01-.73-.68-.33-.98-.01-1.05,1.1.06,3.83-1.91,3.49-.03-.63.55-4.63.74-4.78.12-.1.7-.06.89.05Z"/>
      <path class="cls-7" d="M122.2,154.56c-.39,2.08,2.95-.61,2.03,1.2s-4.32.34-2.88-2.88c.75-1.67,2.76-1.73,3.32.04.69,2.22-.9,1.58-2.48,1.64ZM123.63,152.64c-.27-.27-1.64.27-1.44.96h1.44c-.04-.23.06-.9,0-.96Z"/>
      <path class="cls-4" d="M192.13,151.73c3.43-.78,2.92,4.45.65,4.74-3.04.39-2.73-4.27-.65-4.74ZM192.36,152.67c-.84.27-.9,2.69,0,2.84,1.14.19,1.77-3.4,0-2.84Z"/>
      <path class="cls-4" d="M197.96,151.68c.33.73-1.03,4.08.12,3.84.99-.21,1.1-3.61,1.35-3.81.16-.13.88.03,1.17-.02-.3.66-.66,4.69-1.1,4.81-.89.23-.85-.52-.93-.49-.51.16-1.61,1.12-1.99-.17-.17-.58.1-3.57.4-4.01.21-.3.69-.09.98-.14Z"/>
      <path class="cls-4" d="M135.38,156.48c-.85.36-1.01-.51-1.08-.48-.64.29-1.47,1.15-1.93-.23-.84-2.52,2.07-2.1,2.27-2.43.89-1.43-1.65.02-1.9-.22-.86-.84,2.57-2.46,3.07-.79.36,1.19-.65,2.88-.43,4.15ZM134.42,154.32l-1.2.24c-.06,1.52,1.47,1.18,1.2-.24Z"/>
      <path class="cls-4" d="M190.05,150v1.2c-.33.06-1.6-.08-1.68,0-.19.19-.42,5.22-.86,5.3-.31.05-.72-.05-1.06-.01l.72-5.28h-1.44c-.06-.06.18-1.2.24-1.2h4.08Z"/>
      <path class="cls-4" d="M173.67,151.73c3.35-.99,3.35,4.39.65,4.75s-2.46-4.21-.65-4.75ZM174.14,152.67c-.59.19-1.04,1.85-.61,2.46,1.27,1.81,2.75-3.16.61-2.46Z"/>
      <path class="cls-4" d="M213.24,151.98c.3.29.41,1.02-.06,1.14s-1.14-.73-1.79-.48c.28,1.34,1.96.59,1.92,2.28-.04,2.1-3.4,2.17-3.6.12.59-.77,2.16,1.25,2.4.11.16-.76-2.01-.47-1.91-2.14.08-1.38,2.28-1.78,3.05-1.04Z"/>
      <path class="cls-10" d="M210.9,135.84l.36,3.36c.34.01,1.8-4.44,2.52-3.21.49.85-.19,2.45.72,2.96.04-.38,1.46-3.64,1.92-3.12.41.46-1.89,3.55-1.93,4.31-1.24.81-.91-2.73-1.31-3.35-.24,0-1.33,3.8-2.52,3.36.08-1.33-.42-2.62-.24-3.96.04-.33.16-.74.48-.36Z"/>
      <path class="cls-7" d="M136.98,134.25c3.71-.14,2.71,6.81-1.42,5.86-2.41-.55-1.69-5.75,1.42-5.86ZM138.2,135.19c-1.63-1.53-4.35,1.52-3.26,3.63,1.5,2.9,5.26-1.75,3.26-3.63Z"/>
      <path class="cls-10" d="M235.12,133.92c.23.21-1.22,5.36-1.22,6.21-1.53.05-3.21.47-3.35-1.54-.13-1.83,1.62-3.71,3.25-2.28.53,0,.34-3.29,1.32-2.39ZM232.41,136.36c-1.21.33-1.73,3.21-.28,3.34,1.74.15,2.29-3.89.28-3.34Z"/>
      <path class="cls-4" d="M181.18,150.01c.57.66-1.05,1.05-1.2,1.32-.32.6,1.16.04.72.96-.19.39-.86.22-.96.52-.19.54-.35,3.54-.48,3.67-.08.08-.93-.04-1.2,0-.11-.1.49-2.47.5-3s-.36-1.25-.28-1.64c.05-.22.5-.23.6-.41.33-.6.18-1.48,1.25-1.6.12-.01,1.01.13,1.05.17Z"/>
      <path class="cls-7" d="M144.01,150.48c-.4.93.45,1.25.48,1.36.34,1.11-.53.65-.74.94-.11.16-.5,2.37-.46,2.62,1.33.11.81,1.25-.34,1.09-1.72-.25-.24-2.79-.36-3.7-.02-.16-.48-.17-.5-.26-.12-.77.41-.6.64-.92.32-.44.3-1.2,1.28-1.12Z"/>
      <path class="cls-7" d="M167.03,150.48c-.4.93.45,1.25.48,1.36.34,1.11-.54.65-.74.94-.17.24-.57,2.58-.44,2.73s.8-.29.7.36c-.09.61-.5.72-1.06.6-1.81-.38-.24-2.74-.36-3.69-.02-.16-.48-.17-.5-.26-.12-.77.41-.6.64-.92.32-.44.3-1.2,1.28-1.12Z"/>
      <path class="cls-7" d="M205.39,151.68c.1,1.06-.9,1.05-1.33,1.43-.77.67-.71,3.24-.83,3.37-.08.08-.93-.04-1.2,0,.17-.65.56-4.62.73-4.79.14-.14,2.17.07,2.62-.01Z"/>
      <path class="cls-7" d="M140.9,151.68c.14,1.13-1.21,1.11-1.55,1.69s-.5,2.99-.62,3.1-.91-.04-1.19.01l.72-4.8h2.64Z"/>
      <path class="cls-10" d="M165.83,140.16c-.87-.4-2.53.47-3-.48-.9-1.82,1.37-2.37,2.76-2.16-.05-1.53-.79-1.12-1.82-.97-.46.07-.49-.3-.34-.46.16-.17,1.46-.3,1.79-.24,1.9.35.51,3.13.61,4.32ZM165.35,138c-.27-.27-1.99.25-2.11.87-.36,1.93,3.05.07,2.11-.87Z"/>
      <path class="cls-10" d="M194.84,140.16c-1.14-.42-2.61.63-3.18-.79-.61-1.52,1.81-2.07,2.94-1.85-.05-1.53-.79-1.12-1.82-.97-.46.07-.49-.3-.34-.46.16-.17,1.45-.3,1.79-.24,1.85.32.5,3.14.61,4.32ZM194.36,138c-.3-.3-2.87.3-2.05,1.45.74,1.05,2.67-.83,2.05-1.45Z"/>
      <path class="cls-10" d="M219.23,135.9c3.28-.86,3.19,3.87.64,4.25-2.98.45-2.73-3.7-.64-4.25ZM220.42,139.37c1.14-.92.7-4.15-1.36-2.68-1.62,1.15-.43,4.13,1.36,2.68Z"/>
      <path class="cls-10" d="M198.43,135.86c.07.06-.11.48.13.47.45-.73,2.06-.64,2.36.05.26.6-.22,3.54-.68,3.78s-.36-.33-.35-.59c.03-.78,1.1-3.16-.13-3.26-1.75-.14-1.6,2.94-2.03,3.7-.15.27-.67.2-.72.16-.15-.13.69-3.72.77-3.9.12-.27.42-.61.66-.4Z"/>
      <path class="cls-10" d="M150.49,138.24c-.11.11-2.64-.08-3.12,0-.08,1.59,1.17,1.61,2.39,1.2v.72c-.92.01-2.49.26-2.82-.89-.95-3.28,3.09-4.63,3.54-2.34.04.22.05,1.27,0,1.31ZM149.77,137.76c.52-1.99-1.9-1.81-2.16-.36-.13.73,1.7.22,2.16.36Z"/>
      <path class="cls-10" d="M204.19,139.2l1.62-2.81.77-.54c.23.24-2.74,5.46-3.22,5.77-.66.44-1.57.16-1.09-.25.03-.03.54,0,.85-.23,1.29-.97-.18-3.87.11-5.3,1.24.14.55,2.42.96,3.36Z"/>
      <path class="cls-10" d="M173.98,136.08c1.8.1,1.96.1,1.92,2.16h-3.12c-.08,1.58,1.15,1.62,2.39,1.2v.72c-2.43.4-3.84-.91-2.64-3.25.46-.91.81-.47.96-.58l-.48,1.44h2.16c.18-1.31-.17-1.26-1.2-1.68Z"/>
      <path class="cls-7" d="M208.27,151.68c-.25.66-.55,4.62-.72,4.8-.08.08-.93-.04-1.2,0,.2-.64.55-4.62.72-4.8.08-.08.93.04,1.2,0Z"/>
      <path class="cls-10" d="M170.15,134.88c.1.09-.34.87-.24.96.83-.01,1.1-.22.96.72-.27.06-1.11-.08-1.2,0-.1.1-.49,2.61-.45,2.74.14.54,1.15.06.93.86-2.69.24-1.12-1.79-1.17-3.25-.02-.45-.48-.37-.51-.47-.24-.87.4-.47.72-.72.22-.16.29-1.41.96-.84Z"/>
      <path class="cls-10" d="M157.2,135.84v.72c-4.15-.47-.74,1.11-.36,1.93.73,1.58-1.66,1.91-2.76,1.67v-.72c.63.29,2.18.44,2.17-.6,0-.79-2.16-.91-1.58-2.27.4-.92,1.69-.75,2.53-.73Z"/>
      <path class="cls-10" d="M239.2,135.84v.72c-4.26-.53-.47,1.32-.27,2.09.37,1.46-1.84,1.74-2.85,1.51v-.72c.89.26,1.86.56,2.17-.6,0-.73-2.17-.91-1.58-2.27.4-.92,1.69-.75,2.53-.73Z"/>
      <path class="cls-10" d="M160.8,135.12c.11.09-.32.65-.24.72.83-.01,1.1-.22.96.72-.27.06-1.11-.08-1.2,0-.1.1-.49,2.61-.45,2.74.14.54,1.15.06.93.86-2.61.38-.91-2.16-1.2-3.44-.04-.18-.76-.18-.47-.87.65.29,1.14-1.19,1.67-.73Z"/>
      <path class="cls-10" d="M229.36,133.92c.22.19-1.04,5.22-1.2,5.64-.14.37-.2.69-.72.6-.2-.24,1.04-5.8,1.19-6.08s.67-.2.72-.16Z"/>
      <path class="cls-10" d="M226.25,135.84s-.03.52,0,.72c-2.28-.48-1.54,2.35-2.16,3.44-.14.25-.65.22-.72.16-.16-.15.9-3.67.72-4.32.4.3,2.08-.07,2.16,0Z"/>
      <path class="cls-7" d="M142.57,136.32s.3-.39.64-.44c2.32-.33,1.6,2.45,1.15,3.8-.14.41-.01.57-.59.48-.22-1.52,1.62-4.47-1.2-3.6v-.24Z"/>
      <path class="cls-9" d="M173.98,136.08c1.03.42,1.38.37,1.2,1.68h-2.16s.48-1.44.48-1.44c.04-.03-.06-.33.03-.44.09-.1.35.19.45.2Z"/>
      <path class="cls-4" d="M142.57,136.32v.24c-.64.07-1,4.09-1.68,3.36.43-.52.59-3.69.72-3.84.09-.11.75.28.96.24Z"/>
      <path class="cls-10" d="M208.51,150c.13,1-.19,1.33-1.2,1.2v-1.2s1.2,0,1.2,0Z"/>
      <path class="cls-3" d="M46.87,95.83c24.07-1.89,42.43,20.17,35.59,43.55-7.5,25.64-41.02,32.53-58.32,12.17-17.55-20.66-4.3-53.6,22.72-55.72ZM51.21,98.19c-.18-.15-1.28.05-1.66-.03.12.7-.53,4.57-.37,4.81.23.35.74.23,1.09.24l.48-3.12c-.05.8.25,4.69,1.56,3.12.37-.45.29-1.81.83-2.16.17,1.23-.63,2.48.96,2.64-.03-.78.62-4.72.38-5.06s-1.15-.27-1.54-.19l-1.23,3.08c.07-.46-.37-3.22-.51-3.33ZM46.64,98.44c-1.68-1.02-.38,2.31-.45,3.09-.5-.41-2.63-3.36-3.35-2.64.03.65.55,4.85.73,5.02.1.09.7-.03.94.02.36-.55-.59-2.56-.48-2.64.67-.49,1.81,2.06,2.77,2.17.29.03.54.01.73-.24.14-.2-.68-4.64-.89-4.77ZM60.34,100.8s.23-.57.23-.6c-.01-.49-3.03-1.02-3.59-1.22l-1.43,4.94,3.84.96c.58-1.88-2.86-.72-2.39-2.51.17-.64,2.17.25,2.63.35l.24-.96c-.51-.18-2.28-.38-2.38-.87-.01-.06.19-.79.22-.81.11-.09,2.38.93,2.64.72ZM40.44,102.96c2.22-3.47-1.64-3.16-3.73-1.69.29.6,1.39,4.42,1.59,4.56.22.15.88-.24,1.19-.24.1-.14-1.72-2.84.41-1.97.96.39,1.34,1.5,2.71.77.16-.21-1.74-1.54-2.16-1.44ZM63.94,104.88c-.06-.66.37-4.12-.84-3.84-.25.06-2.68,4.35-2.52,4.56.03.04.86.27.93.23.34-.23.81-2.17,1.47-2.38.08.84-.46,4.18,1.06,3.82.38-.09,1.99-3.67,2.53-4.18-1.13-1.36-1.45.55-2.09,1.49-.15.21.04.45-.53.31ZM34.69,103.44l-.6-.91-3,2.24,3,3.96c.38-.29,2.97-1.88,3-2.06.38-2.08-2.45.89-2.86.59-.04-.03-.47-.77-.47-.82,0-.37,1.73-1.17,1.86-1.35.05-.08-.18-.9-.22-.93-.3-.23-1.88,1.28-2.28,1.44-.1-.2-.63-.91-.6-.95.07-.1,1.83-1.09,2.16-1.21ZM69.46,106.56c.39-.02,1.23.95,1.31.95.04,0,.59-.55.6-.59,0-.32-2.66-2.24-2.99-2.76-1.5,1.06.5,1.15.35,1.78-.08.37-2.27,2.33-2.37,2.7s.37,1.03.57,1.03,2.35-2.67,2.52-3.12ZM47.1,104.95c-19.16,1.84-28.32,25.04-16.49,40.12,12.09,15.41,37.14,10.86,42.98-7.85,5.47-17.51-8.4-34.02-26.49-32.28ZM26.3,109.44c1.1.03,4.27,2.2,5.03,1.81.17-.09.41-.35.45-.54.19-.76-2.04-3.83-2.13-4.87-2,.9.53,2.64.72,4.08-1.49-.24-3.16-2.46-4.07-.48ZM25.52,111.4c-4.11.68-1.26,7.12,2.1,4.76,2.5-1.76.25-5.15-2.1-4.76ZM74.43,112.61c-3.63.54-2.64,5.44.18,5.26.44-.03,1.76-.77,2.05-1.09,1.55-1.72.09-4.51-2.22-4.16ZM22.94,117.6c-1.25-.21-2.02.86-2.24,1.97-.59,3.01,4.45,4.49,5.26.92.46-2.04-.59-2.27-2.29-2.66.12.5-.69,1.84-.47,2.14.03.04.88.32.95.26.07-.07-.05-1.16.72-.96.87,3.71-4.53,2.03-2.89-.14.34-.46,1.29-.41.98-1.54ZM79.02,118.58c-.19-.14-4.34.95-4.63,1.16s-.1.67-.14.98c.52.31,2.07-.55,2.15-.48.41.32.02,2.51,1.44,1.92l-.48-2.15c1.49-1.14,1.39,2.26,1.8,2.15,1.4-.38-.08-2.61-.14-3.58ZM21.02,130.08c.2-.34.47-2.15-.12-2.15-.49,0-.54,2,.12,2.15ZM79.28,130.08c.88-1.54-.59-3.14-.46-1.11.01.21.12,1.14.46,1.11ZM20.06,130.56c-.08-.07-2.11-.51-1.92.35.16.73,2.5.13,1.92-.35ZM21.74,131.04c.16.15,2.1.52,1.92-.35-.14-.64-2.46-.16-1.92.35ZM78.32,130.56c-.08-.07-2.11-.51-1.92.35.16.73,2.5.13,1.92-.35ZM80,131.04c.16.15,2.1.52,1.92-.35-.14-.64-2.46-.16-1.92.35ZM20.79,131.52c-.2.34-.47,2.15.12,2.15.49,0,.54-2-.12-2.15ZM79.04,131.52c-.06.33-.53,2.16.12,2.15.5,0,.54-2-.12-2.15ZM74.01,149.77c-1.34-.07-4.67-2.32-5.75-1.81-.17.08-.4.34-.44.52-.13.67,2.07,4.47,2.47,5.36,1.48-.86-.03-1.35.58-2.28,1.29-1.97,2.58.12,3.13-1.79ZM30.61,150.48c.14-.51,1.36-1.22,1.42-1.59.06-.35-.5-.93-.94-.7-.23.12-2.6,2.75-2.88,3.13-.54.75-.71,1.2.35,1.56.6-.84.85-1.42,2.04-1.2.17,1.52-1.32,2.98.72,3.6.31-.22.28-3.17.59-3.61s2.23-.06,2.77-.58c-1.03-1.57-2.59-.49-4.07-.6ZM66.13,152.85c-.27-.44.46-2.17.2-2.84-1.63.47-1.39,2.43-1.44,3.84-.59-.17-1.08-1.58-1.59-1.66-.25-.04-.73.38-.75.58-.02.27,2.91,4.37,3.18,4.39.15.01.8-.4.84-.57.09-.39-1.45-1.53-.71-2.5,1.47.28,2.72,1.84,3.83.12-.49-.23-3.42-1.13-3.56-1.35ZM37.53,152.69c-.08-.13-1.11-.67-1.33-.35-.5.56-4.25,3.13-4.15,3.55.28,1.14,1.65-.12,2.04-.11.08,0,1.47.68,1.52.75.18.29-.25,2.17.88,2.12.31-.01.31-.62.36-.83.13-.59.82-4.9.69-5.12ZM64.42,157.92c.2-.27-.22-.55-.36-.72-.31-.4-3.26-3.39-3.49-3.49-.32-.13-1.16.12-1.32.36-.25.36.42,4.88.13,5.77,1.82.12.88-1.03,1.31-1.69.05-.08,1.35-.65,1.51-.67.71-.1.78.55,1.19.65.19.05,1-.17,1.03-.21ZM41.64,157.93c4.39-1.42.46-3.79-2.16-4.08-.02.75-1.84,5.05-1.68,5.28.04.05,1.12.32,1.2.24,1.16-5.03,1.72.38,2.22.9.17.18,1.04.4,1.14.3.22-.22-.44-2.29-.72-2.64ZM58.18,155.76c.1-.1.04-1.1-.35-1.16-.51.41-3.81.79-3.95.94-.04.04-.05.91-.01.94.21.22,1.59-.3,1.68-.24.23.17.79,4.14.99,4.3.15.13.88-.03,1.18.02l-.96-4.55c.28-.18,1.39-.19,1.44-.25ZM45.44,155.56c-.16-.09-1.08-.09-1.15-.03-.24.22-.39,4.47-.67,5.16.2.47.69.36,1.14.35.22-.91.14-1.89.24-2.77.15-1.31.57.34.67.53.38.76,1.11,2.77,2.09,2.71.48-.03.91-5.05.83-5.75-1.51-.38-1.06,1.38-1.26,2.46-.04.22-.1.72-.42.66-.18-.46-1.32-3.22-1.48-3.32ZM52.39,155.8c-.16-.1-1.28-.1-1.38-.01-.23.19-1.45,4.99-1.7,5.73,1.75.31,1.14-.61,1.55-1.21.22-.31,2-.35,2.25-.2.22.14.09,1.28,1.11,1.18.21-.02.58-.2.59-.37.03-.28-2.18-4.98-2.43-5.12Z"/>
      <path class="cls-9" d="M117.82,151.26c.98.84.1,4.96-2.1,4.02-.15-.15.43-3.84.59-4.09.24-.37,1.27-.14,1.5.07Z"/>
      <path class="cls-9" d="M128.89,155.51c-1.26.84-1.62-2.87-.11-2.88,1.13,0,.41,2.68.11,2.88Z"/>
      <path class="cls-9" d="M156.22,152.67s.35.86.26.93c-2.54.49-1.22-1.51-.26-.93Z"/>
      <path class="cls-9" d="M123.63,152.64c.06.06-.04.73,0,.96h-1.44c-.2-.69,1.17-1.23,1.44-.96Z"/>
      <path class="cls-9" d="M192.36,152.67c1.76-.56,1.14,3.02,0,2.84-.9-.15-.84-2.57,0-2.84Z"/>
      <path class="cls-9" d="M134.42,154.32c.27,1.43-1.25,1.76-1.2.24l1.2-.24Z"/>
      <path class="cls-9" d="M174.14,152.67c2.14-.69.65,4.28-.61,2.46-.43-.62.02-2.27.61-2.46Z"/>
      <path class="cls-13" d="M138.2,135.19c2,1.87-1.76,6.53-3.26,3.63-1.09-2.11,1.63-5.16,3.26-3.63Z"/>
      <path class="cls-13" d="M232.41,136.36c2.01-.55,1.46,3.48-.28,3.34-1.45-.12-.93-3.01.28-3.34Z"/>
      <path class="cls-9" d="M165.35,138c.94.94-2.47,2.8-2.11.87.12-.63,1.84-1.14,2.11-.87Z"/>
      <path class="cls-9" d="M194.36,138c.61.62-1.31,2.5-2.05,1.45-.82-1.15,1.75-1.75,2.05-1.45Z"/>
      <path class="cls-13" d="M220.42,139.37c-1.79,1.45-2.98-1.53-1.36-2.68,2.06-1.47,2.5,1.76,1.36,2.68Z"/>
      <path class="cls-9" d="M149.77,137.76c-.46-.14-2.3.36-2.16-.36.26-1.44,2.69-1.63,2.16.36Z"/>
      <path class="cls-5" d="M47.1,104.95c18.09-1.74,31.96,14.77,26.49,32.28-5.84,18.7-30.89,23.25-42.98,7.85-11.84-15.08-2.67-38.28,16.49-40.12ZM48.54,105.43c-19.19,1.26-29.35,23.34-17.79,38.79,10.2,13.64,31.55,12.43,40.09-2.31,9.67-16.69-3-37.75-22.3-36.48Z"/>
      <path class="cls-6" d="M51.21,98.19c.14.12.58,2.87.51,3.33l1.23-3.08c.4-.08,1.31-.14,1.54.19s-.42,4.27-.38,5.06c-1.59-.16-.79-1.41-.96-2.64-.55.35-.46,1.72-.83,2.16-1.32,1.57-1.62-2.32-1.56-3.12l-.48,3.12c-.36,0-.86.11-1.09-.24-.16-.24.49-4.1.37-4.81.37.07,1.48-.12,1.66.03Z"/>
      <path class="cls-6" d="M41.64,157.93c.27.35.93,2.42.72,2.64-.1.1-.97-.11-1.14-.3-.5-.52-1.06-5.93-2.22-.9-.08.07-1.16-.19-1.2-.24-.16-.23,1.66-4.53,1.68-5.28,2.61.3,6.54,2.66,2.16,4.08ZM39.96,156.48c.05.07,1.54.5,1.75.45,1.5-.38-.04-1.86-1.37-1.66-.18.15-.42,1.16-.38,1.21Z"/>
      <path class="cls-6" d="M45.44,155.56c.16.09,1.3,2.86,1.48,3.32.32.06.38-.44.42-.66.2-1.08-.25-2.84,1.26-2.46.07.7-.35,5.72-.83,5.75-.98.06-1.71-1.95-2.09-2.71-.09-.19-.52-1.84-.67-.53-.1.87-.02,1.86-.24,2.77-.45,0-.94.12-1.14-.35.28-.69.43-4.93.67-5.16.07-.06.99-.07,1.15.03Z"/>
      <path class="cls-6" d="M30.61,150.48c1.48.12,3.04-.96,4.07.6-.54.52-2.47.14-2.77.58s-.28,3.39-.59,3.61c-2.04-.62-.55-2.08-.72-3.6-1.2-.22-1.45.36-2.04,1.2-1.06-.35-.89-.81-.35-1.56.28-.38,2.64-3.01,2.88-3.13.44-.23,1,.35.94.7-.06.37-1.28,1.08-1.42,1.59Z"/>
      <path class="cls-6" d="M66.13,152.85c.14.23,3.07,1.12,3.56,1.35-1.12,1.72-2.36.16-3.83-.12-.73.97.8,2.11.71,2.5-.04.17-.69.58-.84.57-.27-.02-3.2-4.12-3.18-4.39.02-.2.5-.62.75-.58.51.08,1,1.49,1.59,1.66.05-1.41-.19-3.37,1.44-3.84.26.67-.47,2.41-.2,2.84Z"/>
      <path class="cls-6" d="M52.39,155.8c.24.15,2.45,4.84,2.43,5.12-.02.17-.39.35-.59.37-1.02.1-.89-1.04-1.11-1.18-.25-.16-2.03-.12-2.25.2-.41.59.2,1.51-1.55,1.21.25-.74,1.47-5.54,1.7-5.73.1-.08,1.22-.08,1.38.01ZM52.67,159.12l-.84-1.68-.6,1.68h1.44Z"/>
      <path class="cls-6" d="M64.42,157.92s-.84.26-1.03.21c-.41-.11-.47-.75-1.19-.65-.16.02-1.46.59-1.51.67-.43.66.51,1.81-1.31,1.69.28-.89-.38-5.41-.13-5.77.16-.24,1.01-.49,1.32-.36.23.1,3.18,3.09,3.49,3.49.13.17.56.45.36.72ZM61.78,156.72l-1.44-1.44v1.68s1.44-.24,1.44-.24Z"/>
      <path class="cls-6" d="M22.94,117.6c.31,1.13-.63,1.08-.98,1.54-1.63,2.17,3.77,3.85,2.89.14-.77-.2-.65.89-.72.96-.06.06-.92-.22-.95-.26-.22-.3.59-1.65.47-2.14,1.7.39,2.75.62,2.29,2.66-.8,3.57-5.85,2.09-5.26-.92.22-1.11.99-2.19,2.24-1.97Z"/>
      <path class="cls-6" d="M46.64,98.44c.21.13,1.03,4.57.89,4.77-.18.25-.44.28-.73.24-.95-.11-2.1-2.65-2.77-2.17-.11.08.83,2.09.48,2.64-.25-.04-.84.08-.94-.02-.19-.17-.71-4.37-.73-5.02.72-.72,2.85,2.23,3.35,2.64.07-.78-1.23-4.11.45-3.09Z"/>
      <path class="cls-6" d="M63.94,104.88c.57.13.39-.1.53-.31.65-.94.96-2.85,2.09-1.49-.55.51-2.15,4.09-2.53,4.18-1.52.36-.98-2.98-1.06-3.82-.65.21-1.13,2.15-1.47,2.38-.07.05-.9-.19-.93-.23-.16-.21,2.27-4.5,2.52-4.56,1.21-.28.78,3.18.84,3.84Z"/>
      <path class="cls-6" d="M40.44,102.96c.42-.1,2.32,1.23,2.16,1.44-1.37.73-1.75-.38-2.71-.77-2.13-.87-.31,1.83-.41,1.97-.31,0-.97.39-1.19.24-.2-.14-1.3-3.96-1.59-4.56,2.09-1.47,5.95-1.79,3.73,1.69ZM39.93,102.21c.17-.29,0-1.11-.33-1.17-.08-.02-1.5.42-1.55.48-.07.08.18,1.14.25,1.19.19.13,1.58-.42,1.63-.5Z"/>
      <path class="cls-6" d="M74.01,149.77c-.56,1.91-1.84-.18-3.13,1.79-.61.93.9,1.42-.58,2.28-.39-.9-2.6-4.69-2.47-5.36.03-.18.27-.44.44-.52,1.08-.51,4.41,1.74,5.75,1.81ZM70.89,149.77l-1.68-.72.72,1.92c.1.07,1.18-.88.96-1.2Z"/>
      <path class="cls-6" d="M37.53,152.69c.13.22-.56,4.52-.69,5.12-.05.21-.05.82-.36.83-1.13.05-.7-1.83-.88-2.12-.04-.07-1.43-.75-1.52-.75-.39-.01-1.76,1.25-2.04.11-.1-.41,3.65-2.99,4.15-3.55.23-.32,1.26.22,1.33.35ZM36.13,155.52l.24-1.92-1.67,1.32c.35.41.89.65,1.43.6Z"/>
      <path class="cls-6" d="M74.43,112.61c2.31-.35,3.77,2.44,2.22,4.16-.29.32-1.61,1.06-2.05,1.09-2.82.19-3.81-4.71-.18-5.26ZM73.34,116.35c1.12,1.12,3.79-.74,2.6-2.25-1.04-1.31-4.03.82-2.6,2.25Z"/>
      <path class="cls-6" d="M25.52,111.4c2.35-.39,4.6,3,2.1,4.76-3.36,2.36-6.21-4.08-2.1-4.76ZM27.44,115.15c1.27-1.27-1.36-3.47-2.59-2.23-1.57,1.58,1.43,3.39,2.59,2.23Z"/>
      <path class="cls-6" d="M34.69,103.44c-.33.11-2.09,1.11-2.16,1.21-.03.05.49.76.6.95.4-.16,1.98-1.67,2.28-1.44.04.03.27.85.22.93-.13.18-1.86.98-1.86,1.35,0,.05.43.79.47.82.41.3,3.24-2.68,2.86-.59-.03.18-2.62,1.76-3,2.06l-3-3.96,3-2.24.6.91Z"/>
      <path class="cls-6" d="M60.34,100.8c-.26.21-2.53-.81-2.64-.72-.03.03-.23.76-.22.81.1.49,1.87.69,2.38.87l-.24.96c-.45-.1-2.46-1-2.63-.35-.47,1.79,2.97.63,2.39,2.51l-3.84-.96,1.43-4.94c.57.19,3.58.73,3.59,1.22,0,.03-.2.58-.23.6Z"/>
      <path class="cls-6" d="M26.3,109.44c.91-1.98,2.59.25,4.07.48-.19-1.44-2.72-3.18-.72-4.08.08,1.04,2.32,4.11,2.13,4.87-.05.19-.28.45-.45.54-.75.39-3.93-1.78-5.03-1.81Z"/>
      <path class="cls-6" d="M58.18,155.76c-.05.05-1.16.07-1.44.25l.96,4.55c-.3-.05-1.02.11-1.18-.02-.19-.16-.76-4.13-.99-4.3-.08-.06-1.46.46-1.68.24-.03-.03-.02-.9.01-.94.14-.15,3.44-.53,3.95-.94.39.06.45,1.06.35,1.16Z"/>
      <path class="cls-6" d="M79.02,118.58c.05.97,1.53,3.2.14,3.58-.41.11-.31-3.3-1.8-2.15l.48,2.15c-1.42.59-1.03-1.6-1.44-1.92-.09-.07-1.63.79-2.15.48.04-.32-.15-.77.14-.98s4.44-1.3,4.63-1.16Z"/>
      <path class="cls-6" d="M69.46,106.56c-.17.45-2.32,3.12-2.52,3.12s-.67-.66-.57-1.03,2.28-2.33,2.37-2.7c.14-.63-1.86-.72-.35-1.78.33.52,3,2.44,2.99,2.76,0,.04-.55.59-.6.59-.08,0-.93-.97-1.31-.95Z"/>
      <path class="cls-5" d="M80,131.04c-.54-.51,1.78-.99,1.92-.35.19.87-1.76.5-1.92.35Z"/>
      <path class="cls-5" d="M21.74,131.04c-.54-.51,1.78-.99,1.92-.35.19.87-1.76.5-1.92.35Z"/>
      <path class="cls-5" d="M20.06,130.56c.59.49-1.76,1.09-1.92.35-.2-.87,1.83-.42,1.92-.35Z"/>
      <path class="cls-5" d="M78.32,130.56c.59.49-1.76,1.09-1.92.35-.2-.87,1.83-.42,1.92-.35Z"/>
      <path class="cls-5" d="M21.02,130.08c-.66-.15-.61-2.15-.12-2.15.59,0,.32,1.81.12,2.15Z"/>
      <path class="cls-5" d="M20.79,131.52c.66.15.61,2.15.12,2.15-.59,0-.32-1.81-.12-2.15Z"/>
      <path class="cls-5" d="M79.28,130.08c-.34.03-.44-.9-.46-1.11-.13-2.03,1.34-.43.46,1.11Z"/>
      <path class="cls-5" d="M79.04,131.52c.66.15.61,2.15.12,2.15-.65,0-.18-1.82-.12-2.15Z"/>
      <path class="cls-13" d="M48.54,105.43c19.3-1.27,31.97,19.79,22.3,36.48-8.54,14.74-29.89,15.95-40.09,2.31-11.56-15.45-1.4-37.53,17.79-38.79ZM48.59,109.68c-.69-.11-.83.15-1.2.24-.08.02-.17.21-.24.24-.36.14-1.27-.34-1.18.85.06.79.74.65.95.83.05.04.22.39.24.48-.98.94.37,1.98.48,2.4.06.22.06,1.77,0,1.99-.06.24-.54.22-.68.57-.11.28.02.66-.04.8s-.62.13-.44,1.02.8.76.92.9c.09.11.13.75.24.96-.2.06-.3.55-.48.72.26-.9-1.74-.25-1.97-.17-.93.35-1.78,1.43-2.67,1.89-.59.31-.27.13-.64-.29-.07-.23-.64-1.74-.72-1.92.52.06,1.54-.38,1.64-.88.03-.17-.2-.3-.2-.32.23-.84.66-1.62.72-2.52l-.72-.12c0-.55-.42-2.21.36-2.4.65-.16.66,1.08.6,1.44,1.05-.54.59.19,1.08.48s.4-.8.34-1.06c-.36-1.59-1.39-2.91-3.09-1.92-1.43.83-.05,2.79-.97,3.35-.62.38-1.25-.11-1.77-.06-.31.03-.61.4-.99.4-.5,0-2.6-1.31-2.76.38-.1,1.08,1.71,1.4.97-.13,2.68,1.05-1.98,1.45.24,2.64-.54.47-.62,1.34-.72,1.92-.08.47-.31.94-.24,1.44.13.86.65,1.25.48,2.64-.31,2.55-1.7,2.36-3,3.59-.56.53-.91,2.39-2.11,1.47-1.81-1.38,3.46-3.8,3.67-5.44.25-1.95-.9-2.14-2.39-1.78-1.18.28-2.13.61-2.62,1.83-.13.32-.36,2.86-.25,2.96.05.05.34-.03.48,0,.1.02.2.14.24.24-1.16,1.88-.08,3.78,2.16,3.36-.41.84-.06,1.97-.29,2.71-.11.36-.63.52-.68,1.01-.06.64.7,1.85,0,2.52-.92-.72-.55-.55-.58-1.69-1.77-.79-1.14.48-1.22,1.33-.02.23-.34.36-.27.84.15,1,1.12,1.54,2.07,1.44l-.24.72c1.02.08,1.35.93,2.46.66.8-.19,1.45-.98,2.33-.9.06,1.73.24.95.88.8.2-.05.51.17.54.15.08-.06.13-.82.29-.92.59-.37,1.73.67,1.41-.99.64.3,1,1.06,1.55,1.45.35.25.77.18.84.23.48.33.87.87,1.35,1.17.53.33,1.53.11.93,1-.38.57-3.27-.68-4.12-.71-.93-.03-2.01.47-2.72,1.06l1.92-.12c.04.31-2.07,1.72-1.07,1.92.55.11,1.44-.68,2.15-.68,1.64-.02,2.63,1.33,4.69.34,1.56-.75.55-1.55.47-2.91-.02-.36.24-.7.24-.83h.24c3.41,1.66,5.94,1.21,9.35,0,1.16,1.26-1.33,3,.96,3.84,1.6.59,2.03-.02,3.36-.24,1.72-.29,2.19.45,3.84.48l-1.44-1.8c.21-.38,1.07.27,1.2.12.63-.75-1.42-1.18-2.01-1.17-.85.01-1.75.48-2.54.7-.26.07-.7-.07-.96,0h-.96s.24-.72.24-.72c.26-.08.92-.53,1.2-.72.3-.21.58-.34.72-.72,1.53-.15,1.47-.87,2.63-1.68-.23,1.52.42.68,1.21,1.07.35.18.41.74.51.8.07.04.34-.15.52-.11.28.07.49.39.53.39.39.03.27-1.17.49-1.21,1.28-.23,1.39,1.17,2.76.88.15-.03,1.8-.61,1.87-.69.51-.52-.16-.2,1.09-.93,1.16-.68.59-1.33.51-2.01-.05-.47.28-1.31-.37-1.7-.21-.13-.89.08-.94.16-.33.45.81.99-.5,1.9-1.05-.73.09-1.72,0-2.52-.05-.44-.5-.63-.66-1.03-.34-.87,0-1.82-.3-2.7,2.42.5,3.37-1.85,1.92-3.6-.04-.15.12-.27.24-.24.1.03.25.33.48.24.34-1.51.34-3.37-1.06-4.34-.38-.26-.68-.14-.85-.22-.06-.03-.17.03-.24,0-.1-.03-.2-.18-.48-.24-.8-.17-1.98-.6-2.35.65-.83,2.86,4.52,4.39,3.85,6-.96,2.31-1.97-.77-2.57-1.14s-1.37-.37-1.92-1.19c-.47-.7-.73-2.32-1.09-2.63-.29-.48-.4-.47.2-.52.07-.13-.21-.18-.2-.2.14-.96.1-.82,0-1.68-.14-1.19.77-1.24.72-1.32-.16-.26-.64-.3-.7-.39-.11-.17.23-.57.23-.79,0-.15-.34-.13-.4-.22-.11-.17-.07-.38-.09-.4,1.76-1.11-.16-.99-.6-1.68s.18-.91.84-.96l-.24.96c1.18.47,1.49-1.09.72-1.56-.91-.55-1.7.36-2.28.35-.38,0-.67-.36-.99-.4-.5-.06-1.13.32-1.83.16-1.33-.29.69-2.5-.83-3.3-2.33-1.21-3.29.76-3.18,2.82.58.15.52-.44.8-.66.43-.33.72.35.76-1.27,1.16-.16.8,1.19.84,1.92-1.59.95-.14,2.09,0,2.88.02.1-.4.38-.03.85s.98.42,1.23.59c.37.26.17.6.24.72-.71.29-.75.85-.96,1.44-.03.07.02.17,0,.24-1.37-.18-1.97-1.62-3.06-2.1-.25-.11-.96-.23-1.35-.34-.62-.17-.56-.04-.63.51-.65-.15-.82-.54-.48-1.2.23-.44.66-.44.96-1.2.03-.07.21-.13.22-.36,0-.28-.18-.43-.22-.6-.16-.69-.36-1.7-1.2-1.44.08-.66.09-1.52.24-2.16.07-.31.35-.78.48-1.2.16-.51.21-1.05.36-1.44.34-.86,1.14-.21-.12-1.44-.81-.79-.59-.91-1.92-.48,0-.08,0-.16,0-.24,0-.03.34-.26.23-.57-.2-.56-1.75-.43-2.28-.39-.73.06-.62-.13-.59.72Z"/>
      <path class="cls-3" d="M39.96,156.48c-.04-.05.2-1.06.38-1.21,1.33-.2,2.87,1.28,1.37,1.66-.21.05-1.7-.38-1.75-.45Z"/>
      <polygon class="cls-3" points="52.67 159.12 51.23 159.12 51.83 157.44 52.67 159.12"/>
      <polygon class="cls-3" points="61.78 156.72 60.34 156.96 60.34 155.28 61.78 156.72"/>
      <path class="cls-3" d="M39.93,102.21c-.05.08-1.45.63-1.63.5-.07-.05-.32-1.11-.25-1.19.05-.06,1.47-.5,1.55-.48.33.06.51.88.33,1.17Z"/>
      <path class="cls-3" d="M70.89,149.77c.23.31-.86,1.27-.96,1.2l-.72-1.92,1.68.72Z"/>
      <path class="cls-3" d="M36.13,155.52c-.55.05-1.08-.19-1.43-.6l1.67-1.32-.24,1.92Z"/>
      <path class="cls-3" d="M73.34,116.35c-1.42-1.43,1.57-3.56,2.6-2.25,1.19,1.51-1.49,3.36-2.6,2.25Z"/>
      <path class="cls-3" d="M27.44,115.15c-1.16,1.15-4.16-.66-2.59-2.23,1.23-1.23,3.87.97,2.59,2.23Z"/>
      <path class="cls-12" d="M67.77,124.32l.48.24c.07.03.18-.03.24,0-.14.93-.52,1.8.12,2.64l-.84.24c-.38-.85.23-3.3-1.13-2.71-1.72.75.49,2.42,1.13,2.95.13.11.26.3.48.48.39.32,1.12.57,1.44.96,1.45,1.75.51,4.1-1.92,3.6.31.87-.04,1.83.3,2.7.16.4.61.58.66,1.03.09.79-1.05,1.79,0,2.52-.8.56-1.4.61-2.4.48,1.11-.98,1.74-1.29.72-2.76-.16-.23-2.29-2.61-2.45-2.7-.25-.14-1.66-.32-2.1-.53-.37,1.19.98.91.7,2.02-.46.75-1.3-.19-1.9.62-.74-.35-1.69-.99-2.16-1.2.33-.87,1.29-.04,1.92-.24.04-1.39-1.4-2.14-1.66-3.45l1.42-.86c.37.24.82.48,1.2.72s2.06,1.8,2.4,1.44c.35-1.69-.53-1.47-1.68-2.16-.8-.48-1.9-1.07-2.73-1.71-.23-.18-.37-.38-.39-.68-.87-.03-.86.86-.47,1.44-1.38.2-1.82,3.04-2.78,3.13-.33.03-.55-.25-.58-.25.67-.94.57-1.35.48-2.4.15-.02.35.04.48,0,1.22-.33.56-2.82.72-3.84.24-.02.48.03.72,0,1.34-.15,2.46-.14,3.6.15.18.04.27.35.47.33-.37-.96.93-.93,1.44-.48.35.31.62,1.93,1.09,2.63.55.82,1.34.82,1.92,1.19s1.61,3.46,2.57,1.14c.67-1.61-4.68-3.14-3.85-6,.36-1.25,1.54-.82,2.35-.65Z"/>
      <path class="cls-15" d="M46.67,134.16c1.04.26,1.98.97,2.88,1.44h.24c.13.06.26.27.48.24-.01.04.37.43,0,.72h-.72c-.07.34.09.92,0,1.2-.01.03-.35.18-.45.39-.11.25-.21.72-.27.81,0,.01-.21.21-.24.24-.62.5-1.45.4-2.16.48-.13.02-.36.24-.48.24-.02-.27-.67-1.33-.77-1.39-.39-.22-1.21.28-.87-.62s2.96-.77,3.02-.04-.59.7-1.13.37c.11,1.5,2.48.79,2.17-.56-.05-.23-1.4-1.06-1.45-1.13-.09-.12.71-.67.48-.95-.07-.08-.91-.31-.96.12-.02.18.34.7.24.83-.14.2-2.61.45-3.12.48l.12-1.68c-.99.67-.47,1.45-.36,2.4-.47.21-1.7-.02-2.02.21-.33.25-.04.89-.14.99-.08.08-1.61-.29-.86.73.44.59,2.21.15,2.29.23.61.6-1.25,1.2-1.68,1.2.07.48,1.06.18,1.44.24.21.03.54.18.96.24-.44.62-1.26.49-1.92.48-.07-.05-.5.02-.84-.23-.55-.4-.91-1.15-1.55-1.45.32,1.67-.81.62-1.41.99-.16.1-.2.86-.29.92-.03.02-.34-.2-.54-.15-.64.15-.83.93-.88-.8-.88-.08-1.53.71-2.33.9-1.12.27-1.44-.59-2.46-.66l.24-.72c-.95.1-1.92-.44-2.07-1.44-.07-.48.25-.61.27-.84.08-.85-.55-2.12,1.22-1.33.04,1.14-.34.97.58,1.69.15.12.08.38.59.48.4.07,1.38.06,1.8,0,.4-.06.95-.51,1.44-.48l-1.19-1.32c.12-.19,1.12-.82,1.15-.89.21-.55-.98-1.03,1.24-1.15-.52,2.67,1.22,1.05,2.4.48.7-.34,1.69-1,2.16-1.2,1.38-.59,4.31-1.08,5.75-.72Z"/>
      <path class="cls-15" d="M59.14,134.88c.47.21,1.42.85,2.16,1.2.05.02.15.31.41.42,3.3,1.44,1.67-.55,1.99-.9,2.22.12,1.03.6,1.24,1.15.03.07,1.03.69,1.15.89l-1.19,1.32c.48-.03,1.04.43,1.44.48,1,.13,1.6.08,2.4-.48,1.3-.91.16-1.44.5-1.9.05-.07.73-.28.94-.16.65.39.32,1.23.37,1.7.08.68.64,1.33-.51,2.01-1.25.73-.58.41-1.09.93-.07.07-1.72.65-1.87.69-1.36.29-1.47-1.11-2.76-.88-.22.04-.09,1.23-.49,1.21-.03,0-.24-.33-.53-.39-.18-.04-.45.15-.52.11-.1-.06-.16-.62-.51-.8-.79-.4-1.44.45-1.21-1.07-1.16.81-1.1,1.53-2.63,1.68-.39.04-.8-.03-1.2,0-.16-.44-.42-.62.48-.72.13-.01,1.12.46,1.2-.24l-1.43-.84c.25-.54,1.54-.04,2.15-.49,1.19-.88-.61-.81-.68-.87-.09-.08-.04-.48-.16-.67-.39-.59-1.97-.41-2.02-.5-.23-.41.7-1.83-.12-2.16-1.29-.51.14,1.19-.12,1.44-1.27-.25-3.65.47-2.88-1.44-1.65.03-.49.7-.49.84,0,.13-1.8,1.16-1.32,2.04.39.71,2.03.94,2.05-.24-.77.55-1.7-.1-.85-.74.39-.29,2.82-.41,2.78.61l-.49.6c.72.35,1.03-.29,1.79-.26,1.01.03,1.12.98.48,1.22s-.61-.48-.71-.47c-.11.01-.26.22-.37.23-.86.1-1.78.19-2.64.24s-1.54.17-2.4-.48c-.07-.11-.13-.18-.24-.24-.07-.11-.12-.48-.24-.72-.19-.36-.66-1.18-.48-1.68.05-.14,1.07-.88.96-1.44.37-.19,1.47-.91,1.68-.96,1.38-.31,4.66.12,5.99.72Z"/>
      <path class="cls-15" d="M51.23,138.96c.07.11.14.16.24.24.74,1.16-.9.71-1.2,1.44-.16.01-.32,0-.48,0-.27-.69-1.98-.34-1.2-1.44.02-.03.22-.23.24-.24.49-.25,1.9-.29,2.4,0Z"/>
      <path class="cls-12" d="M32.29,124.32c1.49-.36,2.65-.17,2.39,1.78-.21,1.64-5.48,4.06-3.67,5.44,1.2.92,1.55-.93,2.11-1.47,1.3-1.23,2.69-1.04,3-3.59.68-.52,1.63-.56,2.4-.24.05.02.05.37.48.24.48-1.44.46-.23.6-.23.42,0,.58-.46.84-.49,0,1.34,1.12-.75.96.48.67-.96.66-.46.72-.48l.48,1.68c0,.78.02,2.42.96,2.4-.05.92.15,1.68.72,2.4-.03,0-.25.28-.58.25-.84-.08-1.51-2.84-2.78-3.13-.03-2.05-.19-1.34-1.2-.72-.57.35-4.02,2.57-4.08,2.81-.07.3.04.7,0,1.03.28.3,2.34-1.35,2.8-1.64.29-.18.67-.2.79-.27,2.97.19-.36,2.56-.24,4.08.63.2,1.59-.63,1.92.24-.46.2-1.46.86-2.16,1.2-.48-.78-1.68.1-1.9-.63s.71-1.28.46-2.01c-.07-.07-1.8.55-1.9.61-.15.1-2.2,2.35-2.41,2.63-1.17,1.54-.45,1.64.72,2.76-.42.06-1.4.07-1.8,0-.52-.09-.44-.36-.59-.48.7-.67-.07-1.88,0-2.52.05-.49.57-.65.68-1.01.23-.75-.12-1.87.29-2.71-2.24.42-3.32-1.48-2.16-3.36.31-.5.9-.73,1.2-1.2.27-.42.32-1.84.48-2.4l.24.96c-.02.07-.42,1.18.12.96,1.47-.47,2.84-3.5.36-2.88-.06-.08-.79.24-.24-.48Z"/>
      <path class="cls-4" d="M52.43,120.48c-.35.66-.17,1.05.48,1.2,1.09.25,3.18,1.06,2.88,2.4-.09.42-.51.69-.49,1.55.04,1.26.84,2.68.97,4.21.09,1.05.19,1.46-.48,2.4-1.55.07-1.71.85-2.64,1.92-.21.05-1.3.77-1.68.96-.32.16-.99-.06-1.2.72-.22.03-.35-.18-.48-.24-.2-.1-.23,0-.24,0-.89-.47-1.84-1.18-2.88-1.44-.73-.88-1.11-1.85-2.4-1.92-.57-.72-.76-1.48-.72-2.4.11-2.3,1.28-2.6.96-5.76-.09-.87-.13-1.4.83-1.93.67-.37,1.31-.01,1.81-.47.18-.17.27-.66.48-.72.77-.23,2.54-.09,3.4-.13.8-.04.63-1,1.39-.35ZM54.53,131.23c1.23-1.17-.25-3.46-.4-4.65-.17-1.27.59-2.37-.49-3.12-.92-.63-2.49-.46-3.49-1.22-.93.7-3.24.6-3.86,1.33s-.23,2.18-.4,3.2c-.2,1.27-.96,2.05-.65,3.65.19,1,.99.83,1.35,1.17s.5.82,1.06,1.22c.26.19,2.32,1.31,2.46,1.3s2.08-1.13,2.3-1.3c.51-.38.82-1.07,1.05-1.23.29-.21.83-.13,1.08-.37Z"/>
      <path class="cls-12" d="M44.52,139.44c.28.03.89.47,1.44.48.12,0,.35-.22.48-.24-.14.76,1.03.59,1.5.74.2.06.18.43.29.43.43-.02.97-.18,1.57-.21.16,0,.32.01.48,0,1.22-.11,2.61-.11,3.6-.96.86-.05,1.78-.14,2.64-.24-.04.83.5,1.53,1.2,1.92-.9.1-.64.28-.48.72.11.3,0,.53.48.72-.27.19-.94.64-1.2.72s-.81-.11-1.08.23l-.12-1.67c-.37-.12-.44.22-.48.24-3.41,1.21-5.94,1.66-9.35,0l.24-.96.72.24c.14.25.62.96.96.72.1-.07.03-.99.48-.96v.96c.86-.63.7.29.84.24.5-.19.05-1.17.84-.96-.55,1.13.16.51.96.96l.24-1.2c-1.24.06-2.33-.32-3.6-.24-.07-.24-.28-.22-.48-.24-.16-.02-.32.02-.48,0-.24-.03-.89.06-.96,0-.05-.04.18-.7-.48-.48-.07.49-.13,1-.72.96l.48.48c-.4-.09-.79-.18-1.2-.24s-.75-.21-.96-.24c.84-.18.98-1.41,1.2-1.68.12-.14.75-.27.96-.24ZM55.76,140.19c-.05-.05-1.36-.32-1.42-.26-.04.04-.16.97-.24,1.2.66-.27,1.28.3,1.91.48-.09-.26-.21-1.37-.26-1.42ZM44.28,141.12v-.96c-.13-.29-.61.83-.48.96h.48ZM52.91,140.88l-1.68.24c-.1.42.37.15.46.25.07.09-.32.61-.22.7h1.44s0-1.2,0-1.2Z"/>
      <path class="cls-8" d="M36.61,120.48c-2.22-1.18,2.44-1.59-.24-2.64.74,1.53-1.07,1.21-.97.13.16-1.7,2.26-.38,2.76-.38.38,0,.68-.37.99-.4.52-.05,1.15.43,1.77.06.92-.56-.46-2.52.97-3.35,1.7-.99,2.73.33,3.09,1.92.06.27.16,1.36-.34,1.06s-.03-1.01-1.08-.48c.06-.36.06-1.59-.6-1.44-.79.19-.36,1.85-.36,2.4,0,1.45,0,1.7-1.44,2.28l1.44.36s.23.16.2.32c-.1.5-1.12.94-1.64.88-.04-.09-.21-.17-.24-.24-.69-1.49-1.33-.87-2.64-.72-.62.07-1.15-.22-1.68.24Z"/>
      <path class="cls-8" d="M57.46,116.88c-.04-.73.32-2.08-.84-1.92-.04,1.61-.33.94-.76,1.27-.27.21-.21.8-.8.66-.11-2.07.86-4.04,3.18-2.82,1.52.79-.5,3,.83,3.3.7.15,1.33-.22,1.83-.16.32.03.61.4.99.4.58,0,1.37-.9,2.28-.35.77.47.46,2.03-.72,1.56l.24-.96c-.66.05-1.3.26-.84.96s2.37.57.6,1.68c-.46-.48-1.08-.16-1.68-.24-.4-.06-.87-.22-1.2-.24-.08,0-.16,0-.24,0-.76-.01-1.25-.05-1.2.96l-.48.24c-.25-.17-.85-.12-1.23-.59s.04-.75.03-.85c.34.01,1.45.67,1.44-.12,0-.19-1.07-.32-1.32-.84s-.09-1.32-.12-1.92Z"/>
      <path class="cls-2" d="M60.58,120.72c-.1-.21-.36-.34-.24-.72.08,0,.16,0,.24,0,.04.22-.05.54,0,.72Z"/>
      <path class="cls-2" d="M63.46,120.48s-.02.22.09.4c.06.09.4.07.4.22,0,.22-.34.62-.23.79.06.09.54.13.7.39.05.07-.85.13-.72,1.32-.9.45-1.14,1.48,0,1.68,0,.02.27.07.2.2-.61.05-.5.05-.2.52-.51-.45-1.81-.48-1.44.48-.21.02-.3-.28-.47-.33-1.14-.29-2.26-.3-3.6-.15l-.72-.24c-.21-.89.23-1.41.48-2.16.02-.07-.03-.17,0-.24,1.31-.06.42.75.84,1.68.73-.55.18-1.45.24-2.05.02-.22.32-.48.36-.83,1.27.24.46-.95.84-.96l.6.96c-.05-.36.08-.88,0-1.2.12.34.35,1.25.47,1.34.2.15.87-.18,1.21.1.42-1.26-.82-1.14-.72-2.16.6.08,1.22-.24,1.68.24Z"/>
      <path class="cls-2" d="M60.82,120.96c-.01-.06-.19-.14-.24-.24.02.06.21.15.24.24Z"/>
      <path class="cls-2" d="M59.14,120.96c.01.21.33.54.24,1.2-.07-.01-.47-.22-.48-.24-.07-.12.13-.46-.24-.72l.48-.24Z"/>
      <path class="cls-8" d="M43.32,141.6c.41.06.8.14,1.2.24l-.48-.48c.59.04.65-.47.72-.96.66-.22.43.44.48.48-.57.54,0,1.25,0,1.44,0,.13-.26.46-.24.83.09,1.36,1.09,2.15-.47,2.91-2.06.99-3.05-.35-4.69-.34-.71,0-1.6.79-2.15.68-1-.2,1.11-1.61,1.07-1.92l-1.92.12c.71-.6,1.79-1.1,2.72-1.06.85.03,3.74,1.28,4.12.71.6-.89-.41-.67-.93-1-.48-.3-.87-.84-1.35-1.17.66,0,1.48.14,1.92-.48Z"/>
      <path class="cls-10" d="M48.83,114.48l.24,2.16c1.16.26-.53-1.54.72-1.44-.07.72.12,1.58-.01,2.27-.1.51-1.54,2.34.34,2.29s.17-1.8.12-2.52.46-.7.51-.83c.23.28.89-.07.95,0,.04.04.13.97.25,1.2.41.06.21-.45.24-.72.84-.26,1.03.75,1.2,1.44l-.72.72c.06-1.06-.55-1.03-1.44-.96,1.06,1.24.06,1.12,0,1.32-.31.95,1.93-.2,2.16-.12-.3.76-.73.76-.96,1.2-.76-.65-.59.3-1.39.35-.86.05-2.63-.09-3.4.13-.11-.21-.14-.85-.24-.96l.48-1.44c.48-.05.09.61.27.92.05.08.81.36.92.28-.32-1.66-.36-1.85-2.16-1.68.05-.14-.07-.52.04-.8.14-.35.62-.33.68-.57.06-.22.05-1.77,0-1.99h.24c.46.02-.34,3.03.48,2.16.16-.16.29-2,.24-2.4.08,0,.17-.02.24,0Z"/>
      <path class="cls-2" d="M38.28,120.24c.18.94-.68-.16-.92.64-.14.45,0,1.04-.04,1.52l1.08-.72c.26.91.74.6.6-.24l.72.72.36-1.44c.82.13-.15.03-.13.83s-.03.64.73.61c.1,1.02.28,1.76.24,2.88-.98.08-2.08.17-2.4,1.2-.77-.32-1.72-.28-2.4.24.17-1.39-.35-1.78-.48-2.64,1.08.21.48-.36.96-.96-.16,1.02.85,1.16.48,2.4.69-.24.46-1.11.48-1.68l.47.48v-1.2c.55,0,.21,1.41.97.84.03-1.62-1.2-.99-2.4-1.08-.25-.02-.5-.12-.72-.24.1-.58.18-1.45.72-1.92s1.06-.17,1.68-.24Z"/>
      <path class="cls-2" d="M41.88,123.84c.86.36,1.06,1.66.24,1.92-.06.02-.05-.48-.72.48.16-1.23-.96.86-.96-.48.42-.04.42.9.48-.72.85-.07.39-.31.48-1.2.25.22.46,0,.48,0Z"/>
      <path class="cls-5" d="M47.15,112.32c.06.27-.04.66,0,.96l.24-.48.24.72v-.96c.35-.1.48.13.72.24.06.03.04.37.48.24-.03-1.31.22-.62.72-.24-.75.84,1.22.41,1.43.72v-.72c1.16-.25.41.58,1.08,1.2l-.06-.66.66-.53c.09.21.08.51.24.72-.13.42-.41.89-.48,1.2-.57.38-1.16-.58-1.68,0-.06.06-.04.39-.24.48-.36-.34-.57-.17-.72-.24-.37-.19-.38-.32-.96-.48-.07-.02-.16,0-.24,0-.25-.02-.33-.19-.72.24h-.24c-.11-.42-1.46-1.46-.48-2.4ZM48.47,113.52v.24c.16-.08.16-.16,0-.24Z"/>
      <path class="cls-8" d="M58.18,144.24c.79-.21,1.69-.68,2.54-.7.6,0,2.64.43,2.01,1.17-.13.15-.98-.5-1.2-.12l1.44,1.8c-1.64-.03-2.11-.76-3.84-.48-.98-.3-.69-.58-.76-1.52l-.19-.16Z"/>
      <path class="cls-8" d="M32.29,124.32c-.55.72.18.4.24.48s.02,1.28-.05,1.52c-.08.28-.42.37-.43.4l-.24-.96c-.16.56-.21,1.97-.48,2.4-1.13-.73-1.28-.1-1.44.96-.14-.03-.43.05-.48,0-.1-.11.13-2.65.25-2.96.49-1.22,1.45-1.55,2.62-1.83Z"/>
      <path class="cls-8" d="M52.91,121.68c.07-.55,0-.68.63-.51.39.11,1.09.23,1.35.34,1.09.47,1.69,1.91,3.06,2.1-.25.75-.68,1.27-.48,2.16l.72.24c-.24.03-.48-.02-.72,0-.16,1.02.5,3.51-.72,3.84,1-1.76.71-4.45-.96-5.76.3-1.34-1.78-2.15-2.88-2.4Z"/>
      <path class="cls-8" d="M41.88,123.12c.37.41.05.6.64.29.89-.46,1.74-1.54,2.67-1.89.22-.08,2.23-.73,1.97.17-.5.45-1.15.09-1.81.47-.96.54-.91,1.06-.83,1.93-1.26.64-1.93,2.01-1.92,3.36l-.48-1.68c.82-.26.62-1.56-.24-1.92-.04-.22.05-.54,0-.72Z"/>
      <path class="cls-8" d="M68.49,124.56c.17.08.47-.04.85.22,1.4.97,1.41,2.83,1.06,4.34-.23.08-.38-.21-.48-.24-.03-.86-1.08-1.34-1.68-.72-.22-.18-.35-.37-.48-.48v-.24l.84-.24c-.65-.84-.26-1.71-.12-2.64Z"/>
      <path class="cls-2" d="M53.15,110.64c-.05.48-.95.67-.98.87-.06.4.34.92.5,1.29l-.66.53.06.66c-.68-.61.08-1.45-1.08-1.2v.72c-.22-.32-2.19.12-1.44-.72.05.04.17-.03.24,0,.01,0-.03.25.12.24.22-.18.39-.3.12-.48.7-.9,1.35.05,1.68-.24.06-.05-.03-.53,0-.72.02-.15.53-.4-.24-.72-.05-.25-.23-.58-.24-.72,1.33-.43,1.11-.31,1.92.48Z"/>
      <path class="cls-12" d="M58.18,144.24l.19.16c.08.94-.22,1.22.76,1.52-1.33.22-1.75.83-3.36.24-.18-.54.45-.49.6-.72.19-.29-.4-.85.84-1.2.26-.07.7.07.96,0Z"/>
      <path class="cls-8" d="M54.83,142.32s.1-.36.48-.24l.12,1.67c.27-.35.81-.15,1.08-.23l-.24.72h.96c-1.24.35-.65.9-.84,1.2-.15.23-.78.18-.6.72-2.29-.84.2-2.58-.96-3.84Z"/>
      <path class="cls-11" d="M46.91,118.08c1.79-.17,1.83.02,2.16,1.68-.11.09-.87-.19-.92-.28-.18-.31.21-.97-.27-.92l-.48,1.44c-.13-.14-.75-.02-.92-.9s.39-.88.44-1.02Z"/>
      <path class="cls-2" d="M47.39,109.92c1.31-.08.8-.02.96.72.05.25.26.98.25,1.07,0,.09-.75.07-.25,1.09-.24-.11-.37-.34-.72-.24v.96s-.24-.72-.24-.72l-.24.48c-.05-.3.06-.69,0-.96-.02-.09-.19-.44-.24-.48.84.14.67-1.16.24-1.68.07-.03.16-.22.24-.24Z"/>
      <path class="cls-8" d="M52.43,114.72c-.15.64-.16,1.5-.24,2.16-.03.27.18.78-.24.72-.12-.23-.21-1.16-.25-1.2-.07-.06-.72.28-.95,0,.06-.18-.05-.52,0-.72s.59-.69,0-.96c.52-.58,1.11.38,1.68,0Z"/>
      <path class="cls-1" d="M41.16,121.2c.08.18.65,1.69.72,1.92.05.18-.04.5,0,.72-.02,0-.23.22-.48,0-.09.89.36,1.13-.48,1.2.04-1.12-.14-1.86-.24-2.88-.03-.36-.11-1.02.24-1.2.03.07.2.15.24.24Z"/>
      <path class="cls-1" d="M40.92,125.04c-.06,1.62-.06.68-.48.72-.26.03-.42.49-.84.49-.14,0-.13-1.21-.6.23-.43.13-.42-.22-.48-.24.32-1.03,1.42-1.12,2.4-1.2Z"/>
      <path class="cls-11" d="M53.39,119.28c-.23-.07-2.47,1.07-2.16.12.06-.2,1.06-.08,0-1.32.89-.07,1.5-.1,1.44.96l.72-.72c.04.17.23.33.22.6,0,.22-.19.29-.22.36Z"/>
      <path class="cls-11" d="M57.46,116.88c.03.6-.14,1.38.12,1.92s1.32.66,1.32.84c0,.79-1.1.13-1.44.12-.14-.79-1.59-1.93,0-2.88Z"/>
      <path class="cls-10" d="M52.91,113.52c-.16-.21-.15-.51-.24-.72-.16-.37-.56-.88-.5-1.29.03-.2.93-.39.98-.87,1.27,1.24.46.58.12,1.44-.15.39-.21.92-.36,1.44Z"/>
      <path class="cls-14" d="M60.34,120c-.12.38.14.51.24.72.05.1.23.18.24.24.08.32-.06.84,0,1.2l-.6-.96c-.38.01.43,1.2-.84.96.09-.66-.23-.99-.24-1.2-.05-1.01.44-.97,1.2-.96Z"/>
      <path class="cls-14" d="M59.38,122.16c-.05.35-.34.61-.36.83-.06.59.49,1.5-.24,2.05-.41-.93.47-1.74-.84-1.68.21-.59.25-1.15.96-1.44.01.02.41.23.48.24Z"/>
      <path class="cls-14" d="M61.78,120.24c-.1,1.02,1.14.91.72,2.16-.33-.28-1,.05-1.21-.1-.12-.09-.35-1-.47-1.34-.03-.09-.22-.18-.24-.24-.05-.18.04-.5,0-.72.33.02.79.18,1.2.24Z"/>
      <path class="cls-9" d="M42.6,117.36l.72.12c-.07.89-.49,1.68-.72,2.52l-1.44-.36c1.45-.58,1.43-.83,1.44-2.28Z"/>
      <path class="cls-10" d="M47.15,110.16c.43.52.6,1.82-.24,1.68-.2-.18-.89-.04-.95-.83-.08-1.18.83-.71,1.18-.85Z"/>
      <path class="cls-2" d="M51.23,109.92h-.36s-.12-.24-.12-.24c.12-.07.32-.43.24-.48-.71.29-1.2.11-1.92,0l.48.84c-.03.27-.36-.07-.48-.12-.14-.06-.45-.24-.48-.24-.03-.85-.15-.66.59-.72.54-.04,2.09-.17,2.28.39.11.31-.24.54-.23.57Z"/>
      <path class="cls-10" d="M46.2,140.88c.16.19.15.56.24.72l-.72-.24-.24.96h-.24c0-.19-.57-.9,0-1.44.07.06.72-.03.96,0Z"/>
      <path class="cls-1" d="M63.7,125.28c-1.14-.2-.9-1.23,0-1.68.1.86.14.72,0,1.68Z"/>
      <path class="cls-9" d="M31.33,128.16c-.3.47-.89.7-1.2,1.2-.04-.1-.14-.22-.24-.24.16-1.06.31-1.69,1.44-.96Z"/>
      <path class="cls-1" d="M36.61,122.64v.24c-.48.6.12,1.17-.96.96-.07-.5.16-.97.24-1.44.22.12.46.22.72.24Z"/>
      <path class="cls-5" d="M48.59,109.68s.34.18.48.24c.13.31-.22.59-.24.72h-.48c-.16-.74.35-.8-.96-.72.37-.09.51-.35,1.2-.24Z"/>
      <path class="cls-8" d="M58.42,142.08c-.14.38-.42.51-.72.72-.48-.19-.37-.42-.48-.72.4-.03.81.04,1.2,0Z"/>
      <path class="cls-5" d="M50.75,109.68l.12.24h.36c0,.08,0,.16,0,.24-.15.05-.69.21-.72.24l-.24-.12c-.17-.9.26-.47.48-.6Z"/>
      <path class="cls-8" d="M68.25,124.56l-.48-.24c.28.06.38.21.48.24Z"/>
      <path class="cls-9" d="M60.82,130.32l-1.42.86c.26,1.31,1.69,2.06,1.66,3.45-.63.2-1.59-.63-1.92.24-1.34-.6-4.61-1.03-5.99-.72.93-1.07,1.09-1.85,2.64-1.92.03,0,.25.28.58.25.96-.09,1.4-2.93,2.78-3.13.33.48,1.22.66,1.68.96Z"/>
      <path class="cls-9" d="M61.3,136.08c.6-.81,1.44.13,1.9-.62.28-1.11-1.07-.83-.7-2.02.44.21,1.85.39,2.1.53.16.09,2.29,2.47,2.45,2.7,1.02,1.47.39,1.78-.72,2.76-.4-.05-.95-.51-1.44-.48l1.19-1.32c-.12-.19-1.12-.82-1.15-.89-.21-.55.98-1.03-1.24-1.15-.32.34,1.31,2.34-1.99.9-.26-.11-.37-.4-.41-.42Z"/>
      <path class="cls-9" d="M56.74,129.84c-.13.04-.33-.02-.48,0-.13-1.53-.93-2.95-.97-4.21-.02-.86.39-1.13.49-1.55,1.67,1.31,1.96,4,.96,5.76Z"/>
      <path class="cls-1" d="M59.14,129.36c-.39-.57-.4-1.47.47-1.44.02.3.16.5.39.68.83.65,1.93,1.23,2.73,1.71.02.49-.24.74-.72.72-.38-.24-.83-.48-1.2-.72-.46-.3-1.35-.48-1.68-.96Z"/>
      <path class="cls-9" d="M67.77,127.68c-.64-.53-2.85-2.2-1.13-2.95,1.36-.59.75,1.86,1.13,2.71v.24Z"/>
      <path class="cls-2" d="M62.74,130.32c1.15.69,2.03.47,1.68,2.16-.34.36-2.01-1.2-2.4-1.44.48.02.74-.23.72-.72Z"/>
      <path class="cls-9" d="M69.93,128.88c-.12-.03-.28.09-.24.24-.32-.39-1.05-.64-1.44-.96.6-.62,1.65-.14,1.68.72Z"/>
      <path class="cls-9" d="M56.5,139.44c.1-.01.25-.21.37-.23.1-.01.05.71.71.47s.53-1.2-.48-1.22c-.76-.02-1.07.62-1.79.26l.49-.6c.04-1.02-2.38-.91-2.78-.61-.85.63.07,1.29.85.74-.02,1.18-1.66.96-2.05.24-.49-.89,1.32-1.91,1.32-2.04,0-.14-1.16-.81.49-.84-.77,1.9,1.6,1.19,2.88,1.44.26-.25-1.17-1.95.12-1.44.83.33-.1,1.74.12,2.16.05.09,1.63-.09,2.02.5.12.19.08.59.16.67.07.06,1.87-.02.68.87-.61.45-1.9-.04-2.15.49l1.43.84c-.08.7-1.07.22-1.2.24-.7-.39-1.24-1.09-1.2-1.92Z"/>
      <path class="cls-9" d="M50.99,138.24c.12.24.17.61.24.72-.5-.29-1.9-.25-2.4,0,.06-.08.16-.56.27-.81.1-.22.44-.36.45-.39.21.68.92.26,1.44.48Z"/>
      <path class="cls-9" d="M48.59,139.2s.23-.23.24-.24c-.02,0-.22.21-.24.24Z"/>
      <path class="cls-9" d="M51.47,139.2c-.1-.08-.17-.13-.24-.24.11.06.17.13.24.24Z"/>
      <path class="cls-9" d="M48.59,139.2c-.79,1.1.93.75,1.2,1.44-.61.02-1.14.18-1.57.21-.11,0-.09-.37-.29-.43-.47-.15-1.64.02-1.5-.74.7-.08,1.54.02,2.16-.48Z"/>
      <path class="cls-9" d="M53.87,139.68c-.99.85-2.38.85-3.6.96.3-.73,1.94-.28,1.2-1.44.86.65,1.5.54,2.4.48Z"/>
      <path class="cls-10" d="M50.27,136.56h.24c-.18.5.29,1.32.48,1.68-.52-.22-1.23.2-1.44-.48.09-.28-.07-.86,0-1.2h.72Z"/>
      <path class="cls-9" d="M51.47,135.12c.11.56-.91,1.3-.96,1.44h-.24c.37-.29-.01-.68,0-.72.21-.78.88-.56,1.2-.72Z"/>
      <path class="cls-9" d="M40.92,129.36c1.27.29,1.94,3.05,2.78,3.13.33.03.55-.25.58-.25,1.28.07,1.66,1.04,2.4,1.92-1.44-.36-4.38.13-5.75.72-.33-.87-1.29-.04-1.92-.24-.12-1.52,3.21-3.89.24-4.08.04-.02-.06-.35.03-.43.07-.06.46.28.83-.02.27-.22.31-.72.34-.75.02-.02.39-.02.48,0Z"/>
      <path class="cls-9" d="M42.36,141.36c-.38-.06-1.37.24-1.44-.24.43,0,2.29-.6,1.68-1.2-.08-.08-1.85.36-2.29-.23-.76-1.02.77-.65.86-.73.1-.1-.19-.74.14-.99.31-.23,1.55,0,2.02-.21-.11-.95-.63-1.73.36-2.4l-.12,1.68c.5-.03,2.98-.28,3.12-.48.09-.13-.26-.65-.24-.83.05-.43.89-.21.96-.12.23.28-.56.84-.48.95.05.07,1.4.9,1.45,1.13.31,1.34-2.05,2.05-2.17.56.55.33,1.2.38,1.13-.37s-2.71-.82-3.02.04.49.4.87.62c.1.06.76,1.12.77,1.39-.54,0-1.16-.45-1.44-.48.64.24.57-.63.48-.72-.1-.09-.63.17-.84.13-.53-.09-.82-.96-1.65-.35-.76.56-.45,1.13.45,1.19.13,0,.06-1.05.6-.01-.22.27-.36,1.5-1.2,1.68Z"/>
      <path class="cls-9" d="M33.73,139.44c-1.17-1.12-1.88-1.22-.72-2.76.21-.28,2.26-2.53,2.41-2.63.1-.06,1.84-.69,1.9-.61.25.73-.68,1.31-.46,2.01s1.42-.15,1.9.63c-1.18.57-2.92,2.19-2.4-.48-2.22.12-1.03.6-1.24,1.15-.03.07-1.03.69-1.15.89l1.19,1.32c-.49-.02-1.04.43-1.44.48Z"/>
      <path class="cls-10" d="M49.79,135.6h-.24s.04-.1.24,0Z"/>
      <path class="cls-9" d="M44.52,124.08c.32,3.16-.85,3.46-.96,5.76-.94.02-.95-1.62-.96-2.4,0-1.35.66-2.72,1.92-3.36Z"/>
      <path class="cls-2" d="M39.72,128.64c.29.56.56.73.48,0,.39-.09.21.35.24.72-.03.03-.07.53-.34.75-.37.3-.76-.04-.83.02-.09.08,0,.41-.03.43-.12.08-.51.1-.79.27-.47.29-2.52,1.95-2.8,1.64.03-.33-.08-.72,0-1.03.06-.24,3.51-2.46,4.08-2.81Z"/>
      <path class="cls-9" d="M32.53,124.8c2.47-.63,1.11,2.41-.36,2.88-.54.23-.14-.89-.12-.96,0-.03.35-.12.43-.4.07-.24.11-1.44.05-1.52Z"/>
      <path class="cls-1" d="M40.92,129.36c-.09-.02-.46-.02-.48,0-.03-.37.16-.81-.24-.72.08.73-.19.56-.48,0,1.01-.62,1.17-1.33,1.2.72Z"/>
      <path class="cls-1" d="M54.53,131.23c-.25.23-.78.16-1.08.37-.23.17-.54.85-1.05,1.23-.22.17-2.17,1.28-2.3,1.3-.14.01-2.21-1.11-2.46-1.3-.55-.41-.69-.89-1.06-1.22s-1.16-.17-1.35-1.17c-.31-1.6.45-2.38.65-3.65.16-1.02-.23-2.47.4-3.2s2.93-.63,3.86-1.33c1,.75,2.57.58,3.49,1.22,1.08.74.32,1.85.49,3.12.16,1.19,1.63,3.48.4,4.65ZM50.75,126.24c.1-.26-.18-1.33.37-1.44.3-.06,1.22.74,1.79.48-.99-2.9-1.98-.4-2.79-.26-.48.08-1.41-1.66-2.57-.95-.3.19-.09.53-.15.79-.04.18-.93.28-.48.66.24.2,1.62-.75,1.92-.61.73.48.43,1.43,0,2.05-.66-1.74-2.14-1.2-2.64.48-.36,1.21-.17,2.65.96,3.36-.11-.58.47-1.49.48-1.92-.12-.69.57-.59.72-.72.63,1.38,1.88,2.59-.24,3.24.27.63.99.48,1.2.6.12.07.32.66.63.71.49.08.67-.63.81-.71.26-.14,1.03.36.73-.8-.06-.23-.5-.23-.6-.4-.42-.64.4-2.08,1.08-2.4.13.09.44.17.48.24.31.5.22,1.63.6,2.16.61-.64,1.08-1.66,1.09-2.54,0-.35-.23-.49-.25-.58-.03-.15.04-.37,0-.48-.06-.17-.22-.21-.24-.24-.71-1.21-1.47-1.53-2.4-.24h-.24c-.06-.16-.03-.37-.24-.48Z"/>
      <path class="cls-5" d="M46.67,140.88c-.07.9.2.26.48.24,1.27-.08,2.35.3,3.6.24l-.24,1.2c-.8-.45-1.51.17-.96-.96-.79-.22-.34.77-.84.96-.14.05.02-.87-.84-.24v-.96c-.46-.04-.38.88-.48.96-.34.24-.82-.47-.96-.72-.09-.16-.08-.53-.24-.72.16.02.32-.02.48,0Z"/>
      <path class="cls-15" d="M43.56,139.68c-.54-1.04-.47.02-.6.01-.9-.06-1.21-.63-.45-1.19.82-.61,1.12.26,1.65.35.21.04.74-.23.84-.13.1.09.16.96-.48.72-.21-.03-.84.1-.96.24Z"/>
      <path class="cls-10" d="M55.76,140.19c.05.05.17,1.16.26,1.42-.63-.19-1.25-.75-1.91-.48.08-.23.2-1.16.24-1.2.05-.05,1.36.22,1.42.26Z"/>
      <path class="cls-10" d="M52.91,140.88v1.2s-1.44,0-1.44,0c-.1-.09.29-.62.22-.7-.08-.1-.55.17-.46-.25l1.68-.24Z"/>
      <path class="cls-8" d="M44.28,141.12h-.48c-.13-.13.34-1.25.48-.96v.96Z"/>
      <path class="cls-10" d="M47.15,141.12c-.28.02-.55.66-.48-.24.2.02.41,0,.48.24Z"/>
      <path class="cls-14" d="M38.28,120.24c1.3-.15,1.94-.77,2.64.72-.35.18-.27.84-.24,1.2-.76.03-.72.16-.73-.61s.95-.69.13-.83l-.36,1.44-.72-.72c.14.84-.34,1.15-.6.24l-1.08.72c.04-.48-.1-1.07.04-1.52.24-.8,1.1.31.92-.64Z"/>
      <path class="cls-11" d="M50.51,115.2c.09.09.14.35.24.48-.05.2.06.54,0,.72-.04.14-.56.14-.51.83.05.72,1.86,2.47-.12,2.52s-.44-1.77-.34-2.29c.13-.69-.06-1.55.01-2.27v-.24c.15.07.36-.1.72.24Z"/>
      <path class="cls-3" d="M48.59,114.48c.05.4-.09,2.24-.24,2.4-.82.87-.02-2.14-.48-2.16.39-.43.47-.26.72-.24Z"/>
      <path class="cls-12" d="M49.79,114.96v.24c-1.25-.09.45,1.7-.72,1.44l-.24-2.16c.58.16.59.29.96.48Z"/>
      <path class="cls-14" d="M36.61,122.64c1.2.08,2.43-.54,2.4,1.08-.75.57-.42-.84-.96-.84v1.2s-.48-.48-.48-.48c-.02.57.21,1.44-.48,1.68.37-1.24-.64-1.38-.48-2.4v-.24Z"/>
      <path class="cls-6" d="M51.47,110.88c.05.23-.1.58.24.72-.03.19.06.67,0,.72-.33.29-.98-.65-1.68.24-.07.09-.11.2-.24.24-.07-.03-.19.04-.24,0-.5-.38-.75-1.06-.72.24-.44.13-.42-.22-.48-.24-.49-1.03.24-1,.25-1.09,0-.08-.2-.82-.25-1.07h.48c-.05.25.03.57,0,.84.5.55.4-.27.66-.35,1.34-.41.51-.27,1.02-.72.03-.03.57-.19.72-.24.01.14.19.47.24.72ZM50.75,111.36c.17-.34-.15-.64-.23-.48-.17.34.15.64.23.48ZM49.91,111.84v.24c.16-.08.16-.16,0-.24Z"/>
      <path class="cls-3" d="M50.75,115.68c-.1-.13-.15-.39-.24-.48.2-.09.18-.42.24-.48.59.27.05.75,0,.96Z"/>
      <path class="cls-6" d="M48.47,113.52c.16.08.16.16,0,.24v-.24Z"/>
      <path class="cls-10" d="M51.71,111.6c-.34-.14-.19-.49-.24-.72.77.32.26.57.24.72Z"/>
      <path class="cls-5" d="M49.79,112.8c.13-.04.17-.15.24-.24.27.17.1.3-.12.48-.14.01-.11-.23-.12-.24Z"/>
      <path class="cls-10" d="M49.07,109.92c.12.05.45.39.48.12l-.48-.84c.71.11,1.21.29,1.92,0,.08.05-.11.41-.24.48-.22.13-.64-.3-.48.6l.24.12c-.51.46.32.31-1.02.72-.26.08-.16.91-.66.35.03-.27-.04-.59,0-.84.02-.13.36-.41.24-.72Z"/>
      <path class="cls-11" d="M48.83,126.96c.43-.62.73-1.57,0-2.05-.3-.14-1.68.81-1.92.61-.45-.38.44-.48.48-.66.06-.26-.15-.61.15-.79,1.15-.71,2.08,1.04,2.57.95.81-.14,1.8-2.64,2.79.26-.57.26-1.5-.54-1.79-.48-.55.11-.27,1.18-.37,1.44-.04.12-.68.24-.48.72l.84.24c.2-.12-.05-.28-.12-.47h.24c.71.06,1.61-.25,2.16.36l-1.44-.12c.05.92.18.94-.72,1.08,0,.15.48.18.72.36-.68.33-1.5,1.77-1.08,2.4.11.17.54.16.6.4.31,1.16-.47.66-.73.8l-.36-.96-.6.96-.12-.96-.36.96c-.2-.12-.93.02-1.2-.6,2.11-.64.87-1.86.24-3.24.12-.11-.08-.72.71-.59-.22-.15-.16-.42-.23-.61Z"/>
      <path class="cls-9" d="M48.83,126.96c.07.19.02.46.23.61-.79-.12-.59.49-.71.59-.15.13-.84.03-.72.72,0-.06-.42-.62-.24-.96h-.36s-.6.48-.6.48l-.24-.96c.5-1.68,1.98-2.22,2.64-.48Z"/>
      <path class="cls-9" d="M53.63,126.96l.24.24c.04.11-.03.33,0,.48l-1.44.96c-.04-.07-.35-.15-.48-.24-.24-.18-.72-.21-.72-.36.9-.14.78-.16.72-1.08l1.44.12c-.54-.61-1.45-.3-2.16-.36.93-1.29,1.69-.97,2.4.24ZM52.31,127.45c-.24.17.13.33.24.47.24-.16-.11-.32-.24-.47Z"/>
      <path class="cls-11" d="M46.2,127.44l.24.96.6-.48h.36c-.18.34.24.9.24.96,0,.42-.59,1.34-.48,1.92-1.13-.71-1.32-2.15-.96-3.36Z"/>
      <path class="cls-11" d="M53.87,127.68c.02.09.26.23.25.58-.01.88-.48,1.91-1.09,2.54-.38-.53-.28-1.66-.6-2.16l1.44-.96Z"/>
      <path class="cls-9" d="M49.31,132l.36-.96.12.96.6-.96.36.96c-.14.08-.33.79-.81.71-.31-.05-.51-.63-.63-.71Z"/>
      <path class="cls-10" d="M50.99,126.72c.07.19.32.36.12.47l-.84-.24c-.2-.48.44-.6.48-.72.21.11.18.32.24.48Z"/>
      <path class="cls-11" d="M53.87,127.2l-.24-.24s.18.07.24.24Z"/>
      <path class="cls-5" d="M50.75,111.36c-.08.16-.41-.14-.23-.48.08-.16.41.14.23.48Z"/>
      <path class="cls-5" d="M49.91,111.84c.16.08.16.16,0,.24v-.24Z"/>
      <path class="cls-11" d="M52.31,127.45c.13.15.48.31.24.47-.12-.14-.48-.3-.24-.47Z"/>
    </g>
  </g>
</svg>