<?xml version="1.0" encoding="UTF-8"?>
<svg id="Layer_1" data-name="Layer 1" xmlns="http://www.w3.org/2000/svg" viewBox="0 0 259.2 259.2">
  <defs>
    <style>
      .cls-1 {
        fill: #dc576f;
      }

      .cls-2 {
        fill: #d33542;
      }

      .cls-3 {
        fill: #d6384f;
      }

      .cls-4 {
        fill: #e42133;
      }

      .cls-5 {
        fill: #e22138;
      }

      .cls-6 {
        fill: #db2b46;
      }

      .cls-7 {
        fill: #dc2e49;
      }

      .cls-8 {
        fill: #e33d61;
      }

      .cls-9 {
        fill: #f0cece;
      }

      .cls-10 {
        fill: #e22543;
      }
    </style>
  </defs>
  <g id="Layer_1-2" data-name="Layer_1">
    <g>
      <path class="cls-4" d="M207.4,68.9c.92.88,2.56.72,3.75.83.14.01.28-.01.42,0,.05.64,1.14.52,1.67.56.05,0,.09,0,.14,0,.06.7.45.29.69.28.05,0,.09,0,.14,0-.05.59.52.27.69.28.05,0,.09,0,.14,0-.07.31.15.31.36.4.59.25,1.04.3,1.59.44.04.01.09-.01.14,0,.07.66.93.55,1.39.69,2.7.88,6.68,3.98,8.62,6.11-.04.46.24.74.69.69.02.03-.02.11,0,.14,1.66,2.64,3.62,4.9,4.89,7.83,2.1,4.84,2.7,8.72,2.62,13.99-.06,3.52-1,6.99-2.22,10.35-1.75,4.82-4.6,9.56-7.99,13.41-.54.61-3.06,2.5-3.13,2.99-.04.27.47.34.71.55,4.91,4.47,9.29,11.1,11.53,17.37,3.41,9.54,3.23,19.74-2.22,28.35-9.07,14.33-28.06,19.04-43.68,13.37-10.4-3.77-18.44-13.19-19.69-24.36-.15-1.31-.04-2.89-.15-4.23h-78.87c-1.34,1.79-2.39,4.19-3.13,6.32-1.05,3.01-2.04,5.84-3.31,8.78-2.85,6.59-8.47,11.58-15.04,14.42-22.83,9.89-49.39-14.23-44.71-37.75.77-3.9,3.54-9.47,6.22-12.19.87-.05,1.37-1,1.73-1.68.08-.16.05-.34.08-.4.06-.12.03-.32.2-.42l4.12-3.53c.31-.53-.41-1.55-.72-2.07-3.98-6.46-9.71-9-11.48-17.01-3.76-16.97,5.14-32.64,21.65-37.76,17.63-5.47,36.16,1.79,40.27,20.74.32,1.48.52,3.01.74,4.51l.38.2,79.48.05c.18.02.28-.04.41-.15.12-.1,1.12-1.74,1.3-2.04,2.76-4.66,2.18-9.61,4.43-14.19,1.3-2.66,5.11-7.69,7.69-9.05,1.78-.94,2.36-1.3,3.96-2.5.35-.26,1.01-.22,1.04-.83.12-.03.27-.1.42-.14,1.21-.36,2.56-.7,3.75-1.32.23-.12.43-.15.42-.49.04-.01.1.01.14,0,.2.26.33.17.28-.14,6.27-1.87,10.94-2.24,17.51-1.39ZM145.27,124.06c.03-.16.21-.33.14-.56l-2.64-.14c.02.63-.02,1.26,0,1.88,0,.27-.14.56.28.48-.01,1.76.01,3.52,0,5.28,0,.05,0,.09,0,.14,0,1.09.07,2.27,0,3.33,0,0-.13.04-.14.14-.02.17,0,.38,0,.56,0,.09,0,.19,0,.28l2.36.14c.09-.21-.13-.37-.14-.42-.03-.25,0-.57,0-.83.64-.02.35-.68.41-1.04.11-.6.94-.39,1.39-.35.02.04.1.09.14.14-.02.15.06.19.14.28.18.21.15.11.28.42.02.05.1.1.14.14.4.34.57.69.83,1.11.06.09.02.3.19.43.44.32,1.98.03,2.59.13.08-.28-.05-.37-.14-.56-.48-.99-1.49-2.06-2.14-2.93-.16-.22-1.06-1.37-1.07-1.46-.02-.16.03-.3.14-.42l2.93-3.26h-2.71c-.32,0-.78,1.04-.9,1.25-.42.05-.74.41-.69.83-.04.05-.1.09-.14.14l-1.25-.14c.12-1.7-.37-3.29,0-5ZM95.1,123.64h-2.22v11.67h2.22v-5.35c0-.32.74-1.28,1.1-1.4,1.29-.4,1.95.32,2.09,1.53l.14,5.21h2.08c.05-1.75,0-3.48,0-5.21,0-.29.15-.57.15-.83,0-.69-.66-1.74-1.2-2.13-.15-.11-.6-.31-.78-.35-.26-.05-1.62-.06-1.96-.04-1.23.05-.86.86-1.76,1.2l.14-4.31ZM116.36,124.34c-.06.45,0,1.05,0,1.53-.23.14-.14.53-.14.76-.03,2.47-.2,5.52,0,7.93.04.53.04.97.62,1.04,1.29.16,4.22.07,5.45-.27.34-.09.37.08.32-.44.32-.09.54-.16.82-.36,1.52-1.06,1.65-4.66-.69-4.92.8-.57,1.42-1.09,1.53-2.15.3-2.82-1.82-3.03-4.03-3.13.08-.42-.21-.27-.48-.28-1.11-.04-2.22.03-3.33,0-.15-.02-.07.18-.08.28ZM91.07,124.34h-8.34c.02.6-.1,1.23.16,1.79.39.24,2.9-.39,2.9.09v9.1h2.36c-.65-2.99.04-6.05-.15-9.08.97-.53,2.04.06,3.07-.08v-1.81ZM165.98,126.84c-1.1.1-1.47,1.3-1.88,1.39-.5.11-.28-1.09-.5-1.23-.21-.13-1.22.06-1.56-.03l-.09.1-.13,8.25h2.36c-.13.51.33,3.13.42,3.89-.21.3-.68.06-.97,0-.08-.42-.18-1.42-.7-1.04.18,1.06.38,2.12.57,3.18.61,3.34.24,6.55-.47,9.98-.61,2.93-1.25,2.19-1.87-.14-.82-3.09-.92-6.82-1.8-9.73-.11-.37-.53-1.18-1-.85-.09.06-.52,1.75-.56,2.01-.5,3.03-.73,8.37-.27,11.37.06.41.07,1.06.55.72.22-.16-.02-1.58,0-2.02.02-.8.07-1.76.13-2.58.09-1.17.83-.77,1.81-.9.15.74.76,2.87,1.08,3.57.2.44.51,1.08,1.07,1.01,1.03-.12,1.64-3.99,1.74-4.86.42.08.26-.21.28-.48.04-.79-.17-1.59.97-1.19.11,1.41.6,4.09,1.27,5.33,1.1,2.05,1.74.45,2.16-.86.89-2.78,1.19-5.82,1.75-8.67.26-1.32.57-1.9.52-3.3-.02-.66,1.21-2.08,1.77-2.46,1.26-3.46,2.44-6.97,3.92-10.32h-2.57c-.67.89-.75,2-.9,3.06-.06.03-.12.08-.14.14-.01.04.01.1,0,.14-.4-.09-.71.7-.77.7-.37,0-.46-.58-.76-.7,0-.04,0-.09,0-.14-.02-.11-.04-.21-.14-.28-.17-.45-.85-2.17-.83-2.5,0-.02.19-.13.14-.28h-.42c-.13-.22.12-.12-.28-.28-.67-.26-1.31-.1-2.02-.13-.55-.03-1.49-.46-1.87.13ZM110.25,131.56c-.06-2.16,0-4.33-2.64-4.79-1.76-.31-4.31.07-4.87,2.08-.67,2.38-.2,5.78,2.59,6.45.65.16,2.32.08,3.03,0,.22-.02,1.34-.29,1.41-.39.2-.28-.01-1.41.06-1.81-.07-.08-1.44.34-1.67.42l-.19-.28c.31-.02,1.24-.33,1.29-.64.04-.21-.35-.34-.27-.61h1.25c0-.14,0-.28,0-.42ZM128.45,130.31c-.28.03-.57-.03-.87.03-1.49.32-1.73,1.95-1.48,3.23.04.2.62,1.35.72,1.43.37.31,1.73.48,2.24.44,1.19-.09,1.34-.37,2.16-1,.66-.5.43.47.49.59.21.48,1.41.22,1.88.28v-6.04c0-.79-.57-1.69-1.2-2.13-.77-.54-2.9-.5-3.84-.38-.49.07-1.83.25-1.73.95,0,.05.35.94.38.98.08.13.27.07.29.09s-.04.2.09.29c.56.38,1.25-.11.88,1.24ZM137.91,126.98c-.07-.07-1.65.05-1.95,0l.14,8.34h2.22c-.24-.61,0-1.04,0-1.59.07-2.45-.7-5.23,2.89-4.82.26-.71.25-1.47.16-2.2-1.35-.04-2.89.12-3.26,1.66-.39-.2-.12-1.3-.21-1.39ZM160,130.73c.12-1.31-.62-3.17-1.87-3.76-.83-.39-3.04-.32-3.88.03-1.98.82-2.15,3.61-1.86,5.44.44,2.79,3.97,3.54,6.3,2.75,1.38-.47.65-.74.76-1.95-1.23.35-2.95.94-4.14.18-.25-.16-.14-.29-.17-.32.25-.09.08-.63.14-.7.07-.07,1.68.08,1.98-.03l1.21-.66c.18,0,.37.01.56,0-.16.46.92.3.96.26.05-.04.51-1.21.02-1.23ZM183.22,141.98s-.18.35-.42.28c-.27-.24-1.46-.22-1.73.15-.48.64-.08,1.1.03,1.63.03.16-.1.32-.07.42s.79.87.93,1c.02.02-.07.19.1.28.76.43,1.03-.41.88,1.39-.26.5-.42.86.01,1.31.97,1.01,2.59-.19,3.96-.07.67.06.8.38,1.3.5,2.11.5,1.81-1.34.98-2.58.11-.77,1.09-.33.97-1.11.22-.06.32.04.56-.2.6-.59,1.01-2.37.12-2.91-1.46-.9-2.08,1.01-2.21,2.14,0,.02-.22.19-.14.28.03.03.24-.03.28,0,.01,0,0,.21,0,.28-.02.14-.22.54-.42.42-.03-.05-.11-.09-.14-.14-.02-.04.04-.2-.02-.26-.07-.07-.22,0-.26-.02-.01,0,0-.09,0-.14-.07-.64.65-1.64-.56-1.53-.06-.04.16-.39.14-.42.7.17,1.5-.8,1.64-1.36.11-.42-.13-2.22-.62-2.37-1.15-.35-1.87.61-1.99,1.64-.46-.16-.41,1.19,0,.97v.42c-.26.2-.69-.03-.83,0v-.42c.45.13.41-.71,0-.56,0-.22-.03-.5,0-.69,0-.02.17-.03.14-.14h-.28c-.07-.39-.4-.88-.8-1.08-2.02-1.01-1.94,1.66-1.57,2.89ZM142.91,149.35c.02.11.31.34.28.56-1.21,1-.32,1.59.97,1.39.23-.04.39.01.66-.1.46-.2,1.28-1.53.87-.03.5.01,1.09.02,1.56-.18.66-.28.31-.41,1.22-.52-.67.89-2.05,4.07-.21,4.31,2.39.31,3-3.37,3.25-5.1.08-.51-.09-1.05.12-1.55.3-.69,2.43-1.37,2.54-2.05.04-.24,0-.22-.21-.22-.92,0-1.67,1.25-2.43,1.67-.03-1.09.07-2.32-.15-3.39-.12-.58-.38-1.15-.95-.55-.31,1.06-1.14,2.14-1.54,3.11-.2,0-.36-.08-.42-.28.05-.31-.04-.71,0-1.04,0-.12-.3-.09-.35-.07-.27.12-.65,2.47-1.95,2.64-.36.05-.17-.52-.27-.84-.04-.12-.41-.71-.49-.76-.44-.27-.9.08-1.11.07-.85-.05-.52-2.78-.56-3.47-.01-.23,0-.46,0-.7-.7-.07-.75-.04-.82.64-.19,1.82-.33,4.67-.02,6.45Z"/>
      <path class="cls-2" d="M235.34,101.14c.09-5.27-.52-9.15-2.62-13.99-1.27-2.93-3.23-5.18-4.89-7.83,1.79,1.24,3.2,3.5,4.24,5.42,2.94,5.38,3.34,9.8,3.48,15.84,0,.25.04.4-.22.56Z"/>
      <path class="cls-8" d="M184.88,72.38c-.03.61-.7.57-1.04.83-1.6,1.21-2.18,1.56-3.96,2.5-.02-.29.42-.52.63-.69,1.27-1,2.81-2.25,4.37-2.65Z"/>
      <path class="cls-8" d="M189.47,70.43c.01.33-.18.37-.42.49-1.19.62-2.55.96-3.75,1.32.98-.91,2.36-1.32,3.61-1.74.2-.07.44-.02.56-.06Z"/>
      <path class="cls-8" d="M211.15,69.74c-1.2-.11-2.83.04-3.75-.83,1.22.16,2.66.09,3.75.83Z"/>
      <path class="cls-8" d="M31.44,136.43c-.03.07,0,.24-.08.4-.36.68-.87,1.63-1.73,1.68.03-.03.04-.32.16-.46.45-.57.94-1.36,1.65-1.62Z"/>
      <path class="cls-8" d="M216.99,71.68c-.55-.14-1-.18-1.59-.44-.21-.09-.43-.09-.36-.4.53.02,1.62.37,1.95.83Z"/>
      <path class="cls-8" d="M213.24,70.29c-.52-.03-1.62.09-1.67-.56.55.05,1.32.07,1.67.56Z"/>
      <path class="cls-8" d="M218.52,72.38c-.46-.15-1.32-.03-1.39-.69.51.12,1.13.14,1.39.69Z"/>
      <path class="cls-8" d="M213.38,70.29c.37.02.8-.15.69.28-.24.01-.63.42-.69-.28Z"/>
      <path class="cls-8" d="M214.21,70.57c.35-.03.81-.11.69.28-.17,0-.75.31-.69-.28Z"/>
      <path class="cls-2" d="M227.83,79.18c-.45.04-.74-.24-.69-.69.22.24.47.33.69.69Z"/>
      <path class="cls-8" d="M189.89,70.29c.06.31-.07.4-.28.14.02,0,.12-.09.28-.14Z"/>
      <path class="cls-9" d="M149.86,149.35c-.17.22.18.06-.28.28.11-.16.24-.22.28-.28Z"/>
      <path class="cls-9" d="M149.86,149.35c.04-.05.09-.09.14-.14-.04.05-.1.09-.14.14Z"/>
      <path class="cls-9" d="M150.28,148.93c.05-.03.1-.13.14-.14-.04.06-.11.09-.14.14Z"/>
      <path class="cls-9" d="M150.14,149.07c.05-.04.09-.11.14-.14-.04.05-.1.09-.14.14Z"/>
      <path class="cls-9" d="M150,149.21s.09-.1.14-.14c-.04.05-.1.09-.14.14Z"/>
      <path class="cls-10" d="M144.16,151.29c.16-.34.52-.42.76-.7.61-.7,1.5-3.09,2.65-3.05.38.01.42.94,1.12.43.48-.36,1.24-2.39,1.67-3.05.15-.23.29-.61.61-.57v3.68c0,.08-.45.62-.56.76-.04,0-.09.11-.14.14s-.09.1-.14.14-.1.09-.14.14-.1.08-.14.14-.17.12-.28.28c-.52.25-.77.79-1.11.83-.91.11-.56.24-1.22.52-.47.2-1.05.19-1.56.18.4-1.5-.41-.17-.87.03-.27.12-.42.07-.66.1Z"/>
      <path class="cls-10" d="M150.41,148.79c.15-.04.38.02.56,0-.2,1.36-.56,5.37-2.33,5.53-1.57.14-.62-2.06-.25-2.76.27-.5.9-1.54,1.18-1.94.46-.22.11-.06.28-.28.04-.05.1-.09.14-.14s.1-.09.14-.14.1-.09.14-.14c.03-.04.1-.08.14-.14Z"/>
      <path class="cls-6" d="M160,149.21c-.98.12-1.73-.27-1.81.9-.06.82-.11,1.78-.13,2.58-.42.08-.27-.21-.28-.48-.12-3.54.29-6.99.7-10.5.32-.39.62,1.11.65,1.22.5,2.06.47,4.23.88,6.28Z"/>
      <path class="cls-7" d="M185.72,141.98c.14-.03.58.2.83,0,.1.25.94.64.97.69.02.02-.2.37-.14.42,1.21-.11.49.89.56,1.53-.57.08-.91-.36-1.46-.42-1.8-.19-2.59,1.38-3.29,2.7-.07.13-.24.19-.26.23.16-1.8-.12-.96-.88-1.39-.16-.09-.08-.26-.1-.28,1.63.29,2.11-.74,1.5-2.12-.06-.13-.62-1.03-.67-1.07.24.07.39-.27.42-.28.32-.11.6.68,1.32.71,1,.04.84-.65,1.18-.71Z"/>
      <path class="cls-3" d="M164.59,139.2c.3,2.69.35,5.43.56,8.06-1.14-.41-.93.4-.97,1.19-.01.27.15.56-.28.48.39-3.17.34-6.55-.28-9.73.29.06.76.3.97,0Z"/>
      <path class="cls-7" d="M110.25,131.56c0,.14,0,.28,0,.42h-1.25c-.08.27.31.4.27.61-.05.31-.98.62-1.29.64l.19.28c-.07.02-.06.23-.62.29-1.64.16-2.77-.47-2.72-2.23h5.42Z"/>
      <path class="cls-7" d="M127.48,128.78c.94-.04,2.92-.96,3.62-.03.2.27.46,1.14.14,1.36-.11.08-2.35.15-2.79.2.36-1.35-.32-.86-.88-1.24-.13-.08-.07-.27-.09-.29Z"/>
      <path class="cls-1" d="M116.36,125.87c-.03,3.11.16,6.2.14,9.31,1.96-.13,4.23.28,6.12-.28.05.52.02.34-.32.44-1.23.34-4.16.42-5.45.27-.59-.07-.58-.52-.62-1.04-.2-2.4-.02-5.46,0-7.93,0-.23-.09-.62.14-.76Z"/>
      <path class="cls-3" d="M169.87,126.84l-1.95.21c.48,1.71,1.66,3.28,1.81,5.07-.77-.33-.56-1.1-.76-1.67-.14-.41-.47-1.01-.65-1.43-.24-.37-.68-.4-1.09-.37.05-.6-.09-1.21.14-1.81-.46.03-.94-.04-1.39,0,.38-.59,1.32-.16,1.87-.13.71.03,1.36-.13,2.02.13Z"/>
      <path class="cls-8" d="M143.19,149.9c.03-.21-.26-.44-.28-.56.33.04.43-.04.59-.32.43-.73.44-1.96,1.41-2.32.51.34.68,1.37.37,1.88-.28.46-1.67.96-2.09,1.31Z"/>
      <path class="cls-7" d="M158.48,131.7l-1.21.66c-.3.11-1.92-.04-1.98.03-.06.06.12.61-.14.7-.24-.28-1.01-1.28-.33-1.51.41-.14,2.57-.04,3.19-.03.25,0,.45.15.47.15Z"/>
      <path class="cls-8" d="M144.3,146.43c-.27.43-.4,1.23-.97,1.25v-3.68c0-.13.28-.88.42-1.04.03.7-.3,3.42.56,3.47Z"/>
      <path class="cls-3" d="M171.4,130.31c.31.12.4.7.76.7.06,0,.37-.79.77-.7-.18.77-.31,1.7-.55,2.43-.08.24.03.29-.35.21-.13-.03-.57-2.32-.63-2.64Z"/>
      <path class="cls-8" d="M145.13,134.34c-.01-.68-.12-1.64.42-2.15,1.05-.97,1.04.1,1.38.76-.45-.05-1.28-.26-1.39.35-.07.36.23,1.03-.41,1.04Z"/>
      <path class="cls-8" d="M146.52,129.2c-.3.36-.83,1.2-1.11,1.43-.12.11-.36.15-.42.09s.19-1.44.28-1.67l1.25.14Z"/>
      <path class="cls-7" d="M188.77,144.76c.5.62.65.61,1.39.42.11.78-.86.34-.97,1.11-.23-.35-.56-.69-.83-1.11.2.12.4-.27.42-.42Z"/>
      <path class="cls-1" d="M151.11,135.04c.09.19.22.28.14.56-.6-.1-2.15.2-2.59-.13-.17-.13-.14-.34-.19-.43.82.13,1.84.3,2.64,0Z"/>
      <path class="cls-8" d="M143.05,125.73c-.42.08-.27-.21-.28-.48-.02-.63.02-1.26,0-1.88l2.64.14c.07.22-.1.4-.14.56-.22-.82-1.55-.26-2.22-.42,0,.69,0,1.39,0,2.08Z"/>
      <path class="cls-1" d="M116.36,124.34c.01-.1-.07-.3.08-.28,1.11.03,2.22-.03,3.33,0,.27,0,.56-.14.48.28-1.29-.06-2.6.04-3.89,0Z"/>
      <path class="cls-8" d="M145.13,135.18s.23.21.14.42l-2.36-.14c0-.09,0-.19,0-.28h2.22Z"/>
      <path class="cls-7" d="M160,130.73c.5.02.03,1.19-.02,1.23-.04.03-1.12.19-.96-.26.13,0,.54-.28.83-.14-.14-.31.12-.68.14-.83Z"/>
      <path class="cls-1" d="M148.89,146.71c-.17.41.18,1.01-.69.83-.18-.41.24-.9.28-1.11.06.2.21.28.42.28Z"/>
      <path class="cls-8" d="M147.36,128.23c-.31.51-.39.47-.69.83-.04-.42.28-.78.69-.83Z"/>
      <path class="cls-7" d="M186.55,140.59c-.03.29,0,.66,0,.97-.41.21-.46-1.13,0-.97Z"/>
      <path class="cls-7" d="M185.72,141.01c.41-.15.45.68,0,.56,0-.18,0-.37,0-.56Z"/>
      <path class="cls-3" d="M170.15,127.12h.42c.06.15-.14.26-.14.28-.15-.05-.2-.15-.28-.28Z"/>
      <path class="cls-7" d="M188.77,144.48s-.25.03-.28,0c-.09-.09.14-.26.14-.28l.14.28Z"/>
      <path class="cls-7" d="M187.94,144.76s.2-.05.26.02c.06.06,0,.22.02.26-.3.03-.31.02-.28-.28Z"/>
      <path class="cls-7" d="M185.58,140.18h.28c.04.11-.14.12-.14.14-.07-.02-.13-.07-.14-.14Z"/>
      <path class="cls-8" d="M147.22,133.37c-.08-.09-.16-.13-.14-.28.06.08.15.14.14.28Z"/>
      <path class="cls-3" d="M171.4,130.17c-.15-.05-.1-.19-.14-.28.09.07.12.17.14.28Z"/>
      <path class="cls-8" d="M143.05,131.15s0-.09,0-.14v.14Z"/>
      <path class="cls-8" d="M142.91,134.62c0-.1.14-.13.14-.14l-.14.14Z"/>
      <path class="cls-8" d="M147.63,133.93s-.12-.09-.14-.14c.06.03.09.1.14.14Z"/>
      <path class="cls-3" d="M172.93,130.17c.02-.06.08-.11.14-.14,0,.07-.07.13-.14.14Z"/>
      <path class="cls-10" d="M118.59,133.37v-2.92c1.03-.31,3.57-.05,3.63,1.32.07,1.87-2.29,1.91-3.63,1.6Z"/>
      <path class="cls-10" d="M118.59,128.65v-2.5c.68-.27,2.53-.11,3.05.35.63.56.02,2.15-.34,2.15h-2.71Z"/>
      <path class="cls-5" d="M169.73,132.12c0,.09-.02.2,0,.28.01.07.07.12.14.14.26.45,1.02,2.15,1.08,2.61.19,1.4-1.52,2.27-2.75,1.98.07.39-.13,1.41.06,1.68.2.29,1.99.05,2.44.13-.1.25-.08.61-.14.83-.49,1.86-.78,3.31-1.13,5.06-.48,2.38-1.08,4.93-1.55,7.21s-1.45-1.42-1.57-1.98c-.88-4.23-.4-8.87-1.08-13.1-.08-.53-.21-1.91-.93-1.78-.09-1.58-.7-5.12,1.01-6,.59-.3.93-.18,1.49-.25-.04.51.33.35.42-.14,0-.04,0-.09,0-.14.41-.03.85,0,1.09.37.18.42.51,1.03.65,1.43.2.57-.02,1.34.76,1.67Z"/>
      <path class="cls-3" d="M169.87,132.54c-.07-.02-.13-.07-.14-.14.05.04.11.08.14.14Z"/>
      <path class="cls-7" d="M128.63,131.88c.38-.38,2.6-1,2.74-.25.48,2.53-3.24,3.1-3.06.99.01-.15.21-.64.31-.74Z"/>
      <path class="cls-6" d="M108.16,130.17h-3.34c.01-2.5,3.35-2.48,3.34,0Z"/>
      <path class="cls-6" d="M157.92,130.17h-3.34c.18-2.41,3.27-2.58,3.34,0Z"/>
      <path class="cls-8" d="M145.13,149.21c.16.55-1.37,2.24-1.81,1.8s1.61-2.01,1.81-1.8Z"/>
      <path class="cls-3" d="M167.23,128.78c-.09.49-.46.65-.42.14.06,0,.25-.21.42-.14Z"/>
    </g>
  </g>
</svg>